<?xml version="1.0" encoding="utf-8" ?>
<svg baseProfile="full" height="300mm" version="1.1" viewBox="0,0,200,300" width="200mm" xmlns="http://www.w3.org/2000/svg" xmlns:ev="http://www.w3.org/2001/xml-events" xmlns:xlink="http://www.w3.org/1999/xlink"><defs /><rect fill="#222222" height="300" width="200" x="0" y="0" /><text fill="#FFFFFF" style="font-size:12px; font-family:Arial; font-weight:bold;" x="10" y="20">Over 10km Runs</text><text fill="#FFFFFF" style="font-size:4px; font-family:Arial" x="10" y="280">ATHLETE</text><text fill="#FFFFFF" style="font-size:9px; font-family:Arial" x="10" y="290">wjianbo</text><text fill="#FFFFFF" style="font-size:4px; font-family:Arial" x="120" y="280">STATISTICS</text><text fill="#FFFFFF" style="font-size:3px; font-family:Arial" x="120" y="285">Number: 4</text><text fill="#FFFFFF" style="font-size:3px; font-family:Arial" x="120" y="290">Weekly: 1.0</text><text fill="#FFFFFF" style="font-size:3px; font-family:Arial" x="141" y="285">Total: 69.1 km</text><text fill="#FFFFFF" style="font-size:3px; font-family:Arial" x="141" y="290">Avg: 17.3 km</text><text fill="#FFFFFF" style="font-size:3px; font-family:Arial" x="167" y="285">Min: 11.0 km</text><text fill="#FFFFFF" style="font-size:3px; font-family:Arial" x="167" y="290">Max: 20.6 km</text><polyline fill="none" points="75.18296409468167,82.88017761796073 77.92627960280515,80.92301372837392 81.35026737966109,79.32168373071181 86.15622612682637,75.17850124255347 90.79717341484502,73.98382549472444 93.04545454552863,72.78914268915833 93.58174178760964,72.33160272429814 92.94232238351833,71.77238580583071 93.0660809779074,71.31484354048735 95.35561497323215,68.2645353153057 94.96371275780257,67.09523829589307 92.44728800607845,66.73936394795601 90.15775401063729,65.69715689752775 87.9919786095852,63.790666685134056 85.1867838044418,60.53688187149237 82.48472116119228,59.799688974468154 79.53514132928103,60.180995980932494 77.5137509549968,61.096129862591624 73.12032085563987,65.31586029303435 67.69556913676206,64.93456296953082 66.14858670742251,65.23960088581953 60.76508785330225,69.10337466404599 57.25859434681479,71.00981478852918 55.11344537814148,71.03523386872257 52.24637127586175,69.6117604545725 49.131779984687455,68.6966651112889 46.65660809772089,69.07795534095203 42.94385026744567,68.28995474059775 38.48854087095242,68.67124573711772 36.40527119941544,69.33214842791494 22.193659281823784,74.84805972053437 18.54278074868489,76.70360896291095 16.89266615745146,78.17786882656219 14.974407945061103,82.90559520624811 14.5,83.23602356297488 16.459511077264324,78.07619607745437 17.655844155931845,76.70360896291095 17.903361344593577,77.28823053953238 18.54278074868489,76.60193547263043 22.750572956516407,74.5684549339785 38.715431627235375,68.64582635967236 43.005729564582,68.2391158867249 46.55347593582701,69.02711668520351 49.2967914439505,68.6966651112889 52.82391138270032,69.78969517930818 54.927807486616075,70.95897661842173 56.7841864018701,71.0860720196215 58.826203208533116,70.34891758068989 63.87967914447654,66.51058725066832 66.33422459894791,65.13792163155449 68.04621848743409,64.85830341860128 72.68716577545274,65.29044049378717 74.08976317802444,64.50242513378907 76.5855614974862,61.655376306924154 78.40068754774984,60.587722661861335 80.25706646300387,60.02847326462506 84.5267379678553,60.130155088263564 89.868983957218,65.31586029303435 92.26165011466946,66.61226581472147 95.21122994658072,67.34943387530802 95.47937356762122,68.34079358167946 93.60236822010484,70.577689935526 93.00420168065466,71.7978047902725 93.10733384254854,72.30618380702799 90.98281130637042,73.60254451507353 85.97058823541738,75.10224555467721 80.11268143623602,79.88087977384566 68.47937356762122,86.08276858400495 66.95301757066045,86.46402603528986 64.97288006113376,88.72613879706478 62.353323147515766,90.20031102553185 64.91100076399744,88.70072194034583 66.76737967913505,86.38777460246638 68.6031321620103,85.98109980893787 80.93773873185273,79.27084765002655 85.76432391139679,75.00057125934109 91.23032849514857,73.3737755822076 93.29297173419036,72.05199445837934 92.880443086382,71.77238580583071 93.21046600455884,71.03523386872257 95.4174942704849,68.34079358167946 95.19060351420194,67.29859478493745 92.52979373570997,66.76478356499865 89.49770817428362,65.1887612651044 85.53743315511383,60.791085695585934 84.07295645528939,60.05389372530044 82.03093964862637,59.95221186334675 78.73071046604309,60.486041068303166 76.72994652413763,61.629956047589076 74.35790679906495,64.3244857564423 72.50152788392734,65.39211967148003 67.63368983962573,64.93456296953082 65.36478227656335,65.59547787321208 67.24178762419615,64.83288356185949 72.7284186402103,65.21418107712816 73.78036669210996,64.6549444753764 76.75057295651641,61.5536952502589 78.19442322384566,60.587722661861335 80.48395721928682,59.90137091316865 84.05233002291061,59.82510946395632 85.68181818188168,60.816506060393294 88.4663865546463,64.24822597540333 90.3433919021627,65.67173714621458 92.57104660046753,66.71394432768284 94.79870129877236,66.9173012002284 95.25248281133827,67.24775568190671 95.5,68.31537416268839 93.43735676095821,70.62852820144326 92.98357524827588,71.6961288335151 93.39610389620066,72.05199445837934 90.65278838807717,73.65338202062412 86.01184110005852,74.82264111956465 81.0614973262418,79.22001155673934 68.68563789164182,85.90484819405538 67.15928189468104,86.26068881739047 66.33422459894791,86.94695110859175 67.2005347594386,86.18443730792205 68.27310924383346,86.05735139500757" stroke="#4dd2ff" stroke-linecap="round" stroke-linejoin="round" stroke-width="0.5"><title>2024-10-06 17.8km</title><desc>1728199446000</desc></polyline><polyline fill="none" points="164.3836035077693,83.38279289125057 167.41868190269452,81.1811780022108 170.79816635663155,79.43047989108891 175.1247674728511,75.53114553978958 181.08729736914393,73.80692710647418 183.1537337230984,72.53364906700153 183.36898750986438,72.32143531358452 182.72322614933364,71.5521586684481 185.2201700770529,68.13016995514045 184.8327132606646,66.9364399073238 182.20661706081592,66.4589459974668 179.21458942326717,64.92034716044145 177.12662769062445,63.08993048404227 174.60815838421695,60.092257286189124 172.86460271046963,59.40252114342002 171.14257241564337,59.58821955752501 169.95867658779025,59.26987931903568 166.6868190272944,60.41059628398216 163.24275843740907,64.2306267987151 162.05886260955594,64.94687482152949 161.3485251129605,65.13256835650827 156.87124634592328,64.49590412765974 155.29989370179828,64.70812575069431 151.44685091672,67.04254951837356 147.98126494814642,69.72179951488215 145.48432102042716,70.94204071443528 143.1595801222138,70.91551380690362 138.1656922667753,68.66071447553986 136.35756045707967,68.50155125944002 134.5279032685794,68.92598623553931 131.08384267869405,67.97100633887749 129.68469306395855,67.94447905787092 125.1643635397777,68.71376885422796 118.85742758447304,70.99509451961785 107.23372309328988,75.63725082945894 104.65067765081767,77.14924541035725 104.5,77.62671513279201 104.82288068020716,76.53914363752119 107.31982460804284,75.0006182914658 125.44419346260838,68.23627896593825 128.26401807076763,67.91795177353197 129.5340154132573,68.18322446719685 131.51435025245883,67.7587879972416 134.05434493755456,68.44849682747736 137.0463725749869,68.07711542971083 140.64111081580631,69.13820340347593 143.41788466647267,70.5176097931544 145.5058463991154,70.38497495517367 154.48192931164522,64.41632096402464 155.88107892638072,64.09798800913268 161.37005049164873,64.60201496590162 162.72614934900776,63.75312676613976 166.32088758971076,60.11878555433941 168.99003454681952,59.137237411297974 171.25019930908456,59.26987931903568 173.07985649746843,58.84542492069886 175.51222428923938,60.092257286189124 177.19120382668916,62.24103620152164 176.84679776767734,62.61242787036463 179.64509699703194,65.2652064958238 182.27119319688063,66.5120009296952 183.92864735575859,66.77727539073385 184.85423863935284,67.83836990034615 185.34932234918233,67.81184260260488 182.83085304277483,71.47257816573256 183.0461068295408,72.10922134670545 180.97967047558632,73.621241204135 175.3615466383053,75.26588208235626 169.485118256649,80.25277929738513 157.2156524049351,86.72495955158956 155.79497741174418,86.99020860702149 153.2980334839085,89.64268082806666 150.56431039061863,91.15457507930114 150.198378953035,91.07500196759065 151.1024448578246,90.86280685650127 153.36260961997323,89.43048427705071 154.3527770395158,88.05120149547292 155.90260430506896,86.80453430322814 158.52870050491765,85.955735405616 166.77292054216377,81.60558747861069 171.25019930908456,78.68775509287661 171.5515546107199,78.82038471288979 173.91934626619332,77.01661474023422 174.32832846138626,75.9820926523389 174.99561520060524,75.42504019687476 176.33018867927603,74.6823013023095 180.8505182034569,73.594714633291 183.06763220834546,72.02964105413412 182.74475152790546,71.71131958365731 182.89542917883955,71.23383647776791 185.26322083431296,68.23627896593825 185.15559394098818,67.30782331248338 184.50983258045744,66.85685766408278 182.12051554606296,66.53852839079627 180.03255381342024,65.50395493638644 177.6001860217657,63.54090418269334 175.16781823011115,60.54323739129177 174.0269731596345,59.773917808168335 170.71206484176219,59.45557784991979 167.89224023383576,59.959615895408206 166.49309061910026,60.62282201574999 162.96292851446196,64.33673777029617 161.60682965721935,65.10604071877606 156.78514483128674,64.57548726137611 154.1375232526334,65.10604071877606 146.77584374172147,70.43802890036022 145.44127026305068,70.99509451961785 143.03042785008438,70.94204071443528 137.58450704219285,68.58113288253662 134.312649481697,68.95251339323295 129.9860483655939,68.10364269412821 124.77690672327299,68.84640474255139 110.16117459477391,74.52314262771688 125.20741429703776,68.58113288253662 130.22282753128093,67.91795177353197 134.44180175394285,68.92598623553931 137.2185756044928,68.42196960642468 140.2321286208462,69.3504203579505 143.56856231729034,70.94204071443528 145.74262556468602,70.78287921905576 154.65413234115113,64.76118112317636 155.79497741174418,64.49590412765974 161.6283550359076,64.92034716044145 163.13513154396787,63.96534913624055 165.63207547180355,61.232969805481844 167.09580122237094,60.224898593645776 168.99003454681952,59.58821955752501 173.03680574009195,59.26987931903568 174.5866330055287,59.85350272268988 177.81543980864808,63.567432017225656 180.33390911505558,65.53048252419103 182.09899016737472,66.40589105187973 185.06949242623523,66.962967315063 185.5,67.89142448580242 183.5411905394867,69.9870699410676 182.72322614933364,71.73784639123187 182.89542917883955,72.21532835681865 182.1420409247512,72.85196929711674 179.81730002653785,73.9395597937255 175.38307201687712,75.10672384784266 169.72189742233604,79.93447022981127 167.05275046499446,81.36685725318966" stroke="#ff0000" stroke-linecap="round" stroke-linejoin="round" stroke-width="0.5"><title>2024-09-22 20.6km</title><desc>1726992504000</desc></polyline><polyline fill="none" points="73.53971405874472,233.04778611111396 75.29825258150231,231.67357767521753 75.98451151710469,231.59429614523833 79.52303415408824,229.42725608528417 84.88443208904937,224.85525683985907 89.5595710882917,223.5867076388531 92.17593328037765,222.26529408256465 92.56195393169764,221.86886839621002 91.94003177119885,221.34029965172522 92.04725973005407,220.89101517410018 95.5,216.2395429831813 91.72557585395407,216.21311386991874 89.45234312943649,215.1030881118495 86.12827640993055,212.35442767753557 84.02660841948818,209.73788099254307 82.7398729150882,209.0242716993962 77.65726767282467,209.36786166139063 74.09729944402352,211.69368663856585 72.01707704528235,214.17806216985628 70.53733121533878,214.78593681876373 66.07664813345764,214.12520342174685 64.10365369345527,214.52164370911487 56.01866560766939,220.04530061184778 54.410246227285825,220.65315829731117 51.729547259863466,220.25672957136703 50.35702938854229,219.22601138557366 46.79706115974113,217.93099932304176 43.751787132699974,218.48600546944363 40.83518665609881,217.56099441145489 38.862192216096446,217.48170756000036 33.350675139110535,218.67100719265 17.695393169298768,224.72311665519373 14.735901509178802,226.3880769131938 14.5,225.99165900000662 16.60166799055878,224.6174044476502 23.871723590185866,221.73672633466776 32.38562351081055,218.59172075970855 32.40706910251174,218.9617238573992 35.473788721254095,217.95742822036846 40.74940428917762,217.53456546430243 43.751787132699974,218.35386128175014 47.204527402762324,218.08957265719073 48.6628276410047,218.4067189667403 51.92255758540705,220.20387235141243 54.49602859420702,220.49458689666062 56.190230341628194,219.86030009787646 63.95353455119766,214.3366383346147 65.69062748225406,214.04591527448792 69.89396346313879,214.65379030555778 71.18069896742236,214.41592637223948 72.10285941231996,213.9401976983645 76.0917394758435,209.8964605065703 78.49364575056825,209.10356174038316 82.3109610802494,208.9714116552932 83.426131850807,209.1828517515969 84.41262907080818,209.97575021868397 87.32922954729293,213.49089740679483 89.2378872120753,214.9973710673221 91.33955520263407,216.0016808440123 93.16243050049525,216.2659720931115 94.10603653697763,217.3759917115094 94.62073073873762,217.2174178391724 94.62073073873762,217.7195680247387 94.10603653697763,217.93099932304176 92.15448768867645,220.9438722213672 91.98292295483407,221.39315658598207 92.36894360603765,221.6310126256285 90.09571088163648,223.21671268023783 84.84154090553056,224.64383250453102 78.12907069106586,230.1407961322402 75.42692613194231,231.27716972661437 66.63423351862002,236.1661488651298 65.17593328037765,236.45684134170006 62.75258141383529,239.0466293050995 59.986100079491735,240.6057719837845 62.6882446387317,238.91449803819705 65.00436854653526,236.40398819402617 67.04169976175763,235.84902934136335 79.41580619546585,229.16298137939884 84.62708498816937,224.64383250453102 89.85980937257409,223.190284443961 91.91858617949765,221.92172519757878 92.30460683081765,221.57815575118002 91.94003177119885,221.3138711796637 92.26171564741526,220.5474440435064 94.53494837181643,217.53456546430243 94.14892772038002,216.55669208342442 91.48967434477527,216.1338265101076 88.85186656087171,214.81236611150962 86.21405877685174,212.4337164626486 84.26250992855057,209.8964605065703 83.3403494838858,209.31500170376967 81.71048451156821,208.9714116552932 78.55798252578825,209.1828517515969 75.7057188245235,210.37219833084964 72.40309769660234,213.86090948141646 70.85901509132236,214.68021961474733 65.90508339949884,214.15163279746776 64.10365369345527,214.49521437987278 54.860603653709404,220.60030117706629 52.69459888804704,220.5474440435064 49.992454328923486,219.17315390659496 46.49682287534233,218.06314377649687 43.558776807039976,218.48600546944363 40.64217633055523,217.6931390974496 39.11953931709286,217.7195680247387 35.602462271694094,218.14243040868314 32.72875297861174,219.04101015072956 32.62152501998935,218.56529194215545 34.48729150125291,217.7988547864952 40.04169976175763,217.243846826168 40.57783955533523,217.6931390974496 43.666004765662365,218.43314780433138 46.668387609301135,218.06314377649687 49.692216044524685,219.0145813896088 52.544479745905846,220.44172973648529 54.345909452065825,220.57387261191616 56.21167593332939,219.86030009787646 63.0742652900517,215.1030881118495 65.54050833999645,218.9617238573992 66.01231135823764,218.98815262521384 66.65567911043763,220.15101511815737 68.28554408263881,220.49458689666062 68.97180301824119,221.8160115815408 71.24503574275877,224.14169885602314 71.45949166011997,225.3309608171112 72.61755361407995,226.2559376918798 71.75972994440235,226.89020519707992 73.28236695798114,232.492818400744 66.46266878477763,236.24542867127457 65.15448768879287,236.5096944761317 61.658856235211715,239.81298901546688 59.23550436855294,240.73790218784416 59.29984114377294,241.0285883447068 61.229944400372915,240.3415113263909 64.44678316125646,237.83101851867104 62.10921366175171,240.02439809917996 59.149722001631744,240.9757363460958 59.21405877685174,240.6586240753386 60.71525019861292,240.28865915506321 62.79547259735409,238.88807177492708 65.15448768879287,236.324708447617 66.54845115181524,236.113295644318 72.59610802226234,232.91565107478527" stroke="#4dd2ff" stroke-linecap="round" stroke-linejoin="round" stroke-width="0.5"><title>2024-08-22 19.7km</title><desc>1724317734000</desc></polyline><polyline fill="none" points="163.6003201707499,223.86409369824105 163.94610458915122,222.9763749598933 170.14140875136945,219.81607361210627 177.83511205983814,213.1757747089723 184.4914621132193,211.54230827948777 185.5,210.9741438292549 185.24066168628633,210.6545508239651 177.48932764143683,213.03373452479718 170.2278548560571,219.2834350724006 166.65474919963162,221.3074561811227 165.2427961579524,221.55601917719468 154.95570971188135,227.62799016444478 151.0944503735518,228.9062832185009 147.78068303107284,232.35054405234405 144.52454642474186,234.3389641805261 141.6141942369286,234.3389641805261 141.35485592321493,233.52229332132265 139.2801494130399,233.38026336563053 137.8970117396675,235.19113995195949 136.42742796160746,235.90128446486779 134.5832443969557,235.4396907344635 128.61846318037715,235.79476290172897 120.31963713979349,237.39258213239373 114.32604055502452,237.96069345940487 111.38687299902085,238.5998173368862 109.85965848458,239.45198025810532 108.96638207044452,238.91937873349525 104.5,238.70633784262463 104.98986125935335,238.0672142060066 109.83084311638959,238.52880364409066 109.85965848458,239.38096677945578 111.12753468519077,238.49329679104267 114.643009605119,237.6411309785035 127.86926360731013,236.11432747074286 128.70490928494837,235.6527340883913 134.06456776952837,235.26215448358562 136.1969050159678,235.72374850389315 137.8970117396675,234.9425889508857 139.42422625399195,233.16721829836024 141.47011739597656,233.4157708612911 141.78708644607104,234.16142723802477 144.87033084314317,233.91287533109426 147.55016008543316,232.42155929782894 151.0944503735518,228.7287428624404 153.31323372467887,228.19612112466712 169.16168623277918,219.8515828124073 176.94183564581908,213.14026466960786 185.15421558183152,210.54801974186557 177.25880469591357,213.1757747089723 169.50747065106407,219.60301831678953 153.25560298829805,228.40916994030704 150.80629669164773,229.04831542313332 148.55869797221385,231.64039061532822 143.9770544291241,234.5520083643496 148.0400213447865,232.0309752265166 150.66221985046286,228.94179127630196 154.465848452528,227.6634983829572 162.5341515475884,223.40248030240764 165.06990394880995,221.59152815875132 169.44983991468325,219.81607361210627 176.76894343656022,213.42434485940612 184.5202774812933,210.90312319272198 177.28762006398756,213.14026466960786 169.82443970115855,219.5675090852019 165.6173959444277,221.84009090493782 164.8970117395511,221.66254610856413 162.1595517609967,223.68655017364654 152.82337246532552,228.6222185951774 150.89274279621895,228.97729932976654 153.60138740669936,227.98307214843226 153.54375667020213,227.41494075988885 156.4541088581318,224.9293525023968 156.7998932765331,223.260445259657" stroke="#4dd2ff" stroke-linecap="round" stroke-linejoin="round" stroke-width="0.5"><title>2024-07-03 11.0km</title><desc>1719998343000</desc></polyline></svg>