<?xml version="1.0" encoding="utf-8" ?>
<svg baseProfile="full" height="300mm" version="1.1" viewBox="0,0,200,300" width="200mm" xmlns="http://www.w3.org/2000/svg" xmlns:ev="http://www.w3.org/2001/xml-events" xmlns:xlink="http://www.w3.org/1999/xlink"><defs /><rect fill="#222222" height="300" width="200" x="0" y="0" /><text fill="#FFFFFF" style="font-size:12px; font-family:Arial; font-weight:bold;" x="10" y="20">Over 10km Runs</text><text fill="#FFFFFF" style="font-size:4px; font-family:Arial" x="10" y="280">Runner</text><text fill="#FFFFFF" style="font-size:9px; font-family:Arial" x="10" y="290">jianbo</text><text fill="#FFFFFF" style="font-size:4px; font-family:Arial" x="65" y="280">SPECIAL TRACKS</text><rect fill="yellow" height="2.6" width="2.6" x="65" y="283" /><text fill="#FFFFFF" style="font-size:3px; font-family:Arial" x="70" y="285.5">Over 20.0 km</text><rect fill="red" height="2.6" width="2.6" x="65" y="287" /><text fill="#FFFFFF" style="font-size:3px; font-family:Arial" x="70" y="289.5">Over 40.0 km</text><text fill="#FFFFFF" style="font-size:4px; font-family:Arial" x="120" y="280">STATISTICS</text><text fill="#FFFFFF" style="font-size:3px; font-family:Arial" x="120" y="285">Number: 17</text><text fill="#FFFFFF" style="font-size:3px; font-family:Arial" x="120" y="290">Weekly: 1.0</text><text fill="#FFFFFF" style="font-size:3px; font-family:Arial" x="141" y="285">Total: 289.2 km</text><text fill="#FFFFFF" style="font-size:3px; font-family:Arial" x="141" y="290">Avg: 17.0 km</text><text fill="#FFFFFF" style="font-size:3px; font-family:Arial" x="167" y="285">Min: 10.0 km</text><text fill="#FFFFFF" style="font-size:3px; font-family:Arial" x="167" y="290">Max: 42.8 km</text><polyline fill="none" points="17.91479272028664,70.0157401631368 17.8915986456268,69.74897782572953 18.641540392825846,69.31072337638034 19.793512767442735,68.89152109740826 19.92494585714303,68.70097384065593 20.497066365380306,68.42467946750548 21.67223281459883,67.16705097577506 23.751968175463844,66.500118309159 24.718387952802004,65.8712907058507 24.90394055005163,65.9094016181698 25.40647883428028,65.20434663803462 25.95540526782861,63.98477659434866 27.377975180046633,63.0129176664268 28.32120088278316,61.50746452806925 28.76188830123283,61.040577416504675 29.63553177996073,60.99293571277667 31.212728856567992,61.755199378487305 31.552908618206857,61.81236884437385 32.66622420173371,61.37406850398111 33.0605234708637,60.859538783050084 33.45482274002279,59.93528217798303 33.779539785231464,59.601784759368456 34.189301770791644,59.430271229743084 35.24076648859773,59.35404286978883 35.712379339907784,59.087243006099015 36.20718626593589,58.27730909476668 36.50097787822597,54.32280157218338 36.87208307272522,53.569992421027564 37.70706976039219,52.845763900688326 38.5497878062306,52.51223528051196 40.165641673927894,52.96964558570471 40.242955256137066,53.188820378432865 40.30480612188694,53.06493905174284 41.07794194374583,53.14117373828776 41.46450985467527,52.98870428850205 41.178449600585736,52.72188201313111 42.07528715397348,51.73081962134893 42.69379581147223,51.27340183767956 43.33549854363082,51.00657352199778 46.667713935952634,50.32043925256585 49.048972267337376,50.434795395616675 49.79118265633588,50.234672032012895 50.34010908988421,48.84332355843799 50.85811009054305,46.508469047890685 50.87357280694414,45.993838375965424 50.57204983642441,44.82161101742531 51.05912540422287,42.81067468373658 50.85811009054305,40.809215850043984 50.989543180243345,40.551881591934944 50.95861774738296,39.80846660219686 51.35291701654205,37.025361086431076 51.90957480826182,35.748148295184365 51.87864937540144,35.50985994273651 51.84772394254105,35.9101839466166 51.8399925842823,35.53845458460273 51.29106615076307,34.76639546462684 51.260140717902686,34.38512879877089 51.39157380760298,32.82191540194617 51.54620097199222,32.7647240560982 51.64670862883213,32.25 51.13643898637383,32.259531958763546 51.42249924046337,32.82191540194617 51.29879750899272,34.60435736614454 51.461156031582505,35.01421776822099 51.90957480826182,35.50985994273651 51.955962957581505,35.76721133099636 51.8399925842823,36.32003728241398 51.63124591240194,36.4439459938294 51.43796195695177,36.81567091184843 50.91222959803417,40.38032493417995 51.07458812065306,42.858327820998966 50.6029752693139,44.6500640289305 50.87357280694414,46.508469047890685 50.34784044808475,48.910032630039495 49.78345129813533,50.11078587536758 49.280913013906684,50.453854736013454 46.68317665235372,50.358557986102824 43.07263236420113,51.1304582140001 42.19125752724358,51.68317206440406 41.209375033475226,52.702823243242165 41.47224121293402,52.979174937689095 41.05474786911509,53.1125857398074 40.58313501774683,53.09352706819482 38.603907313750824,52.52176469002734 37.42874086447409,53.05540971053415 36.74064998302492,53.84634095292131 36.47778380359523,54.522914138920896 36.25357441522647,58.25825172202167 36.00617095225607,58.99195711281209 35.23303513036808,59.401685603748774 33.84139065098134,59.601784759368456 33.4393600236217,59.992453016697254 33.10691162018338,60.85001042195654 32.681686918163905,61.39312509320007 31.76938664834597,61.77425587190373 31.37508737918688,61.81236884437385 29.620069063501433,61.00246405592043 28.83147052518325,61.088219090233906 28.522216196462978,61.3359553110713 27.679498150624568,62.736602558790764 27.20015394105576,63.260647596143826 26.27239095477853,63.78468901023007 25.909017118508928,64.15627981747821 25.236388953460846,65.52829163250863 24.656537087081233,66.17617746802716 24.192655593942618,66.47153534942481 24.05349114598357,66.38578640562628 22.012412576237693,66.98602697505703 19.82443820030312,68.84388432812557 15.4021012991725,71.17805082035193 14.884100298484555,71.26379434335104 14.00272546155611,72.20696669575409 13.044037042418495,72.75 14.0336508944456,72.14980506901338 14.853174865624169,71.27332139546343 15.680430195032386,71.00656348341727 19.94813993186108,68.69144646519999 21.749546396808,67.14799583816057 23.929789414512925,66.42389705931419 21.93509899402852,67.04319249568653 20.056378946872428,68.68191908860172 18.309091989445733,69.59654178291385" stroke="#4dd2ff" stroke-linecap="round" stroke-linejoin="round" stroke-width="0.5"><title>2026-02-08 18.0km</title><desc>1770535113000</desc></polyline><polyline fill="none" points="64.45596471967292,70.80054405629198 64.36434190100408,70.52957218408847 65.10954082594253,70.1758015057676 65.24392095996882,70.19838267533851 65.57376310709515,69.87471843139429 65.91582162998384,69.83708294066673 67.45508498314302,68.31658933615472 67.83990082141827,68.12087943432198 69.09207934283768,67.83484073502404 69.72122269749525,67.37567049236532 69.91668471056619,67.36061567069919 70.69853276299546,65.93791794496428 71.77968202292686,65.23032024659187 72.70201839721994,63.784988327144674 72.94634591360227,63.57420784070928 73.6365711473627,63.40859408086908 75.10253624556935,64.07857419675202 75.41405382900848,64.01835157162714 76.07984631109866,63.739821142509754 76.34860657909303,63.41612198897565 76.64179959872854,62.685910495416465 76.94720899421372,62.33209347612865 77.31370026877266,62.18906047062774 77.94895181132597,62.181532408241765 78.44982321988209,61.97074627714392 78.79798993072473,61.541643645919976 78.87128818567726,61.225460791894875 79.06064201082336,58.221640395939176 79.32329409092199,57.64946704218164 79.88524737861007,57.09987432965136 80.6793118068017,56.746024296768155 81.99257220729487,57.09987432965136 82.02311314686085,57.2655055412979 82.12084415336722,57.16010391418604 82.72555475641275,57.22033343811563 83.01263958815252,57.11493173146664 82.7866366355156,56.90412776144876 83.50740280881291,56.06090445807786 84.3625491161074,55.586586130310025 85.59029488588567,55.315545398501854 86.03008441536804,55.3306032490982 87.16620736647747,55.00685862584942 89.16358481283532,55.07461927327313 89.51785971157369,54.93909790172256 90.0492720596958,53.75703737414369 90.41576333425473,52.01025551657949 90.409655146359,51.400375706849445 90.21419313322986,50.67754714440889 90.26916682440788,50.150479147683654 90.61122534735478,49.35233877381688 90.60511715942994,49.19421536105801 90.53792709243135,49.39751681499911 90.56846803196822,48.4487707882181 90.42187152215047,47.60542836030072 90.4951697770739,46.76960404995407 90.86776923952857,44.33736419576235 91.11820494383574,43.88554404736351 91.19150319870096,43.32829449928977 91.2159359503712,43.591859121490415 91.20371957455063,43.36594665924349 90.79447098460514,42.74844824403408 90.74560548135196,42.24390212551589 91.01436574934633,41.19714362413288 91.16707044708892,40.01481163891731 91.88783662038622,38.24503538978752 92.10162319720257,38.36553245478717 93.05450051106163,36.18148548652607 93.2377461483411,35.47353590992134 94.03791876445757,33.85425804177794 94.12343339520157,33.583118858816306 93.91575500628096,33.45508048410193 94.10510883145616,32.965519465367834 94.68538668283145,32.25 94.111217019381,33.03330507618375 93.14001514180563,35.481067332493694 92.68190104860696,36.279392747281236 92.35816708940547,37.24339414364658 91.86951205666992,38.13960025881897 91.9000529962068,38.305283952635364 91.17317863501376,40.075058419650304 90.76393004506826,42.43216610012314 91.27090964154922,43.53161588162766 91.2159359503712,43.88554404736351 90.89831017906545,44.254530757269094 90.6661990385328,45.64762333505496 90.47073702540365,47.28917188597552 90.60511715942994,48.9532645954896 90.53181890450651,49.40504648523347 90.60511715942994,49.20927475172357 90.61733353525051,49.33727941917459 90.22640950905043,50.48177957314692 90.45241246171645,51.92743269717539 90.12257031461922,53.5763381665347 89.54229246321484,54.961684818299545 89.07807018212043,55.12732194601995 87.09290911158314,55.02944551684777 84.40530643146485,55.60917280258218 83.53794374834979,56.068433290132816 82.7866366355156,56.8815415777608 83.00653140025679,57.11493173146664 82.65836468941416,57.2655055412979 82.04143771057716,57.21280475093954 81.9803558314743,57.37843565012736 82.01089677101118,57.12246043094274 80.74039368587546,56.746024296768155 79.81194912368665,57.15257521942476 79.29275315138511,57.724753322228935 79.03010107128648,58.387268504066014 78.85907180982758,61.32332709180628 78.79188174282899,61.55669993065749 78.41317409242038,62.00838671213933 77.94895181132597,62.21164465211041 77.11823825567262,62.27186909439479 76.81282886018744,62.43748599838 76.38525570655474,63.35589869758405 76.07984631109866,63.717237537428446 75.33464738616021,64.07104637192606 74.9376151720644,64.06351854614331 73.63046295946697,63.46128941778443 73.09294242344913,63.498928915749275 72.5737464511476,63.95812888591536 71.66362645264599,65.29054165282287 70.86345383652952,65.77231072244103 70.5519362531777,66.20891059389032 70.28928417307907,66.8487494822366 69.87392739523784,67.33050601601644 69.73343907331582,67.30039634621426 68.93937464509509,67.83484073502404 67.51005867432104,68.23378907114966 65.75090055644978,69.69406786020772 62.59296740734135,71.38011866756278 61.988256804295816,71.56076415315692 61.32246432220563,72.26076026369265 60.74829465872608,72.6220453779315 60.31461331716855,72.75 60.626130900520366,72.74247326507975 61.01705492672045,72.56935810116556 62.1226369383221,71.68872104250477 64.43153196803178,70.46935604598548" stroke="#4dd2ff" stroke-linecap="round" stroke-linejoin="round" stroke-width="0.5"><title>2026-02-01 19.0km</title><desc>1769905033000</desc></polyline><polyline fill="none" points="107.34082733813557,68.53137988266826 109.90647482013446,67.18494207385811 111.37140287767397,65.73874268399231 113.68615107910591,65.03059405962267 111.67086330932216,65.62902993053285 109.67985611507902,67.35449475889618 105.18794964026893,69.77806118874287 104.28147482010536,70.057315116479 103.40737410070142,70.99480325865443 102.50899280572776,71.54332841915311 102.25,71.60316729819897 103.41546762589132,70.93496392088127 104.23291366902413,70.00744841574488 104.8237410071888,69.89774156381463 108.2149280575104,68.03270187645103 109.63129496402689,67.48415245009528 111.0881294963765,66.34714701831399 111.50089928053785,65.67889938272128 113.61330935251317,65.05054199470032 114.51169064748683,64.46207580187183 114.76258992805379,64.45210176098044 115.20773381294566,63.85365701390401 115.79046762589132,62.56698552360467 117.44964028775576,61.37006307947013 118.46133093521348,59.704315961906104 118.8012589927821,59.39510157060431 119.58633093524259,59.24548127124581 121.3749999999709,60.08335131360218 121.82823741008178,60.10330049248296 122.92086330935126,59.65444275447953 123.3012589928112,59.21555717749288 123.59262589924037,58.437526778827305 123.99730215827003,57.878936146255 124.62050359710702,57.62956405836303 125.559352517972,57.58966445156693 126.07733812948572,57.33031651821511 126.57913669064874,56.542292595993786 126.8462230215664,52.502300189837115 127.1699640287552,51.69427701843961 127.89838129494456,50.916172851961164 129.19334532372886,50.40740830856521 130.76348920859164,50.87626986843679 130.81205035970197,51.1356389024877 130.8848920862947,51.02590595311631 131.71043165464653,51.0658088613709 132.09892086329637,50.89622136273101 131.807553956809,50.636851545845275 132.71402877697255,49.66919512939057 133.47482014386333,49.08061483426718 134.02517985610757,48.87111909901432 137.48920863308012,48.12291552775423 140.31384892083588,48.21270032893517 140.72661870502634,48.02315451831237 141.38219424456474,46.68634488603129 141.92446043161908,44.23214317840757 141.9487410071597,43.55373256075109 141.66546762589132,42.24677810040885 142.15107913667453,40.14163822595583 141.932553956809,38.066374552538036 142.04586330935126,38.016487738066644 142.07014388486277,36.9189698799164 142.47482014389243,34.21502016107115 142.75,33.39683270180103 142.46672661867342,34.26490936719347 141.9568345323496,37.86682710643072 142.19154676259495,40.620537515227625 141.71402877697255,41.747934840903326 141.65737410070142,42.25675493360177 141.98111510789022,43.57368589704856 141.97302158272942,44.14235387105873 141.4874100719171,46.40700868415297 140.74280575537705,48.07303503870207 140.2005395682936,48.272556806616194 137.52967625897145,48.14286771456682 133.99280575540615,48.89107109767065 132.92446043164819,49.43974909309327 131.8399280575104,50.58697263765498 132.1312949639978,50.87626986843679 131.79136690645828,51.07578458527132 130.8525179855933,51.01593022293673 130.77967625897145,51.26532310147741 130.77967625897145,50.90619710797182 129.1043165467272,50.41738411530241 127.90647482010536,50.93612433618546 127.21043165461742,51.69427701843961 126.89478417264763,52.492324645325425 126.61151079135016,56.61211781654856 126.41726618705434,57.15076745231636 125.57553956835181,57.60961425745336 124.5800359712157,57.66946364509931 124.07014388486277,57.85898640808591 123.71402877697255,58.24800539792341 123.3174460431328,59.195607775393 122.90467625897145,59.714290599600645 121.8606115107541,60.13322425138904 121.52068345321459,60.14319883520511 119.59442446037428,59.24548127124581 119.03597122302745,59.25545596663869 118.54226618702523,59.664417398453224 117.6843525179429,61.10075304120983 117.15017985610757,61.70919293844781 115.83093525178265,62.57695980143035 115.24010791367618,63.88357935845124 114.52787769780844,64.7014524068727 114.01798561148462,65.03059405962267 113.87230215824093,64.93085430903011 111.71942446043249,65.61905603631749 109.33992805753951,67.53402073644975 104.89658273381065,69.92766162937187 104.24910071940394,70.087235121915 102.93794964026893,71.32391880991054 102.28237410070142,71.59319415483333 103.3830935251608,70.96488359542127 104.22482014389243,70.03736843994557 104.92086330932216,69.86782148693601 109.3237410071597,67.55396804221527 110.68345323737594,66.43691119734285 109.67176258988911,67.35449475889618 107.64838129491545,68.43164453214558" stroke="#4dd2ff" stroke-linecap="round" stroke-linejoin="round" stroke-width="0.5"><title>2026-01-25 19.0km</title><desc>1769297747000</desc></polyline><polyline fill="none" points="154.04798839057912,70.6406867259866 154.04193982417928,70.43198734129328 155.4573043550481,69.71644101817947 157.21743716904894,68.27041480415573 158.76587016010308,67.80827528012378 157.18114577082451,68.33749927442841 155.6206156470871,69.64190444632186 152.39068120488082,71.3934891183817 151.67090180673404,71.61709194874129 150.9269281430752,72.39224190065215 150.29787724046037,72.75 151.0599966032314,72.25062872346825 151.6648532403342,71.594731703648 152.31809840843198,71.3934891183817 155.1790703019651,69.85806024654448 155.2577016647847,69.94005017156451 155.5540814169799,69.79097749631546 156.78798895669752,68.80708844152832 156.92710598325357,68.50148321561574 157.1146115407464,68.35986074765606 158.7053844963666,67.86045250350799 159.57032948744018,67.39830978459213 160.380837381148,65.92986466133516 161.48167646070942,65.17699290806195 162.30428148718784,63.87994390320455 162.58251554027083,63.64140306633999 163.2841492393054,63.57431328306848 164.53620247816434,64.19302729518677 164.84467936307192,64.19302729518677 165.6128472921846,63.85758074049954 165.9092270443798,63.499768990386656 166.27214102665312,62.70959372618745 166.5140836814826,62.47104818081061 166.91328906198032,62.321956727577344 167.62701989381458,62.2921383919529 168.2197793981759,61.96413571019002 168.401236389298,61.31557961196813 168.57664481404936,58.445447341146064 168.78834463705425,57.92359018114075 169.42949267241056,57.289900310821395 170.31258336256724,56.91713839926888 171.44971384035307,57.27498987935542 171.56463660139707,57.409183627471066 172.15739610578748,57.43900441912774 172.49611582257785,57.29735552515194 172.27231886683148,57.096064409357496 172.9618554331537,56.357991136959754 173.82680042419815,55.8137494032344 176.5728495567164,55.20240341466706 178.56887645920506,55.284413608565956 179.0043732379272,55.18003697846507 179.45196714939084,54.07661564726732 179.85117252985947,52.190314044088154 179.6273755741131,50.714036131306784 180.04472665378125,49.625444014971436 180.03262952101068,49.4763202501199 179.96004672456183,49.67763724402175 179.839075397118,47.791195630248694 179.96004672456183,47.656980104817194 179.94190102544962,47.05300647871263 180.1838436802791,45.084457118118735 180.67982612270862,43.824252930640796 180.6435347245133,43.63782991726475 180.61934045903035,43.943563351429475 180.625389025372,43.68257149396595 180.2019893793913,43.041272333030065 180.14755228205468,42.720620149768365 180.58304906077683,40.38651824799308 181.27863419346977,38.529611125068186 182.54278456501197,35.837365307936125 183.55289514901233,33.271787298250274 184.0549261578126,32.63037543323662 184.70212275953963,32.25 183.89766343214433,32.80191649610424 183.50450661807554,33.39111897195835 182.53673599867034,35.837365307936125 182.0709963880945,36.67264579936091 181.75042237041635,37.642153030192276 181.2846827598405,38.49232323736942 181.55686824655277,38.77571059530965 181.41170265362598,38.91740376592497 180.78870031741099,40.47600627796055 180.5467576625524,41.9674535457998 180.31086357409367,41.9898249690159 180.1838436802791,42.877217944442236 180.65563185722567,43.608002180688345 180.64958329085493,43.898821971783036 180.6435347245133,43.578174429123465 180.70402038819157,43.74968379567872 180.64958329085493,44.16726974285848 180.51651483069872,44.234381495600246 180.31086357409367,44.63705041588037 179.8874639280839,47.515307831527025 180.0205323882692,49.34210854093544 179.6576184059959,50.766228401716944 179.8874639280839,52.15303475136898 179.48220998121542,54.0617044075334 178.96203327333205,55.16512601629802 178.48419653001474,55.314235469133564 176.56680099034566,55.23222531648571 173.8993832206761,55.80629400230828 173.11911815879284,56.19397360623407 172.2904645659437,57.096064409357496 172.51426152169006,57.29735552515194 172.15134753941675,57.3942732260075 170.2581462652306,56.9395041800708 169.3690070086741,57.31972116248653 168.81858746890794,57.92359018114075 168.64317904412746,58.393261831868585 168.4193820884102,61.45721890559798 168.35889642470283,61.69576853000399 167.98993387605879,62.13559188381987 167.6633112920099,62.299592977266 166.876997663785,62.359229626032175 166.45964658417506,62.52323010087275 165.65518725677975,63.850126351051586 164.91726215952076,64.17811859972062 164.55434817724745,64.1855729479139 163.22971214196878,63.56685885800471 162.6248555048369,63.63394864973452 162.35267001815373,63.887398288876284 161.52401642530458,65.13226755259893 161.22158810676774,65.43043595171548 160.61068290326511,65.74351115716854 160.32640028384048,66.04913059665341 159.94534060245496,66.89889344253606 159.51589239010355,67.45794130553259 159.37072679717676,67.39830978459213 158.92313288571313,67.77100580673141 158.92313288571313,67.89026803914385 158.69933592996676,68.00207616416083 157.2113886026782,68.41949130171633 155.783926939097,69.65681176820362 153.7516086383839,70.74503614291461" stroke="#ffa900" stroke-linecap="round" stroke-linejoin="round" stroke-width="0.5"><title>2026-01-18 21.1km</title><desc>1768694323000</desc></polyline><polyline fill="none" points="17.442307692341274,117.4979294751538 17.68381037565996,117.07136940123019 19.33407871198142,116.29760338373308 19.97003577821306,115.85119646161183 21.394901610037778,114.49211984317662 22.071109123440692,114.17466791834886 23.504025044763694,113.82745341363625 24.4539355992747,113.23222499448457 24.671288014302263,113.2421455049116 25.202593917725608,112.47826255244581 25.717799642210593,111.34730538396252 27.134615384595236,110.3453034750346 28.438729874789715,108.41070934020536 29.17933810374234,108.02378482200584 29.340339892660268,107.74599169026624 29.799194991093827,107.82536125625484 30.77325581398327,108.29165584434668 30.950357781752246,108.42063045674149 30.789355992834317,108.65873687966086 31.288461538468255,108.88692152747535 31.779516994633013,108.90676363957755 32.777728085871786,108.51984155359241 33.18828264757758,107.954336630748 33.56663685152307,107.0217407127493 34.0013416815782,106.58520266629785 35.49060822898173,106.38677548320265 36.231216457963455,105.95023392401345 36.47271914134035,105.21604494634812 36.73032200356829,101.23741559151676 37.05232558140415,100.50318276043254 37.73658318424714,99.76894309652562 38.98434704830288,99.26290908049123 40.2723613595881,99.63995434183016 40.69096601073397,99.85824288008735 40.62656529515516,100.0169978013073 40.75536672628368,99.84832068692049 41.52012522361474,99.91777601298963 41.94677996422979,99.73917647955386 41.64892665477237,99.46135417950427 42.50223613594426,98.60803671232134 42.63908765651286,98.28059848979319 43.62924865828245,97.77455492742592 47.37254025042057,96.95098689585575 50.02101967800991,97.07998004694673 50.5684257602843,96.88152895792155 51.22853309480706,95.22444287712278 51.711538461531745,93.01163293801073 51.4217352415144,90.95753407841403 51.97719141325797,89.5087172066269 51.969141323817894,89.33009410577506 51.8644901610096,89.62779904912895 51.93694096602849,89.15147060041636 51.67933810377144,87.23620426015987 51.880590339918854,86.82932821921713 51.808139534899965,86.17435262241634 52.186493738845456,83.31621363667364 52.51654740606318,82.38332640776207 52.70974955277052,82.20468716890173 52.75,82.3734020162301 52.58899821108207,82.41309957490739 52.323345259414054,82.87954439265013 51.783989266550634,86.69039445622911 51.93694096602849,88.59575044130906 51.85644007156952,89.59802860536001 51.93694096602849,89.31024706960307 51.961091234348714,89.54841117408068 51.470035778183956,91.07661373373412 51.735688729881076,93.02155599107937 51.24463327374542,95.3633616097868 50.50402504473459,96.90137408931332 50.004919499129755,97.14943781017791 47.283989266550634,97.01052222257567 43.79025044722948,97.7646324722009 42.59883720931248,98.42943421395466 41.65697674418334,99.48119866193156 41.93872987476061,99.73917647955386 41.60867620751378,99.92769819746172 40.6829159212939,99.86816507203912 40.618515205715084,100.08645297889598 40.618515205715084,99.75902089212468 39.00849731665221,99.27283134729078 37.83318425761536,99.74909868645045 37.100626118073706,100.53294908919634 36.77057245079777,101.30686969476665 36.51296958854073,105.19620190619753 36.23926654740353,105.97999819797406 35.56305903400062,106.37685411095299 33.969141323759686,106.65465206249064 33.59883720931248,107.0614258699643 33.06753130591824,108.1626810211892 32.512075134174665,108.66865796501952 32.592576028604526,108.72818445101439 31.45751341682626,108.95636889804882 29.533542039367603,108.05354831382283 28.784883720916696,108.19244446059747 28.462880143109942,108.45039379888476 27.134615384595236,110.40482869635889 25.830500894458964,111.26793936006288 25.1703935599362,112.627071499679 24.71958855103003,113.212383969847 24.44588550980552,113.212383969847 23.90652951700031,113.66872627409612 23.262522361357696,113.94649855876196 21.58810375671601,114.39291625384794 21.201699463330442,114.6806063194017 21.032647584972437,115.06749820245022 19.40652951700031,116.37696435001999 16.24284436495509,118.03360630282259 14.190071556367911,118.82719492085016 13.377012522367295,119.73981196818204 12.885957066173432,120.0770808154848 12.25,120.29531283109827 13.344812164577888,119.70013318552083 14.141771019640146,118.81727511238569 15.655187835422112,118.19232466472022 19.26162790696253,116.26784300081636 19.857334525935585,115.82143591034401 19.22137745973305,116.34720399700018 17.233005366753787,117.36896969594818" stroke="#4dd2ff" stroke-linecap="round" stroke-linejoin="round" stroke-width="0.5"><title>2025-12-28 16.0km</title><desc>1766878702000</desc></polyline><polyline fill="none" points="58.88196776359109,116.54229823844071 61.47498321020976,115.05634651271976 63.46054398926208,113.31339403727179 66.1260913364822,112.50894290659198 66.1260913364822,112.33017499994457 66.76074546674499,111.79386912294285 67.05993955675513,111.80504219504655 68.26578240428353,109.63743991280353 69.88868368032854,108.48657804264076 71.21239086636342,106.4194586227095 71.52065144391963,106.16246203739138 72.62676292809192,106.00602896946657 74.44912693084916,106.92227587942034 75.01124916051049,106.95579692871252 76.15362659504171,106.49767482728203 76.60695097380085,105.89429089524492 77.02400940225925,104.88864190543245 77.50453324371483,104.38581314329349 78.20265278709121,104.18468084186316 79.13650100736413,104.15115874735056 80.06128274009097,103.64832581265364 80.31514439219609,102.83261300084268 80.6234049697523,98.2734227023393 80.92259905976243,97.55823437264917 82.01964405644685,96.53014106414048 83.1982874412206,96.08314026330481 85.02065144391963,96.64189091300796 84.96625251841033,97.07771398073237 85.10224983206717,96.74246565681824 85.8729012759868,96.86539018911571 86.46222296840278,96.65306589015381 86.52568838139996,96.54131605533621 86.16302887845086,96.32899098205962 87.17847548687132,95.22265739101567 88.57471457350766,94.37334144960914 92.5458361316123,93.54636812711396 95.42897918063682,93.66929708098905 96.24496306246147,93.32286050249968 96.84335124242352,91.92592511046678 97.46893888514023,89.05375694303802 97.17881128273439,86.75148506565893 97.75,85.19797664060752 97.18787777033867,86.79618994195334 97.52333781059133,88.38319847643288 97.49613834789488,89.06493287462217 96.94308260572143,91.7135890079735 96.12709872395499,93.45696514475276 95.4924445936922,93.66929708098905 92.59116856951732,93.5687188586453 88.62911349895876,94.38451671208168 87.33260577567853,95.04385470956186 86.15396239084657,96.34016599855386 86.47128945600707,96.65306589015381 85.92730020149611,96.8877400858255 85.06598388176644,96.79834046531323 84.99345198116498,96.95478974215075 84.97531900601462,96.64189091300796 83.1438885157695,96.1501905267869 81.87458025518572,96.61954095448164 80.95886501006316,97.56940923458023 80.65060443250695,98.32929654817417 80.34234385489253,102.78791619204276 80.04314976494061,103.65949990876834 79.21809939556988,104.13998471305968 78.09385493618902,104.2182029237083 77.46826729347231,104.43050914845662 76.15362659504171,106.5088485651504 75.1109805238084,106.94462324703636 74.57605775684351,106.97814428790298 72.49983210203936,106.03955036437401 71.4843854936189,106.20715714911785 70.9585292142583,106.79936525712401 70.115345869679,108.28545502112684 69.71642041637097,108.69887407160422 68.33831430488499,109.5368797610281 67.63112827402074,111.06761642333731 66.79701141704572,112.07319550433749 65.98102753522107,112.59832672504126 63.632807253161445,113.25752961065155 61.19392209534999,115.31331738443987 57.25,117.30202335939975" stroke="#4dd2ff" stroke-linecap="round" stroke-linejoin="round" stroke-width="0.5"><title>2025-12-21 12.2km</title><desc>1766291458000</desc></polyline><polyline fill="none" points="111.24392507591983,108.44294266017096 111.44895376299974,108.10607107385295 114.89343570702476,106.23641837877221 117.96886601415463,103.49084507365478 121.27666216669604,102.61494482250419 122.8348801889224,101.75588324601995 124.10605804930674,100.25672338261211 124.96717853524024,98.21851284656441 126.27936213294743,97.2246634074254 126.27936213294743,96.83722857838438 127.30450556863798,96.11289089314232 128.15195747552207,95.10218060274201 129.39579817751655,92.71013587630296 130.36626729671843,92.18792325010872 131.09070199122652,92.00262150639901 131.2137192034861,92.18792325010872 130.98135335807456,92.55852596872137 131.8561424232321,92.64275371635449 134.65820114751114,93.92300896171946 135.25961862975964,94.0072358516336 137.05020249739755,93.28288286809402 137.74730003380682,92.4237614623562 138.49907188658835,90.6886563362059 139.23717516026227,90.0148230453924 141.6975194059778,89.69475104512821 142.75,89.10514272727596 141.5061592980055,89.76213468769856 139.14149510633433,90.06536065979162 138.44439757004147,90.84026835960685 137.70629429630935,92.5248348548339 137.1458825514419,93.23234646730998 135.92937900772085,93.82193662392092 134.6445325683453,94.0072358516336 131.6647823152016,92.60906262365461 130.8173304083175,92.60906262365461 129.68283833947498,93.13127360853832 127.76923725951929,96.26449677918572 125.67794465064071,97.59525219572242 125.11753290583147,98.20166800220613 124.33842389471829,99.98720971841249 123.34061761724297,101.368461517588 122.87588592636166,101.23370587121462 122.38381707726512,101.85694959970715 121.41334795812145,102.39596886523941 118.25590617617127,103.30555895950238 114.7157441782183,106.33748135343194 106.52826527168509,110.64943061395024 105.4894532567705,110.91892283654306 104.21827539650258,112.36743424911401 102.56437732023187,113.39485727272404 104.27294971310766,112.23268966183241 105.54412757337559,110.80102005580557 106.58293958817376,110.53152759619115 114.29201822471805,106.5564508704847 117.85951738100266,103.40662414443796 121.45435369556071,102.31174724783341 118.29691191355232,103.22133791382657 114.9207728652982,106.15219917499053 106.71962537965737,110.54837089078501 105.59880188992247,110.85154983169923 104.17726965906331,112.43480649196135 102.49603442451917,113.36117139685666 104.09525818418479,112.36743424911401 105.66714478563517,110.69996044697473 107.32104286190588,110.17781792051392 114.14166385412682,106.53960707419901 118.16022612224333,103.22133791382657 121.41334795812145,102.36228022462456 118.10555180558003,103.33924736296467 117.42212284839479,103.8614165334584 117.14875126554398,104.51833614840871 115.6452075598645,105.71425846208876 115.4401788727846,105.57950718558277 114.11432669585338,106.6406698202627 107.56707728648325,110.12728789066023 105.54412757337559,110.85154983169923 104.53265271679265,112.11478803685168 103.32981775223743,112.97378321550786 102.25,113.39485727272404 104.13626392162405,112.33374811500835 105.63980762741994,110.75049026095076 106.65128248394467,110.53152759619115 113.41722915961873,106.89332635194296 109.00227809645003,109.28511792144855" stroke="#4dd2ff" stroke-linecap="round" stroke-linejoin="round" stroke-width="0.5"><title>2025-12-07 13.4km</title><desc>1765091716000</desc></polyline><polyline fill="none" points="153.1034127844032,110.83820904182357 153.34913326107198,110.45971297863434 155.55184182012454,109.22688568685408 157.57903575297678,107.45331368621555 159.65888407366583,106.88013930850866 160.67686890572077,106.37184940176667 160.92258938244777,106.12311069351563 160.81728060665773,106.01496320478327 161.06300108338473,106.00414844841725 161.3964788732119,105.56074226758938 162.1862946912297,103.94932007477473 163.37101841816911,103.2030807807896 164.1081798482919,102.51091101168277 165.37188515707385,100.5857845574792 165.67026002163766,100.43436828983977 166.39864572044462,100.41273737270967 168.63645720476052,101.34286189812701 169.89138678222662,100.83453927574737 170.31262188515393,100.27213627875608 170.76018418202875,99.25547537660168 171.19897074752953,98.77958742174087 172.7698266521911,98.56327384467295 173.34024918742944,98.27124965281837 173.91067172260955,97.33027606867836 174.1914951245417,92.96056269841938 174.516197183053,92.19259508680261 175.29723726969678,91.3489044541202 176.65747562295292,90.79725610425521 178.8689599133213,91.43543720759772 179.43938244850142,91.43543720759772 179.86939328274457,91.31645464914618 180.62410617544083,90.39703842008748 181.83515709638596,89.51006286117627 186.0738353196066,88.59062732142775 187.75,88.68797978500515 185.86321776814293,88.66634591374896 184.73114842898212,88.92595200990036 185.20503791980445,88.70961365084077 181.76495124591747,89.55333017383964 180.81717226433102,90.18070376135438 179.86939328274457,91.3489044541202 179.46570964244893,91.5219698740184 178.49160346691497,91.4678869677009 178.43894907901995,91.31645464914618 176.66625135426875,90.80807277256827 175.31478873238666,91.3489044541202 174.55130010831635,92.17096209702868 174.1914951245417,93.1228084995746 173.9721018417622,97.18966993653157 173.66495124588255,98.10901356226532 172.69962080172263,98.6173522899262 171.25162513542455,98.79040308630647 170.81283856986556,99.21221294406132 170.2336403033696,100.46681465533766 169.8650595882209,100.88861629323947 168.85585048754,101.33204655446752 168.39073672809172,101.37530792097095 166.3459913325496,100.42355283194775 165.68781148421112,100.47763010780182 165.23147345607867,100.71556971762038 163.9326652220916,102.71639949311066 162.0634344528662,104.1223601459933 161.5719934994122,105.3768902541342 160.65054171177326,106.39347882067523 159.6062296857708,106.92339788530808 157.76332611049293,107.39924079483899 155.49041170091368,109.33502913852135 154.15650054166326,110.14610069359333 149.7598591549322,112.3738045616119 148.41717226436595,113.49844868467335 147.29387865652097,113.90937267857225 147.25,113.77960741884453 148.17145178763894,113.46600723314623 149.663326110458,112.07101324784162 150.32150595879648,111.90880317721167 152.2960455037537,110.83820904182357" stroke="#4dd2ff" stroke-linecap="round" stroke-linejoin="round" stroke-width="0.5"><title>2025-11-30 11.3km</title><desc>1764483136000</desc></polyline><polyline fill="none" points="16.417419201519806,161.4525534415734 16.946768060850445,160.91884777941596 16.92751901136944,160.74094522126688 19.275903041823767,159.48375758449401 21.441421102674212,157.57422356801544 23.741682509484235,156.88630743589601 25.08911596960388,156.06791791909927 25.329729087476153,156.10350021959312 26.5809173003654,153.88551117200404 28.46732414449798,152.545203747919 29.72813688212773,150.48133030590543 30.218987642612774,150.05431637090078 30.921577946748585,149.8408086786003 33.337333650153596,150.92020372524712 34.65589353610994,150.61180640060047 34.58852186310105,150.81345091925323 34.46340304182377,150.75414375262335 34.82913498103153,150.6829751034311 35.396981939149555,149.99500872704084 35.96482889732579,148.7258162133876 36.369058935379144,148.26320908877824 37.167894486687146,147.95480307884282 38.255465779511724,147.89549411521148 39.17942015209701,147.38543548876623 39.44890684413258,146.47206780216948 39.728018060850445,141.90509671870677 40.04562737647211,141.0628519300517 40.9407081748941,140.03079524567147 42.53837927756831,139.42579124984331 44.405537072219886,139.9596185064147 44.42478612170089,140.38667813652137 44.47290874522878,140.10197193127533 45.262119771854486,140.20873685897095 45.88771387835732,139.98334409214294 46.291943916352466,140.25618789911823 45.60860266163945,139.65118534890644 46.696173954347614,138.48862053643097 47.56238117872272,137.8480174759825 48.553707224316895,137.48026190145174 52.75,136.6854304388835 47.7259980989038,137.80056522433006 46.8597908745287,138.3225386792401 45.62785171100404,139.67491101218184 45.955085551308,140.00706967191218 44.72314638784155,140.493442741943 44.38628802279709,140.41040361484193 44.405537072219886,140.01893245953397 42.53837927756831,139.42579124984331 40.97920627373969,140.05452081353724 40.161121672950685,140.95608796909073 39.80501425854163,141.75088344655524 39.45853136887308,146.57882552064984 39.198669201519806,147.44474477307813 38.361335551308,147.93107949788828 37.07164923957316,148.02597378601058 36.40755703422474,148.26320908877824 35.0601235741633,150.4457458851757 33.85705798480194,150.95578796706832 33.3277091254713,150.96764937804983 31.065945817506872,149.9594241228624 30.276734790881164,150.05431637090078 29.660765209118836,150.59994494488637 28.842680608388036,152.0944766194516 28.11121673003072,152.91290060009487 27.02364543726435,153.4703737396485 26.455798479088116,154.0752876756087 25.926449619815685,155.3562690913168 25.329729087476153,156.12722174580995 25.07949144486338,156.10350021959312 23.99192015209701,156.83886475915642 21.730156844074372,157.45561769614142 19.0256653992692,159.73282439011382 13.597433460119646,162.61483532836428 12.856345057021827,162.80459427707683 12.25,163.3145695611238 12.77934885933064,162.7571545756582 13.510812737629749,162.60297538138548 15.859196768025868,161.34581255060766" stroke="#4dd2ff" stroke-linecap="round" stroke-linejoin="round" stroke-width="0.5"><title>2025-11-23 10.7km</title><desc>1763852167000</desc></polyline><polyline fill="none" points="86.67891566263279,156.76824357156147 87.36204819276463,155.27169794955262 87.74156626511831,154.8708339381119 88.06686746992636,154.63031480582868 88.09939759038389,154.83074745389604 90.23554216872435,153.49452266282606 92.40421686752234,151.4233410464294 95.33192771091126,150.52804359890433 96.45963855425362,149.87326905044756 96.65481927717337,149.68618986724323 96.4813253012253,149.4189333201939 97.75,147.64166019202094 97.66325301211327,147.25413052651857 97.39216867473442,147.0135941615663 96.17771084338892,146.87996261247463 94.62710843374953,146.07816979037307 93.56445783138042,145.18282732524676 92.40421686752234,143.68611860318197 91.61265060247388,143.35202895779366 89.79096385545563,143.36539256378455 88.59819277114002,143.76629996183328 87.90421686752234,144.15384234261 86.4186746988562,145.83763076445757 85.88734939764254,146.14498608988652 83.26325301208999,145.89108392840717 82.48253012052737,145.9979901755214 81.28975903621176,146.6795149739337 78.91506024100818,148.51025603458402 77.65722891566111,149.1249503424333 76.34518072294304,149.0714988046093 75.06566265062429,148.37662636688037 73.48253012046916,147.86883209771622 72.04036144580459,148.0425514627641 70.38132530124858,147.68174938712764 68.36445783136878,147.80201688173838 64.11385542171774,149.15167610127537 58.605421686777845,151.34316546300397 57.347590361430775,152.06474353744125 57.25,151.90439327746572 58.43192771082977,151.19617673628818 65.93554216867778,148.33653743382456 66.22831325302832,148.22963353840896 66.27168674702989,148.44344122175244 68.10421686753398,147.82874297317903 70.0777108434122,147.65502325872512 72.06204819277627,148.0425514627641 73.50421686755726,147.8955581723567 75.08734939765418,148.38998934119445 76.3885542168864,149.05813591593324 77.40783132537035,149.1249503424333 78.31867469882127,148.750789013131 82.22228915663436,146.0247167205598 83.12228915665764,145.8509940579679 85.68132530129515,146.07816979037307 86.35361445788294,145.73072435602808 87.53554216877092,144.44783906836528 88.53313253010856,143.73957284900098 89.74759036145406,143.32530174082785 91.60180722892983,143.23175642843853 92.3716867470066,143.59257360832999 94.62710843374953,146.03807999053242 96.06927710853051,146.79978360240057 97.45722891570767,147.0135941615663 97.71746987960069,147.64166019202094 96.64397590368753,148.89778112099884 96.37289156630868,149.48574751994602 96.54638554219855,149.63273861158086 95.89578313258244,150.18061270804174 92.75120481930207,151.16945149144885 89.98614457831718,153.52124732323864 86.52710843377281,155.36523266806762" stroke="#4dd2ff" stroke-linecap="round" stroke-linejoin="round" stroke-width="0.5"><title>2024-11-03 10.0km</title><desc>1730623436000</desc></polyline><polyline fill="none" points="117.81457628797216,137.39969538178775 117.61542355336132,137.21196595118454 117.58697316268808,137.09845464596583 117.29535665841831,136.893260201854 117.16377360161277,136.45230638343855 116.33871227243799,135.26475966132784 116.2106855144666,134.8980091768317 116.18934772146167,134.39590408892764 116.2818114911206,133.92872160415936 116.20357291678374,133.81956592239658 116.20357291678374,133.6230848403029 116.37071896191628,132.90264480147744 116.44184493857028,132.77165411567694 116.52363981172675,132.77165411567694 116.79036222418654,131.3918558796322 117.5300723813707,130.32203828901402 118.00306012610963,129.76746695591282 118.0492920109391,129.75 119.0948438677151,130.6757366908205 119.22998322336935,130.85913445955885 119.69941466928867,132.03373079018274 119.10906906306627,132.43544245242447 118.78900216813781,132.8764467034016 118.56139904283918,133.6536486363766 118.56139904283918,134.11210238581043 119.19442023504234,135.31278622691752 119.4042418661702,135.53108797013556 119.60339460079558,136.050640661957 119.79543473775266,136.15542346689472 120.15106462102267,136.5527220961667 121.11837790352001,137.22506338587118 121.55224636109779,137.8973918074007 121.7691805898794,138.36888718014234 121.8082998770551,138.8185481680557 122.0181215081684,139.36424551991513 121.93277033617778,139.7178528781078 122.44132106924371,140.0321675420564 122.79695095251373,140.04089846480565 123.1241304451396,140.21551646411172 124.68178933381569,141.32432050795614 125.51396326065878,142.00530092272675 125.64910261629848,141.99657048810332 125.88381833926542,141.77830891756093 126.09719626921287,141.70409967474188 126.62708479528374,141.78703940641572 127.09295994235436,141.96601394984827 127.61929216959106,142.39816823558795 128.41945940692676,143.2624608627193 128.57238025673723,143.3497619661939 128.59727434856177,143.44579292953495 128.81065227852378,143.61166397533088 128.8924471516657,143.75570924834392 129.2054014489404,143.9783235088944 129.46856756255147,144.2664104585965 129.78507815867488,144.41918288273155 129.83486634232395,144.56322484575867 130.07669466294465,144.81638807735726 130.12648284659372,144.76837450115272 130.10514505358879,144.8600367260551 130.2153903174185,144.99534719252915 131.39963782869745,146.17820037752972 131.39608152984874,146.66267856624472 131.3356244496972,146.87218057950304 131.15780950804765,147.2780871765608 130.64925877499627,148.0636995320383 131.95797674541245,149.82689889067842 132.00065233142232,150.18476519129035 131.90463226292923,150.8655739492351 131.96153304423206,151.12741996086697 131.9153011594317,151.57255370478742 131.9544204465783,152.30133894143364 131.8548440792656,152.46280428489627 131.66636024112813,153.32684946736845 131.16136580689636,154.16905489134297 131.1649221057305,154.33051165787037 130.92309378512437,154.39160321403688 130.70260325749405,154.60105917222972 130.3149666847312,154.8279683856199 130.14070804193034,154.84542287984368 129.82419744582148,155.07233051635194 129.42944827540487,155.16832946022987 129.24096443728195,155.28178241966816 128.61861214155215,155.37341723505597 128.10294881083246,155.36469012006637 127.67974924975715,155.28178241966816 126.96137688553426,154.76251395510553 126.29279270498955,153.92468648311115 126.04385178672965,153.78068287584392 125.62420852447394,153.2919389625349 125.40371799684362,153.2483007827541 125.21167785988655,153.10429440520238 124.85960427545069,153.04756445817475 124.38661653071176,152.6591800546048 124.18746379608638,152.58062987833546 122.84318283735774,152.80755213093653 122.38442028792633,152.79882437906417 120.32887956265768,153.16538809195117 119.44336115333135,153.45776355175258 118.9561482132558,153.54940312078907 118.35513371053094,153.80250164212703 117.52651608253655,153.99450620163043 116.70856735103007,154.31305690804948 116.3885004560725,154.50069501462713 116.71923624753254,155.08542129685156 116.68011696035683,155.37778079174313 116.72990514402045,155.5828673449796 116.52363981172675,155.76177165930494 116.07554615881236,156.39447473772452 116.11466544597351,156.69991352892976 115.1331269681541,158.18779884598553 114.99087501486065,158.61975376070768 114.11602550203679,160.08138003419663 113.81729640008416,160.7401827644826 113.34430865535978,161.56912231176466 113.24828858686669,161.62583851415184 113.16293741489062,161.865790666252 112.88198980709421,162.20608363897554 112.64016148647352,163.57594769277785 112.77174454327906,164.4222701636827 113.48300430981908,165.9185533762684 113.62169996427838,165.97526256716083 113.69993853861524,166.13230292646404 113.9488794568897,166.31987799261333 114.36496642031125,166.96111543385996 115.0228817043535,167.5848930242937 115.15446476115903,167.60234118952576 115.04777579617803,167.62415138389042 115.19002774950059,167.63723749401834 115.39984938061389,167.86842463726134 115.5883332187368,167.94257868223576 115.71635997670819,167.9207686852351 116.1786788249592,168.31770851493638 116.72279254636669,168.5096338596959 117.26690626775962,168.81932936781595 118.35157741171133,169.25551560168242 118.6040746288345,169.41690313796062 118.58629313466372,169.48233030669508 118.31601442339888,169.44307402005506 117.24201217592054,169.12029844740027 116.75124293702538,169.04614688413858 116.30314928411099,168.80624369726138 115.99375128567044,168.49654807400293 115.21136554249097,167.9992846111927 114.53922506312665,167.45839356765646 113.62525626312708,166.38094872859074 113.2589574833546,165.83130828872163 113.8101838024304,166.55543596161442 114.82017267089395,167.60670322947772 115.67368439072743,168.24355526047293 116.2071292156179,168.55761503234316 117.23489957826678,169.0417850226222 120.24708468951576,169.8530819652333 120.78408581324038,170.04936067379458 121.1397156965104,170.25 120.84098659455776,170.06680761713142 120.18307131051552,169.82691138805967 119.25487731519388,169.5346719541085 117.83947037981125,169.22062090193504 116.64811027087853,168.75826286363372 116.00797648099251,168.43548100967382 115.25759742730588,167.92949268564553 114.30450934015971,167.07889246908235 113.20916929970554,165.7178893514938 112.91755279543577,165.19441259558153 112.67572447481507,164.56186779047493 112.54058511917538,163.97729903158324 112.52280362501915,163.3316446360477 112.63304888881976,162.6859783905602 112.86065201410383,162.08829029017215 115.40696197826765,157.54640145779558 116.12889064131014,156.4468358617778 116.80103112067445,155.6919554498054 117.26334996892547,155.31669094893005 118.40136559537495,154.58360455669026 118.87079704127973,154.365421131537 119.67807687628374,154.06868950062562 120.26486618367198,153.94214142574128 123.01032888247573,152.9384681489064 123.91007248713868,152.72463840075216 124.48619289802446,152.80755213093653 125.72378489178664,153.30066659199656 126.15765334936441,153.6192235845192 127.48059651510266,154.94578605351126 127.86823308788007,155.2076016799292 128.35188972912147,155.36905367783766 128.84265896801662,155.4083256733611 129.43300457423902,155.29923668863194 129.85976043414848,155.08978488928187 130.93376268161228,154.35669376637088 131.2644984730432,154.06868950062562 131.5454460808105,153.6846801433312 131.80861219443614,152.92101270801868 131.96508934308076,149.7134283273299 132.11445389404253,148.22081989606522 132.01487752672983,147.5530534983518 131.58456536797166,145.7897400686852 130.89464339445112,144.0394330592062 131.34629334619967,145.19176468457226 131.73748621778213,146.83289904714184 131.8584003780852,147.11223343445454 131.91174486058298,147.19079583091298 132.06110941154475,147.17770211035895 132.19980506603315,147.25626436045786 132.4771963749663,146.68886638619733 132.4345207890001,146.6103028678117 131.92241375708545,146.35278788189316 131.8548440792656,146.26549423811957 131.32495555319474,146.07781216981675 131.10446502557897,145.91631749485896 130.07669466294465,144.86876644929362 130.13003914544242,144.74655012666335 130.06246946760803,144.79019886210517 129.7246210785088,144.53267053930176 129.12360657578392,143.9739585369498 129.10226878279354,143.89538894919315 128.60438694623008,143.53309357755643 127.96069685752445,142.72555430760985 127.10007254002267,141.98784005131165 126.82979382872873,141.85688323913564 126.10786516570079,141.7171954348596 125.85536794859217,141.79576989310226 125.61709592680563,142.00966613921992 125.5246321571467,142.00093570567697 123.42641584589728,140.4075952610001 123.10634895095427,140.2722671270385 122.86096433151397,140.0234366171353 122.48399665523903,140.04526392536354 121.89365104901663,139.70039086988254 122.00389631283178,139.4384597049975 121.86520065835794,139.13287087777644 121.7371739004011,138.33396181398348 121.99322741634387,138.0414605093465 122.3559698972822,137.94104905220593 122.50533444824396,137.82317436670928 122.4662151610828,137.465182156433 122.38797658676049,137.31237949235947 121.58069675174193,136.77101613348714 121.97188962335349,136.1685212955308 121.71227980854746,136.02881087159403 121.45978259143885,136.4959654242448 121.31753063813085,136.58764923329363 120.76274802025,136.39554954927007 120.46046261946321,136.15105752293312 120.16173351752514,135.54855205098283 120.21863429884252,135.37391085178024 120.38222404517,135.2516614956803 120.26130988483783,134.9111074743596 120.2115217011742,134.32167924956957" stroke="red" stroke-linecap="round" stroke-linejoin="round" stroke-width="0.5"><title>2024-10-27 42.8km</title><desc>1729986801000</desc></polyline><polyline fill="none" points="177.6791719744797,153.9293802066677 178.0196815286763,153.42076828994323 180.45484076434514,152.07293434468738 183.05509554140735,149.84769749869884 185.34579617832787,149.2627699752993 186.38796178344637,148.67783906986006 186.60464968153974,148.42352022995328 186.43955414008815,148.28364459544537 186.58401273883646,148.0038927463247 187.68808917200658,146.54154094330443 187.46108280256158,146.04560814035358 186.21254777070135,145.86758038727567 184.7060509553994,145.0028697012458 183.77738853503251,144.2780329900852 183.73611464968417,144.010986576679 182.61140127392719,142.72661064388376 181.83751592360204,142.38325985967822 179.73254777071998,142.49771025059454 178.79356687894324,142.95551051919028 176.99815286626108,144.7485416221316 176.42031847132603,145.09188437785633 173.8716560509638,144.87570574163692 172.88108280254528,145.14274987222598 169.8680891719996,147.3426580275409 168.53700636944268,147.9911767347876 167.42261146497913,147.95302869064471 164.63662420382025,146.78314835117635 163.23331210191827,146.93574220616574 161.27280254778452,146.56697332920157 159.260700637009,146.7958645145336 156.91840764333028,147.68599197867297 155.64923566882499,147.95302869064471 150.634458598739,150.0638655101793 149.0247770700953,150.95396422011254 148.9731847133371,151.1574142542231 148.52949044585694,151.43715738305764 147.60082802549005,153.76408161419386 147.25,154.08196328308986 148.21993630577344,151.50073525904008 148.78745222929865,150.85223904965096 148.9731847133371,151.19556109008408 149.09700636944035,150.92853293708322 150.46936305734562,150.0638655101793 158.96146496816073,146.83401299508841 161.39662420382956,146.61783808182372 163.22299363062484,146.98660677337466 164.63662420382025,146.7958645145336 166.3701273885672,147.38080630190234 167.30910828028573,147.88944858503964 168.39254777069436,148.0038927463247 169.19738853507442,147.67327592719812 173.15968152869027,145.01558608842606 173.83038216561545,144.90113854636002 175.81152866239427,145.1681826097265 176.5544585987227,145.06645162110362 178.7832484076498,142.95551051919028 179.68095541402,142.56129374510783 181.61050955415703,142.43412671610713 182.43598726118216,142.62487719970522 182.83840764331399,142.90464392499416 184.7576433121576,145.05373524037714 186.26414012734313,145.7912826828906 187.62617834395496,146.0964731550921 187.75,146.57968951977819 186.57369426754303,148.06747277997056 186.43955414008815,148.35994042005768 186.64592356682988,148.49981594902783 185.41802547773113,149.31363337246876 183.013821656059,149.96213944465853 180.13496815291,152.3653904054081 174.38757961784722,155.4679156893617 173.61369426752208,155.6077813912998 171.9008280255366,157.24801019418373 171.0856687898049,157.61674014032906 170.68324840761488,157.59131053201418 171.281719745195,157.50230685256975 172.27229299367173,156.89199379865022 173.5621019108221,155.5823512780844 174.82095541403396,155.17546859687718 179.89764331211336,152.47982950336882 182.34312101913383,150.419905933908 182.19866242038552,150.83952339612006 182.39471337583382,150.3563273787222 183.2098726114491,149.83498171895917 185.39738853502786,149.2627699752993 186.53242038213648,148.57611161059322 185.76885350316297,149.1483272381738 182.96222929941723,149.98757097063935 180.46515923569677,152.1619428004924 175.27496815286577,155.02288716959447 173.48987261147704,155.72221682179224 172.6024840764585,156.71398513113672 171.80796178343007,157.28615473369427 170.96184713381808,157.61674014032906 172.25165605096845,156.9174235827304 173.45891719748033,155.64592654916487 174.75904458598234,155.17546859687718 179.9698726114584,152.40353678576503 181.84783439489547,150.89038600055937 180.26910828024847,152.2763821285771 179.19598726119148,152.8612922283428" stroke="#4dd2ff" stroke-linecap="round" stroke-linejoin="round" stroke-width="0.5"><title>2024-10-13 16.0km</title><desc>1728810741000</desc></polyline><polyline fill="none" points="42.59148204734083,202.69008880898036 43.963139801402576,201.71150686418696 45.675133689830545,200.9108418653559 48.078113063413184,198.83925062127673 50.39858670742251,198.24191274736222 51.522727272764314,197.64457134457916 51.79087089380482,197.41580136214907 51.471161191759165,197.13619290291535 51.5330404889537,196.90742177024367 52.677807486616075,195.38226765765285 52.481856378901284,194.79761914794653 51.223644003039226,194.619681973978 50.078877005318645,194.09857844876387 48.9959893047926,193.14533334256703 47.5933919022209,191.51844093574618 46.24236058059614,191.14984448723408 44.767570664640516,191.34049799046625 43.7568754774984,191.7980649312958 41.56016042781994,193.90793014651717 38.84778456838103,193.7172814847654 38.074293353711255,193.86980044290976 35.382543926651124,195.801687332023 33.629297173407394,196.7549073942646 32.55672268907074,196.76761693436129 31.123185637930874,196.05588022728625 29.565889992343727,195.59833255564445 28.328304048860446,195.78897767047602 26.471925133722834,195.39497737029888 24.24427043547621,195.58562286855886 23.20263559970772,195.91607421395747 16.096829640911892,198.67402986026718 14.271390374342445,199.60180448145547 13.44633307872573,200.3389344132811 12.487203972530551,202.70279760312405 12.25,202.86801178148744 13.229755538632162,200.28809803872718 13.827922077965923,199.60180448145547 13.951680672296789,199.8941152697662 14.271390374342445,199.55096773631522 16.375286478258204,198.53422746698925 24.357715813617688,195.57291317983618 26.502864782291,195.36955794336245 28.276737967913505,195.76355834260175 29.64839572197525,195.59833255564445 31.41195569135016,196.1448475896541 32.46390374330804,196.72948830921086 33.39209320093505,196.79303600981075 34.41310160426656,196.42445879034494 36.93983957223827,194.50529362533416 38.167112299473956,193.81896081577725 39.023109243717045,193.67915170930064 41.34358288772637,193.8952202468936 42.04488158901222,193.50121256689454 43.2927807487431,192.07768815346208 44.20034377387492,191.54386133093067 45.12853323150193,191.26423663231253 47.26336898392765,191.31507754413178 49.934491978609,193.90793014651717 51.13082505733473,194.55613290736073 52.60561497329036,194.924716937654 52.73968678381061,195.42039679083973 51.80118411005242,196.538844967763 51.50210084032733,197.14890239513625 51.55366692127427,197.403091903514 50.49140565318521,198.05127225753677 47.98529411770869,198.8011227773386 45.05634071811801,201.19043988692283 39.23968678381061,204.29138429200248 38.476508785330225,204.48201301764493 37.48644003056688,205.6130693985324 36.17666157375788,206.35015551276592 37.45550038199872,205.60036097017291 38.38368983956752,204.4438873012332 39.30156608100515,204.24054990446893 45.468869365926366,200.88542382501328 47.88216195569839,198.75028562967054 50.615164247574285,197.9368877911038 51.64648586709518,197.27599722918967 51.440221543191,197.13619290291535 51.60523300227942,196.76761693436129 52.70874713524245,195.42039679083973 52.59530175710097,194.89929739246872 51.264896867854986,194.63239178249933 49.74885408714181,193.8443806325522 47.768716577556916,191.64554284779297 47.03647822764469,191.27694686265022 46.015469824313186,191.22610593167337 44.365355233021546,191.49302053415158 43.364973262068816,192.06497802379454 42.178953399532475,193.41224287822115 41.25076394196367,193.94605983574002 38.816844919812866,193.7172814847654 37.68239113828167,194.04773893660604 38.620893812098075,193.66644178092974 41.36420932010515,193.85709053856408 41.89018334605498,193.5774722376882 43.375286478258204,192.02684762512945 44.09721161192283,191.54386133093067 45.24197860964341,191.20068545658432 47.026165011455305,191.16255473197816 47.84090909094084,191.65825303019665 49.23319327732315,193.37411298770166 50.17169595108135,194.0858685731073 51.28552330023376,194.60697216384142 52.39935064938618,194.7086506001142 52.626241405669134,194.87387784095336 52.75,195.4076870813442 51.718678380479105,196.56426410072163 51.49178762413794,197.09806441675755 51.69805194810033,197.27599722918967 50.326394194038585,198.07669101031206 48.00592055002926,198.66132055978233 45.5307486631209,200.86000577836967 39.34281894582091,204.2024240970277 38.57964094734052,204.38034440869524 38.167112299473956,204.72347555429587 38.6002673797193,204.34221865396103 39.13655462191673,204.2786756975038" stroke="#4dd2ff" stroke-linecap="round" stroke-linejoin="round" stroke-width="0.5"><title>2024-10-06 18.0km</title><desc>1728199446000</desc></polyline><polyline fill="none" points="87.19180175388465,202.9413964456253 88.70934095134726,201.8405890011054 90.39908317831578,200.96523994554445 92.56238373642555,199.0155727698948 95.54364868457196,198.1534635532371 96.5768668615492,197.51682453350077 96.68449375493219,197.41071765679226 96.36161307466682,197.02607933422405 97.61008503852645,195.31508497757022 97.4163566303323,194.7182199536619 96.10330853040796,194.4794729987334 94.60729471163359,193.71017358022073 93.56331384531222,192.79496524202114 92.30407919210847,191.29612864309456 91.43230135523481,190.95126057171 90.57128620782169,191.0441097787625 89.97933829389513,190.88493965951784 88.3434095136472,191.45529814199108 86.62137921870453,193.36531339935755 86.02943130477797,193.72343741076475 85.67426255648024,193.81628417825414 83.43562317296164,193.49795206382987 82.64994685089914,193.60406287534715 80.72342545836,194.77127475918678 78.99063247407321,196.11089975744108 77.74216051021358,196.72102035721764 76.5797900611069,196.7077569034518 74.08284613338765,195.58035723776993 73.17878022853984,195.50077562972 72.2639516342897,195.71299311776966 70.54192133934703,195.23550316943874 69.84234653197927,195.22223952893546 67.58218176988885,195.60688442711398 64.42871379223652,196.74754725980893 58.61686154664494,199.06862541472947 57.325338825408835,199.82462270517863 57.25,200.063357566396 57.41144034010358,199.5195718187606 58.65991230402142,198.7503091457329 67.72209673130419,195.36813948296913 69.13200903538382,195.20897588676598 69.76700770662865,195.34161223359843 70.75717512622941,195.1293939986208 72.02717246877728,195.47424841373868 73.52318628749344,195.28855771485541 75.32055540790316,195.81910170173796 76.70894233323634,196.5088048965772 77.7529231995577,196.44248747758684 82.24096465582261,193.45816048201232 82.94053946319036,193.29899400456634 85.68502524582436,193.5510074829508 86.36307467450388,193.12656338306988 88.16044379485538,191.3093927771697 89.49501727340976,190.818618705649 90.62509965454228,190.88493965951784 91.53992824873421,190.67271246034943 92.75611214461969,191.29612864309456 93.59560191334458,192.37051810076082 93.42339888383867,192.5562139351823 94.82254849851597,193.8826032479119 96.13559659844032,194.5060004648476 96.96432367787929,194.63863769536692 97.42711931967642,195.16918495017308 97.67466117459117,195.15592130130244 96.41542652138742,196.98628908286628 96.5230534147704,197.30461067335273 95.48983523779316,198.0606206020675 92.68077331915265,198.88294104117813 89.7425591283245,201.37638964869257 83.60782620246755,204.61247977579478 82.89748870587209,204.74510430351074 81.64901674195426,206.07134041403333 80.28215519530931,206.82728753965057 80.0991894765175,206.78750098379533 80.5512224289123,206.68140342825063 81.68130480998661,205.96524213852535 82.1763885197579,205.27560074773646 82.95130215253448,204.65226715161407 84.26435025245883,204.227867702808 88.38646027108189,202.05279373930534 90.62509965454228,200.5938775464383 90.77577730535995,200.6601923564449 91.95967313309666,199.7583073701171 92.16416423069313,199.24104632616945 92.49780760030262,198.96252009843738 93.16509433963802,198.59115065115475 95.42525910172844,198.0473573166455 96.53381610417273,197.26482052706706 96.37237576395273,197.10565979182866 96.44771458941977,196.86691823888395 97.63161041715648,195.36813948296913 97.57779697049409,194.9039116562417 97.25491629022872,194.6784288320414 96.06025777303148,194.51926419539814 95.01627690671012,194.00197746819322 93.80009301088285,193.02045209134667 92.58390911505558,191.52161869564588 92.01348657981725,191.13695890408417 90.35603242088109,190.9777889249599 88.94612011691788,191.2298079477041 88.24654530955013,191.561411007875 86.48146425723098,193.41836888514808 85.80341482860968,193.80302035938803 83.39257241564337,193.53774363068806 82.0687616263167,193.80302035938803 78.38792187086074,196.4690144501801 77.72063513152534,196.74754725980893 76.51521392504219,196.72102035721764 73.79225352109643,195.5405664412683 72.1563247408485,195.72625669661647 69.99302418279694,195.3018213470641 67.3884533616365,195.6732023712757 60.080587297386955,198.51157131385844 67.60370714851888,195.5405664412683 70.11141376564046,195.20897588676598 72.22090087697143,195.71299311776966 73.6092878022464,195.46098480321234 75.1160643104231,195.92521017897525 76.78428115864517,196.72102035721764 77.87131278234301,196.64143960952788 82.32706617057556,193.63059056158818 82.89748870587209,193.49795206382987 85.8141775179538,193.71017358022073 86.56756577198394,193.23267456812027 87.81603773590177,191.86648490274092 88.54790061118547,191.3624492968229 89.49501727340976,191.0441097787625 91.51840287004597,190.88493965951784 92.29331650276436,191.17675136134494 93.90771990432404,193.03371600861283 95.16695455752779,194.01524126209551 96.04949508368736,194.45294552593987 97.53474621311761,194.7314836575315 97.75,195.1957122429012 96.77059526974335,196.2435349705338 96.36161307466682,197.11892319561593 96.44771458941977,197.35766417840932 96.0710204623756,197.67598464855837 94.90865001326893,198.21977989686275 92.69153600843856,198.80336192392133 89.86094871116802,201.21723511490563 88.52637523249723,201.93342862659483" stroke="#ffac00" stroke-linecap="round" stroke-linejoin="round" stroke-width="0.5"><title>2024-09-22 20.8km</title><desc>1726992504000</desc></polyline><polyline fill="none" points="131.76985702937236,202.77389305555698 132.64912629075116,202.08678883760876 132.99225575855235,202.04714807261917 134.76151707704412,200.96362804264209 137.44221604452468,198.67762841992953 139.77978554414585,198.04335381942656 141.08796664018882,197.38264704128233 141.28097696584882,197.184434198105 140.97001588559942,196.9201498258626 141.02362986502703,196.6955075870501 142.75,194.36977149159065 140.86278792697703,194.35655693495937 139.72617156471824,193.80154405592475 138.06413820496527,192.42721383876778 137.0133042097441,191.11894049627153 136.3699364575441,190.7621358496981 133.82863383641234,190.93393083069532 132.04864972201176,192.09684331928293 131.00853852264117,193.33903108492814 130.2686656076694,193.64296840938187 128.03832406672882,193.31260171087342 127.05182684672764,193.51082185455743 123.0093328038347,196.2726503059239 122.20512311364291,196.57657914865558 120.86477362993173,196.37836478568352 120.17851469427114,195.86300569278683 118.39853057987057,195.21549966152088 116.87589356634999,195.4930027347218 115.4175933280494,195.03049720572744 114.43109610804822,194.99085378000018 111.67533756955527,195.585503596325 103.84769658464938,198.61155832759687 102.3679507545894,199.4440384565969 102.25,199.2458295000033 103.30083399527939,198.5587022238251 106.93586179509293,197.11836316733388 111.19281175540527,195.54586037985428 111.20353455125587,195.7308619286996 112.73689436062705,195.22871411018423 115.37470214458881,195.01728273215122 116.87589356634999,195.42693064087507 118.60226370138116,195.29478632859536 119.33141382050235,195.45335948337015 120.96127879270352,196.35193617570621 122.24801429710351,196.4972934483303 123.0951151708141,196.18015004893823 126.97676727559883,193.41831916730735 127.84531374112703,193.27295763724396 129.9469817315694,193.5768951527789 130.59034948371118,193.45796318611974 131.05142970615998,193.22009884918225 133.04586973792175,191.19823025328515 134.24682287528412,190.80178087019158 136.1554805401247,190.7357058276466 136.7130659254035,190.84142587579845 137.2063145354041,191.23787510934199 138.66461477364646,192.99544870339741 139.61894360603765,193.74868553366105 140.66977760131704,194.25084042200615 141.58121525024762,194.38298604655574 142.0530182684888,194.9379958557547 142.3103653693688,194.8587089195862 142.3103653693688,195.10978401236935 142.0530182684888,195.21549966152088 141.07724384433823,196.7219361106836 140.99146147741703,196.94657829299103 141.18447180301882,197.06550631281425 140.04785544081824,197.85835634011892 137.42077045276528,198.5719162522655 134.06453534553293,201.3203980661201 132.71346306597115,201.8885848633072 128.31711675931,204.3330744325649 127.58796664018882,204.47842067085003 126.37629070691764,205.77331465254974 124.99305003974587,206.55288599189225 126.34412231936585,205.70724901909853 127.50218427326763,204.45199409701308 128.5208498808788,204.17451467068167 134.70790309773292,200.83149068969942 137.3135424940847,198.5719162522655 139.92990468628705,197.8451422219805 140.95929308974883,197.2108625987894 141.15230341540882,197.03907787559 140.97001588559942,196.90693558983185 141.13085782370763,196.5237220217532 142.2674741859082,195.01728273215122 142.07446386019,194.5283460417122 140.74483717238763,194.3169132550538 139.42593328043586,193.6561830557548 138.10702938842587,192.4668582313243 137.13125496427529,191.19823025328515 136.6701747419429,190.90750085188483 135.8552422557841,190.7357058276466 134.27899126289412,190.84142587579845 132.85285941226175,191.43609916542482 131.20154884830117,193.18045474070823 130.42950754566118,193.59010980737366 127.95254169974942,193.32581639873388 127.05182684672764,193.4976071899364 122.4303018268547,196.55015058853314 121.34729944402352,196.5237220217532 119.99622716446174,195.83657695329748 118.24841143767117,195.28157188824844 116.77938840351999,195.4930027347218 115.32108816527762,195.0965695487248 114.55976965854643,195.10978401236935 112.80123113584705,195.32121520434157 111.36437648930587,195.77050507536478 111.31076250999467,195.53264597107773 112.24364575062646,195.1494273932476 115.02084988087881,194.871923413084 115.28891977766762,195.0965695487248 116.83300238283118,195.4665739021657 118.33419380465057,195.28157188824844 119.84610802226234,195.7572906948044 121.27223987295292,196.47086486824264 122.17295472603291,196.53693630595808 123.1058379666647,196.18015004893823 126.53713264502585,193.80154405592475 127.77025416999822,195.7308619286996 128.00615567911882,195.74407631260692 128.32783955521882,196.3255075590787 129.1427720413194,196.4972934483303 129.4859015091206,197.1580057907704 130.6225178713794,198.32084942801157 130.72974583005998,198.9154804085556 131.30877680703998,199.3779688459399 130.87986497220118,199.69510259853996 131.64118347899057,202.496409200372 128.23133439238882,204.37271433563728 127.57724384439643,204.50484723806585 125.82942811760586,206.15649450773344 124.61775218427647,206.61895109392208 124.64992057188647,206.7642941723534 125.61497220018646,206.42075566319545 127.22339158062823,205.16550925933552 126.05460683087585,206.26219904958998 124.57486100081587,206.7378681730479 124.60702938842587,206.5793120376693 125.35762509930646,206.3943295775316 126.39773629867705,205.69403588746354 127.57724384439643,204.4123542238085 128.27422557590762,204.306647822159 131.29805401113117,202.70782553739264" stroke="#4dd2ff" stroke-linecap="round" stroke-linejoin="round" stroke-width="0.5"><title>2024-08-22 19.8km</title><desc>1724317734000</desc></polyline><polyline fill="none" points="176.80016008537496,198.18204684912052 176.9730522945756,197.73818747994665 180.07070437568473,196.15803680605313 183.91755602991907,192.83788735448616 187.24573105660966,192.02115413974389 187.75,191.73707191462745 187.62033084314317,191.57727541198255 183.74466382071842,192.7668672623986 180.11392742802855,195.8917175362003 178.3273745998158,196.90372809056134 177.6213980789762,197.02800958859734 172.47785485594068,200.0639950822224 170.5472251867759,200.70314160925045 168.89034151553642,202.42527202617202 167.26227321237093,203.41948209026305 165.8070971184643,203.41948209026305 165.67742796160746,203.01114666066132 164.64007470651995,202.94013168281526 163.94850586983375,203.84556997597974 163.21371398080373,204.2006422324339 162.29162219847785,203.96984536723176 159.30923159018857,204.1473814508645 155.15981856989674,204.94629106619686 152.16302027751226,205.23034672970243 150.69343649951043,205.5499086684431 149.92982924229,205.97599012905266 149.48319103522226,205.70968936674763 147.25,205.60316892131232 147.49493062967667,205.2836071030033 149.9154215581948,205.51440182204533 149.92982924229,205.9404833897279 150.56376734259538,205.49664839552133 152.3215048025595,205.07056548925175 158.93463180365507,204.30716373537143 159.35245464247419,204.07636704419565 162.03228388476418,203.8810772417928 163.0984525079839,204.11187425194657 163.94850586983375,203.72129447544285 164.71211312699597,202.83360914918012 165.73505869798828,202.95788543064555 165.89354322303552,203.33071361901239 167.43516542157158,203.20643766554713 168.77508004271658,202.46077964891447 170.5472251867759,200.6143714312202 171.65661686233943,200.34806056233356 179.5808431163896,196.17579140620364 183.47091782290954,192.82013233480393 187.57710779091576,191.5240098709328 183.62940234795678,192.83788735448616 179.75373532553203,196.05150915839477 171.62780149414903,200.45458497015352 170.40314834582387,200.77415771156666 169.27934898610692,202.0701953076641 166.98852721456205,203.5260041821748 169.02001067239325,202.2654876132583 170.33110992523143,200.72089563815098 172.232924226264,200.0817491914786 176.2670757737942,197.95124015120382 177.53495197440498,197.04576407937566 179.72491995734163,196.15803680605313 183.3844717182801,192.96217242970306 187.26013874064665,191.701561596361 183.64381003199378,192.82013233480393 179.91221985057928,196.03375454260095 177.80869797221385,197.1700454524689 177.44850586977554,197.08127305428206 176.07977588049835,198.09327508682327 171.41168623266276,200.5611092975887 170.44637139810948,200.73864966488327 171.80069370334968,200.24153607421613 171.77187833510106,199.95747037994443 173.2270544290659,198.7146762511984 173.39994663826656,197.8802226298285" stroke="#4dd2ff" stroke-linecap="round" stroke-linejoin="round" stroke-width="0.5"><title>2024-07-03 11.2km</title><desc>1719998343000</desc></polyline><polyline fill="none" points="39.11332958377898,247.66863169174758 39.47778402705444,247.12595631176373 43.60826771648135,244.89909524876566 47.025028121541254,241.90494384431804 50.973284589417744,240.78212154375797 52.355174353171606,239.95871314145916 52.75,239.621862937056 52.552587176673114,239.4908654295141 50.821428571478464,240.59498367030756 46.97947131615365,241.71780738227244 43.091957255324814,245.01137475513679 35.10433070868021,249.29664596483053 33.175759280100465,249.9703018367145 31.915354330732953,251.42987910359807 29.880483689543325,252.73974395697587 28.36192350956844,252.79588076462096 28.210067491570953,252.36549803176604 27.07114735658979,252.328073387529 26.296681664825883,253.24497446394525 25.491844769392628,253.60050601539842 24.201068616472185,253.35724767716601 21.498031496012118,253.52565733826486 12.325928008998744,255.09747165722365 12.25,255.30330325613613 12.766310461214744,255.17231954430463 14.816366704122629,255.50913457047136 15.651574803108815,254.7606556998362 16.54752530931728,254.5922474355175 16.71456692914944,254.3115665716614 21.54358830145793,253.43209643894807 24.21625421824865,253.2636866720568 25.476659167616162,253.52565733826486 26.281496063049417,253.20755004076636 27.329302587197162,252.197087058521 28.240438695123885,252.309361061838 28.483408324013,252.7023194067733 30.032339707540814,252.62747027815203 31.58127109106863,251.71056539933488 32.203880764951464,250.7562298351404 33.34280089993263,249.78317551132932 34.466535433137324,249.5211982607725 42.78824521932984,245.17979385587387 46.75168728915742,241.81137564270466 47.84505061869277,241.24996519809065 50.760686164256185,240.48270083342504 52.400731158675626,239.50957936620398 50.47215973009588,240.7259802064218 47.11614173237467,241.62423906305048 43.04640044993721,245.06751447654096 35.058773903292604,249.39020946265373 33.22131608548807,250.06386491112062 32.02165354328463,251.44859153979633 30.74606299214065,252.42163498049194 29.19713160849642,252.87072980853554 31.307930258801207,251.87897692278784 33.38835770537844,249.8018881544267 34.466535433137324,249.57733628182905 43.48678290215321,244.7493891085469 46.23537682794267,242.24178888325696 42.940101237385534,245.1236541768012 36.789932508487254,248.36100775338127" stroke="#4dd2ff" stroke-linecap="round" stroke-linejoin="round" stroke-width="0.5"><title>2024-06-26 10.0km</title><desc>1719394224000</desc></polyline></svg>