<?xml version="1.0" encoding="utf-8" ?>
<svg baseProfile="full" height="300mm" version="1.1" viewBox="0,0,200,300" width="200mm" xmlns="http://www.w3.org/2000/svg" xmlns:ev="http://www.w3.org/2001/xml-events" xmlns:xlink="http://www.w3.org/1999/xlink"><defs /><rect fill="#222222" height="300" width="200" x="0" y="0" /><text fill="#FFFFFF" style="font-size:12px; font-family:Arial; font-weight:bold;" x="10" y="20">Over 10km Runs</text><text fill="#FFFFFF" style="font-size:4px; font-family:Arial" x="10" y="280">ATHLETE</text><text fill="#FFFFFF" style="font-size:9px; font-family:Arial" x="10" y="290">wjianbo</text><text fill="#FFFFFF" style="font-size:4px; font-family:Arial" x="120" y="280">STATISTICS</text><text fill="#FFFFFF" style="font-size:3px; font-family:Arial" x="120" y="285">Number: 3</text><text fill="#FFFFFF" style="font-size:3px; font-family:Arial" x="120" y="290">Weekly: 1.0</text><text fill="#FFFFFF" style="font-size:3px; font-family:Arial" x="141" y="285">Total: 51.3 km</text><text fill="#FFFFFF" style="font-size:3px; font-family:Arial" x="141" y="290">Avg: 17.1 km</text><text fill="#FFFFFF" style="font-size:3px; font-family:Arial" x="167" y="285">Min: 11.0 km</text><text fill="#FFFFFF" style="font-size:3px; font-family:Arial" x="167" y="290">Max: 20.6 km</text><polyline fill="none" points="74.3836035077693,83.38279289125057 77.41868190269452,81.1811780022108 80.79816635663155,79.43047989108891 85.12476747285109,75.53114553978958 91.08729736914393,73.80692710647418 93.15373372309841,72.53364906700153 93.36898750986438,72.32143531358452 92.72322614933364,71.5521586684481 95.2201700770529,68.13016995514045 94.8327132606646,66.9364399073238 92.20661706081592,66.4589459974668 89.21458942326717,64.92034716044145 87.12662769062445,63.08993048404227 84.60815838421695,60.092257286189124 82.86460271046963,59.40252114342002 81.14257241564337,59.58821955752501 79.95867658779025,59.26987931903568 76.6868190272944,60.41059628398216 73.24275843740907,64.2306267987151 72.05886260955594,64.94687482152949 71.34852511296049,65.13256835650827 66.87124634592328,64.49590412765974 65.29989370179828,64.70812575069431 61.446850916719995,67.04254951837356 57.98126494814642,69.72179951488215 55.48432102042716,70.94204071443528 53.15958012221381,70.91551380690362 48.165692266775295,68.66071447553986 46.35756045707967,68.50155125944002 44.527903268579394,68.92598623553931 41.083842678694054,67.97100633887749 39.68469306395855,67.94447905787092 35.164363539777696,68.71376885422796 28.857427584473044,70.99509451961785 17.233723093289882,75.63725082945894 14.65067765081767,77.14924541035725 14.5,77.62671513279201 14.822880680207163,76.53914363752119 17.319824608042836,75.0006182914658 35.44419346260838,68.23627896593825 38.264018070767634,67.91795177353197 39.53401541325729,68.18322446719685 41.514350252458826,67.7587879972416 44.05434493755456,68.44849682747736 47.04637257498689,68.07711542971083 50.641110815806314,69.13820340347593 53.41788466647267,70.5176097931544 55.5058463991154,70.38497495517367 64.48192931164522,64.41632096402464 65.88107892638072,64.09798800913268 71.37005049164873,64.60201496590162 72.72614934900776,63.75312676613976 76.32088758971076,60.11878555433941 78.99003454681952,59.137237411297974 81.25019930908456,59.26987931903568 83.07985649746843,58.84542492069886 85.51222428923938,60.092257286189124 87.19120382668916,62.24103620152164 86.84679776767734,62.61242787036463 89.64509699703194,65.2652064958238 92.27119319688063,66.5120009296952 93.92864735575859,66.77727539073385 94.85423863935284,67.83836990034615 95.34932234918233,67.81184260260488 92.83085304277483,71.47257816573256 93.0461068295408,72.10922134670545 90.97967047558632,73.621241204135 85.3615466383053,75.26588208235626 79.485118256649,80.25277929738513 67.2156524049351,86.72495955158956 65.79497741174418,86.99020860702149 63.29803348390851,89.64268082806666 60.56431039061863,91.15457507930114 60.19837895303499,91.07500196759065 61.102444857824594,90.86280685650127 63.36260961997323,89.43048427705071 64.35277703951579,88.05120149547292 65.90260430506896,86.80453430322814 68.52870050491765,85.955735405616 76.77292054216377,81.60558747861069 81.25019930908456,78.68775509287661 81.5515546107199,78.82038471288979 83.91934626619332,77.01661474023422 84.32832846138626,75.9820926523389 84.99561520060524,75.42504019687476 86.33018867927603,74.6823013023095 90.85051820345689,73.594714633291 93.06763220834546,72.02964105413412 92.74475152790546,71.71131958365731 92.89542917883955,71.23383647776791 95.26322083431296,68.23627896593825 95.15559394098818,67.30782331248338 94.50983258045744,66.85685766408278 92.12051554606296,66.53852839079627 90.03255381342024,65.50395493638644 87.6001860217657,63.54090418269334 85.16781823011115,60.54323739129177 84.02697315963451,59.773917808168335 80.71206484176219,59.45557784991979 77.89224023383576,59.959615895408206 76.49309061910026,60.62282201574999 72.96292851446196,64.33673777029617 71.60682965721935,65.10604071877606 66.78514483128674,64.57548726137611 64.1375232526334,65.10604071877606 56.775843741721474,70.43802890036022 55.44127026305068,70.99509451961785 53.03042785008438,70.94204071443528 47.584507042192854,68.58113288253662 44.31264948169701,68.95251339323295 39.98604836559389,68.10364269412821 34.77690672327299,68.84640474255139 20.16117459477391,74.52314262771688 35.20741429703776,68.58113288253662 40.22282753128093,67.91795177353197 44.441801753942855,68.92598623553931 47.2185756044928,68.42196960642468 50.2321286208462,69.3504203579505 53.56856231729034,70.94204071443528 55.74262556468602,70.78287921905576 64.65413234115113,64.76118112317636 65.79497741174418,64.49590412765974 71.62835503590759,64.92034716044145 73.13513154396787,63.96534913624055 75.63207547180355,61.232969805481844 77.09580122237094,60.224898593645776 78.99003454681952,59.58821955752501 83.03680574009195,59.26987931903568 84.58663300552871,59.85350272268988 87.81543980864808,63.567432017225656 90.33390911505558,65.53048252419103 92.09899016737472,66.40589105187973 95.06949242623523,66.962967315063 95.5,67.89142448580242 93.5411905394867,69.9870699410676 92.72322614933364,71.73784639123187 92.89542917883955,72.21532835681865 92.1420409247512,72.85196929711674 89.81730002653785,73.9395597937255 85.38307201687712,75.10672384784266 79.72189742233604,79.93447022981127 77.05275046499446,81.36685725318966" stroke="#ff0000" stroke-linecap="round" stroke-linejoin="round" stroke-width="0.5"><title>2024-09-22 20.6km</title><desc>1726992504000</desc></polyline><polyline fill="none" points="163.53971405874472,83.04778611111396 165.2982525815023,81.67357767521753 165.9845115171047,81.59429614523833 169.52303415408824,79.42725608528417 174.88443208904937,74.85525683985907 179.5595710882917,73.58670763885311 182.17593328037765,72.26529408256465 182.56195393169764,71.86886839621002 181.94003177119885,71.34029965172522 182.04725973005407,70.89101517410018 185.5,66.23954298318131 181.72557585395407,66.21311386991874 179.45234312943649,65.1030881118495 176.12827640993055,62.35442767753557 174.02660841948818,59.73788099254307 172.7398729150882,59.024271699396195 167.65726767282467,59.367861661390634 164.09729944402352,61.69368663856585 162.01707704528235,64.17806216985628 160.53733121533878,64.78593681876373 156.07664813345764,64.12520342174685 154.10365369345527,64.52164370911487 146.0186656076694,70.04530061184778 144.41024622728582,70.65315829731117 141.72954725986347,70.25672957136703 140.3570293885423,69.22601138557366 136.79706115974113,67.93099932304176 133.75178713269997,68.48600546944363 130.8351866560988,67.56099441145489 128.86219221609645,67.48170756000036 123.35067513911054,68.67100719265 107.69539316929877,74.72311665519373 104.7359015091788,76.3880769131938 104.5,75.99165900000662 106.60166799055878,74.61740444765019 113.87172359018587,71.73672633466776 122.38562351081055,68.59172075970855 122.40706910251174,68.96172385739919 125.4737887212541,67.95742822036846 130.74940428917762,67.53456546430243 133.75178713269997,68.35386128175014 137.20452740276232,68.08957265719073 138.6628276410047,68.4067189667403 141.92255758540705,70.20387235141243 144.49602859420702,70.49458689666062 146.1902303416282,69.86030009787646 153.95353455119766,64.33663833461469 155.69062748225406,64.04591527448792 159.8939634631388,64.65379030555778 161.18069896742236,64.41592637223948 162.10285941231996,63.9401976983645 166.0917394758435,59.89646050657029 168.49364575056825,59.10356174038316 172.3109610802494,58.971411655293196 173.426131850807,59.1828517515969 174.41262907080818,59.97575021868397 177.32922954729293,63.49089740679483 179.2378872120753,64.99737106732209 181.33955520263407,66.0016808440123 183.16243050049525,66.26597209311149 184.10603653697763,67.37599171150941 184.62073073873762,67.21741783917241 184.62073073873762,67.71956802473869 184.10603653697763,67.93099932304176 182.15448768867645,70.9438722213672 181.98292295483407,71.39315658598207 182.36894360603765,71.6310126256285 180.09571088163648,73.21671268023783 174.84154090553056,74.64383250453102 168.12907069106586,80.14079613224021 165.4269261319423,81.27716972661437 156.63423351862002,86.1661488651298 155.17593328037765,86.45684134170006 152.7525814138353,89.04662930509949 149.98610007949173,90.6057719837845 152.6882446387317,88.91449803819705 155.00436854653526,86.40398819402617 157.04169976175763,85.84902934136335 169.41580619546585,79.16298137939884 174.62708498816937,74.64383250453102 179.8598093725741,73.19028444396099 181.91858617949765,71.92172519757878 182.30460683081765,71.57815575118002 181.94003177119885,71.31387117966369 182.26171564741526,70.5474440435064 184.53494837181643,67.53456546430243 184.14892772038002,66.55669208342442 181.48967434477527,66.13382651010761 178.8518665608717,64.81236611150962 176.21405877685174,62.43371646264859 174.26250992855057,59.89646050657029 173.3403494838858,59.31500170376967 171.7104845115682,58.971411655293196 168.55798252578825,59.1828517515969 165.7057188245235,60.37219833084964 162.40309769660234,63.860909481416456 160.85901509132236,64.68021961474733 155.90508339949884,64.15163279746776 154.10365369345527,64.49521437987278 144.8606036537094,70.60030117706629 142.69459888804704,70.5474440435064 139.9924543289235,69.17315390659496 136.49682287534233,68.06314377649687 133.55877680703998,68.48600546944363 130.64217633055523,67.6931390974496 129.11953931709286,67.71956802473869 125.6024622716941,68.14243040868314 122.72875297861174,69.04101015072956 122.62152501998935,68.56529194215545 124.48729150125291,67.79885478649521 130.04169976175763,67.24384682616801 130.57783955533523,67.6931390974496 133.66600476566236,68.43314780433138 136.66838760930113,68.06314377649687 139.69221604452468,69.0145813896088 142.54447974590585,70.44172973648529 144.34590945206583,70.57387261191616 146.2116759333294,69.86030009787646 153.0742652900517,65.1030881118495 155.54050833999645,68.96172385739919 156.01231135823764,68.98815262521384 156.65567911043763,70.15101511815737 158.2855440826388,70.49458689666062 158.9718030182412,71.8160115815408 161.24503574275877,74.14169885602314 161.45949166011997,75.33096081711119 162.61755361407995,76.25593769187981 161.75972994440235,76.89020519707992 163.28236695798114,82.492818400744 156.46266878477763,86.24542867127457 155.15448768879287,86.5096944761317 151.65885623521172,89.81298901546688 149.23550436855294,90.73790218784416 149.29984114377294,91.0285883447068 151.22994440037291,90.3415113263909 154.44678316125646,87.83101851867104 152.1092136617517,90.02439809917996 149.14972200163174,90.9757363460958 149.21405877685174,90.6586240753386 150.71525019861292,90.28865915506321 152.7954725973541,88.88807177492708 155.15448768879287,86.32470844761701 156.54845115181524,86.11329564431799 162.59610802226234,82.91565107478527" stroke="#4dd2ff" stroke-linecap="round" stroke-linejoin="round" stroke-width="0.5"><title>2024-08-22 19.7km</title><desc>1724317734000</desc></polyline><polyline fill="none" points="73.60032017074991,223.86409369824105 73.94610458915122,222.9763749598933 80.14140875136945,219.81607361210627 87.83511205983814,213.1757747089723 94.49146211321931,211.54230827948777 95.5,210.9741438292549 95.24066168628633,210.6545508239651 87.48932764143683,213.03373452479718 80.22785485605709,219.2834350724006 76.65474919963162,221.3074561811227 75.2427961579524,221.55601917719468 64.95570971188135,227.62799016444478 61.09445037355181,228.9062832185009 57.78068303107284,232.35054405234405 54.52454642474186,234.3389641805261 51.6141942369286,234.3389641805261 51.35485592321493,233.52229332132265 49.28014941303991,233.38026336563053 47.897011739667505,235.19113995195949 46.427427961607464,235.90128446486779 44.583244396955706,235.4396907344635 38.61846318037715,235.79476290172897 30.319637139793485,237.39258213239373 24.32604055502452,237.96069345940487 21.386872999020852,238.5998173368862 19.859658484579995,239.45198025810532 18.966382070444524,238.91937873349525 14.5,238.70633784262463 14.989861259353347,238.0672142060066 19.830843116389588,238.52880364409066 19.859658484579995,239.38096677945578 21.127534685190767,238.49329679104267 24.643009605119005,237.6411309785035 37.86926360731013,236.11432747074286 38.70490928494837,235.6527340883913 44.06456776952837,235.26215448358562 46.196905015967786,235.72374850389315 47.897011739667505,234.9425889508857 49.42422625399195,233.16721829836024 51.47011739597656,233.4157708612911 51.787086446071044,234.16142723802477 54.870330843143165,233.91287533109426 57.55016008543316,232.42155929782894 61.09445037355181,228.7287428624404 63.31323372467887,228.19612112466712 79.16168623277918,219.8515828124073 86.94183564581908,213.14026466960786 95.15421558183152,210.54801974186557 87.25880469591357,213.1757747089723 79.50747065106407,219.60301831678953 63.25560298829805,228.40916994030704 60.80629669164773,229.04831542313332 58.55869797221385,231.64039061532822 53.97705442912411,234.5520083643496 58.04002134478651,232.0309752265166 60.66221985046286,228.94179127630196 64.46584845252801,227.6634983829572 72.53415154758841,223.40248030240764 75.06990394880995,221.59152815875132 79.44983991468325,219.81607361210627 86.76894343656022,213.42434485940612 94.5202774812933,210.90312319272198 87.28762006398756,213.14026466960786 79.82443970115855,219.5675090852019 75.6173959444277,221.84009090493782 74.89701173955109,221.66254610856413 72.15955176099669,223.68655017364654 62.82337246532552,228.6222185951774 60.892742796218954,228.97729932976654 63.60138740669936,227.98307214843226 63.54375667020213,227.41494075988885 66.4541088581318,224.9293525023968 66.79989327653311,223.260445259657" stroke="#4dd2ff" stroke-linecap="round" stroke-linejoin="round" stroke-width="0.5"><title>2024-07-03 11.0km</title><desc>1719998343000</desc></polyline></svg>