<?xml version="1.0" encoding="utf-8" ?>
<svg baseProfile="full" height="300mm" version="1.1" viewBox="0,0,200,300" width="200mm" xmlns="http://www.w3.org/2000/svg" xmlns:ev="http://www.w3.org/2001/xml-events" xmlns:xlink="http://www.w3.org/1999/xlink"><defs /><rect fill="#222222" height="300" width="200" x="0" y="0" /><text fill="#FFFFFF" style="font-size:12px; font-family:Arial; font-weight:bold;" x="10" y="20">Over 10km Runs</text><text fill="#FFFFFF" style="font-size:4px; font-family:Arial" x="10" y="280">Runner</text><text fill="#FFFFFF" style="font-size:9px; font-family:Arial" x="10" y="290">jianbo</text><text fill="#FFFFFF" style="font-size:4px; font-family:Arial" x="65" y="280">SPECIAL TRACKS</text><rect fill="yellow" height="2.6" width="2.6" x="65" y="283" /><text fill="#FFFFFF" style="font-size:3px; font-family:Arial" x="70" y="285.5">Over 20.0 km</text><rect fill="red" height="2.6" width="2.6" x="65" y="287" /><text fill="#FFFFFF" style="font-size:3px; font-family:Arial" x="70" y="289.5">Over 40.0 km</text><text fill="#FFFFFF" style="font-size:4px; font-family:Arial" x="120" y="280">STATISTICS</text><text fill="#FFFFFF" style="font-size:3px; font-family:Arial" x="120" y="285">Number: 17</text><text fill="#FFFFFF" style="font-size:3px; font-family:Arial" x="120" y="290">Weekly: 1.0</text><text fill="#FFFFFF" style="font-size:3px; font-family:Arial" x="141" y="285">Total: 326.7 km</text><text fill="#FFFFFF" style="font-size:3px; font-family:Arial" x="141" y="290">Avg: 19.2 km</text><text fill="#FFFFFF" style="font-size:3px; font-family:Arial" x="167" y="285">Min: 10.0 km</text><text fill="#FFFFFF" style="font-size:3px; font-family:Arial" x="167" y="290">Max: 42.8 km</text><polyline fill="none" opacity="1" points="12.25,45.185021590281394 12.681835491239326,45.32066146237776 12.858094875409734,45.27183115739899 13.122483951679897,45.42374748083603 14.140381895325845,45.53768437343024 14.369519094761927,45.705876380903646 15.026085300807608,45.53768437343024 15.550456968776416,45.58108882504166 15.797220106614986,45.5159821312991 16.074828636687016,45.608216585180344 16.48022522032261,45.59736548316869 17.273392449133098,45.34236380247239 17.59947230987018,45.309810288268636 18.273664454347454,45.03310442877046 18.709906430187402,44.97342254085379 20.203704711108003,45.10363746294024 21.018904362950707,45.57566327096356 21.49921118482598,45.67332314014493 22.415759982570307,45.67874868196668 22.988602981175063,45.60279103450375 24.539685561932856,44.90288929444432 25.5179251441441,43.94796633629812 25.557583505578805,43.74178702237259 26.34634424978867,42.44500513222738 26.500571210955968,42.33648605701819 27.24526710913051,41.121053819395456 27.712354477203917,40.61099619198285 27.853361984540243,40.1443424570316 28.43061146774562,39.471484024739766 28.858040474384325,39.308694122162706 29.09599064302165,39.06993449036963 29.395631596125895,39.18931447097202 30.43996844740468,39.16760904444891 30.858584484813036,39.22729894118311 31.19788379938109,39.48233666311717 31.858856490056496,39.25985703194601 32.1893428353942,39.390089150023414 32.49779675769969,39.34667848754907 33.25130562504637,39.53659981424789 33.1984278098098,39.90016117117557 33.31299640954239,40.399374773118325 34.52477967576124,42.98217054653651 35.573523011640646,42.94961525670442 35.90400935697835,43.23718613608071 36.168398433277616,43.59529059705892 36.463632901752135,43.60614220112984 36.441600478749024,43.66040018064814 36.692770101188216,43.82859948483019 37.300864976627054,43.84487680214079 38.314356435643276,43.57901318587392 39.11193014905439,43.05813279419817 39.85662604722893,43.096113868024986 40.05491785443155,42.79226434393422 40.1033891850675,42.45043107885067 40.24439669243293,42.14657702049226 40.52641170710558,38.18000061735074 41.0155314982112,36.75281234352951 41.00231204438023,37.13267693871603 40.711484060506336,37.70246757715722 40.59250897617312,38.38077998059089 40.42946904580458,40.88230418918465 40.33693286913331,41.06136653535577 40.37218474596739,41.71249609269944 40.27964856923791,42.49926456777757 39.87865847023204,43.44336785435371 39.99322706996463,44.18669905143179 40.12542160807061,44.51766722780667 40.222364269400714,44.55564702057745 40.21795778480009,44.84320722692064 40.54403764550807,45.684174223119044 40.658606245269766,45.76013172772946 40.645386791438796,45.950024905992905 40.75554890654166,46.12364079693725 40.80842672177823,46.460019603578985 41.04637689044466,46.52512487707281 41.19179088238161,48.27207980867388 41.4033021434152,48.49451310864242 41.62362637362094,48.55961532163565 41.62362637362094,48.96650193430469 41.782259819388855,49.21605716425256 41.78666630398948,49.41678532678634 41.672097704256885,49.53071170762996 41.672097704256885,49.780263684500824 41.425334566418314,50.17086389023825 41.68091067348723,50.39871238246633 41.6941301272891,50.66995902367853 41.89242193449172,50.8055817068489 42.00258404962369,50.762182494472654 42.50932977916091,50.82728129672614 42.78253182460321,51.02800198735713 43.32452943097451,51.1961726602276 43.50519529974554,51.38061716306038 43.760771406814456,51.391466815202875 44.17057447505067,51.597609689582896 44.844766619527945,50.33903789328542 45.31185398760135,50.06236418666231 45.44845501033706,50.05151420135735 46.1358666086453,49.52528664867714 47.66932325102971,48.63014260855198 47.2991785442282,47.95199085862987 47.03038298335741,47.64817542808305 46.884968991420465,47.25212711099084 46.691083668818465,47.14904544774254 46.63379936895217,46.86150056308543 46.016891524312086,45.89034428261584 46.1358666086453,45.77098278893391 46.21958981611533,45.47800318138252 46.50601131541771,43.025577561529644 47.79711130456417,40.426505782077584 48.31707648787415,39.60714180895593 49.255657708621584,38.77148309757831 49.78443586116191,38.16914765223191 49.98272766836453,38.044338357882225 50.700984658906236,37.062130908987456 51.17247851160937,36.03648717358374 51.17247851160937,35.732588063168805 51.35755086498102,34.989111595521535 51.86870307911886,35.03795350747532 51.63515939505305,35.62947895132311 50.95215428137453,36.5140386048879 50.3440594059648,37.65905522121466 49.81087476879475,38.29395658651265 48.56383962571272,39.53117350218963 48.28623109564069,39.92729249321201 49.33938091612072,40.062948848200904 49.33056794691947,39.997833850895404 49.28209661625442,40.04667010806952 49.744777499727206,40.138916221199906 50.78030138180475,40.65440558586488 51.63075291045243,40.70866726696477 51.70566314875032,40.78463350617312 51.718882602552185,41.72334816895818 51.80260581005132,42.08689115116067 51.75854096398689,42.36904180815327 51.912767925154185,43.101539733004756 51.934800348157296,44.60990380953808 52.03614949405892,45.01140193360334 52.02293004025705,45.836089099033416 52.14190512459027,46.41661603351895 52.27409966272535,49.221482261957135 52.56492764662835,51.87427358332934 51.718882602552185,53.344359906899626 51.35755086498102,53.80002228516969 51.247388749878155,54.86321585004407 50.75386247414281,55.77450383883843 52.75,56.929859249263245 50.93012185834232,56.00232283896548 50.65691981287091,55.77992811468721 50.78030138180475,55.465318992610264 51.04028397347429,55.12358580416549 51.30026656514383,53.75662607483173 51.56906212598551,53.442002248855715 51.6836307257181,53.13280074376598 52.516456315963296,51.83630021241697 52.24325427049189,49.221482261957135 52.29172560115694,48.17442580367788 52.17715700142435,47.67530189252284 51.948019801988266,45.10363746294024 51.9744587096211,44.539369970611006 51.88632901752135,43.351128786038316 51.793792840850074,43.0310034353497 51.80260581005132,42.14115103578297 51.76294744858751,41.696217973181774 51.67481775651686,41.5822709651402 51.65719181811437,40.817190425012086 50.956560765975155,40.648979414007044 50.74064302034094,40.68153643492042 49.431917092821095,40.106358791970706 48.76213143294444,39.97070257309679 48.20691437277128,39.99240759668464 48.05268741160398,40.2094572338392 47.85439560440136,40.86059961199862 47.77067239690223,41.01253142352289 47.65610379719874,41.02338367536868 47.54594168206677,41.34894996471485 47.44899902079487,41.376080378246115 47.36527581329574,41.701644013704936 47.241894244391005,41.80473865423119 47.18901642912533,42.10316912368944 46.84971711455728,42.515542385150184 46.818871722352924,42.80854205108699 46.624986399750924,42.96046702271997 46.56770209988463,43.106965597286035 46.47075943858363,43.88285718539191 46.5236372538493,44.083610086025146 46.41788162334706,44.22467913467699 46.29890653901384,44.702140194647654 46.32534544664668,45.298959111409204 46.17993145468063,45.960875919583486 46.27687411601073,46.27012866314544 46.497198346216464,46.595655479468405 46.528043738449924,46.81809739567689 47.59441301273182,48.39143440443149 47.66491676639998,48.68981945388441 47.616445435764035,48.80917289765057 47.37849526712671,49.0261783158312 46.63379936895217,49.378809799873125 46.32093896201695,49.6663379605161 46.17993145468063,49.6663379605161 45.77894135567476,49.88876409523073 45.43523555653519,50.19256379831859 44.897644434764516,50.404137331945094 44.809514742693864,50.70793341780518 44.8359536503267,50.94662884658828 44.60240996626089,51.076825798394566 44.59359699708875,51.29381984784777 44.28073659015354,51.70610554495943 44.31158198235789,51.83087544241789 43.89296594494954,51.55421127129375 43.403846153843915,51.39689164027368 42.68999564790283,50.930354200070724 42.63271134806564,51.01715224410873 42.1788434337941,50.76760739839301 41.60600043521845,50.2956382131124 41.24907518224791,50.20883872223203 41.13891306714504,51.011727371449524 40.79961375260609,51.22329690109109 40.73792296813917,52.074989419084886 40.36337177673704,52.36249967052936 40.341339353704825,53.121951528053614 40.02407246219809,53.279264889893966 40.01085300836712,53.474549647242384 39.83900010882644,53.59931444767062 39.77730932433042,53.859692003348755 39.579017517127795,53.979031192993716 39.25734414102044,54.49435573447772 39.06345881841844,54.928308485374146 39.05464584918809,55.23749716669772 38.85635404198547,55.345983899987914 38.794663257547654,55.5249864155885 38.52586769667687,55.67144246877797 38.415705581574,55.61177524764207 38.345201827876735,55.83417083569293 38.14691002067411,55.98605009298626 38.18656838210882,56.224716420856566 37.90895985203679,56.50677493034527 37.78117179850233,56.55559256275592 37.666603198769735,56.48507818715734 36.965972146659624,55.76365528511815 36.772086824057624,55.67144246877797 36.58260798608535,55.41107580946846 36.29178000218235,55.32428657508353 36.05823631811654,55.14528322965634 36.04061037974316,54.944581628922606 35.56911652704002,54.678786185093486 35.40167011207086,54.315348957501556 35.19015885103727,54.299075577426265 35.035931889899075,54.418413555871666 34.912550320936134,54.81439630931345 34.30004896092578,55.56295655102076 33.67432814708445,56.74001423289155 33.22927320204326,57.813983645974076 33.06623327167472,57.92246392357265 33.088265694706934,58.16111957764224 32.95607115654275,58.20993534483932 32.56830051136785,59.43031163890919 32.29950495049707,59.92387628301367 32.237814166001044,60.39574051780437 32.11443259709631,60.47709590066734 32.09680665869382,60.92725958987285 31.955799151357496,61.084544594985346 31.810385159391444,61.58351393391786 31.629719290620415,61.88180807549361 31.5107442062872,62.440426122990175 31.241948645416414,62.95022659622191 31.052469807415036,63.85592114668907 30.818926123378333,66.36139662532514 30.730796431278577,66.58373701490564 30.801300184975844,66.97960854209305 30.60741486234474,67.68457627632597 30.704357523674844,67.76591796892535 30.58538243934163,67.89606435937822 30.642666739207925,67.91233263070171 30.594195408542873,68.63355318629692 30.470813839609036,68.59017183814649 30.224050701770466,69.22461972649398 29.88915787183214,69.5716642126281 29.624768795532873,69.79941064575542 29.492574257426895,69.76687551432042 29.369192688493058,69.92412842323392 29.0475193123566,70.01088840447483 29.329534327058354,69.83736826821041 29.527826134260977,69.82652323661387 29.53663910346222,69.65842489974602 30.26811554780579,69.32222626922157 30.23286367097171,69.2191971343309 30.541317593306303,68.94264403437046 30.479626808839384,68.8504592753743 30.567756500910036,68.50340901151503 30.43996844740468,68.02621035882476 30.721983462077333,67.77676351640912 30.677918616042007,67.71711297169168 30.744015885080444,67.48935559088932" stroke="red" stroke-dasharray="none" stroke-linecap="round" stroke-linejoin="round" stroke-width="0.5"><title>2026-03-01 42.6km</title><desc>1772325605000</desc></polyline><polyline fill="none" opacity="1" points="62.50310275098309,72.01845712556678 62.524299778975546,72.75 62.75746708596125,72.27972273359774 64.98315501690377,72.46260846368386 65.93702127307188,72.01845712556678 65.17392826813739,71.26078500440053 67.54799539456144,68.67422832344892 70.85473174904473,66.66243975081306 80.26621214277111,64.70288669664296 86.81609376810957,65.06867133660126 88.44826491747517,64.49386661316385 90.25001229019836,60.731469146558084 91.69141018821392,54.22549605918175 90.8647260996513,49.2609618496208 92.32732102577575,44.71438958274666 92.03056263492908,45.28924904386804 92.2637299420312,43.721446765906876 91.64901613246184,38.46922290127259 92.49689724901691,32.25 91.73380424408242,38.416961299895775 92.2637299420312,44.348569097259315" stroke="#4dd2ff" stroke-dasharray="none" stroke-linecap="round" stroke-linejoin="round" stroke-width="0.5"><title>2026-02-15 16.0km</title><desc>1771116215000</desc></polyline><polyline fill="none" opacity="1" points="123.27294735208852,67.32967798701429 127.89562277804362,67.55167462019017 129.3364566770615,67.16318029224931 130.40207341482164,64.4621913600713 131.4076554068597,59.92959847555903 131.43767277972074,58.930559215848916 130.8523340082611,56.654944456822705 131.79788125451887,52.75116558060108 131.4076554068597,48.8657851308526 131.66280307644047,48.366228767932625 131.60276833066018,46.92305640857376 132.3682113395189,41.52028540050378 133.44883676373865,39.0408651267644 133.38880201795837,38.578282089627464 133.32876727217808,39.355420760723064 133.31375858566025,38.633792130916845 132.24814184790011,37.13501365977572 132.18810710211983,36.394870507821906 132.4432547717006,33.3602446296718 132.74342850066023,33.24922054397757 132.93854142451892,32.25 131.94796811894048,32.26850414587534 132.50328951748088,33.3602446296718 132.26315053435974,36.820453275431646 132.578332949779,37.6161047105561 133.44883676373865,38.578282089627464 133.5388888824382,39.07787170687516 133.31375858566025,40.151058478237246 132.90852405165788,40.391599266193225 132.53330689045833,41.11321926896926 131.51271621190244,48.0331902498001 131.8278986273799,52.84367338778975 130.91236875404138,56.321924709380255 131.43767277972074,59.92959847555903 130.41708210128127,64.59169196146831 129.32144799060188,66.92268328930368 128.34588337148307,67.5886740264832 123.30296472494956,67.40367690198764 116.29390815377701,68.90214692002337 114.58291789871873,69.97511607258639 112.67681471985998,71.9545386263344 113.18711005913792,72.49101304828946 112.37664099095855,72.75 111.46111111756181,72.71300189199974" stroke="#4dd2ff" stroke-dasharray="none" stroke-linecap="round" stroke-linejoin="round" stroke-width="0.5"><title>2026-02-08 18.0km</title><desc>1770535113000</desc></polyline><polyline fill="none" opacity="1" points="162.37625662138453,69.81915959906473 163.09258579282323,69.84368582563184 164.94310281885555,69.31637059375498 168.19643113884376,69.4267391340909 168.77347408246715,69.20600192849088 169.63903849787312,67.28066177939763 170.23597947403323,64.43550354629406 170.22603045776486,63.442131331932615 169.90766193711897,62.26478819280601 169.99720308353426,61.4062998567897 170.55434799467912,60.106288841649075 170.54439897835255,59.84873743206117 170.43495979940053,60.17987483366596 170.48470488074236,58.63455733592855 170.2459284903016,57.2609212166135 170.36531668552198,55.89953060695552 170.97220667795045,51.93789841110993 171.38011634501163,51.20197376800934 171.4995045401738,50.29432572213409 171.53930060530547,50.72361977025139 171.51940257276874,50.355653559046914 170.85281848267186,49.34987216033187 170.77322635252494,48.52806745880662 171.21098306839122,46.82310724560375 171.45970847515855,44.89732494633063 172.63369239488384,42.014713448988914 172.98190796427662,42.21097906456271 174.53395450225798,38.65360343329667 174.83242499036714,37.50049518582091 176.1357461216394,34.86301544656453 176.2750323493965,34.42138395411894 175.93676579621388,34.21283505352767 176.2451853005914,33.41543808204733 177.1903418461443,32.25 176.25513431685977,33.52584728275542 174.6732407300733,37.51276236666308 173.9270645098877,38.813074776451685 173.39976664760616,40.38324021967128 172.60384534607874,41.842980711073324 172.65359042742057,42.11284630620503 171.4696574913687,44.99545490083983 170.80307340138825,48.83471181456116 171.62884175172076,50.6254955831173 171.53930060530547,51.20197376800934 171.02195175923407,51.80297930917732 170.6438891410362,54.07204845481465 170.3255206203903,56.74580268146383 170.54439897835255,59.456276832897856 170.42501078313217,60.19213916029548 170.54439897835255,59.8732661670947 170.56429701088928,60.081760165296146 169.9275599697139,61.94592197906604 170.29567357164342,64.30060174073151 169.7584266930935,66.9863389158927 168.8132701475406,69.24279149747599 168.05714491108665,69.51258124574815 164.82371462363517,69.35316012107796 160.44614746520529,70.29741990533512 159.03338715498103,71.04546337260399 157.8096581538557,72.36985412519425 158.16782273957506,72.75" stroke="#4dd2ff" stroke-dasharray="none" stroke-linecap="round" stroke-linejoin="round" stroke-width="0.5"><title>2026-02-01 19.0km</title><desc>1769905033000</desc></polyline><polyline fill="none" opacity="1" points="15.545912144589238,120.99893048348895 18.5024833236821,119.83735490877007 22.08732587832492,120.90782678607502 22.198197297635488,121.5 22.364504426484928,121.2494654150214 24.2493185531348,121.34056894057721 25.136289906920865,120.95337864056637 24.471061391639523,120.36120363931695 26.540661217062734,118.15191827801755 28.277646784787066,116.80811296873435 29.53418953588698,116.32980697781022 37.44301744014956,114.62156098350533 43.89203832461499,114.826551353588 44.83444538793992,114.39379363339685 46.33120954746846,111.34168350293476 47.569273728644475,105.738422041366 47.62470943829976,104.18952243086824 46.97795949294232,101.20557553808612 48.08667368511669,96.3992676078633 47.587752298568375,91.661170927473 47.846452276804484,91.54727284643741 47.901887986343354,89.04149693614454 48.825816479860805,82.86802830616944 49.45408785541076,81.0 48.807337909936905,82.98193184765114 47.643188008107245,91.2055781736126 48.17906653450336,97.49265692595509 47.08883091213647,100.06665154392249 46.95948092301842,101.22835394492722 47.69862371776253,104.23507849087764 47.680145147955045,105.53342138312291 46.57143095578067,110.70392264981638 44.87140252778772,114.50767734422698 43.63333834637888,114.96321147144772 37.535410289419815,114.66711441910593 29.460275256540626,116.37535998383828 27.021104033687152,117.62806315692433 24.544975671102293,120.24732360936468 25.210204186383635,120.90782678607502 24.43410425190814,121.36334481475933 22.290590147022158,121.22668952650565" stroke="#4dd2ff" stroke-dasharray="none" stroke-linecap="round" stroke-linejoin="round" stroke-width="0.5"><title>2026-01-25 19.0km</title><desc>1769297747000</desc></polyline><polyline fill="none" opacity="1" points="65.22199352865573,121.26026379264658 66.6418659601477,120.66092063613178 68.47019484464545,121.23629013873142 68.65497276379028,121.45205280677328 69.60803782060975,121.5 70.15264642448165,121.27225061734498 69.79281573975459,120.94860582162801 70.90148325479822,119.7618988349277 72.29218022536952,118.88684280456073 76.70739997830242,117.90389357302047 79.91670067969244,118.03575320501841 80.6169117418467,117.86793182355905 81.33657311124261,116.0938020020767 81.97843325149734,113.06092250999063 81.61860256677028,110.68729731731582 82.28963816806208,108.93701056608552 82.27018786076223,108.6972427540677 82.15348601702135,109.02092915775575 81.9589829442557,105.98782455042965 82.15348601702135,105.77202686784585 82.12431055610068,104.8009312481081 82.51331670174841,101.63581015885575 83.3107793002855,99.60959789800108 83.25242837844416,99.30985869767028 83.21352776390268,99.8014304913595 83.22325291746529,99.38179619175207 82.54249216266908,98.35068691939523 82.45496577990707,97.83512809833337 83.15517684206134,94.08225539844716 84.27356951072579,91.0966376571887 86.30612662161002,86.76792526428471 87.93022727960488,82.64287499777856 88.7374150317628,81.6115845148015 89.77800647134427,81.0 88.48456103703938,81.88739585417352 87.8524260505219,82.83474176252639 86.29640146793099,86.76792526428471 85.54756463761441,88.11092633490625 85.03213149466319,89.66974311842932 84.28329466434661,91.03668453531282 84.72092657815665,91.49232731521624 84.4875228907913,91.72014788781962 83.48583206580952,94.22613822737912 83.09682592016179,96.62415338281426 82.7175449282513,96.66012315062108 82.51331670174841,98.0869129874336 83.2718786856858,99.26190033808962 83.26215353206499,99.72949331410928 83.25242837844416,99.21394195441098 83.349679914827,99.48970233104046 83.26215353206499,100.16111556276155 83.04820015199948,100.2690208193817 82.7175449282513,100.91644979275588 82.03678417333867,105.5442398949017 82.25073755346239,108.48145120742265 81.6672283349908,110.77121436764719" stroke="#ffa900" stroke-dasharray="none" stroke-linecap="round" stroke-linejoin="round" stroke-width="0.5"><title>2026-01-18 21.1km</title><desc>1768694323000</desc></polyline><polyline fill="none" opacity="1" points="113.02823579008691,118.15156900987495 113.33818765066098,117.40996171264851 115.58078052417841,116.26383529014129 124.05887553410139,114.39855500221893 130.05735565943178,114.69070862254011 131.29716310172807,114.24124131652934 132.79222501732875,110.48814517457504 133.88617276062723,105.47640285079251 133.22980411467142,100.82412159974047 134.48784401942976,97.54272959791706 134.46961155708414,97.13817024615128 134.23258954600897,97.81243532344524 134.39668170746882,96.73360997822601 133.81324291112833,92.39576730626868 134.26905447081663,91.47424312162912 134.10496230924036,89.99080396062345 134.96188804146368,83.51747072537546 135.70941899926402,81.40459590236424 136.1469980966067,81.0 136.23816040856764,81.38211837630661 135.87351116084028,81.472028463686 135.27183990203775,82.52846860048885 134.05026492208708,91.1595752380963 134.39668170746882,95.47497217461932 134.21435708354693,97.74500893022923 134.39668170746882,97.0932191505126 134.4513790946221,97.63263155161985 133.3391988890944,101.09382237156387 133.94087014778052,105.49887734539516 132.82868994225282,110.80277901627414 131.15130340261385,114.28618809804902 130.02089073462412,114.84802191254857 123.85831844783388,114.53339519405563 115.94542977202218,116.24136214956525 113.24702533881646,117.74705632022233 111.11382723948918,120.12917342182482 111.75196342298295,120.71346144599374 111.00443246518262,121.14043994780513 108.90769929077942,121.00560474164377 108.76183959154878,121.5 108.76183959154878,120.75840659950336" stroke="#4dd2ff" stroke-dasharray="none" stroke-linecap="round" stroke-linejoin="round" stroke-width="0.5"><title>2025-12-28 16.0km</title><desc>1766878702000</desc></polyline><polyline fill="none" opacity="1" points="167.54761588014662,121.5 164.50019954005256,97.31760273658438 170.49980045994744,81.0" stroke="#4dd2ff" stroke-dasharray="none" stroke-linecap="round" stroke-linejoin="round" stroke-width="0.5"><title>2025-12-21 12.2km</title><desc>1766291458000</desc></polyline><polyline fill="none" opacity="1" points="52.75,138.95250696485164 46.10617977473885,148.14947119168937 43.01179775223136,147.25221056200098 39.73539325827733,151.4020334103261 33.27359550539404,154.99105382332345 12.25,161.04749303514836" stroke="#4dd2ff" stroke-dasharray="none" stroke-linecap="round" stroke-linejoin="round" stroke-width="0.5"><title>2025-12-07 13.4km</title><desc>1765091716000</desc></polyline><polyline fill="none" opacity="0.5" points="97.75,146.1643912906875 57.25,153.8356087092543 97.75,146.1643912906875 57.25,153.8356087092543 97.75,146.1643912906875 57.25,153.8356087092543 97.75,146.1643912906875 57.25,153.8356087092543 97.75,146.1643912906875 57.25,153.8356087092543 97.75,146.1643912906875 57.25,153.8356087092543 97.75,146.1643912906875 57.25,153.8356087092543 97.75,146.1643912906875 57.25,153.8356087092543 97.75,146.1643912906875 57.25,153.8356087092543 97.75,146.1643912906875 57.25,153.8356087092543 97.75,146.1643912906875 57.25,153.8356087092543 97.75,146.1643912906875 57.25,153.8356087092543 97.75,146.1643912906875 57.25,153.8356087092543 97.75,146.1643912906875 57.25,153.8356087092543" stroke="#4dd2ff" stroke-dasharray="1,0.5" stroke-linecap="round" stroke-linejoin="round" stroke-width="0.5"><title>2025-11-30 11.3km</title><desc>1764483136000</desc></polyline><polyline fill="none" opacity="0.5" points="126.31203895868384,129.75 128.02252240324742,131.1497142760345 128.30029321907205,131.1317693928795 128.78273726755287,130.68314586484485 129.22132276612683,130.53061323051952 130.31047675432637,130.7010908594675 131.26805509295082,131.0689622667196 132.34989932287135,131.95722940344422 133.99459494263283,133.7337309042632 134.3089145499689,133.9131730705849 134.36008285812568,134.11055893867888 134.79866835672874,134.45149689481332 134.9667927978735,134.7475732879975 135.61005152916186,135.20514350849407 136.15097364410758,135.79728890282422 136.80154213370406,136.11130343012337 136.90387875004672,136.4073730198288 137.40094231511466,136.927734812547 137.50327893145732,136.8290457950643 137.45942038160865,137.0174519841239 137.6860228892183,137.29557450793072 140.12017240651767,139.7268580714299 140.11286264818045,140.72267384301813 139.98859675691347,141.15329262801242 139.6231088413915,141.98760921967187 138.57781340304064,143.60238815535558 141.2678044611821,147.22653836620884 141.35552156093763,147.96211101853987 141.15815808653133,149.36147246429027 141.2751142194902,149.89968118903198 141.18008736148477,150.81462682122947 141.26049470287398,152.312601032776 141.05582147018868,152.64448333280598 140.6684042797424,154.4204762260124 139.63041859969962,156.1515788094548 139.63772835803684,156.4834434801087 139.1406647929689,156.60901349865162 138.6874597777205,157.03953762023593 137.8906961219036,157.50593585791648 137.53251796471886,157.54181252075796 136.88194947512238,158.00820751726133 136.07056630268926,158.20552757128462 135.68314911227208,158.43872330428712 134.40394140800345,158.6270731547338 133.34402645303635,158.60913509487727 132.47416521413834,158.43872330428712 130.9975940354634,157.37139821361052 129.62335947316024,155.6492942470868 129.11167639147607,155.35330349534343 128.24912491088617,154.34871978347655 127.79591989566688,154.25902413012227 127.40119294691249,153.96302768422902 126.6775268742349,153.84642269087635 125.70532901896513,153.04812191383098 125.29598255359451,152.8866667519469 122.53289391240105,153.35309179094475 121.58993509039283,153.33515242201247 117.36489478714066,154.08860208205442 115.54476496792631,154.6895622509037 114.5433280794241,154.8779218721902 113.30797892500414,155.3981506568598 111.60480523877777,155.79280447828205 109.92356082747574,156.44756629189942 109.26568257951294,156.83324513200205 109.94549010240007,158.0351148290647 109.86508276095265,158.63604218300316 109.9674193772953,159.05758525554847 109.54345339533756,159.42531231108296 108.62242384825367,160.72579542652238 108.702831189672,161.3536064872169 106.68533789605135,164.41186524797376 106.39294756366871,165.29972258957423 104.5947470194078,168.30400746598025 103.98072732135188,169.6581368457264 103.64447843906237,170.25" stroke="#4dd2ff" stroke-dasharray="1,0.5" stroke-linecap="round" stroke-linejoin="round" stroke-width="0.5"><title>2025-11-23 10.7km</title><desc>1763852167000</desc></polyline><polyline fill="none" opacity="0.5" points="168.76389521633973,131.77738655149005 170.92266514804214,133.54394038842293 171.2732346241246,133.52129247896664 171.8821184510016,132.9550929135512 172.4356492027291,132.76258426015556 173.8102505694842,132.9777409636954 175.01879271067446,133.44202475153725 176.38416856492404,134.5630904900827 178.45990888378583,136.80518060542818 178.85660592251224,137.03165128793626 178.92118451022543,137.28076838891866 179.47471526195295,137.7110599597654 179.68690205010353,138.08473257092555 180.49874715256738,138.66222359357198 181.18143507966306,139.409559486543 182.00250569474883,139.80587148932682 182.131662870117,140.1795355139402 182.7589977220632,140.83627463367156 182.88815489743138,140.71172102620767 182.8328018222819,140.94950503819564 183.11879271065118,141.3005183985515 186.19088838266907,144.36899700259528 186.18166287010536,145.62579790996824 186.02482915716246,146.16927401785506 185.56355353066465,147.22224975829886 184.24430523911724,149.2602327763234 187.63929384958465,153.83420660101547 187.75,154.76255941813724 187.50091116171097,156.52866795441514 187.64851936214836,157.2079313612703 187.5285876992857,158.36266754195094 187.63006833707914,160.2532334498319 187.3717539862846,160.67209604240634 186.88280182227027,162.91354425336613 185.57277904322837,165.09833722381882 185.58200455579208,165.51717756668222 184.95466970384587,165.67565719489357 184.38268792704912,166.2190138298174 183.3771070614457,166.80764653180813 182.92505694756983,166.85292581307294 182.10398633254226,167.4415544244257 181.07995444186963,167.69058846266853 180.5910022779135,167.98490054046124 178.9765375853749,168.22261344850995 177.63883826875826,168.19997415061516 176.54100227792514,167.98490054046124 174.67744874709751,166.63784902682528 172.94305239175446,164.464413046524 172.29726651479723,164.09084852185333 171.20865603646962,162.82298175711185 170.63667425967287,162.70977851034695 170.13849658315303,162.3362067991984 169.22517084283754,162.18904176563956 167.99817767651984,161.18152092737728 167.48154897493077,160.97775131481467 163.99430523917545,161.5664178422594 162.8042141229962,161.54377689219837 157.47186788154067,162.49469195442362 155.1747152619646,163.25315281339863 153.91082004556665,163.49087805305317 152.35170842823572,164.14744930575398 150.20216400915524,164.6455346896255 148.08029612759128,165.4718976223594 147.25,165.95865584614512 148.10797266516602,167.47551365147956" stroke="#4dd2ff" stroke-dasharray="1,0.5" stroke-linecap="round" stroke-linejoin="round" stroke-width="0.5"><title>2024-11-03 10.0km</title><desc>1730623436000</desc></polyline><polyline fill="none" opacity="1" points="35.55481045116903,178.5 36.71997042768635,179.45346789712494 36.90918444097042,179.44124406666015 37.23781930614496,179.13564731795122 37.5365782744484,179.03174399098134 38.278496379149146,179.14787122435155 38.930786793353036,179.39846063612276 39.6677255819086,180.00353712455035 40.78807171311928,181.21366777709045 41.002182307100156,181.33590154144258 41.037037520087324,181.47035833151676 41.335796488419874,181.70260101250824 41.45032075961353,181.90428455666552 41.88850057980744,182.21597568062498 42.25696997408522,182.61933773358032 42.70012911045342,182.83324051083764 42.76983953639865,183.03491942054825 43.108433033834444,183.38938337990112 43.178143459779676,183.32215765278306 43.14826756293769,183.45049759755784 43.3026263632637,183.6399511899508 44.960738637513714,185.29611121225025 44.95575932136853,185.97444848859232 44.871110946987756,186.2677806310312 44.62214514001971,186.83610668143228 43.91010293219006,187.93607394081846 45.7424912712886,190.4047998369424 45.802243065001676,190.90586274814632 45.66780152922729,191.85909030168477 45.74747058743378,192.2257113684136 45.68273947763373,192.84896091502014 45.73751195517252,193.86936225398676 45.59809110328206,194.09543633504654 45.33418734790757,195.30522053043023 44.627124456194,196.48442600700946 44.63210377233918,196.71048807916304 44.29351027490338,196.79602480874382 43.98479267428047,197.08929246765183 43.44204721512506,197.40699712675269 43.1980607243604,197.43143586175938 42.75490158799221,197.74913831300728 42.202197496575536,197.8835502713555 41.938293741230154,198.04240029451466 41.066913416900206,198.17070186213095 40.34491257678019,198.158482679617 39.75237395626027,198.04240029451466 38.74655209618504,197.31535176241232 37.81044066208415,196.14227603137988 37.46188853238709,195.9406508250977 36.87432922801236,195.25634093725967 36.565611627389444,195.1952413775507 36.29672855586978,194.99361229248825 35.80377625813708,194.91418242618965 35.14152721167193,194.37038989924622 34.862685507891,194.26040865784307 32.98050400742795,194.57813157366763 32.33817222548532,194.56591149942324 29.46012749723741,195.0791520051862 28.220277778658783,195.48851857253248 27.53811146764201,195.6168267959256 26.69660704015405,195.97120015185646 25.53642637981102,196.24003340993295 24.39118366787443,196.6860489862811 23.943045215361053,196.94876859908982 24.406121616309974,197.76746723801625 24.351349138771184,198.17681145226015 24.421059564716415,198.46396133263988 24.132259228645125,198.71445241383117 23.50486539513804,199.60032528271404 23.559637872705935,200.02798234250076 22.185346618352924,202.11123004484762 21.986173972807592,202.7160273859481 20.76126220266451,204.76250875183905 20.34299964699312,205.68492478649205 19.680750600527972,206.84555617889055 19.546309064753586,206.92496680076874 19.42680547744385,207.26093339967338 19.033439502469264,207.73739119210586 18.69484600503347,209.65539260653168 18.879080702143256,210.84036252508304 19.874943929928122,212.93536845661947 20.069137259328272,213.0147692614264 20.178682214434957,213.2346477452993 20.52723434413201,213.49727909268768 21.109814332361566,214.39510126407913 22.03098781805602,215.26847720048318 22.21522251519491,215.29290707401742 22.065843031014083,215.3234443988913 22.26501567658852,215.3417667847243 22.558795328775886,215.66546114439916 22.82269908412127,215.76928718666022 23.00195446514408,215.73875013812722 23.649265563173685,216.29452145915275 24.411100932426052,216.56324380549995 25.17293630167842,216.99686086477595 26.69162772403797,217.60758264493052 27.04515916990931,217.83354778504508 27.020262589183403,217.9251549790788 26.641834562673466,217.87019068310474 25.13808108869125,217.41825970266655 24.4509354615584,217.31443713515182 23.823541628051316,216.97853909440892 23.390341123973485,216.54492187392316 22.294891573430505,215.84868342429763 21.35380082318443,215.09136025513362 20.074116575502558,213.58278667109334 19.56124701318913,212.81321312241198 20.33304101473186,213.8270932202031 21.74716679812991,215.29901454050196 22.942202671489213,216.19069652371763 23.68910009227693,216.63042416310782 25.128122456429992,217.3083299184982 29.34560322604375,218.4442591949337 30.097479963005753,218.71907685994302 30.59541157691274,219.0 30.177149021212244,218.74350502265224 29.255975535546895,218.40761672380904 27.956374023284297,217.99844061168915 25.97460620003403,217.5587251810939 24.306535293522757,216.91135921147725 23.410258388525108,216.4594194363417 22.359622683230555,215.7509649597996 21.025165958009893,214.56000559857785 19.4915365872439,212.65441073510738 19.083232663862873,211.9214700060802 18.744639166427078,211.0358187419879 18.555425153143005,210.21734065777855 18.5305285724462,209.31333413214452 18.684887372743106,208.40931101492242 19.003563605627278,207.57246401631346 22.568753961037146,201.2131839253525 23.579555137257557,199.67363818534432 24.52064588747453,198.61669994839758 25.167956985533237,198.0912771216099 26.761338149983203,197.06485356278426 27.41860788030317,196.75936622855443 28.54891264383332,196.34390041191728 29.370499806740554,196.16671539421804 33.21453186593135,194.7614323230664 34.4742988490616,194.46204074602065 35.28094806356239,194.57813157366763 37.01375007987372,195.2685608401007 37.621226648800075,195.71458521788009 39.473532252479345,197.5719583526734 40.01627771163476,197.9385368758485 40.69346470650635,198.16459227126325 41.3806103336683,198.2195785618751 42.20717681272072,198.06683871413043 42.80469474935671,197.7735768781895 44.308448223309824,196.74714669576133 44.77152462422964,196.34390041191728 45.16489059917512,195.80623356213619 45.533359993452905,194.73699226259123 45.75244990357896,190.24592516584016 45.96158118141466,188.15606444250443 45.822160329524195,187.22109801882107 45.219663076713914,184.7522124072966 44.253675745771034,182.30153760453686 44.8860488954233,183.91496317126075 45.43377367066569,186.21278098750918 45.603070419398136,186.60388822802997 45.67776016148855,186.71388657940406 45.88689143929514,186.69555353790565 46.0810847687535,186.80555168435603 46.4694714275538,186.011115102021 46.409719633928034,185.90111517978949 45.69269810989499,185.54055815527317 45.59809110328206,185.41833483554728 44.856172998581314,185.15555367017078 44.547455397987505,184.92943852090684" stroke="red" stroke-dasharray="none" stroke-linecap="round" stroke-linejoin="round" stroke-width="0.5"><title>2024-10-27 42.8km</title><desc>1729986801000</desc></polyline><polyline fill="none" opacity="1" points="57.25,203.11309910523414 57.450715859013144,203.48411755477719 57.58452643168857,203.19554775836878 59.067593612358905,202.26112604840455 68.2447687225067,198.77071549725952 70.87637665198417,198.53710136329755 72.85008259915048,198.9356192912528 74.37775330396835,198.72948950987484 76.25110132159898,199.3616196077346 77.2658314978471,199.91129498255032 78.43667400884442,200.0349715610355 79.30644273135113,199.6776832859614 83.58838105731411,196.80559280765738 84.31318832602119,196.68191257565923 86.45415748900268,196.97049956594856 87.25702092511347,196.86056175472186 89.66561123350402,194.57932722140686 90.6357378854882,194.1533082681417 92.72095264325617,194.01588244522281 93.61302312783664,194.22202111485967 94.04790748900268,194.5243571271858 96.12197136570467,196.84681952059327 97.75,197.6438662474393" stroke="#4dd2ff" stroke-dasharray="none" stroke-linecap="round" stroke-linejoin="round" stroke-width="0.5"><title>2024-10-13 16.0km</title><desc>1728810741000</desc></polyline><polyline fill="none" opacity="1" points="102.25,198.44598760238296 111.14024390245322,195.14789310276683 113.52935337496456,194.9214109661625 115.5049631310394,195.36021969214198 117.03261486103293,195.17620333781088 118.99673851387342,195.78487166979176 120.1683210436604,196.4360015919956 121.20207033463521,196.5067763566767 122.33919455471914,196.09628210232768 125.15328984684311,193.95885680369247 126.52013613155577,193.19446969559795 127.47348269994836,193.0387605744545 130.0578559273854,193.2794018527129 130.83891094720457,192.84058501795516 132.22872943850234,191.2551680095712 133.23950652300846,190.66063087625662 134.27325581398327,190.34920541071915 136.65087918320205,190.4058282867045 139.62577992060687,193.2935572060378 140.9581678956747,194.0154778645301 142.6006806579535,194.42597970427596 142.75,194.97803154303256 141.70476460579084,196.22367703106283 141.371667612053,196.9031142169042 141.42909812816652,197.1862118344361 140.2460294952034,197.908107537849 137.45490640954813,198.74323600956268 134.19285309134284,201.40428203604097 127.71469086781144,204.8578863124858 126.86471922858618,205.07019459540606 125.76205331820529,206.32988217559614 124.30331820761785,207.15079458927357 125.72759500850225,206.31572846086056 126.76134429947706,205.02773297081148 127.78360748721752,204.80127070277376 134.6522972206003,201.0645775337398 137.34004537720466,198.68661732582405 140.38386273407377,197.78071451468713 141.53247305727564,197.04466311461874 141.3027509925887,196.8889593173226" stroke="#4dd2ff" stroke-dasharray="none" stroke-linecap="round" stroke-linejoin="round" stroke-width="0.5"><title>2024-10-06 18.0km</title><desc>1728199446000</desc></polyline><polyline fill="none" opacity="1" points="147.25,194.17725794985017 149.15639597561676,193.96204680629307 150.01500179665163,194.14138944845763 151.35384477186017,193.85444111276593 153.07105641398812,194.32073186521302 155.0938735177624,194.06965241862054 157.5241645706119,194.78702109365258 159.40145526407287,195.71959497874195 160.81306144443806,195.62992467774893 166.88151275605196,191.59470280051755 167.82743442326318,191.3794877611217 171.53835788718425,191.72024475687067 172.4551742724143,191.146337768776 174.8854653252056,188.6892723753117 176.6899928135099,188.0256781133212 178.21802012220724,188.11535319396353 179.45499461016152,187.8283927374432 181.0994430471328,188.671337435866 182.23454904777464,190.1240602275211 182.00170679122675,190.37514661808382 183.89355012576561,192.16860798487323 185.66897233197233,193.01152703889238 186.78952569165267,193.1908708759147 187.41528925619787,193.9082439696358 187.75,193.89030968624866 186.04734099889174,196.36521948214795 186.19286740920506,196.79563419469923 184.79581386991777,197.81786393301445 180.99757455987856,198.92975463095354 177.02470355731202,202.30124119583343 168.72969816741534,206.67688156533404 167.76922385918442,206.85620822641067 166.08111749909585,208.64946244268504 164.23293208767427,209.6716072625568 163.9855371901067,209.61781034927117 164.5967481135158,209.47435181475885 166.12477542215493,208.50600293469324 166.7941969098174,207.57351261722215 167.84198706434108,206.73067958731554 169.6174092705478,206.1568329736474 175.19107078696834,203.21583285697852 178.21802012220724,201.2431768621027 178.42175709665753,201.33284363539133 180.02254761045333,200.11337069125148 180.2990477901767,199.41396238784364 180.75017966219457,199.03735649673035 181.65244340640493,198.53521376222488 184.7084980236832,197.79993014104548 186.20742005028296,196.7418324266473 185.98913043469656,196.52662515151314 186.09099892200902,196.20381363022898 187.69178943580482,194.17725794985017 187.61902623064816,193.54955787368817 187.18244699964998,193.24467398310662 185.56710384477628,193.02946143272857 184.15549766435288,192.33001840201905 182.5110492274398,191.0028606610722 180.86660079052672,188.9762311001541 180.09531081561,188.4561179863813 177.8542040962493,188.24089821222879 175.94780812074896,188.58166270471702 175.00188645342132,189.03003579685173 172.6152533237473,191.54089907108573 171.69843693857547,192.0610009387019" stroke="#ffac00" stroke-dasharray="none" stroke-linecap="round" stroke-linejoin="round" stroke-width="0.5"><title>2024-09-22 20.8km</title><desc>1726992504000</desc></polyline><polyline fill="none" opacity="1" points="12.330452920112293,242.05731872392062 14.58313468407141,242.67203471568064 17.173718712700065,242.4737394961703 18.267878426704556,242.71169372962322 20.71364719903795,244.06009427271783 22.64451728243148,244.27821680696798 23.915673420764506,243.80231270704826 29.740464839036576,239.65792047821742 31.04380214540288,239.43979155526904 34.19755661499221,239.8958789594035 35.16299165674718,239.71741013220162 35.854886769957375,239.36047187211807 38.84773539932212,236.32646405062405 40.64988081046613,235.7315537129325 43.514004767581355,235.63240177185799 44.35071513708681,235.7910448476905 45.09088200243423,236.3859549609624 47.27920143032679,239.02336277373252 48.7112634088262,240.15366690878 50.28814064367907,240.907198499277 51.65584028605372,241.10549568796705 52.36382598330965,241.9383411585004 52.75,241.81936350339674 52.75,242.19612577016233 52.36382598330965,242.35476224486774 50.899582836718764,244.6153146757424 50.77085816452745,244.9524118241534 51.06048867694335,245.13087472875486 49.354886769957375,246.32062226675043 45.41269368294161,247.3913873792626 40.37634088197956,251.51574805108248 38.34892729436979,252.36836685637536 31.751787842600606,256.03655799786793 30.657628128654324,256.25466397403216 28.83939213346457,258.197776635483 26.763706793775782,259.367598228142 28.79112038144376,258.09863881365163 30.528903456463013,256.21500836442283 32.05750893923687,255.79862386173045 41.34177592373453,250.78209562327538 45.251787842658814,247.3913873792626 49.17789034568705,246.30079321462836 50.72258641239023,245.3489957824495 51.01221692486433,245.09121632296592 50.73867699637776,244.89292414444208 50.98003575683106,244.31787541713857 52.68563766393345,242.05731872392062 52.39600715134293,241.3236223076383 50.40077473188285,241.0063471247995 48.421632896352094,240.01485806528945 46.44249106076313,238.2301620534272 44.97824791417224,236.32646405062405 44.28635280102026,235.89019668904075 43.063468414824456,235.63240177185799 40.69815256254515,235.7910448476905 38.558104886789806,236.68340917622845 36.08015494636493,239.3009820836014 34.92163289623568,239.91570881653752 31.204707985627465,239.5191111985623 29.85309892729856,239.776899763674 22.91805721091805,244.35753401735565 21.292908224044368,244.31787541713857 19.265494636492804,243.2867483120208 16.642729439772666,242.4539099605463 14.438319427892566,242.7711822319543 12.25,242.1762961995555" stroke="#4dd2ff" stroke-dasharray="none" stroke-linecap="round" stroke-linejoin="round" stroke-width="0.5"><title>2024-08-22 19.8km</title><desc>1724317734000</desc></polyline></svg>