<?xml version="1.0" encoding="utf-8" ?>
<svg baseProfile="full" height="300mm" version="1.1" viewBox="0,0,200,300" width="200mm" xmlns="http://www.w3.org/2000/svg" xmlns:ev="http://www.w3.org/2001/xml-events" xmlns:xlink="http://www.w3.org/1999/xlink"><defs /><rect fill="#222222" height="300" width="200" x="0" y="0" /><text fill="#FFFFFF" style="font-size:12px; font-family:Arial; font-weight:bold;" x="10" y="20">Over 10km Runs</text><text fill="#FFFFFF" style="font-size:4px; font-family:Arial" x="10" y="280">ATHLETE</text><text fill="#FFFFFF" style="font-size:9px; font-family:Arial" x="10" y="290">wjianbo</text><text fill="#FFFFFF" style="font-size:4px; font-family:Arial" x="120" y="280">STATISTICS</text><text fill="#FFFFFF" style="font-size:3px; font-family:Arial" x="120" y="285">Number: 2</text><text fill="#FFFFFF" style="font-size:3px; font-family:Arial" x="120" y="290">Weekly: 1.0</text><text fill="#FFFFFF" style="font-size:3px; font-family:Arial" x="141" y="285">Total: 30.7 km</text><text fill="#FFFFFF" style="font-size:3px; font-family:Arial" x="141" y="290">Avg: 15.4 km</text><text fill="#FFFFFF" style="font-size:3px; font-family:Arial" x="167" y="285">Min: 11.0 km</text><text fill="#FFFFFF" style="font-size:3px; font-family:Arial" x="167" y="290">Max: 19.7 km</text><polyline fill="none" points="124.71961874491535,100.73038148149499 127.06433677533641,98.89810356698581 127.9793486893177,98.79239486032748 132.69737887219526,95.90300811373163 139.84590945206583,89.80700911983149 146.07942811760586,88.11561018516659 149.56791104050353,86.35372544341953 150.08260524226353,85.82515786163276 149.2533756949706,85.12039953563362 149.39634630666114,84.5213535654766 154.0,78.31939064426115 148.96743447182234,78.28415182657773 145.9364575059153,76.8041174824757 141.50436854653526,73.13923690340016 138.70214455923997,69.65050799006713 136.9864972201176,68.69902893251856 130.20969023031648,69.15714888187358 125.46306592528708,72.25824885143084 122.68943606037647,75.57074955981807 120.7164416203741,76.38124909170438 114.76886417798232,75.5002712290152 112.13820492464583,76.02885827884893 101.35822081018705,83.39373414914007 99.21366163622588,84.20421106310096 95.63939634652343,83.67563942851848 93.80937251797877,82.30134851412731 89.06274821294937,80.57466576405568 85.00238284352235,81.31467395927757 81.11358220817056,80.08132588196895 78.48292295483407,79.97561008002958 71.13423351873644,81.56134292355273 50.26052422565408,89.63082220693468 46.314535345416516,91.85076921762084 46.0,91.32221200002823 48.80222398741171,89.48987259686692 58.495631453581154,85.64896844624309 69.84749801445287,81.4556276796211 69.87609213660471,81.94896514320862 73.96505162829999,80.60990429384401 80.99920571886469,80.04608728573658 85.00238284352235,81.13848170902929 89.60603653686121,80.7860968762543 91.55043685471173,81.2089586223301 95.89674344717059,83.60516313521657 99.32803812553175,83.99278252889053 101.58697378879879,83.14706679718802 111.93804606830236,75.78218444617232 114.25416997622233,75.39455369932693 119.85861795081291,76.2050537407631 121.57426528993528,75.88790182967205 122.80381254968233,75.25359693117207 128.12231930112466,69.86194734211313 131.32486100075766,68.80474898719694 136.41461477370467,68.62854887373396 137.90150913433172,68.9104690021486 139.21683876099996,69.967666958255 143.10563939635176,74.65452987575554 145.65051628276706,76.66316142311553 148.45274027017877,78.00224112535943 150.8832406672882,78.35462945749168 152.1413820493035,79.83465561535559 152.82764098490588,79.62322378557292 152.82764098490588,80.29275736631826 152.1413820493035,80.57466576405568 149.53931691823527,84.591829628509 149.31056393973995,85.1908754479955 149.8252581412671,85.50801683418103 146.79428117559291,87.62228357366985 139.78872120729648,89.52511000607046 130.83876092126593,96.85439484301605 127.2359015091788,98.36955963549553 115.51231135812122,104.88819848684943 113.56791104050353,105.27578845561948 110.33677521848585,108.72883907347568 106.6481334392447,110.80769597840845 110.25099285168108,108.5526640509488 113.33915806200821,105.2053175920446 116.05559968238231,104.46537245516083 132.55440826062113,95.55064183921786 139.50277998414822,89.52511000607046 146.47974583005998,87.58704592529102 149.22478157258593,85.89563359678141 149.73947577434592,85.43754100159276 149.2533756949706,85.08516157290433 149.6822875298094,84.0632587246946 152.71326449571643,80.04608728573658 152.19857029384002,78.74225611126167 148.65289912640583,78.17843534683925 145.13582208100706,76.41648814867949 141.61874503572471,73.24495528353145 139.01667990465648,69.86194734211313 137.78713264502585,69.08666893836926 135.61397934879642,68.62854887373396 131.41064336767886,68.9104690021486 127.60762509936467,70.49626444114256 123.20413026213646,75.14787930858438 121.14535345509648,76.24029281968251 114.54011119937059,75.53551039664308 112.13820492464583,75.9936191731831 99.81413820490707,84.13373490277445 96.92613185069058,84.0632587246946 93.32327243860345,82.23087187547935 88.66243050049525,80.7508583686722 84.74503574275877,81.31467395927757 80.85623510740697,80.25751879659947 78.82605242275167,80.29275736631826 74.13661636225879,80.85657387826359 70.30500397144351,82.05468020099215 70.16203335986938,81.42038925620727 72.64972200163174,80.39847304866998 80.05559968238231,79.65846243489068 80.77045274036936,80.25751879659947 84.88800635421649,81.24419707246125 88.89118347899057,80.7508583686722 92.92295472603291,82.01944185284083 96.72597299446352,83.92230631533312 99.1278792694211,84.09849681591731 101.61556791106705,83.14706679718802 110.76568705332465,76.8041174824757 114.05401111987885,81.94896514320862 114.68308181094471,81.98420350029483 115.5409054805059,83.53468682421953 117.71405877685174,83.99278252889053 118.62907069106586,85.75468210873078 121.66004765685648,88.85559847470722 121.94598888012115,90.44128108950099 123.49007148528472,91.67458358916338 122.34630659257527,92.52027359613567 124.37648927734699,99.99042453433503 115.2835583796259,104.99390489506186 113.53931691835169,105.34625930152833 108.87847498024348,109.75065202065161 105.64733915810939,110.98386958381161 105.73312152491417,111.37145112629514 108.30659253383055,110.45534843520727 112.59571088163648,107.1080246915808 109.47895154892467,110.03253079892602 105.53296266880352,111.3009817948041 105.61874503584113,110.87816543379449 107.62033359811176,110.38487887341762 110.39396346302237,108.51742903323611 113.53931691835169,105.09961126348935 115.39793486904819,104.81772752577672 123.46147736301646,100.55420143305673" stroke="#4dd2ff" stroke-linecap="round" stroke-linejoin="round" stroke-width="0.5"><title>2024-08-22 19.7km</title><desc>1724317734000</desc></polyline><polyline fill="none" points="124.80042689433321,208.4854582643311 125.26147278561257,207.30183327983832 133.52187833515927,203.08809814948472 143.78014941327274,194.23436627865885 152.65528281778097,192.05641103934613 154.0,191.29885843899683 153.6542155817151,190.87273443199228 143.31910352199338,194.04497936641565 133.6371398079209,202.37791342986748 128.87299893284217,205.07660824150662 126.99039487726986,205.40802556963172 113.2742796158418,213.50398688594578 108.1259338313248,215.20837762468727 103.70757737476379,219.8007254031545 99.3660618995782,222.45195224072086 95.4855923159048,222.45195224072086 95.1398078976199,221.36305776177323 92.37353255064227,221.17368448752677 90.52934898622334,223.58818660263205 88.56990394880995,224.53504595314735 86.11099252919666,223.91958764597075 78.15795090724714,224.3930172023247 67.09284951980226,226.52344284323044 59.10138740669936,227.28092461253982 55.18249733187258,228.13308978252462 53.14621131285094,229.2693070108071 51.95517609384842,228.55917164467974 46.0,228.2751171234995 46.65314834564924,227.42295227470458 53.107790821930394,228.03840485881665 53.14621131285094,229.1746223726368 54.83671291358769,227.991062388086 59.52401280682534,226.85484130468103 77.15901814308017,224.81910329431412 78.27321238000877,224.2036454511981 85.41942369285971,223.68287264480023 88.26254002121277,224.2983313385339 90.52934898622334,223.2567852678476 92.56563500524499,220.88962439782335 95.29348986130208,221.2210278150742 95.71611526142806,222.21523631736636 99.82710779085755,221.88383377480204 103.4002134471666,219.89541239710525 108.1259338313248,214.97165714990115 111.08431163290516,214.2614948329283 132.21558164362796,203.13544374989579 142.58911419450305,194.18701955949655 153.53895410895348,190.7306929891638 143.01173959462903,194.23436627865885 132.67662753467448,202.80402442239574 111.00747065106407,214.5455599204288 107.74172892211936,215.3977538975014 104.74493062961847,218.85385415380006 98.63607257208787,222.73601115250494 104.05336179304868,219.37463363536517 107.54962646728382,215.25572170177475 112.62113126995973,213.55133117729565 123.37886873004027,207.86997373655322 126.7598719317466,205.4553708783642 132.59978655306622,203.08809814948472 142.35859124874696,194.56579314588453 152.69370330846868,191.20416425698204 143.05016008531675,194.18701955949655 133.09925293480046,202.756678780308 127.48986125923693,205.78678787325043 126.52934898622334,205.5500614780758 122.87940234784037,208.24873356489115 110.43116328702308,214.82962479357957 107.856990394881,215.30306577304145 111.46851654234342,213.9774295312527 111.3916755602695,213.21992101322394 115.27214514417574,209.90580333652906 115.73319103522226,207.68059367954265" stroke="#4dd2ff" stroke-linecap="round" stroke-linejoin="round" stroke-width="0.5"><title>2024-07-03 11.0km</title><desc>1719998343000</desc></polyline></svg>