<?xml version="1.0" encoding="utf-8" ?>
<svg baseProfile="full" height="300mm" version="1.1" viewBox="0,0,200,300" width="200mm" xmlns="http://www.w3.org/2000/svg" xmlns:ev="http://www.w3.org/2001/xml-events" xmlns:xlink="http://www.w3.org/1999/xlink"><defs /><rect fill="#222222" height="300" width="200" x="0" y="0" /><text fill="#FFFFFF" style="font-size:12px; font-family:Arial; font-weight:bold;" x="10" y="20">Over 10km Runs</text><text fill="#FFFFFF" style="font-size:4px; font-family:Arial" x="10" y="280">Runner</text><text fill="#FFFFFF" style="font-size:9px; font-family:Arial" x="10" y="290">jianbo</text><text fill="#FFFFFF" style="font-size:4px; font-family:Arial" x="65" y="280">SPECIAL TRACKS</text><rect fill="yellow" height="2.6" width="2.6" x="65" y="283" /><text fill="#FFFFFF" style="font-size:3px; font-family:Arial" x="70" y="285.5">Over 20.0 km</text><rect fill="red" height="2.6" width="2.6" x="65" y="287" /><text fill="#FFFFFF" style="font-size:3px; font-family:Arial" x="70" y="289.5">Over 40.0 km</text><text fill="#FFFFFF" style="font-size:4px; font-family:Arial" x="120" y="280">STATISTICS</text><text fill="#FFFFFF" style="font-size:3px; font-family:Arial" x="120" y="285">Number: 12</text><text fill="#FFFFFF" style="font-size:3px; font-family:Arial" x="120" y="290">Weekly: 1.0</text><text fill="#FFFFFF" style="font-size:3px; font-family:Arial" x="141" y="285">Total: 196.1 km</text><text fill="#FFFFFF" style="font-size:3px; font-family:Arial" x="141" y="290">Avg: 16.3 km</text><text fill="#FFFFFF" style="font-size:3px; font-family:Arial" x="167" y="285">Min: 10.0 km</text><text fill="#FFFFFF" style="font-size:3px; font-family:Arial" x="167" y="290">Max: 42.8 km</text><polyline fill="none" points="15.175957018102054,80.38973098458519 18.633310946985148,78.40846201695967 21.2807253189967,76.08452538302663 24.83478844864294,75.01192387545598 24.83478844864294,74.77356666658306 25.680993955640588,74.0584921639238 26.079919408948626,74.0733895933954 27.687709872378036,71.18325321706652 29.85157824039925,69.64877072351373 31.616521155112423,66.8926114969363 32.02753525855951,66.54994938318123 33.50235057080863,66.34137195928633 35.932169241132215,67.56303450588894 36.68166554736672,67.60772923828335 38.20483546005562,66.99689976970694 38.809267965028994,66.19238786031929 39.365345869679004,64.85152254057175 40.00604432501132,64.18108419104828 40.93687038280768,63.91290778914845 42.18200134311337,63.86821166313166 43.41504365345463,63.1977677502 43.75352585630026,62.110150667780545 44.16453995968914,56.03123026977846 44.563465412997175,55.077645830191614 46.02619207522366,53.70685475218488 47.59771658829413,53.11085368440399 50.02753525855951,53.85585455067485 49.95500335789984,54.436951974304975 50.1363331094617,53.989954209086136 51.16386836802121,54.153853585485194 51.94963062455645,53.870754520197806 52.03425117523875,53.72175474044343 51.55070517124841,53.43865464274131 52.9046339825145,51.96354318801605 54.76628609804902,50.831121932809765 60.061114842188545,49.7284908361471 63.90530557418242,49.89239610797813 64.99328408326255,49.43048066999472 65.79113498987863,47.56790014728176 66.62525184685364,43.73834259071009 66.23841504362645,40.6686467542022 67.0,38.59730218747427 66.2505036937655,40.728253255925665 66.6977837474551,42.84426463523414 66.66151779715437,43.75324383281986 65.92411014100071,47.28478534395981 64.83613163197879,49.60928685966064 63.98992612492293,49.89239610797813 60.121558092709165,49.75829181152221 54.838817998650484,50.84602228277072 53.11014103423804,51.725139612746716 51.53861652116757,53.4535546647312 51.96171927463729,53.870754520197806 51.23640026868088,54.18365344776248 50.08797850908013,54.064453953746124 49.99126930820057,54.27305298952706 49.96709200798068,53.85585455067485 47.52518468769267,53.20025403571344 45.83277367358096,53.826054605975514 44.611820013436954,55.09254564609728 44.20080590998987,56.10572873089404 43.78979180654278,62.05055492272368 43.39086635323474,63.2126665450196 42.29079919407377,63.85331295074138 40.79180658154655,63.95760389827046 39.957689724629745,64.24067886460398 38.20483546005562,67.01179808685993 36.814640698430594,67.59283099603635 36.10141034249682,67.6375257171967 33.333109469444025,66.38606715248898 31.97918065817794,66.60954286548804 31.278038952325005,67.39915367616777 30.153794492885936,69.38060669483093 29.621893888514023,69.93183209546987 27.784419073199388,71.04917301469686 26.84150436532218,73.09015523111884 25.729348556080367,74.43092733910453 24.64137004694203,75.13110230004531 21.510409670881927,76.01003948086873 18.258562793780584,78.75108984591498 13.0,81.402697812533" stroke="#4dd2ff" stroke-linecap="round" stroke-linejoin="round" stroke-width="0.5"><title>2025-12-21 12.2km</title><desc>1766291458000</desc></polyline><polyline fill="none" points="84.99190010118764,69.59059021355642 85.26527168392204,69.14142809846089 89.85791427595541,66.6485578383581 93.95848801883403,62.98779343154456 98.36888288892806,61.81992643000558 100.44650691864081,60.67451099467871 102.14141073240899,58.675631176811294 103.28957138035912,55.95801712873799 105.03914951067418,54.63288454322901 105.03914951067418,54.11630477117433 106.40600742492825,53.15052119085158 107.53594330069609,51.80290747032268 109.19439756998327,48.613514501732425 110.48835639562458,47.917231000144966 111.45426932163537,47.67016200853686 111.618292271276,47.917231000144966 111.3084711440606,48.41136795829516 112.47485656430945,48.523671621791436 116.21093486330938,50.23067861562595 117.01282483967952,50.34298113551631 119.40026999660768,49.37717715745384 120.32973337837029,48.23168194980826 121.33209584874567,45.918208448259975 122.31623354705516,45.0197640605038 125.59669254138134,44.59300139351399 127.0,43.80685696969158 125.34154573071282,44.6828462502599 122.18866014177911,45.08714754637913 121.25919676013291,46.120357812789734 120.275059061707,48.366446473111864 119.52784340200014,49.30979528975149 117.90583867696114,50.095915498561226 116.19271009112708,50.34298113551631 112.21970975364093,48.47875016485341 111.08977387775667,48.47875016485341 109.57711778592784,49.175031478051096 107.02564967935905,53.352662372228224 104.23725953418761,55.1270029276202 103.49004387448076,55.935557336269994 102.45123185962439,58.316279624559684 101.12082348961849,60.15794869011734 100.50118123518769,59.97827449494798 99.8450894363923,60.809266132928315 98.5511306108674,61.52795848698588 94.34120823489502,62.7407452793268 89.6209922375856,66.78330847123289 78.7043536955025,72.53257415193366 77.31927100906614,72.89189711539075 75.62436719529796,74.8232456654805 73.41916976030916,76.19314303029387 75.69726628414355,74.64358621576685 77.39217009779532,72.7346934077359 78.77725278423168,72.37537012824032 89.05602429958526,67.07526782731293 93.81268984137569,62.875498859240906 98.60580492741428,61.41566299711121 94.3958825514419,62.628450551768765 89.89436382043641,66.53626556663949 78.95950050617103,72.39782785438001 77.46506918652449,72.80206644226564 75.56969287875108,74.91307532260544 73.3280458993977,76.14822852914222 75.46034424554091,74.8232456654805 77.55619304755237,72.59994726261357 79.76139048254117,71.90375722735189 88.85555180546362,67.0528094322508 94.21363482961897,62.628450551768765 98.5511306108674,61.483040299484855 94.14073574077338,62.78566315061471 93.22949713119306,63.48188871127786 92.86500168743078,64.35778153120191 90.86027674656361,65.9523446161038 90.5869051637128,65.77267624744854 88.81910226121545,67.18755976035027 80.08943638193887,71.83638385421364 77.39217009779532,72.80206644226564 76.04353695572354,74.48638404913072 74.43975700298324,75.63171095401049 73.0,76.19314303029387 75.5150185622042,74.77833082001598 77.51974350318778,72.66732034792949 78.86837664525956,72.37537012824032 87.88963887945283,67.52443513591425 82.00303746189456,70.7134905619314" stroke="#4dd2ff" stroke-linecap="round" stroke-linejoin="round" stroke-width="0.5"><title>2025-12-07 13.4km</title><desc>1765091716000</desc></polyline><polyline fill="none" points="140.80455037928186,72.78427872242901 141.13217768148752,72.27961730484094 144.06912242685212,70.63584758246725 146.7720476706745,68.27108491495164 149.54517876490718,67.50685241134488 150.90249187435256,66.82913253569131 151.23011917661643,66.49748092468508 151.08970747562125,66.35328427304194 151.41733477788512,66.3388645978921 151.8619718310074,65.74765635677613 152.91505958832568,63.5990934330257 154.4946912242449,62.60410770771705 155.4775731310947,61.681214682233986 157.16251354280394,59.11437940996984 157.56034669553628,58.912491053117265 158.5315276273177,58.88364983026986 161.51527627301402,60.1238158641645 163.1885157096549,59.44605236766074 163.75016251357738,58.696181705003255 164.346912242705,57.34063383546163 164.93196099676425,56.70611656231631 167.02643553627422,56.41769845956151 167.78699891659198,56.028332870417216 168.54756229690975,54.77370142489963 168.92199349944713,48.94741693121614 169.35492957750103,47.92346011572954 170.39631635969272,46.79853927216027 172.20996749732876,46.06300813900452 175.15861321776174,46.913916276796954 175.9191765980213,46.913916276796954 176.49252437701216,46.755272865520965 177.49880823399872,45.529384560111794 179.11354279523948,44.34675048157078 184.76511375949485,43.12083642856305 187.0,43.25063971333293 184.4842903575627,43.22179455166042 182.97486457205378,43.567936013190774 183.60671722644474,43.27948486778041 179.01993499463424,44.40444023178134 177.7562296858523,45.240938348462805 176.49252437701216,46.79853927216027 175.95427952328464,47.029293165360286 174.65547128929757,46.95718262359878 174.58526543877088,46.755272865520965 172.22166847239714,46.07743036341708 170.41971830988768,46.79853927216027 169.40173347777454,47.89461612937157 168.92199349944713,49.163744666097045 168.6294691223884,54.586226582032396 168.21993499458767,55.81201808301557 166.93282773566898,56.48980305323494 165.00216684723273,56.720537448403775 164.41711809317349,57.28295059208176 163.64485373784555,58.95575287377869 163.15341278439155,59.518155057645345 161.80780065007275,60.109395405954274 161.18764897080837,60.16707722796127 158.461321776791,58.89807044259214 157.58374864567304,58.97017347707151 156.97529794147704,59.287426290153235 155.24355362949427,61.95519932414027 152.75124593719374,63.82981352798379 152.0959913326078,65.50252033884317 150.86738894908922,66.85797176089545 149.4749729144387,67.5645305137441 147.0177681473433,68.19898772644956 143.98721560131526,70.78003885135695 142.20866738894256,71.86146759145049 136.34647887328174,74.83173941547284 134.55622968584066,76.33126491290022 133.0585048754001,76.87916357142967 133.0,76.7061432251212 134.2286023835186,76.28800964419497 136.21776814735495,74.42801766378398 137.09534127847292,74.2117375696107 139.72806067176862,72.78427872242901" stroke="#4dd2ff" stroke-linecap="round" stroke-linejoin="round" stroke-width="0.5"><title>2025-11-30 11.3km</title><desc>1764483136000</desc></polyline><polyline fill="none" points="18.556558935379144,135.27007125543605 19.26235741446726,134.5584637058928 19.23669201519806,134.3212602950225 22.367870722489897,132.64501011265384 25.25522813689895,130.09896475734422 28.322243346017785,129.1817432478565 30.118821292824578,128.09055722547055 30.439638783282135,128.13800029279082 32.10788973385934,125.18068156267691 34.62309885933064,123.39360499722534 36.304182509484235,120.64177374121209 36.958650190150365,120.07242182786285 37.89543726237025,119.78774490479555 41.11644486692967,121.2269383003295 42.87452471483266,120.8157418674673 42.78469581750687,121.08460122566612 42.61787072243169,121.0055250035075 43.10551330802264,120.91063347124145 43.86264258553274,119.99334496937809 44.61977186310105,118.30108828451193 45.15874524717219,117.6842787850328 46.22385931562167,117.27307077178557 47.67395437264349,117.19399215361045 48.90589353610994,116.51391398502165 49.26520912552951,115.29609040290234 49.63735741446726,109.20679562493751 50.06083650194341,108.0838025733974 51.25427756656427,106.70772699423833 53.38450570346322,105.90105499979109 55.87404942966532,106.6128246752196 55.89971482893452,107.18223751535697 55.96387832699111,106.80262924169074 57.01615969586419,106.94498247862794 57.850285171181895,106.64445878952392 58.38925855513662,107.00825053216249 57.478136882185936,106.20158046520373 58.928231939149555,104.65149404857948 60.08317490492482,103.79735663464817 61.40494296577526,103.30701586860232 67.0,102.24724058517313 60.3013307985384,103.73408696576371 59.14638783270493,104.43005157231528 57.50380228139693,106.23321468291397 57.940114068449475,106.6760928958829 56.29752851714147,107.32459032259067 55.84838403039612,107.2138714864559 55.87404942966532,106.69190994605015 53.38450570346322,105.90105499979109 51.30560836504446,106.73936108470662 50.21482889732579,107.94145062545431 49.74001901136944,109.00117792874516 49.27804182516411,115.43843402752827 48.931558935379144,116.59299303077569 47.815114068449475,117.24143933052255 46.09553231939208,117.36796504801896 45.21007604559418,117.6842787850328 43.4134980989038,120.5943278469058 41.809410646383185,121.27438395608624 41.10361216729507,121.2901991707331 38.08792775665643,119.9458988304832 37.03564638784155,120.07242182786285 36.21435361215845,120.79992659317213 35.12357414449798,122.79263549260213 34.14828897337429,123.88386746679316 32.698193916352466,124.62716498618829 31.941064638784155,125.43371690080676 31.23526615969604,127.14169212176057 30.439638783282135,128.1696289944084 30.10598859313177,128.13800029279082 28.65589353616815,129.1184863455419 25.6402091254713,129.94082359485037 22.034220532339532,132.97709918681358 14.796577946806792,136.8197804378142 13.808460076048505,137.07279236943577 13.0,137.75275941482687 13.705798479088116,137.0095394342061 14.681083650211804,136.80396717517579 17.812262357387226,135.12775006747688" stroke="#4dd2ff" stroke-linecap="round" stroke-linejoin="round" stroke-width="0.5"><title>2025-11-23 10.7km</title><desc>1763852167000</desc></polyline><polyline fill="none" points="112.23855421680491,129.02432476208196 113.14939759031404,127.02893059940834 113.6554216867662,126.49444525082072 114.08915662649088,126.17375307445764 114.13253012049245,126.44099660520442 116.98072289157426,124.6593635504396 119.87228915659944,121.89778806192044 123.77590361447074,120.704058131887 125.27951807231875,119.83102540060645 125.53975903621176,119.58158648967219 125.30843373492826,119.22524442693975 127.0,116.85554692271398 126.88433734938735,116.3388407020393 126.52289156633196,116.0181255487696 124.90361445781309,115.83995014998072 122.8361445782939,114.77089305383561 121.41927710844902,113.57710310033872 119.87228915659944,111.58149147091899 118.81686746992636,111.1360386104061 116.38795180723537,111.15385675171274 114.79759036150062,111.6883999491256 113.87228915665764,112.20512312349456 111.89156626508338,114.4501743526198 111.18313253013184,114.85998145319172 107.68433734943392,114.52144523788593 106.64337349397829,114.66398690070491 105.05301204824354,115.57268663193099 101.8867469879333,118.01367471279809 100.20963855419541,118.8332671232638 98.46024096390465,118.76199840616027 96.75421686744085,117.83550182252657 94.64337349392008,117.15844279696466 92.72048192773946,117.3900686170382 90.5084337349399,116.9089991828514 87.8192771084141,117.0693558423227 82.15180722891819,118.86890146837686 74.80722891562618,121.7908872840053 73.1301204818883,122.75299138326955 73.0,122.53919103663065 74.57590361440089,121.59490231506061 84.58072289155098,117.78204991178063 84.97108433733229,117.63951138456468 85.02891566266771,117.92458829567477 87.47228915663436,117.10499063091993 90.10361445782473,116.87336434498138 92.74939759034896,117.3900686170382 94.672289156646,117.19407756315195 96.78313253010856,117.85331912159745 98.51807228912367,118.74418122126372 99.87710843374953,118.8332671232638 101.09156626509503,118.33438535085588 106.29638554214034,114.6996222940943 107.49638554221019,114.4679920773051 110.90843373496318,114.77089305383561 111.80481927713845,114.30763247470895 113.38072289159754,112.59711875783978 114.71084337343927,111.65276379867282 116.33012048189994,111.1004023211135 118.8024096385343,110.97567523793259 119.82891566265607,111.45676481112605 122.8361445782939,114.71743998739112 124.75903614464914,115.73304480321531 126.60963855421869,116.0181255487696 126.95662650605664,116.85554692271398 125.5253012048197,118.53037482801301 125.1638554216479,119.31433002659469 125.39518072287319,119.51031814877933 124.52771084336564,120.2408169440605 120.33493975905003,121.55926865526999 116.64819277107017,124.6949964309897 112.03614457830554,127.15364355743804" stroke="#4dd2ff" stroke-linecap="round" stroke-linejoin="round" stroke-width="0.5"><title>2024-11-03 10.0km</title><desc>1730623436000</desc></polyline><polyline fill="none" points="153.75276838400168,103.19959384238246 153.48723140452057,102.94928793491272 153.44929755027988,102.79793952795444 153.06047554459656,102.52434693580653 152.88503146884614,101.93640851125019 151.7849496966228,100.35301288176925 151.61424735264154,99.86401223577559 151.5857969619683,99.19453878523564 151.7090819881996,98.5716288055446 151.6047638890741,98.42608789652877 151.6047638890741,98.16411312040509 151.82762528260355,97.20352640197234 151.92245991813252,97.0288721542347 152.0315197489981,97.0288721542347 152.38714963226812,95.18914117284294 153.3734298418567,93.76271771868778 154.00408016817528,93.023289274548 154.06572268126183,93.0 155.45979182366864,94.23431558776065 155.63997763118823,94.47884594607967 156.26588622573763,96.04497438691396 155.47875875077443,96.58058993656596 155.05200289087952,97.16859560453668 154.74853205715772,98.20486484849971 154.74853205715772,98.81613651441512 155.5925603134092,100.41704830255912 155.87232248825603,100.70811729351408 156.13785946776625,101.40085421594267 156.39391298370901,101.54056462252265 156.86808616138296,102.07029612821862 158.15783720472245,102.966751181164 158.73632848149282,103.86318907653549 159.025574119878,104.49184957352554 159.0777331694262,105.09139755740762 159.35749534424394,105.81899402655472 159.24369378160918,106.29047050414374 159.9217614256777,106.70955672274067 160.39593460338074,106.72119795307299 160.8321739268722,106.95402195215138 162.90905244511669,108.43242734393789 164.01861768090748,109.3404012302999 164.19880348842707,109.32876065080563 164.51175778571633,109.03774522341337 164.79626169230323,108.93879956632372 165.50277972707408,109.04938587521974 166.1239465898252,109.28801859979649 166.8257228928269,109.86422431411484 167.89261254260782,111.01661448362574 168.09650700900238,111.13301595492521 168.1296991314448,111.26105723937872 168.4142030380608,111.4822186337733 168.5232628689264,111.67427899779432 168.94053526528296,111.97109801185798 169.2914234167838,112.35521394479656 169.71343754490954,112.5589105103063 169.77982178979437,112.75096646101156 170.10225955062197,113.08851743647392 170.1686437954777,113.02449933486787 170.14019340483355,113.14671563474258 170.28718708991073,113.3271295900413 171.8661837716354,114.90426717004084 171.86144203983713,115.55023808832993 171.78083259961568,115.82957410600284 171.5437460107787,116.37078290208228 170.8656783666811,117.4182660427141 172.61063566058874,119.76919852090577 172.66753644193523,120.24635358839078 172.53950968393474,121.15409859898136 172.6153773923579,121.50322661449172 172.55373487927136,122.09673827304869 172.60589392881957,123.06845192191031 172.4731254390499,123.28373904652835 172.2218136548763,124.43579928982581 171.54848774254788,125.55873985512153 171.55322947434615,125.77401554382595 171.23079171351856,125.85547095204674 170.9368043433642,126.13474556297297 170.4199555796513,126.43729118082774 170.1876107226126,126.46056383978794 169.76559659445775,126.76310735513471 169.2392643672356,126.89110594697195 168.987952583062,127.04237655955876 168.15814952211804,127.16455631340796 167.47059841448208,127.15292016008607 166.90633233301924,127.04237655955876 165.9485025140748,126.35001860680495 165.05705694001517,125.23291531081486 164.72513571564923,125.04091050112402 164.16561136598466,124.38925195004776 163.8716239958303,124.33106771033636 163.61557047988754,124.13905920693651 163.14613903398276,124.06341927756512 162.5154887076351,123.54557340613974 162.24995172812487,123.44083983778182 160.4575771164964,123.74340284124992 159.84589371728362,123.73176583875102 157.10517275024904,124.2205174559349 155.92448153780424,124.61035140233435 155.27486428437987,124.732537494383 154.47351161408005,125.0700021895027 153.36868811008753,125.32600826883936 152.27808980140253,125.75074254406354 151.85133394147852,126.00092668616708 152.29231499673915,126.78056172913784 152.24015594719094,127.17037438899206 152.30654019204667,127.44382312663947 152.0315197489981,127.68236221240295 151.43406154512195,128.5259663169636 151.48622059467016,128.93321803857543 150.17750262425398,130.91706512797828 149.98783335316693,131.4930050142757 148.82136733608786,133.4418400455943 148.42306186680798,134.32024368597558 147.7924115404894,135.4254964156862 147.66438478251803,135.50111801887033 147.55058321988326,135.82105422166933 147.17598640947836,136.2747781852995 146.85354864867986,138.10126359036803 147.02899272440118,139.22969355157693 147.97733907977818,141.2247378350221 148.16226661906694,141.3003500895502 148.26658471819246,141.50973723528296 148.5985059425584,141.75983732348686 149.1532885604538,142.61482057848116 150.0305089391768,143.4465240323916 150.2059530148981,143.4697882526998 150.0637010615901,143.4988685118551 150.25337033270625,143.5163166586899 150.533132507524,143.82456618301512 150.78444429166848,143.9234382429786 150.95514663564973,143.89435824697648 151.57157176663168,144.4236113532461 152.29705672850832,144.67951181292665 153.02254169038497,145.09243915708794 154.46876988231088,145.674020802242 154.8054328384751,145.88920418394628 154.78172417957103,145.97644040892555 154.42135256456095,145.92409869340918 152.98934956791345,145.49373126319915 152.33499058274901,145.3948625121884 151.73753237884375,145.07499159634972 151.32500171425636,144.66206409866936 150.2818207233504,143.99904614825573 149.3856334175216,143.2778580902086 148.16700835086522,141.84126497145553 147.67860997785465,141.10841105162763 148.41357840326964,142.07391461548468 149.7602302278974,143.47560430596786 150.89824585433234,144.32474034729603 151.60950562084327,144.7434867097909 152.9798661043751,145.3890466968296 156.99611291938345,146.4707759536468 157.71211441769265,146.732480898394 158.1862875953666,147.0 157.78798212611582,146.75574348950977 156.91076174739283,146.43588185074623 155.67316975363065,146.04622927214587 153.7859605064441,145.6274945359146 152.19748036121018,145.01101715151162 151.34396864136215,144.5806413462342 150.34346323643695,143.905990247531 149.07267912023235,142.77185662544434 147.61222573296982,140.95718580199173 147.2234037272865,140.2592167941075 146.9009659664589,139.41582372063203 146.7207801589102,138.63639870877523 146.69707150003524,137.77552618139453 146.8440651851124,136.91463785408268 147.14753601883422,136.11772038689742 150.54261597106233,130.06186861039532 151.50518752177595,128.59578114903707 152.40137482760474,127.58927393307386 153.0177999585867,127.08892126524006 154.5351541271957,126.11147274225368 155.1610627217451,125.82056150871358 156.2374358350935,125.42491933416386 157.01982157825842,125.2561885676514 160.68043850999675,123.91795753187762 161.88009664954734,123.63285120100409 162.64825719740475,123.74340284124992 164.29837985575432,124.40088878932511 164.87687113252468,124.82563144602682 166.64079535350902,126.5943814046841 167.15764411722193,126.94346890657471 167.80251963884803,127.15873823711445 168.45687862404156,127.21110089781723 169.24400609903387,127.0656489181747 169.81301391223678,126.78637985237583 171.24501690882607,125.80892502182905 171.6859979640867,125.42491933416386 172.06059477446252,124.91290685777494 172.41148292593425,123.89468361069157 172.6201191241271,119.61790443643622 172.81927185875247,117.62775986141787 172.68650336901192,116.73740466446907 172.11275382398162,114.38632009158391 171.19285785930697,112.05257741227615 171.7950577949523,113.5890195794309 172.31664829040528,115.77719872952366 172.47786717081908,116.14964457927636 172.54899314747308,116.2543944412173 172.74814588209847,116.23693614714648 172.93307342141634,116.3416858139426 173.30292849999387,115.58515518159766 173.2460277187056,115.48040382374893 172.5632183428097,115.13705050919452 172.4731254390499,115.02065898415822 171.76660740430816,114.77041622642355 171.4726200341538,114.55508999314407 170.10225955062197,113.15835526572482 170.17338552727597,112.99540016888568 170.08329262351617,113.05359848280568 169.6328281047172,112.71022738573447 168.83147543441737,111.96527804926518 168.80302504374413,111.86051859892177 168.13918259501224,111.37745810341221 167.28092914339504,110.30073907681071 166.13343005339266,109.31712006841553 165.77305843832437,109.1425109855154 164.81048688763985,108.9562605798128 164.47382393147564,109.06102652413756 164.15612790244631,109.34622151895746 164.0328428762441,109.33458094090383 161.23522112789215,107.2101270146668 160.80846526796813,107.02968950271679 160.48128577537136,106.69791548951252 159.97866220702417,106.72701856715139 159.19153473206097,106.26718782651005 159.33852841713815,105.91794627333002 159.15360087784939,105.51049450370192 158.98289853389724,104.44528241864464 159.32430322180153,104.05528067912746 159.80795986307203,103.92139873627457 160.00711259769741,103.76423248894571 159.9549535481492,103.28690954191188 159.8506354490528,103.08317265647929 158.7742623357044,102.3613548446483 159.2958528311574,101.55802839403987 158.94970641142572,101.37174782879083 158.6130434552906,101.99462056565972 158.42337418420357,102.11686564438787 157.6836640270194,101.86073273236252 157.28061682597036,101.53474336391082 156.88231135671958,100.73140273464378 156.95817906517186,100.49854780237365 157.17629872693215,100.33554866090708 157.01507984648924,99.88147663247582 156.9486956016044,99.09557233276064" stroke="red" stroke-linecap="round" stroke-linejoin="round" stroke-width="0.5"><title>2024-10-27 42.8km</title><desc>1729986801000</desc></polyline><polyline fill="none" points="53.572229299345054,185.23917360889027 54.02624203823507,184.56102438658127 57.27312101912685,182.76391245958803 60.740127388504334,179.7969299982651 63.79439490445657,179.01702663373726 65.18394904455636,178.2371187598037 65.47286624205299,177.89802697327104 65.25273885345086,177.71152612725564 65.44535031844862,177.33852366176143 66.91745222930331,175.38872125773923 66.6147770700627,174.72747752047144 64.95006369426847,174.49010718302452 62.94140127382707,173.33715960165136 61.703184713376686,172.37071065344207 61.648152866226155,172.01464876890532 60.14853503188351,170.3021475251735 59.11668789811665,169.8443464795564 56.310063694254495,169.99694700079272 55.05808917194372,170.60734735892038 52.66420382168144,172.99805549616576 51.89375796174863,173.45584583713207 48.495541401265655,173.1676076555159 47.174777070002165,173.5236664963013 43.157452229293995,176.45687737004482 41.3826751591987,177.32156897970708 39.89681528660003,177.27070492085477 36.18216560507426,175.71086446823028 34.311082802538294,175.91432294154947 31.69707006367389,175.42263110559725 29.014267515973188,175.72781935270177 25.89121019106824,176.9146559715591 24.198980891727842,177.27070492085477 17.51261146500474,180.08515401356271 15.366369426716119,181.27195229347853 15.297579617821611,181.54321900561627 14.705987261142582,181.916209844072 13.467770700633992,185.01877548558696 13.0,185.44261771078163 14.29324840765912,182.00098034538678 15.049936305731535,181.1363187328534 15.297579617821611,181.5940814534406 15.462675159214996,181.2380439161061 17.292484076460823,180.08515401356271 28.615286624233704,175.77868399344152 31.862165605125483,175.4904507757601 34.29732484079432,175.98214236448985 36.18216560507426,175.72781935270177 38.493503184756264,176.50774173585523 39.74547770700883,177.18593144671468 41.19006369425915,177.33852366176143 42.263184713432565,176.8977012362593 47.54624203819549,173.35411478456808 48.440509554115124,173.20151806180365 51.08203821652569,173.55757681296382 52.0726114649442,173.42193549479998 55.04433121019974,170.60734735892038 56.24127388535999,170.0817249934771 58.814012738876045,169.91216895480466 59.91464968159562,170.1665029329306 60.45121019106591,170.53952523332555 63.01019108283799,173.404980320498 65.01885350316297,174.38837691051594 66.83490445860662,174.7952975401131 67.0,175.4395860263612 65.43159235670464,177.4232970399462 65.25273885345086,177.81325389340054 65.52789808914531,177.99975459869893 63.890700636897236,179.084844496625 60.68509554141201,179.94951925954956 56.8466242038412,183.15385387386777 49.18343949044356,187.2905542524677 48.1515923566767,187.47704185506154 45.867770700657275,189.66401359223528 44.780891719739884,190.1556535204436 44.24433121015318,190.12174737600435 45.04229299357394,190.00307580341178 46.363057324895635,189.1893250648718 48.082802547723986,187.4431350374507 49.761273885320406,186.9006247958314 56.53019108279841,183.30643933782994 59.790828025492374,180.55987457853917 59.59821656049462,181.11936452816008 59.85961783438688,180.4751031716296 60.946496815246064,179.7799756252789 63.86318471340928,179.01702663373726 65.3765605094959,178.10148214745277 64.35847133753123,178.86443631755537 60.6163057325175,179.98342796084762 57.286878980870824,182.88259040065168 50.36662420380162,186.69718289277807 47.98649681528332,187.62962242905633 46.80331210192526,188.95198017485382 45.743949044612236,189.71487297824933 44.6157961783465,190.1556535204436 46.335541401291266,189.22323144364054 47.94522292993497,187.52790206554346 49.678726114623714,186.9006247958314 56.62649681523908,183.20471571435337 59.13044585986063,181.18718133406946 57.02547770697856,183.03517617144098 55.59464968153043,183.81505630444735" stroke="#4dd2ff" stroke-linecap="round" stroke-linejoin="round" stroke-width="0.5"><title>2024-10-13 16.0km</title><desc>1728810741000</desc></polyline><polyline fill="none" points="113.45530939649325,185.2534517453023 115.2841864018701,183.94867581891594 117.56684491981287,182.88112248714606 120.77081741794245,180.11900082837383 123.86478227656335,179.3225503298163 125.36363636370515,178.5260951261007 125.72116119175917,178.22106848286057 125.29488158901222,177.848257203892 125.37738731858553,177.5432290269964 126.90374331554631,175.5096902101941 126.64247517188778,174.73015886392386 124.96485867077718,174.4929092986422 123.4385026737582,173.79810459834698 121.99465240642894,172.52711112341785 120.12452253635274,170.35792124766158 118.32314744085306,169.8664593163121 116.35676088620676,170.12066398728348 115.0091673033312,170.7307532417326 112.08021390374051,173.54390686201805 108.46371275786078,173.28970864634903 107.43239113833988,173.49306725720817 103.8433919022209,176.06891644270218 101.505729564582,177.33987652568612 100.07563025213312,177.35682257915323 98.16424751724117,176.40784030304349 96.08785332314437,175.79777674085926 94.43773873185273,176.05197022730135 91.96256684494438,175.52663649372698 88.99236058059614,175.78083049140696 87.60351413296303,176.22143228528148 78.12910618796013,179.8987064803514 75.69518716580933,181.1357393086073 74.59511077165371,182.11857921769843 73.31627196335467,185.27039680416055 73.0,185.49068237531174 74.30634071817622,182.05079738497443 75.10389610391576,181.1357393086073 75.26890756312059,181.52548702634522 75.69518716580933,181.06795698174392 78.50038197101094,179.71230328931415 89.14362108486239,175.76388423978642 92.00381970976014,175.49274392447842 94.36898395727621,176.01807779012597 96.19786096259486,175.79777674085926 98.54927425517235,176.52646345287212 99.95187165780226,177.3059844122763 101.18945760128554,177.3907146797428 102.55080213904148,176.89927838712174 105.9197860963177,174.34039150044555 107.55614973267075,173.42528108770784 108.69747899164213,173.23886894572934 111.79144385032123,173.5269603291963 112.72650878533022,173.00161675586423 114.39037433167687,171.10358420461125 115.60045836522477,170.39181510789786 116.83804430870805,170.018982176407 119.684491978609,170.08677005884238 123.24598930485081,173.54390686201805 124.84110007644631,174.4081772098143 126.80748663103441,174.89962258352898 126.98624904511962,175.56052905444812 125.73491214675596,177.0517932903458 125.33613445382798,177.8652031935053 125.4048892284045,178.2041225380235 123.98854087095242,179.06836301003932 120.64705882361159,180.06816370310844 116.74178762419615,183.25391984923044 108.98624904511962,187.38851238934149 107.9686783804791,187.64268402352172 106.64858670748072,189.15075919803348 104.90221543167718,190.1335406836879 106.60733384266496,189.13381462688267 107.84491978609003,187.5918497349776 109.06875477469293,187.32073320595373 117.29182582127396,182.84723176668922 120.50954927428393,180.00038083955587 124.15355233015725,178.91585038813355 125.52864782279357,178.03466297224804 125.25362872425467,177.848257203892 125.47364400309743,177.35682257915323 126.94499618030386,175.56052905444812 126.79373567615403,174.86572985662497 125.01986249047332,174.5098557099991 122.99847211618908,173.45917417673627 120.35828877007589,170.52739046371426 119.38197097025113,170.03592915019544 118.02062643243698,169.96814124223602 115.82047364406753,170.32402737886878 114.48663101613056,171.08663736504968 112.90527119941544,172.88299050429487 111.66768525599036,173.5947464476485 108.42245989310322,173.28970864634903 106.90985485108104,173.73031858213653 108.1611917494447,173.2219223745633 111.8189457601984,173.47612071808544 112.52024446148425,173.10329631691275 114.50038197101094,171.03579683350108 115.46294881595531,170.39181510789786 116.98930481285788,169.93424727545062 119.36822001531255,169.88340630930907 120.454545454646,170.54433737359068 122.3109243697836,172.8321506502689 123.56226126814727,173.78115809748124 125.04736440029228,174.47596288511704 126.5324675324955,174.61153413348075 126.83498854091158,174.8318371212663 127.0,175.54358277512074 125.62490450730547,177.085685467624 125.32238349883119,177.79741922234825 125.5974025974283,178.03466297224804 123.76852559210965,179.10225468041608 120.67456073343055,179.88176074637158 117.37433155084727,182.81334103782137 109.12375859444728,187.26989879603207 108.10618792980677,187.50712587825547 107.55614973267075,187.9646340723848 108.13368983962573,187.45629153861955 108.84873949585017,187.37156759666686" stroke="#4dd2ff" stroke-linecap="round" stroke-linejoin="round" stroke-width="0.5"><title>2024-10-06 18.0km</title><desc>1728199446000</desc></polyline><polyline fill="none" points="172.92240233859047,185.5885285941622 174.94578793516848,184.12078533480235 177.1987775710877,182.95365326071624 180.08317831525346,180.35409702651668 184.05819824611535,179.20461807097308 185.4358224821044,178.35576604465314 185.57932500663446,178.21429020905634 185.1488174329279,177.70143911227933 186.81344671809347,175.4201133034221 186.5551421737764,174.6242932715395 184.80441137391608,174.3059639983112 182.80972628225572,173.28023144027975 181.41775179380784,172.05995365601848 179.73877225618344,170.06150485745457 178.57640180707676,169.60168076226546 177.42838161042891,169.72547970501182 176.6391177251935,169.51325287934742 174.45787935162662,170.27373085597355 172.1618389582727,172.8204178658052 171.3725750730955,173.29791654768633 170.89901674201246,173.42171223767218 167.91416423069313,172.99726941842528 166.86659580125706,173.13875050045317 164.29790061118547,174.69503301224904 161.98750996548915,176.4811996765784 160.32288068032358,177.29469380961382 158.7730534148286,177.27700920459756 155.44379484455567,175.77380965034536 154.23837363807252,175.66770083962183 153.01860217913054,175.95065749034984 150.72256178577663,175.31400422591832 149.78979537606938,175.29631937190425 146.7762423598906,175.80917923615198 142.5716183896875,177.33006301306887 134.82248206221266,180.42483388629626 133.10045176721178,181.43283027356665 133.0,181.75114342186134 133.21525378688239,181.02609575833776 134.87988307204796,180.00041219430568 146.96279564179713,175.49085264395399 148.8426787138451,175.27863451567828 149.6893436088576,175.45548297812638 151.00956683501136,175.17252533147985 152.70289662509458,175.63233121830854 154.69758171675494,175.38474361979752 157.09407387726242,176.09213560231728 158.94525644433452,177.01173986209324 160.3372309327824,176.9233166367776 166.3212862078217,172.94421397600672 167.25405261758715,172.7319920060836 170.9133669944713,173.06800997725804 171.8174328993773,172.50208451075014 174.21392505982658,170.0791903695499 175.99335636460455,169.42482494085561 177.50013287278125,169.51325287934742 178.71990433166502,169.2302832804562 180.34148285951233,170.06150485745457 181.46080255118432,171.4940241343429 181.2311985118431,171.74161858024308 183.09673133143224,173.51013766387769 184.84746213129256,174.3413339531253 185.95243157056393,174.51818359381286 186.56949242629344,175.2255799335544 186.89954823284643,175.20789506839355 185.22056869522203,177.648385443812 185.36407121975208,178.07281423112727 183.98644698382122,179.08082746941363 180.24103109230055,180.177254721566 176.32341217115754,183.50185286490887 168.14376826997614,187.81663970105 167.19665160781005,187.99347240467614 165.53202232258627,189.7617872187111 163.70954026049003,190.76971671952924 163.46558596869,190.71666797838407 164.06829657190247,190.575204570996 165.57507307996275,189.6203228513623 166.23518469306873,188.70080099697225 167.26840287010418,187.86968953548057 169.0191336699645,187.30382360373915 174.51528036146192,184.4037249857356 177.50013287278125,182.45850339524623 177.7010364071466,182.54692314191198 179.27956417750102,181.3444098268228 179.5522189742769,180.6547284348926 179.9970768004423,180.283360131245 180.8867924528895,179.78820086819178 183.90034546901006,179.06314308886067 185.3784214722691,178.01976070275123 185.16316768532852,177.80754638910003 185.2636194525985,177.48922431850224 186.84214722295292,175.49085264395399 186.7703959606588,174.8718822083174 186.33988838701043,174.571238442717 184.74701036408078,174.35901892719266 183.3550358756329,173.6693032909243 181.7334573478438,172.36060278845252 180.1118788201129,170.36215826086118 179.35131543979514,169.8492785387789 177.1413765612524,169.63705189993198 175.26149348926265,169.97307726359577 174.32872707943898,170.4152146771521 171.97528567636618,172.89115851352108 171.07121977151837,173.40402714583615 167.85676322085783,173.0503248409077 166.09168216848047,173.40402714583615 161.18389582785312,176.95868593356863 160.29418017546413,177.33006301306887 158.68695190007566,177.29469380961382 155.05633802816737,175.72075525500986 152.87509965454228,175.9683422621456 149.99069891043473,175.40242846275214 146.51793781557353,175.89760316169122 136.77411639655475,179.68209508513974 146.80494286475005,175.72075525500986 150.14855168754002,175.27863451567828 152.96120116935344,175.95065749034984 154.81238373636734,175.61464640428312 156.82141908060294,176.233613571967 159.0457082116045,177.29469380961382 160.4950837098295,177.18858614603232 166.4360882274923,173.1741207487794 167.19665160781005,172.99726941842528 171.0855700239772,173.28023144027975 172.0900876960368,172.64356609081733 173.75471698126057,170.82197987030668 174.7305341482861,170.14993239575415 175.99335636460455,169.72547970501182 178.69120382674737,169.51325287934742 179.7244220037246,169.90233514845022 181.87695987249026,172.37828801147407 183.55593941011466,173.68698834945098 184.73266011162195,174.2705940345768 186.7129949508817,174.64197821002745 187.0,175.26094965719676 185.69412702642148,176.65804662737355 185.1488174329279,177.82523092748306 185.2636194525985,178.14355223787425 184.7613606165396,178.5679795314063 183.21153335104464,179.29303986247396 180.25538134464296,180.07114923188055 176.48126494826283,183.28964681985963 174.70183364336845,184.24457150211674" stroke="#ffac00" stroke-linecap="round" stroke-linejoin="round" stroke-width="0.5"><title>2024-09-22 20.8km</title><desc>1726992504000</desc></polyline><polyline fill="none" points="52.359809372457676,245.3651907407475 53.53216838766821,244.4490517834929 53.98967434465885,244.39619743016374 56.34868943609763,242.95150405686582 59.92295472603291,239.90350455991575 63.03971405880293,239.0578050925833 64.78395552025177,238.17686272170977 65.04130262113176,237.91257893081638 64.6266878474853,237.5601997678168 64.69817315333057,237.2606767827383 67.0,234.15969532213057 64.48371723591117,234.14207591328886 62.96822875295766,233.40205874123785 60.75218427326763,231.56961845170008 59.351072279619984,229.82525399503356 58.4932486100588,229.34951446625928 55.10484511515824,229.5785744409368 52.73153296264354,231.12912442571542 51.34471803018823,232.78537477990903 50.35822081018705,233.1906245458522 47.38443208899116,232.7501356145076 46.06910246232292,233.01442913942446 40.679110405093525,236.69686707457004 39.60683081811294,237.10210553155048 37.81969817326171,236.83781971425924 36.904686258989386,236.15067425706366 34.531374106474686,235.28733288202784 32.50119142176118,235.65733697963879 30.556791104085278,235.04066294098448 29.241461477417033,234.9878050400148 25.56711675936822,235.78067146177636 15.13026211282704,239.81541110346734 13.157267672708258,240.92538460881042 13.0,240.66110600001412 14.401111993705854,239.74493629843346 19.247815726790577,237.82448422312154 24.923749007226434,235.72781383981055 24.938046068302356,235.9744825716043 26.982525814149994,235.304952146922 30.499602859432343,235.0230436428683 32.50119142176118,235.56924085451465 34.803018268430606,235.39304843812715 35.77521842735587,235.60447931116505 37.948371723585296,236.80258156760829 39.664019062765874,236.99639126444526 40.79348689439939,236.573533398594 45.96902303415118,232.89109222308616 47.127084988111164,232.69727684966347 49.92930897540646,233.10252687038155 50.78713264496764,232.94395091483602 51.40190627484117,232.62679846558603 54.06115965056233,229.93097367105656 55.66243050037883,229.40237449359847 58.207307386852335,229.31427443686698 58.95075456716586,229.4552345010743 59.60841938049998,229.9838334791275 61.55281969817588,232.32726493787777 62.82525814138353,233.33158071155776 64.22637013508938,234.00112056267972 65.4416203336441,234.17731472874584 66.07069102465175,234.9173278076778 66.41382049245294,234.81161189278646 66.41382049245294,235.14637868315913 66.07069102465175,235.28733288202784 64.76965845911764,237.2959148142545 64.65528196986998,237.59543772399775 64.91262907063356,237.75400841709052 63.39714058779646,238.81114178683492 59.89436060364824,239.76255500303523 55.419380460632965,243.42719742150803 53.6179507545894,244.18477981774777 47.75615567906061,247.44409924342472 46.783955520251766,247.63789422780974 45.16838760924293,249.36441953673784 43.32406671962235,250.40384798920422 45.12549642584054,249.2763320254744 46.669579031004105,247.6026587960223 48.027799841191154,247.23268622758042 56.277204130310565,242.77532091960893 59.75138999207411,239.76255500303523 63.23987291502999,238.7935229626455 64.61239078629296,237.9478167983907 64.86973788717296,237.71877050079638 64.6266878474853,237.54258078645216 64.8411437649047,237.0316293623473 66.35663224785822,235.0230436428683 66.09928514692001,234.37112805563083 64.32644956320291,234.08921767341963 62.56791104050353,233.20824407433975 60.80937251786236,231.62247764176573 59.50833995232824,229.93097367105656 58.893566322512925,229.54333446918463 57.80698967439821,229.31427443686698 55.70532168383943,229.4552345010743 53.803812549682334,230.24813222057128 51.60206513106823,232.5739396542922 50.57267672754824,233.12014640984125 47.27005559968529,232.76775519832154 46.06910246232292,232.99680958659155 39.907069102453534,237.06686745138722 38.46306592534529,237.0316293623473 36.66163621930173,236.11543593773968 34.331215250247624,235.3754291843361 32.37251787137939,235.65733697963879 30.428117553703487,235.12875939829974 29.413026211375836,235.14637868315913 27.068308181129396,235.4282869391318 25.152501985721756,236.02734010049608 25.08101667993469,235.71019462810364 26.324861000815872,235.199236524335 30.027799841191154,234.82923121744534 30.385226370184682,235.12875939829974 32.44400317710824,235.62209853623062 34.445591739495285,235.3754291843361 36.461477363016456,236.0097209264204 38.36298649723176,236.96115315766656 39.56393963471055,237.04924840795866 40.80778395553352,236.573533398594 45.38284352666233,233.40205874123785 47.027005559939425,235.9744825716043 47.34154090547236,235.9921017501474 47.77045274025295,236.76734341210977 48.85702938842587,236.99639126444526 49.31453534553293,237.8773410543654 50.83002382842824,239.4277992373536 50.972994440060575,240.2206405447505 51.74503574264236,240.8372917945817 51.17315329628764,241.26013679806783 52.188244638673496,244.99521226716752 47.64177918981295,247.49695244753093 46.769658459175844,247.67312965076417 44.43923749012174,249.8753260103258 42.823669579054695,250.4919347919058 42.866560762457084,250.68572556314757 44.15329626691528,250.22767421760364 46.29785544081824,248.5540123457904 44.739475774462335,250.016265399463 42.76648133440176,250.65049089740205 42.809372517920565,250.43908271689725 43.81016679905588,250.1924394367088 45.19698173151119,249.25871451661806 46.769658459175844,247.54980563174468 47.69896743452409,247.40886376288836 51.73073868150823,245.27710071652837" stroke="#4dd2ff" stroke-linecap="round" stroke-linejoin="round" stroke-width="0.5"><title>2024-08-22 19.8km</title><desc>1724317734000</desc></polyline><polyline fill="none" points="112.4002134471666,239.24272913216555 112.63073639280628,238.65091663991916 116.76093916757964,236.54404907474236 121.89007470663637,232.11718313932943 126.32764140889049,231.02820551967307 127.0,230.64942921949842 126.82710779085755,230.43636721599614 121.65955176099669,232.02248968320782 116.81856990396045,236.18895671493374 114.43649946642108,237.5383041207533 113.49519743863493,237.70401278481586 106.6371398079209,241.7519934429729 104.0629669156624,242.60418881234364 101.8537886873819,244.90036270157725 99.6830309497891,246.22597612036043 97.7427961579524,246.22597612036043 97.56990394880995,245.68152888088662 96.18676627532113,245.58684224376339 95.26467449311167,246.79409330131602 94.28495197440498,247.26752297657367 93.05549626459833,246.95979382298538 89.07897545362357,247.19650860116235 83.54642475990113,248.26172142161522 79.55069370334968,248.6404623062699 77.59124866593629,249.0665448912623 76.57310565642547,249.63465350540355 75.97758804692421,249.27958582233987 73.0,249.13755856174976 73.32657417282462,248.7114761373523 76.5538954109652,249.01920242940832 76.57310565642547,249.5873111863184 77.41835645679384,248.995531194043 79.76200640341267,248.42742065234052 88.57950907154009,247.40955164715706 89.13660619000439,247.10182272559905 92.70971184642985,246.8414363224001 94.13127001060639,247.14916566926695 95.26467449311167,246.6283926339238 96.28281750262249,245.44481219891168 97.64674493065104,245.6105139075371 97.85805763071403,246.10761815868318 99.91355389542878,245.94191688740102 101.7001067235833,244.94770619855262 104.0629669156624,242.48582857495057 105.54215581645258,242.13074741646415 116.10779082181398,236.5677218749479 121.29455709725153,232.09350977974827 126.76947705447674,230.3653464945819 121.50586979731452,232.11718313932943 116.33831376733724,236.40201221119787 105.50373532553203,242.2727799602144 103.87086446105968,242.6988769487507 102.37246531480923,244.42692707690003 99.31803628604393,246.36800557625247 102.02668089652434,244.68731681768259 103.77481323364191,242.62786085088737 106.31056563497987,241.77566558864783 111.68943436502013,238.9349868682766 113.3799359658733,237.7276854391821 116.29989327653311,236.54404907474236 121.17929562437348,232.28289657294226 126.34685165423434,230.60208212849102 121.52508004265837,232.09350977974827 116.54962646740023,236.378339390154 113.74493062961847,237.89339393662522 113.26467449311167,237.7750307390379 111.43970117392018,239.12436678244558 105.21558164351154,242.41481239678978 103.9284951974405,242.65153288652073 105.73425827117171,241.98871476562636 105.69583778013475,241.60996050661197 107.63607257208787,239.95290166826453 107.86659551761113,238.84029683977133" stroke="#4dd2ff" stroke-linecap="round" stroke-linejoin="round" stroke-width="0.5"><title>2024-07-03 11.2km</title><desc>1719998343000</desc></polyline><polyline fill="none" points="168.81777277833316,240.22484225567314 169.30371203599498,239.5012750823662 174.81102362193633,236.53212699836877 179.3667041619774,232.5399251257768 184.63104611914605,231.04282872502517 186.47356580419,229.94495085529343 187.0,229.49581724942254 186.7367829021532,229.32115390602848 184.42857142863795,230.79331156043918 179.30596175487153,232.29040984302992 174.12260967376642,236.6818330068636 163.47244094486814,242.39552795312193 160.9010123735061,243.2937357822957 159.22047244093847,245.23983880481683 156.50731158605777,246.98632527598238 154.48256467934698,247.06117435282795 154.28008998872247,246.48733070904564 152.76152980874758,246.4374311833817 151.7289088864345,247.659965951927 150.65579302585684,248.13400802054093 148.93475815525744,247.80966356956924 145.3307086613495,248.03420978435315 133.10123734525405,250.12996220964123 133.0,250.4044043415197 133.6884139481699,250.22975939241587 136.4218222721247,250.67884609397152 137.53543307073414,249.68087426647253 138.73003374575637,249.45632991404273 138.9527559055714,249.08208876222488 145.39145106857177,247.90946191860712 148.95500562433153,247.6849155627715 150.63554555678274,248.03420978435315 151.70866141736042,247.61006672104122 153.10573678289074,246.2627827446995 154.32058492675424,246.41248141579854 154.64454443193972,246.93642587572685 156.70978627668228,246.83662703755544 158.77502812142484,245.61408719912288 159.6051743532298,244.34163978019205 161.1237345332047,243.0442340151203 162.6220472441055,242.6949310143682 173.71766029240098,236.90639180784638 179.00224971887656,232.41516752362077 180.46006749151275,231.66662026412087 184.34758155234158,230.6436011112528 186.5343082115287,229.3461058216053 183.96287964005023,230.96797360856726 179.48818897653837,232.16565208409156 174.06186726654414,236.75668596872129 163.41169853764586,242.52027928356256 160.96175478061195,243.41848654818023 159.3622047243407,245.26478871973814 157.6614173228154,246.5621799740038 155.59617547795642,247.16097307806194 158.410573678324,245.8386358970747 161.18447694042698,243.06918420590227 162.6220472441055,242.76978170911025 174.64904386946,236.3325188114104 178.31383577059023,232.98905184435716 173.9201349831419,236.83153890240646 165.71991001127753,241.1480103378708" stroke="#4dd2ff" stroke-linecap="round" stroke-linejoin="round" stroke-width="0.5"><title>2024-06-26 10.0km</title><desc>1719394224000</desc></polyline></svg>