<?xml version="1.0" encoding="utf-8" ?>
<svg baseProfile="full" height="300mm" version="1.1" viewBox="0,0,200,300" width="200mm" xmlns="http://www.w3.org/2000/svg" xmlns:ev="http://www.w3.org/2001/xml-events" xmlns:xlink="http://www.w3.org/1999/xlink"><defs /><rect fill="#222222" height="300" width="200" x="0" y="0" /><text fill="#FFFFFF" style="font-size:12px; font-family:Arial; font-weight:bold;" x="10" y="20">Over 10km Runs</text><text fill="#FFFFFF" style="font-size:4px; font-family:Arial" x="10" y="280">Runner</text><text fill="#FFFFFF" style="font-size:9px; font-family:Arial" x="10" y="290">jianbo</text><text fill="#FFFFFF" style="font-size:4px; font-family:Arial" x="65" y="280">SPECIAL TRACKS</text><rect fill="yellow" height="2.6" width="2.6" x="65" y="283" /><text fill="#FFFFFF" style="font-size:3px; font-family:Arial" x="70" y="285.5">Over 20.0 km</text><rect fill="red" height="2.6" width="2.6" x="65" y="287" /><text fill="#FFFFFF" style="font-size:3px; font-family:Arial" x="70" y="289.5">Over 40.0 km</text><text fill="#FFFFFF" style="font-size:4px; font-family:Arial" x="120" y="280">STATISTICS</text><text fill="#FFFFFF" style="font-size:3px; font-family:Arial" x="120" y="285">Number: 8</text><text fill="#FFFFFF" style="font-size:3px; font-family:Arial" x="120" y="290">Weekly: 1.0</text><text fill="#FFFFFF" style="font-size:3px; font-family:Arial" x="141" y="285">Total: 148.5 km</text><text fill="#FFFFFF" style="font-size:3px; font-family:Arial" x="141" y="290">Avg: 18.6 km</text><text fill="#FFFFFF" style="font-size:3px; font-family:Arial" x="167" y="285">Min: 10.0 km</text><text fill="#FFFFFF" style="font-size:3px; font-family:Arial" x="167" y="290">Max: 42.8 km</text><polyline fill="none" points="52.238554216804914,69.02432476208196 53.14939759031404,67.02893059940834 53.6554216867662,66.49444525082072 54.089156626490876,66.17375307445764 54.13253012049245,66.44099660520442 56.98072289157426,64.6593635504396 59.872289156599436,61.89778806192044 63.775903614470735,60.704058131886995 65.27951807231875,59.83102540060645 65.53975903621176,59.58158648967219 65.30843373492826,59.22524442693975 67.0,56.855546922713984 66.88433734938735,56.338840702039306 66.52289156633196,56.0181255487696 64.90361445781309,55.83995014998072 62.8361445782939,54.77089305383561 61.41927710844902,53.57710310033872 59.872289156599436,51.58149147091899 58.816867469926365,51.1360386104061 56.38795180723537,51.15385675171274 54.797590361500625,51.688399949125596 53.872289156657644,52.20512312349456 51.891566265083384,54.4501743526198 51.18313253013184,54.85998145319172 47.68433734943392,54.52144523788593 46.64337349397829,54.66398690070491 45.053012048243545,55.57268663193099 41.88674698793329,58.01367471279809 40.20963855419541,58.833267123263795 38.46024096390465,58.761998406160274 36.754216867440846,57.83550182252657 34.64337349392008,57.158442796964664 32.720481927739456,57.390068617038196 30.5084337349399,56.9089991828514 27.8192771084141,57.06935584232269 22.151807228918187,58.86890146837686 14.807228915626183,61.790887284005294 13.130120481888298,62.752991383269546 13.0,62.539191036630655 14.575903614400886,61.59490231506061 24.580722891550977,57.78204991178063 24.971084337332286,57.639511384564685 25.028915662667714,57.924588295674766 27.47228915663436,57.10499063091993 30.103614457824733,56.87336434498138 32.74939759034896,57.390068617038196 34.672289156646,57.19407756315195 36.78313253010856,57.85331912159745 38.518072289123666,58.744181221263716 39.87710843374953,58.833267123263795 41.091566265095025,58.33438535085588 46.29638554214034,54.6996222940943 47.49638554221019,54.4679920773051 50.90843373496318,54.77089305383561 51.80481927713845,54.30763247470895 53.38072289159754,52.59711875783978 54.710843373439275,51.65276379867282 56.33012048189994,51.100402321113506 58.8024096385343,50.97567523793259 59.82891566265607,51.45676481112605 62.8361445782939,54.71743998739112 64.75903614464914,55.73304480321531 66.60963855421869,56.0181255487696 66.95662650605664,56.855546922713984 65.5253012048197,58.53037482801301 65.1638554216479,59.31433002659469 65.39518072287319,59.510318148779334 64.52771084336564,60.2408169440605 60.33493975905003,61.55926865526999 56.64819277107017,64.6949964309897 52.03614457830554,67.15364355743804" stroke="#4dd2ff" stroke-linecap="round" stroke-linejoin="round" stroke-width="0.5"><title>2024-11-03 10.0km</title><desc>1730623436000</desc></polyline><polyline fill="none" points="153.75276838400168,43.199593842382455 153.48723140452057,42.94928793491272 153.44929755027988,42.79793952795444 153.06047554459656,42.524346935806534 152.88503146884614,41.93640851125019 151.7849496966228,40.353012881769246 151.61424735264154,39.86401223577559 151.5857969619683,39.194538785235636 151.7090819881996,38.571628805544606 151.6047638890741,38.42608789652877 151.6047638890741,38.16411312040509 151.82762528260355,37.20352640197234 151.92245991813252,37.028872154234705 152.0315197489981,37.028872154234705 152.38714963226812,35.18914117284294 153.3734298418567,33.76271771868778 154.00408016817528,33.023289274548006 154.06572268126183,33.0 155.45979182366864,34.23431558776065 155.63997763118823,34.47884594607967 156.26588622573763,36.044974386913964 155.47875875077443,36.58058993656596 155.05200289087952,37.16859560453668 154.74853205715772,38.20486484849971 154.74853205715772,38.81613651441512 155.5925603134092,40.417048302559124 155.87232248825603,40.70811729351408 156.13785946776625,41.40085421594267 156.39391298370901,41.54056462252265 156.86808616138296,42.070296128218615 158.15783720472245,42.966751181164 158.73632848149282,43.86318907653549 159.025574119878,44.49184957352554 159.0777331694262,45.09139755740762 159.35749534424394,45.81899402655472 159.24369378160918,46.29047050414374 159.9217614256777,46.70955672274067 160.39593460338074,46.72119795307299 160.8321739268722,46.95402195215138 162.90905244511669,48.43242734393789 164.01861768090748,49.3404012302999 164.19880348842707,49.328760650805634 164.51175778571633,49.03774522341337 164.79626169230323,48.93879956632372 165.50277972707408,49.04938587521974 166.1239465898252,49.28801859979649 166.8257228928269,49.864224314114836 167.89261254260782,51.016614483625744 168.09650700900238,51.13301595492521 168.1296991314448,51.261057239378715 168.4142030380608,51.4822186337733 168.5232628689264,51.67427899779432 168.94053526528296,51.971098011857976 169.2914234167838,52.35521394479656 169.71343754490954,52.558910510306305 169.77982178979437,52.75096646101156 170.10225955062197,53.08851743647392 170.1686437954777,53.02449933486787 170.14019340483355,53.14671563474258 170.28718708991073,53.327129590041295 171.8661837716354,54.90426717004084 171.86144203983713,55.550238088329934 171.78083259961568,55.82957410600284 171.5437460107787,56.37078290208228 170.8656783666811,57.418266042714095 172.61063566058874,59.769198520905775 172.66753644193523,60.246353588390775 172.53950968393474,61.15409859898136 172.6153773923579,61.50322661449172 172.55373487927136,62.096738273048686 172.60589392881957,63.06845192191031 172.4731254390499,63.28373904652835 172.2218136548763,64.43579928982581 171.54848774254788,65.55873985512153 171.55322947434615,65.77401554382595 171.23079171351856,65.85547095204674 170.9368043433642,66.13474556297297 170.4199555796513,66.43729118082774 170.1876107226126,66.46056383978794 169.76559659445775,66.76310735513471 169.2392643672356,66.89110594697195 168.987952583062,67.04237655955876 168.15814952211804,67.16455631340796 167.47059841448208,67.15292016008607 166.90633233301924,67.04237655955876 165.9485025140748,66.35001860680495 165.05705694001517,65.23291531081486 164.72513571564923,65.04091050112402 164.16561136598466,64.38925195004776 163.8716239958303,64.33106771033636 163.61557047988754,64.13905920693651 163.14613903398276,64.06341927756512 162.5154887076351,63.54557340613974 162.24995172812487,63.44083983778182 160.4575771164964,63.74340284124992 159.84589371728362,63.731765838751016 157.10517275024904,64.2205174559349 155.92448153780424,64.61035140233435 155.27486428437987,64.732537494383 154.47351161408005,65.0700021895027 153.36868811008753,65.32600826883936 152.27808980140253,65.75074254406354 151.85133394147852,66.00092668616708 152.29231499673915,66.78056172913784 152.24015594719094,67.17037438899206 152.30654019204667,67.44382312663947 152.0315197489981,67.68236221240295 151.43406154512195,68.5259663169636 151.48622059467016,68.93321803857543 150.17750262425398,70.91706512797828 149.98783335316693,71.4930050142757 148.82136733608786,73.44184004559429 148.42306186680798,74.32024368597558 147.7924115404894,75.42549641568621 147.66438478251803,75.50111801887033 147.55058321988326,75.82105422166933 147.17598640947836,76.27477818529951 146.85354864867986,78.10126359036803 147.02899272440118,79.22969355157693 147.97733907977818,81.2247378350221 148.16226661906694,81.3003500895502 148.26658471819246,81.50973723528296 148.5985059425584,81.75983732348686 149.1532885604538,82.61482057848116 150.0305089391768,83.44652403239161 150.2059530148981,83.4697882526998 150.0637010615901,83.49886851185511 150.25337033270625,83.5163166586899 150.533132507524,83.82456618301512 150.78444429166848,83.92343824297859 150.95514663564973,83.89435824697648 151.57157176663168,84.42361135324609 152.29705672850832,84.67951181292665 153.02254169038497,85.09243915708794 154.46876988231088,85.67402080224201 154.8054328384751,85.88920418394628 154.78172417957103,85.97644040892555 154.42135256456095,85.92409869340918 152.98934956791345,85.49373126319915 152.33499058274901,85.39486251218841 151.73753237884375,85.07499159634972 151.32500171425636,84.66206409866936 150.2818207233504,83.99904614825573 149.3856334175216,83.27785809020861 148.16700835086522,81.84126497145553 147.67860997785465,81.10841105162763 148.41357840326964,82.07391461548468 149.7602302278974,83.47560430596786 150.89824585433234,84.32474034729603 151.60950562084327,84.74348670979089 152.9798661043751,85.38904669682961 156.99611291938345,86.47077595364681 157.71211441769265,86.73248089839399 158.1862875953666,87.0 157.78798212611582,86.75574348950977 156.91076174739283,86.43588185074623 155.67316975363065,86.04622927214587 153.7859605064441,85.6274945359146 152.19748036121018,85.01101715151162 151.34396864136215,84.58064134623419 150.34346323643695,83.90599024753101 149.07267912023235,82.77185662544434 147.61222573296982,80.95718580199173 147.2234037272865,80.25921679410749 146.9009659664589,79.41582372063203 146.7207801589102,78.63639870877523 146.69707150003524,77.77552618139453 146.8440651851124,76.91463785408268 147.14753601883422,76.11772038689742 150.54261597106233,70.06186861039532 151.50518752177595,68.59578114903707 152.40137482760474,67.58927393307386 153.0177999585867,67.08892126524006 154.5351541271957,66.11147274225368 155.1610627217451,65.82056150871358 156.2374358350935,65.42491933416386 157.01982157825842,65.2561885676514 160.68043850999675,63.91795753187762 161.88009664954734,63.63285120100409 162.64825719740475,63.74340284124992 164.29837985575432,64.40088878932511 164.87687113252468,64.82563144602682 166.64079535350902,66.5943814046841 167.15764411722193,66.94346890657471 167.80251963884803,67.15873823711445 168.45687862404156,67.21110089781723 169.24400609903387,67.0656489181747 169.81301391223678,66.78637985237583 171.24501690882607,65.80892502182905 171.6859979640867,65.42491933416386 172.06059477446252,64.91290685777494 172.41148292593425,63.89468361069157 172.6201191241271,59.61790443643622 172.81927185875247,57.62775986141787 172.68650336901192,56.73740466446907 172.11275382398162,54.38632009158391 171.19285785930697,52.05257741227615 171.7950577949523,53.5890195794309 172.31664829040528,55.77719872952366 172.47786717081908,56.149644579276355 172.54899314747308,56.2543944412173 172.74814588209847,56.23693614714648 172.93307342141634,56.341685813942604 173.30292849999387,55.585155181597656 173.2460277187056,55.48040382374893 172.5632183428097,55.13705050919452 172.4731254390499,55.02065898415822 171.76660740430816,54.77041622642355 171.4726200341538,54.555089993144065 170.10225955062197,53.15835526572482 170.17338552727597,52.99540016888568 170.08329262351617,53.05359848280568 169.6328281047172,52.71022738573447 168.83147543441737,51.96527804926518 168.80302504374413,51.86051859892177 168.13918259501224,51.37745810341221 167.28092914339504,50.300739076810714 166.13343005339266,49.317120068415534 165.77305843832437,49.1425109855154 164.81048688763985,48.956260579812806 164.47382393147564,49.06102652413756 164.15612790244631,49.346221518957464 164.0328428762441,49.334580940903834 161.23522112789215,47.210127014666796 160.80846526796813,47.02968950271679 160.48128577537136,46.697915489512525 159.97866220702417,46.72701856715139 159.19153473206097,46.26718782651005 159.33852841713815,45.91794627333002 159.15360087784939,45.51049450370192 158.98289853389724,44.44528241864464 159.32430322180153,44.05528067912746 159.80795986307203,43.92139873627457 160.00711259769741,43.76423248894571 159.9549535481492,43.28690954191188 159.8506354490528,43.08317265647929 158.7742623357044,42.361354844648304 159.2958528311574,41.558028394039866 158.94970641142572,41.37174782879083 158.6130434552906,41.994620565659716 158.42337418420357,42.11686564438787 157.6836640270194,41.86073273236252 157.28061682597036,41.53474336391082 156.88231135671958,40.73140273464378 156.95817906517186,40.49854780237365 157.17629872693215,40.33554866090708 157.01507984648924,39.881476632475824 156.9486956016044,39.09557233276064" stroke="red" stroke-linecap="round" stroke-linejoin="round" stroke-width="0.5"><title>2024-10-27 42.8km</title><desc>1729986801000</desc></polyline><polyline fill="none" points="53.572229299345054,125.23917360889027 54.02624203823507,124.56102438658127 57.27312101912685,122.76391245958803 60.740127388504334,119.79692999826511 63.79439490445657,119.01702663373726 65.18394904455636,118.2371187598037 65.47286624205299,117.89802697327104 65.25273885345086,117.71152612725564 65.44535031844862,117.33852366176143 66.91745222930331,115.38872125773923 66.6147770700627,114.72747752047144 64.95006369426847,114.49010718302452 62.94140127382707,113.33715960165136 61.703184713376686,112.37071065344207 61.648152866226155,112.01464876890532 60.14853503188351,110.3021475251735 59.11668789811665,109.8443464795564 56.310063694254495,109.99694700079272 55.05808917194372,110.60734735892038 52.66420382168144,112.99805549616576 51.89375796174863,113.45584583713207 48.495541401265655,113.1676076555159 47.174777070002165,113.5236664963013 43.157452229293995,116.45687737004482 41.3826751591987,117.32156897970708 39.89681528660003,117.27070492085477 36.18216560507426,115.71086446823028 34.311082802538294,115.91432294154947 31.69707006367389,115.42263110559725 29.014267515973188,115.72781935270177 25.89121019106824,116.91465597155911 24.198980891727842,117.27070492085477 17.51261146500474,120.08515401356271 15.366369426716119,121.27195229347853 15.297579617821611,121.54321900561627 14.705987261142582,121.916209844072 13.467770700633992,125.01877548558696 13.0,125.44261771078163 14.29324840765912,122.00098034538678 15.049936305731535,121.1363187328534 15.297579617821611,121.5940814534406 15.462675159214996,121.23804391610611 17.292484076460823,120.08515401356271 28.615286624233704,115.77868399344152 31.862165605125483,115.49045077576011 34.29732484079432,115.98214236448985 36.18216560507426,115.72781935270177 38.493503184756264,116.50774173585523 39.74547770700883,117.18593144671468 41.19006369425915,117.33852366176143 42.263184713432565,116.89770123625931 47.54624203819549,113.35411478456808 48.440509554115124,113.20151806180365 51.08203821652569,113.55757681296382 52.0726114649442,113.42193549479998 55.04433121019974,110.60734735892038 56.24127388535999,110.08172499347711 58.814012738876045,109.91216895480466 59.91464968159562,110.1665029329306 60.45121019106591,110.53952523332555 63.01019108283799,113.404980320498 65.01885350316297,114.38837691051594 66.83490445860662,114.7952975401131 67.0,115.43958602636121 65.43159235670464,117.42329703994619 65.25273885345086,117.81325389340054 65.52789808914531,117.99975459869893 63.890700636897236,119.08484449662501 60.68509554141201,119.94951925954956 56.8466242038412,123.15385387386777 49.18343949044356,127.2905542524677 48.1515923566767,127.47704185506154 45.867770700657275,129.66401359223528 44.780891719739884,130.1556535204436 44.24433121015318,130.12174737600435 45.04229299357394,130.00307580341178 46.363057324895635,129.1893250648718 48.082802547723986,127.4431350374507 49.761273885320406,126.90062479583139 56.53019108279841,123.30643933782994 59.790828025492374,120.55987457853917 59.59821656049462,121.11936452816008 59.85961783438688,120.4751031716296 60.946496815246064,119.7799756252789 63.86318471340928,119.01702663373726 65.3765605094959,118.10148214745277 64.35847133753123,118.86443631755537 60.6163057325175,119.98342796084762 57.286878980870824,122.88259040065168 50.36662420380162,126.69718289277807 47.98649681528332,127.62962242905633 46.80331210192526,128.95198017485382 45.743949044612236,129.71487297824933 44.6157961783465,130.1556535204436 46.335541401291266,129.22323144364054 47.94522292993497,127.52790206554346 49.678726114623714,126.90062479583139 56.62649681523908,123.20471571435337 59.13044585986063,121.18718133406946 57.02547770697856,123.03517617144098 55.59464968153043,123.81505630444735" stroke="#4dd2ff" stroke-linecap="round" stroke-linejoin="round" stroke-width="0.5"><title>2024-10-13 16.0km</title><desc>1728810741000</desc></polyline><polyline fill="none" points="173.45530939649325,125.2534517453023 175.2841864018701,123.94867581891594 177.56684491981287,122.88112248714606 180.77081741794245,120.11900082837383 183.86478227656335,119.3225503298163 185.36363636370515,118.5260951261007 185.72116119175917,118.22106848286057 185.29488158901222,117.84825720389199 185.37738731858553,117.54322902699641 186.9037433155463,115.5096902101941 186.64247517188778,114.73015886392386 184.96485867077718,114.49290929864219 183.4385026737582,113.79810459834698 181.99465240642894,112.52711112341785 180.12452253635274,110.35792124766158 178.32314744085306,109.8664593163121 176.35676088620676,110.12066398728348 175.0091673033312,110.7307532417326 172.0802139037405,113.54390686201805 168.46371275786078,113.28970864634903 167.43239113833988,113.49306725720817 163.8433919022209,116.06891644270218 161.505729564582,117.33987652568612 160.07563025213312,117.35682257915323 158.16424751724117,116.40784030304349 156.08785332314437,115.79777674085926 154.43773873185273,116.05197022730135 151.96256684494438,115.52663649372698 148.99236058059614,115.78083049140696 147.60351413296303,116.22143228528148 138.12910618796013,119.8987064803514 135.69518716580933,121.1357393086073 134.5951107716537,122.11857921769843 133.31627196335467,125.27039680416055 133.0,125.49068237531174 134.30634071817622,122.05079738497443 135.10389610391576,121.1357393086073 135.2689075631206,121.52548702634522 135.69518716580933,121.06795698174392 138.50038197101094,119.71230328931415 149.1436210848624,115.76388423978642 152.00381970976014,115.49274392447842 154.3689839572762,116.01807779012597 156.19786096259486,115.79777674085926 158.54927425517235,116.52646345287212 159.95187165780226,117.3059844122763 161.18945760128554,117.39071467974281 162.55080213904148,116.89927838712174 165.9197860963177,114.34039150044555 167.55614973267075,113.42528108770784 168.69747899164213,113.23886894572934 171.79144385032123,113.5269603291963 172.72650878533022,113.00161675586423 174.39037433167687,111.10358420461125 175.60045836522477,110.39181510789786 176.83804430870805,110.01898217640701 179.684491978609,110.08677005884238 183.2459893048508,113.54390686201805 184.8411000764463,114.40817720981431 186.8074866310344,114.89962258352898 186.98624904511962,115.56052905444812 185.73491214675596,117.05179329034581 185.33613445382798,117.8652031935053 185.4048892284045,118.20412253802351 183.98854087095242,119.06836301003932 180.6470588236116,120.06816370310844 176.74178762419615,123.25391984923044 168.98624904511962,127.38851238934149 167.9686783804791,127.64268402352172 166.64858670748072,129.15075919803348 164.90221543167718,130.1335406836879 166.60733384266496,129.13381462688267 167.84491978609003,127.59184973497759 169.06875477469293,127.32073320595373 177.29182582127396,122.84723176668922 180.50954927428393,120.00038083955587 184.15355233015725,118.91585038813355 185.52864782279357,118.03466297224804 185.25362872425467,117.84825720389199 185.47364400309743,117.35682257915323 186.94499618030386,115.56052905444812 186.79373567615403,114.86572985662497 185.01986249047332,114.5098557099991 182.99847211618908,113.45917417673627 180.3582887700759,110.52739046371426 179.38197097025113,110.03592915019544 178.02062643243698,109.96814124223602 175.82047364406753,110.32402737886878 174.48663101613056,111.08663736504968 172.90527119941544,112.88299050429487 171.66768525599036,113.5947464476485 168.42245989310322,113.28970864634903 166.90985485108104,113.73031858213653 168.1611917494447,113.22192237456329 171.8189457601984,113.47612071808544 172.52024446148425,113.10329631691275 174.50038197101094,111.03579683350108 175.46294881595531,110.39181510789786 176.98930481285788,109.93424727545062 179.36822001531255,109.88340630930907 180.454545454646,110.54433737359068 182.3109243697836,112.83215065026889 183.56226126814727,113.78115809748124 185.04736440029228,114.47596288511704 186.5324675324955,114.61153413348075 186.83498854091158,114.83183712126629 187.0,115.54358277512074 185.62490450730547,117.08568546762399 185.3223834988312,117.79741922234825 185.5974025974283,118.03466297224804 183.76852559210965,119.10225468041608 180.67456073343055,119.88176074637158 177.37433155084727,122.81334103782137 169.12375859444728,127.26989879603207 168.10618792980677,127.50712587825547 167.55614973267075,127.9646340723848 168.13368983962573,127.45629153861955 168.84873949585017,127.37156759666686" stroke="#4dd2ff" stroke-linecap="round" stroke-linejoin="round" stroke-width="0.5"><title>2024-10-06 18.0km</title><desc>1728199446000</desc></polyline><polyline fill="none" points="52.92240233859047,185.5885285941622 54.94578793516848,184.12078533480235 57.1987775710877,182.95365326071624 60.08317831525346,180.35409702651668 64.05819824611535,179.20461807097308 65.43582248210441,178.35576604465314 65.57932500663446,178.21429020905634 65.1488174329279,177.70143911227933 66.81344671809347,175.4201133034221 66.5551421737764,174.6242932715395 64.80441137391608,174.3059639983112 62.809726282255724,173.28023144027975 61.41775179380784,172.05995365601848 59.73877225618344,170.06150485745457 58.57640180707676,169.60168076226546 57.428381610428914,169.72547970501182 56.6391177251935,169.51325287934742 54.457879351626616,170.27373085597355 52.16183895827271,172.8204178658052 51.372575073095504,173.29791654768633 50.89901674201246,173.42171223767218 47.91416423069313,172.99726941842528 46.86659580125706,173.13875050045317 44.29790061118547,174.69503301224904 41.98750996548915,176.4811996765784 40.32288068032358,177.29469380961382 38.77305341482861,177.27700920459756 35.44379484455567,175.77380965034536 34.23837363807252,175.66770083962183 33.01860217913054,175.95065749034984 30.722561785776634,175.31400422591832 29.789795376069378,175.29631937190425 26.776242359890603,175.80917923615198 22.5716183896875,177.33006301306887 14.822482062212657,180.42483388629626 13.10045176721178,181.43283027356665 13.0,181.75114342186134 13.215253786882386,181.02609575833776 14.87988307204796,180.00041219430568 26.96279564179713,175.49085264395399 28.84267871384509,175.27863451567828 29.689343608857598,175.45548297812638 31.009566835011356,175.17252533147985 32.70289662509458,175.63233121830854 34.69758171675494,175.38474361979752 37.09407387726242,176.09213560231728 38.94525644433452,177.01173986209324 40.337230932782404,176.9233166367776 46.321286207821686,172.94421397600672 47.25405261758715,172.7319920060836 50.91336699447129,173.06800997725804 51.81743289937731,172.50208451075014 54.21392505982658,170.0791903695499 55.99335636460455,169.42482494085561 57.50013287278125,169.51325287934742 58.71990433166502,169.2302832804562 60.341482859512325,170.06150485745457 61.460802551184315,171.4940241343429 61.231198511843104,171.74161858024308 63.09673133143224,173.51013766387769 64.84746213129256,174.3413339531253 65.95243157056393,174.51818359381286 66.56949242629344,175.2255799335544 66.89954823284643,175.20789506839355 65.22056869522203,177.648385443812 65.36407121975208,178.07281423112727 63.986446983821224,179.08082746941363 60.241031092300545,180.177254721566 56.32341217115754,183.50185286490887 48.143768269976135,187.81663970105 47.196651607810054,187.99347240467614 45.53202232258627,189.7617872187111 43.70954026049003,190.76971671952924 43.46558596868999,190.71666797838407 44.068296571902465,190.575204570996 45.57507307996275,189.6203228513623 46.23518469306873,188.70080099697225 47.26840287010418,187.86968953548057 49.0191336699645,187.30382360373915 54.51528036146192,184.4037249857356 57.50013287278125,182.45850339524623 57.7010364071466,182.54692314191198 59.279564177501015,181.3444098268228 59.55221897427691,180.6547284348926 59.9970768004423,180.283360131245 60.886792452889495,179.78820086819178 63.90034546901006,179.06314308886067 65.37842147226911,178.01976070275123 65.16316768532852,177.80754638910003 65.2636194525985,177.48922431850224 66.84214722295292,175.49085264395399 66.77039596065879,174.8718822083174 66.33988838701043,174.571238442717 64.74701036408078,174.35901892719266 63.35503587563289,173.6693032909243 61.733457347843796,172.36060278845252 60.111878820112906,170.36215826086118 59.351315439795144,169.8492785387789 57.1413765612524,169.63705189993198 55.26149348926265,169.97307726359577 54.32872707943898,170.4152146771521 51.975285676366184,172.89115851352108 51.07121977151837,173.40402714583615 47.85676322085783,173.0503248409077 46.091682168480475,173.40402714583615 41.18389582785312,176.95868593356863 40.294180175464135,177.33006301306887 38.686951900075655,177.29469380961382 35.056338028167374,175.72075525500986 32.87509965454228,175.9683422621456 29.99069891043473,175.40242846275214 26.517937815573532,175.89760316169122 16.774116396554746,179.68209508513974 26.804942864750046,175.72075525500986 30.14855168754002,175.27863451567828 32.961201169353444,175.95065749034984 34.81238373636734,175.61464640428312 36.821419080602936,176.233613571967 39.045708211604506,177.29469380961382 40.49508370982949,177.18858614603232 46.43608822749229,173.1741207487794 47.196651607810054,172.99726941842528 51.0855700239772,173.28023144027975 52.09008769603679,172.64356609081733 53.75471698126057,170.82197987030668 54.7305341482861,170.14993239575415 55.99335636460455,169.72547970501182 58.69120382674737,169.51325287934742 59.72442200372461,169.90233514845022 61.87695987249026,172.37828801147407 63.55593941011466,173.68698834945098 64.73266011162195,174.2705940345768 66.7129949508817,174.64197821002745 67.0,175.26094965719676 65.69412702642148,176.65804662737355 65.1488174329279,177.82523092748306 65.2636194525985,178.14355223787425 64.7613606165396,178.5679795314063 63.211533351044636,179.29303986247396 60.255381344642956,180.07114923188055 56.48126494826283,183.28964681985963 54.701833643368445,184.24457150211674" stroke="#ffac00" stroke-linecap="round" stroke-linejoin="round" stroke-width="0.5"><title>2024-09-22 20.8km</title><desc>1726992504000</desc></polyline><polyline fill="none" points="172.35980937245768,185.3651907407475 173.5321683876682,184.4490517834929 173.98967434465885,184.39619743016374 176.34868943609763,182.95150405686582 179.9229547260329,179.90350455991575 183.03971405880293,179.0578050925833 184.78395552025177,178.17686272170977 185.04130262113176,177.91257893081638 184.6266878474853,177.5601997678168 184.69817315333057,177.2606767827383 187.0,174.15969532213057 184.48371723591117,174.14207591328886 182.96822875295766,173.40205874123785 180.75218427326763,171.56961845170008 179.35107227961998,169.82525399503356 178.4932486100588,169.34951446625928 175.10484511515824,169.5785744409368 172.73153296264354,171.12912442571542 171.34471803018823,172.78537477990903 170.35822081018705,173.1906245458522 167.38443208899116,172.7501356145076 166.06910246232292,173.01442913942446 160.67911040509352,176.69686707457004 159.60683081811294,177.10210553155048 157.8196981732617,176.83781971425924 156.9046862589894,176.15067425706366 154.5313741064747,175.28733288202784 152.50119142176118,175.65733697963879 150.55679110408528,175.04066294098448 149.24146147741703,174.9878050400148 145.56711675936822,175.78067146177636 135.13026211282704,179.81541110346734 133.15726767270826,180.92538460881042 133.0,180.66110600001412 134.40111199370585,179.74493629843346 139.24781572679058,177.82448422312154 144.92374900722643,175.72781383981055 144.93804606830236,175.9744825716043 146.98252581415,175.304952146922 150.49960285943234,175.0230436428683 152.50119142176118,175.56924085451465 154.8030182684306,175.39304843812715 155.77521842735587,175.60447931116505 157.9483717235853,176.80258156760829 159.66401906276587,176.99639126444526 160.7934868943994,176.573533398594 165.96902303415118,172.89109222308616 167.12708498811116,172.69727684966347 169.92930897540646,173.10252687038155 170.78713264496764,172.94395091483602 171.40190627484117,172.62679846558603 174.06115965056233,169.93097367105656 175.66243050037883,169.40237449359847 178.20730738685234,169.31427443686698 178.95075456716586,169.4552345010743 179.60841938049998,169.9838334791275 181.55281969817588,172.32726493787777 182.82525814138353,173.33158071155776 184.22637013508938,174.00112056267972 185.4416203336441,174.17731472874584 186.07069102465175,174.9173278076778 186.41382049245294,174.81161189278646 186.41382049245294,175.14637868315913 186.07069102465175,175.28733288202784 184.76965845911764,177.2959148142545 184.65528196986998,177.59543772399775 184.91262907063356,177.75400841709052 183.39714058779646,178.81114178683492 179.89436060364824,179.76255500303523 175.41938046063296,183.42719742150803 173.6179507545894,184.18477981774777 167.7561556790606,187.44409924342472 166.78395552025177,187.63789422780974 165.16838760924293,189.36441953673784 163.32406671962235,190.40384798920422 165.12549642584054,189.2763320254744 166.6695790310041,187.6026587960223 168.02779984119115,187.23268622758042 176.27720413031057,182.77532091960893 179.7513899920741,179.76255500303523 183.23987291503,178.7935229626455 184.61239078629296,177.9478167983907 184.86973788717296,177.71877050079638 184.6266878474853,177.54258078645216 184.8411437649047,177.0316293623473 186.35663224785822,175.0230436428683 186.09928514692,174.37112805563083 184.3264495632029,174.08921767341963 182.56791104050353,173.20824407433975 180.80937251786236,171.62247764176573 179.50833995232824,169.93097367105656 178.89356632251292,169.54333446918463 177.8069896743982,169.31427443686698 175.70532168383943,169.4552345010743 173.80381254968233,170.24813222057128 171.60206513106823,172.5739396542922 170.57267672754824,173.12014640984125 167.2700555996853,172.76775519832154 166.06910246232292,172.99680958659155 159.90706910245353,177.06686745138722 158.4630659253453,177.0316293623473 156.66163621930173,176.11543593773968 154.33121525024762,175.3754291843361 152.3725178713794,175.65733697963879 150.4281175537035,175.12875939829974 149.41302621137584,175.14637868315913 147.0683081811294,175.4282869391318 145.15250198572176,176.02734010049608 145.0810166799347,175.71019462810364 146.32486100081587,175.199236524335 150.02779984119115,174.82923121744534 150.38522637018468,175.12875939829974 152.44400317710824,175.62209853623062 154.44559173949528,175.3754291843361 156.46147736301646,176.0097209264204 158.36298649723176,176.96115315766656 159.56393963471055,177.04924840795866 160.80778395553352,176.573533398594 165.38284352666233,173.40205874123785 167.02700555993943,175.9744825716043 167.34154090547236,175.9921017501474 167.77045274025295,176.76734341210977 168.85702938842587,176.99639126444526 169.31453534553293,177.8773410543654 170.83002382842824,179.4277992373536 170.97299444006057,180.2206405447505 171.74503574264236,180.8372917945817 171.17315329628764,181.26013679806783 172.1882446386735,184.99521226716752 167.64177918981295,187.49695244753093 166.76965845917584,187.67312965076417 164.43923749012174,189.8753260103258 162.8236695790547,190.4919347919058 162.86656076245708,190.68572556314757 164.15329626691528,190.22767421760364 166.29785544081824,188.5540123457904 164.73947577446233,190.016265399463 162.76648133440176,190.65049089740205 162.80937251792056,190.43908271689725 163.81016679905588,190.1924394367088 165.1969817315112,189.25871451661806 166.76965845917584,187.54980563174468 167.6989674345241,187.40886376288836 171.73073868150823,185.27710071652837" stroke="#4dd2ff" stroke-linecap="round" stroke-linejoin="round" stroke-width="0.5"><title>2024-08-22 19.8km</title><desc>1724317734000</desc></polyline><polyline fill="none" points="52.40021344716661,239.24272913216555 52.630736392806284,238.65091663991916 56.760939167579636,236.54404907474236 61.89007470663637,232.11718313932943 66.32764140889049,231.02820551967307 67.0,230.64942921949842 66.82710779085755,230.43636721599614 61.65955176099669,232.02248968320782 56.81856990396045,236.18895671493374 54.43649946642108,237.5383041207533 53.49519743863493,237.70401278481586 46.6371398079209,241.7519934429729 44.0629669156624,242.60418881234364 41.85378868738189,244.90036270157725 39.6830309497891,246.22597612036043 37.7427961579524,246.22597612036043 37.56990394880995,245.68152888088662 36.18676627532113,245.58684224376339 35.26467449311167,246.79409330131602 34.284951974404976,247.26752297657367 33.05549626459833,246.95979382298538 29.07897545362357,247.19650860116235 23.54642475990113,248.26172142161522 19.55069370334968,248.6404623062699 17.59124866593629,249.0665448912623 16.57310565642547,249.63465350540355 15.977588046924211,249.27958582233987 13.0,249.13755856174976 13.326574172824621,248.7114761373523 16.553895410965197,249.01920242940832 16.57310565642547,249.5873111863184 17.418356456793845,248.995531194043 19.76200640341267,248.42742065234052 28.579509071540087,247.40955164715706 29.136606190004386,247.10182272559905 32.709711846429855,246.8414363224001 34.131270010606386,247.14916566926695 35.26467449311167,246.6283926339238 36.28281750262249,245.44481219891168 37.64674493065104,245.6105139075371 37.85805763071403,246.10761815868318 39.91355389542878,245.94191688740102 41.7001067235833,244.94770619855262 44.0629669156624,242.48582857495057 45.54215581645258,242.13074741646415 56.10779082181398,236.5677218749479 61.29455709725153,232.09350977974827 66.76947705447674,230.3653464945819 61.50586979731452,232.11718313932943 56.33831376733724,236.40201221119787 45.503735325532034,242.2727799602144 43.87086446105968,242.6988769487507 42.37246531480923,244.42692707690003 39.318036286043935,246.36800557625247 42.02668089652434,244.68731681768259 43.77481323364191,242.62786085088737 46.310565634979866,241.77566558864783 51.689434365020134,238.9349868682766 53.3799359658733,237.7276854391821 56.29989327653311,236.54404907474236 61.17929562437348,232.28289657294226 66.34685165423434,230.60208212849102 61.525080042658374,232.09350977974827 56.54962646740023,236.378339390154 53.744930629618466,237.89339393662522 53.26467449311167,237.7750307390379 51.439701173920184,239.12436678244558 45.21558164351154,242.41481239678978 43.9284951974405,242.65153288652073 45.73425827117171,241.98871476562636 45.69583778013475,241.60996050661197 47.63607257208787,239.95290166826453 47.86659551761113,238.84029683977133" stroke="#4dd2ff" stroke-linecap="round" stroke-linejoin="round" stroke-width="0.5"><title>2024-07-03 11.2km</title><desc>1719998343000</desc></polyline><polyline fill="none" points="168.81777277833316,240.22484225567314 169.30371203599498,239.5012750823662 174.81102362193633,236.53212699836877 179.3667041619774,232.5399251257768 184.63104611914605,231.04282872502517 186.47356580419,229.94495085529343 187.0,229.49581724942254 186.7367829021532,229.32115390602848 184.42857142863795,230.79331156043918 179.30596175487153,232.29040984302992 174.12260967376642,236.6818330068636 163.47244094486814,242.39552795312193 160.9010123735061,243.2937357822957 159.22047244093847,245.23983880481683 156.50731158605777,246.98632527598238 154.48256467934698,247.06117435282795 154.28008998872247,246.48733070904564 152.76152980874758,246.4374311833817 151.7289088864345,247.659965951927 150.65579302585684,248.13400802054093 148.93475815525744,247.80966356956924 145.3307086613495,248.03420978435315 133.10123734525405,250.12996220964123 133.0,250.4044043415197 133.6884139481699,250.22975939241587 136.4218222721247,250.67884609397152 137.53543307073414,249.68087426647253 138.73003374575637,249.45632991404273 138.9527559055714,249.08208876222488 145.39145106857177,247.90946191860712 148.95500562433153,247.6849155627715 150.63554555678274,248.03420978435315 151.70866141736042,247.61006672104122 153.10573678289074,246.2627827446995 154.32058492675424,246.41248141579854 154.64454443193972,246.93642587572685 156.70978627668228,246.83662703755544 158.77502812142484,245.61408719912288 159.6051743532298,244.34163978019205 161.1237345332047,243.0442340151203 162.6220472441055,242.6949310143682 173.71766029240098,236.90639180784638 179.00224971887656,232.41516752362077 180.46006749151275,231.66662026412087 184.34758155234158,230.6436011112528 186.5343082115287,229.3461058216053 183.96287964005023,230.96797360856726 179.48818897653837,232.16565208409156 174.06186726654414,236.75668596872129 163.41169853764586,242.52027928356256 160.96175478061195,243.41848654818023 159.3622047243407,245.26478871973814 157.6614173228154,246.5621799740038 155.59617547795642,247.16097307806194 158.410573678324,245.8386358970747 161.18447694042698,243.06918420590227 162.6220472441055,242.76978170911025 174.64904386946,236.3325188114104 178.31383577059023,232.98905184435716 173.9201349831419,236.83153890240646 165.71991001127753,241.1480103378708" stroke="#4dd2ff" stroke-linecap="round" stroke-linejoin="round" stroke-width="0.5"><title>2024-06-26 10.0km</title><desc>1719394224000</desc></polyline></svg>