<?xml version="1.0" encoding="utf-8" ?>
<svg baseProfile="full" height="300mm" version="1.1" viewBox="0,0,200,300" width="200mm" xmlns="http://www.w3.org/2000/svg" xmlns:ev="http://www.w3.org/2001/xml-events" xmlns:xlink="http://www.w3.org/1999/xlink"><defs /><rect fill="#222222" height="300" width="200" x="0" y="0" /><text fill="#FFFFFF" style="font-size:12px; font-family:Arial; font-weight:bold;" x="10" y="20">Over 10km Runs</text><text fill="#FFFFFF" style="font-size:4px; font-family:Arial" x="10" y="280">Runner</text><text fill="#FFFFFF" style="font-size:9px; font-family:Arial" x="10" y="290">jianbo</text><text fill="#FFFFFF" style="font-size:4px; font-family:Arial" x="65" y="280">SPECIAL TRACKS</text><rect fill="yellow" height="2.6" width="2.6" x="65" y="283" /><text fill="#FFFFFF" style="font-size:3px; font-family:Arial" x="70" y="285.5">Over 20.0 km</text><rect fill="red" height="2.6" width="2.6" x="65" y="287" /><text fill="#FFFFFF" style="font-size:3px; font-family:Arial" x="70" y="289.5">Over 40.0 km</text><text fill="#FFFFFF" style="font-size:4px; font-family:Arial" x="120" y="280">STATISTICS</text><text fill="#FFFFFF" style="font-size:3px; font-family:Arial" x="120" y="285">Number: 19</text><text fill="#FFFFFF" style="font-size:3px; font-family:Arial" x="120" y="290">Weekly: 1.0</text><text fill="#FFFFFF" style="font-size:3px; font-family:Arial" x="141" y="285">Total: 347.9 km</text><text fill="#FFFFFF" style="font-size:3px; font-family:Arial" x="141" y="290">Avg: 18.3 km</text><text fill="#FFFFFF" style="font-size:3px; font-family:Arial" x="167" y="285">Min: 10.0 km</text><text fill="#FFFFFF" style="font-size:3px; font-family:Arial" x="167" y="290">Max: 42.8 km</text><polyline fill="none" opacity="1" points="12.539149835589342,46.96648084709523 12.42881634569494,46.88684558109162 12.322287458897335,46.61983198000962 12.314678252703743,46.25444185475499 12.25,46.11859076875044 12.390770314697875,45.781303178260714 12.512517613897217,45.73445743876073 12.432620948791737,45.823464293589495 12.455448567401618,45.76256488951185 12.53154062939575,45.81409516096028 12.76742602160084,45.8000414576054 13.067989666495123,46.0295846169829 13.159300140905543,45.823464293589495 13.33431188351824,45.748511166770186 13.34192108969728,45.48148943052365 13.596829497430008,45.37842789908245 13.726186002822942,45.42058946904581 13.977289807415218,45.35032015935576 14.186542977913632,45.4674356020696 14.646899953033426,45.42058946904581 14.753428839831031,45.35032015935576 15.400211366839358,45.37374327726502 16.80791451384721,45.85157167737634 17.127501174254576,45.87967904002289 17.511766087365686,46.07174545215821 17.648731798966764,46.23570380329329 17.781892907471047,46.184174113321205 18.154744011277216,46.30128694229643 18.30692813526548,46.259126366152486 18.53520432127698,46.39029244682024 19.41406763737905,46.48866670513962 19.611906998587074,46.63388537500214 20.17879286048992,46.48866670513962 20.63154062940157,46.526142544949835 20.844598403011332,46.469928771140985 21.084288398298668,46.54956492573183 21.43431188350951,46.54019597518345 22.119140441529453,46.32002496087807 22.400681070925202,46.29191792949496 22.982785345229786,46.05300730905219 23.359441052132752,46.00147736712097 24.64920150305261,46.11390623972693 25.353053076556535,46.52145806702174 25.767754814456566,46.60577857972021 26.559112259259564,46.610463047061785 27.05371066229418,46.54488045074322 28.39293095348694,45.94057825319396 29.23755284170329,45.11608817256274 29.27179426960356,44.9380708804747 29.952818224512157,43.818416361704294 30.08597933301644,43.72471990137274 30.72895725692797,42.67530349028675 31.132245185537613,42.23491460784862 31.253992484736955,41.83200108244273 31.752395490853814,41.25104834865488 32.121441991548636,41.1104939104589 32.326890558950254,40.90434644443667 32.585603569750674,41.007420319656376 33.48729450447718,40.988679636222514 33.848731798963854,41.04021649304559 34.141686237679096,41.26041862571583 34.71237670269329,41.06832747587032 34.99772193518584,41.18077119566806 35.2640441521944,41.14328999333884 35.91463128228497,41.3072699758377 35.868976045094314,41.62117250580559 35.96789572569833,42.05219854765164 37.01416157820495,44.28221037982439 37.91965711602825,44.25410181534971 38.20500234852079,44.50239340317057 38.433278534546844,44.81158439432693 38.688186942235916,44.82095377835503 38.66916392673738,44.867800663258095 38.88602630344394,45.01302563317222 39.41106153126748,45.02707963255307 40.28612024424365,44.79753031389191 40.97475340536039,44.34779694800454 41.61773132927192,44.380590188920905 41.78893846877327,44.118243455624906 41.83078910286713,43.82310117855741 41.95253640208102,43.56075053033055 42.19603100047971,40.13596859315294 42.61834194458788,38.90371989191408 42.60692813528294,39.231698801668244 42.355824330690666,39.72366176624564 42.253100046975305,40.30932351354204 42.11232973227743,42.46916465973118 42.0324330671865,42.62376888929066 42.062869891975424,43.18596069403793 41.982973226869944,43.86526450375459 41.63675434477045,44.68041277119846 41.735674025374465,45.32221239847422 41.84981211835111,45.60797364873724 41.93351338658249,45.64076578357344 41.92970878347114,45.889048156190256 42.21124941286689,46.61514751382856 42.31016909350001,46.68072998680873 42.298755284180515,46.844685665666475 42.39387036167318,46.994587371038506 42.43952559887839,47.28502021385793 42.64497416628001,47.34123276140963 42.770526068576146,48.849571209164424 42.95314701739699,49.041622356180596 43.143377172382316,49.097832261268195 43.143377172382316,49.44914225253524 43.280342883983394,49.6646107465167 43.28414748708019,49.83792145970074 43.18522780647618,49.936286642074265 43.18522780647618,50.15175232731417 42.97217003288097,50.489000471130566 43.192837012698874,50.68572714957918 43.20425082198926,50.91992422608382 43.37545796147606,51.03702221396452 43.47057303899783,50.99955089776631 43.90810239550774,51.055757857986464 44.14398778769828,51.22906211985173 44.611953969011665,51.37426236920146 44.76794269611128,51.5335136069225 44.98860967591463,51.54288130564237 45.34243776422227,51.72086713546014 45.92454203852685,50.634203595793224 46.32782996712194,50.39532073646478 46.44577266322449,50.38595275008993 47.03929074683401,49.93160259164142 48.36329262565414,49.1587262297071 48.04370596524677,48.57320319227074 47.81162517613848,48.310885895683896 47.68607327387144,47.96893379775793 47.51867073745234,47.879932053569064 47.46921089713578,47.631662909847364 46.936566463133204,46.7931568155509 47.03929074683401,46.69009890212692 47.11157820573135,46.437137364031514 47.35887740724138,44.31968843288632 48.47362611556309,42.075623733500834 48.922569281363394,41.368176643132756 49.732949741664925,40.64666051196764 50.18950211365882,40.12659803397764 50.36070925317472,40.01883643469773 50.98085955849092,39.170788650495524 51.38795209019736,38.28523753991976 51.38795209019736,38.02284799329573 51.54774542039377,37.380922937951254 51.98907938001503,37.423093535671796 51.787435415695654,37.933822549708566 51.19772193519748,38.697560245898785 50.67268670738849,39.68617910175817 50.21232973228325,40.234359322374075 49.135627054958604,41.30258484346268 48.89593705965672,41.64459796196752 49.80523720057681,41.76172502243935 49.79762799436867,41.705504079251114 49.755777360274806,41.74766979457854 50.1552606857731,41.827316015886026 51.04934241430601,42.272394714866095 51.78363081259886,42.31924479574445 51.8483090653026,42.3848348102656 51.85972287459299,43.19533048575977 51.93201033350488,43.50921715080767 51.89396430249326,43.75282886414061 52.02712541099754,44.385274935280904 52.046148426496075,45.68761164053649 52.13365429779515,46.034269156578375 52.122240488490206,46.74631234469416 52.22496477220557,47.247545135189284 52.339102865196764,49.669294830408035 52.59020666980359,51.95974152225608 51.85972287459299,53.22902883084316 51.54774542039377,53.622452308409265 51.4526303429011,54.54042431918788 51.02651479568158,55.32723952867673 52.75,56.324785003289435 51.17869891968439,55.52394074335098 50.942813527493854,55.33192290296938 51.04934241430601,55.06028622461963 51.27381399719161,54.76523035472928 51.49828558010631,53.5849835841982 51.730366369185504,53.313334210357425 51.829286049789516,53.04636652287445 52.54835603570973,51.92695493211431 52.31247064351919,49.669294830408035 52.35432127761305,48.76525575966298 52.25540159700904,48.33430715774375 52.057562235801015,46.11390623972693 52.080389854396344,45.62671201502235 52.00429779240221,44.600772632460576 51.924401127311285,44.3243731868788 51.93201033350488,43.55606568059375 51.89776890560461,43.1719060020223 51.821676843595924,43.07352300992352 51.80645843122329,42.412944781241094 51.20152653827972,42.26770970353755 51.01510098637664,42.295819762646715 49.88513386566774,41.79920560423125 49.306834194474504,41.68207866128432 48.82745420385618,41.70081899682191 48.694293095351895,41.8882218352519 48.52308595585055,42.450424709622894 48.45079849695321,42.58160416286046 48.35187881636375,42.59097410618779 48.25676373884198,42.87207131289324 48.17306247065426,42.89549598464146 48.10077501175692,43.17659089995141 47.99424612495932,43.2656038488567 47.94859088775411,43.52327171590878 47.655636449038866,43.8793189348944 47.62900422736129,44.13229779159883 47.46160169094219,44.26347133920717 47.41214185064018,44.38995968104064 47.328440582437906,45.05987227721562 47.37409581964312,45.233204349526204 47.28278534524725,45.35500478410904 47.18006106154644,45.76724946256945 47.20288868014177,46.28254891432516 47.07733677784563,46.85405453987187 47.161038046047906,47.12106646716711 47.351268201033236,47.402129592468555 47.377900422754465,47.594188178834884 48.29861437296495,48.9526231668533 48.35948802254279,49.21025181781806 48.31763738844893,49.31330278086898 48.11218882104731,49.50066744018841 47.46921089713578,49.80513300804523 47.19908407703042,50.05338771208335 47.07733677784563,50.05338771208335 46.731117895717034,50.245432672549214 46.4343588539341,50.50773638988903 45.97019727571751,50.69041110549006 45.89410521373793,50.952711699676 45.91693283231871,51.15880373217442 45.715288868013886,51.2712170890627 45.707679661834845,51.458571932511404 45.437552841729484,51.81454354755624 45.46418506340706,51.92227113117042 45.10274776892038,51.683396504882694 44.680436824812205,51.547565154134645 44.0640911225928,51.144752038784645 44.014631282305345,51.219694342471485 43.62275716300064,51.004234814339725 43.12815875999513,50.59673187569206 42.81998590887815,50.52178832278878 42.72487083138549,51.21501045288824 42.4319163926848,51.39768171140895 42.378651949285995,52.133041592376685 42.05526068576728,52.38128083342963 42.03623767026875,53.03699920097279 41.76230624706659,53.172825138848566 41.75089243776165,53.341435961279785 41.60251291687018,53.44915914406374 41.54924847345683,53.67397174286452 41.37804133397003,53.777010398764105 41.10030530765653,54.221946787747584 40.93290277126653,54.59662595482223 40.92529356505838,54.86358257013853 40.75408642554248,54.957251106137846 40.70082198215823,55.111803677376884 40.46874119306449,55.238255305830535 40.373626115571824,55.18673802734338 40.312752465950325,55.37875661351427 40.14154532644898,55.509890690904285 40.17578675434925,55.71595759737829 39.93609675904736,55.95948974963176 39.825763269138406,56.00163938415426 39.72684358853439,55.94075656347559 39.12191169563448,55.317872778352466 38.95450915921538,55.238255305830535 38.790911225936725,55.013452115064865 38.5398074213299,54.93851741771505 38.338163457025075,54.783964129994274 38.32294504463789,54.61067635053405 37.9158525129169,54.38118589264559 37.77127759512223,54.067390537191386 37.58865664630139,54.053339937261626 37.45549553781166,54.156377547395095 37.3489666509995,54.498273037006584 36.82012682009372,55.14458747397293 36.27987317989755,56.16087090789006 35.89560826680099,57.08814689433348 35.754837952088565,57.18180985641811 35.77386096760165,57.3878675470296 35.65972287458135,57.430015571106196 35.324917801786796,58.48370073022306 35.092837012707605,58.909849405092245 35.03957256926515,59.31726172843264 34.933043682482094,59.387504783753684 34.91782527009491,59.77618063790942 34.796077970881015,59.91198209229697 34.67052606858488,60.34279723500731 34.514537341485266,60.60034739519688 34.41181305778446,61.082663832447 34.17973226866161,61.52283068537872 34.01613433538296,62.30481646399494 33.814490371063584,64.46806917645517 33.7383983090549,64.66004010371034 33.7992719586764,65.00183955945249 33.631869422257296,65.61051578729166 33.715570690474124,65.68074702230297 33.612846406773315,65.79311672400945 33.66230624707532,65.80716291299177 33.620455612952355,66.42987199015988 33.5139267261693,66.39241609811143 33.30086895257409,66.94020478217135 33.011719116955646,67.23984647987527 32.78344293094415,67.43648503946679 32.66930483795295,67.40839387995584 32.562775951155345,67.54416762216351 32.28503992485639,67.61907706204875 32.528534523255075,67.46925803223348 32.69974166275642,67.45989432293936 32.707350868950016,67.31475652922018 33.338914983556606,67.0244792522717 33.308478158767684,66.9355228615932 33.5748003757617,66.69674413526445 33.521535932362895,66.61715088773781 33.597627994357026,66.31750420148819 33.48729450447718,65.9054860881115 33.73078910286131,65.69011117701302 33.692743071878795,65.63860829711848 33.74981211835984,65.44196028519218 33.555777360263164,65.28745040760623 33.74220291216625,64.85669222696743 33.68893846876745,64.39315342532791 33.82209957728628,63.79382201380213 33.92101925787574,62.70750934838361 34.061789572573616,62.398466358972655 34.00091592299577,62.20180130864537 34.09222639737709,61.532195881274674 34.468882104280056,60.51137572225343 34.8721700328897,59.865154060295026 34.978698919687304,59.57013611001821 34.95967590418877,59.39218764942416 35.17273367778398,59.031605277192284 35.12327383749653,58.980093225836754 35.16131986847904,58.70380010286681 35.44286049788934,58.207403938864445 35.50373414749629,57.856176256464096 35.7167919210915,57.537726972299424 35.67494128699764,57.476846653229586 35.78527477689204,57.22864124947591 35.84995302959578,56.76969106789329 36.69837952089438,55.07901985201897 37.44027712540992,54.18447866448332 37.59626585250953,54.1610610683565 37.809323626119294,54.390552877706796 37.896829497418366,54.59194248841959" stroke="red" stroke-dasharray="none" stroke-linecap="round" stroke-linejoin="round" stroke-width="0.5"><title>2026-03-01 42.6km</title><desc>1772325605000</desc></polyline><polyline fill="none" opacity="1" points="57.25,72.27693844706664 58.31390502647264,71.3818845797432 58.87654710782226,70.57506861483853 61.55676938616671,69.81867275323748 62.73320282896748,69.01184421322978 62.97871937358286,69.04966444605088 63.633430159126874,68.23022287545609 64.26768123259535,66.71739007804717 66.12951502896613,65.38103545783088 68.03226824954618,62.695665253850166 69.23939126037294,62.481336833763635 71.47972972970456,63.55297435346438 72.00145238696132,63.55297435346438 73.28018438996514,63.02346077503171 73.81213690323057,62.330045908500324 74.33385956048733,61.132318027259316 74.79420308151748,60.65322286918672 75.40799444302684,60.438890083736624 76.59465774183627,60.388458773515595 77.30051780748181,60.022831015943666 77.86315988883143,59.316787435425795 77.97568830510136,58.92593974425108 78.37465269002132,53.68086848693201 78.6815483708051,52.949562719302776 79.71476382925175,51.877811871316226 81.18786309671123,51.28519177770795 83.27475372562185,51.91563856686116 83.28498358168872,52.26868703721266 83.39751199795865,52.04172744898824 84.47164688049816,52.129989572116756 84.93199040158652,51.91563856686116 84.56371558469255,51.54997991202981 85.70945945946733,50.301686870559934 87.30531699920539,49.33078153737006 91.84737307397882,48.38508548518439 95.00839858548716,48.56161609211267 95.79609749931842,48.28421071307821 96.66563526139362,46.468447458632 97.36126547103049,43.32861256043543 96.96230108611053,40.932688452689035 97.66816115181427,38.7384761374924 97.52494316740194,39.015907933375274 97.63747158373008,38.25927395415056 97.34080575901316,35.724508506798884 97.75,32.72306155293336 97.38172518310603,35.699286637966 97.63747158373008,38.56192823121819 97.02368022227893,40.932688452689035 97.40218489518156,42.57201113402698 97.40218489518156,43.34122253584064 96.78839353373041,46.241474739377736 95.7756377873011,48.34725745752803 95.2027658498846,48.59944403886038 91.79622379387729,48.460741497648996 87.01888103055535,49.45687367037317 85.80152816366171,50.162986684328644 84.57394544075942,51.562588853346824 85.27980550640495,52.21825161755987 84.88084112142678,51.95346524813067 83.83739580697147,52.09216295740771 81.0753346804413,51.31040972540359 79.61246526899049,51.95346524813067 78.73269765090663,52.89912764215114 78.34396312199533,53.92043300958176 78.01660772919422,58.88811569326208 77.70971204846865,59.82110478589311 76.73787572613219,60.363243108891766 75.54098257131409,60.464105729311996 74.78397322550882,60.71626183654007 74.35431927250465,61.17014123174886 73.84282647131477,62.38047624225146 73.28018438996514,63.0738907600753 72.11398080317304,63.578189216052124" stroke="#4dd2ff" stroke-dasharray="none" stroke-linecap="round" stroke-linejoin="round" stroke-width="0.5"><title>2026-02-15 16.0km</title><desc>1771116215000</desc></polyline><polyline fill="none" opacity="1" points="114.12306780699873,64.63047381802608 114.61079521756619,64.1137500985933 115.57769341761013,64.06102300944622 117.32324415032053,64.90465245814266 117.69973548490088,64.9679243247665 118.93188894330524,64.48283879444352 119.36827662651194,63.91338698356412 119.80466430966044,62.89047309529269 120.1640424017096,62.521377392498835 120.61754332738928,62.33155611286929 121.7812438159599,62.24719096183253 122.30319771147333,61.9519122649217 122.85082147078356,61.0555241385664 123.17597307782853,56.67890335601987 123.58669089735486,55.84573761858337 124.51080599118723,55.0442032744686 125.44347770622699,54.675073039587005 127.23181154514896,55.181308376464585 127.3173777575721,55.42387839242292 127.38583072746405,55.286773687003006 128.24149285134627,55.371145839941164 128.66932391334558,55.202401449183526 128.3527289274498,54.90709794830764 129.34529699123232,53.810247269466345 130.02982669032644,53.30400365583773 130.74002625315916,53.008693469906575 134.42793000722304,52.24931964495045 137.06336934881983,52.37588242664788 137.88480498775607,52.15439743333263 138.49232509575086,50.614533212450624 139.06561871874146,48.03045094260597 139.08273196121445,47.46088740499545 138.74902373290388,46.163533792700036 139.28809087100672,43.937945473517175 139.06561871874146,41.72284630454669 139.21108127984917,41.4380435938001 139.1768547949032,40.61527477224445 139.6132424780517,37.535094150327495 140.22931920725387,36.12154871792882 140.1950927223079,35.85782491676946 140.16086623736192,36.300880428781966 140.15230961609632,35.889471816706646 139.54478950810153,35.03500132435147 139.51056302315556,34.613037374620035 139.65602558426326,32.882962971925735 139.82715800899314,32.819666889823566 139.93839408515487,32.25 139.37365708337165,32.26054942204064 139.69025206920924,32.882962971925735 139.55334612936713,34.85566690525593 139.7330351754208,35.30927675260318 140.22931920725387,35.85782491676946 140.28065893467283,36.14264658618049 140.15230961609632,36.75448245558073 139.92128084268188,36.89161746883474 139.70736531174043,37.303021162537334 139.12551506742602,41.2481745824407 139.3052041134215,43.99068521663139 138.78325021784985,45.9736754827245 139.08273196121445,48.03045094260597 138.50088171695825,50.68836296431982 137.87624836654868,52.017287382397626 137.32006798597286,52.39697620502557 134.44504324963782,52.29150726008811 130.44910113106016,53.14580189985281 129.47364630980883,53.75751370231592 128.38695541239576,54.886004801344825 128.67788053455297,55.191854913471616 128.2158229876659,55.33950629251922 127.69386909209425,55.318413254310144 125.50337405491155,54.68561964027322 124.20276762655703,55.276227161913994 123.44122833630536,56.151584230588924 123.15030321414815,56.90037639999355 122.90216119820252,61.034432537875546 122.62834931857651,61.846455335471546 121.7726871946943,62.29991919118038 120.23249537165975,62.521377392498835 119.78755106724566,62.953746481281996 119.4196163539309,63.90284154321853 118.94900218577823,64.50392952797847 117.93932087958092,64.92574308564508 117.50293319637422,64.9679243247665 115.56058017513715,64.07156842993572 114.68780480872374,64.16647715453291 114.34553995920578,64.44065731135925 113.41286824416602,65.99081287899025 112.88235772732878,66.57079569312918 111.85556317860028,67.15077449724777 111.45340198039776,67.56202976488566 110.70897593261907,69.08049328766356 110.0672293396783,69.7975359525808 109.55383206531405,70.12442101592751 109.39981288299896,70.02951903195935 107.14086487592431,70.69383066512819 104.71934106526896,72.75" stroke="#4dd2ff" stroke-dasharray="none" stroke-linecap="round" stroke-linejoin="round" stroke-width="0.5"><title>2026-02-08 18.0km</title><desc>1770535113000</desc></polyline><polyline fill="none" opacity="1" points="156.44273746173712,68.65674472216051 156.72481048566988,68.41340131951438 157.52166677830974,68.22220233080589 159.21410492190626,68.9956858911828 159.57374802746926,68.92615963303251 160.34239701766637,68.60459977941355 160.65267734398367,68.23089320539293 160.9911649727146,67.38787328214676 161.34375625263783,66.97939601347025 161.7668657885224,66.81426621972787 162.5002556507534,66.80557516702538 163.07850534981117,66.56222524768236 163.4804594089219,66.0668316933079 163.56508131613373,65.70180259190238 163.7836879096576,62.233929979665845 164.08691641039331,61.573363087714824 164.73568436544156,60.93886526014103 165.65242169320118,60.530349877684785 167.16856419685064,60.93886526014103 167.20382332487497,61.130084396732855 167.31665253441315,61.00839955284755 168.014783268678,61.07793377558119 168.34621907179826,60.9562488398733 168.08530152463936,60.71287832572125 168.91741694527445,59.73938769902452 169.90467252902454,59.191793195517675 171.322089474299,58.8788801026094 171.8298209173954,58.896264200455335 173.14146047868417,58.5225051322268 175.4474074493628,58.60073394168285 175.8564133340551,58.44427623422234 176.46992216110812,57.07960232258483 176.8930316970218,55.062964786084194 176.8859798714111,54.358866268157726 176.66032145224744,53.52436984539963 176.72378788262722,52.915876517006836 177.11869011618546,51.994433561572805 177.11163829054567,51.81188208372623 177.03406820897362,52.04659103806625 177.06932733696885,50.951275763334706 176.90008352260338,49.97764760885184 176.98470542978612,49.01269902590866 177.41486679128138,46.20470891168952 177.70399164085393,45.68308827139117 177.78861354797846,45.03975072412868 177.8168208503921,45.344032743159914 177.80271719919983,45.08321966604126 177.33024488409865,44.37032556455233 177.27383027932956,43.787833459377 177.58411060564686,42.579364023767994 177.76040624562302,41.2143767177331 178.592521666229,39.171192447327485 178.83933556213742,39.31030478311004 179.9394203554839,36.7888502130445 180.15097512345528,35.97153139103466 181.0747642768547,34.102095595837454 181.1734898352006,33.789068842321285 180.93372776487377,33.641250159955234 181.15233435842674,33.07605816273281 181.82225779024884,32.25 181.15938618403743,33.15431579211145 180.038145913888,35.98022632302309 179.50925899401773,36.901882905862294 179.13551223729155,38.01481031161529 178.57136618942604,39.049468923658424 178.60662531739217,39.24074865025614 177.7674580712046,41.283930863231944 177.29498575610342,44.005181834232644 177.88028728080099,45.27448268554872 177.8168208503921,45.68308827139117 177.45012591927662,46.10907875580597 177.18215654653613,47.71738649727922 176.95649812737247,49.612533513740345 177.11163829054567,51.533707475842675 177.02701638336293,52.05528394701105 177.11163829054567,51.829267959568824 177.12574194176705,51.97704772731959 176.67442510346882,53.29835866322537 176.9353426505986,54.96734688980359 176.55454406829085,56.87098737544875 175.88462063643965,58.47035254340881 175.3486818909878,58.661578510036634 173.05683857150143,58.54858141188015 169.95403530821204,59.21786922265892 168.95267607326969,59.748079640296055 168.08530152463936,60.68680286264862 168.33916724618757,60.9562488398733 167.93721318710595,61.130084396732855 167.22497880164883,61.069242001569364 167.15446054568747,61.260460777433764 167.1897196736536,60.96494062808779 165.72293994919164,60.530349877684785 164.65106245825882,60.999707770075474 164.05165728239808,61.660280144737044 163.74842878166237,62.425145533285104 163.55097766494146,65.81478799595061 163.4734075833403,66.08421398339124 163.03619439620525,66.6056806532797 162.5002556507534,66.84033937128697 161.54120736938785,66.90986772733595 161.18861608943553,67.10107034591056 160.6949882975896,68.16136617804295 160.34239701766637,68.57852729330625 159.48207429467584,68.98699511274026 159.02370563076693,68.97830433319177 157.51461495272815,68.28303843003232 156.89405430006445,68.32649275384028 156.29464912420372,68.85663330492389 155.24392711004475,70.39488697307388 154.32013795667444,70.95108326370973 153.96049485114054,71.45513228698837 153.65726635040483,72.1938181818332 153.17774220975116,72.75" stroke="#4dd2ff" stroke-dasharray="none" stroke-linecap="round" stroke-linejoin="round" stroke-width="0.5"><title>2026-02-01 19.0km</title><desc>1769905033000</desc></polyline><polyline fill="none" opacity="1" points="12.25,120.73896158189746 15.871318822028115,118.74735710140521 17.383802816912066,118.16158216980693 18.939500640204642,116.9474175986179 19.380281690100674,116.23382153192506 21.63604353397386,115.56282273345278 22.595390525006223,114.93442221511214 22.863316261209548,114.9237713186958 23.338668373879045,114.28471508430084 23.96094750321936,112.91072785906726 25.732714468613267,111.63258020424837 26.813060179236345,109.85379262928473 27.1760563380667,109.52359441885346 28.014404609508347,109.36382062926714 29.924455825821497,110.25854997027636 30.40845070424257,110.2798529346619 31.575224071741104,109.80053494042659 31.981434058921877,109.33186583517818 32.292573623533826,108.50103695874714 32.72471190785291,107.90453940744919 33.39020486554364,107.63824450180982 34.39276568504283,107.59563723924657 34.94590268889442,107.31868951015349 35.48175416135928,106.4771889325275 35.766965428949334,102.16303571007302 36.11267605633475,101.30017869990115 36.89052496798104,100.46927104964561 38.273367477580905,99.92598087142687 39.9500640204642,100.42666018120508 40.001920614624396,100.70363044291298 40.07970550574828,100.58645082732255 40.96126760559855,100.62906161539286 41.3761203585309,100.44796561813564 41.06498079386074,100.17099452045659 42.03297055058647,99.13767127932806 42.84539052500622,98.50914891551656 43.43309859157307,98.28543644022284 47.13220230478328,97.48645849089371 50.148527528799605,97.58233624273271 50.589308578753844,97.37992752818536 51.28937259921804,95.95239970062539 51.86843790014973,93.33165165433456 51.89436619717162,92.6072029281786 51.59186939825304,91.21155629574787 52.11043533933116,88.96355801752361 51.87708066578489,86.74746339059493 51.99807938543381,86.69419117130019 52.024007682455704,85.5221938682298 52.456145966716576,82.63474948216754 52.75,81.76103841810254 52.44750320102321,82.68802425541071 51.90300896286499,86.53437431242492 52.153649167797994,89.47495623424038 51.64372599235503,90.67886067676591 51.583226632501464,91.22221017396078 51.92893725994509,92.62851033210609 51.92029449425172,93.23576909053372 51.40172855311539,95.65410726482514 50.60659411014058,97.4331930262706 50.02752880920889,97.64625468368467 47.175416133133695,97.50776466733078 43.39852752885781,98.30674241574889 42.257682458439376,98.89265464132768 41.099551856576,100.11773074397934 41.410691421246156,100.42666018120508 41.04769526247401,100.63971430903621 40.04513444303302,100.57579812697804 39.96734955185093,100.84211523415433 39.96734955185093,100.45861833456001 38.17829705507029,99.93663365352404 36.8991677336744,100.49057647582231 36.155889884743374,101.30017869990115 35.818822023051325,102.15238320799108 35.516325224074535,106.55175261234399 35.30889884766657,107.12695593658282 34.410051216429565,107.61694087318756 33.34699103713501,107.68085174295993 32.80249679897679,107.88323584581667 32.42221510881791,108.29865433176747 31.998719590250403,109.31056263242499 31.55793854035437,109.86444416300947 30.443021766957827,110.31180737118848 30.08002560818568,110.32245884737495 28.023047375143506,109.36382062926714 27.4266965429415,109.37447222460469 26.899487836111803,109.81118648085976 25.983354673488066,111.34499432472512 25.41293213830795,111.99472399731894 24.004161331627984,112.92137900849775 23.37323943665251,114.31666801048414 22.61267605633475,115.19004332723853 22.068181818176527,115.5415210972642 21.912612035870552,115.43501283607475" stroke="#4dd2ff" stroke-dasharray="none" stroke-linecap="round" stroke-linejoin="round" stroke-width="0.5"><title>2026-01-25 19.0km</title><desc>1769297747000</desc></polyline><polyline fill="none" opacity="1" points="60.74685642798431,121.5 63.70697481033858,119.9113611047469 63.78833112952998,119.99619237651495 64.09498187105055,119.84195361334787 65.37165026427829,118.8239680526276 65.51558836744516,118.50777213017864 65.7095918977866,118.36124175995792 67.35549281653948,117.84452660902025 68.25041232747026,117.36636841368454 69.08900823281147,115.84703457729483 70.22799670128734,115.06807218292306 71.07910896345857,113.72607416793107 71.36698516979231,113.4792667394031 72.09293386395439,113.40985197123155 73.38837679242715,114.0500074110023 73.70754389069043,114.0500074110023 74.50233254727209,113.70293601366939 74.80898328879266,113.33272435891195 75.18447399267461,112.51516570686363 75.43480112860561,112.26835340664911 75.84784090289031,112.1140952147507 76.5863059538824,112.08324352983618 77.19960743692354,111.7438739715617 77.38735278884997,111.07284227332639 77.56883996239048,108.10324606240101 77.78787620633375,107.56330403229003 78.45124311654945,106.90765374852708 79.36493716266705,106.52197383705425 80.54147470154567,106.89222659862571 80.66038009111071,107.031070807996 81.27368157415185,107.06192503405691 81.62413956446107,106.91536732202803 81.3925869637169,106.70710049724221 82.10601930110715,105.94344942255702 83.00093881203793,105.38034708517807 85.84215180482715,104.74781500654353 87.90735067625064,104.83266724960777 88.35793952093809,104.72467346534177 88.82104472239735,103.58301325773573 89.23408449665294,101.6313421969935 89.00253189590876,100.1039041271033 89.43434620543849,98.9775870382473 89.42182984863757,98.82329541497893 89.34673170783208,99.03158901467032 89.22156813988113,97.07977309129274 89.34673170783208,96.94090634991517 89.32795717264526,96.31600212170088 89.57828430857626,94.279233021658 90.09145493721007,92.97535667485499 90.05390586683643,92.78247320402079 90.0288731532637,93.09880177775267 90.0351313316205,92.82876529236819 89.59705884376308,92.1652420193277 89.54073523817351,91.83347768981912 89.99132408286096,89.41848788816424 90.71101459863712,87.49722996833952 92.0189738838526,84.71168483555448 93.06408967636526,82.0571971612917 93.58351848341408,81.3935572784394 94.25314357204479,81.0 93.42080584503128,81.57104306733163 93.0140242492198,82.18066425362485 92.01271570546669,84.71168483555448 91.53083596882061,85.57591182871693 91.19915251369821,86.57901716585184 90.71727277702303,87.45864987530513 90.99889080497087,87.75185797338418 90.84869452338899,87.89846149645382 90.20410214838921,89.51107711041914 89.95377501245821,91.05421022675364 89.70970605494222,91.07735692779534 89.57828430857626,91.99550235412607 90.06642222363735,92.75161179236602 90.06016404522234,93.05250989329215 90.05390586683643,92.72075036520255 90.1164876508119,92.89820335934928 90.06016404522234,93.33026067569153 89.92248412049958,93.39969817467863 89.70970605494222,93.81632151712256 89.27163356705569,96.79432444836493 89.40931349180755,98.68443262209985 89.0338227879256,100.15790511166779 89.27163356705569,101.59277099679457 88.85233561435598,103.56758527155034 88.31413227214944,104.70924576634934 87.81973617870244,104.86352258161787 85.83589362644125,104.77867038124168 83.07603695281432,105.37263331861686 82.26873193946085,105.7737478925228 81.41136149890372,106.70710049724221 81.6429140996479,106.91536732202803 81.26742339573684,107.01564368913387 79.30861355710658,106.5451147001404 78.38866133254487,106.93850803667738 77.81916709832149,107.56330403229003 77.63767992475186,108.04925207327688 77.40612732406589,111.21939005231252 77.34354554006131,111.4662065729135 76.96179665776435,111.9212719293937 76.62385502425604,112.09095645251728 75.81029183251667,112.15265979908872 75.37847752301604,112.32234368217541 74.54613979606074,113.69522329363826 73.78264203149593,114.03458205726201 73.40715132758487,114.04229473460873 72.03661025836482,113.40213921435134 71.41079241855186,113.47155399127223 71.12917439063312,113.73378688405865" stroke="#ffa900" stroke-dasharray="none" stroke-linecap="round" stroke-linejoin="round" stroke-width="0.5"><title>2026-01-18 21.1km</title><desc>1768694323000</desc></polyline><polyline fill="none" opacity="1" points="112.99577894981485,112.81935513316421 113.19419692578958,112.47700396230357 113.75968815741362,112.57481870550691 114.96011691220338,113.14947833515907 115.17837668576976,113.30842614387075 114.97995870973682,113.60186756976327 115.5950544353691,113.88308143874019 116.20022926211823,113.90753478022089 117.43042071332457,113.43069351224403 117.93638655211544,112.7337674534283 118.4026687956648,111.58443988554791 118.93839733087225,111.0464521016329 120.77376360882772,110.80191121597454 121.68648629839299,110.26391910297389 121.9841132624424,109.35910747364687 122.30158202396706,104.45586019189795 122.69841797597473,103.55099451779824 123.54169437394012,102.64612042294175 125.07943368796259,102.02248607747606 126.6667774959351,102.4871551853139 127.18266423349269,102.75617312752729 127.10329704306787,102.95182207255857 127.2620314238593,102.7439450554084 128.20451680989936,102.82954152805905 128.73032444628188,102.60943616041914 128.3632511906908,102.26704904263897 129.41486646345584,101.21542392798438 129.583521743014,100.81189034107956 130.8037922953954,100.18824423073238 135.4170102372882,99.17328220437048 138.68098594242474,99.33225286010565 139.35560706083197,99.08768251287256 140.16912076238077,97.04549609722744 140.76437469036318,94.31843776851747 140.40722233359702,91.78697435448703 141.09176435082918,90.00145809882088 141.08184345200425,89.7813236867878 140.9528717675712,90.14821409654542 141.04215985682094,89.56118877624976 140.7246910952381,87.20082201695914 140.97271356522106,86.69938957280829 140.8834254759713,85.89220020476205 141.34970771963708,82.36984087876044 141.75646457035327,81.22015430044848 141.99456614156952,81.0 142.04417063557776,81.20792351907585 141.84575265954481,81.25684663539141 141.51836299919523,81.83169140746759 140.85366277961293,86.52816814578546 141.04215985682094,88.87632142205985 140.94295086880447,90.1115251178926 141.04215985682094,89.7568642769038 141.07192255317932,90.05037678932422 140.46674772643019,91.93372765673848 140.79413738677977,94.33066690037231 140.18896256003063,97.21669900093548 139.27623987046536,99.11213957530708 138.6611441448913,99.41785233629344 135.307880350505,99.24665330856078 131.00221027142834,100.17601583565556 129.53391724906396,100.99531490638037 128.3731720894575,102.29150530529296 128.72040354745695,102.60943616041914 128.31364669668255,102.84176958946045 127.17274333472596,102.76840119814733 127.09337614430115,103.03741836221161 127.09337614430115,102.63389233699127 125.10919638432097,102.03471424033341 123.66074515954824,102.62166424945462 122.7579433688079,103.58767842513771 122.3511865179753,104.54145515755226 122.03371775639243,109.33465298844385 121.69640719721792,110.30060047798179 120.86305169801926,110.78968415555573 118.89871373563074,111.13204126632627 118.4423523908481,111.63334771834343 117.78757307009073,112.99053026670299 117.10303105291678,113.6140942766142 117.20224004087504,113.68745448552363 115.80339331016876,113.96866810706706 113.43229849700583,112.8560355442678 112.50965490855742,113.02721061321063 112.11281895660795,113.34510637051426 110.47587065462722,115.75374430677766 108.86868504906306,116.81743851858482 108.05517134751426,118.49242766051611 107.49960101477336,119.21376446330396 107.16229045548243,119.21376446330396 106.49759023595834,119.7761589372094 105.70391833194299,120.11848441622715 103.6403713815962,120.66864784053905 103.16416823922191,121.02319595401059 102.95582936442224,121.5" stroke="#4dd2ff" stroke-dasharray="none" stroke-linecap="round" stroke-linejoin="round" stroke-width="0.5"><title>2025-12-28 16.0km</title><desc>1766878702000</desc></polyline><polyline fill="none" opacity="1" points="147.25,120.62643206281064 149.28468899527797,119.81047056874377 150.09210526314564,118.73578315869963 150.834928229684,116.94462126176222 151.6907894736505,116.04903271292278 152.9342105263495,115.69079587463057 154.59748803824186,115.63108965604624 156.24461722490378,114.73549367547093 156.69677033496555,113.28262719605118 157.24581339716678,105.1622511739406 157.77870813396294,103.88842889774241 159.73265550244832,102.05729141405027 161.8319377990556,101.26113807380898 165.07775119622238,102.25632912333822 164.9808612440247,103.0325737977837 165.22308612440247,102.43546284765762 166.59569377987646,102.65440379094798 167.6453349282383,102.27623288048198 167.75837320572464,102.07719519620878 167.11244019138394,101.69902290661412 168.92105263157282,99.72853161825333 171.40789473685436,98.21581458864966 178.4808612440247,96.74289200826024 183.61602870817296,96.96184082682885 185.06937799049774,96.34480247112515 186.13516746409005,93.85672017597244 187.2494019138976,88.74110007872514 186.73265550239012,84.640522536356 187.75,81.87356793718936 186.7488038277952,84.72014641291753 187.34629186609527,87.54676807300712 187.29784688999644,88.76100553580909 186.3127990430221,93.4785282422381 184.85944976081373,96.5836563135963 183.7290669856593,96.96184082682885 178.5616028708755,96.78270090688602 171.50478468899382,98.23571885397541 169.19557416264433,99.41006607677264 167.09629186609527,101.71892673382536 167.66148325358517,102.27623288048198 166.69258373213233,102.69421120267361 165.15849282301497,102.53498149580264 165.02930622006534,102.81363337763469 164.99700956931338,102.25632912333822 161.73504784685792,101.38056133018108 159.47428229666548,102.2165216015128 157.84330143546686,103.90833244967507 157.29425837326562,105.26176810750621 156.74521531100618,113.20301768851641 156.21232057415182,114.75539586339437 154.74282296648016,115.6111875782226 152.74043062201235,115.75050207063032 151.626196172263,116.12864078911662 149.28468899527797,119.83037211860938 147.42763157893205,120.60653061301855" stroke="#4dd2ff" stroke-dasharray="none" stroke-linecap="round" stroke-linejoin="round" stroke-width="0.5"><title>2025-12-21 12.2km</title><desc>1766291458000</desc></polyline><polyline fill="none" opacity="1" points="40.29057724960148,140.88253534470277 41.019439728348516,140.69610102666775 41.143208828463685,140.88253534470277 40.90942275041016,141.25540320725122 41.78955857385881,141.34014575945912 44.60874363326002,142.6282259944419 45.21383701189188,142.71296768367756 47.01536502543604,141.98418741536443 47.71672325982945,141.11981501290575 48.47308998298831,139.3741048299562 49.21570458402857,138.696153033452 51.691086587437894,138.37412473575387 52.75,137.78091269981815 51.498556876031216,138.4419202308054 49.11943972838344,138.74699953650997 48.418081494106445,139.52664351428393 47.67546689300798,141.22150617145235 47.11162988113938,141.9333421333431 45.88769100164063,142.52653589702095 44.594991511025,142.71296768367756 41.597028862452134,141.30624874496425 40.74439728347352,141.30624874496425 39.60297113744309,141.83165151177673 37.67767402372556,144.9840251126443 35.573599320836365,146.3229141785996 35.00976230902597,146.93303643143736 34.22589134128066,148.7294914756203 33.22198641760042,150.119185560834 32.75441426143516,149.983606280628 32.25933786079986,150.61065930864424 31.282937181647867,151.15297308922163 28.10619694396155,152.06812264754262 24.544397283520084,155.1185763158719 16.306876061076764,159.45688044454437 15.261714770749677,159.7280198182416 13.982767402310856,161.1853846112499 12.318760611175094,162.2190873001964 14.037775891309138,161.04981645772932 15.316723259689752,159.60939640930155 16.36188455001684,159.33825679712754 24.11808149400167,155.33888418650895 27.707385398971383,152.16980554838665 31.32419354841113,151.06823670471204 28.147453310666606,151.98338683827023 24.750679117103573,154.93216168269282 16.499405772483442,159.35520303885278 15.371731748688035,159.66023502591997 13.9415110356058,161.25316863690387 12.25,162.1851955344464 13.85899830213748,161.1853846112499 15.440492359921336,159.50771911864285 17.104499151057098,158.9823852286936 23.966808149358258,155.32193744002143 28.00993208831642,151.98338683827023 31.282937181647867,151.11907854180026 27.954923599318136,152.1020169563708 27.26731748721795,152.62737765320344 26.99227504240116,153.2883123965148" stroke="#4dd2ff" stroke-dasharray="none" stroke-linecap="round" stroke-linejoin="round" stroke-width="0.5"><title>2025-12-07 13.4km</title><desc>1765091716000</desc></polyline><polyline fill="none" opacity="1" points="63.12881327519426,155.57269491357147 63.590429098170716,155.33843877038453 64.71731478371657,155.30497357340937 68.17943345621461,156.7439694449422 70.12093530001584,155.95754339658015 70.7726282266085,155.08744958795432 71.4650519611314,153.51457326766104 72.14389875961933,152.77832690102514 74.5741702982923,152.44366811518557 75.4566711364314,151.99187741942296 76.33917197451228,150.5360969665926 76.77363392553525,143.77571238605015 77.27598055644194,142.58758951391792 78.48432785779005,141.2823155381193 80.588752933254,140.4288602465822 84.0101407978218,141.41619038132194 84.89264163590269,141.41619038132194 85.5579114984721,141.2321124372247 86.72552799188998,139.80968337348895 88.5991451558657,138.4374432781624 95.1568052296061,137.0149843388499 97.75,137.1655983581004 94.83095876633888,137.13212859080522 93.07953402609564,137.53376524307532 93.81268856849056,137.19906811701367 88.49052966810996,138.5043821477302 87.02422058332013,139.4749919721944 85.5579114984721,141.2823155381193 84.93337244377472,141.5500650898466 83.42633255105466,141.46639341278933 83.3448709352524,141.2321124372247 80.60232986928895,140.44559471667162 78.51148172974354,141.2823155381193 77.33028830034891,142.55412111035548 76.77363392553525,144.02672290310147 76.43421052623307,150.31856518654968 75.95901776733808,151.74088192566705 74.46555481053656,152.52733289051685 72.22536037542159,152.79505981820694 71.54651357687544,153.44764194813615 70.65043580287602,155.38863655005116 70.0802044920274,156.04120596303255 68.51885685551679,156.7272370242281 67.79927924909862,156.7941666944971 64.63585316791432,155.32170617292286 63.617582970065996,155.40536913910182 62.91158229962457,155.7734855652816 60.90219577605603,158.8689697804657 58.0103084143484,161.04413183646102 57.25,162.98501566116465" stroke="#4dd2ff" stroke-dasharray="none" stroke-linecap="round" stroke-linejoin="round" stroke-width="0.5"><title>2025-11-30 11.3km</title><desc>1764483136000</desc></polyline><polyline fill="none" opacity="1" points="112.18939393939218,159.19730837417592 114.26515151519561,158.71181045344565 114.15909090911737,159.02925158120343 113.96212121215649,158.9358866140683 114.53787878795993,158.82384857597935 115.43181818182347,157.74080985099135 116.32575757574523,155.74276941051357 116.96212121215649,155.0145049958519 118.21969696972519,154.52899340221484 119.93181818188168,154.43562560611463 121.38636363635305,153.63266013657267 121.81060606066603,152.19478089034965 122.25,145.005175832659 122.75000000005821,143.67926260008244 124.15909090911737,142.05453587810916 126.67424242431298,141.10210160409042 129.61363636364695,141.94248510414036 129.64393939397996,142.6147884799284 129.7196969697252,142.16658656758955 130.9621212121565,142.33466244328883 131.94696969701909,141.97983537154505 132.58333333337214,142.4093627713737 131.5075757576269,141.456930773129 133.2196969697252,139.62675017796573 134.58333333337214,138.61827368025843 136.14393939397996,138.03933037399838 142.75,136.78805809772166 134.84090909099905,138.5435714449559 133.4772727272939,139.36529396582046 131.53787878790172,141.4942811626097 132.05303030303912,142.0171856295492 130.11363636364695,142.7828638482897 129.58333333331393,142.65213857823983 129.61363636364695,142.0358607550006 126.67424242431298,141.10210160409042 124.21969696972519,142.09188611737045 122.93181818182347,143.5111882462952 122.37121212121565,144.76240387260623 121.82575757586164,152.36284541685018 121.41666666668607,153.72602843750792 120.09848484850954,154.49164629085863 118.06818181823473,154.64103468008398 117.02272727276431,155.0145049958519 114.90151515154867,158.45038783882046 113.0075757575687,159.253327262908 112.17424242431298,159.2720002211572 108.61363636370515,157.6847903918242 107.37121212127386,157.83417556942732 106.40151515154867,158.69313742476515 105.11363636370515,161.0459205473162 103.96212121215649,162.33433360775234 102.25,163.2119419022638" stroke="#4dd2ff" stroke-dasharray="none" stroke-linecap="round" stroke-linejoin="round" stroke-width="0.5"><title>2025-11-23 10.7km</title><desc>1763852167000</desc></polyline><polyline fill="none" opacity="1" points="187.75,149.31249720050982 186.52471636951668,149.1776744463641 184.9602917341399,148.36873436247697 183.88816855748883,147.46541072464606 182.7175850890926,145.9553601906373 181.91896272287704,145.61829243657849 180.08103727712296,145.63177516709402 178.87763371149777,146.0362562939772 178.17747163696913,146.4272532664836 176.6786871961085,148.12605114751204 176.14262560778297,148.43614626920316 173.49513776338426,148.1799807983407 172.70745542948134,148.28784001848544 171.50405186385615,148.97543999743357 169.1081847649766,150.82250046786066 167.83914100483526,151.44267422254052 166.515397082665,151.38874621233117 165.22447325766552,150.68767961187405 163.62722852511797,150.17535881356162 162.1722042139154,150.35062673049106 160.49837925442262,149.98660842889512 158.46353322529467,150.1079480000335 154.17504051863216,151.46963821748068 148.6175040518283,153.6806627355836 147.34846029168693,154.40867302948755 147.25,154.24689339118777 148.44246353319613,153.53236373659456 156.01296596432803,150.6472333220372 156.30834683956346,150.53937647455314 156.3521069692215,150.75509006107313 158.20097244734643,150.1349123305481 160.19205834681634,149.95964406109852 162.1940842787153,150.35062673049106 163.6491085899761,150.20232312712324 165.24635332252365,150.70116170508118 166.55915721226484,151.37526420552604 167.58752025931608,151.44267422254052 168.50648298219312,151.0651775815495 172.4448946515331,148.31480480662867 173.35291734198108,148.1395335627676 175.93476499192184,148.36873436247697 176.61304700159235,148.01819176461868 177.8055105348467,146.72387070859259 178.8119935169816,146.009290932976 180.03727714746492,145.59132697051973" stroke="#4dd2ff" stroke-dasharray="none" stroke-linecap="round" stroke-linejoin="round" stroke-width="0.5"><title>2024-11-03 10.0km</title><desc>1730623436000</desc></polyline><polyline fill="none" opacity="1" points="26.523639811726753,181.52165411567694 26.790362224186538,180.1418558796322 27.5300723813707,179.07203828901402 28.00306012610963,178.51746695591282 28.049292010939098,178.5 29.0948438677151,179.4257366908205 29.229983223369345,179.60913445955885 29.69941466928867,180.78373079018274 29.109069063066272,181.18544245242447 28.789002168137813,181.6264467034016 28.561399042839184,182.4036486363766 28.561399042839184,182.86210238581043 29.194420235042344,184.06278622691752 29.404241866170196,184.28108797013556 29.603394600795582,184.800640661957 29.795434737752657,184.90542346689472 30.15106462102267,185.3027220961667 31.118377903520013,185.97506338587118 31.552246361097787,186.6473918074007 31.769180589879397,187.11888718014234 31.808299877055106,187.5685481680557 32.018121508168406,188.11424551991513 31.932770336177782,188.4678528781078 32.44132106924371,188.7821675420564 32.796950952513725,188.79089846480565 33.1241304451396,188.96551646411172 34.681789333815686,190.07432050795614 35.513963260658784,190.75530092272675 35.64910261629848,190.74657048810332 35.88381833926542,190.52830891756093 36.09719626921287,190.45409967474188 36.627084795283736,190.53703940641572 37.092959942354355,190.71601394984827 37.61929216959106,191.14816823558795 38.41945940692676,192.0124608627193 38.57238025673723,192.0997619661939 38.59727434856177,192.19579292953495 38.810652278523776,192.36166397533088 38.89244715166569,192.50570924834392 39.20540144894039,192.7283235088944 39.46856756255147,193.0164104585965 39.78507815867488,193.16918288273155 39.83486634232395,193.31322484575867 40.07669466294465,193.56638807735726 40.12648284659372,193.51837450115272 40.105145053588785,193.6100367260551 40.215390317418496,193.74534719252915 41.39963782869745,194.92820037752972 41.39608152984874,195.41267856624472 41.33562444969721,195.62218057950304 41.15780950804765,196.0280871765608 40.64925877499627,196.8136995320383 41.95797674541245,198.57689889067842 42.000652331422316,198.93476519129035 41.904632262929226,199.6155739492351 41.961533044232056,199.87741996086697 41.91530115943169,200.32255370478742 41.9544204465783,201.05133894143364 41.854844079265604,201.21280428489627 41.66636024112813,202.07684946736845 41.161365806896356,202.91905489134297 41.16492210573051,203.08051165787037 40.923093785124365,203.14160321403688 40.70260325749405,203.35105917222972 40.31496668473119,203.5779683856199 40.14070804193034,203.59542287984368 39.82419744582148,203.82233051635194 39.429448275404866,203.91832946022987 39.240964437281946,204.03178241966816 38.61861214155215,204.12341723505597 38.10294881083246,204.11469012006637 37.67974924975715,204.03178241966816 36.961376885534264,203.51251395510553 36.29279270498955,202.67468648311115 36.04385178672965,202.53068287584392 35.62420852447394,202.0419389625349 35.403717996843625,201.9983007827541 35.21167785988655,201.85429440520238 34.85960427545069,201.79756445817475 34.38661653071176,201.4091800546048 34.18746379608638,201.33062987833546 32.843182837357745,201.55755213093653 32.38442028792633,201.54882437906417 30.328879562657676,201.91538809195117 29.443361153331352,202.20776355175258 28.9561482132558,202.29940312078907 28.355133710530936,202.55250164212703 27.526516082536546,202.74450620163043 26.70856735103007,203.06305690804948 26.388500456072506,203.25069501462713 26.719236247532535,203.83542129685156 26.680116960356827,204.12778079174313 26.72990514402045,204.3328673449796 26.523639811726753,204.51177165930494 26.075546158812358,205.14447473772452 26.114665445973515,205.44991352892976 25.1331269681541,206.93779884598553 24.99087501486065,207.36975376070768 24.11602550203679,208.83138003419663 23.81729640008416,209.4901827644826 23.344308655359782,210.31912231176466 23.248288586866693,210.37583851415184 23.16293741489062,210.615790666252 22.881989807094214,210.95608363897554 22.640161486473517,212.32594769277785 22.771744543279056,213.1722701636827 23.48300430981908,214.6685533762684 23.621699964278378,214.72526256716083 23.699938538615243,214.88230292646404 23.9488794568897,215.06987799261333 24.364966420311248,215.71111543385996 25.022881704353495,216.3348930242937 25.154464761159034,216.35234118952576 25.04777579617803,216.37415138389042 25.190027749500587,216.38723749401834 25.399849380613887,216.61842463726134 25.588333218736807,216.69257868223576 25.71635997670819,216.6707686852351 26.178678824959206,217.06770851493638 26.72279254636669,217.2596338596959 27.266906267759623,217.56932936781595 28.351577411711332,218.00551560168242 28.604074628834496,218.16690313796062 28.58629313466372,218.23233030669508 28.316014423398883,218.19307402005506 27.242012175920536,217.87029844740027 26.75124293702538,217.79614688413858 26.303149284110987,217.55624369726138 25.99375128567044,217.24654807400293 25.211365542490967,216.7492846111927 24.53922506312665,216.20839356765646 23.625256263127085,215.13094872859074 23.258957483354607,214.58130828872163 23.8101838024304,215.30543596161442 24.820172670893953,216.35670322947772 25.67368439072743,216.99355526047293 26.207129215617897,217.30761503234316 27.234899578266777,217.7917850226222 30.24708468951576,218.6030819652333 30.78408581324038,218.79936067379458 31.139715696510393,219.0 30.840986594557762,218.81680761713142 30.183071310515516,218.57691138805967 29.25487731519388,218.2846719541085 27.839470379811246,217.97062090193504 26.648110270878533,217.50826286363372 26.00797648099251,217.18548100967382 25.257597427305882,216.67949268564553 24.30450934015971,215.82889246908235 23.209169299705536,214.4678893514938 22.917552795435768,213.94441259558153 22.67572447481507,213.31186779047493 22.540585119175375,212.72729903158324 22.52280362501915,212.0816446360477 22.633048888819758,211.4359783905602 22.860652014103835,210.83829029017215 25.406961978267645,206.29640145779558 26.128890641310136,205.1968358617778 26.801031120674452,204.4419554498054 27.263349968925468,204.06669094893005 28.401365595374955,203.33360455669026 28.87079704127973,203.115421131537 29.67807687628374,202.81868950062562 30.264866183671984,202.69214142574128 33.01032888247573,201.6884681489064 33.91007248713868,201.47463840075216 34.486192898024456,201.55755213093653 35.723784891786636,202.05066659199656 36.15765334936441,202.3692235845192 37.48059651510266,203.69578605351126 37.86823308788007,203.9576016799292 38.35188972912147,204.11905367783766 38.84265896801662,204.1583256733611 39.43300457423902,204.04923668863194 39.859760434148484,203.83978488928187 40.93376268161228,203.10669376637088 41.264498473043204,202.81868950062562 41.54544608081051,202.4346801433312 41.80861219443614,201.67101270801868 41.96508934308076,198.4634283273299 42.114453894042526,196.97081989606522 42.01487752672983,196.3030534983518 41.58456536797166,194.5397400686852 40.89464339445112,192.7894330592062 41.34629334619967,193.94176468457226 41.737486217782134,195.58289904714184 41.85840037808521,195.86223343445454 41.911744860582985,195.94079583091298 42.06110941154475,195.92770211035895 42.19980506603315,196.00626436045786 42.4771963749663,195.43886638619733 42.43452078900009,195.3603028678117 41.92241375708545,195.10278788189316 41.854844079265604,195.01549423811957 41.32495555319474,194.82781216981675 41.104465025578975,194.66631749485896 40.07669466294465,193.61876644929362 40.130039145442424,193.49655012666335 40.062469467608025,193.54019886210517 39.72462107850879,193.28267053930176 39.123606575783924,192.7239585369498 39.102268782793544,192.64538894919315 38.60438694623008,192.28309357755643 37.960696857524454,191.47555430760985 37.100072540022666,190.73784005131165 36.829793828728725,190.60688323913564 36.10786516570079,190.4671954348596 35.855367948592175,190.54576989310226 35.61709592680563,190.75966613921992 35.5246321571467,190.75093570567697 33.42641584589728,189.1575952610001 33.10634895095427,189.0222671270385 32.86096433151397,188.7734366171353 32.483996655239025,188.79526392536354 31.893651049016626,188.45039086988254 32.003896312831785,188.1884597049975 31.865200658357935,187.88287087777644 31.737173900401103,187.08396181398348 31.99322741634387,186.7914605093465 32.35596989728219,186.69104905220593 32.50533444824396,186.57317436670928 32.4662151610828,186.215182156433" stroke="red" stroke-dasharray="none" stroke-linecap="round" stroke-linejoin="round" stroke-width="0.5"><title>2024-10-27 42.8km</title><desc>1729986801000</desc></polyline><polyline fill="none" opacity="1" points="93.77738853503251,193.0280329900852 93.73611464968417,192.760986576679 92.61140127392719,191.47661064388376 91.83751592360204,191.13325985967822 89.73254777071998,191.24771025059454 88.79356687894324,191.70551051919028 86.99815286626108,193.4985416221316 86.42031847132603,193.84188437785633 83.8716560509638,193.62570574163692 82.88108280254528,193.89274987222598 79.8680891719996,196.0926580275409 78.53700636944268,196.7411767347876 77.42261146497913,196.70302869064471 74.63662420382025,195.53314835117635 73.23331210191827,195.68574220616574 71.27280254778452,195.31697332920157 69.260700637009,195.5458645145336 66.91840764333028,196.43599197867297 65.64923566882499,196.70302869064471 60.634458598739,198.8138655101793 59.0247770700953,199.70396422011254 58.973184713337105,199.9074142542231 58.529490445856936,200.18715738305764 57.600828025490046,202.51408161419386 57.25,202.83196328308986 58.219936305773444,200.25073525904008 58.78745222929865,199.60223904965096 58.973184713337105,199.94556109008408 59.09700636944035,199.67853293708322 60.46936305734562,198.8138655101793 68.96146496816073,195.58401299508841 71.39662420382956,195.36783808182372 73.22299363062484,195.73660677337466 74.63662420382025,195.5458645145336 76.3701273885672,196.13080630190234 77.30910828028573,196.63944858503964 78.39254777069436,196.7538927463247 79.19738853507442,196.42327592719812 83.15968152869027,193.76558608842606 83.83038216561545,193.65113854636002 85.81152866239427,193.9181826097265 86.5544585987227,193.81645162110362 88.78324840764981,191.70551051919028 89.68095541401999,191.31129374510783 91.61050955415703,191.18412671610713 92.43598726118216,191.37487719970522 92.83840764331399,191.65464392499416 94.7576433121576,193.80373524037714 96.26414012734313,194.5412826828906 97.62617834395496,194.8464731550921 97.75,195.32968951977819 96.57369426754303,196.81747277997056 96.43955414008815,197.10994042005768 96.64592356682988,197.24981594902783 95.41802547773113,198.06363337246876 93.01382165605901,198.71213944465853 90.13496815291,201.1153904054081 84.38757961784722,204.2179156893617 83.61369426752208,204.3577813912998 81.90082802553661,205.99801019418373 81.08566878980491,206.36674014032906 80.68324840761488,206.34131053201418 81.281719745195,206.25230685256975 82.27229299367173,205.64199379865022 83.5621019108221,204.3323512780844 84.82095541403396,203.92546859687718 89.89764331211336,201.22982950336882 92.34312101913383,199.169905933908 92.19866242038552,199.58952339612006 92.39471337583382,199.1063273787222 93.2098726114491,198.58498171895917 95.39738853502786,198.0127699752993 96.53242038213648,197.32611161059322 95.76885350316297,197.8983272381738 92.96222929941723,198.73757097063935" stroke="#4dd2ff" stroke-dasharray="none" stroke-linecap="round" stroke-linejoin="round" stroke-width="0.5"><title>2024-10-13 16.0km</title><desc>1728810741000</desc></polyline><polyline fill="none" opacity="1" points="139.00534895568853,193.1439057657335 137.60239429445937,191.51659896961064 136.25101884873584,191.14790863509552 134.7758532857988,191.3386107000988 133.76490066223778,191.7962941887963 131.56762608251302,193.9066968123734 128.85455934796482,193.71599959008745 128.08087111567147,193.86855739666498 125.38843606720911,195.8009363608944 123.63474274071632,196.75439921988436 122.56189505860675,196.76711199725833 121.12799286807422,196.05519400218327 119.57030056038639,195.5975297875775 118.33239938871702,195.78822346204106 116.47554763121298,195.39412280519173 114.24732552218484,195.58481686317828 113.20542536932044,195.91535237855715 106.09780947526451,198.6740105097415 104.27190524712205,199.60202144642244 103.44663779932307,200.33933913421788 102.48726439126767,202.70380442879832 102.25,202.8690606892269 103.23000509425765,200.28848981102783 103.82832399389008,199.60202144642244 103.95211411110358,199.8944066898548 104.27190524712205,199.55117175254418 106.37633723893669,198.53417250709754 114.36079979623901,195.57210393714195 116.50649516051635,195.36869690361345 118.2808201732114,195.76279765954678 119.65282730519539,195.5975297875775 121.4168364747893,196.1441840256157 122.46905247069662,196.72897366028337 123.39747834950686,196.79253754725505 124.4187468161108,196.42386644668295 126.94612837495515,194.50421244694007 128.1737137035234,193.8177048200596 129.02992868062574,193.67786010249984 131.3509933775058,193.89398367538524 132.05247070809128,193.4998756368368 133.30068772291997,192.07598863440217 134.20848191546975,191.54202583967708 135.13690779422177,191.262329917241 137.27228731533978,191.31318377886055 139.94409067754168,193.9066968123734 141.14072847686475,194.5550646783522 142.61589403974358,194.92374259148346 142.75,195.41954870036716 141.81125827814685,196.53828175965464 141.51209882833064,197.14849457608216 141.56367804377805,197.40274882962694 140.50114620482782,198.05109428307333 137.99439633218572,198.80113579893077 135.0646968925139,201.1910614966764 129.24656138563296,204.29279575005057 128.48318899644073,204.4834730311486 127.49286805914016,205.61481750586245 126.18275598576292,206.35209136490448 127.46192052983679,205.60210584050947 128.3903464085306,204.44533760365448 129.3084564442397,204.24194841437566 135.47733061638428,200.88596774345933 137.89123790117446,198.75028570243012 140.62493632204132,197.93668068152328 141.65652063168818,197.27562178273365 141.45020376972388,197.13578184660582 141.61525725928368,196.76711199725833 142.71905247069662,195.41954870036716 142.60557819664245,194.89831657162722 141.27483443706296,194.6313429775546 139.75840550183784,193.84313111157826 137.7777636271203,191.64373325605993 137.04533876723144,191.27504338503059 136.0240703005693,191.22418950425345 134.37353540502954,191.49117209313408 133.37289862456964,192.06327526730456 132.1865766683477,193.41088328649494 131.25815078965388,193.94483621369727 128.82361181866145,193.71599959008745 127.68886907794513,194.0465412134581 128.62761079979828,193.66514693675708 131.37162506370805,193.85584425495472 131.8977330616326,193.5761547318907 133.38321446767077,192.02513515636383 134.1053234844585,191.54202583967708 135.25038206827594,191.1987625542606 137.0350229240721,191.1606221172915 137.84997452882817,191.65644667590095 139.242613346898,193.37274368383078 140.18135506875115,194.08468056204583 141.29546612326521,194.60591688421118 142.40957717777928,194.7076212192187" stroke="#4dd2ff" stroke-dasharray="none" stroke-linecap="round" stroke-linejoin="round" stroke-width="0.5"><title>2024-10-06 18.0km</title><desc>1728199446000</desc></polyline><polyline fill="none" opacity="1" points="182.36940894566942,191.28223697656358 181.4960063897306,190.93672617980337 180.63338658149587,191.02974842851108 180.04033546324354,190.87028166634263 178.4013578274753,191.441703117227 176.6761182108312,193.35527804095182 176.08306709263707,193.71406948262302 175.7272364217788,193.80708928722015 173.48442492011236,193.48816390207503 172.6972843450494,193.59447247070057 170.76717252394883,194.76385966954695 169.03115015977528,196.10598130651488 167.78035143768648,196.71723897875927 166.61581469647354,196.7039508060916 164.11421725241235,195.57445002282475 163.20846645371057,195.49472009974852 162.29193290736293,195.70733309429488 160.56669329071883,195.22895325521677 159.86581469647354,195.21566489546967 157.60143769969,195.60102665048908 154.44209265179234,196.7438153191324 148.61940894566942,199.06921923206392 147.32547923323,199.8266254631526 147.25,200.0658052508952 147.41174121404765,199.52100605804299 148.66253993607825,198.75030972188688 157.74161341850413,195.3618367610252 159.15415335464058,195.20237653405638 159.79033546324354,195.33526007323235 160.78234824282117,195.12264633035375 162.05471246008528,195.46814344539598 163.55351437698118,195.28210667758685 165.35423322685529,195.81363943121687 166.74520766770002,196.50462801539106 167.79113418527413,196.43818700163683 172.28753993607825,193.44829816128913 172.98841853032354,193.28883504770783 175.73801916936645,193.54131819977192 176.41733226837823,193.11608306988637 178.21805111819413,191.2955258307993 179.55511182110058,190.80383711112518 180.68730031949235,190.87028166634263 181.60383386584,190.65765894257493 182.82228434510762,191.28223697656358 183.66333865816705,192.35862875750172 183.49081469647354,192.54467067042424 184.89257188496413,193.87353195471223 186.20806709263707,194.49809098755213 187.03833865816705,194.63097541205207 187.5019968051347,195.16251143969566 187.75,195.14922307156667 186.48841853038175,196.98300208168803 186.5962460063747,197.30191692327935 185.56110223638825,198.05933581618592 182.7468051118194,198.88318880137376 179.8031150159659,201.38128441107983 173.65694888174767,204.62340559007134 172.94528753997292,204.7562772881065 171.69448881788412,206.08498508467164 170.3250798722147,206.84234105742507 170.14177316293353,206.80248035197292 170.59464856231352,206.69618506402912 171.7268370607053,205.97868907541852 172.2228434504941,205.28776241047308 172.9992012779694,204.66326711702277 174.31469648564234,204.2380767214272 178.44448881794233,202.05894910569623 180.68730031949235,200.59731395294511 180.83825878595235,200.66375235284795 182.0243610223406,199.76018653721258 182.22923322685529,199.2419614817336 182.56349840253824,198.96291616890812 183.23202875402058,198.5908546060382 185.49640575080412,198.04604781218222 186.60702875396237,197.2620526207029 186.44528753991472,197.10259526002483 186.52076677314471,196.8634087680839 187.70686900953297,195.3618367610252 187.65295527153648,194.8967437599713 187.3294728434994,194.67084070686542 186.13258785940707,194.51137943750655 185.08666134183295,193.99312865090906 183.86821086262353,193.00977402016724 182.6497603834141,191.50814727149555 182.07827476033708,191.12277059533517 180.41773162933532,190.96330397354177 179.00519169331528,191.21579268029745 178.30431309901178,191.54801374404633 176.53594249201706,193.40843240543472 175.85662939300528,193.79380074876826 173.44129392970353,193.52802962787246 172.11501597444294,193.79380074876826 168.4273162939935,196.4647634121502 167.75878594251117,196.7438153191324 166.5511182108312,196.71723897875927 163.82308306708,195.53458506882453 162.18410543131176,195.72062139227637 160.01677316293353,195.2953950290248 157.40734824282117,195.66746819038963 150.08586261986056,198.51112695795018 157.6230031948653,195.53458506882453 160.13538338657236,195.20237653405638 162.2488019169541,195.70733309429488 163.63977635779884,195.45485511568404 165.1493610223988,195.9199456612041 166.82068690098822,196.71723897875927 167.90974440897116,196.6375099176439 172.3738019168959,193.6210495961859 172.94528753997292,193.48816390207503 175.86741214059293,193.7007809324714 176.6222044728347,193.22239201273624 177.8730031949235,191.85365620048105 178.60623003193177,191.34868123108026 179.55511182110058,191.02974842851108 181.58226837060647,190.87028166634263 182.35862619808177,191.16263721318683" stroke="#ffac00" stroke-dasharray="none" stroke-linecap="round" stroke-linejoin="round" stroke-width="0.5"><title>2024-09-22 20.8km</title><desc>1726992504000</desc></polyline><polyline fill="none" opacity="1" points="48.45717344759032,241.2146897799321 47.394807280565146,239.89205904796836 46.74437901499914,239.53133871870523 44.17518736619968,239.70501903006516 42.375669164874125,240.88069367390563 41.324143468926195,242.13651358579955 40.57615096360678,242.44378641087678 38.32133297645487,242.10979416775808 37.32400963600958,242.31018963958195 33.23715203430038,245.10232723615627 32.42411670240108,245.4095914864156 31.06905781594105,245.2092018587573 30.375267666007858,244.68818705846934 28.57574946474051,244.03357509912894 27.036402569618076,244.3141235754374 25.562098501133732,243.84654237013456 24.56477516068844,243.80646388539753 21.77877408999484,244.40763956962473 13.865230192779563,247.4669031456433 12.369245182024315,248.30851916471147 12.25,248.1081350027598 13.312366167083383,247.41346698291454 16.987285867275205,245.95732120765751 21.290952890878543,244.36756129644345 21.30179336189758,244.5545931085362 22.85198072809726,244.0469345671736 25.518736616766546,243.8331828769078 27.036402569618076,244.24732638635032 28.78171841544099,244.11373188220023 29.51887044974137,244.27404526698956 31.16662205569446,245.18248321317515 32.467478586768266,245.32943568071641 33.32387580303475,245.00881185322214 37.24812633835245,242.21667179970973 38.12620449683163,242.06971502801753 40.25093683088198,242.37698804626416 40.90136509638978,242.25675088404387 41.36750535335159,242.01627615153848 43.38383297651308,239.97221895488474 44.59796573873609,239.57141881571442 46.52756959316321,239.50461864555837 47.09127408999484,239.61149889766966 47.58993576024659,240.01229888564558 49.06423982873093,241.78916062675125 50.02904175588628,242.55066370702116 51.091407922969665,243.05832939579705 52.01284796575783,243.19192522661615 52.48982869379688,243.7530258822153 52.75,243.6728688271105 52.75,243.92669929430122 52.48982869379688,244.03357509912894 51.503345824428834,245.55654363994836 51.41662205575267,245.78365111386665 51.6117505353177,245.9038842859445 50.462660599616356,246.7054352905252 47.806745182024315,247.4268260261233 44.4136777301901,250.2054705151313 43.04777837259462,250.77989276699373 38.60318522481248,253.2512089080774 37.866033190570306,253.39815022017865 36.64105995721184,254.70725476217194 35.242639186326414,255.49538135443436 36.6085385439801,254.64046410436276 37.77930942189414,253.37143363308132 38.809154175629374,253.09090906315396 45.06410599575611,249.7111977204986 47.69834047113545,247.4268260261233 50.34341541759204,246.69207615664345 51.38410064240452,246.05083575600293 51.579229122027755,245.87716581501445 51.394941113481764,245.7435733596285 51.557548179873265,245.3561542893367 52.70663811563281,243.8331828769078 52.51150963595137,243.3388804465576 51.167291220626794,243.1251273322123 49.83391327626305,242.457146078792 48.5005353318993,241.2547692421067 47.514052462531254,239.97221895488474 47.047912205627654,239.67829900063225 46.2240364025929,239.50461864555837 44.630487152026035,239.61149889766966 43.18870449683163,240.21269831279642 41.519271948665846,241.97619697656773 40.73875802999828,242.3903477224958 38.234609207720496,242.12315387762646 37.32400963600958,242.29682995320763 32.65176659531426,245.38287289124855 31.556879015057348,245.3561542893367 30.190979657461867,244.66146828195633 28.423982869426254,244.10037242256658 26.938838329806458,244.3141235754374 25.464534261322115,243.9133398111153 24.69486081379,243.92669929430122 22.917023554618936,244.14045079646166 21.464400428289082,244.59467131114798 21.41019807284465,244.35420186872216 22.35331905784551,243.96677773369447 25.1610010706936,243.6862283404771 25.432012848032173,243.9133398111153 26.99304068525089,244.287404704839 28.510706638160627,244.10037242256658 30.03921306214761,244.5813119119557 31.48099571740022,245.30271706535132 32.391595289169345,245.36951359111845 33.334716274112,245.00881185322214 36.80366702360334,242.60410231477726 38.050321199174505,244.5545931085362 38.288811563223135,244.5679525111118 38.61402569594793,245.1557645608773 39.43790149898268,245.32943568071641 39.784796573920175,245.9973988812999 40.93388650967972,247.173003918193 41.042291220568586,247.77416055992944 41.62767665955471,248.24172448605532 41.19405781588284,248.5623385608851 41.963731263473164,251.39438755316223 38.51646145613631,253.29128383150237 37.85519271955127,253.42486680057482" stroke="#4dd2ff" stroke-dasharray="none" stroke-linecap="round" stroke-linejoin="round" stroke-width="0.5"><title>2024-08-22 19.8km</title><desc>1724317734000</desc></polyline><polyline fill="none" opacity="1" points="78.98311897105305,251.191028819434 77.34807073947741,252.18950130608573 75.88665594853228,252.18950130608573 75.75643086817581,251.77941524227208 74.71463022503303,251.70809580579225 74.02009646303486,252.61741593515035 73.28215434082085,252.97401047351013 72.35610932472628,252.7422241255117 69.36093247588724,252.92052134990809 65.19372990354896,253.72285608685343 62.18408360128524,254.0081295666896 60.70819935697364,254.32906154589728 59.941318327968474,254.75696972230799 59.49276527331676,254.4895272632857 57.25,254.3825501385436 57.49598070740467,254.06161828029144 59.92684887466021,254.2934024729475 59.941318327968474,254.7213107568823 60.57797427655896,254.27557293312566 62.34324758843286,253.8476633048558 68.9847266880679,253.08098866028013 69.40434083598666,252.84920248703565 72.09565916401334,252.65307542933442 73.16639871377265,252.8848619229102 74.02009646303486,252.49260763503844 74.78697749192361,251.60111658390088 75.8143086816417,251.72592566828826 75.97347266878933,252.10035226259788 77.52170418004971,251.9755435076222 78.86736334406305,251.22668867206085 80.64710610924521,249.3723644491547 81.76125401922036,249.1049118402152 89.719453376194,244.9147551421629 93.62620578776114,241.54470953669806 97.75,240.24303027770657 93.78536977490876,241.56254067650298 89.89308681664988,244.7899400658498 81.73231511248741,249.2118929443095 80.50241157558048,249.53283577249385 79.37379421218066,250.83442979988467 77.073151125398,252.29648008436197 79.11334405140951,251.03055937151657 80.43006430857349,249.4793453515158 82.34003215428675,248.83745872715372 86.39147909963503,246.69781567169412 87.6647909967578,245.78845760170952 89.86414790997515,244.8969244236796" stroke="#4dd2ff" stroke-dasharray="none" stroke-linecap="round" stroke-linejoin="round" stroke-width="0.5"><title>2024-07-03 11.2km</title><desc>1719998343000</desc></polyline><polyline fill="none" opacity="1" points="122.08642208774108,251.45462652599963 120.03385022690054,252.77588581644522 118.50208018155536,252.83251095486048 118.34890317701502,252.39838434802368 117.20007564296247,252.36063414900855 116.41887291986495,253.2855112937832 115.60703479580116,253.64413559321838 114.30503025720827,253.3987611650664 111.57847957639024,253.56863581185462 102.32658850227017,255.15412325084617 102.25,255.3617453666957 102.77080181543715,255.22962223528884 104.83869137667352,255.56936719547957 105.68116490164539,254.81437735131476 106.58490922843339,254.64450411344296 106.75340393348597,254.3613816233119 111.62443267775234,253.47426103180624 114.3203479576623,253.30438627829426 115.59171709534712,253.56863581185462 116.40355521941092,253.24776131776161 117.46047655068105,252.22850837765145 118.37953857786488,252.34175904589938 118.62462178518763,252.73813571229402 120.18702723144088,252.66263547552808 121.74943267775234,251.73775449526147 122.37745839636773,250.77511722229247 123.52628593047848,249.7935983563366 124.65979576401878,249.5293421811366 133.05389561265474,245.15017215546686 137.0518154312158,241.7524522710155 138.15468986384803,241.18615815005614 141.09568835096434,240.41221939797106 142.75,239.43063280450588 140.8046520423959,240.6576150438632 137.41944024211261,241.56368780130288" stroke="#4dd2ff" stroke-dasharray="none" stroke-linecap="round" stroke-linejoin="round" stroke-width="0.5"><title>2024-06-26 10.0km</title><desc>1719394224000</desc></polyline></svg>