<?xml version="1.0" encoding="utf-8" ?>
<svg baseProfile="full" height="300mm" version="1.1" viewBox="0,0,200,300" width="200mm" xmlns="http://www.w3.org/2000/svg" xmlns:ev="http://www.w3.org/2001/xml-events" xmlns:xlink="http://www.w3.org/1999/xlink"><defs /><rect fill="#222222" height="300" width="200" x="0" y="0" /><text fill="#FFFFFF" style="font-size:12px; font-family:Arial; font-weight:bold;" x="10" y="20">Over 10km Runs</text><text fill="#FFFFFF" style="font-size:4px; font-family:Arial" x="10" y="280">Runner</text><text fill="#FFFFFF" style="font-size:9px; font-family:Arial" x="10" y="290">jianbo</text><text fill="#FFFFFF" style="font-size:4px; font-family:Arial" x="65" y="280">SPECIAL TRACKS</text><rect fill="yellow" height="2.6" width="2.6" x="65" y="283" /><text fill="#FFFFFF" style="font-size:3px; font-family:Arial" x="70" y="285.5">Over 20.0 km</text><rect fill="red" height="2.6" width="2.6" x="65" y="287" /><text fill="#FFFFFF" style="font-size:3px; font-family:Arial" x="70" y="289.5">Over 40.0 km</text><text fill="#FFFFFF" style="font-size:4px; font-family:Arial" x="120" y="280">STATISTICS</text><text fill="#FFFFFF" style="font-size:3px; font-family:Arial" x="120" y="285">Number: 11</text><text fill="#FFFFFF" style="font-size:3px; font-family:Arial" x="120" y="290">Weekly: 1.0</text><text fill="#FFFFFF" style="font-size:3px; font-family:Arial" x="141" y="285">Total: 183.9 km</text><text fill="#FFFFFF" style="font-size:3px; font-family:Arial" x="141" y="290">Avg: 16.7 km</text><text fill="#FFFFFF" style="font-size:3px; font-family:Arial" x="167" y="285">Min: 10.0 km</text><text fill="#FFFFFF" style="font-size:3px; font-family:Arial" x="167" y="290">Max: 42.8 km</text><polyline fill="none" points="24.99190010118764,69.59059021355642 25.265271683922037,69.14142809846089 29.85791427595541,66.6485578383581 33.95848801883403,62.98779343154456 38.368882888928056,61.81992643000558 40.44650691864081,60.67451099467871 42.141410732408985,58.675631176811294 43.28957138035912,55.95801712873799 45.03914951067418,54.63288454322901 45.03914951067418,54.11630477117433 46.40600742492825,53.15052119085158 47.53594330069609,51.80290747032268 49.194397569983266,48.613514501732425 50.48835639562458,47.917231000144966 51.454269321635365,47.67016200853686 51.618292271276005,47.917231000144966 51.308471144060604,48.41136795829516 52.47485656430945,48.523671621791436 56.210934863309376,50.23067861562595 57.012824839679524,50.34298113551631 59.400269996607676,49.37717715745384 60.32973337837029,48.23168194980826 61.332095848745666,45.918208448259975 62.31623354705516,45.0197640605038 65.59669254138134,44.59300139351399 67.0,43.80685696969158 65.34154573071282,44.6828462502599 62.18866014177911,45.08714754637913 61.25919676013291,46.120357812789734 60.275059061707,48.366446473111864 59.527843402000144,49.30979528975149 57.90583867696114,50.095915498561226 56.19271009112708,50.34298113551631 52.21970975364093,48.47875016485341 51.08977387775667,48.47875016485341 49.57711778592784,49.175031478051096 47.02564967935905,53.352662372228224 44.237259534187615,55.1270029276202 43.49004387448076,55.935557336269994 42.451231859624386,58.316279624559684 41.12082348961849,60.15794869011734 40.50118123518769,59.97827449494798 39.8450894363923,60.809266132928315 38.5511306108674,61.52795848698588 34.34120823489502,62.7407452793268 29.620992237585597,66.78330847123289 18.704353695502505,72.53257415193366 17.319271009066142,72.89189711539075 15.624367195297964,74.8232456654805 13.41916976030916,76.19314303029387 15.697266284143552,74.64358621576685 17.392170097795315,72.7346934077359 18.777252784231678,72.37537012824032 29.05602429958526,67.07526782731293 33.812689841375686,62.875498859240906 38.60580492741428,61.41566299711121 34.3958825514419,62.628450551768765 29.89436382043641,66.53626556663949 18.959500506171025,72.39782785438001 17.465069186524488,72.80206644226564 15.569692878751084,74.91307532260544 13.328045899397694,76.14822852914222 15.46034424554091,74.8232456654805 17.55619304755237,72.59994726261357 19.761390482541174,71.90375722735189 28.85555180546362,67.0528094322508 34.21363482961897,62.628450551768765 38.5511306108674,61.483040299484855 34.14073574077338,62.78566315061471 33.22949713119306,63.48188871127786 32.86500168743078,64.35778153120191 30.860276746563613,65.9523446161038 30.5869051637128,65.77267624744854 28.81910226121545,67.18755976035027 20.089436381938867,71.83638385421364 17.392170097795315,72.80206644226564 16.04353695572354,74.48638404913072 14.439757002983242,75.63171095401049 13.0,76.19314303029387 15.515018562204204,74.77833082001598 17.519743503187783,72.66732034792949 18.86837664525956,72.37537012824032 27.889638879452832,67.52443513591425 22.003037461894564,70.7134905619314" stroke="#4dd2ff" stroke-linecap="round" stroke-linejoin="round" stroke-width="0.5"><title>2025-12-07 13.4km</title><desc>1765091716000</desc></polyline><polyline fill="none" points="80.80455037928186,72.78427872242901 81.13217768148752,72.27961730484094 84.06912242685212,70.63584758246725 86.77204767067451,68.27108491495164 89.54517876490718,67.50685241134488 90.90249187435256,66.82913253569131 91.23011917661643,66.49748092468508 91.08970747562125,66.35328427304194 91.41733477788512,66.3388645978921 91.8619718310074,65.74765635677613 92.91505958832568,63.5990934330257 94.49469122424489,62.60410770771705 95.47757313109469,61.681214682233986 97.16251354280394,59.11437940996984 97.56034669553628,58.912491053117265 98.5315276273177,58.88364983026986 101.51527627301402,60.1238158641645 103.1885157096549,59.44605236766074 103.75016251357738,58.696181705003255 104.346912242705,57.34063383546163 104.93196099676425,56.70611656231631 107.02643553627422,56.41769845956151 107.78699891659198,56.028332870417216 108.54756229690975,54.77370142489963 108.92199349944713,48.94741693121614 109.35492957750103,47.92346011572954 110.39631635969272,46.79853927216027 112.20996749732876,46.06300813900452 115.15861321776174,46.913916276796954 115.9191765980213,46.913916276796954 116.49252437701216,46.755272865520965 117.49880823399872,45.529384560111794 119.11354279523948,44.34675048157078 124.76511375949485,43.12083642856305 127.0,43.25063971333293 124.48429035756271,43.22179455166042 122.97486457205378,43.567936013190774 123.60671722644474,43.27948486778041 119.01993499463424,44.40444023178134 117.7562296858523,45.240938348462805 116.49252437701216,46.79853927216027 115.95427952328464,47.029293165360286 114.65547128929757,46.95718262359878 114.58526543877088,46.755272865520965 112.22166847239714,46.07743036341708 110.41971830988768,46.79853927216027 109.40173347777454,47.89461612937157 108.92199349944713,49.163744666097045 108.6294691223884,54.586226582032396 108.21993499458767,55.81201808301557 106.93282773566898,56.48980305323494 105.00216684723273,56.720537448403775 104.41711809317349,57.28295059208176 103.64485373784555,58.95575287377869 103.15341278439155,59.518155057645345 101.80780065007275,60.109395405954274 101.18764897080837,60.16707722796127 98.46132177679101,58.89807044259214 97.58374864567304,58.97017347707151 96.97529794147704,59.287426290153235 95.24355362949427,61.95519932414027 92.75124593719374,63.82981352798379 92.09599133260781,65.50252033884317 90.86738894908922,66.85797176089545 89.4749729144387,67.5645305137441 87.0177681473433,68.19898772644956 83.98721560131526,70.78003885135695 82.20866738894256,71.86146759145049 76.34647887328174,74.83173941547284 74.55622968584066,76.33126491290022 73.0585048754001,76.87916357142967 73.0,76.7061432251212 74.22860238351859,76.28800964419497 76.21776814735495,74.42801766378398 77.09534127847292,74.2117375696107 79.72806067176862,72.78427872242901" stroke="#4dd2ff" stroke-linecap="round" stroke-linejoin="round" stroke-width="0.5"><title>2025-11-30 11.3km</title><desc>1764483136000</desc></polyline><polyline fill="none" points="138.55655893537914,75.27007125543605 139.26235741446726,74.55846370589279 139.23669201519806,74.32126029502251 142.3678707224899,72.64501011265384 145.25522813689895,70.09896475734422 148.32224334601779,69.1817432478565 150.11882129282458,68.09055722547055 150.43963878328213,68.13800029279082 152.10788973385934,65.18068156267691 154.62309885933064,63.39360499722534 156.30418250948424,60.64177374121209 156.95865019015037,60.072421827862854 157.89543726237025,59.787744904795545 161.11644486692967,61.22693830032949 162.87452471483266,60.815741867467295 162.78469581750687,61.08460122566612 162.6178707224317,61.0055250035075 163.10551330802264,60.910633471241454 163.86264258553274,59.993344969378086 164.61977186310105,58.301088284511934 165.1587452471722,57.6842787850328 166.22385931562167,57.27307077178557 167.6739543726435,57.19399215361045 168.90589353610994,56.513913985021645 169.2652091255295,55.29609040290234 169.63735741446726,49.20679562493751 170.0608365019434,48.083802573397406 171.25427756656427,46.70772699423833 173.38450570346322,45.901054999791086 175.87404942966532,46.6128246752196 175.89971482893452,47.182237515356974 175.9638783269911,46.80262924169074 177.0161596958642,46.944982478627935 177.8502851711819,46.644458789523924 178.38925855513662,47.00825053216249 177.47813688218594,46.20158046520373 178.92823193914955,44.65149404857948 180.08317490492482,43.79735663464817 181.40494296577526,43.30701586860232 187.0,42.24724058517313 180.3013307985384,43.73408696576371 179.14638783270493,44.43005157231528 177.50380228139693,46.23321468291397 177.94011406844947,46.6760928958829 176.29752851714147,47.324590322590666 175.84838403039612,47.2138714864559 175.87404942966532,46.691909946050146 173.38450570346322,45.901054999791086 171.30560836504446,46.739361084706616 170.2148288973258,47.94145062545431 169.74001901136944,49.001177928745165 169.2780418251641,55.438434027528274 168.93155893537914,56.59299303077569 167.81511406844947,57.24143933052255 166.09553231939208,57.36796504801896 165.21007604559418,57.6842787850328 163.4134980989038,60.5943278469058 161.80941064638318,61.27438395608624 161.10361216729507,61.2901991707331 158.08792775665643,59.9458988304832 157.03564638784155,60.072421827862854 156.21435361215845,60.79992659317213 155.12357414449798,62.79263549260213 154.1482889733743,63.88386746679316 152.69819391635247,64.62716498618829 151.94106463878416,65.43371690080676 151.23526615969604,67.14169212176057 150.43963878328213,68.16962899440841 150.10598859313177,68.13800029279082 148.65589353616815,69.1184863455419 145.6402091254713,69.94082359485037 142.03422053233953,72.97709918681358 134.7965779468068,76.81978043781419 133.8084600760485,77.07279236943577 133.0,77.75275941482687 133.70579847908812,77.00953943420609 134.6810836502118,76.80396717517579 137.81226235738723,75.12775006747688" stroke="#4dd2ff" stroke-linecap="round" stroke-linejoin="round" stroke-width="0.5"><title>2025-11-23 10.7km</title><desc>1763852167000</desc></polyline><polyline fill="none" points="52.238554216804914,129.02432476208196 53.14939759031404,127.02893059940834 53.6554216867662,126.49444525082072 54.089156626490876,126.17375307445764 54.13253012049245,126.44099660520442 56.98072289157426,124.6593635504396 59.872289156599436,121.89778806192044 63.775903614470735,120.704058131887 65.27951807231875,119.83102540060645 65.53975903621176,119.58158648967219 65.30843373492826,119.22524442693975 67.0,116.85554692271398 66.88433734938735,116.3388407020393 66.52289156633196,116.0181255487696 64.90361445781309,115.83995014998072 62.8361445782939,114.77089305383561 61.41927710844902,113.57710310033872 59.872289156599436,111.58149147091899 58.816867469926365,111.1360386104061 56.38795180723537,111.15385675171274 54.797590361500625,111.6883999491256 53.872289156657644,112.20512312349456 51.891566265083384,114.4501743526198 51.18313253013184,114.85998145319172 47.68433734943392,114.52144523788593 46.64337349397829,114.66398690070491 45.053012048243545,115.57268663193099 41.88674698793329,118.01367471279809 40.20963855419541,118.8332671232638 38.46024096390465,118.76199840616027 36.754216867440846,117.83550182252657 34.64337349392008,117.15844279696466 32.720481927739456,117.3900686170382 30.5084337349399,116.9089991828514 27.8192771084141,117.0693558423227 22.151807228918187,118.86890146837686 14.807228915626183,121.7908872840053 13.130120481888298,122.75299138326955 13.0,122.53919103663065 14.575903614400886,121.59490231506061 24.580722891550977,117.78204991178063 24.971084337332286,117.63951138456468 25.028915662667714,117.92458829567477 27.47228915663436,117.10499063091993 30.103614457824733,116.87336434498138 32.74939759034896,117.3900686170382 34.672289156646,117.19407756315195 36.78313253010856,117.85331912159745 38.518072289123666,118.74418122126372 39.87710843374953,118.8332671232638 41.091566265095025,118.33438535085588 46.29638554214034,114.6996222940943 47.49638554221019,114.4679920773051 50.90843373496318,114.77089305383561 51.80481927713845,114.30763247470895 53.38072289159754,112.59711875783978 54.710843373439275,111.65276379867282 56.33012048189994,111.1004023211135 58.8024096385343,110.97567523793259 59.82891566265607,111.45676481112605 62.8361445782939,114.71743998739112 64.75903614464914,115.73304480321531 66.60963855421869,116.0181255487696 66.95662650605664,116.85554692271398 65.5253012048197,118.53037482801301 65.1638554216479,119.31433002659469 65.39518072287319,119.51031814877933 64.52771084336564,120.2408169440605 60.33493975905003,121.55926865526999 56.64819277107017,124.6949964309897 52.03614457830554,127.15364355743804" stroke="#4dd2ff" stroke-linecap="round" stroke-linejoin="round" stroke-width="0.5"><title>2024-11-03 10.0km</title><desc>1730623436000</desc></polyline><polyline fill="none" points="93.75276838400168,103.19959384238246 93.48723140452057,102.94928793491272 93.44929755027988,102.79793952795444 93.06047554459656,102.52434693580653 92.88503146884614,101.93640851125019 91.78494969662279,100.35301288176925 91.61424735264154,99.86401223577559 91.5857969619683,99.19453878523564 91.70908198819961,98.5716288055446 91.60476388907409,98.42608789652877 91.60476388907409,98.16411312040509 91.82762528260355,97.20352640197234 91.92245991813252,97.0288721542347 92.03151974899811,97.0288721542347 92.38714963226812,95.18914117284294 93.3734298418567,93.76271771868778 94.00408016817528,93.023289274548 94.06572268126183,93.0 95.45979182366864,94.23431558776065 95.63997763118823,94.47884594607967 96.26588622573763,96.04497438691396 95.47875875077443,96.58058993656596 95.05200289087952,97.16859560453668 94.74853205715772,98.20486484849971 94.74853205715772,98.81613651441512 95.5925603134092,100.41704830255912 95.87232248825603,100.70811729351408 96.13785946776625,101.40085421594267 96.39391298370901,101.54056462252265 96.86808616138296,102.07029612821862 98.15783720472245,102.966751181164 98.73632848149282,103.86318907653549 99.025574119878,104.49184957352554 99.07773316942621,105.09139755740762 99.35749534424394,105.81899402655472 99.24369378160918,106.29047050414374 99.92176142567769,106.70955672274067 100.39593460338074,106.72119795307299 100.8321739268722,106.95402195215138 102.90905244511669,108.43242734393789 104.01861768090748,109.3404012302999 104.19880348842707,109.32876065080563 104.51175778571633,109.03774522341337 104.79626169230323,108.93879956632372 105.50277972707408,109.04938587521974 106.12394658982521,109.28801859979649 106.82572289282689,109.86422431411484 107.89261254260782,111.01661448362574 108.09650700900238,111.13301595492521 108.1296991314448,111.26105723937872 108.4142030380608,111.4822186337733 108.5232628689264,111.67427899779432 108.94053526528296,111.97109801185798 109.2914234167838,112.35521394479656 109.71343754490954,112.5589105103063 109.77982178979437,112.75096646101156 110.10225955062197,113.08851743647392 110.16864379547769,113.02449933486787 110.14019340483355,113.14671563474258 110.28718708991073,113.3271295900413 111.8661837716354,114.90426717004084 111.86144203983713,115.55023808832993 111.78083259961568,115.82957410600284 111.5437460107787,116.37078290208228 110.8656783666811,117.4182660427141 112.61063566058874,119.76919852090577 112.66753644193523,120.24635358839078 112.53950968393474,121.15409859898136 112.61537739235791,121.50322661449172 112.55373487927136,122.09673827304869 112.60589392881957,123.06845192191031 112.47312543904991,123.28373904652835 112.22181365487631,124.43579928982581 111.54848774254788,125.55873985512153 111.55322947434615,125.77401554382595 111.23079171351856,125.85547095204674 110.9368043433642,126.13474556297297 110.41995557965129,126.43729118082774 110.18761072261259,126.46056383978794 109.76559659445775,126.76310735513471 109.23926436723559,126.89110594697195 108.987952583062,127.04237655955876 108.15814952211804,127.16455631340796 107.47059841448208,127.15292016008607 106.90633233301924,127.04237655955876 105.94850251407479,126.35001860680495 105.05705694001517,125.23291531081486 104.72513571564923,125.04091050112402 104.16561136598466,124.38925195004776 103.8716239958303,124.33106771033636 103.61557047988754,124.13905920693651 103.14613903398276,124.06341927756512 102.51548870763509,123.54557340613974 102.24995172812487,123.44083983778182 100.4575771164964,123.74340284124992 99.84589371728362,123.73176583875102 97.10517275024904,124.2205174559349 95.92448153780424,124.61035140233435 95.27486428437987,124.732537494383 94.47351161408005,125.0700021895027 93.36868811008753,125.32600826883936 92.27808980140253,125.75074254406354 91.85133394147852,126.00092668616708 92.29231499673915,126.78056172913784 92.24015594719094,127.17037438899206 92.30654019204667,127.44382312663947 92.03151974899811,127.68236221240295 91.43406154512195,128.5259663169636 91.48622059467016,128.93321803857543 90.17750262425398,130.91706512797828 89.98783335316693,131.4930050142757 88.82136733608786,133.4418400455943 88.42306186680798,134.32024368597558 87.79241154048941,135.4254964156862 87.66438478251803,135.50111801887033 87.55058321988326,135.82105422166933 87.17598640947836,136.2747781852995 86.85354864867986,138.10126359036803 87.02899272440118,139.22969355157693 87.97733907977818,141.2247378350221 88.16226661906694,141.3003500895502 88.26658471819246,141.50973723528296 88.5985059425584,141.75983732348686 89.1532885604538,142.61482057848116 90.0305089391768,143.4465240323916 90.20595301489811,143.4697882526998 90.06370106159011,143.4988685118551 90.25337033270625,143.5163166586899 90.53313250752399,143.82456618301512 90.78444429166848,143.9234382429786 90.95514663564973,143.89435824697648 91.57157176663168,144.4236113532461 92.29705672850832,144.67951181292665 93.02254169038497,145.09243915708794 94.46876988231088,145.674020802242 94.8054328384751,145.88920418394628 94.78172417957103,145.97644040892555 94.42135256456095,145.92409869340918 92.98934956791345,145.49373126319915 92.33499058274901,145.3948625121884 91.73753237884375,145.07499159634972 91.32500171425636,144.66206409866936 90.28182072335039,143.99904614825573 89.3856334175216,143.2778580902086 88.16700835086522,141.84126497145553 87.67860997785465,141.10841105162763 88.41357840326964,142.07391461548468 89.76023022789741,143.47560430596786 90.89824585433234,144.32474034729603 91.60950562084327,144.7434867097909 92.9798661043751,145.3890466968296 96.99611291938345,146.4707759536468 97.71211441769265,146.732480898394 98.1862875953666,147.0 97.78798212611582,146.75574348950977 96.91076174739283,146.43588185074623 95.67316975363065,146.04622927214587 93.7859605064441,145.6274945359146 92.19748036121018,145.01101715151162 91.34396864136215,144.5806413462342 90.34346323643695,143.905990247531 89.07267912023235,142.77185662544434 87.61222573296982,140.95718580199173 87.2234037272865,140.2592167941075 86.9009659664589,139.41582372063203 86.7207801589102,138.63639870877523 86.69707150003524,137.77552618139453 86.84406518511241,136.91463785408268 87.14753601883422,136.11772038689742 90.54261597106233,130.06186861039532 91.50518752177595,128.59578114903707 92.40137482760474,127.58927393307386 93.01779995858669,127.08892126524006 94.53515412719571,126.11147274225368 95.16106272174511,125.82056150871358 96.23743583509349,125.42491933416386 97.01982157825842,125.2561885676514 100.68043850999675,123.91795753187762 101.88009664954734,123.63285120100409 102.64825719740475,123.74340284124992 104.29837985575432,124.40088878932511 104.87687113252468,124.82563144602682 106.64079535350902,126.5943814046841 107.15764411722193,126.94346890657471 107.80251963884803,127.15873823711445 108.45687862404156,127.21110089781723 109.24400609903387,127.0656489181747 109.81301391223678,126.78637985237583 111.24501690882607,125.80892502182905 111.68599796408671,125.42491933416386 112.06059477446252,124.91290685777494 112.41148292593425,123.89468361069157 112.62011912412709,119.61790443643622 112.81927185875247,117.62775986141787 112.68650336901192,116.73740466446907 112.11275382398162,114.38632009158391 111.19285785930697,112.05257741227615 111.7950577949523,113.5890195794309 112.31664829040528,115.77719872952366 112.47786717081908,116.14964457927636 112.54899314747308,116.2543944412173 112.74814588209847,116.23693614714648 112.93307342141634,116.3416858139426 113.30292849999387,115.58515518159766 113.24602771870559,115.48040382374893 112.5632183428097,115.13705050919452 112.47312543904991,115.02065898415822 111.76660740430816,114.77041622642355 111.4726200341538,114.55508999314407 110.10225955062197,113.15835526572482 110.17338552727597,112.99540016888568 110.08329262351617,113.05359848280568 109.63282810471719,112.71022738573447 108.83147543441737,111.96527804926518 108.80302504374413,111.86051859892177 108.13918259501224,111.37745810341221 107.28092914339504,110.30073907681071 106.13343005339266,109.31712006841553 105.77305843832437,109.1425109855154 104.81048688763985,108.9562605798128 104.47382393147564,109.06102652413756 104.15612790244631,109.34622151895746 104.0328428762441,109.33458094090383 101.23522112789215,107.2101270146668 100.80846526796813,107.02968950271679 100.48128577537136,106.69791548951252 99.97866220702417,106.72701856715139 99.19153473206097,106.26718782651005 99.33852841713815,105.91794627333002 99.15360087784939,105.51049450370192 98.98289853389724,104.44528241864464 99.32430322180153,104.05528067912746 99.80795986307203,103.92139873627457 100.00711259769741,103.76423248894571 99.9549535481492,103.28690954191188 99.85063544905279,103.08317265647929 98.7742623357044,102.3613548446483 99.29585283115739,101.55802839403987 98.94970641142572,101.37174782879083 98.61304345529061,101.99462056565972 98.42337418420357,102.11686564438787 97.6836640270194,101.86073273236252 97.28061682597036,101.53474336391082 96.88231135671958,100.73140273464378 96.95817906517186,100.49854780237365 97.17629872693215,100.33554866090708 97.01507984648924,99.88147663247582 96.94869560160441,99.09557233276064" stroke="red" stroke-linecap="round" stroke-linejoin="round" stroke-width="0.5"><title>2024-10-27 42.8km</title><desc>1729986801000</desc></polyline><polyline fill="none" points="173.57222929934505,125.23917360889027 174.02624203823507,124.56102438658127 177.27312101912685,122.76391245958803 180.74012738850433,119.79692999826511 183.79439490445657,119.01702663373726 185.18394904455636,118.2371187598037 185.472866242053,117.89802697327104 185.25273885345086,117.71152612725564 185.44535031844862,117.33852366176143 186.9174522293033,115.38872125773923 186.6147770700627,114.72747752047144 184.95006369426847,114.49010718302452 182.94140127382707,113.33715960165136 181.7031847133767,112.37071065344207 181.64815286622616,112.01464876890532 180.1485350318835,110.3021475251735 179.11668789811665,109.8443464795564 176.3100636942545,109.99694700079272 175.05808917194372,110.60734735892038 172.66420382168144,112.99805549616576 171.89375796174863,113.45584583713207 168.49554140126565,113.1676076555159 167.17477707000216,113.5236664963013 163.157452229294,116.45687737004482 161.3826751591987,117.32156897970708 159.89681528660003,117.27070492085477 156.18216560507426,115.71086446823028 154.3110828025383,115.91432294154947 151.6970700636739,115.42263110559725 149.0142675159732,115.72781935270177 145.89121019106824,116.91465597155911 144.19898089172784,117.27070492085477 137.51261146500474,120.08515401356271 135.36636942671612,121.27195229347853 135.2975796178216,121.54321900561627 134.70598726114258,121.916209844072 133.467770700634,125.01877548558696 133.0,125.44261771078163 134.29324840765912,122.00098034538678 135.04993630573153,121.1363187328534 135.2975796178216,121.5940814534406 135.462675159215,121.23804391610611 137.29248407646082,120.08515401356271 148.6152866242337,115.77868399344152 151.86216560512548,115.49045077576011 154.29732484079432,115.98214236448985 156.18216560507426,115.72781935270177 158.49350318475626,116.50774173585523 159.74547770700883,117.18593144671468 161.19006369425915,117.33852366176143 162.26318471343257,116.89770123625931 167.5462420381955,113.35411478456808 168.44050955411512,113.20151806180365 171.0820382165257,113.55757681296382 172.0726114649442,113.42193549479998 175.04433121019974,110.60734735892038 176.24127388536,110.08172499347711 178.81401273887604,109.91216895480466 179.91464968159562,110.1665029329306 180.4512101910659,110.53952523332555 183.010191082838,113.404980320498 185.01885350316297,114.38837691051594 186.83490445860662,114.7952975401131 187.0,115.43958602636121 185.43159235670464,117.42329703994619 185.25273885345086,117.81325389340054 185.5278980891453,117.99975459869893 183.89070063689724,119.08484449662501 180.685095541412,119.94951925954956 176.8466242038412,123.15385387386777 169.18343949044356,127.2905542524677 168.1515923566767,127.47704185506154 165.86777070065727,129.66401359223528 164.78089171973988,130.1556535204436 164.24433121015318,130.12174737600435 165.04229299357394,130.00307580341178 166.36305732489564,129.1893250648718 168.082802547724,127.4431350374507 169.7612738853204,126.90062479583139 176.5301910827984,123.30643933782994 179.79082802549237,120.55987457853917 179.59821656049462,121.11936452816008 179.85961783438688,120.4751031716296 180.94649681524606,119.7799756252789 183.86318471340928,119.01702663373726 185.3765605094959,118.10148214745277 184.35847133753123,118.86443631755537 180.6163057325175,119.98342796084762 177.28687898087082,122.88259040065168 170.36662420380162,126.69718289277807 167.98649681528332,127.62962242905633 166.80331210192526,128.95198017485382 165.74394904461224,129.71487297824933 164.6157961783465,130.1556535204436 166.33554140129127,129.22323144364054 167.94522292993497,127.52790206554346 169.67872611462371,126.90062479583139 176.62649681523908,123.20471571435337 179.13044585986063,121.18718133406946 177.02547770697856,123.03517617144098 175.59464968153043,123.81505630444735" stroke="#4dd2ff" stroke-linecap="round" stroke-linejoin="round" stroke-width="0.5"><title>2024-10-13 16.0km</title><desc>1728810741000</desc></polyline><polyline fill="none" points="53.45530939649325,185.2534517453023 55.2841864018701,183.94867581891594 57.566844919812866,182.88112248714606 60.77081741794245,180.11900082837383 63.864782276563346,179.3225503298163 65.36363636370515,178.5260951261007 65.72116119175917,178.22106848286057 65.29488158901222,177.848257203892 65.37738731858553,177.5432290269964 66.90374331554631,175.5096902101941 66.64247517188778,174.73015886392386 64.96485867077718,174.4929092986422 63.438502673758194,173.79810459834698 61.99465240642894,172.52711112341785 60.12452253635274,170.35792124766158 58.32314744085306,169.8664593163121 56.35676088620676,170.12066398728348 55.009167303331196,170.7307532417326 52.080213903740514,173.54390686201805 48.463712757860776,173.28970864634903 47.43239113833988,173.49306725720817 43.8433919022209,176.06891644270218 41.505729564582,177.33987652568612 40.075630252133124,177.35682257915323 38.164247517241165,176.40784030304349 36.08785332314437,175.79777674085926 34.43773873185273,176.05197022730135 31.962566844944376,175.52663649372698 28.99236058059614,175.78083049140696 27.603514132963028,176.22143228528148 18.129106187960133,179.8987064803514 15.69518716580933,181.1357393086073 14.595110771653708,182.11857921769843 13.316271963354666,185.27039680416055 13.0,185.49068237531174 14.306340718176216,182.05079738497443 15.103896103915758,181.1357393086073 15.268907563120592,181.52548702634522 15.69518716580933,181.06795698174392 18.50038197101094,179.71230328931415 29.14362108486239,175.76388423978642 32.00381970976014,175.49274392447842 34.368983957276214,176.01807779012597 36.19786096259486,175.79777674085926 38.54927425517235,176.52646345287212 39.95187165780226,177.3059844122763 41.18945760128554,177.3907146797428 42.55080213904148,176.89927838712174 45.919786096317694,174.34039150044555 47.55614973267075,173.42528108770784 48.69747899164213,173.23886894572934 51.79144385032123,173.5269603291963 52.726508785330225,173.00161675586423 54.39037433167687,171.10358420461125 55.60045836522477,170.39181510789786 56.83804430870805,170.018982176407 59.684491978609,170.08677005884238 63.24598930485081,173.54390686201805 64.84110007644631,174.4081772098143 66.80748663103441,174.89962258352898 66.98624904511962,175.56052905444812 65.73491214675596,177.0517932903458 65.33613445382798,177.8652031935053 65.4048892284045,178.2041225380235 63.98854087095242,179.06836301003932 60.64705882361159,180.06816370310844 56.74178762419615,183.25391984923044 48.98624904511962,187.38851238934149 47.968678380479105,187.64268402352172 46.64858670748072,189.15075919803348 44.90221543167718,190.1335406836879 46.60733384266496,189.13381462688267 47.84491978609003,187.5918497349776 49.068754774692934,187.32073320595373 57.29182582127396,182.84723176668922 60.50954927428393,180.00038083955587 64.15355233015725,178.91585038813355 65.52864782279357,178.03466297224804 65.25362872425467,177.848257203892 65.47364400309743,177.35682257915323 66.94499618030386,175.56052905444812 66.79373567615403,174.86572985662497 65.01986249047332,174.5098557099991 62.99847211618908,173.45917417673627 60.35828877007589,170.52739046371426 59.38197097025113,170.03592915019544 58.020626432436984,169.96814124223602 55.82047364406753,170.32402737886878 54.48663101613056,171.08663736504968 52.90527119941544,172.88299050429487 51.667685255990364,173.5947464476485 48.42245989310322,173.28970864634903 46.909854851081036,173.73031858213653 48.1611917494447,173.2219223745633 51.8189457601984,173.47612071808544 52.52024446148425,173.10329631691275 54.50038197101094,171.03579683350108 55.462948815955315,170.39181510789786 56.98930481285788,169.93424727545062 59.368220015312545,169.88340630930907 60.454545454645995,170.54433737359068 62.310924369783606,172.8321506502689 63.56226126814727,173.78115809748124 65.04736440029228,174.47596288511704 66.5324675324955,174.61153413348075 66.83498854091158,174.8318371212663 67.0,175.54358277512074 65.62490450730547,177.085685467624 65.32238349883119,177.79741922234825 65.5974025974283,178.03466297224804 63.768525592109654,179.10225468041608 60.67456073343055,179.88176074637158 57.37433155084727,182.81334103782137 49.12375859444728,187.26989879603207 48.106187929806765,187.50712587825547 47.55614973267075,187.9646340723848 48.13368983962573,187.45629153861955 48.84873949585017,187.37156759666686" stroke="#4dd2ff" stroke-linecap="round" stroke-linejoin="round" stroke-width="0.5"><title>2024-10-06 18.0km</title><desc>1728199446000</desc></polyline><polyline fill="none" points="112.92240233859047,185.5885285941622 114.94578793516848,184.12078533480235 117.1987775710877,182.95365326071624 120.08317831525346,180.35409702651668 124.05819824611535,179.20461807097308 125.43582248210441,178.35576604465314 125.57932500663446,178.21429020905634 125.1488174329279,177.70143911227933 126.81344671809347,175.4201133034221 126.5551421737764,174.6242932715395 124.80441137391608,174.3059639983112 122.80972628225572,173.28023144027975 121.41775179380784,172.05995365601848 119.73877225618344,170.06150485745457 118.57640180707676,169.60168076226546 117.42838161042891,169.72547970501182 116.6391177251935,169.51325287934742 114.45787935162662,170.27373085597355 112.16183895827271,172.8204178658052 111.3725750730955,173.29791654768633 110.89901674201246,173.42171223767218 107.91416423069313,172.99726941842528 106.86659580125706,173.13875050045317 104.29790061118547,174.69503301224904 101.98750996548915,176.4811996765784 100.32288068032358,177.29469380961382 98.77305341482861,177.27700920459756 95.44379484455567,175.77380965034536 94.23837363807252,175.66770083962183 93.01860217913054,175.95065749034984 90.72256178577663,175.31400422591832 89.78979537606938,175.29631937190425 86.7762423598906,175.80917923615198 82.5716183896875,177.33006301306887 74.82248206221266,180.42483388629626 73.10045176721178,181.43283027356665 73.0,181.75114342186134 73.21525378688239,181.02609575833776 74.87988307204796,180.00041219430568 86.96279564179713,175.49085264395399 88.84267871384509,175.27863451567828 89.6893436088576,175.45548297812638 91.00956683501136,175.17252533147985 92.70289662509458,175.63233121830854 94.69758171675494,175.38474361979752 97.09407387726242,176.09213560231728 98.94525644433452,177.01173986209324 100.3372309327824,176.9233166367776 106.32128620782169,172.94421397600672 107.25405261758715,172.7319920060836 110.91336699447129,173.06800997725804 111.81743289937731,172.50208451075014 114.21392505982658,170.0791903695499 115.99335636460455,169.42482494085561 117.50013287278125,169.51325287934742 118.71990433166502,169.2302832804562 120.34148285951233,170.06150485745457 121.46080255118432,171.4940241343429 121.2311985118431,171.74161858024308 123.09673133143224,173.51013766387769 124.84746213129256,174.3413339531253 125.95243157056393,174.51818359381286 126.56949242629344,175.2255799335544 126.89954823284643,175.20789506839355 125.22056869522203,177.648385443812 125.36407121975208,178.07281423112727 123.98644698382122,179.08082746941363 120.24103109230055,180.177254721566 116.32341217115754,183.50185286490887 108.14376826997614,187.81663970105 107.19665160781005,187.99347240467614 105.53202232258627,189.7617872187111 103.70954026049003,190.76971671952924 103.46558596869,190.71666797838407 104.06829657190247,190.575204570996 105.57507307996275,189.6203228513623 106.23518469306873,188.70080099697225 107.26840287010418,187.86968953548057 109.0191336699645,187.30382360373915 114.51528036146192,184.4037249857356 117.50013287278125,182.45850339524623 117.7010364071466,182.54692314191198 119.27956417750102,181.3444098268228 119.55221897427691,180.6547284348926 119.9970768004423,180.283360131245 120.8867924528895,179.78820086819178 123.90034546901006,179.06314308886067 125.37842147226911,178.01976070275123 125.16316768532852,177.80754638910003 125.2636194525985,177.48922431850224 126.84214722295292,175.49085264395399 126.77039596065879,174.8718822083174 126.33988838701043,174.571238442717 124.74701036408078,174.35901892719266 123.3550358756329,173.6693032909243 121.7334573478438,172.36060278845252 120.1118788201129,170.36215826086118 119.35131543979514,169.8492785387789 117.1413765612524,169.63705189993198 115.26149348926265,169.97307726359577 114.32872707943898,170.4152146771521 111.97528567636618,172.89115851352108 111.07121977151837,173.40402714583615 107.85676322085783,173.0503248409077 106.09168216848047,173.40402714583615 101.18389582785312,176.95868593356863 100.29418017546413,177.33006301306887 98.68695190007566,177.29469380961382 95.05633802816737,175.72075525500986 92.87509965454228,175.9683422621456 89.99069891043473,175.40242846275214 86.51793781557353,175.89760316169122 76.77411639655475,179.68209508513974 86.80494286475005,175.72075525500986 90.14855168754002,175.27863451567828 92.96120116935344,175.95065749034984 94.81238373636734,175.61464640428312 96.82141908060294,176.233613571967 99.0457082116045,177.29469380961382 100.49508370982949,177.18858614603232 106.43608822749229,173.1741207487794 107.19665160781005,172.99726941842528 111.0855700239772,173.28023144027975 112.09008769603679,172.64356609081733 113.75471698126057,170.82197987030668 114.7305341482861,170.14993239575415 115.99335636460455,169.72547970501182 118.69120382674737,169.51325287934742 119.72442200372461,169.90233514845022 121.87695987249026,172.37828801147407 123.55593941011466,173.68698834945098 124.73266011162195,174.2705940345768 126.7129949508817,174.64197821002745 127.0,175.26094965719676 125.69412702642148,176.65804662737355 125.1488174329279,177.82523092748306 125.2636194525985,178.14355223787425 124.7613606165396,178.5679795314063 123.21153335104464,179.29303986247396 120.25538134464296,180.07114923188055 116.48126494826283,183.28964681985963 114.70183364336845,184.24457150211674" stroke="#ffac00" stroke-linecap="round" stroke-linejoin="round" stroke-width="0.5"><title>2024-09-22 20.8km</title><desc>1726992504000</desc></polyline><polyline fill="none" points="172.35980937245768,185.3651907407475 173.5321683876682,184.4490517834929 173.98967434465885,184.39619743016374 176.34868943609763,182.95150405686582 179.9229547260329,179.90350455991575 183.03971405880293,179.0578050925833 184.78395552025177,178.17686272170977 185.04130262113176,177.91257893081638 184.6266878474853,177.5601997678168 184.69817315333057,177.2606767827383 187.0,174.15969532213057 184.48371723591117,174.14207591328886 182.96822875295766,173.40205874123785 180.75218427326763,171.56961845170008 179.35107227961998,169.82525399503356 178.4932486100588,169.34951446625928 175.10484511515824,169.5785744409368 172.73153296264354,171.12912442571542 171.34471803018823,172.78537477990903 170.35822081018705,173.1906245458522 167.38443208899116,172.7501356145076 166.06910246232292,173.01442913942446 160.67911040509352,176.69686707457004 159.60683081811294,177.10210553155048 157.8196981732617,176.83781971425924 156.9046862589894,176.15067425706366 154.5313741064747,175.28733288202784 152.50119142176118,175.65733697963879 150.55679110408528,175.04066294098448 149.24146147741703,174.9878050400148 145.56711675936822,175.78067146177636 135.13026211282704,179.81541110346734 133.15726767270826,180.92538460881042 133.0,180.66110600001412 134.40111199370585,179.74493629843346 139.24781572679058,177.82448422312154 144.92374900722643,175.72781383981055 144.93804606830236,175.9744825716043 146.98252581415,175.304952146922 150.49960285943234,175.0230436428683 152.50119142176118,175.56924085451465 154.8030182684306,175.39304843812715 155.77521842735587,175.60447931116505 157.9483717235853,176.80258156760829 159.66401906276587,176.99639126444526 160.7934868943994,176.573533398594 165.96902303415118,172.89109222308616 167.12708498811116,172.69727684966347 169.92930897540646,173.10252687038155 170.78713264496764,172.94395091483602 171.40190627484117,172.62679846558603 174.06115965056233,169.93097367105656 175.66243050037883,169.40237449359847 178.20730738685234,169.31427443686698 178.95075456716586,169.4552345010743 179.60841938049998,169.9838334791275 181.55281969817588,172.32726493787777 182.82525814138353,173.33158071155776 184.22637013508938,174.00112056267972 185.4416203336441,174.17731472874584 186.07069102465175,174.9173278076778 186.41382049245294,174.81161189278646 186.41382049245294,175.14637868315913 186.07069102465175,175.28733288202784 184.76965845911764,177.2959148142545 184.65528196986998,177.59543772399775 184.91262907063356,177.75400841709052 183.39714058779646,178.81114178683492 179.89436060364824,179.76255500303523 175.41938046063296,183.42719742150803 173.6179507545894,184.18477981774777 167.7561556790606,187.44409924342472 166.78395552025177,187.63789422780974 165.16838760924293,189.36441953673784 163.32406671962235,190.40384798920422 165.12549642584054,189.2763320254744 166.6695790310041,187.6026587960223 168.02779984119115,187.23268622758042 176.27720413031057,182.77532091960893 179.7513899920741,179.76255500303523 183.23987291503,178.7935229626455 184.61239078629296,177.9478167983907 184.86973788717296,177.71877050079638 184.6266878474853,177.54258078645216 184.8411437649047,177.0316293623473 186.35663224785822,175.0230436428683 186.09928514692,174.37112805563083 184.3264495632029,174.08921767341963 182.56791104050353,173.20824407433975 180.80937251786236,171.62247764176573 179.50833995232824,169.93097367105656 178.89356632251292,169.54333446918463 177.8069896743982,169.31427443686698 175.70532168383943,169.4552345010743 173.80381254968233,170.24813222057128 171.60206513106823,172.5739396542922 170.57267672754824,173.12014640984125 167.2700555996853,172.76775519832154 166.06910246232292,172.99680958659155 159.90706910245353,177.06686745138722 158.4630659253453,177.0316293623473 156.66163621930173,176.11543593773968 154.33121525024762,175.3754291843361 152.3725178713794,175.65733697963879 150.4281175537035,175.12875939829974 149.41302621137584,175.14637868315913 147.0683081811294,175.4282869391318 145.15250198572176,176.02734010049608 145.0810166799347,175.71019462810364 146.32486100081587,175.199236524335 150.02779984119115,174.82923121744534 150.38522637018468,175.12875939829974 152.44400317710824,175.62209853623062 154.44559173949528,175.3754291843361 156.46147736301646,176.0097209264204 158.36298649723176,176.96115315766656 159.56393963471055,177.04924840795866 160.80778395553352,176.573533398594 165.38284352666233,173.40205874123785 167.02700555993943,175.9744825716043 167.34154090547236,175.9921017501474 167.77045274025295,176.76734341210977 168.85702938842587,176.99639126444526 169.31453534553293,177.8773410543654 170.83002382842824,179.4277992373536 170.97299444006057,180.2206405447505 171.74503574264236,180.8372917945817 171.17315329628764,181.26013679806783 172.1882446386735,184.99521226716752 167.64177918981295,187.49695244753093 166.76965845917584,187.67312965076417 164.43923749012174,189.8753260103258 162.8236695790547,190.4919347919058 162.86656076245708,190.68572556314757 164.15329626691528,190.22767421760364 166.29785544081824,188.5540123457904 164.73947577446233,190.016265399463 162.76648133440176,190.65049089740205 162.80937251792056,190.43908271689725 163.81016679905588,190.1924394367088 165.1969817315112,189.25871451661806 166.76965845917584,187.54980563174468 167.6989674345241,187.40886376288836 171.73073868150823,185.27710071652837" stroke="#4dd2ff" stroke-linecap="round" stroke-linejoin="round" stroke-width="0.5"><title>2024-08-22 19.8km</title><desc>1724317734000</desc></polyline><polyline fill="none" points="52.40021344716661,239.24272913216555 52.630736392806284,238.65091663991916 56.760939167579636,236.54404907474236 61.89007470663637,232.11718313932943 66.32764140889049,231.02820551967307 67.0,230.64942921949842 66.82710779085755,230.43636721599614 61.65955176099669,232.02248968320782 56.81856990396045,236.18895671493374 54.43649946642108,237.5383041207533 53.49519743863493,237.70401278481586 46.6371398079209,241.7519934429729 44.0629669156624,242.60418881234364 41.85378868738189,244.90036270157725 39.6830309497891,246.22597612036043 37.7427961579524,246.22597612036043 37.56990394880995,245.68152888088662 36.18676627532113,245.58684224376339 35.26467449311167,246.79409330131602 34.284951974404976,247.26752297657367 33.05549626459833,246.95979382298538 29.07897545362357,247.19650860116235 23.54642475990113,248.26172142161522 19.55069370334968,248.6404623062699 17.59124866593629,249.0665448912623 16.57310565642547,249.63465350540355 15.977588046924211,249.27958582233987 13.0,249.13755856174976 13.326574172824621,248.7114761373523 16.553895410965197,249.01920242940832 16.57310565642547,249.5873111863184 17.418356456793845,248.995531194043 19.76200640341267,248.42742065234052 28.579509071540087,247.40955164715706 29.136606190004386,247.10182272559905 32.709711846429855,246.8414363224001 34.131270010606386,247.14916566926695 35.26467449311167,246.6283926339238 36.28281750262249,245.44481219891168 37.64674493065104,245.6105139075371 37.85805763071403,246.10761815868318 39.91355389542878,245.94191688740102 41.7001067235833,244.94770619855262 44.0629669156624,242.48582857495057 45.54215581645258,242.13074741646415 56.10779082181398,236.5677218749479 61.29455709725153,232.09350977974827 66.76947705447674,230.3653464945819 61.50586979731452,232.11718313932943 56.33831376733724,236.40201221119787 45.503735325532034,242.2727799602144 43.87086446105968,242.6988769487507 42.37246531480923,244.42692707690003 39.318036286043935,246.36800557625247 42.02668089652434,244.68731681768259 43.77481323364191,242.62786085088737 46.310565634979866,241.77566558864783 51.689434365020134,238.9349868682766 53.3799359658733,237.7276854391821 56.29989327653311,236.54404907474236 61.17929562437348,232.28289657294226 66.34685165423434,230.60208212849102 61.525080042658374,232.09350977974827 56.54962646740023,236.378339390154 53.744930629618466,237.89339393662522 53.26467449311167,237.7750307390379 51.439701173920184,239.12436678244558 45.21558164351154,242.41481239678978 43.9284951974405,242.65153288652073 45.73425827117171,241.98871476562636 45.69583778013475,241.60996050661197 47.63607257208787,239.95290166826453 47.86659551761113,238.84029683977133" stroke="#4dd2ff" stroke-linecap="round" stroke-linejoin="round" stroke-width="0.5"><title>2024-07-03 11.2km</title><desc>1719998343000</desc></polyline><polyline fill="none" points="108.81777277833316,240.22484225567314 109.30371203599498,239.5012750823662 114.81102362193633,236.53212699836877 119.3667041619774,232.5399251257768 124.63104611914605,231.04282872502517 126.47356580419,229.94495085529343 127.0,229.49581724942254 126.73678290215321,229.32115390602848 124.42857142863795,230.79331156043918 119.30596175487153,232.29040984302992 114.12260967376642,236.6818330068636 103.47244094486814,242.39552795312193 100.90101237350609,243.2937357822957 99.22047244093847,245.23983880481683 96.50731158605777,246.98632527598238 94.48256467934698,247.06117435282795 94.28008998872247,246.48733070904564 92.76152980874758,246.4374311833817 91.72890888643451,247.659965951927 90.65579302585684,248.13400802054093 88.93475815525744,247.80966356956924 85.33070866134949,248.03420978435315 73.10123734525405,250.12996220964123 73.0,250.4044043415197 73.68841394816991,250.22975939241587 76.4218222721247,250.67884609397152 77.53543307073414,249.68087426647253 78.73003374575637,249.45632991404273 78.9527559055714,249.08208876222488 85.39145106857177,247.90946191860712 88.95500562433153,247.6849155627715 90.63554555678274,248.03420978435315 91.70866141736042,247.61006672104122 93.10573678289074,246.2627827446995 94.32058492675424,246.41248141579854 94.64454443193972,246.93642587572685 96.70978627668228,246.83662703755544 98.77502812142484,245.61408719912288 99.60517435322981,244.34163978019205 101.1237345332047,243.0442340151203 102.62204724410549,242.6949310143682 113.71766029240098,236.90639180784638 119.00224971887656,232.41516752362077 120.46006749151275,231.66662026412087 124.34758155234158,230.6436011112528 126.5343082115287,229.3461058216053 123.96287964005023,230.96797360856726 119.48818897653837,232.16565208409156 114.06186726654414,236.75668596872129 103.41169853764586,242.52027928356256 100.96175478061195,243.41848654818023 99.3622047243407,245.26478871973814 97.6614173228154,246.5621799740038 95.59617547795642,247.16097307806194 98.410573678324,245.8386358970747 101.18447694042698,243.06918420590227 102.62204724410549,242.76978170911025 114.64904386946,236.3325188114104 118.31383577059023,232.98905184435716 113.9201349831419,236.83153890240646 105.71991001127753,241.1480103378708" stroke="#4dd2ff" stroke-linecap="round" stroke-linejoin="round" stroke-width="0.5"><title>2024-06-26 10.0km</title><desc>1719394224000</desc></polyline></svg>