<?xml version="1.0" encoding="utf-8" ?>
<svg baseProfile="full" height="300mm" version="1.1" viewBox="0,0,200,300" width="200mm" xmlns="http://www.w3.org/2000/svg" xmlns:ev="http://www.w3.org/2001/xml-events" xmlns:xlink="http://www.w3.org/1999/xlink"><defs /><rect fill="#222222" height="300" width="200" x="0" y="0" /><text fill="#FFFFFF" style="font-size:12px; font-family:Arial; font-weight:bold;" x="10" y="20">Over 10km Runs</text><text fill="#FFFFFF" style="font-size:4px; font-family:Arial" x="10" y="280">Runner</text><text fill="#FFFFFF" style="font-size:9px; font-family:Arial" x="10" y="290">jianbo</text><text fill="#FFFFFF" style="font-size:4px; font-family:Arial" x="65" y="280">SPECIAL TRACKS</text><rect fill="yellow" height="2.6" width="2.6" x="65" y="283" /><text fill="#FFFFFF" style="font-size:3px; font-family:Arial" x="70" y="285.5">Over 20.0 km</text><rect fill="red" height="2.6" width="2.6" x="65" y="287" /><text fill="#FFFFFF" style="font-size:3px; font-family:Arial" x="70" y="289.5">Over 40.0 km</text><text fill="#FFFFFF" style="font-size:4px; font-family:Arial" x="120" y="280">STATISTICS</text><text fill="#FFFFFF" style="font-size:3px; font-family:Arial" x="120" y="285">Number: 15</text><text fill="#FFFFFF" style="font-size:3px; font-family:Arial" x="120" y="290">Weekly: 1.0</text><text fill="#FFFFFF" style="font-size:3px; font-family:Arial" x="141" y="285">Total: 252.2 km</text><text fill="#FFFFFF" style="font-size:3px; font-family:Arial" x="141" y="290">Avg: 16.8 km</text><text fill="#FFFFFF" style="font-size:3px; font-family:Arial" x="167" y="285">Min: 10.0 km</text><text fill="#FFFFFF" style="font-size:3px; font-family:Arial" x="167" y="290">Max: 42.8 km</text><polyline fill="none" points="17.830215827387292,71.10013854150748 20.566906474821735,69.66393821211386 22.12949640286388,68.12132552958792 24.59856115106959,67.36596699692745 22.448920863331296,68.00429859257565 20.32517985609593,69.8447944094878 15.533812949666753,72.429931934661 14.566906474821735,72.72780279091239 13.634532374097034,73.7277901425623 12.6762589928112,74.31288364709326 12.400000000023283,74.37671178474557 13.643165467656218,73.66396151560912 14.515107913641259,72.67461164346605 15.14532374101691,72.5575910014013 18.762589928053785,70.56821533487528 20.27338129497366,69.98309594676539 21.82733812945662,68.77029015286826 22.267625899228733,68.05749267490319 24.520863309386186,67.38724479435041 25.47913669067202,66.7595475220005 25.746762589958962,66.74890854505065 26.221582733851392,66.11056748149713 26.84316546760965,64.73811789184401 28.61294964031549,63.461400618100015 29.692086330906022,61.68460369269451 30.054676258994732,61.35477500864363 30.892086330917664,61.19518002265977 32.79999999998836,62.08890806783893 33.28345323743997,62.11018719198182 34.448920863331296,61.63140560477768 34.85467625898309,61.16326098932768 35.165467625891324,60.33336189741385 35.59712230216246,59.73753188933915 36.26187050360022,59.47153499558772 37.26330935250735,59.42897541500861 37.81582733814139,59.15233761942363 38.35107913671527,58.311778769064404 38.63597122300416,54.002453535824316 38.98129496403271,53.14056215300661 39.75827338127419,52.31058437542379 41.13956834533019,51.76790219580289 42.814388489176054,52.26802119300555 42.86618705035653,52.54468149598688 42.94388489209814,52.427633016654 43.824460431642365,52.47019611878932 44.23884892085334,52.28930278691405 43.92805755394511,52.01264164890017 44.89496402879013,50.98047480468813 45.706474820151925,50.35265582321881 46.293525179848075,50.12919370561576 49.98848920862656,49.33110989626584 53.00143884890713,49.42688035086758 53.44172661867924,49.22469815286604 54.14100719423732,47.798767878433864 54.71942446043249,45.180952723640075 54.745323740993626,44.45731473147316 54.443165467644576,43.063229973762645 54.9611510791583,40.81774744101858 54.72805755393347,38.60413285603863 54.84892086329637,38.550920253939694 54.874820143857505,37.3802345385775 55.30647482018685,34.49602150513965 55.600000000034925,33.62328821525443 55.29784172662767,34.549236658342124 54.7539568344946,38.39128224686283 55.00431654677959,41.32857334957953 54.494964028766844,42.53113049696549 54.43453237408539,43.073871929176676 54.779856115113944,44.47859829018125 54.77122302155476,45.08517746246798 54.25323741004104,47.500809263096016 53.4589928057394,49.277904041278816 52.880575539544225,49.49072726038867 50.031654676247854,49.352392228873214 46.258992805785965,50.15047583751584 45.119424460455775,50.73573236595985 43.96258992806543,51.95943748016725 44.27338129497366,52.26802119300555 43.91079136694316,52.48083689095802 42.90935251797782,52.416992237798695 42.83165467623621,52.68301130824693 42.83165467623621,52.29994358183467 41.04460431652842,51.77854305632354 39.76690647483338,52.33186595860025 39.024460431654006,53.14056215300661 38.68776978418464,53.9918129550133 38.38561151077738,58.38625900432089 38.1784172662301,58.960818615800235 37.28057553956751,59.45025520795025 36.21870503597893,59.51409455477551 35.67482014390407,59.71625216861867 35.2949640287552,60.13120575778157 34.87194244604325,61.14198162708635 34.43165467627114,61.695243306246994 33.31798561150208,62.14210586814443 32.95539568347158,62.152745424216846 30.90071942441864,61.19518002265977 30.305035971221514,61.20581969774503 29.778417266206816,61.64204522501677 28.863309352484066,63.17413657729048 28.293525179848075,63.823139134343364 26.886330935230944,64.74875712152425 26.2561151079135,66.14248464901175 25.496402877673972,67.01488256733137 24.952517985599115,67.36596699692745 24.797122302174103,67.25957792963163 22.500719424453564,67.99365977207344 19.962589928065427,70.03628878554446 15.22302158275852,72.58950573799666 14.532374100701418,72.75971746337746 13.13381294964347,74.07884673056833 12.434532374085393,74.36607376515167 13.6086330935359,73.69587583511748 14.506474820140284,72.70652633594 15.248920863319654,72.52567625273514 19.945323741005268,70.05756591169484 21.39568345324369,68.86603861050389 20.316546762594953,69.8447944094878 18.158273381297477,70.99375416761904" stroke="#4dd2ff" stroke-linecap="round" stroke-linejoin="round" stroke-width="0.5"><title>2026-01-25 19.0km</title><desc>1769297747000</desc></polyline><polyline fill="none" points="85.65118761663325,73.35006584104849 85.64473581247148,73.12745316404471 87.15445797872962,72.364203752717 89.03193298034603,70.82177579109702 90.68359483746463,70.32882696545857 88.99322215555003,70.89333255938254 87.32865669025341,72.28469807607325 83.88339328521397,74.15305505959986 83.11562859386322,74.39156474531774 82.3220566859527,75.2183913606932 81.65106905650464,75.59999999999854 82.46399637678405,75.06733730503038 83.10917678970145,74.36771381722065 83.80597163565108,74.15305505959986 86.85767498877249,72.51526426297642 86.94154844246805,72.6027201830002 87.25768684479408,72.44370932939637 88.57385488715954,71.39422767096403 88.72224638215266,71.06824876331666 88.9222523101489,70.91718479749397 90.61907679613796,70.38448267040803 91.5416847866145,69.89153043689294 92.40622653992614,68.32518897208502 93.58045489143115,67.52212576859165 94.45790025300812,66.13860683007806 94.75468324296526,65.88416327076266 95.50309252194711,65.81260083527013 96.83861597671057,66.47256244819437 97.16765798727283,66.47256244819437 97.98703711168491,66.11475278985745 98.30317551404005,65.73308692307182 98.69028376179631,64.89023330793134 98.94835592692834,64.63578472619702 99.3741749994515,64.47675384274771 100.13548788672779,64.44494761808164 100.76776469137985,64.09507809086062 100.96131881527253,63.40328491942637 101.14842113500345,60.34181049721519 101.37423427953036,59.785162859880074 102.05812551724375,59.10922699820367 103.00008892006008,58.711614292544255 104.21302809639019,59.093322537977656 104.33561237485264,59.236462535962346 104.96788917950471,59.26827138040244 105.3291902107594,59.11717922682146 105.09047345796716,58.90246870330884 105.82597912871279,58.115190546086524 106.74858711916022,57.53466603011475 109.67770619384828,56.882563642306195 111.80680155649316,56.97004118246696 112.2713314537832,56.8587061103608 112.74876495933859,55.68172335708368 113.17458403186174,53.669668313690636 112.9358672790695,52.09497187339002 113.38104176401976,50.93380694930238 113.36813815575442,50.77474160012207 113.29071650619153,50.989479726951686 113.16168042362551,48.97727533892612 113.29071650619153,48.834112111799186 113.27136109382263,48.18987357729202 113.52943325898377,46.09008759265271 114.05848119757138,44.745869792677695 114.01977037280449,44.54701857841428 113.99396315630293,44.87313424151944 114.00041496040649,44.59474292689265 113.54878867138177,43.9106904885557 113.49072243421688,43.56866149308189 113.95525233150693,41.07895279785589 114.69720980638522,39.09825186673697 116.0456368693558,36.226522995129926 117.12308815895813,33.48990645146114 117.6585879016784,32.80573379544512 118.34893094352446,32.39999999999418 117.49084099428728,32.988710929173976 117.071473725955,33.617193570084055 116.03918506525224,36.226522995129926 115.54239614729886,37.11748885264387 115.20045052844216,38.151629898864485 114.70366161048878,39.05847811985586 114.99399279631325,39.360757968323014 114.83914949718746,39.51189735031949 114.17461367190117,41.174406696489314 113.91654150674003,42.76528378218063 113.66492114571156,42.78914663361502 113.52943325898377,43.73569914073596 114.03267398106982,44.51520232606708 114.02622217693715,44.82541010322893 114.01977037280449,44.48338605772733 114.08428841407294,44.666329382052936 114.02622217693715,45.11175439237559 113.8842824861058,45.183340261966805 113.66492114571156,45.61285377693275 113.21329485662864,48.68299502028822 113.35523454748909,50.63158244366059 112.96812629973283,52.150643628498074 113.21329485662864,53.62990373478533 112.78102397997282,55.665818034693075 112.22616882488364,56.84280108404346 111.71647629869403,57.001851167071436 109.67125438971561,56.914373670915666 106.82600876872311,57.52671360245586 105.9937260360748,57.94023851330712 105.10982887036516,58.90246870330884 105.3485456231283,59.11717922682146 104.96143737537204,59.220558107736 102.94202268292429,58.73547112540109 101.99360747591709,59.14103590665036 101.40649330016458,59.785162859880074 101.21939098040457,60.2861459539854 100.98067422767053,63.554366832635424 100.91615618637297,63.80881976533419 100.52259613445494,64.2779646760755 100.17419871149468,64.452899175747 99.3354641747137,64.51651160109759 98.89028968979255,64.69144544092705 98.03219974058447,66.1068014411212 97.24507963683573,66.45665983969957 96.85797138907947,66.4646111444381 95.44502628475311,65.80464944853156 94.79984587183571,65.87621189304627 94.50951468604035,66.14655817479797 93.6256175203307,67.47441872276977 93.30302731390111,67.79246501516172 92.65139509685105,68.12641190097202 92.34816030276124,68.45240596975782 91.94169664263609,69.35881967203022 91.4836185494496,69.95513739256421 91.32877525032382,69.89153043689294 90.85134174476843,70.28907286050526 90.85134174476843,70.4162859084172 90.61262499197619,70.53554790843191 89.02548117618426,70.98079072182736 87.50285540168989,72.30059921940847 85.33504921427811,73.46137188577268" stroke="#ffa900" stroke-linecap="round" stroke-linejoin="round" stroke-width="0.5"><title>2026-01-18 21.1km</title><desc>1768694323000</desc></polyline><polyline fill="none" points="149.93846153846243,71.33112477349641 150.19606440071948,70.87612736130541 151.9563506260747,70.05077694264764 152.63470483006677,69.57460955904389 154.15456171735423,68.12492783272319 154.87584973167395,67.7863124462383 156.40429338108515,67.41595030787721 157.41753130586585,66.78103999411542 157.6493738819263,66.79162187190377 158.2161001788918,65.97681338927214 158.76565295166802,64.77045907622232 160.27692307688994,63.70165704003011 161.66797853307799,61.638089962885715 162.4579606439802,61.22537047680089 162.62969588546548,60.92905780295405 163.11914132378297,61.01371867333364 164.15813953487668,61.51109956730215 164.34704830055125,61.64867248718656 164.17531305900775,61.90265267164068 164.7076923077111,62.14604962930753 165.23148479429074,62.16721454888466 166.29624329158105,61.75449765716621 166.73416815744713,61.15129240613169 167.13774597493466,60.1565234269292 167.60143112699734,59.690882844050066 169.18998211092548,59.47922718208429 169.9799642218277,59.013582852283434 170.23756708408473,58.23044794276939 170.51234347047284,53.98657663094491 170.85581395350164,53.20339494445943 171.5856887298287,52.420205969625385 172.9166368514998,51.880436352526885 174.29051878355676,52.282617964614474 174.73703041143017,52.5154590720922 174.6683363148477,52.684797654728754 174.80572450801264,52.50487539938331 175.62146690516965,52.57896108052228 176.0765652951668,52.388454911524605 175.75885509839281,52.092111124802614 176.6690518783289,51.18190582647367 176.8150268336176,50.8326383891108 177.87119856884237,50.29285858925141 181.86404293379746,49.41438602224662 184.68908765655942,49.55197871674318 185.272987477656,49.34029755512165 185.97710196778644,47.57273906892806 186.49230769230053,45.21240846721048 186.18318425759207,43.021369683636294 186.77567084081238,41.4759650203996 186.76708407874685,41.28543371282285 186.6554561717203,41.60298565240373 186.7327370304265,41.09490197377454 186.4579606440384,39.051951210836705 186.67262969590956,38.617950100495364 186.59534883720335,37.919309463912214 186.99892665474908,34.87062787911418 187.3509838997852,33.87554816827469 187.55706618959084,33.684999646829965 187.59999999997672,33.86496215064108 187.42826475849142,33.90730621323746 187.14490161003778,34.404847352161596 186.56958855094854,38.46975408664002 186.7327370304265,40.50213380406058 186.64686940965476,41.57123051238159 186.7327370304265,41.26426354090654 186.7584973166231,41.518305252357095 186.23470483004348,43.14838798264827 186.51806797849713,45.222993057148415 185.9942754919757,47.72091905043635 185.2042933810153,49.36146569526318 184.67191413242836,49.62606699751632 181.76958855096018,49.477890370748355 178.04293381038588,50.282274637007504 176.77209302323172,50.99139649488643 175.76744186045835,52.113278572724084 176.06797853310127,52.388454911524605 175.71592128800694,52.589544743961596 174.72844364936464,52.52604274350597 174.65974955278216,52.75888317748468 174.65974955278216,52.40962228493299 172.9423971377546,51.89102010377974 171.68872987478971,52.39903859888 170.90733452595305,53.23514569514373 170.5552772808005,54.060661007744784 170.2805008944706,58.209282033276395 169.98855098389322,59.04533141117281 169.2672629695735,59.46864438501507 167.567084078677,59.76496219998808 167.172093023255,60.19885426129622 166.6053667262895,61.37352642260521 166.0128801431274,61.91323516268312 166.09874776384095,61.97673008107813 164.88801431126194,62.22012682458444 162.83577817532932,61.25711820140714 162.03720930230338,61.405274091303 161.6937388193328,61.680420052143745 160.27692307688994,63.76515060944803 158.8858676207601,64.68580198406562 158.18175313057145,66.1355429329924 157.7008944544359,66.75987623450055 157.40894454380032,66.75987623450055 156.83363148476928,67.24664135903731 156.1466905187699,67.5429317960079 154.36064400715986,68.01911067076435 153.9484794275486,68.32598007402703 153.76815742393956,68.73866474928218 152.03363148478093,70.13542864002375 148.65903398924274,71.9025133896721 146.46940966008697,72.74900791556865 145.60214669053676,73.72246609938884 145.07835420389893,74.0822195365181 144.40000000002328,74.31500035317003 145.56779964221641,73.680142064557 146.41788908763556,72.73842678654182 148.0322003577603,72.0718129757006 151.8790697674267,70.0190325342046 152.51449016097467,69.54286497103021 151.83613595704082,70.10368426346395 149.71520572452573,71.1935676756766" stroke="#4dd2ff" stroke-linecap="round" stroke-linejoin="round" stroke-width="0.5"><title>2025-12-28 16.0km</title><desc>1766878702000</desc></polyline><polyline fill="none" points="14.140765614516567,118.31178478766378 16.906648757576477,116.72676961356046 19.024580255209003,114.86762030641694 21.86783075891435,114.00953910036333 21.86783075891435,113.818853333265 22.544795164547395,113.24679373113759 22.86393552721711,113.25871167471632 24.150167897925712,110.9466025736474 25.88126259233104,109.71901657880517 27.293216924124863,107.51408919754613 27.622028206882533,107.23995950654353 28.80188045668183,107.07309756742325 30.74573539290577,108.05042760470678 31.345332437893376,108.08618339062377 32.563868368044496,107.59751981576119 33.04741437203484,106.95391028825543 33.49227669578977,105.88121803245303 34.00483545998577,105.34486735283281 34.749496306234505,105.13032623131585 35.74560107453726,105.09456933050387 36.732034922752064,104.55821420015855 37.002820685040206,103.68812053422153 37.331631967797875,98.8249842158184 37.65077233040938,98.06211666415038 38.82095366017893,96.965483801745 40.078173270623665,96.48868294752174 42.022028206905816,97.08468364053988 41.96400268637808,97.54956157944252 42.109066487581,97.191963367266 42.93109469441697,97.32308286838088 43.55970449966844,97.09660361615533 43.627400940225925,96.97740379234892 43.24056413699873,96.75092371419305 44.32370718603488,95.57083455040993 45.813028878415935,94.6648975462449 50.048891873739194,93.78279266891332 53.12424445938086,93.91391688637668 53.99462726665661,93.54438453599141 54.63290799193783,92.0543201178225 55.300201477482915,88.99067407257098 54.99073203490116,86.53491740336176 55.59999999997672,84.87784174997068 55.00040295504732,86.58260260474344 55.35822699801065,88.27541170818586 55.32921423774678,89.00259506625298 54.73928811278893,91.82782827516348 53.86890530557139,93.68742948772706 53.191940899938345,93.91391688637668 50.097246474178974,93.80663344921777 45.87105439894367,94.67681782621366 44.488112827413715,95.38011169019592 43.23089321696898,96.7628437317835 43.5693754197564,97.09660361615533 42.989120214944705,97.34692275820271 42.07038280728739,97.25156316299399 41.99301544658374,97.41844239161583 41.97367360640783,97.08468364053988 40.02014775015414,96.56020322856784 38.66621893888805,97.06084368477605 37.689456010761205,98.07403651687491 37.36064472806174,98.88458298471232 37.031833445245866,103.64044393817312 36.71269308257615,104.57013323601132 35.83263935527066,105.08265036058583 34.63344526529545,105.1660831186091 33.96615177975036,105.39254309167882 32.563868368044496,107.60943846948794 31.451712558744475,108.07426479682908 30.88112827402074,108.11002057375299 28.666487575566862,107.10885372199118 27.58334452653071,107.28763429238461 27.02243116189493,107.9193229409284 26.123035594355315,109.50448535586474 25.6975151108345,109.94546567637008 24.22753525857115,110.83933841175894 23.47320349229267,112.47212418488925 22.58347884489922,113.54474187127926 21.713096037565265,114.10488184003043 19.20832773670554,114.80803158468916 16.606850235082675,117.00087187672762 12.400000000023283,119.12215825002204" stroke="#4dd2ff" stroke-linecap="round" stroke-linejoin="round" stroke-width="0.5"><title>2025-12-21 12.2km</title><desc>1766291458000</desc></polyline><polyline fill="none" points="87.99352008104324,109.67247217085969 88.21221734723076,109.31314247878618 91.88633142085746,107.31884627068939 95.16679041512543,104.39023474525311 98.69510631117737,103.45594114402775 100.35720553493593,102.53960879576334 101.71312858595047,100.94050494146359 102.63165710429894,98.76641370300786 104.03131960856263,97.70630763459485 104.03131960856263,97.29304381695692 105.12480593996588,96.52041695269872 106.02875464060344,95.44232597626979 107.35551805607975,92.89081160140631 108.39068511652295,92.33378480013926 109.16341545735486,92.13612960683531 109.2946338171023,92.33378480013926 109.04677691531833,92.72909436664486 109.97988525149412,92.81893729744479 112.96874789072899,94.18454289251531 113.61025987181347,94.27438490842178 115.52021599729778,93.50174172598054 116.26378670276608,92.58534555985534 117.06567667907802,90.73456675861962 117.85298683767905,90.0158112484205 120.47735403309343,89.67440111482574 121.60000000003492,89.04548557577073 120.27323658461682,89.74627700021665 117.75092811346985,90.06971803712077 117.00735740811797,90.89628625025216 116.22004724945873,92.69315717850986 115.6222747216234,93.4478362318041 114.32467094162712,94.07673239886935 112.95416807290167,94.27438490842178 109.7757678029011,92.78300013190892 108.87181910226354,92.78300013190892 107.66169422882376,93.34002518244961 105.6205197435338,96.68212989780295 103.38980762741994,98.10160234211071 102.79203509964282,98.74844586903055 101.96098548773443,100.6530236996623 100.896658791753,102.12635895211133 100.40094498818507,101.98261959597585 99.87607154913712,102.6474129063572 98.84090448875213,103.22236678960326 95.47296658798587,104.19259622346726 91.69679379014997,107.42664677699213 82.96348295651842,112.02605932156439 81.85541680728784,112.31351769232424 80.4994937563315,113.85859653238731 78.73533580830554,114.95451442424383 80.55781302734977,113.71486897263094 81.9137360783061,112.18775472619745 83.02180222742027,111.90029610261263 91.24481943977298,107.6602142618649 95.05015187314712,104.3003990874131 98.88464394200128,103.13253039770643 95.5167060411768,104.10276044142665 91.9154910563957,107.22901245333196 83.16760040499503,111.91826228352147 81.97205534926616,112.24165315381833 80.45575430308236,113.93046025809599 78.66243671957636,114.91858282333123 80.36827539652586,113.85859653238731 82.04495443811174,112.07995781011414 83.8091123860795,111.52300578189897 91.0844414444291,107.64224754580937 95.37090786377667,104.10276044142665 98.84090448875213,103.18643223959953 95.3125885927002,104.2285305205005 94.58359770500101,104.78551096902811 94.2920013499679,105.48622522497317 92.68822139728582,106.7618756929005 92.46952413104009,106.61814099796175 91.05528180900728,107.75004780829477 84.07154910563258,111.46910708337964 81.9137360783061,112.24165315381833 80.83482956461376,113.58910723931331 79.5518056024448,114.50536876321712 78.40000000002328,114.95451442424383 80.412014849775,113.82266465602152 82.01579480263172,112.13385627836396 83.09470131626585,111.90029610261263 90.3117111036554,108.01954810874304 85.6024299695855,110.57079244956549" stroke="#4dd2ff" stroke-linecap="round" stroke-linejoin="round" stroke-width="0.5"><title>2025-12-07 13.4km</title><desc>1765091716000</desc></polyline><polyline fill="none" points="150.6436403034022,112.22742297795048 150.90574214520166,111.82369384387857 153.25529794150498,110.50867806597671 155.4176381365396,108.61686793196714 157.6361430119141,108.00548192908172 158.7219934994937,107.46330602855596 158.98409534129314,107.19798473975243 158.871765980497,107.08262741843646 159.13386782229645,107.07109167831368 159.48957746481756,106.59812508542382 160.33204767067218,104.87927474642493 161.59575297945412,104.08328616617655 162.38205850491067,103.34497174579155 163.7300108342315,101.29150352798024 164.04827735642903,101.12999284249963 164.82522210187744,101.10691986422171 167.21222101844614,102.09905269133742 168.55081256775884,101.55684189413296 169.0001300108852,100.95694536400697 169.47752979421057,99.87250706837222 169.9455687974114,99.3648932498545 171.6211484289961,99.13415876765066 172.2295991332503,98.82266629633523 172.8380498375045,97.81896113992116 173.13759479956934,93.15793354497873 173.4839436619659,92.338768092588 174.31705308775418,91.43883141773404 175.767973997863,90.85040651120653 178.12689057423268,91.53113302143902 178.73534127842868,91.53113302143902 179.19401950162137,91.40421829242405 179.99904658721061,90.42350764809817 181.29083423619159,89.47740038525808 185.81209100759588,88.49666914285626 187.60000000003492,88.60051177067362 185.5874322860618,88.57743564133125 184.37989165761974,88.85434881055698 184.88537378114415,88.6235878942316 181.21594799571903,89.52355218542652 180.2049837486702,90.19275067877606 179.19401950162137,91.43883141773404 178.7634236186277,91.62343453228823 177.72437703143805,91.56574609888048 177.66821235103998,91.40421829242405 175.77733477792935,90.86194429073657 174.33577464788686,91.43883141773404 173.52138678223127,92.3156929034958 173.13759479956934,93.330995732882 172.90357529791072,97.66898126563319 172.57594799570506,98.64961446641973 171.54626218852354,99.1918424425894 170.00173347780947,99.37642995872739 169.53369447455043,99.82636047367123 168.91588299028808,101.16460229902441 168.5227302275016,101.61452404611919 167.44624052004656,102.08751632476924 166.9501191766467,102.13366178236902 164.76905742147937,101.11845635407371 164.06699891656172,101.17613878165866 163.58023835317,101.4299410321255 162.19484290364198,103.56415945931803 160.20099674974335,105.06385082239285 159.67679306608625,106.40201627108036 158.69391115923645,107.48637740872073 157.57997833151603,108.05162441099674 155.61421451787464,108.55919018116401 153.18977248104056,110.62403108108992 151.76693391113076,111.48917407316185 147.07718309864867,113.86539153238118 145.64498374867253,115.06501193032454 144.4468039002968,115.50333085714374 144.40000000002328,115.36491458010278 145.38288190681487,115.03040771535598 146.97421451786067,113.54241413102864 147.67627302277833,113.3693900556973 149.7824485374149,112.22742297795048" stroke="#4dd2ff" stroke-linecap="round" stroke-linejoin="round" stroke-width="0.5"><title>2025-11-30 11.3km</title><desc>1764483136000</desc></polyline><polyline fill="none" points="16.845247148303315,162.21605700434156 17.409885931643657,161.64677096470405 17.389353612205014,161.4570082360151 19.8942965780152,160.11600809011725 22.204182509565726,158.07917180587538 24.65779467683751,157.34539459827647 26.095057034282945,156.4724457803677 26.351711026625708,156.51040023422684 27.686311787110753,154.14454525012843 29.698479087499436,152.71488399777445 31.043346007645596,150.5134189929595 31.56692015216686,150.057937462283 32.316349809931125,149.83019592383062 34.893155893543735,150.98155064025923 36.29961977188941,150.65259349397093 36.22775665402878,150.86768098052562 36.094296577968635,150.80442000279436 36.48441064642975,150.72850677698443 37.09011406847276,149.99467597550392 37.695817490515765,148.64087062760518 38.12699619773775,148.14742302802188 38.979087452520616,147.8184566174241 40.139163498126436,147.75519372288545 41.12471482891124,147.21113118800713 41.412167300411966,146.23687232231168 41.70988593157381,141.36543649994564 42.04866920161294,140.46704205871356 43.00342205329798,139.36618159538193 44.7076045628055,138.72084399982123 46.69923954375554,139.29025974016986 46.719771863135975,139.74579001228267 46.77110266161617,139.44210339334677 47.61292775667971,139.55598598289362 48.28022813698044,139.31556703161186 48.71140684414422,139.60660042572272 47.98250950576039,138.961264372163 49.14258555136621,137.7211952388534 50.0665399240097,137.0378853077127 51.123954372655135,136.64561269487604 55.600000000034925,135.79779246813268 50.24106463883072,136.98726957260806 49.31711026618723,137.5440412578464 48.003041825140826,138.98657174632535 48.35209125478286,139.34087431669468 47.03802281373646,139.85967225806235 46.6787072243751,139.77109718915744 46.69923954375554,139.35352795683139 44.7076045628055,138.72084399982123 43.044486692058854,139.39148886776093 42.171863117895555,140.35316050035908 41.79201520915376,141.2009423429845 41.42243346013129,146.35074722202262 41.14524714834988,147.27439442461036 40.252091254806146,147.79315146440786 38.87642585556023,147.89437203840498 38.168060836498626,148.14742302802188 36.73079847916961,150.47546227751445 35.44752851710655,151.01950716486317 34.88288973388262,151.03215933658066 32.47034220537171,149.95671906437929 31.628517110308167,150.057937462283 30.971482889784966,150.6399412745377 30.098859315621667,152.23410839407734 29.31863117875764,153.10709397343453 28.158555133093614,153.70173198894918 27.552851711050607,154.34697352063813 26.98821292782668,155.71335369739973 26.351711026625708,156.5357031955209 26.084790874563623,156.51040023422684 24.924714828957804,157.29478907642624 22.512167300388683,157.95265887588175 19.62737642589491,160.38167934944795 13.837262357468717,163.45582435025426 13.046768060827162,163.65823389554134 12.400000000023283,164.20220753186004 12.964638783305418,163.60763154736196 13.744866920169443,163.4431737401319 16.249809885921422,162.10220005397423" stroke="#4dd2ff" stroke-linecap="round" stroke-linejoin="round" stroke-width="0.5"><title>2025-11-23 10.7km</title><desc>1763852167000</desc></polyline><polyline fill="none" points="109.79084337351378,157.2194598096612 110.51951807230944,155.6231444795194 110.9243373494246,155.19555620064784 111.27132530126255,154.93900245954865 111.30602409644052,155.15279728415044 113.5845783133409,153.72749084034876 115.89783132536104,151.5182304495247 119.02072289161151,150.56324650549504 120.22361445787828,149.86482032047934 120.43180722900433,149.6652691917261 120.24674698797753,149.38019554154016 121.60000000003492,147.4844375381581 121.50746987957973,147.0710725616227 121.21831325307721,146.8145004390026 119.92289156629704,146.67196011997294 118.2689156626584,145.81671444306266 117.13542168680578,144.86168248025933 115.89783132536104,143.265193176725 115.05349397595273,142.9088308883147 113.11036144581158,142.92308540136582 111.83807228924707,143.35071995928593 111.09783132537268,143.76409849878837 109.51325301208999,145.5601394820842 108.94650602416368,145.8879851625461 106.1474698795937,145.61715619030292 105.31469879520591,145.73118952055665 104.0424096386414,146.45814930553024 101.50939759041648,148.41093977022683 100.16771084337961,149.06661369859648 98.76819277112372,149.00959872491512 97.4033734939876,148.26840145800816 95.71469879517099,147.726754237563 94.1763855422032,147.91205489361892 92.40674698795192,147.52719934626657 90.25542168680113,147.65548467385088 85.72144578315783,149.0951211746942 79.84578313253587,151.43270982719696 78.5040963855572,152.20239310659963 78.40000000002328,152.03135282929725 79.66072289156727,151.27592185204412 87.66457831329899,148.22563992941286 87.97686746990075,148.1116091076401 88.02313253021566,148.33967063653836 89.97783132537734,147.6839925047243 92.08289156632964,147.498691475972 94.19951807230245,147.91205489361892 95.73783132538665,147.75526205051574 97.42650602414506,148.28265529726923 98.81445783132222,148.99534497699642 99.90168674703455,149.06661369859648 100.87325301207602,148.66750828067597 105.03710843378212,145.7596978352667 105.99710843380308,145.57439366183098 108.72674698801711,145.81671444306266 109.44385542173404,145.44610597976134 110.70457831333624,144.07769500625727 111.7686746987747,143.32221103893244 113.06409638555488,142.88032185688644 115.041927710874,142.78054019033152 115.86313253012486,143.16541184888774 118.2689156626584,145.7739519898969 119.8072289157426,146.5864358425606 121.28771084343316,146.8145004390026 121.56530120491516,147.4844375381581 120.42024096392561,148.8242998623973 120.13108433736488,149.45146402127284 120.31614457833348,149.60825451901474 119.6221686747158,150.19265355524112 116.26795180729823,151.24741492421163 113.31855421687942,153.7559971447845 109.62891566264443,155.72291484594462" stroke="#4dd2ff" stroke-linecap="round" stroke-linejoin="round" stroke-width="0.5"><title>2024-11-03 10.0km</title><desc>1730623436000</desc></polyline><polyline fill="none" points="161.0022147071868,136.55967507390596 160.78978512360482,136.35943034792945 160.75943804021517,136.23835162236355 160.44838043565687,136.01947754864523 160.30802517506527,135.54912680900088 159.4279597572895,134.2824103054154 159.2913978821016,133.89120978862047 159.26863756957755,133.35563102818924 159.36726559055387,132.85730304443496 159.2838111112651,132.7408703172223 159.2838111112651,132.53129049632116 159.4621002260683,131.76282112157787 159.53796793449146,131.6230977233863 159.6252157991985,131.6230977233863 159.9097197058145,130.1513129382729 160.69874387347954,129.0101741749495 161.20326413452858,128.41863141963768 161.25257814500947,128.39999999999782 162.36783345892036,129.3874524702078 162.51198210494476,129.58307675686228 163.0127089805901,130.83597950953117 162.38300700062246,131.26447194925277 162.04160231270362,131.7348764836279 161.7988256457029,132.56389187879904 161.7988256457029,133.0529092115321 162.47404825073318,134.33363864204512 162.697857990599,134.56649383480908 162.91028757419554,135.12068337275196 163.11513038695557,135.23245169801885 163.49446892910055,135.65623690257416 164.52626976376632,136.37340094492902 164.98906278518552,137.0905512612262 165.22045929588785,137.59347965881898 165.26218653553224,138.0731180459261 165.48599627539807,138.65519522124305 165.39495502528735,139.0323764033128 165.93740914054797,139.3676453781918 166.31674768269295,139.3769583624562 166.66573914149194,139.5632175617211 168.3272419560817,140.74594187514958 169.21489414470852,141.47232098424138 169.35904279073293,141.4630085206445 169.6094062285556,141.2301961787307 169.83700935383968,141.15103965305752 170.40222378165345,141.23950870017507 170.899157271866,141.43041487983646 171.46057831424696,141.89137945129187 172.31409003406588,142.81329158689914 172.47720560719608,142.90641276393944 172.50375930515293,143.0088457915008 172.731362430437,143.18577490701864 172.81861029512947,143.33942319823473 173.15242821222637,143.5768784094871 173.43313873340958,143.88417115583434 173.77075003592472,144.04712840824504 173.82385743182385,144.20077316880634 174.08180764048302,144.47081394917768 174.13491503638215,144.41959946789575 174.11215472384356,144.51737250779115 174.22974967192567,144.66170367203085 175.49294701729377,145.92341373603267 175.48915363186097,146.44019047066104 175.42466607969254,146.66365928480445 175.2349968086055,147.0966263216651 174.69254269334488,147.93461283417128 176.08850852845353,149.81535881672244 176.13402915353072,150.19708287070898 176.03160774713615,150.9232788791851 176.09230191387178,151.20258129159265 176.04298790340545,151.67739061843895 176.08471514303528,152.45476153753043 175.97850035123702,152.62699123722268 175.77745092388068,153.54863943186137 175.2387901940383,154.44699188409868 175.2425835794711,154.61921243506004 174.98463337081193,154.6843767616374 174.7494434746768,154.90779645037765 174.33596446372394,155.1498329446622 174.15008857808425,155.16845107182962 173.81247727555456,155.41048588410558 173.39141149377974,155.5128847575761 173.1903620664525,155.63390124764555 172.52651961767697,155.73164505072418 171.9764787315653,155.7223361280703 171.5250658664154,155.63390124764555 170.75880201124528,155.08001488544323 170.04564555201796,154.18633224865334 169.7801085725223,154.0327284008963 169.33248909279064,153.51140156003748 169.0972991966555,153.46485416826908 168.89245638389548,153.3112473655492 168.51691122716875,153.25073542205064 168.01239096610516,152.83645872491252 167.79996138250863,152.75267187022473 166.36606169318839,152.99472227300066 165.87671497381234,152.9854126709979 163.6841382001876,153.3764139647501 162.7395852302434,153.68828112186748 162.21989142749226,153.7860299955064 161.5788092912553,154.05600175159998 160.69495048804674,154.2608066150715 159.82247184112202,154.60059403525156 159.48106715317408,154.80074134893584 159.83385199739132,155.42444938331028 159.79212475773238,155.73629951119074 159.8452321536315,155.9550585013094 159.6252157991985,156.1458897699231 159.1472492360772,156.82077305357234 159.18897647572157,157.1465744308589 158.1420020993828,158.73365210238262 157.9902666825219,159.19440401142128 157.05709386886156,160.7534720364747 156.73844949343766,161.45619494877974 156.23392923238862,162.3403971325497 156.13150782599405,162.40089441509554 156.04046657589788,162.65684337733546 155.74078912757977,163.0198225482418 155.4828389189206,164.48101087229588 155.62319417952676,165.383754841263 156.38187126383127,166.9797902680184 156.52981329525937,167.04028007164015 156.61326777454815,167.20778978822636 156.8788047540438,167.4078698587873 157.32263084835722,168.09185646278638 158.0244071513298,168.757219225914 158.1647624119214,168.77583060216057 158.0509608492721,168.7990948094848 158.20269626614754,168.81305332695047 158.42650600601337,169.05965294641283 158.6275554333406,169.13875059438215 158.76411730851396,169.11548659758046 159.25725741330825,169.53888908259614 159.83764538280957,169.74360945033914 160.41803335229633,170.07395132567035 161.57501590585161,170.53921664179143 161.84434627076553,170.7113633471563 161.82537934365973,170.78115232714117 161.53708205165458,170.73927895472661 160.39147965432494,170.39498501056005 159.86799246618466,170.31589000974782 159.39002590306336,170.05999327707832 159.06000137139927,169.72965127893622 158.22545657867158,169.19923691860458 157.50850673401146,168.62228647216762 156.53360668067762,167.47301197716297 156.14288798226335,166.8867288413021 156.7308627226157,167.65913169238775 157.80818418230047,168.7804834447743 158.71859668346588,169.4597922778339 159.2876044966688,169.79478936783198 160.383892883503,170.31123735746223 163.59689033549512,171.17662076291526 164.1696915341454,171.38598471871592 164.54903007629036,171.59999999999854 164.23038570088102,171.40459479160563 163.52860939790844,171.1487054805948 162.5385358029016,170.83698341771378 161.0287684051582,170.50199562872876 159.7579842889536,170.00881372120784 159.0751749130868,169.66451307698662 158.27477058915247,169.1247921980248 157.2581432961888,168.2174853003562 156.0897805863642,166.76574864159556 155.77872298182047,166.20737343528526 155.5207727731613,165.53265897650272 155.3766241271369,164.90911896702164 155.3576572000311,164.22042094511562 155.47525214809866,163.53171028326324 155.71802881507028,162.8941763095172 158.43409277684987,158.04949488831335 159.20415001740912,156.87662491922674 159.92109986206924,156.07141914645763 160.41423996686353,155.67113701219205 161.62812330175075,154.88917819380367 162.12885017738154,154.65644920697014 162.98994866806606,154.3399354673311 163.6158572626009,154.2049508541204 166.54435080799158,153.13436602550064 167.50407731962332,152.90628096080036 168.11860575790342,152.99472227300066 169.4387038845889,153.52071103146227 169.9014969060081,153.86050515681927 171.31263628278975,155.27550512374364 171.72611529375718,155.55477512525977 172.2420157110755,155.72699058969374 172.76550289923034,155.76888071825306 173.39520487921254,155.65251913453903 173.8504111297807,155.4291038818992 174.99601352706668,154.64714001746324 175.34879837126937,154.3399354673311 175.64847581955837,153.93032548622068 175.92918634074158,153.11574688855035 176.09609529930458,149.69432354914898 176.25541748700198,148.10220788913284 176.1492026952037,147.38992373157453 175.6902030591882,145.50905607326422 174.95428628743684,143.64206192982238 175.43604623596184,144.87121566354472 175.8533186323184,146.62175898361602 175.9822937366407,146.91971566341817 176.03919451797265,147.0035155529731 176.19851670567004,146.98954891771427 176.34645873712725,147.07334865115263 176.64234279998345,146.46812414527813 176.59682217494992,146.38432305899914 176.05057467424194,146.10964040735416 175.97850035123702,146.01652718732657 175.4132859234378,145.81633298113957 175.17809602730267,145.64407199451307 174.08180764048302,144.5266842125784 174.13870842181495,144.3963201351071 174.06663409879548,144.44287878624164 173.70626248377084,144.16818190858612 173.06518034751934,143.57222243941214 173.0424200349953,143.48841487913887 172.51134607598942,143.10196648272904 171.8247433147044,142.24059126144857 170.90674404271704,141.45369605473024 170.61844675065367,141.31400878841305 169.84838951010897,141.16500846384952 169.5790591451805,141.24882121930932 169.3249023219396,141.4769772151667 169.22627430097782,141.46766475272307 166.98817690230499,139.76810161173125 166.6467722143716,139.62375160217198 166.38502862029418,139.35833239161002 165.9829297656106,139.38161485371893 165.3532277856284,139.01375026120877 165.47082273371052,138.734357018664 165.32288070226787,138.4083956029608 165.18631882710906,137.55622593491717 165.45944257744122,137.24422454330124 165.8463678904518,137.13711898901965 166.00569007813465,137.01138599115802 165.9639628385048,136.6295276335295 165.8805083592306,136.46653812518343 165.01940986854606,135.88908387571792 165.43668226493173,135.24642271523044 165.15976512913767,135.0973982630312 164.89043476422376,135.5956964525285 164.73869934736285,135.69349251551102 164.1469312216068,135.4885861858893 163.8244934607792,135.2277946911272 163.50584908536985,134.58512218771648 163.56654325212003,134.39883824189747 163.74103898153407,134.2684389287242 163.61206387718266,133.9051813059814 163.55895648126898,133.27645786620633" stroke="red" stroke-linecap="round" stroke-linejoin="round" stroke-width="0.5"><title>2024-10-27 42.8km</title><desc>1729986801000</desc></polyline><polyline fill="none" points="44.85778343945276,202.19133888711076 45.220993630588055,201.64881950926792 47.818496815278195,200.2111299676617 50.59210191085003,197.8375439986121 53.035515923576895,197.21362130698253 54.14715923566837,196.58969500784588 54.37829299364239,196.31842157860956 54.20219108276069,196.16922090180014 54.35628025478218,195.87081892941205 55.53396178345429,194.31097700618557 55.29182165605016,193.78198201637133 53.96005095541477,193.59208574642253 52.35312101908494,192.6697276813211 51.36254777072463,191.8965685227522 51.31852229300421,191.6117190151199 50.11882802553009,190.24171802013734 49.29335031850496,189.87547718364658 47.048050955403596,189.99755760063272 46.046471337554976,190.48587788712757 44.13136305735679,192.39844439693843 43.51500636944547,192.76467666970711 40.796433121024165,192.53408612441126 39.739821656025015,192.81893319703522 36.525961783423554,195.1655018960373 35.106140127405524,195.85725518377149 33.91745222930331,195.81656393668527 30.945732484047767,194.56869157458277 29.448866242018994,194.7314583532425 27.357656050939113,194.3381048844749 25.21141401276691,194.58225548216433 22.71296815283131,195.53172477724002 21.359184713393915,195.81656393668527 16.01008917199215,198.06812321085454 14.293095541419461,199.01756183477846 14.23806369426893,199.234575204493 13.76478980894899,199.5329678752605 12.774216560530476,202.01502038846957 12.400000000023283,202.3540941686224 13.434598726104014,199.6007842763065 14.039949044585228,198.90905498628854 14.23806369426893,199.27526516275248 14.370140127371997,198.99043513288052 15.833987261168659,198.06812321085454 24.892229299410246,194.62294719475176 27.489732484100387,194.3923606206008 29.437859872647095,194.78571389159333 30.945732484047767,194.58225548216433 32.79480254778173,195.2061933886871 33.79638216563035,195.74874515736883 34.95205095538404,195.87081892941205 35.810547770757694,195.518160989006 40.03699363057967,192.68329182764865 40.75240764330374,192.56121444944438 42.865630573243834,192.84606145037105 43.658089171978645,192.73754839583853 46.03546496818308,190.48587788712757 46.99301910831127,190.06537999477587 49.051210191100836,189.92973516384518 49.931719745276496,190.1332023463474 50.36096815287601,190.43162018666044 52.408152866293676,192.72398425639403 54.015082802507095,193.5107015284084 55.46792356687365,193.83623803209048 55.600000000034925,194.35166882108751 54.34527388535207,195.93863763195986 54.20219108276069,196.25060311472043 54.42231847130461,196.39980367895623 53.11256050952943,197.26787559729564 50.54807643312961,197.95961540763528 47.47729936306132,200.5230830990913 41.34675159235485,203.83244340197416 40.52127388532972,203.9816334840434 38.69421656051418,205.73121087378968 37.82471337582683,206.12452281634614 37.3954649681109,206.09739790080494 38.03383439488243,206.00246064273233 39.090445859881584,205.35146005189017 40.46624203817919,203.95450802995038 41.80901910830289,203.52049983666802 47.22415286622709,200.64515147025668 49.83266242040554,198.44789966283133 49.678573248384055,198.8954916225266 49.887694267497864,198.38008253730368 50.75719745218521,197.82398050021584 53.090547770727426,197.21362130698253 54.30124840763165,196.48118571796658 53.486777070036624,197.09154905405012 50.493044586037286,197.986742368681 47.8295031847083,200.3060723205126 42.29329936305294,203.35774631422828 40.389197452226654,204.10369794323924 39.442649681528565,205.16158413987432 38.59515923570143,205.771898382598 37.692636942723766,206.12452281634614 39.06843312102137,205.3785851549037 40.35617834399454,204.02232165243913 41.742980891722254,203.52049983666802 47.30119745217962,200.56377257147687 49.30435668787686,198.94974506725703 47.62038216559449,200.42814093714696 46.47571974527091,201.05204504355788" stroke="#4dd2ff" stroke-linecap="round" stroke-linejoin="round" stroke-width="0.5"><title>2024-10-13 16.0km</title><desc>1728810741000</desc></polyline><polyline fill="none" points="110.76424751721788,202.20276139624912 112.227349121531,201.15894065513567 114.05347593582701,200.30489798971394 116.61665393435396,198.0952006626976 119.09182582126232,197.45804026385304 120.29090909095248,196.82087610088638 120.57692895340733,196.5768547862899 120.23590527119813,196.2786057631165 120.30190985486843,196.03458322159713 121.52299465244869,194.4077521681611 121.31398013752187,193.7841270911449 119.97188693663338,193.59432743891375 118.75080213905312,193.0384836786834 117.59572192514315,192.02168889873428 116.0996180290822,190.28633699813508 114.65851795265917,189.89316745305405 113.08540870895376,190.0965311898326 112.00733384268824,190.58460259338608 109.66417112300405,192.8351254896188 106.77097020630026,192.6317669170894 105.94591291068355,192.7944538057709 103.07471352175344,194.85513315416028 101.20458365167724,195.87190122054744 100.06050420174142,195.88545806332695 98.53139801381622,195.12627224244352 96.87028265855042,194.63822139269178 95.55019098549383,194.8415761818469 93.57005347596714,194.42130919499323 91.19388846447691,194.6246643931372 90.08281130634714,194.97714582822664 82.50328495033318,197.91896518428257 80.55614973267075,198.90859144688147 79.67608861729968,199.69486337417038 78.65301757067209,202.21631744333718 78.40000000002328,202.39254590025666 79.44507257454097,199.6406379079781 80.08311688317917,198.90859144688147 80.21512605046155,199.2203896210849 80.55614973267075,198.85436558540096 82.80030557682039,197.76984263146005 91.31489686790155,194.61110739182914 93.60305576783139,194.39419513959 95.49518716579769,194.81446223211242 96.95828877011081,194.63822139269178 98.83941940410296,195.22117076229915 99.96149732620688,195.84478752982977 100.95156608102843,195.91257174380007 102.04064171126811,195.51942270970176 104.73582887707744,193.47231320036371 106.04491978610167,192.7402248701692 106.95798319333699,192.5910951565893 109.43315508024534,192.82156826335995 110.18120702827582,192.4012934046914 111.51229946536478,190.88286736369628 112.48036669217981,190.3134520863241 113.47043544694316,190.01518574113288 115.74759358289884,190.0694160470739 118.59679144388065,192.8351254896188 119.87288006115705,193.5265417678529 121.44598930486245,193.91969806683483 121.58899923611898,194.44842324356432 120.58792971738148,195.6414346322781 120.26890756306238,196.2921625548115 120.32391138275852,196.56329803041444 119.19083269673865,197.25469040803728 116.51764705887763,198.05453096249403 113.39343009935692,200.60313587939163 107.1889992360957,203.91080991147464 106.37494270439493,204.11414721882466 105.31886936596129,205.32060735843697 103.92177234537667,206.10683254695323 105.28586707415525,205.30705170151487 106.27593582891859,204.07347978798498 107.25500381976599,203.8565865647688 113.83346065698424,200.27778541335283 116.40763941942714,198.00030467165197 119.32284186413744,197.1326803105112 120.42291825823486,196.4277303777999 120.20290297939209,196.2786057631165 120.37891520245466,195.88545806332695 121.55599694425473,194.44842324356432 121.4349885409465,193.8925838852956 120.01588999241358,193.60788456799492 118.39877769298619,192.76733934139338 116.28663101606071,190.42191237097722 115.50557677622419,190.02874332016654 114.4165011459263,189.97451299378736 112.65637891524239,190.2592219030994 111.5893048128928,190.86930989204848 110.32421695953235,192.30639240344317 109.33414820476901,192.875797158129 106.73796791449422,192.6317669170894 105.5278838808299,192.98425486571068 106.5289533995674,192.577537899655 109.45515660813544,192.7808965744698 110.0161955691874,192.48263705353747 111.60030557680875,190.8286374668096 112.37035905272933,190.3134520863241 113.59144385030959,189.9473978203605 115.49457601225004,189.90672504744725 116.36363636370515,190.43546989887545 117.84873949579196,192.26572052021947 118.84980901452946,193.024926477985 120.03789152024547,193.5807703081009 121.22597402601968,193.68922730679333 121.46799083275255,193.86546969701885 121.60000000003492,194.43486622010096 120.4999236058793,195.6685483741021 120.25790679908823,196.2379353778815 120.4779220779892,196.4277303777999 119.01482047367608,197.28180374433578 116.53964858676773,197.90540859710018 113.89946524065454,200.25067283026146 107.29900687554618,203.81591903683147 106.48495034384541,204.00570070261165 106.04491978610167,204.37170725791657 106.5069518716773,203.96503323089564 107.07899159670342,203.8972540773393" stroke="#4dd2ff" stroke-linecap="round" stroke-linejoin="round" stroke-width="0.5"><title>2024-10-06 18.0km</title><desc>1728199446000</desc></polyline><polyline fill="none" points="176.33792187087238,202.47082287533703 177.9566303481697,201.29662826785352 179.7590220568818,200.36292260858318 182.06654265220277,198.28327762122353 185.24655859690392,197.36369445679156 186.34865798574174,196.6846128357356 186.46346000535414,196.57143216724944 186.11905394640053,196.16115128983802 187.45075737446314,194.3360906427406 187.24411373905605,193.69943461724324 185.84352909913287,193.44477119865041 184.24778102582786,192.62418515223544 183.1342014350812,191.64796292482788 181.79101780499332,190.04920388597384 180.8611214456614,189.681344609824 179.94270528835477,189.78038376401673 179.31129418016644,189.6106023034954 177.56630348128965,190.21898468479048 175.72947116661817,192.25633429265872 175.09806005848804,192.63833323815197 174.71921339363325,192.7373697901421 172.33133138454286,192.39781553475768 171.49327664100565,192.51100040037272 169.43832048896002,193.7560264098065 167.5900079724379,195.1849597412729 166.25830454425886,195.83575504770124 165.01844273193274,195.82160736368678 162.3550358756911,194.61904772029084 161.39069891051622,194.53416067170474 160.41488174331607,194.76052599229297 158.5780494286446,194.25120338073611 157.83183630084386,194.23705549753504 155.42099388793577,194.64734338892595 152.05729471176164,195.86405041046964 145.85798564978177,198.33986710905447 144.4803614137927,199.1462642188635 144.40000000002328,199.40091473749635 144.5722030295292,198.82087660668185 145.90390645765,198.00032975545037 155.57023651344934,194.392682115169 157.07414297107607,194.22290761255863 157.75147488707444,194.36438638251275 158.807653468044,194.1380202651926 160.16231730009895,194.50586497465702 161.75806537340395,194.3077948958453 163.67525910184486,194.87370848185674 165.15620515547926,195.6093918896804 166.26978474622592,195.5386533094279 171.05702896631556,192.35537118081265 171.80324209411629,192.18559360487416 174.73069359560031,192.45440798181517 175.45394631952513,192.00166760860884 177.37114004784962,190.06335229564866 178.79468509170692,189.53985995269613 180.00010629824828,189.6106023034954 180.97592346539022,189.3842266243737 182.27318628766807,190.04920388597384 183.16864204098238,191.19521930748306 182.9849588095094,191.39329486419592 184.47738506516907,192.80811013111088 185.87796970503405,193.4730671625075 186.7619452564977,193.61454687506193 187.2555939410231,194.1804639468537 187.5196385862655,194.16631605472503 186.17645495617762,196.11870835506124 186.29125697579002,196.45825138491637 185.18915758706862,197.26466197554691 182.19282487384044,198.14180377726007 179.05872973694932,200.80148229193583 172.51501461601583,204.25331176085456 171.75732128630625,204.39477792374964 170.42561785812723,205.80942977497762 168.96763220842695,206.6157733756263 168.77246877498692,206.57333438271598 169.25463725754526,206.46016365680407 170.4600584640284,205.69625828109565 170.9881477545132,204.96064079758798 171.81472229608335,204.2957516283932 173.21530693600653,203.8430588830015 177.6122242892161,201.52297998859285 180.00010629824828,199.96680271620426 180.16082912572892,200.03753851354122 181.42365134204738,199.0755278614597 181.64177517947974,198.52378274792136 181.9976614403422,198.2266881050018 182.70943396229995,197.83056069456507 185.12027637526626,197.2505144710958 186.3027371778153,196.4158085622039 186.13053414830938,196.2460371112902 186.2108955620788,195.99137945481198 187.47371777839726,194.392682115169 187.41631676856196,193.8975057666612 187.07191070960835,193.65699075418524 185.79760829126462,193.4872151417585 184.68402870051796,192.93544263274816 183.38676587829832,191.88848223077366 182.0895030561369,190.28972660869476 181.48105235182447,189.87942283102893 179.71310124901356,189.70964151996304 178.20919479144504,189.97846181088244 177.4629816635861,190.33217174173478 175.5802285411046,192.31292681082414 174.85697581723798,192.72322171668202 172.28541057673283,192.44025987273926 170.8733457348426,192.72322171668202 166.9471166623407,195.56694874686218 166.23534414038295,195.86405041046964 164.94956152007217,195.83575504770124 162.04507042252226,194.57660420401953 160.30007972364547,194.77467380972666 157.9925591283827,194.32194277020608 155.21435025247047,194.7180825293617 147.4192931172438,197.74567606812343 155.44395429181168,194.57660420401953 158.11884135002038,194.22290761255863 160.36896093550604,194.76052599229297 161.84990698914044,194.49171712343377 163.4571352644707,194.9868908575736 165.2365665693069,195.83575504770124 166.3960669679218,195.75086891683168 171.14887058199383,192.53929659903224 171.75732128630625,192.39781553475768 174.86845601920504,192.62418515223544 175.67207015684107,192.1148528726626 177.0037735850201,190.6575838962599 177.7844273186056,190.11994591660914 178.79468509170692,189.78038376401673 180.9529630613979,189.6106023034954 181.77953760296805,189.92186811877036 183.50156789802713,191.90263040919672 184.844751528115,192.94959067957097 185.78612808935577,193.41647522767744 187.3703959606937,193.7135825680307 187.60000000003492,194.20875972576323 186.55530162114883,195.32643730191194 186.11905394640053,196.26018474198645 186.2108955620788,196.51484179030376 185.80908849323168,196.85438362513378 184.56922668084735,197.43443188998936 182.2043050757493,198.056919385519 179.1850119586452,200.6317174559008 177.76146691472968,201.39565720170503" stroke="#ffac00" stroke-linecap="round" stroke-linejoin="round" stroke-width="0.5"><title>2024-09-22 20.8km</title><desc>1726992504000</desc></polyline><polyline fill="none" points="43.887847498001065,250.29215259259945 44.82573471014621,249.5592414267885 45.191739475762006,249.51695794412808 47.07895154890139,248.3612032454912 49.93836378084961,245.92280364792532 52.431771247065626,245.24624407405645 53.82716441625962,244.54149017736927 54.033042096940335,244.33006314464728 53.70135027798824,244.04815981425782 53.75853852269938,243.808541426195 55.600000000034925,241.32775625770591 53.58697378879879,241.31366073062236 52.37458300241269,240.72164699299174 50.60174741863739,239.2556947613557 49.480857823742554,237.8602031960254 48.794598888081964,237.47961157301324 46.08387609216152,237.6628595527436 44.18522637017304,238.90329954057233 43.07577442418551,240.22829982392432 42.286576648184564,240.5524996366803 39.90754567121621,240.20010849159735 38.85528196988162,240.41154331153666 34.54328832408646,243.3574936596633 33.685464654525276,243.68168442523165 32.25575853866758,243.47025577140448 31.52374900720315,242.92053940564801 29.625099285214674,242.22986630562082 28.00095313746715,242.52586958371103 26.445432883279864,242.03253035277885 25.393169181945268,241.99024403200747 22.4536934075295,242.62453716941673 14.104209690296557,245.85232888277824 12.525814138236456,246.7403076870396 12.400000000023283,246.52888480001275 13.520889594976325,245.79594903875113 17.398252581479028,244.25958737849578 21.938999205827713,242.5822510718499 21.95043685467681,242.77958605728054 23.586020651331637,242.24396171753324 26.39968228759244,242.01843491429463 28.00095313746715,242.4553926836088 29.842414614802692,242.31443875050172 30.620174741896335,242.48358344892767 32.35869737889152,243.44206525408663 33.73121525027091,243.59711301155767 34.63478951557772,243.25882671887666 38.77521842735587,240.31287377846456 39.7016679905355,240.1578214797264 41.943447180325165,240.4820214963038 42.629706115985755,240.3551607318659 43.12152501993114,240.10143877246446 45.24892772047315,237.94477893684234 46.529944400303066,237.5218995948744 48.565845909528434,237.45141954949213 49.16060365375597,237.56418760085216 49.686735504481476,237.987066783302 51.242255758610554,239.86181195030076 52.26020651316503,240.66526456923748 53.38109610811807,241.20089645014377 54.35329626692692,241.34185178299958 54.8565528197214,241.9338622461364 55.13105639402056,241.84928951423353 55.13105639402056,242.11710294653312 54.8565528197214,242.22986630562082 53.81572676735232,243.8367318514065 53.72422557591926,244.0763501791953 53.93010325654177,244.20320673367678 52.71771247027209,245.04891342946212 49.9154884829768,245.8100440024209 46.33550436858786,248.74175793720497 44.894360603706446,249.34782385419385 40.20492454327177,251.95527939473686 39.42716441623634,252.11031538224051 38.13471008744091,253.49153562939318 36.659253375721164,254.3230783913532 38.10039714066079,253.42106562037225 39.335663224803284,252.08212703681784 40.422239872976206,251.78614898206433 47.02176330424845,248.22025673567987 49.80111199367093,245.8100440024209 52.59189833205892,245.03481837012077 53.689912629080936,244.35825343871693 53.89579030976165,244.1750164006371 53.70135027798824,244.03406462915154 53.87291501194704,243.6253034898764 55.08530579827493,242.01843491429463 54.879428117594216,241.49690244449448 53.461159650585614,241.27137413872697 52.054328832484316,240.5665952594718 50.64749801432481,239.29798211341404 49.60667196189752,237.94477893684234 49.11485305806855,237.63466757535207 48.24559173954185,237.45141954949213 46.56425734714139,237.56418760085216 45.043050039734226,238.1985057764614 43.281652104866225,240.05915172342793 42.45814138208516,240.4961171278701 39.81604447978316,240.21420415865578 38.85528196988162,240.39744766926742 33.92565528204432,243.65349396110832 32.77045274031116,243.6253034898764 31.329308975487947,242.89234875018155 29.464972200221382,242.30034334747324 27.898014297126792,242.52586958371103 26.342494042997714,242.1030075186427 25.530420969123952,242.11710294653312 23.654646544950083,242.34262955129816 22.122001588635612,242.8218720803925 22.064813343982678,242.56815570248727 23.059888800722547,242.15938921946508 26.022239872952923,241.86338497396355 26.308181096217595,242.1030075186427 27.95520254172152,242.49767882897868 29.556473391654436,242.30034334747324 31.169181890436448,242.8077767411305 32.690389197843615,243.56892252613034 33.651151707803365,243.63939872636547 34.646227164485026,243.25882671887666 38.3062748213415,240.72164699299174 39.62160444800975,242.77958605728054 39.87323272443609,242.7936814001223 40.216362192237284,243.41387472968927 41.08562351076398,243.59711301155767 41.45162827643799,244.30187284349813 42.66401906282408,245.54223938987707 42.77839555207174,246.17651243579166 43.396028594172094,246.66983343566972 42.938522637065034,247.00810943844408 43.750595710938796,249.996169813734 40.11342335189693,251.99756195802183 39.41572676738724,252.1385037206055 37.551389992120676,253.9002608082592 36.25893566326704,254.39354783351882 36.29324861004716,254.54858045051515 37.322637013567146,254.18213937407563 39.038284352689516,252.84320987662795 37.79158061958151,254.01301231956313 36.213185067579616,254.52039271791728 36.247498014359735,254.35126617352216 37.048133439267986,254.15395154936414 38.157585385255516,253.40697161330172 39.41572676738724,252.03984450540156 40.15917394764256,251.92709101030778 43.38459094526479,250.22168057322415" stroke="#4dd2ff" stroke-linecap="round" stroke-linejoin="round" stroke-width="0.5"><title>2024-08-22 19.8km</title><desc>1724317734000</desc></polyline><polyline fill="none" points="109.92017075780313,245.394183305747 110.10458911425667,244.9207333119557 113.40875133412192,243.2352392597968 117.51205976528581,239.69374651147518 121.0621131270891,238.82256441573554 121.60000000003492,238.5195433756162 121.46168623270933,238.34909377280565 117.32764140883228,239.6179917465779 113.45485592324985,242.9511653719528 111.54919957317179,244.03064329660265 110.79615795094287,244.1632102278527 105.30971184634836,247.40159475438122 103.25037353252992,248.08335104987782 101.48303094995208,249.92029016127344 99.74642475985456,250.98078089629416 98.1942369263852,250.98078089629416 98.0559231590596,250.54522310472385 96.94941302028019,250.46947379501944 96.21173959446605,251.43527464105864 95.42796157958219,251.81401838126476 94.44439701171359,251.5678350583912 91.26318036287557,251.7572068809386 86.83713980793254,252.609377137298 83.64055496267974,252.91236984502757 82.0729989327956,253.25323591301276 81.25848452514037,253.70772280433448 80.78207043756265,253.42366865788063 78.40000000002328,253.31004684940854 78.6612593383179,252.96918090988765 81.2431163287838,253.21536194352666 81.25848452514037,253.66984894906636 81.93468516547,253.19642495524022 83.8096051227185,252.74193652188114 90.86360725719715,251.9276413177431 91.30928495200351,251.68145818047924 94.1677694771206,251.47314905792882 95.30501600855496,251.71933253541647 96.21173959446605,251.30271410715068 97.02625400212128,250.3558497591439 98.11739594454411,250.4884111260326 98.28644610458286,250.88609452695528 99.9308431163663,250.75353350992373 101.36008537892485,249.95816495885083 103.25037353252992,247.98866285997792 104.43372465315042,247.70459793317423 112.88623265747447,243.25417749996996 117.0356456778245,239.67480782380153 121.4155816436396,238.29227719568007 117.20469583786326,239.69374651147518 113.070651013928,243.12160976897576 104.40298826043727,247.81822396817734 103.09669156890595,248.1591015590093 101.89797225187067,249.54154166152875 99.45442902884679,251.0944044610078 101.62134471721947,249.7498534541519 103.01985058694845,248.10228868071863 105.04845250799553,247.4205324709328 109.35154749202775,245.1479894946242 110.703948772687,244.1821483513486 113.03991462121485,243.2352392597968 116.94343649951043,239.8263172583538 121.07748132338747,238.48166570279864 117.22006403416162,239.67480782380153 113.23970117396675,243.1026715121261 110.99594450375298,244.31471514930308 110.61173959448934,244.22002459123905 109.15176093921764,245.29949342596228 104.1724653148558,247.93184991744056 103.14279615803389,248.12122630923113 104.58740661694901,247.590971812504 104.55667022411944,247.28796840528958 106.10885805764701,245.96232133462036 106.29327641415875,245.0722374718316" stroke="#4dd2ff" stroke-linecap="round" stroke-linejoin="round" stroke-width="0.5"><title>2024-07-03 11.2km</title><desc>1719998343000</desc></polyline><polyline fill="none" points="173.05421822273638,246.1798738045327 173.44296962890076,245.6010200658784 177.8488188976189,243.22570159868337 181.49336332967505,240.0319401006127 185.70483689539833,238.83426298001723 187.17885264346842,237.9559606842231 187.60000000003492,237.5966537995264 187.38942632178077,237.45692312481697 185.5428571429802,238.6346492483426 181.44476940395543,239.83232787442103 177.29808773903642,243.34546640547342 168.777952755976,247.916422362483 166.72080989880487,248.63498862582492 165.37637795280898,250.1918710438331 163.20584926888114,251.58906022078008 161.5860517435358,251.64893948225654 161.42407199100126,251.18986456721905 160.20922384707956,251.14994494669372 159.3831271091476,252.12797276153287 158.52463442075532,252.50720641641237 157.14780652424088,252.24773085564084 154.2645669291378,252.4273678274767 144.48098987626145,254.10396976770426 144.40000000002328,254.32352347321284 144.95073115866398,254.18380751392397 147.1374578177929,254.54307687516848 148.02834645670373,253.74469941316056 148.98402699665166,253.56506393122254 149.16220472450368,253.26567100976536 154.31316085491562,252.3275695348857 157.16400449950015,252.14793245019973 158.50843644549605,252.4273678274767 159.36692913394654,252.08805337682134 160.4845894263708,251.01022619575087 161.4564679415198,251.129985132633 161.71563554560998,251.5491407005611 163.36782902141567,251.4693016300298 165.02002249722136,250.4912697592954 165.68413948261878,249.473311824142 166.8989876266569,248.4353872120846 168.09763779537752,248.15594481148582 176.97412823396735,243.52511344625964 181.20179977512453,239.9321340188908 182.3680539933266,239.33329621129087 185.4780652418849,238.5148808889935 187.22744656930445,237.47688465728424 185.17030371213332,238.7743788868538 181.5905511812307,239.7325216672616 177.2494938132586,243.40534877497703 168.72935883019818,248.0162234268355 166.7694038245827,248.73478923852963 165.4897637795657,250.21183097577887 164.12913385831052,251.2497439791914 162.47694038244663,251.728778462435 164.72845894272905,250.6709087176423 166.9475815524347,248.45534736471018 168.09763779537752,248.21582536728238 177.71923509566113,243.0660150491167 180.65106861654203,240.3912414754741 177.1361079865601,243.46523112191062 170.57592800905695,246.918408270285" stroke="#4dd2ff" stroke-linecap="round" stroke-linejoin="round" stroke-width="0.5"><title>2024-06-26 10.0km</title><desc>1719394224000</desc></polyline></svg>