<?xml version="1.0" encoding="utf-8" ?>
<svg baseProfile="full" height="300mm" version="1.1" viewBox="0,0,200,300" width="200mm" xmlns="http://www.w3.org/2000/svg" xmlns:ev="http://www.w3.org/2001/xml-events" xmlns:xlink="http://www.w3.org/1999/xlink"><defs /><rect fill="#222222" height="300" width="200" x="0" y="0" /><text fill="#FFFFFF" style="font-size:12px; font-family:Arial; font-weight:bold;" x="10" y="20">Over 10km Runs</text><text fill="#FFFFFF" style="font-size:4px; font-family:Arial" x="10" y="280">ATHLETE</text><text fill="#FFFFFF" style="font-size:9px; font-family:Arial" x="10" y="290">wjianbo</text><text fill="#FFFFFF" style="font-size:4px; font-family:Arial" x="120" y="280">STATISTICS</text><text fill="#FFFFFF" style="font-size:3px; font-family:Arial" x="120" y="285">Number: 1</text><text fill="#FFFFFF" style="font-size:3px; font-family:Arial" x="120" y="290">Weekly: 1.0</text><text fill="#FFFFFF" style="font-size:3px; font-family:Arial" x="141" y="285">Total: 11.0 km</text><text fill="#FFFFFF" style="font-size:3px; font-family:Arial" x="141" y="290">Avg: 11.0 km</text><text fill="#FFFFFF" style="font-size:3px; font-family:Arial" x="167" y="285">Min: 11.0 km</text><text fill="#FFFFFF" style="font-size:3px; font-family:Arial" x="167" y="290">Max: 11.0 km</text><polyline fill="none" points="137.20064034149982,147.7281873964821 137.89220917830244,145.95274991978658 150.2828175027389,139.63214722421253 165.67022411967628,126.35154941794463 178.98292422643863,123.08461655897554 181.0,121.9482876585098 180.48132337257266,121.30910164793022 164.97865528287366,126.06746904959437 150.45570971211419,138.56687014480121 143.30949839926325,142.61491236224538 140.4855923159048,143.11203835438937 119.91141942376271,155.25598032888956 112.18890074710362,157.8125664370018 105.56136606214568,164.7010881046881 99.04909284948371,168.67792836105218 93.2283884738572,168.67792836105218 92.70971184642985,167.0445866426453 88.56029882607982,166.76052673126105 85.79402347933501,170.38227990391897 82.85485592321493,171.80256892973557 79.16648879391141,170.87938146892702 67.2369263607543,171.58952580345795 50.63927427958697,174.78516426478745 38.65208111004904,175.92138691880973 32.773745998041704,177.19963467377238 29.71931696915999,178.90396051621065 27.93276414088905,177.8387574669905 19.0,177.41267568524927 19.979722518706694,176.13442841201322 29.661686232779175,177.05760728818132 29.71931696915999,178.76193355891155 32.255069370381534,176.98659358208533 39.28601921023801,175.282261957007 65.73852721462026,172.22865494148573 67.40981856989674,171.3054681767826 78.12913553905673,170.52430896717124 82.39381003193557,171.4474970077863 85.79402347933501,169.88517790177139 88.8484525079839,166.33443659672048 92.94023479195312,166.8315417225822 93.57417289214209,168.32285447604954 99.74066168628633,167.8257506621885 105.10032017086633,164.84311859565787 112.18890074710362,157.45748572488083 116.62646744935773,156.39224224933423 148.32337246555835,139.70316562481457 163.88367129163817,126.28052933921572 180.30843116366304,121.09603948373115 164.51760939182714,126.35154941794463 149.01494130212814,139.20603663357906 116.5112059765961,156.81833988061408 111.61259338329546,158.09663084626663 107.1173959444277,163.28078123065643 97.95410885824822,169.1040167286992 106.08004268957302,164.0619504530332 111.32443970092572,157.8835825526039 118.93169690505601,155.32699676591437 135.06830309517682,146.80496060481528 140.1398078976199,143.18305631750263 148.8996798293665,139.63214722421253 163.53788687312044,126.84868971881224 179.0405549625866,121.80624638544396 164.57524012797512,126.28052933921572 149.6488794023171,139.13501817040378 141.2347918888554,143.68018180987565 139.79402347910218,143.32509221712826 134.31910352199338,147.37310034729308 115.64674493065104,157.2444371903548 111.78548559243791,157.95459865953308 117.20277481339872,155.9661442968645 117.08751334040426,154.8298815197777 122.90821771626361,149.8587050047936 123.59978655306622,146.52089051931398" stroke="#4DD2FF" stroke-linecap="round" stroke-linejoin="round" stroke-width="0.5"><title>2024-07-03 11.0km</title><desc>1719998343000</desc></polyline></svg>