<?xml version="1.0" encoding="utf-8" ?>
<svg baseProfile="full" height="300mm" version="1.1" viewBox="0,0,200,300" width="200mm" xmlns="http://www.w3.org/2000/svg" xmlns:ev="http://www.w3.org/2001/xml-events" xmlns:xlink="http://www.w3.org/1999/xlink"><defs /><rect fill="#222222" height="300" width="200" x="0" y="0" /><text fill="#FFFFFF" style="font-size:12px; font-family:Arial; font-weight:bold;" x="10" y="20">Over 10km Runs</text><text fill="#FFFFFF" style="font-size:4px; font-family:Arial" x="10" y="280">Runner</text><text fill="#FFFFFF" style="font-size:9px; font-family:Arial" x="10" y="290">jianbo</text><text fill="#FFFFFF" style="font-size:4px; font-family:Arial" x="65" y="280">SPECIAL TRACKS</text><rect fill="yellow" height="2.6" width="2.6" x="65" y="283" /><text fill="#FFFFFF" style="font-size:3px; font-family:Arial" x="70" y="285.5">Over 20.0 km</text><rect fill="red" height="2.6" width="2.6" x="65" y="287" /><text fill="#FFFFFF" style="font-size:3px; font-family:Arial" x="70" y="289.5">Over 40.0 km</text><text fill="#FFFFFF" style="font-size:4px; font-family:Arial" x="120" y="280">STATISTICS</text><text fill="#FFFFFF" style="font-size:3px; font-family:Arial" x="120" y="285">Number: 19</text><text fill="#FFFFFF" style="font-size:3px; font-family:Arial" x="120" y="290">Weekly: 1.0</text><text fill="#FFFFFF" style="font-size:3px; font-family:Arial" x="141" y="285">Total: 347.9 km</text><text fill="#FFFFFF" style="font-size:3px; font-family:Arial" x="141" y="290">Avg: 18.3 km</text><text fill="#FFFFFF" style="font-size:3px; font-family:Arial" x="167" y="285">Min: 10.0 km</text><text fill="#FFFFFF" style="font-size:3px; font-family:Arial" x="167" y="290">Max: 42.8 km</text><polyline fill="none" points="12.283922754781088,47.922929428594216 12.25,48.08071332312102 12.302768729641684,47.9554144030335 12.408306188910501,47.98325864415892 12.468613308505155,48.32666922926728 12.464844113535946,48.02966566614123 12.412075383908814,48.0157435656547 12.370614239189308,48.13176090973866 12.419613773847232,48.224574523221236 12.547766402974958,48.312747240484896 12.819148441136349,48.26169990345079 12.947301070278627,48.484451403001 12.856840390857542,47.74658192707648 12.913378315482987,47.01797939668177 12.804071661244961,46.93908526856467 12.69853420194704,46.67455667075046 12.690995812008623,46.312567105062044 12.62691949744476,46.17798033814324 12.766379711494665,45.84383176664414 12.88699395066942,45.79742200424516 12.80784085621417,45.88560050305023 12.830456026058528,45.82526786866947 12.90583992554457,45.87631856569715 13.139530013955664,45.86239565530195 13.437296416930621,46.089802535858325 13.527757096322603,45.88560050305023 13.701140065153595,45.81134493906575 13.708678455092013,45.546808281796984 13.961214518392808,45.44470590839774 14.089367147520534,45.486475095207425 14.338134015823016,45.416859757686325 14.545439739405992,45.532885247466766 15.001512331320555,45.486475095207425 15.107049790603924,45.416859757686325 15.747812936257105,45.440064884736785 17.142415076770703,45.91344630113599 17.45902745462081,45.94129207827427 17.83971614704933,46.13157099471573 17.975407166115474,46.294003442166286 18.107328990241513,46.24295332120164 18.47671009771875,46.35897622156699 18.627477896690834,46.31720801932897 18.85362959516351,46.447153382636316 19.724313634244027,46.54461210574664 19.920311772919376,46.6884792756573 20.481921824102756,46.54461210574664 20.93045602606435,46.581739170869696 21.141530944631086,46.52604855921891 21.37899022801139,46.60494356765048 21.725756165658822,46.59566181068658 22.4042112610623,46.37753985188829 22.68313168916211,46.34969440293207 23.259818520236877,46.11300724103057 23.632968822712428,46.06195687045329 24.91072591903503,46.173339406414016 25.608026989299105,46.577098289759306 26.01886924149585,46.66063406059766 26.802861796168145,46.665274931223394 27.292857142863795,46.60030268945047 28.61961377384432,46.00162452352379 29.4563750581583,45.184807687011926 29.490297812924837,45.008447140313365 30.164983713344554,43.8992128590362 30.29690553745604,43.806388399265416 30.933899488140014,42.766738543890824 31.33343415542913,42.330448208518646 31.454048394603888,41.93128445999173 31.947812936268747,41.355738452439255 32.313424848776776,41.2164921058029 32.516961377390544,41.012263182972674 32.773266635645996,41.11437778527397 33.66656584459997,41.09581151490056 34.02463936714048,41.14686873601386 34.31486738019157,41.36502152357207 34.88024662635871,41.17471809964263 35.16293624942773,41.28611534461743 35.42677989763615,41.24898296687752 36.07131223824399,41.411436844373384 36.02608189856983,41.72241799202675 36.12408096790023,42.14943262352608 37.16060958584421,44.358690506585845 38.0576779897674,44.33084353880258 38.34036761285097,44.576824362658954 38.566519311323646,44.88313782016121 38.81905537459534,44.89242000657032 38.80020939973474,44.9388309037131 39.015053513270686,45.082704315042065 39.535202419763664,45.09662751870928 40.40211726384587,44.869214536192885 41.084341554218554,44.423666683247575 41.72133550490253,44.45615472881036 41.89094927873521,44.196249565859034 41.93241042345471,43.90385407591748 42.05302466264402,43.64394503446965 42.294253141008085,40.251036358688 42.71263378317235,39.03025577007065 42.70132619823562,39.35518229351146 42.45255932993314,39.842566728868405 42.350791065604426,40.422777924770344 42.21133085156907,42.562518176160665 42.13217775711382,42.71568355760974 42.16233131691115,43.27264323760028 42.083178222426795,43.94562500162647 41.74018147976312,44.753186965976056 41.83818054909352,45.38901358601652 41.95125639831531,45.67211535512615 42.034178687783424,45.70460230490062 42.03040949278511,45.950573999318294 42.30932992089947,46.669915801277966 42.40732899024442,46.73488792085482 42.39602140530769,46.897317720893625 42.49025127966888,47.04582434292388 42.5354816193576,47.33355422769091 42.73901814798592,47.38924362449325 42.86340158212988,48.8835444878132 43.044322940913844,49.07380828120586 43.23278268962167,49.12949506013683 43.23278268962167,49.47753553077928 43.36847370870237,49.69099873398591 43.37224290367158,49.86269650428221 43.27424383434118,49.96014623591327 43.27424383434118,50.17360665651722 43.06316891578899,50.50771614845871 43.2817822243087,50.70261195972853 43.293089809216326,50.934629445011524 43.46270358306356,51.05063764240549 43.55693345742475,51.01351505879211 43.99039087949495,51.06919892026417 44.22408096790605,51.24089029928655 44.68769194975903,51.3847392201169 44.84222894370032,51.54250836162828 45.06084225222003,51.55178887841248 45.41137738483667,51.72811825565077 45.98806421592599,50.65156791784102 46.387598883215105,50.41490825869187 46.5044439274061,50.40562745693023 47.09243834343215,49.955505778318184 48.40411819452129,49.18982230946858 48.08750581665663,48.60974853250082 47.8575849232293,48.34987253229701 47.73320148909988,48.01110286432231 47.56735691020731,47.922929428594216 47.51835737552028,47.67697083995881 46.99067007911799,46.84626843197475 47.09243834343215,46.74416964291595 47.16405304793443,46.49356233039725 47.409050721282256,44.395819764362386 48.51342484878842,42.17263979926793 48.95818985576625,41.47177667437791 49.76102838529914,40.75697544438299 50.21333178221539,40.2417530080711 50.382945556077175,40.13499430873344 50.99732433691679,39.29483901205458 51.40062819917512,38.4175294194938 51.40062819917512,38.15758184166043 51.55893438808562,37.52163096086588 51.996161005139584,37.56340909141363 51.79639367148047,38.06938492709742 51.21216845045274,38.826014780603145 50.69201954398886,39.80543290257992 50.23594695208885,40.34851139941384 49.169264774318435,41.40679531490605 48.93180549092358,41.74562543556749 49.832643089815974,41.861662434981554 49.825104699863004,41.80596472067191 49.78364355515805,41.84773801426854 50.17940902746341,41.92664299572789 51.065169846464414,42.367579501140426 51.792624476511264,42.413993564514385 51.85670079107513,42.47897315544469 51.868008375982754,43.281925827915984 51.93962308051414,43.59289125829309 51.90193113076384,43.83423576163477 52.03385295487533,44.460795875857 52.052698929735925,45.751012183667626 52.139390414144145,46.09444347806493 52.12808282922197,46.799859926410136 52.22985109355068,47.29642791662263 52.342926942772465,49.69563922472662 52.5916938110895,51.96476952111698 51.868008375982754,53.22224401156927 51.55893438808562,53.61200603285397 51.46470451373898,54.521434795511595 51.04255467659095,55.30092738788153 52.75,56.28918905165119 51.19332247557759,55.49579797235492 50.959632387166494,55.30556717562649 51.065169846464414,55.03645852592672 51.28755234993878,54.74414863900529 51.509934853442246,53.57488601710429 51.73985574685503,53.30576479006413 51.83785481619998,53.04128167854651 52.55023266636999,51.93228806443585 52.3165425779589,49.69563922472662 52.358003722678404,48.800013733052765 52.26000465333345,48.37307582077119 52.064006514658104,46.173339406414016 52.08662168451701,45.69067932991311 52.01123778501642,44.67428801047208 51.93208469057572,44.40046091896875 51.93962308051414,43.63930378501027 51.9057003257476,43.25871934774841 51.83031642626156,43.161251972138416 51.81523964637017,42.50682151664296 51.215937645421945,42.362938091595424 51.031247091668774,42.390786540101544 49.91179618428578,41.89879419795761 49.33887854818022,41.782757314969786 48.86395998139051,41.801323240684724 48.73203815727902,41.98698198569036 48.56242438344634,42.54395263228798 48.49080967891496,42.67391124370988 48.39281060959911,42.68319398421227 48.29858073522337,42.96167511640306 48.21565844579891,42.98488178283151 48.144043741282076,43.26336064494899 48.03850628199871,43.35154518111449 47.99327594230999,43.60681502241641 47.70304792927345,43.95954863303632 47.67666356447444,44.21017310298703 47.510818985581864,44.34012586373865 47.46181945090939,44.465437022307015 47.37889716147038,45.129114973566175 47.42412750117364,45.30083390420623 47.33366682178166,45.42150078425766 47.231898557482054,45.82990884402534 47.25451372732641,46.34041258194338 47.130130293167895,46.906599402227585 47.213052582606906,47.1711263418365 47.401512331314734,47.44957370980046 47.427896696157404,47.6398448733089 48.340041879957425,48.9856373765615 48.40034899953753,49.24086836674542 48.35888785481802,49.34296027011078 48.155351326204254,49.52858119132725 47.51835737552028,49.830213203411404 47.25074453234265,50.07615748675016 47.130130293167895,50.07615748675016 46.78713355048967,50.266415151167166 46.493136342498474,50.52627769850005 46.0332945556147,50.707252323678404 45.95791065614321,50.96711177692487 45.98052582597302,51.171285782133054 45.78075849232846,51.28265294677476 45.77322010239004,51.46826414347015 45.50560725921241,51.820922853767115 45.531991624011425,51.927647854005045 45.173918101456366,51.690996351277136 44.7555374592921,51.556429135951475 44.144927873436245,51.157364862992836 44.09592833877832,51.231609704569564 43.70770125641138,51.018155383771955 43.217705909744836,50.61444493408271 42.91240111680236,50.540198854916525 42.81817124245572,51.22696940632886 42.52794322941918,51.40794060660119 42.475174499777495,52.1364567474011 42.15479292694363,52.38238571166585 42.13594695206848,53.032001535073505 41.86456491392164,53.166563387905626 41.85325732899946,53.333605007708684 41.70625872499659,53.440325648076396 41.6534899953549,53.66304599374416 41.48387622150767,53.76512570449631 41.20872498837707,54.20592122434391 41.04288040949905,54.577113381954405 41.03534201954608,54.8415855243511 40.865728245684295,54.93438231966866 40.81295951605716,55.08749652356346 40.58303862262983,55.21277131042734 40.48880874826864,55.1617334854418 40.42850162865943,55.3519650210219 40.25888785482675,55.48187867888919 40.29281060959329,55.68602779191497 40.055351326212985,55.927293474622275 39.946044671945856,55.96905083706952 39.848045602600905,55.90873463175376 39.24874360168178,55.291647810659924 39.082899022789206,55.21277131042734 38.920823638909496,54.99006028523581 38.67205677059246,54.915822979208315 38.472289436947904,54.76270806550019 38.45721265707107,54.59103301549112 38.05390879478364,54.36367834594785 37.910679385764524,54.05280337537624 37.72975802698056,54.03888353952061 37.59783620288363,54.14096221424188 37.49229874360026,54.47967580073964 36.968380642152624,55.1199752126995 36.43315495579736,56.126800448069844 36.052466263383394,57.04544659750536 35.91300604933349,57.138237870785815 35.93185202420864,57.342377853710786 35.81877617495775,57.384133620700595 35.487087017216254,58.42801249634431 35.25716612380347,58.8501951528342 35.204397394132684,59.25381583053968 35.098859934849315,59.32340515803298 35.08378315497248,59.7084637403932 34.96316891578317,59.84300133759825 34.838785481624654,60.2698070327242 34.68424848768336,60.52496026262088 34.5824802233692,61.002787947545585 34.352559329912765,61.43885831976513 34.190483946033055,62.213566427100886 33.990716612373944,64.35668649449508 33.9153327128879,64.54687081470547 33.97563983249711,64.88548926108342 33.809795253604534,65.48850074971779 33.892717543043545,65.55807836690656 33.79094927874394,65.66940228264866 33.83994881340186,65.6833177486078 33.798487668682355,66.30023148769033 33.69295020939899,66.26312418468297 33.4818752908468,66.80581478885142 33.19541647277947,67.10266782487088 32.969264774306794,67.29747633737861 32.85618892508501,67.26964661257443 32.75065146580164,67.40415675550685 32.47550023267104,67.47836903913412 32.7167287110351,67.32994432323176 32.886342484882334,67.3206677587441 32.893880874835304,67.17688071228986 33.519567240567994,66.88930494559463 33.48941368078522,66.80117644128768 33.75325732899364,66.56461994601341 33.70048859935196,66.48576744531965 33.775872498823446,66.18890946717875 33.66656584459997,65.78072586393318 33.907794322949485,65.5673553726665 33.87010237321374,65.51633181226862 33.92664029781008,65.32151393539971 33.73441135411849,65.16844202782522 33.919101907871664,64.7416927646409 33.86633317822998,64.28246795836094 33.998255002341466,63.68871431707157 34.09625407165731,62.61251158804589 34.23571428572177,62.306344754888414 34.17540716615622,62.1115099981871 34.2658678455191,61.44813635701939 34.639018147980096,60.43681661827941 35.03855281526921,59.796609117900516 35.14409027455258,59.50433679768321 35.125244299691985,59.32804444188878 35.33631921824417,58.97081788512878 35.28731968358625,58.91978523862417 35.32501163332199,58.64606348022426 35.6039320614218,58.15428710369815 35.66423918103101,57.80632817589867 35.87531409958319,57.49084258912262 35.83385295487824,57.43052886213263 35.943159609116265,57.18463342025643 36.00723592368013,56.72995452933537 36.847766402963316,55.05501780593113 37.58275942299224,54.168801803949464 37.73729641693353,54.145602147291356 37.94837133551482,54.37295815571997 38.03506281992304,54.57247350295074 38.12929269426968,54.526074680907186 38.32152163796127,54.13632228057759 38.4308282922284,53.72800584223296 38.40067473244562,53.602726032397186 38.664518380654044,52.86495855470639 38.59290367613721,52.6515136498092 38.83790134948504,52.1550174809272 38.83413215451583,51.91372721926382 38.93966961377009,51.663154898582434 38.90951605398732,51.5471486203096 39.033899488145835,51.28729323804146 39.037668683129596,50.83718227828285 38.57405770126206,50.7768577132083" stroke="red" stroke-linecap="round" stroke-linejoin="round" stroke-width="0.5"><title>2026-03-01 42.6km</title><desc>1772325605000</desc></polyline><polyline fill="none" points="61.13576505018864,68.6577904225851 63.920986622106284,67.03035924927826 65.48714464885416,65.52808676759014 67.95066889637383,64.72477713089756 67.54431438131724,64.95429496329598 65.76651337795192,65.40289616682276 63.72627508366713,67.15554739546496 59.044732441485394,69.69056673315208 57.99498327757465,70.07655054053612 57.25,70.87980838576186 57.47010869567748,70.45210063047125 57.986517558572814,70.0243906714386 59.12092391308397,69.62797459526337 64.23421822744422,66.85300905230542 65.11465301003773,66.11230707473442 65.58026755857281,65.44462638805271 67.79828595317667,64.81867086629791 68.77184364554705,64.15097977309779 68.97502090304624,64.18227791309619 69.5168269231217,63.50414890431421 70.04170150501886,62.2522038698371 71.58246237458661,61.146303380410245 73.15708612045273,58.92402481904719 74.15604096988682,58.7466572991616 76.0100334448507,59.63349110780109 76.44178511708742,59.63349110780109 77.5,59.195292057418555 77.94021739135496,58.62145646866702 78.37196906359168,57.63027656025224 78.75292642140994,57.233801282076456 79.26086956524523,57.05643014963425 80.24289297661744,57.014695710429805 80.8270275919931,56.71212039851525 81.29264214046998,56.12783391538687 81.38576505018864,55.80438784319267 81.71592809364665,51.46382824709872 81.9698996655643,50.858636036806274 82.82493729097769,49.971708443335956 84.04400083614746,49.48128558576718 85.77100752509432,50.0030119315561 85.77947324415436,50.29517725223559 85.87259615387302,50.107356807049655 86.76149665552657,50.1803981418052 87.14245401340304,50.0030119315561 86.83768812712515,49.700411050609546 87.7858486622572,48.667385935390485 89.10650083614746,47.863913064553344 92.86528010031907,47.081302138431056 95.48118729097769,47.22739007171185 96.13304765889188,46.997823203899316 96.8526337792864,45.49518801904196 97.42830267560203,42.89681712399033 97.09813963214401,40.9140697279654 97.68227424751967,39.09824895960628 97.56375418062089,39.32783768867375 97.65687709033955,38.70168511264637 97.41137123748194,36.60403954282083 97.75,34.12019161423086 97.44523411372211,36.5831671810447 97.65687709033955,38.95214671024587 97.14893394650426,40.9140697279654 97.46216555184219,42.27069148704322 97.46216555184219,42.90725251124968 96.9542224080651,45.30735670727154 96.1161162207718,47.04999754780874 95.64203595317667,47.25869459536625 92.82295150501886,47.143911284190835 88.8694607023499,47.9682606303104 87.86204013379756,48.55260457308759 86.84615384618519,49.710845582099864 87.43028846156085,50.253439412263106 87.10012541804463,50.03431540796737 86.2366220735712,50.14909472047293 83.95087792648701,49.50215470260446 82.74028010037728,50.03431540796737 82.0122282608645,50.816898480275995 81.69053093646653,51.66207990788098 81.4196279264288,55.773086543471436 81.16565635451116,56.545181823094026 80.36141304345801,56.993828482954996 79.37092391308397,57.07729736134934 78.7444607023499,57.28596919005213 78.38890050165355,57.661577159451554 77.96561454853509,58.66319009979634 77.5,59.23702539997612 76.53490802674787,59.654357671548496 75.97617056855233,59.654357671548496 74.20683528436348,58.77795747727214 73.2332775919931,58.913591446013015 71.76870819402393,60.96894060992781 71.1930392976501,61.501027784179314 70.24487876257626,62.04354452803818 69.49142976594158,63.56674566032598 69.00041806022637,64.20314333317219 68.79724080272717,64.18227791309619 67.71362876257626,64.87083400677511 65.80037625419209,65.40289616682276 63.52309782610973,67.33289694598352 60.65321906359168,68.83513676344592" stroke="#4dd2ff" stroke-linecap="round" stroke-linejoin="round" stroke-width="0.5"><title>2026-02-15 16.0km</title><desc>1771116215000</desc></polyline><polyline fill="none" points="107.91479272028664,70.0157401631368 107.8915986456268,69.74897782572953 108.64154039282585,69.31072337638034 109.79351276744273,68.89152109740826 109.92494585714303,68.70097384065593 110.4970663653803,68.42467946750548 111.67223281459883,67.16705097577506 113.75196817546384,66.500118309159 114.718387952802,65.8712907058507 114.90394055005163,65.9094016181698 115.40647883428028,65.20434663803462 115.95540526782861,63.98477659434866 117.37797518004663,63.0129176664268 118.32120088278316,61.50746452806925 118.76188830123283,61.040577416504675 119.63553177996073,60.99293571277667 121.21272885656799,61.755199378487305 121.55290861820686,61.81236884437385 122.66622420173371,61.37406850398111 123.0605234708637,60.859538783050084 123.45482274002279,59.93528217798303 123.77953978523146,59.601784759368456 124.18930177079164,59.430271229743084 125.24076648859773,59.35404286978883 125.71237933990778,59.087243006099015 126.20718626593589,58.27730909476668 126.50097787822597,54.32280157218338 126.87208307272522,53.569992421027564 127.70706976039219,52.845763900688326 128.5497878062306,52.51223528051196 130.1656416739279,52.96964558570471 130.24295525613707,53.188820378432865 130.30480612188694,53.06493905174284 131.07794194374583,53.14117373828776 131.46450985467527,52.98870428850205 131.17844960058574,52.72188201313111 132.07528715397348,51.73081962134893 132.69379581147223,51.27340183767956 133.33549854363082,51.00657352199778 136.66771393595263,50.32043925256585 139.04897226733738,50.434795395616675 139.79118265633588,50.234672032012895 140.3401090898842,48.84332355843799 140.85811009054305,46.508469047890685 140.87357280694414,45.993838375965424 140.5720498364244,44.82161101742531 141.05912540422287,42.81067468373658 140.85811009054305,40.809215850043984 140.98954318024334,40.551881591934944 140.95861774738296,39.80846660219686 141.35291701654205,37.025361086431076 141.90957480826182,35.748148295184365 141.87864937540144,35.50985994273651 141.84772394254105,35.9101839466166 141.8399925842823,35.53845458460273 141.29106615076307,34.76639546462684 141.2601407179027,34.38512879877089 141.39157380760298,32.82191540194617 141.54620097199222,32.7647240560982 141.64670862883213,32.25 141.13643898637383,32.259531958763546 141.42249924046337,32.82191540194617 141.29879750899272,34.60435736614454 141.4611560315825,35.01421776822099 141.90957480826182,35.50985994273651 141.9559629575815,35.76721133099636 141.8399925842823,36.32003728241398 141.63124591240194,36.4439459938294 141.43796195695177,36.81567091184843 140.91222959803417,40.38032493417995 141.07458812065306,42.858327820998966 140.6029752693139,44.6500640289305 140.87357280694414,46.508469047890685 140.34784044808475,48.910032630039495 139.78345129813533,50.11078587536758 139.28091301390668,50.453854736013454 136.68317665235372,50.358557986102824 133.07263236420113,51.1304582140001 132.19125752724358,51.68317206440406 131.20937503347523,52.702823243242165 131.47224121293402,52.979174937689095 131.0547478691151,53.1125857398074 130.58313501774683,53.09352706819482 128.60390731375082,52.52176469002734 127.4287408644741,53.05540971053415 126.74064998302492,53.84634095292131 126.47778380359523,54.522914138920896 126.25357441522647,58.25825172202167 126.00617095225607,58.99195711281209 125.23303513036808,59.401685603748774 123.84139065098134,59.601784759368456 123.4393600236217,59.992453016697254 123.10691162018338,60.85001042195654 122.6816869181639,61.39312509320007 121.76938664834597,61.77425587190373 121.37508737918688,61.81236884437385 119.62006906350143,61.00246405592043 118.83147052518325,61.088219090233906 118.52221619646298,61.3359553110713 117.67949815062457,62.736602558790764 117.20015394105576,63.260647596143826 116.27239095477853,63.78468901023007 115.90901711850893,64.15627981747821 115.23638895346085,65.52829163250863 114.65653708708123,66.17617746802716 114.19265559394262,66.47153534942481 114.05349114598357,66.38578640562628 112.0124125762377,66.98602697505703 109.82443820030312,68.84388432812557 105.4021012991725,71.17805082035193 104.88410029848455,71.26379434335104 104.00272546155611,72.20696669575409 103.0440370424185,72.75 104.0336508944456,72.14980506901338 104.85317486562417,71.27332139546343 105.68043019503239,71.00656348341727 109.94813993186108,68.69144646519999 111.749546396808,67.14799583816057 113.92978941451292,66.42389705931419 111.93509899402852,67.04319249568653 110.05637894687243,68.68191908860172 108.30909198944573,69.59654178291385" stroke="#4dd2ff" stroke-linecap="round" stroke-linejoin="round" stroke-width="0.5"><title>2026-02-08 18.0km</title><desc>1770535113000</desc></polyline><polyline fill="none" points="154.45596471967292,70.80054405629198 154.36434190100408,70.52957218408847 155.10954082594253,70.1758015057676 155.24392095996882,70.19838267533851 155.57376310709515,69.87471843139429 155.91582162998384,69.83708294066673 157.45508498314302,68.31658933615472 157.83990082141827,68.12087943432198 159.09207934283768,67.83484073502404 159.72122269749525,67.37567049236532 159.9166847105662,67.36061567069919 160.69853276299546,65.93791794496428 161.77968202292686,65.23032024659187 162.70201839721994,63.784988327144674 162.94634591360227,63.57420784070928 163.6365711473627,63.40859408086908 165.10253624556935,64.07857419675202 165.41405382900848,64.01835157162714 166.07984631109866,63.739821142509754 166.34860657909303,63.41612198897565 166.64179959872854,62.685910495416465 166.94720899421372,62.33209347612865 167.31370026877266,62.18906047062774 167.94895181132597,62.181532408241765 168.4498232198821,61.97074627714392 168.79798993072473,61.541643645919976 168.87128818567726,61.225460791894875 169.06064201082336,58.221640395939176 169.323294090922,57.64946704218164 169.88524737861007,57.09987432965136 170.6793118068017,56.746024296768155 171.99257220729487,57.09987432965136 172.02311314686085,57.2655055412979 172.12084415336722,57.16010391418604 172.72555475641275,57.22033343811563 173.01263958815252,57.11493173146664 172.7866366355156,56.90412776144876 173.5074028088129,56.06090445807786 174.3625491161074,55.586586130310025 175.59029488588567,55.315545398501854 176.03008441536804,55.3306032490982 177.16620736647747,55.00685862584942 179.16358481283532,55.07461927327313 179.5178597115737,54.93909790172256 180.0492720596958,53.75703737414369 180.41576333425473,52.01025551657949 180.409655146359,51.400375706849445 180.21419313322986,50.67754714440889 180.26916682440788,50.150479147683654 180.61122534735478,49.35233877381688 180.60511715942994,49.19421536105801 180.53792709243135,49.39751681499911 180.56846803196822,48.4487707882181 180.42187152215047,47.60542836030072 180.4951697770739,46.76960404995407 180.86776923952857,44.33736419576235 181.11820494383574,43.88554404736351 181.19150319870096,43.32829449928977 181.2159359503712,43.591859121490415 181.20371957455063,43.36594665924349 180.79447098460514,42.74844824403408 180.74560548135196,42.24390212551589 181.01436574934633,41.19714362413288 181.16707044708892,40.01481163891731 181.88783662038622,38.24503538978752 182.10162319720257,38.36553245478717 183.05450051106163,36.18148548652607 183.2377461483411,35.47353590992134 184.03791876445757,33.85425804177794 184.12343339520157,33.583118858816306 183.91575500628096,33.45508048410193 184.10510883145616,32.965519465367834 184.68538668283145,32.25 184.111217019381,33.03330507618375 183.14001514180563,35.481067332493694 182.68190104860696,36.279392747281236 182.35816708940547,37.24339414364658 181.86951205666992,38.13960025881897 181.9000529962068,38.305283952635364 181.17317863501376,40.075058419650304 180.76393004506826,42.43216610012314 181.27090964154922,43.53161588162766 181.2159359503712,43.88554404736351 180.89831017906545,44.254530757269094 180.6661990385328,45.64762333505496 180.47073702540365,47.28917188597552 180.60511715942994,48.9532645954896 180.5318189045065,49.40504648523347 180.60511715942994,49.20927475172357 180.6173335352505,49.33727941917459 180.22640950905043,50.48177957314692 180.45241246171645,51.92743269717539 180.12257031461922,53.5763381665347 179.54229246321484,54.961684818299545 179.07807018212043,55.12732194601995 177.09290911158314,55.02944551684777 174.40530643146485,55.60917280258218 173.5379437483498,56.068433290132816 172.7866366355156,56.8815415777608 173.0065314002568,57.11493173146664 172.65836468941416,57.2655055412979 172.04143771057716,57.21280475093954 171.9803558314743,57.37843565012736 172.01089677101118,57.12246043094274 170.74039368587546,56.746024296768155 169.81194912368665,57.15257521942476 169.2927531513851,57.724753322228935 169.03010107128648,58.387268504066014 168.85907180982758,61.32332709180628 168.791881742829,61.55669993065749 168.41317409242038,62.00838671213933 167.94895181132597,62.21164465211041 167.11823825567262,62.27186909439479 166.81282886018744,62.43748599838 166.38525570655474,63.35589869758405 166.07984631109866,63.717237537428446 165.3346473861602,64.07104637192606 164.9376151720644,64.06351854614331 163.63046295946697,63.46128941778443 163.09294242344913,63.498928915749275 162.5737464511476,63.95812888591536 161.66362645264599,65.29054165282287 160.86345383652952,65.77231072244103 160.5519362531777,66.20891059389032 160.28928417307907,66.8487494822366 159.87392739523784,67.33050601601644 159.73343907331582,67.30039634621426 158.93937464509509,67.83484073502404 157.51005867432104,68.23378907114966 155.75090055644978,69.69406786020772 152.59296740734135,71.38011866756278 151.98825680429582,71.56076415315692 151.32246432220563,72.26076026369265 150.74829465872608,72.6220453779315 150.31461331716855,72.75 150.62613090052037,72.74247326507975 151.01705492672045,72.56935810116556 152.1226369383221,71.68872104250477 154.43153196803178,70.46935604598548" stroke="#4dd2ff" stroke-linecap="round" stroke-linejoin="round" stroke-width="0.5"><title>2026-02-01 19.0km</title><desc>1769905033000</desc></polyline><polyline fill="none" points="17.34082733813557,117.28137988266826 19.906474820134463,115.93494207385811 21.371402877673972,114.48874268399231 23.686151079105912,113.78059405962267 21.670863309322158,114.37902993053285 19.67985611507902,116.10449475889618 15.187949640268926,118.52806118874287 14.281474820105359,118.807315116479 13.407374100701418,119.74480325865443 12.508992805727758,120.29332841915311 12.25,120.35316729819897 13.415467625891324,119.68496392088127 14.232913669024128,118.75744841574488 14.8237410071888,118.64774156381463 18.214928057510406,116.78270187645103 19.631294964026893,116.23415245009528 21.088129496376496,115.09714701831399 21.50089928053785,114.42889938272128 23.61330935251317,113.80054199470032 24.51169064748683,113.21207580187183 24.762589928053785,113.20210176098044 25.207733812945662,112.60365701390401 25.790467625891324,111.31698552360467 27.449640287755756,110.12006307947013 28.461330935213482,108.4543159619061 28.801258992782095,108.14510157060431 29.586330935242586,107.99548127124581 31.374999999970896,108.83335131360218 31.828237410081783,108.85330049248296 32.92086330935126,108.40444275447953 33.3012589928112,107.96555717749288 33.592625899240375,107.1875267788273 33.99730215827003,106.628936146255 34.62050359710702,106.37956405836303 35.559352517972,106.33966445156693 36.077338129485724,106.08031651821511 36.57913669064874,105.29229259599379 36.8462230215664,101.25230018983711 37.1699640287552,100.4442770184396 37.898381294944556,99.66617285196116 39.19334532372886,99.15740830856521 40.763489208591636,99.6262698684368 40.81205035970197,99.8856389024877 40.88489208629471,99.77590595311631 41.71043165464653,99.8158088613709 42.09892086329637,99.64622136273101 41.80755395680899,99.38685154584527 42.714028776972555,98.41919512939057 43.474820143863326,97.83061483426718 44.02517985610757,97.62111909901432 47.489208633080125,96.87291552775423 50.31384892083588,96.96270032893517 50.72661870502634,96.77315451831237 51.382194244564744,95.43634488603129 51.92446043161908,92.98214317840757 51.9487410071597,92.30373256075109 51.665467625891324,90.99677810040885 52.151079136674525,88.89163822595583 51.93255395680899,86.81637455253804 52.04586330935126,86.76648773806664 52.07014388486277,85.6689698799164 52.47482014389243,82.96502016107115 52.75,82.14683270180103 52.46672661867342,83.01490936719347 51.9568345323496,86.61682710643072 52.19154676259495,89.37053751522762 51.714028776972555,90.49793484090333 51.65737410070142,91.00675493360177 51.98111510789022,92.32368589704856 51.973021582729416,92.89235387105873 51.48741007191711,95.15700868415297 50.74280575537705,96.82303503870207 50.20053956829361,97.0225568066162 47.52967625897145,96.89286771456682 43.99280575540615,97.64107109767065 42.924460431648185,98.18974909309327 41.839928057510406,99.33697263765498 42.13129496399779,99.6262698684368 41.79136690645828,99.82578458527132 40.852517985593295,99.76593022293673 40.77967625897145,100.0153231014774 40.77967625897145,99.65619710797182 39.104316546727205,99.16738411530241 37.90647482010536,99.68612433618546 37.21043165461742,100.4442770184396 36.89478417264763,101.24232464532543 36.611510791350156,105.36211781654856 36.41726618705434,105.90076745231636 35.575539568351815,106.35961425745336 34.58003597121569,106.41946364509931 34.07014388486277,106.60898640808591 33.714028776972555,106.99800539792341 33.317446043132804,107.945607775393 32.90467625897145,108.46429059960064 31.860611510754097,108.88322425138904 31.520683453214588,108.89319883520511 29.594424460374285,107.99548127124581 29.035971223027445,108.00545596663869 28.542266187025234,108.41441739845322 27.684352517942898,109.85075304120983 27.15017985610757,110.45919293844781 25.83093525178265,111.32695980143035 25.240107913676184,112.63357935845124 24.527877697808435,113.4514524068727 24.01798561148462,113.78059405962267 23.872302158240927,113.68085430903011 21.719424460432492,114.36905603631749 19.33992805753951,116.28402073644975 14.896582733810646,118.67766162937187 14.249100719403941,118.837235121915 12.937949640268926,120.07391880991054 12.282374100701418,120.34319415483333 13.383093525160803,119.71488359542127 14.22482014389243,118.78736843994557 14.920863309322158,118.61782148693601 19.323741007159697,116.30396804221527 20.683453237375943,115.18691119734285 19.671762589889113,116.10449475889618 17.648381294915453,117.18164453214558" stroke="#4dd2ff" stroke-linecap="round" stroke-linejoin="round" stroke-width="0.5"><title>2026-01-25 19.0km</title><desc>1769297747000</desc></polyline><polyline fill="none" points="64.04798839057912,119.3906867259866 64.04193982417928,119.18198734129328 65.45730435504811,118.46644101817947 67.21743716904894,117.02041480415573 68.76587016010308,116.55827528012378 67.18114577082451,117.08749927442841 65.6206156470871,118.39190444632186 62.39068120488082,120.1434891183817 61.67090180673404,120.36709194874129 60.9269281430752,121.14224190065215 60.297877240460366,121.5 61.05999660323141,121.00062872346825 61.664853240334196,120.344731703648 62.31809840843198,120.1434891183817 65.17907030196511,118.60806024654448 65.25770166478469,118.69005017156451 65.5540814169799,118.54097749631546 66.78798895669752,117.55708844152832 66.92710598325357,117.25148321561574 67.11461154074641,117.10986074765606 68.7053844963666,116.61045250350799 69.57032948744018,116.14830978459213 70.38083738114801,114.67986466133516 71.48167646070942,113.92699290806195 72.30428148718784,112.62994390320455 72.58251554027083,112.39140306633999 73.2841492393054,112.32431328306848 74.53620247816434,112.94302729518677 74.84467936307192,112.94302729518677 75.6128472921846,112.60758074049954 75.9092270443798,112.24976899038666 76.27214102665312,111.45959372618745 76.51408368148259,111.22104818081061 76.91328906198032,111.07195672757734 77.62701989381458,111.0421383919529 78.21977939817589,110.71413571019002 78.40123638929799,110.06557961196813 78.57664481404936,107.19544734114606 78.78834463705425,106.67359018114075 79.42949267241056,106.0399003108214 80.31258336256724,105.66713839926888 81.44971384035307,106.02498987935542 81.56463660139707,106.15918362747107 82.15739610578748,106.18900441912774 82.49611582257785,106.04735552515194 82.27231886683148,105.8460644093575 82.96185543315369,105.10799113695975 83.82680042419815,104.5637494032344 86.57284955671639,103.95240341466706 88.56887645920506,104.03441360856596 89.00437323792721,103.93003697846507 89.45196714939084,102.82661564726732 89.85117252985947,100.94031404408815 89.6273755741131,99.46403613130678 90.04472665378125,98.37544401497144 90.03262952101068,98.2263202501199 89.96004672456183,98.42763724402175 89.839075397118,96.5411956302487 89.96004672456183,96.4069801048172 89.94190102544962,95.80300647871263 90.1838436802791,93.83445711811873 90.67982612270862,92.5742529306408 90.6435347245133,92.38782991726475 90.61934045903035,92.69356335142948 90.62538902537199,92.43257149396595 90.2019893793913,91.79127233303007 90.14755228205468,91.47062014976837 90.58304906077683,89.13651824799308 91.27863419346977,87.27961112506819 92.54278456501197,84.58736530793612 93.55289514901233,82.02178729825027 94.05492615781259,81.38037543323662 94.70212275953963,81.0 93.89766343214433,81.55191649610424 93.50450661807554,82.14111897195835 92.53673599867034,84.58736530793612 92.0709963880945,85.42264579936091 91.75042237041635,86.39215303019228 91.2846827598405,87.24232323736942 91.55686824655277,87.52571059530965 91.41170265362598,87.66740376592497 90.78870031741099,89.22600627796055 90.54675766255241,90.7174535457998 90.31086357409367,90.7398249690159 90.1838436802791,91.62721794444224 90.65563185722567,92.35800218068835 90.64958329085493,92.64882197178304 90.6435347245133,92.32817442912346 90.70402038819157,92.49968379567872 90.64958329085493,92.91726974285848 90.51651483069872,92.98438149560025 90.31086357409367,93.38705041588037 89.88746392808389,96.26530783152702 90.0205323882692,98.09210854093544 89.65761840599589,99.51622840171694 89.88746392808389,100.90303475136898 89.48220998121542,102.8117044075334 88.96203327333205,103.91512601629802 88.48419653001474,104.06423546913356 86.56680099034566,103.98222531648571 83.8993832206761,104.55629400230828 83.11911815879284,104.94397360623407 82.2904645659437,105.8460644093575 82.51426152169006,106.04735552515194 82.15134753941675,106.1442732260075 80.25814626523061,105.6895041800708 79.36900700867409,106.06972116248653 78.81858746890794,106.67359018114075 78.64317904412746,107.14326183186859 78.4193820884102,110.20721890559798 78.35889642470283,110.44576853000399 77.98993387605879,110.88559188381987 77.6633112920099,111.049592977266 76.876997663785,111.10922962603217 76.45964658417506,111.27323010087275 75.65518725677975,112.60012635105159 74.91726215952076,112.92811859972062 74.55434817724745,112.9355729479139 73.22971214196878,112.31685885800471 72.62485550483689,112.38394864973452 72.35267001815373,112.63739828887628 71.52401642530458,113.88226755259893 71.22158810676774,114.18043595171548 70.61068290326511,114.49351115716854 70.32640028384048,114.79913059665341 69.94534060245496,115.64889344253606 69.51589239010355,116.20794130553259 69.37072679717676,116.14830978459213 68.92313288571313,116.52100580673141 68.92313288571313,116.64026803914385 68.69933592996676,116.75207616416083 67.2113886026782,117.16949130171633 65.783926939097,118.40681176820362 63.751608638383914,119.49503614291461" stroke="#ffa900" stroke-linecap="round" stroke-linejoin="round" stroke-width="0.5"><title>2026-01-18 21.1km</title><desc>1768694323000</desc></polyline><polyline fill="none" points="107.44230769234127,117.4979294751538 107.68381037565996,117.07136940123019 109.33407871198142,116.29760338373308 109.97003577821306,115.85119646161183 111.39490161003778,114.49211984317662 112.07110912344069,114.17466791834886 113.5040250447637,113.82745341363625 114.4539355992747,113.23222499448457 114.67128801430226,113.2421455049116 115.20259391772561,112.47826255244581 115.7177996422106,111.34730538396252 117.13461538459524,110.3453034750346 118.43872987478971,108.41070934020536 119.17933810374234,108.02378482200584 119.34033989266027,107.74599169026624 119.79919499109383,107.82536125625484 120.77325581398327,108.29165584434668 120.95035778175225,108.42063045674149 120.78935599283432,108.65873687966086 121.28846153846825,108.88692152747535 121.77951699463301,108.90676363957755 122.77772808587179,108.51984155359241 123.18828264757758,107.954336630748 123.56663685152307,107.0217407127493 124.0013416815782,106.58520266629785 125.49060822898173,106.38677548320265 126.23121645796346,105.95023392401345 126.47271914134035,105.21604494634812 126.73032200356829,101.23741559151676 127.05232558140415,100.50318276043254 127.73658318424714,99.76894309652562 128.98434704830288,99.26290908049123 130.2723613595881,99.63995434183016 130.69096601073397,99.85824288008735 130.62656529515516,100.0169978013073 130.75536672628368,99.84832068692049 131.52012522361474,99.91777601298963 131.9467799642298,99.73917647955386 131.64892665477237,99.46135417950427 132.50223613594426,98.60803671232134 132.63908765651286,98.28059848979319 133.62924865828245,97.77455492742592 137.37254025042057,96.95098689585575 140.0210196780099,97.07998004694673 140.5684257602843,96.88152895792155 141.22853309480706,95.22444287712278 141.71153846153175,93.01163293801073 141.4217352415144,90.95753407841403 141.97719141325797,89.5087172066269 141.9691413238179,89.33009410577506 141.8644901610096,89.62779904912895 141.9369409660285,89.15147060041636 141.67933810377144,87.23620426015987 141.88059033991885,86.82932821921713 141.80813953489996,86.17435262241634 142.18649373884546,83.31621363667364 142.51654740606318,82.38332640776207 142.70974955277052,82.20468716890173 142.75,82.3734020162301 142.58899821108207,82.41309957490739 142.32334525941405,82.87954439265013 141.78398926655063,86.69039445622911 141.9369409660285,88.59575044130906 141.85644007156952,89.59802860536001 141.9369409660285,89.31024706960307 141.96109123434871,89.54841117408068 141.47003577818396,91.07661373373412 141.73568872988108,93.02155599107937 141.24463327374542,95.3633616097868 140.5040250447346,96.90137408931332 140.00491949912976,97.14943781017791 137.28398926655063,97.01052222257567 133.79025044722948,97.7646324722009 132.59883720931248,98.42943421395466 131.65697674418334,99.48119866193156 131.9387298747606,99.73917647955386 131.60867620751378,99.92769819746172 130.6829159212939,99.86816507203912 130.61851520571508,100.08645297889598 130.61851520571508,99.75902089212468 129.0084973166522,99.27283134729078 127.83318425761536,99.74909868645045 127.1006261180737,100.53294908919634 126.77057245079777,101.30686969476665 126.51296958854073,105.19620190619753 126.23926654740353,105.97999819797406 125.56305903400062,106.37685411095299 123.96914132375969,106.65465206249064 123.59883720931248,107.0614258699643 123.06753130591824,108.1626810211892 122.51207513417467,108.66865796501952 122.59257602860453,108.72818445101439 121.45751341682626,108.95636889804882 119.5335420393676,108.05354831382283 118.7848837209167,108.19244446059747 118.46288014310994,108.45039379888476 117.13461538459524,110.40482869635889 115.83050089445896,111.26793936006288 115.1703935599362,112.627071499679 114.71958855103003,113.212383969847 114.44588550980552,113.212383969847 113.90652951700031,113.66872627409612 113.2625223613577,113.94649855876196 111.58810375671601,114.39291625384794 111.20169946333044,114.6806063194017 111.03264758497244,115.06749820245022 109.40652951700031,116.37696435001999 106.24284436495509,118.03360630282259 104.19007155636791,118.82719492085016 103.3770125223673,119.73981196818204 102.88595706617343,120.0770808154848 102.25,120.29531283109827 103.34481216457789,119.70013318552083 104.14177101964015,118.81727511238569 105.65518783542211,118.19232466472022 109.26162790696253,116.26784300081636 109.85733452593558,115.82143591034401 109.22137745973305,116.34720399700018 107.23300536675379,117.36896969594818" stroke="#4dd2ff" stroke-linecap="round" stroke-linejoin="round" stroke-width="0.5"><title>2025-12-28 16.0km</title><desc>1766878702000</desc></polyline><polyline fill="none" points="148.8819677635911,116.54229823844071 151.47498321020976,115.05634651271976 153.46054398926208,113.31339403727179 156.1260913364822,112.50894290659198 156.1260913364822,112.33017499994457 156.760745466745,111.79386912294285 157.05993955675513,111.80504219504655 158.26578240428353,109.63743991280353 159.88868368032854,108.48657804264076 161.21239086636342,106.4194586227095 161.52065144391963,106.16246203739138 162.62676292809192,106.00602896946657 164.44912693084916,106.92227587942034 165.0112491605105,106.95579692871252 166.15362659504171,106.49767482728203 166.60695097380085,105.89429089524492 167.02400940225925,104.88864190543245 167.50453324371483,104.38581314329349 168.2026527870912,104.18468084186316 169.13650100736413,104.15115874735056 170.06128274009097,103.64832581265364 170.3151443921961,102.83261300084268 170.6234049697523,98.2734227023393 170.92259905976243,97.55823437264917 172.01964405644685,96.53014106414048 173.1982874412206,96.08314026330481 175.02065144391963,96.64189091300796 174.96625251841033,97.07771398073237 175.10224983206717,96.74246565681824 175.8729012759868,96.86539018911571 176.46222296840278,96.65306589015381 176.52568838139996,96.54131605533621 176.16302887845086,96.32899098205962 177.17847548687132,95.22265739101567 178.57471457350766,94.37334144960914 182.5458361316123,93.54636812711396 185.42897918063682,93.66929708098905 186.24496306246147,93.32286050249968 186.84335124242352,91.92592511046678 187.46893888514023,89.05375694303802 187.1788112827344,86.75148506565893 187.75,85.19797664060752 187.18787777033867,86.79618994195334 187.52333781059133,88.38319847643288 187.49613834789488,89.06493287462217 186.94308260572143,91.7135890079735 186.127098723955,93.45696514475276 185.4924445936922,93.66929708098905 182.59116856951732,93.5687188586453 178.62911349895876,94.38451671208168 177.33260577567853,95.04385470956186 176.15396239084657,96.34016599855386 176.47128945600707,96.65306589015381 175.9273002014961,96.8877400858255 175.06598388176644,96.79834046531323 174.99345198116498,96.95478974215075 174.97531900601462,96.64189091300796 173.1438885157695,96.1501905267869 171.87458025518572,96.61954095448164 170.95886501006316,97.56940923458023 170.65060443250695,98.32929654817417 170.34234385489253,102.78791619204276 170.0431497649406,103.65949990876834 169.21809939556988,104.13998471305968 168.09385493618902,104.2182029237083 167.4682672934723,104.43050914845662 166.15362659504171,106.5088485651504 165.1109805238084,106.94462324703636 164.5760577568435,106.97814428790298 162.49983210203936,106.03955036437401 161.4843854936189,106.20715714911785 160.9585292142583,106.79936525712401 160.115345869679,108.28545502112684 159.71642041637097,108.69887407160422 158.338314304885,109.5368797610281 157.63112827402074,111.06761642333731 156.79701141704572,112.07319550433749 155.98102753522107,112.59832672504126 153.63280725316145,113.25752961065155 151.19392209535,115.31331738443987 147.25,117.30202335939975" stroke="#4dd2ff" stroke-linecap="round" stroke-linejoin="round" stroke-width="0.5"><title>2025-12-21 12.2km</title><desc>1766291458000</desc></polyline><polyline fill="none" points="21.243925075919833,157.19294266017096 21.448953762999736,156.85607107385295 24.893435707024764,154.9864183787722 27.968866014154628,152.24084507365478 31.276662166696042,151.36494482250419 32.8348801889224,150.50588324601995 34.10605804930674,149.0067233826121 34.96717853524024,146.9685128465644 36.279362132947426,145.9746634074254 36.279362132947426,145.58722857838438 37.30450556863798,144.86289089314232 38.15195747552207,143.852180602742 39.39579817751655,141.46013587630296 40.36626729671843,140.93792325010872 41.090701991226524,140.752621506399 41.21371920348611,140.93792325010872 40.98135335807456,141.30852596872137 41.856142423232086,141.3927537163545 44.658201147511136,142.67300896171946 45.25961862975964,142.7572358516336 47.05020249739755,142.03288286809402 47.74730003380682,141.1737614623562 48.499071886588354,139.4386563362059 49.23717516026227,138.7648230453924 51.6975194059778,138.4447510451282 52.75,137.85514272727596 51.506159298005514,138.51213468769856 49.14149510633433,138.81536065979162 48.444397570041474,139.59026835960685 47.70629429630935,141.2748348548339 47.1458825514419,141.98234646730998 45.929379007720854,142.57193662392092 44.64453256834531,142.7572358516336 41.66478231520159,141.3590626236546 40.8173304083175,141.3590626236546 39.68283833947498,141.88127360853832 37.76923725951929,145.01449677918572 35.67794465064071,146.34525219572242 35.11753290583147,146.95166800220613 34.33842389471829,148.7372097184125 33.34061761724297,150.118461517588 32.87588592636166,149.98370587121462 32.38381707726512,150.60694959970715 31.41334795812145,151.1459688652394 28.255906176171266,152.05555895950238 24.7157441782183,155.08748135343194 16.528265271685086,159.39943061395024 15.489453256770503,159.66892283654306 14.218275396502577,161.117434249114 12.56437732023187,162.14485727272404 14.272949713107664,160.9826896618324 15.54412757337559,159.55102005580557 16.58293958817376,159.28152759619115 24.29201822471805,155.3064508704847 27.85951738100266,152.15662414443796 31.454353695560712,151.0617472478334 28.29691191355232,151.97133791382657 24.920772865298204,154.90219917499053 16.719625379657373,159.298370890785 15.59880188992247,159.60154983169923 14.177269659063313,161.18480649196135 12.496034424519166,162.11117139685666 14.095258184184786,161.117434249114 15.667144785635173,159.44996044697473 17.32104286190588,158.92781792051392 24.14166385412682,155.289607074199 28.16022612224333,151.97133791382657 31.41334795812145,151.11228022462456 28.105551805580035,152.08924736296467 27.422122848394793,152.6114165334584 27.14875126554398,153.2683361484087 25.645207559864502,154.46425846208876 25.4401788727846,154.32950718558277 24.11432669585338,155.3906698202627 17.567077286483254,158.87728789066023 15.54412757337559,159.60154983169923 14.532652716792654,160.86478803685168 13.329817752237432,161.72378321550786 12.25,162.14485727272404 14.13626392162405,161.08374811500835 15.639807627419941,159.50049026095076 16.65128248394467,159.28152759619115 23.417229159618728,155.64332635194296 19.002278096450027,158.03511792144855" stroke="#4dd2ff" stroke-linecap="round" stroke-linejoin="round" stroke-width="0.5"><title>2025-12-07 13.4km</title><desc>1765091716000</desc></polyline><polyline fill="none" points="63.10341278440319,159.58820904182357 63.349133261071984,159.20971297863434 65.55184182012454,157.97688568685408 67.57903575297678,156.20331368621555 69.65888407366583,155.63013930850866 70.67686890572077,155.12184940176667 70.92258938244777,154.87311069351563 70.81728060665773,154.76496320478327 71.06300108338473,154.75414844841725 71.39647887321189,154.31074226758938 72.1862946912297,152.69932007477473 73.37101841816911,151.9530807807896 74.10817984829191,151.26091101168277 75.37188515707385,149.3357845574792 75.67026002163766,149.18436828983977 76.39864572044462,149.16273737270967 78.63645720476052,150.092861898127 79.89138678222662,149.58453927574737 80.31262188515393,149.02213627875608 80.76018418202875,148.00547537660168 81.19897074752953,147.52958742174087 82.76982665219111,147.31327384467295 83.34024918742944,147.02124965281837 83.91067172260955,146.08027606867836 84.19149512454169,141.71056269841938 84.51619718305301,140.9425950868026 85.29723726969678,140.0989044541202 86.65747562295292,139.5472561042552 88.8689599133213,140.18543720759772 89.43938244850142,140.18543720759772 89.86939328274457,140.06645464914618 90.62410617544083,139.14703842008748 91.83515709638596,138.26006286117627 96.07383531960659,137.34062732142775 97.75,137.43797978500515 95.86321776814293,137.41634591374896 94.73114842898212,137.67595200990036 95.20503791980445,137.45961365084077 91.76495124591747,138.30333017383964 90.81717226433102,138.93070376135438 89.86939328274457,140.0989044541202 89.46570964244893,140.2719698740184 88.49160346691497,140.2178869677009 88.43894907901995,140.06645464914618 86.66625135426875,139.55807277256827 85.31478873238666,140.0989044541202 84.55130010831635,140.92096209702868 84.19149512454169,141.8728084995746 83.9721018417622,145.93966993653157 83.66495124588255,146.85901356226532 82.69962080172263,147.3673522899262 81.25162513542455,147.54040308630647 80.81283856986556,147.96221294406132 80.23364030336961,149.21681465533766 79.8650595882209,149.63861629323947 78.85585048754001,150.08204655446752 78.39073672809172,150.12530792097095 76.3459913325496,149.17355283194775 75.68781148421112,149.22763010780182 75.23147345607867,149.46556971762038 73.9326652220916,151.46639949311066 72.0634344528662,152.8723601459933 71.5719934994122,154.1268902541342 70.65054171177326,155.14347882067523 69.60622968577081,155.67339788530808 67.76332611049293,156.149240794839 65.49041170091368,158.08502913852135 64.15650054166326,158.89610069359333 59.7598591549322,161.1238045616119 58.417172264365945,162.24844868467335 57.293878656520974,162.65937267857225 57.25,162.52960741884453 58.171451787638944,162.21600723314623 59.663326110458,160.82101324784162 60.32150595879648,160.65880317721167 62.2960455037537,159.58820904182357" stroke="#4dd2ff" stroke-linecap="round" stroke-linejoin="round" stroke-width="0.5"><title>2025-11-30 11.3km</title><desc>1764483136000</desc></polyline><polyline fill="none" points="106.4174192015198,161.4525534415734 106.94676806085045,160.91884777941596 106.92751901136944,160.74094522126688 109.27590304182377,159.48375758449401 111.44142110267421,157.57422356801544 113.74168250948424,156.88630743589601 115.08911596960388,156.06791791909927 115.32972908747615,156.10350021959312 116.5809173003654,153.88551117200404 118.46732414449798,152.545203747919 119.72813688212773,150.48133030590543 120.21898764261277,150.05431637090078 120.92157794674858,149.8408086786003 123.3373336501536,150.92020372524712 124.65589353610994,150.61180640060047 124.58852186310105,150.81345091925323 124.46340304182377,150.75414375262335 124.82913498103153,150.6829751034311 125.39698193914955,149.99500872704084 125.96482889732579,148.7258162133876 126.36905893537914,148.26320908877824 127.16789448668715,147.95480307884282 128.25546577951172,147.89549411521148 129.179420152097,147.38543548876623 129.44890684413258,146.47206780216948 129.72801806085045,141.90509671870677 130.0456273764721,141.0628519300517 130.9407081748941,140.03079524567147 132.5383792775683,139.42579124984331 134.4055370722199,139.9596185064147 134.4247861217009,140.38667813652137 134.47290874522878,140.10197193127533 135.2621197718545,140.20873685897095 135.88771387835732,139.98334409214294 136.29194391635247,140.25618789911823 135.60860266163945,139.65118534890644 136.6961739543476,138.48862053643097 137.56238117872272,137.8480174759825 138.5537072243169,137.48026190145174 142.75,136.6854304388835 137.7259980989038,137.80056522433006 136.8597908745287,138.3225386792401 135.62785171100404,139.67491101218184 135.955085551308,140.00706967191218 134.72314638784155,140.493442741943 134.3862880227971,140.41040361484193 134.4055370722199,140.01893245953397 132.5383792775683,139.42579124984331 130.9792062737397,140.05452081353724 130.16112167295069,140.95608796909073 129.80501425854163,141.75088344655524 129.45853136887308,146.57882552064984 129.1986692015198,147.44474477307813 128.361335551308,147.93107949788828 127.07164923957316,148.02597378601058 126.40755703422474,148.26320908877824 125.0601235741633,150.4457458851757 123.85705798480194,150.95578796706832 123.3277091254713,150.96764937804983 121.06594581750687,149.9594241228624 120.27673479088116,150.05431637090078 119.66076520911884,150.59994494488637 118.84268060838804,152.0944766194516 118.11121673003072,152.91290060009487 117.02364543726435,153.4703737396485 116.45579847908812,154.0752876756087 115.92644961981568,155.3562690913168 115.32972908747615,156.12722174580995 115.07949144486338,156.10350021959312 113.99192015209701,156.83886475915642 111.73015684407437,157.45561769614142 109.0256653992692,159.73282439011382 103.59743346011965,162.61483532836428 102.85634505702183,162.80459427707683 102.25,163.3145695611238 102.77934885933064,162.7571545756582 103.51081273762975,162.60297538138548 105.85919676802587,161.34581255060766" stroke="#4dd2ff" stroke-linecap="round" stroke-linejoin="round" stroke-width="0.5"><title>2025-11-23 10.7km</title><desc>1763852167000</desc></polyline><polyline fill="none" points="176.6789156626328,156.76824357156147 177.36204819276463,155.27169794955262 177.7415662651183,154.8708339381119 178.06686746992636,154.63031480582868 178.0993975903839,154.83074745389604 180.23554216872435,153.49452266282606 182.40421686752234,151.4233410464294 185.33192771091126,150.52804359890433 186.45963855425362,149.87326905044756 186.65481927717337,149.68618986724323 186.4813253012253,149.4189333201939 187.75,147.64166019202094 187.66325301211327,147.25413052651857 187.39216867473442,147.0135941615663 186.17771084338892,146.87996261247463 184.62710843374953,146.07816979037307 183.56445783138042,145.18282732524676 182.40421686752234,143.68611860318197 181.61265060247388,143.35202895779366 179.79096385545563,143.36539256378455 178.59819277114002,143.76629996183328 177.90421686752234,144.15384234261 176.4186746988562,145.83763076445757 175.88734939764254,146.14498608988652 173.26325301209,145.89108392840717 172.48253012052737,145.9979901755214 171.28975903621176,146.6795149739337 168.91506024100818,148.51025603458402 167.6572289156611,149.1249503424333 166.34518072294304,149.0714988046093 165.0656626506243,148.37662636688037 163.48253012046916,147.86883209771622 162.0403614458046,148.0425514627641 160.38132530124858,147.68174938712764 158.36445783136878,147.80201688173838 154.11385542171774,149.15167610127537 148.60542168677785,151.34316546300397 147.34759036143078,152.06474353744125 147.25,151.90439327746572 148.43192771082977,151.19617673628818 155.93554216867778,148.33653743382456 156.22831325302832,148.22963353840896 156.2716867470299,148.44344122175244 158.10421686753398,147.82874297317903 160.0777108434122,147.65502325872512 162.06204819277627,148.0425514627641 163.50421686755726,147.8955581723567 165.08734939765418,148.38998934119445 166.3885542168864,149.05813591593324 167.40783132537035,149.1249503424333 168.31867469882127,148.750789013131 172.22228915663436,146.0247167205598 173.12228915665764,145.8509940579679 175.68132530129515,146.07816979037307 176.35361445788294,145.73072435602808 177.53554216877092,144.44783906836528 178.53313253010856,143.73957284900098 179.74759036145406,143.32530174082785 181.60180722892983,143.23175642843853 182.3716867470066,143.59257360832999 184.62710843374953,146.03807999053242 186.0692771085305,146.79978360240057 187.45722891570767,147.0135941615663 187.71746987960069,147.64166019202094 186.64397590368753,148.89778112099884 186.37289156630868,149.48574751994602 186.54638554219855,149.63273861158086 185.89578313258244,150.18061270804174 182.75120481930207,151.16945149144885 179.98614457831718,153.52124732323864 176.5271084337728,155.36523266806762" stroke="#4dd2ff" stroke-linecap="round" stroke-linejoin="round" stroke-width="0.5"><title>2024-11-03 10.0km</title><desc>1730623436000</desc></polyline><polyline fill="none" points="27.81457628797216,186.14969538178775 27.615423553361325,185.96196595118454 27.586973162688082,185.84845464596583 27.295356658418314,185.643260201854 27.163773601612775,185.20230638343855 26.338712272437988,184.01475966132784 26.210685514466604,183.6480091768317 26.189347721461672,183.14590408892764 26.281811491120607,182.67872160415936 26.20357291678374,182.56956592239658 26.20357291678374,182.3730848403029 26.370718961916282,181.65264480147744 26.441844938570284,181.52165411567694 26.523639811726753,181.52165411567694 26.790362224186538,180.1418558796322 27.5300723813707,179.07203828901402 28.00306012610963,178.51746695591282 28.049292010939098,178.5 29.0948438677151,179.4257366908205 29.229983223369345,179.60913445955885 29.69941466928867,180.78373079018274 29.109069063066272,181.18544245242447 28.789002168137813,181.6264467034016 28.561399042839184,182.4036486363766 28.561399042839184,182.86210238581043 29.194420235042344,184.06278622691752 29.404241866170196,184.28108797013556 29.603394600795582,184.800640661957 29.795434737752657,184.90542346689472 30.15106462102267,185.3027220961667 31.118377903520013,185.97506338587118 31.552246361097787,186.6473918074007 31.769180589879397,187.11888718014234 31.808299877055106,187.5685481680557 32.018121508168406,188.11424551991513 31.932770336177782,188.4678528781078 32.44132106924371,188.7821675420564 32.796950952513725,188.79089846480565 33.1241304451396,188.96551646411172 34.681789333815686,190.07432050795614 35.513963260658784,190.75530092272675 35.64910261629848,190.74657048810332 35.88381833926542,190.52830891756093 36.09719626921287,190.45409967474188 36.627084795283736,190.53703940641572 37.092959942354355,190.71601394984827 37.61929216959106,191.14816823558795 38.41945940692676,192.0124608627193 38.57238025673723,192.0997619661939 38.59727434856177,192.19579292953495 38.810652278523776,192.36166397533088 38.89244715166569,192.50570924834392 39.20540144894039,192.7283235088944 39.46856756255147,193.0164104585965 39.78507815867488,193.16918288273155 39.83486634232395,193.31322484575867 40.07669466294465,193.56638807735726 40.12648284659372,193.51837450115272 40.105145053588785,193.6100367260551 40.215390317418496,193.74534719252915 41.39963782869745,194.92820037752972 41.39608152984874,195.41267856624472 41.33562444969721,195.62218057950304 41.15780950804765,196.0280871765608 40.64925877499627,196.8136995320383 41.95797674541245,198.57689889067842 42.000652331422316,198.93476519129035 41.904632262929226,199.6155739492351 41.961533044232056,199.87741996086697 41.91530115943169,200.32255370478742 41.9544204465783,201.05133894143364 41.854844079265604,201.21280428489627 41.66636024112813,202.07684946736845 41.161365806896356,202.91905489134297 41.16492210573051,203.08051165787037 40.923093785124365,203.14160321403688 40.70260325749405,203.35105917222972 40.31496668473119,203.5779683856199 40.14070804193034,203.59542287984368 39.82419744582148,203.82233051635194 39.429448275404866,203.91832946022987 39.240964437281946,204.03178241966816 38.61861214155215,204.12341723505597 38.10294881083246,204.11469012006637 37.67974924975715,204.03178241966816 36.961376885534264,203.51251395510553 36.29279270498955,202.67468648311115 36.04385178672965,202.53068287584392 35.62420852447394,202.0419389625349 35.403717996843625,201.9983007827541 35.21167785988655,201.85429440520238 34.85960427545069,201.79756445817475 34.38661653071176,201.4091800546048 34.18746379608638,201.33062987833546 32.843182837357745,201.55755213093653 32.38442028792633,201.54882437906417 30.328879562657676,201.91538809195117 29.443361153331352,202.20776355175258 28.9561482132558,202.29940312078907 28.355133710530936,202.55250164212703 27.526516082536546,202.74450620163043 26.70856735103007,203.06305690804948 26.388500456072506,203.25069501462713 26.719236247532535,203.83542129685156 26.680116960356827,204.12778079174313 26.72990514402045,204.3328673449796 26.523639811726753,204.51177165930494 26.075546158812358,205.14447473772452 26.114665445973515,205.44991352892976 25.1331269681541,206.93779884598553 24.99087501486065,207.36975376070768 24.11602550203679,208.83138003419663 23.81729640008416,209.4901827644826 23.344308655359782,210.31912231176466 23.248288586866693,210.37583851415184 23.16293741489062,210.615790666252 22.881989807094214,210.95608363897554 22.640161486473517,212.32594769277785 22.771744543279056,213.1722701636827 23.48300430981908,214.6685533762684 23.621699964278378,214.72526256716083 23.699938538615243,214.88230292646404 23.9488794568897,215.06987799261333 24.364966420311248,215.71111543385996 25.022881704353495,216.3348930242937 25.154464761159034,216.35234118952576 25.04777579617803,216.37415138389042 25.190027749500587,216.38723749401834 25.399849380613887,216.61842463726134 25.588333218736807,216.69257868223576 25.71635997670819,216.6707686852351 26.178678824959206,217.06770851493638 26.72279254636669,217.2596338596959 27.266906267759623,217.56932936781595 28.351577411711332,218.00551560168242 28.604074628834496,218.16690313796062 28.58629313466372,218.23233030669508 28.316014423398883,218.19307402005506 27.242012175920536,217.87029844740027 26.75124293702538,217.79614688413858 26.303149284110987,217.55624369726138 25.99375128567044,217.24654807400293 25.211365542490967,216.7492846111927 24.53922506312665,216.20839356765646 23.625256263127085,215.13094872859074 23.258957483354607,214.58130828872163 23.8101838024304,215.30543596161442 24.820172670893953,216.35670322947772 25.67368439072743,216.99355526047293 26.207129215617897,217.30761503234316 27.234899578266777,217.7917850226222 30.24708468951576,218.6030819652333 30.78408581324038,218.79936067379458 31.139715696510393,219.0 30.840986594557762,218.81680761713142 30.183071310515516,218.57691138805967 29.25487731519388,218.2846719541085 27.839470379811246,217.97062090193504 26.648110270878533,217.50826286363372 26.00797648099251,217.18548100967382 25.257597427305882,216.67949268564553 24.30450934015971,215.82889246908235 23.209169299705536,214.4678893514938 22.917552795435768,213.94441259558153 22.67572447481507,213.31186779047493 22.540585119175375,212.72729903158324 22.52280362501915,212.0816446360477 22.633048888819758,211.4359783905602 22.860652014103835,210.83829029017215 25.406961978267645,206.29640145779558 26.128890641310136,205.1968358617778 26.801031120674452,204.4419554498054 27.263349968925468,204.06669094893005 28.401365595374955,203.33360455669026 28.87079704127973,203.115421131537 29.67807687628374,202.81868950062562 30.264866183671984,202.69214142574128 33.01032888247573,201.6884681489064 33.91007248713868,201.47463840075216 34.486192898024456,201.55755213093653 35.723784891786636,202.05066659199656 36.15765334936441,202.3692235845192 37.48059651510266,203.69578605351126 37.86823308788007,203.9576016799292 38.35188972912147,204.11905367783766 38.84265896801662,204.1583256733611 39.43300457423902,204.04923668863194 39.859760434148484,203.83978488928187 40.93376268161228,203.10669376637088 41.264498473043204,202.81868950062562 41.54544608081051,202.4346801433312 41.80861219443614,201.67101270801868 41.96508934308076,198.4634283273299 42.114453894042526,196.97081989606522 42.01487752672983,196.3030534983518 41.58456536797166,194.5397400686852 40.89464339445112,192.7894330592062 41.34629334619967,193.94176468457226 41.737486217782134,195.58289904714184 41.85840037808521,195.86223343445454 41.911744860582985,195.94079583091298 42.06110941154475,195.92770211035895 42.19980506603315,196.00626436045786 42.4771963749663,195.43886638619733 42.43452078900009,195.3603028678117 41.92241375708545,195.10278788189316 41.854844079265604,195.01549423811957 41.32495555319474,194.82781216981675 41.104465025578975,194.66631749485896 40.07669466294465,193.61876644929362 40.130039145442424,193.49655012666335 40.062469467608025,193.54019886210517 39.72462107850879,193.28267053930176 39.123606575783924,192.7239585369498 39.102268782793544,192.64538894919315 38.60438694623008,192.28309357755643 37.960696857524454,191.47555430760985 37.100072540022666,190.73784005131165 36.829793828728725,190.60688323913564 36.10786516570079,190.4671954348596 35.855367948592175,190.54576989310226 35.61709592680563,190.75966613921992 35.5246321571467,190.75093570567697 33.42641584589728,189.1575952610001 33.10634895095427,189.0222671270385 32.86096433151397,188.7734366171353 32.483996655239025,188.79526392536354 31.893651049016626,188.45039086988254 32.003896312831785,188.1884597049975 31.865200658357935,187.88287087777644 31.737173900401103,187.08396181398348 31.99322741634387,186.7914605093465 32.35596989728219,186.69104905220593 32.50533444824396,186.57317436670928 32.4662151610828,186.215182156433 32.38797658676049,186.06237949235947 31.580696751741925,185.52101613348714 31.97188962335349,184.9185212955308 31.712279808547464,184.77881087159403 31.459782591438852,185.2459654242448 31.317530638130847,185.33764923329363 30.76274802025,185.14554954927007 30.460462619463215,184.90105752293312 30.161733517525136,184.29855205098283 30.218634298842517,184.12391085178024 30.382224045170005,184.0016614956803 30.26130988483783,183.6611074743596 30.211521701174206,183.07167924956957" stroke="red" stroke-linecap="round" stroke-linejoin="round" stroke-width="0.5"><title>2024-10-27 42.8km</title><desc>1729986801000</desc></polyline><polyline fill="none" points="87.67917197447969,202.6793802066677 88.0196815286763,202.17076828994323 90.45484076434514,200.82293434468738 93.05509554140735,198.59769749869884 95.34579617832787,198.0127699752993 96.38796178344637,197.42783906986006 96.60464968153974,197.17352022995328 96.43955414008815,197.03364459544537 96.58401273883646,196.7538927463247 97.68808917200658,195.29154094330443 97.46108280256158,194.79560814035358 96.21254777070135,194.61758038727567 94.7060509553994,193.7528697012458 93.77738853503251,193.0280329900852 93.73611464968417,192.760986576679 92.61140127392719,191.47661064388376 91.83751592360204,191.13325985967822 89.73254777071998,191.24771025059454 88.79356687894324,191.70551051919028 86.99815286626108,193.4985416221316 86.42031847132603,193.84188437785633 83.8716560509638,193.62570574163692 82.88108280254528,193.89274987222598 79.8680891719996,196.0926580275409 78.53700636944268,196.7411767347876 77.42261146497913,196.70302869064471 74.63662420382025,195.53314835117635 73.23331210191827,195.68574220616574 71.27280254778452,195.31697332920157 69.260700637009,195.5458645145336 66.91840764333028,196.43599197867297 65.64923566882499,196.70302869064471 60.634458598739,198.8138655101793 59.0247770700953,199.70396422011254 58.973184713337105,199.9074142542231 58.529490445856936,200.18715738305764 57.600828025490046,202.51408161419386 57.25,202.83196328308986 58.219936305773444,200.25073525904008 58.78745222929865,199.60223904965096 58.973184713337105,199.94556109008408 59.09700636944035,199.67853293708322 60.46936305734562,198.8138655101793 68.96146496816073,195.58401299508841 71.39662420382956,195.36783808182372 73.22299363062484,195.73660677337466 74.63662420382025,195.5458645145336 76.3701273885672,196.13080630190234 77.30910828028573,196.63944858503964 78.39254777069436,196.7538927463247 79.19738853507442,196.42327592719812 83.15968152869027,193.76558608842606 83.83038216561545,193.65113854636002 85.81152866239427,193.9181826097265 86.5544585987227,193.81645162110362 88.78324840764981,191.70551051919028 89.68095541401999,191.31129374510783 91.61050955415703,191.18412671610713 92.43598726118216,191.37487719970522 92.83840764331399,191.65464392499416 94.7576433121576,193.80373524037714 96.26414012734313,194.5412826828906 97.62617834395496,194.8464731550921 97.75,195.32968951977819 96.57369426754303,196.81747277997056 96.43955414008815,197.10994042005768 96.64592356682988,197.24981594902783 95.41802547773113,198.06363337246876 93.01382165605901,198.71213944465853 90.13496815291,201.1153904054081 84.38757961784722,204.2179156893617 83.61369426752208,204.3577813912998 81.90082802553661,205.99801019418373 81.08566878980491,206.36674014032906 80.68324840761488,206.34131053201418 81.281719745195,206.25230685256975 82.27229299367173,205.64199379865022 83.5621019108221,204.3323512780844 84.82095541403396,203.92546859687718 89.89764331211336,201.22982950336882 92.34312101913383,199.169905933908 92.19866242038552,199.58952339612006 92.39471337583382,199.1063273787222 93.2098726114491,198.58498171895917 95.39738853502786,198.0127699752993 96.53242038213648,197.32611161059322 95.76885350316297,197.8983272381738 92.96222929941723,198.73757097063935 90.46515923569677,200.9119428004924 85.27496815286577,203.77288716959447 83.48987261147704,204.47221682179224 82.6024840764585,205.46398513113672 81.80796178343007,206.03615473369427 80.96184713381808,206.36674014032906 82.25165605096845,205.6674235827304 83.45891719748033,204.39592654916487 84.75904458598234,203.92546859687718 89.96987261145841,201.15353678576503 91.84783439489547,199.64038600055937 90.26910828024847,201.0263821285771 89.19598726119148,201.6112922283428" stroke="#4dd2ff" stroke-linecap="round" stroke-linejoin="round" stroke-width="0.5"><title>2024-10-13 16.0km</title><desc>1728810741000</desc></polyline><polyline fill="none" points="132.59148204734083,202.69008880898036 133.96313980140258,201.71150686418696 135.67513368983055,200.9108418653559 138.07811306341318,198.83925062127673 140.3985867074225,198.24191274736222 141.5227272727643,197.64457134457916 141.79087089380482,197.41580136214907 141.47116119175917,197.13619290291535 141.5330404889537,196.90742177024367 142.67780748661608,195.38226765765285 142.48185637890128,194.79761914794653 141.22364400303923,194.619681973978 140.07887700531865,194.09857844876387 138.9959893047926,193.14533334256703 137.5933919022209,191.51844093574618 136.24236058059614,191.14984448723408 134.76757066464052,191.34049799046625 133.7568754774984,191.7980649312958 131.56016042781994,193.90793014651717 128.84778456838103,193.7172814847654 128.07429335371125,193.86980044290976 125.38254392665112,195.801687332023 123.6292971734074,196.7549073942646 122.55672268907074,196.76761693436129 121.12318563793087,196.05588022728625 119.56588999234373,195.59833255564445 118.32830404886045,195.78897767047602 116.47192513372283,195.39497737029888 114.24427043547621,195.58562286855886 113.20263559970772,195.91607421395747 106.09682964091189,198.67402986026718 104.27139037434245,199.60180448145547 103.44633307872573,200.3389344132811 102.48720397253055,202.70279760312405 102.25,202.86801178148744 103.22975553863216,200.28809803872718 103.82792207796592,199.60180448145547 103.95168067229679,199.8941152697662 104.27139037434245,199.55096773631522 106.3752864782582,198.53422746698925 114.35771581361769,195.57291317983618 116.502864782291,195.36955794336245 118.2767379679135,195.76355834260175 119.64839572197525,195.59833255564445 121.41195569135016,196.1448475896541 122.46390374330804,196.72948830921086 123.39209320093505,196.79303600981075 124.41310160426656,196.42445879034494 126.93983957223827,194.50529362533416 128.16711229947396,193.81896081577725 129.02310924371704,193.67915170930064 131.34358288772637,193.8952202468936 132.04488158901222,193.50121256689454 133.2927807487431,192.07768815346208 134.20034377387492,191.54386133093067 135.12853323150193,191.26423663231253 137.26336898392765,191.31507754413178 139.934491978609,193.90793014651717 141.13082505733473,194.55613290736073 142.60561497329036,194.924716937654 142.7396867838106,195.42039679083973 141.80118411005242,196.538844967763 141.50210084032733,197.14890239513625 141.55366692127427,197.403091903514 140.4914056531852,198.05127225753677 137.9852941177087,198.8011227773386 135.056340718118,201.19043988692283 129.2396867838106,204.29138429200248 128.47650878533022,204.48201301764493 127.48644003056688,205.6130693985324 126.17666157375788,206.35015551276592 127.45550038199872,205.60036097017291 128.38368983956752,204.4438873012332 129.30156608100515,204.24054990446893 135.46886936592637,200.88542382501328 137.8821619556984,198.75028562967054 140.61516424757428,197.9368877911038 141.64648586709518,197.27599722918967 141.440221543191,197.13619290291535 141.60523300227942,196.76761693436129 142.70874713524245,195.42039679083973 142.59530175710097,194.89929739246872 141.264896867855,194.63239178249933 139.7488540871418,193.8443806325522 137.76871657755692,191.64554284779297 137.0364782276447,191.27694686265022 136.0154698243132,191.22610593167337 134.36535523302155,191.49302053415158 133.36497326206882,192.06497802379454 132.17895339953247,193.41224287822115 131.25076394196367,193.94605983574002 128.81684491981287,193.7172814847654 127.68239113828167,194.04773893660604 128.62089381209807,193.66644178092974 131.36420932010515,193.85709053856408 131.89018334605498,193.5774722376882 133.3752864782582,192.02684762512945 134.09721161192283,191.54386133093067 135.2419786096434,191.20068545658432 137.0261650114553,191.16255473197816 137.84090909094084,191.65825303019665 139.23319327732315,193.37411298770166 140.17169595108135,194.0858685731073 141.28552330023376,194.60697216384142 142.39935064938618,194.7086506001142 142.62624140566913,194.87387784095336 142.75,195.4076870813442 141.7186783804791,196.56426410072163 141.49178762413794,197.09806441675755 141.69805194810033,197.27599722918967 140.32639419403858,198.07669101031206 138.00592055002926,198.66132055978233 135.5307486631209,200.86000577836967 129.3428189458209,204.2024240970277 128.57964094734052,204.38034440869524 128.16711229947396,204.72347555429587 128.6002673797193,204.34221865396103 129.13655462191673,204.2786756975038" stroke="#4dd2ff" stroke-linecap="round" stroke-linejoin="round" stroke-width="0.5"><title>2024-10-06 18.0km</title><desc>1728199446000</desc></polyline><polyline fill="none" points="177.19180175388465,202.9413964456253 178.70934095134726,201.8405890011054 180.39908317831578,200.96523994554445 182.56238373642555,199.0155727698948 185.54364868457196,198.1534635532371 186.5768668615492,197.51682453350077 186.6844937549322,197.41071765679226 186.36161307466682,197.02607933422405 187.61008503852645,195.31508497757022 187.4163566303323,194.7182199536619 186.10330853040796,194.4794729987334 184.60729471163359,193.71017358022073 183.56331384531222,192.79496524202114 182.30407919210847,191.29612864309456 181.4323013552348,190.95126057171 180.5712862078217,191.0441097787625 179.97933829389513,190.88493965951784 178.3434095136472,191.45529814199108 176.62137921870453,193.36531339935755 176.02943130477797,193.72343741076475 175.67426255648024,193.81628417825414 173.43562317296164,193.49795206382987 172.64994685089914,193.60406287534715 170.72342545836,194.77127475918678 168.9906324740732,196.11089975744108 167.74216051021358,196.72102035721764 166.5797900611069,196.7077569034518 164.08284613338765,195.58035723776993 163.17878022853984,195.50077562972 162.2639516342897,195.71299311776966 160.54192133934703,195.23550316943874 159.84234653197927,195.22223952893546 157.58218176988885,195.60688442711398 154.42871379223652,196.74754725980893 148.61686154664494,199.06862541472947 147.32533882540883,199.82462270517863 147.25,200.063357566396 147.41144034010358,199.5195718187606 148.65991230402142,198.7503091457329 157.7220967313042,195.36813948296913 159.13200903538382,195.20897588676598 159.76700770662865,195.34161223359843 160.7571751262294,195.1293939986208 162.02717246877728,195.47424841373868 163.52318628749344,195.28855771485541 165.32055540790316,195.81910170173796 166.70894233323634,196.5088048965772 167.7529231995577,196.44248747758684 172.2409646558226,193.45816048201232 172.94053946319036,193.29899400456634 175.68502524582436,193.5510074829508 176.36307467450388,193.12656338306988 178.16044379485538,191.3093927771697 179.49501727340976,190.818618705649 180.62509965454228,190.88493965951784 181.5399282487342,190.67271246034943 182.7561121446197,191.29612864309456 183.59560191334458,192.37051810076082 183.42339888383867,192.5562139351823 184.82254849851597,193.8826032479119 186.13559659844032,194.5060004648476 186.9643236778793,194.63863769536692 187.42711931967642,195.16918495017308 187.67466117459117,195.15592130130244 186.41542652138742,196.98628908286628 186.5230534147704,197.30461067335273 185.48983523779316,198.0606206020675 182.68077331915265,198.88294104117813 179.7425591283245,201.37638964869257 173.60782620246755,204.61247977579478 172.8974887058721,204.74510430351074 171.64901674195426,206.07134041403333 170.28215519530931,206.82728753965057 170.0991894765175,206.78750098379533 170.5512224289123,206.68140342825063 171.6813048099866,205.96524213852535 172.1763885197579,205.27560074773646 172.95130215253448,204.65226715161407 174.26435025245883,204.227867702808 178.3864602710819,202.05279373930534 180.62509965454228,200.5938775464383 180.77577730535995,200.6601923564449 181.95967313309666,199.7583073701171 182.16416423069313,199.24104632616945 182.49780760030262,198.96252009843738 183.16509433963802,198.59115065115475 185.42525910172844,198.0473573166455 186.53381610417273,197.26482052706706 186.37237576395273,197.10565979182866 186.44771458941977,196.86691823888395 187.63161041715648,195.36813948296913 187.5777969704941,194.9039116562417 187.25491629022872,194.6784288320414 186.06025777303148,194.51926419539814 185.01627690671012,194.00197746819322 183.80009301088285,193.02045209134667 182.58390911505558,191.52161869564588 182.01348657981725,191.13695890408417 180.3560324208811,190.9777889249599 178.94612011691788,191.2298079477041 178.24654530955013,191.561411007875 176.48146425723098,193.41836888514808 175.80341482860968,193.80302035938803 173.39257241564337,193.53774363068806 172.0687616263167,193.80302035938803 168.38792187086074,196.4690144501801 167.72063513152534,196.74754725980893 166.5152139250422,196.72102035721764 163.79225352109643,195.5405664412683 162.1563247408485,195.72625669661647 159.99302418279694,195.3018213470641 157.3884533616365,195.6732023712757 150.08058729738696,198.51157131385844 157.60370714851888,195.5405664412683 160.11141376564046,195.20897588676598 162.22090087697143,195.71299311776966 163.6092878022464,195.46098480321234 165.1160643104231,195.92521017897525 166.78428115864517,196.72102035721764 167.871312782343,196.64143960952788 172.32706617057556,193.63059056158818 172.8974887058721,193.49795206382987 175.8141775179538,193.71017358022073 176.56756577198394,193.23267456812027 177.81603773590177,191.86648490274092 178.54790061118547,191.3624492968229 179.49501727340976,191.0441097787625 181.51840287004597,190.88493965951784 182.29331650276436,191.17675136134494 183.90771990432404,193.03371600861283 185.1669545575278,194.01524126209551 186.04949508368736,194.45294552593987 187.53474621311761,194.7314836575315 187.75,195.1957122429012 186.77059526974335,196.2435349705338 186.36161307466682,197.11892319561593 186.44771458941977,197.35766417840932 186.0710204623756,197.67598464855837 184.90865001326893,198.21977989686275 182.69153600843856,198.80336192392133 179.86094871116802,201.21723511490563 178.52637523249723,201.93342862659483" stroke="#ffac00" stroke-linecap="round" stroke-linejoin="round" stroke-width="0.5"><title>2024-09-22 20.8km</title><desc>1726992504000</desc></polyline><polyline fill="none" points="41.76985702937236,251.52389305555698 42.649126290751155,250.83678883760876 42.992255758552346,250.79714807261917 44.76151707704412,249.71362804264209 47.442216044524685,247.42762841992953 49.77978554414585,246.79335381942656 51.087966640188824,246.13264704128233 51.28097696584882,245.934434198105 50.97001588559942,245.6701498258626 51.02362986502703,245.4455075870501 52.75,243.11977149159065 50.862787926977035,243.10655693495937 49.72617156471824,242.55154405592475 48.064138204965275,241.17721383876778 47.01330420974409,239.86894049627153 46.3699364575441,239.5121358496981 43.82863383641234,239.68393083069532 42.04864972201176,240.84684331928293 41.008538522641174,242.08903108492814 40.26866560766939,242.39296840938187 38.03832406672882,242.06260171087342 37.051826846727636,242.26082185455743 33.009332803834695,245.0226503059239 32.20512311364291,245.32657914865558 30.864773629931733,245.12836478568352 30.178514694271144,244.61300569278683 28.398530579870567,243.96549966152088 26.875893566349987,244.2430027347218 25.417593328049406,243.78049720572744 24.431096108048223,243.74085378000018 21.675337569555268,244.335503596325 13.847696584649384,247.36155832759687 12.367950754589401,248.1940384565969 12.25,247.9958295000033 13.30083399527939,247.3087022238251 16.935861795092933,245.86836316733388 21.192811755405273,244.29586037985428 21.20353455125587,244.4808619286996 22.736894360627048,243.97871411018423 25.37470214458881,243.76728273215122 26.875893566349987,244.17693064087507 28.602263701381162,244.04478632859536 29.33141382050235,244.20335948337015 30.961278792703524,245.10193617570621 32.24801429710351,245.2472934483303 33.0951151708141,244.93015004893823 36.97676727559883,242.16831916730735 37.84531374112703,242.02295763724396 39.946981731569394,242.3268951527789 40.59034948371118,242.20796318611974 41.05142970615998,241.97009884918225 43.04586973792175,239.94823025328515 44.246822875284124,239.55178087019158 46.1554805401247,239.4857058276466 46.7130659254035,239.59142587579845 47.20631453540409,239.98787510934199 48.66461477364646,241.74544870339741 49.61894360603765,242.49868553366105 50.66977760131704,243.00084042200615 51.581215250247624,243.13298604655574 52.05301826848881,243.6879958557547 52.31036536936881,243.6087089195862 52.31036536936881,243.85978401236935 52.05301826848881,243.96549966152088 51.07724384433823,245.4719361106836 50.99146147741703,245.69657829299103 51.18447180301882,245.81550631281425 50.04785544081824,246.60835634011892 47.42077045276528,247.3219162522655 44.06453534553293,250.0703980661201 42.713463065971155,250.6385848633072 38.31711675931001,253.0830744325649 37.587966640188824,253.22842067085003 36.37629070691764,254.52331465254974 34.99305003974587,255.30288599189225 36.34412231936585,254.45724901909853 37.50218427326763,253.20199409701308 38.520849880878814,252.92451467068167 44.707903097732924,249.58149068969942 47.313542494084686,247.3219162522655 49.929904686287045,246.5951422219805 50.959293089748826,245.9608625987894 51.152303415408824,245.78907787559 50.97001588559942,245.65693558983185 51.13085782370763,245.2737220217532 52.26747418590821,243.76728273215122 52.07446386019001,243.2783460417122 50.74483717238763,243.0669132550538 49.425933280435856,242.4061830557548 48.10702938842587,241.2168582313243 47.131254964275286,239.94823025328515 46.6701747419429,239.65750085188483 45.855242255784106,239.4857058276466 44.278991262894124,239.59142587579845 42.85285941226175,240.18609916542482 41.20154884830117,241.93045474070823 40.42950754566118,242.34010980737366 37.95254169974942,242.07581639873388 37.051826846727636,242.2476071899364 32.4303018268547,245.30015058853314 31.34729944402352,245.2737220217532 29.996227164461743,244.58657695329748 28.248411437671166,244.03157188824844 26.779388403519988,244.2430027347218 25.321088165277615,243.8465695487248 24.55976965854643,243.85978401236935 22.801231135847047,244.07121520434157 21.36437648930587,244.52050507536478 21.310762509994674,244.28264597107773 22.243645750626456,243.8994273932476 25.020849880878814,243.621923413084 25.288919777667616,243.8465695487248 26.833002382831182,244.2165739021657 28.334193804650567,244.03157188824844 29.846108022262342,244.5072906948044 31.272239872952923,245.22086486824264 32.17295472603291,245.28693630595808 33.105837966664694,244.93015004893823 36.53713264502585,242.55154405592475 37.770254169998225,244.4808619286996 38.00615567911882,244.49407631260692 38.327839555218816,245.0755075590787 39.142772041319404,245.2472934483303 39.485901509120595,245.9080057907704 40.62251787137939,247.07084942801157 40.72974583005998,247.6654804085556 41.308776807039976,248.1279688459399 40.879864972201176,248.44510259853996 41.64118347899057,251.246409200372 38.23133439238882,253.12271433563728 37.577243844396435,253.25484723806585 35.82942811760586,254.90649450773344 34.61775218427647,255.36895109392208 34.64992057188647,255.5142941723534 35.61497220018646,255.17075566319545 37.22339158062823,253.91550925933552 36.054606830875855,255.01219904958998 34.57486100081587,255.4878681730479 34.60702938842587,255.3293120376693 35.35762509930646,255.1443295775316 36.397736298677046,254.44403588746354 37.577243844396435,253.1623542238085 38.27422557590762,253.056647822159 41.29805401113117,251.45782553739264" stroke="#4dd2ff" stroke-linecap="round" stroke-linejoin="round" stroke-width="0.5"><title>2024-08-22 19.8km</title><desc>1724317734000</desc></polyline><polyline fill="none" points="86.80016008537496,246.93204684912052 86.97305229457561,246.48818747994665 90.07070437568473,244.90803680605313 93.91755602991907,241.58788735448616 97.24573105660966,240.77115413974389 97.75,240.48707191462745 97.62033084314317,240.32727541198255 93.74466382071842,241.5168672623986 90.11392742802855,244.6417175362003 88.32737459981581,245.65372809056134 87.6213980789762,245.77800958859734 82.47785485594068,248.8139950822224 80.5472251867759,249.45314160925045 78.89034151553642,251.17527202617202 77.26227321237093,252.16948209026305 75.8070971184643,252.16948209026305 75.67742796160746,251.76114666066132 74.64007470651995,251.69013168281526 73.94850586983375,252.59556997597974 73.21371398080373,252.9506422324339 72.29162219847785,252.71984536723176 69.30923159018857,252.8973814508645 65.15981856989674,253.69629106619686 62.16302027751226,253.98034672970243 60.693436499510426,254.2999086684431 59.92982924229,254.72599012905266 59.48319103522226,254.45968936674763 57.25,254.35316892131232 57.494930629676674,254.0336071030033 59.915421558194794,254.26440182204533 59.92982924229,254.6904833897279 60.56376734259538,254.24664839552133 62.3215048025595,253.82056548925175 68.93463180365507,253.05716373537143 69.35245464247419,252.82636704419565 72.03228388476418,252.6310772417928 73.0984525079839,252.86187425194657 73.94850586983375,252.47129447544285 74.71211312699597,251.58360914918012 75.73505869798828,251.70788543064555 75.89354322303552,252.08071361901239 77.43516542157158,251.95643766554713 78.77508004271658,251.21077964891447 80.5472251867759,249.3643714312202 81.65661686233943,249.09806056233356 89.58084311638959,244.92579140620364 93.47091782290954,241.57013233480393 97.57710779091576,240.2740098709328 93.62940234795678,241.58788735448616 89.75373532553203,244.80150915839477 81.62780149414903,249.20458497015352 80.40314834582387,249.52415771156666 79.27934898610692,250.8201953076641 76.98852721456205,252.2760041821748 79.02001067239325,251.0154876132583 80.33110992523143,249.47089563815098 82.232924226264,248.8317491914786 86.2670757737942,246.70124015120382 87.53495197440498,245.79576407937566 89.72491995734163,244.90803680605313 93.38447171828011,241.71217242970306 97.26013874064665,240.451561596361 93.64381003199378,241.57013233480393 89.91221985057928,244.78375454260095 87.80869797221385,245.9200454524689 87.44850586977554,245.83127305428206 86.07977588049835,246.84327508682327 81.41168623266276,249.3111092975887 80.44637139810948,249.48864966488327 81.80069370334968,248.99153607421613 81.77187833510106,248.70747037994443 83.2270544290659,247.4646762511984 83.39994663826656,246.6302226298285" stroke="#4dd2ff" stroke-linecap="round" stroke-linejoin="round" stroke-width="0.5"><title>2024-07-03 11.2km</title><desc>1719998343000</desc></polyline><polyline fill="none" points="129.11332958377898,247.66863169174758 129.47778402705444,247.12595631176373 133.60826771648135,244.89909524876566 137.02502812154125,241.90494384431804 140.97328458941774,240.78212154375797 142.3551743531716,239.95871314145916 142.75,239.621862937056 142.55258717667311,239.4908654295141 140.82142857147846,240.59498367030756 136.97947131615365,241.71780738227244 133.09195725532481,245.01137475513679 125.10433070868021,249.29664596483053 123.17575928010046,249.9703018367145 121.91535433073295,251.42987910359807 119.88048368954333,252.73974395697587 118.36192350956844,252.79588076462096 118.21006749157095,252.36549803176604 117.07114735658979,252.328073387529 116.29668166482588,253.24497446394525 115.49184476939263,253.60050601539842 114.20106861647218,253.35724767716601 111.49803149601212,253.52565733826486 102.32592800899874,255.09747165722365 102.25,255.30330325613613 102.76631046121474,255.17231954430463 104.81636670412263,255.50913457047136 105.65157480310882,254.7606556998362 106.54752530931728,254.5922474355175 106.71456692914944,254.3115665716614 111.54358830145793,253.43209643894807 114.21625421824865,253.2636866720568 115.47665916761616,253.52565733826486 116.28149606304942,253.20755004076636 117.32930258719716,252.197087058521 118.24043869512388,252.309361061838 118.483408324013,252.7023194067733 120.03233970754081,252.62747027815203 121.58127109106863,251.71056539933488 122.20388076495146,250.7562298351404 123.34280089993263,249.78317551132932 124.46653543313732,249.5211982607725 132.78824521932984,245.17979385587387 136.75168728915742,241.81137564270466 137.84505061869277,241.24996519809065 140.76068616425619,240.48270083342504 142.40073115867563,239.50957936620398 140.47215973009588,240.7259802064218 137.11614173237467,241.62423906305048 133.0464004499372,245.06751447654096 125.0587739032926,249.39020946265373 123.22131608548807,250.06386491112062 122.02165354328463,251.44859153979633 120.74606299214065,252.42163498049194 119.19713160849642,252.87072980853554 121.3079302588012,251.87897692278784 123.38835770537844,249.8018881544267 124.46653543313732,249.57733628182905 133.4867829021532,244.7493891085469 136.23537682794267,242.24178888325696 132.94010123738553,245.1236541768012 126.78993250848725,248.36100775338127" stroke="#4dd2ff" stroke-linecap="round" stroke-linejoin="round" stroke-width="0.5"><title>2024-06-26 10.0km</title><desc>1719394224000</desc></polyline></svg>