<?xml version="1.0" encoding="utf-8" ?>
<svg baseProfile="full" height="300mm" version="1.1" viewBox="0,0,200,300" width="200mm" xmlns="http://www.w3.org/2000/svg" xmlns:ev="http://www.w3.org/2001/xml-events" xmlns:xlink="http://www.w3.org/1999/xlink"><defs /><rect fill="#222222" height="300" width="200" x="0" y="0" /><text fill="#FFFFFF" style="font-size:12px; font-family:Arial; font-weight:bold;" x="10" y="20">Over 10km Runs</text><text fill="#FFFFFF" style="font-size:4px; font-family:Arial" x="10" y="280">Runner</text><text fill="#FFFFFF" style="font-size:9px; font-family:Arial" x="10" y="290">jianbo</text><text fill="#FFFFFF" style="font-size:4px; font-family:Arial" x="65" y="280">SPECIAL TRACKS</text><rect fill="yellow" height="2.6" width="2.6" x="65" y="283" /><text fill="#FFFFFF" style="font-size:3px; font-family:Arial" x="70" y="285.5">Over 20.0 km</text><rect fill="red" height="2.6" width="2.6" x="65" y="287" /><text fill="#FFFFFF" style="font-size:3px; font-family:Arial" x="70" y="289.5">Over 40.0 km</text><text fill="#FFFFFF" style="font-size:4px; font-family:Arial" x="120" y="280">STATISTICS</text><text fill="#FFFFFF" style="font-size:3px; font-family:Arial" x="120" y="285">Number: 18</text><text fill="#FFFFFF" style="font-size:3px; font-family:Arial" x="120" y="290">Weekly: 1.0</text><text fill="#FFFFFF" style="font-size:3px; font-family:Arial" x="141" y="285">Total: 305.2 km</text><text fill="#FFFFFF" style="font-size:3px; font-family:Arial" x="141" y="290">Avg: 17.0 km</text><text fill="#FFFFFF" style="font-size:3px; font-family:Arial" x="167" y="285">Min: 10.0 km</text><text fill="#FFFFFF" style="font-size:3px; font-family:Arial" x="167" y="290">Max: 42.8 km</text><polyline fill="none" points="16.13576505018864,68.6577904225851 18.920986622106284,67.03035924927826 20.487144648854155,65.52808676759014 22.950668896373827,64.72477713089756 22.544314381317236,64.95429496329598 20.766513377951924,65.40289616682276 18.726275083667133,67.15554739546496 14.044732441485394,69.69056673315208 12.994983277574647,70.07655054053612 12.25,70.87980838576186 12.470108695677482,70.45210063047125 12.986517558572814,70.0243906714386 14.12092391308397,69.62797459526337 19.234218227444217,66.85300905230542 20.114653010037728,66.11230707473442 20.580267558572814,65.44462638805271 22.798285953176674,64.81867086629791 23.77184364554705,64.15097977309779 23.975020903046243,64.18227791309619 24.516826923121698,63.50414890431421 25.041701505018864,62.2522038698371 26.582462374586612,61.146303380410245 28.157086120452732,58.92402481904719 29.156040969886817,58.7466572991616 31.010033444850706,59.63349110780109 31.44178511708742,59.63349110780109 32.5,59.195292057418555 32.94021739135496,58.62145646866702 33.37196906359168,57.63027656025224 33.75292642140994,57.233801282076456 34.26086956524523,57.05643014963425 35.24289297661744,57.014695710429805 35.8270275919931,56.71212039851525 36.29264214046998,56.12783391538687 36.38576505018864,55.80438784319267 36.71592809364665,51.46382824709872 36.9698996655643,50.858636036806274 37.82493729097769,49.971708443335956 39.04400083614746,49.48128558576718 40.77100752509432,50.0030119315561 40.77947324415436,50.29517725223559 40.87259615387302,50.107356807049655 41.76149665552657,50.1803981418052 42.14245401340304,50.0030119315561 41.83768812712515,49.700411050609546 42.785848662257195,48.667385935390485 44.10650083614746,47.863913064553344 47.86528010031907,47.081302138431056 50.48118729097769,47.22739007171185 51.13304765889188,46.997823203899316 51.85263377928641,45.49518801904196 52.428302675602026,42.89681712399033 52.09813963214401,40.9140697279654 52.68227424751967,39.09824895960628 52.56375418062089,39.32783768867375 52.65687709033955,38.70168511264637 52.411371237481944,36.60403954282083 52.75,34.12019161423086 52.44523411372211,36.5831671810447 52.65687709033955,38.95214671024587 52.14893394650426,40.9140697279654 52.46216555184219,42.27069148704322 52.46216555184219,42.90725251124968 51.95422240806511,45.30735670727154 51.1161162207718,47.04999754780874 50.64203595317667,47.25869459536625 47.822951505018864,47.143911284190835 43.8694607023499,47.9682606303104 42.862040133797564,48.55260457308759 41.84615384618519,49.710845582099864 42.43028846156085,50.253439412263106 42.10012541804463,50.03431540796737 41.2366220735712,50.14909472047293 38.95087792648701,49.50215470260446 37.74028010037728,50.03431540796737 37.012228260864504,50.816898480275995 36.69053093646653,51.66207990788098 36.4196279264288,55.773086543471436 36.16565635451116,56.545181823094026 35.361413043458015,56.993828482954996 34.37092391308397,57.07729736134934 33.7444607023499,57.28596919005213 33.38890050165355,57.661577159451554 32.965614548535086,58.66319009979634 32.5,59.23702539997612 31.53490802674787,59.654357671548496 30.976170568552334,59.654357671548496 29.20683528436348,58.77795747727214 28.2332775919931,58.913591446013015 26.76870819402393,60.96894060992781 26.193039297650103,61.501027784179314 25.244878762576263,62.04354452803818 24.491429765941575,63.56674566032598 24.000418060226366,64.20314333317219 23.797240802727174,64.18227791309619 22.713628762576263,64.87083400677511 20.800376254192088,65.40289616682276 18.523097826109733,67.33289694598352 15.653219063591678,68.83513676344592" stroke="#4dd2ff" stroke-linecap="round" stroke-linejoin="round" stroke-width="0.5"><title>2026-02-15 16.0km</title><desc>1771116215000</desc></polyline><polyline fill="none" points="62.91479272028664,70.0157401631368 62.8915986456268,69.74897782572953 63.641540392825846,69.31072337638034 64.79351276744273,68.89152109740826 64.92494585714303,68.70097384065593 65.4970663653803,68.42467946750548 66.67223281459883,67.16705097577506 68.75196817546384,66.500118309159 69.718387952802,65.8712907058507 69.90394055005163,65.9094016181698 70.40647883428028,65.20434663803462 70.95540526782861,63.98477659434866 72.37797518004663,63.0129176664268 73.32120088278316,61.50746452806925 73.76188830123283,61.040577416504675 74.63553177996073,60.99293571277667 76.21272885656799,61.755199378487305 76.55290861820686,61.81236884437385 77.66622420173371,61.37406850398111 78.0605234708637,60.859538783050084 78.45482274002279,59.93528217798303 78.77953978523146,59.601784759368456 79.18930177079164,59.430271229743084 80.24076648859773,59.35404286978883 80.71237933990778,59.087243006099015 81.20718626593589,58.27730909476668 81.50097787822597,54.32280157218338 81.87208307272522,53.569992421027564 82.70706976039219,52.845763900688326 83.5497878062306,52.51223528051196 85.1656416739279,52.96964558570471 85.24295525613707,53.188820378432865 85.30480612188694,53.06493905174284 86.07794194374583,53.14117373828776 86.46450985467527,52.98870428850205 86.17844960058574,52.72188201313111 87.07528715397348,51.73081962134893 87.69379581147223,51.27340183767956 88.33549854363082,51.00657352199778 91.66771393595263,50.32043925256585 94.04897226733738,50.434795395616675 94.79118265633588,50.234672032012895 95.34010908988421,48.84332355843799 95.85811009054305,46.508469047890685 95.87357280694414,45.993838375965424 95.57204983642441,44.82161101742531 96.05912540422287,42.81067468373658 95.85811009054305,40.809215850043984 95.98954318024334,40.551881591934944 95.95861774738296,39.80846660219686 96.35291701654205,37.025361086431076 96.90957480826182,35.748148295184365 96.87864937540144,35.50985994273651 96.84772394254105,35.9101839466166 96.8399925842823,35.53845458460273 96.29106615076307,34.76639546462684 96.26014071790269,34.38512879877089 96.39157380760298,32.82191540194617 96.54620097199222,32.7647240560982 96.64670862883213,32.25 96.13643898637383,32.259531958763546 96.42249924046337,32.82191540194617 96.29879750899272,34.60435736614454 96.4611560315825,35.01421776822099 96.90957480826182,35.50985994273651 96.9559629575815,35.76721133099636 96.8399925842823,36.32003728241398 96.63124591240194,36.4439459938294 96.43796195695177,36.81567091184843 95.91222959803417,40.38032493417995 96.07458812065306,42.858327820998966 95.6029752693139,44.6500640289305 95.87357280694414,46.508469047890685 95.34784044808475,48.910032630039495 94.78345129813533,50.11078587536758 94.28091301390668,50.453854736013454 91.68317665235372,50.358557986102824 88.07263236420113,51.1304582140001 87.19125752724358,51.68317206440406 86.20937503347523,52.702823243242165 86.47224121293402,52.979174937689095 86.05474786911509,53.1125857398074 85.58313501774683,53.09352706819482 83.60390731375082,52.52176469002734 82.4287408644741,53.05540971053415 81.74064998302492,53.84634095292131 81.47778380359523,54.522914138920896 81.25357441522647,58.25825172202167 81.00617095225607,58.99195711281209 80.23303513036808,59.401685603748774 78.84139065098134,59.601784759368456 78.4393600236217,59.992453016697254 78.10691162018338,60.85001042195654 77.6816869181639,61.39312509320007 76.76938664834597,61.77425587190373 76.37508737918688,61.81236884437385 74.62006906350143,61.00246405592043 73.83147052518325,61.088219090233906 73.52221619646298,61.3359553110713 72.67949815062457,62.736602558790764 72.20015394105576,63.260647596143826 71.27239095477853,63.78468901023007 70.90901711850893,64.15627981747821 70.23638895346085,65.52829163250863 69.65653708708123,66.17617746802716 69.19265559394262,66.47153534942481 69.05349114598357,66.38578640562628 67.0124125762377,66.98602697505703 64.82443820030312,68.84388432812557 60.4021012991725,71.17805082035193 59.884100298484555,71.26379434335104 59.00272546155611,72.20696669575409 58.044037042418495,72.75 59.0336508944456,72.14980506901338 59.85317486562417,71.27332139546343 60.680430195032386,71.00656348341727 64.94813993186108,68.69144646519999 66.749546396808,67.14799583816057 68.92978941451292,66.42389705931419 66.93509899402852,67.04319249568653 65.05637894687243,68.68191908860172 63.30909198944573,69.59654178291385" stroke="#4dd2ff" stroke-linecap="round" stroke-linejoin="round" stroke-width="0.5"><title>2026-02-08 18.0km</title><desc>1770535113000</desc></polyline><polyline fill="none" points="109.45596471967292,70.80054405629198 109.36434190100408,70.52957218408847 110.10954082594253,70.1758015057676 110.24392095996882,70.19838267533851 110.57376310709515,69.87471843139429 110.91582162998384,69.83708294066673 112.45508498314302,68.31658933615472 112.83990082141827,68.12087943432198 114.09207934283768,67.83484073502404 114.72122269749525,67.37567049236532 114.91668471056619,67.36061567069919 115.69853276299546,65.93791794496428 116.77968202292686,65.23032024659187 117.70201839721994,63.784988327144674 117.94634591360227,63.57420784070928 118.6365711473627,63.40859408086908 120.10253624556935,64.07857419675202 120.41405382900848,64.01835157162714 121.07984631109866,63.739821142509754 121.34860657909303,63.41612198897565 121.64179959872854,62.685910495416465 121.94720899421372,62.33209347612865 122.31370026877266,62.18906047062774 122.94895181132597,62.181532408241765 123.44982321988209,61.97074627714392 123.79798993072473,61.541643645919976 123.87128818567726,61.225460791894875 124.06064201082336,58.221640395939176 124.32329409092199,57.64946704218164 124.88524737861007,57.09987432965136 125.6793118068017,56.746024296768155 126.99257220729487,57.09987432965136 127.02311314686085,57.2655055412979 127.12084415336722,57.16010391418604 127.72555475641275,57.22033343811563 128.01263958815252,57.11493173146664 127.7866366355156,56.90412776144876 128.5074028088129,56.06090445807786 129.3625491161074,55.586586130310025 130.59029488588567,55.315545398501854 131.03008441536804,55.3306032490982 132.16620736647747,55.00685862584942 134.16358481283532,55.07461927327313 134.5178597115737,54.93909790172256 135.0492720596958,53.75703737414369 135.41576333425473,52.01025551657949 135.409655146359,51.400375706849445 135.21419313322986,50.67754714440889 135.26916682440788,50.150479147683654 135.61122534735478,49.35233877381688 135.60511715942994,49.19421536105801 135.53792709243135,49.39751681499911 135.56846803196822,48.4487707882181 135.42187152215047,47.60542836030072 135.4951697770739,46.76960404995407 135.86776923952857,44.33736419576235 136.11820494383574,43.88554404736351 136.19150319870096,43.32829449928977 136.2159359503712,43.591859121490415 136.20371957455063,43.36594665924349 135.79447098460514,42.74844824403408 135.74560548135196,42.24390212551589 136.01436574934633,41.19714362413288 136.16707044708892,40.01481163891731 136.88783662038622,38.24503538978752 137.10162319720257,38.36553245478717 138.05450051106163,36.18148548652607 138.2377461483411,35.47353590992134 139.03791876445757,33.85425804177794 139.12343339520157,33.583118858816306 138.91575500628096,33.45508048410193 139.10510883145616,32.965519465367834 139.68538668283145,32.25 139.111217019381,33.03330507618375 138.14001514180563,35.481067332493694 137.68190104860696,36.279392747281236 137.35816708940547,37.24339414364658 136.86951205666992,38.13960025881897 136.9000529962068,38.305283952635364 136.17317863501376,40.075058419650304 135.76393004506826,42.43216610012314 136.27090964154922,43.53161588162766 136.2159359503712,43.88554404736351 135.89831017906545,44.254530757269094 135.6661990385328,45.64762333505496 135.47073702540365,47.28917188597552 135.60511715942994,48.9532645954896 135.5318189045065,49.40504648523347 135.60511715942994,49.20927475172357 135.6173335352505,49.33727941917459 135.22640950905043,50.48177957314692 135.45241246171645,51.92743269717539 135.12257031461922,53.5763381665347 134.54229246321484,54.961684818299545 134.07807018212043,55.12732194601995 132.09290911158314,55.02944551684777 129.40530643146485,55.60917280258218 128.5379437483498,56.068433290132816 127.7866366355156,56.8815415777608 128.0065314002568,57.11493173146664 127.65836468941416,57.2655055412979 127.04143771057716,57.21280475093954 126.9803558314743,57.37843565012736 127.01089677101118,57.12246043094274 125.74039368587546,56.746024296768155 124.81194912368665,57.15257521942476 124.29275315138511,57.724753322228935 124.03010107128648,58.387268504066014 123.85907180982758,61.32332709180628 123.79188174282899,61.55669993065749 123.41317409242038,62.00838671213933 122.94895181132597,62.21164465211041 122.11823825567262,62.27186909439479 121.81282886018744,62.43748599838 121.38525570655474,63.35589869758405 121.07984631109866,63.717237537428446 120.33464738616021,64.07104637192606 119.9376151720644,64.06351854614331 118.63046295946697,63.46128941778443 118.09294242344913,63.498928915749275 117.5737464511476,63.95812888591536 116.66362645264599,65.29054165282287 115.86345383652952,65.77231072244103 115.5519362531777,66.20891059389032 115.28928417307907,66.8487494822366 114.87392739523784,67.33050601601644 114.73343907331582,67.30039634621426 113.93937464509509,67.83484073502404 112.51005867432104,68.23378907114966 110.75090055644978,69.69406786020772 107.59296740734135,71.38011866756278 106.98825680429582,71.56076415315692 106.32246432220563,72.26076026369265 105.74829465872608,72.6220453779315 105.31461331716855,72.75 105.62613090052037,72.74247326507975 106.01705492672045,72.56935810116556 107.1226369383221,71.68872104250477 109.43153196803178,70.46935604598548" stroke="#4dd2ff" stroke-linecap="round" stroke-linejoin="round" stroke-width="0.5"><title>2026-02-01 19.0km</title><desc>1769905033000</desc></polyline><polyline fill="none" points="152.34082733813557,68.53137988266826 154.90647482013446,67.18494207385811 156.37140287767397,65.73874268399231 158.6861510791059,65.03059405962267 156.67086330932216,65.62902993053285 154.67985611507902,67.35449475889618 150.18794964026893,69.77806118874287 149.28147482010536,70.057315116479 148.40737410070142,70.99480325865443 147.50899280572776,71.54332841915311 147.25,71.60316729819897 148.41546762589132,70.93496392088127 149.23291366902413,70.00744841574488 149.8237410071888,69.89774156381463 153.2149280575104,68.03270187645103 154.6312949640269,67.48415245009528 156.0881294963765,66.34714701831399 156.50089928053785,65.67889938272128 158.61330935251317,65.05054199470032 159.51169064748683,64.46207580187183 159.76258992805379,64.45210176098044 160.20773381294566,63.85365701390401 160.79046762589132,62.56698552360467 162.44964028775576,61.37006307947013 163.46133093521348,59.704315961906104 163.8012589927821,59.39510157060431 164.5863309352426,59.24548127124581 166.3749999999709,60.08335131360218 166.82823741008178,60.10330049248296 167.92086330935126,59.65444275447953 168.3012589928112,59.21555717749288 168.59262589924037,58.437526778827305 168.99730215827003,57.878936146255 169.62050359710702,57.62956405836303 170.559352517972,57.58966445156693 171.07733812948572,57.33031651821511 171.57913669064874,56.542292595993786 171.8462230215664,52.502300189837115 172.1699640287552,51.69427701843961 172.89838129494456,50.916172851961164 174.19334532372886,50.40740830856521 175.76348920859164,50.87626986843679 175.81205035970197,51.1356389024877 175.8848920862947,51.02590595311631 176.71043165464653,51.0658088613709 177.09892086329637,50.89622136273101 176.807553956809,50.636851545845275 177.71402877697255,49.66919512939057 178.47482014386333,49.08061483426718 179.02517985610757,48.87111909901432 182.48920863308012,48.12291552775423 185.31384892083588,48.21270032893517 185.72661870502634,48.02315451831237 186.38219424456474,46.68634488603129 186.92446043161908,44.23214317840757 186.9487410071597,43.55373256075109 186.66546762589132,42.24677810040885 187.15107913667453,40.14163822595583 186.932553956809,38.066374552538036 187.04586330935126,38.016487738066644 187.07014388486277,36.9189698799164 187.47482014389243,34.21502016107115 187.75,33.39683270180103 187.46672661867342,34.26490936719347 186.9568345323496,37.86682710643072 187.19154676259495,40.620537515227625 186.71402877697255,41.747934840903326 186.65737410070142,42.25675493360177 186.98111510789022,43.57368589704856 186.97302158272942,44.14235387105873 186.4874100719171,46.40700868415297 185.74280575537705,48.07303503870207 185.2005395682936,48.272556806616194 182.52967625897145,48.14286771456682 178.99280575540615,48.89107109767065 177.92446043164819,49.43974909309327 176.8399280575104,50.58697263765498 177.1312949639978,50.87626986843679 176.79136690645828,51.07578458527132 175.8525179855933,51.01593022293673 175.77967625897145,51.26532310147741 175.77967625897145,50.90619710797182 174.1043165467272,50.41738411530241 172.90647482010536,50.93612433618546 172.21043165461742,51.69427701843961 171.89478417264763,52.492324645325425 171.61151079135016,56.61211781654856 171.41726618705434,57.15076745231636 170.57553956835181,57.60961425745336 169.5800359712157,57.66946364509931 169.07014388486277,57.85898640808591 168.71402877697255,58.24800539792341 168.3174460431328,59.195607775393 167.90467625897145,59.714290599600645 166.8606115107541,60.13322425138904 166.5206834532146,60.14319883520511 164.59442446037428,59.24548127124581 164.03597122302745,59.25545596663869 163.54226618702523,59.664417398453224 162.6843525179429,61.10075304120983 162.15017985610757,61.70919293844781 160.83093525178265,62.57695980143035 160.24010791367618,63.88357935845124 159.52787769780844,64.7014524068727 159.01798561148462,65.03059405962267 158.87230215824093,64.93085430903011 156.7194244604325,65.61905603631749 154.3399280575395,67.53402073644975 149.89658273381065,69.92766162937187 149.24910071940394,70.087235121915 147.93794964026893,71.32391880991054 147.28237410070142,71.59319415483333 148.3830935251608,70.96488359542127 149.22482014389243,70.03736843994557 149.92086330932216,69.86782148693601 154.3237410071597,67.55396804221527 155.68345323737594,66.43691119734285 154.6717625898891,67.35449475889618 152.64838129491545,68.43164453214558" stroke="#4dd2ff" stroke-linecap="round" stroke-linejoin="round" stroke-width="0.5"><title>2026-01-25 19.0km</title><desc>1769297747000</desc></polyline><polyline fill="none" points="19.04798839057912,119.3906867259866 19.04193982417928,119.18198734129328 20.45730435504811,118.46644101817947 22.217437169048935,117.02041480415573 23.765870160103077,116.55827528012378 22.181145770824514,117.08749927442841 20.620615647087106,118.39190444632186 17.39068120488082,120.1434891183817 16.670901806734037,120.36709194874129 15.926928143075202,121.14224190065215 15.297877240460366,121.5 16.05999660323141,121.00062872346825 16.664853240334196,120.344731703648 17.31809840843198,120.1434891183817 20.179070301965112,118.60806024654448 20.25770166478469,118.69005017156451 20.554081416979898,118.54097749631546 21.787988956697518,117.55708844152832 21.92710598325357,117.25148321561574 22.11461154074641,117.10986074765606 23.705384496366605,116.61045250350799 24.570329487440176,116.14830978459213 25.380837381148012,114.67986466133516 26.481676460709423,113.92699290806195 27.304281487187836,112.62994390320455 27.582515540270833,112.39140306633999 28.284149239305407,112.32431328306848 29.53620247816434,112.94302729518677 29.84467936307192,112.94302729518677 30.612847292184597,112.60758074049954 30.909227044379804,112.24976899038666 31.272141026653117,111.45959372618745 31.51408368148259,111.22104818081061 31.913289061980322,111.07195672757734 32.62701989381458,111.0421383919529 33.21977939817589,110.71413571019002 33.40123638929799,110.06557961196813 33.57664481404936,107.19544734114606 33.78834463705425,106.67359018114075 34.42949267241056,106.0399003108214 35.31258336256724,105.66713839926888 36.44971384035307,106.02498987935542 36.56463660139707,106.15918362747107 37.157396105787484,106.18900441912774 37.49611582257785,106.04735552515194 37.27231886683148,105.8460644093575 37.96185543315369,105.10799113695975 38.826800424198154,104.5637494032344 41.57284955671639,103.95240341466706 43.56887645920506,104.03441360856596 44.00437323792721,103.93003697846507 44.45196714939084,102.82661564726732 44.85117252985947,100.94031404408815 44.6273755741131,99.46403613130678 45.044726653781254,98.37544401497144 45.032629521010676,98.2263202501199 44.960046724561835,98.42763724402175 44.839075397117995,96.5411956302487 44.960046724561835,96.4069801048172 44.941901025449624,95.80300647871263 45.1838436802791,93.83445711811873 45.67982612270862,92.5742529306408 45.6435347245133,92.38782991726475 45.619340459030354,92.69356335142948 45.62538902537199,92.43257149396595 45.20198937939131,91.79127233303007 45.147552282054676,91.47062014976837 45.58304906077683,89.13651824799308 46.27863419346977,87.27961112506819 47.54278456501197,84.58736530793612 48.55289514901233,82.02178729825027 49.05492615781259,81.38037543323662 49.702122759539634,81.0 48.89766343214433,81.55191649610424 48.50450661807554,82.14111897195835 47.53673599867034,84.58736530793612 47.0709963880945,85.42264579936091 46.750422370416345,86.39215303019228 46.28468275984051,87.24232323736942 46.55686824655277,87.52571059530965 46.41170265362598,87.66740376592497 45.788700317410985,89.22600627796055 45.54675766255241,90.7174535457998 45.31086357409367,90.7398249690159 45.1838436802791,91.62721794444224 45.65563185722567,92.35800218068835 45.649583290854935,92.64882197178304 45.6435347245133,92.32817442912346 45.704020388191566,92.49968379567872 45.649583290854935,92.91726974285848 45.516514830698725,92.98438149560025 45.31086357409367,93.38705041588037 44.88746392808389,96.26530783152702 45.0205323882692,98.09210854093544 44.65761840599589,99.51622840171694 44.88746392808389,100.90303475136898 44.48220998121542,102.8117044075334 43.962033273332054,103.91512601629802 43.48419653001474,104.06423546913356 41.566800990345655,103.98222531648571 38.8993832206761,104.55629400230828 38.119118158792844,104.94397360623407 37.290464565943694,105.8460644093575 37.51426152169006,106.04735552515194 37.15134753941675,106.1442732260075 35.25814626523061,105.6895041800708 34.36900700867409,106.06972116248653 33.818587468907936,106.67359018114075 33.643179044127464,107.14326183186859 33.4193820884102,110.20721890559798 33.358896424702834,110.44576853000399 32.989933876058785,110.88559188381987 32.663311292009894,111.049592977266 31.876997663785005,111.10922962603217 31.45964658417506,111.27323010087275 30.655187256779755,112.60012635105159 29.91726215952076,112.92811859972062 29.554348177247448,112.9355729479139 28.229712141968776,112.31685885800471 27.624855504836887,112.38394864973452 27.35267001815373,112.63739828887628 26.52401642530458,113.88226755259893 26.22158810676774,114.18043595171548 25.610682903265115,114.49351115716854 25.326400283840485,114.79913059665341 24.945340602454962,115.64889344253606 24.515892390103545,116.20794130553259 24.370726797176758,116.14830978459213 23.92313288571313,116.52100580673141 23.92313288571313,116.64026803914385 23.699335929966765,116.75207616416083 22.2113886026782,117.16949130171633 20.783926939097,118.40681176820362 18.751608638383914,119.49503614291461" stroke="#ffa900" stroke-linecap="round" stroke-linejoin="round" stroke-width="0.5"><title>2026-01-18 21.1km</title><desc>1768694323000</desc></polyline><polyline fill="none" points="62.442307692341274,117.4979294751538 62.68381037565996,117.07136940123019 64.33407871198142,116.29760338373308 64.97003577821306,115.85119646161183 66.39490161003778,114.49211984317662 67.07110912344069,114.17466791834886 68.5040250447637,113.82745341363625 69.4539355992747,113.23222499448457 69.67128801430226,113.2421455049116 70.20259391772561,112.47826255244581 70.7177996422106,111.34730538396252 72.13461538459524,110.3453034750346 73.43872987478971,108.41070934020536 74.17933810374234,108.02378482200584 74.34033989266027,107.74599169026624 74.79919499109383,107.82536125625484 75.77325581398327,108.29165584434668 75.95035778175225,108.42063045674149 75.78935599283432,108.65873687966086 76.28846153846825,108.88692152747535 76.77951699463301,108.90676363957755 77.77772808587179,108.51984155359241 78.18828264757758,107.954336630748 78.56663685152307,107.0217407127493 79.0013416815782,106.58520266629785 80.49060822898173,106.38677548320265 81.23121645796346,105.95023392401345 81.47271914134035,105.21604494634812 81.73032200356829,101.23741559151676 82.05232558140415,100.50318276043254 82.73658318424714,99.76894309652562 83.98434704830288,99.26290908049123 85.2723613595881,99.63995434183016 85.69096601073397,99.85824288008735 85.62656529515516,100.0169978013073 85.75536672628368,99.84832068692049 86.52012522361474,99.91777601298963 86.94677996422979,99.73917647955386 86.64892665477237,99.46135417950427 87.50223613594426,98.60803671232134 87.63908765651286,98.28059848979319 88.62924865828245,97.77455492742592 92.37254025042057,96.95098689585575 95.0210196780099,97.07998004694673 95.5684257602843,96.88152895792155 96.22853309480706,95.22444287712278 96.71153846153175,93.01163293801073 96.4217352415144,90.95753407841403 96.97719141325797,89.5087172066269 96.9691413238179,89.33009410577506 96.8644901610096,89.62779904912895 96.93694096602849,89.15147060041636 96.67933810377144,87.23620426015987 96.88059033991885,86.82932821921713 96.80813953489996,86.17435262241634 97.18649373884546,83.31621363667364 97.51654740606318,82.38332640776207 97.70974955277052,82.20468716890173 97.75,82.3734020162301 97.58899821108207,82.41309957490739 97.32334525941405,82.87954439265013 96.78398926655063,86.69039445622911 96.93694096602849,88.59575044130906 96.85644007156952,89.59802860536001 96.93694096602849,89.31024706960307 96.96109123434871,89.54841117408068 96.47003577818396,91.07661373373412 96.73568872988108,93.02155599107937 96.24463327374542,95.3633616097868 95.50402504473459,96.90137408931332 95.00491949912976,97.14943781017791 92.28398926655063,97.01052222257567 88.79025044722948,97.7646324722009 87.59883720931248,98.42943421395466 86.65697674418334,99.48119866193156 86.93872987476061,99.73917647955386 86.60867620751378,99.92769819746172 85.6829159212939,99.86816507203912 85.61851520571508,100.08645297889598 85.61851520571508,99.75902089212468 84.00849731665221,99.27283134729078 82.83318425761536,99.74909868645045 82.1006261180737,100.53294908919634 81.77057245079777,101.30686969476665 81.51296958854073,105.19620190619753 81.23926654740353,105.97999819797406 80.56305903400062,106.37685411095299 78.96914132375969,106.65465206249064 78.59883720931248,107.0614258699643 78.06753130591824,108.1626810211892 77.51207513417467,108.66865796501952 77.59257602860453,108.72818445101439 76.45751341682626,108.95636889804882 74.5335420393676,108.05354831382283 73.7848837209167,108.19244446059747 73.46288014310994,108.45039379888476 72.13461538459524,110.40482869635889 70.83050089445896,111.26793936006288 70.1703935599362,112.627071499679 69.71958855103003,113.212383969847 69.44588550980552,113.212383969847 68.90652951700031,113.66872627409612 68.2625223613577,113.94649855876196 66.58810375671601,114.39291625384794 66.20169946333044,114.6806063194017 66.03264758497244,115.06749820245022 64.40652951700031,116.37696435001999 61.24284436495509,118.03360630282259 59.19007155636791,118.82719492085016 58.377012522367295,119.73981196818204 57.88595706617343,120.0770808154848 57.25,120.29531283109827 58.34481216457789,119.70013318552083 59.141771019640146,118.81727511238569 60.65518783542211,118.19232466472022 64.26162790696253,116.26784300081636 64.85733452593558,115.82143591034401 64.22137745973305,116.34720399700018 62.23300536675379,117.36896969594818" stroke="#4dd2ff" stroke-linecap="round" stroke-linejoin="round" stroke-width="0.5"><title>2025-12-28 16.0km</title><desc>1766878702000</desc></polyline><polyline fill="none" points="103.88196776359109,116.54229823844071 106.47498321020976,115.05634651271976 108.46054398926208,113.31339403727179 111.1260913364822,112.50894290659198 111.1260913364822,112.33017499994457 111.76074546674499,111.79386912294285 112.05993955675513,111.80504219504655 113.26578240428353,109.63743991280353 114.88868368032854,108.48657804264076 116.21239086636342,106.4194586227095 116.52065144391963,106.16246203739138 117.62676292809192,106.00602896946657 119.44912693084916,106.92227587942034 120.01124916051049,106.95579692871252 121.15362659504171,106.49767482728203 121.60695097380085,105.89429089524492 122.02400940225925,104.88864190543245 122.50453324371483,104.38581314329349 123.20265278709121,104.18468084186316 124.13650100736413,104.15115874735056 125.06128274009097,103.64832581265364 125.31514439219609,102.83261300084268 125.6234049697523,98.2734227023393 125.92259905976243,97.55823437264917 127.01964405644685,96.53014106414048 128.1982874412206,96.08314026330481 130.02065144391963,96.64189091300796 129.96625251841033,97.07771398073237 130.10224983206717,96.74246565681824 130.8729012759868,96.86539018911571 131.46222296840278,96.65306589015381 131.52568838139996,96.54131605533621 131.16302887845086,96.32899098205962 132.17847548687132,95.22265739101567 133.57471457350766,94.37334144960914 137.5458361316123,93.54636812711396 140.42897918063682,93.66929708098905 141.24496306246147,93.32286050249968 141.84335124242352,91.92592511046678 142.46893888514023,89.05375694303802 142.1788112827344,86.75148506565893 142.75,85.19797664060752 142.18787777033867,86.79618994195334 142.52333781059133,88.38319847643288 142.49613834789488,89.06493287462217 141.94308260572143,91.7135890079735 141.127098723955,93.45696514475276 140.4924445936922,93.66929708098905 137.59116856951732,93.5687188586453 133.62911349895876,94.38451671208168 132.33260577567853,95.04385470956186 131.15396239084657,96.34016599855386 131.47128945600707,96.65306589015381 130.9273002014961,96.8877400858255 130.06598388176644,96.79834046531323 129.99345198116498,96.95478974215075 129.97531900601462,96.64189091300796 128.1438885157695,96.1501905267869 126.87458025518572,96.61954095448164 125.95886501006316,97.56940923458023 125.65060443250695,98.32929654817417 125.34234385489253,102.78791619204276 125.04314976494061,103.65949990876834 124.21809939556988,104.13998471305968 123.09385493618902,104.2182029237083 122.46826729347231,104.43050914845662 121.15362659504171,106.5088485651504 120.1109805238084,106.94462324703636 119.57605775684351,106.97814428790298 117.49983210203936,106.03955036437401 116.4843854936189,106.20715714911785 115.9585292142583,106.79936525712401 115.115345869679,108.28545502112684 114.71642041637097,108.69887407160422 113.33831430488499,109.5368797610281 112.63112827402074,111.06761642333731 111.79701141704572,112.07319550433749 110.98102753522107,112.59832672504126 108.63280725316145,113.25752961065155 106.19392209534999,115.31331738443987 102.25,117.30202335939975" stroke="#4dd2ff" stroke-linecap="round" stroke-linejoin="round" stroke-width="0.5"><title>2025-12-21 12.2km</title><desc>1766291458000</desc></polyline><polyline fill="none" points="156.24392507591983,108.44294266017096 156.44895376299974,108.10607107385295 159.89343570702476,106.23641837877221 162.96886601415463,103.49084507365478 166.27666216669604,102.61494482250419 167.8348801889224,101.75588324601995 169.10605804930674,100.25672338261211 169.96717853524024,98.21851284656441 171.27936213294743,97.2246634074254 171.27936213294743,96.83722857838438 172.30450556863798,96.11289089314232 173.15195747552207,95.10218060274201 174.39579817751655,92.71013587630296 175.36626729671843,92.18792325010872 176.09070199122652,92.00262150639901 176.2137192034861,92.18792325010872 175.98135335807456,92.55852596872137 176.8561424232321,92.64275371635449 179.65820114751114,93.92300896171946 180.25961862975964,94.0072358516336 182.05020249739755,93.28288286809402 182.74730003380682,92.4237614623562 183.49907188658835,90.6886563362059 184.23717516026227,90.0148230453924 186.6975194059778,89.69475104512821 187.75,89.10514272727596 186.5061592980055,89.76213468769856 184.14149510633433,90.06536065979162 183.44439757004147,90.84026835960685 182.70629429630935,92.5248348548339 182.1458825514419,93.23234646730998 180.92937900772085,93.82193662392092 179.6445325683453,94.0072358516336 176.6647823152016,92.60906262365461 175.8173304083175,92.60906262365461 174.68283833947498,93.13127360853832 172.7692372595193,96.26449677918572 170.6779446506407,97.59525219572242 170.11753290583147,98.20166800220613 169.3384238947183,99.98720971841249 168.34061761724297,101.368461517588 167.87588592636166,101.23370587121462 167.38381707726512,101.85694959970715 166.41334795812145,102.39596886523941 163.25590617617127,103.30555895950238 159.7157441782183,106.33748135343194 151.5282652716851,110.64943061395024 150.4894532567705,110.91892283654306 149.21827539650258,112.36743424911401 147.56437732023187,113.39485727272404 149.27294971310766,112.23268966183241 150.5441275733756,110.80102005580557 151.58293958817376,110.53152759619115 159.29201822471805,106.5564508704847 162.85951738100266,103.40662414443796 166.4543536955607,102.31174724783341 163.29691191355232,103.22133791382657 159.9207728652982,106.15219917499053 151.71962537965737,110.54837089078501 150.59880188992247,110.85154983169923 149.1772696590633,112.43480649196135 147.49603442451917,113.36117139685666 149.0952581841848,112.36743424911401 150.66714478563517,110.69996044697473 152.32104286190588,110.17781792051392 159.14166385412682,106.53960707419901 163.16022612224333,103.22133791382657 166.41334795812145,102.36228022462456 163.10555180558003,103.33924736296467 162.4221228483948,103.8614165334584 162.14875126554398,104.51833614840871 160.6452075598645,105.71425846208876 160.4401788727846,105.57950718558277 159.11432669585338,106.6406698202627 152.56707728648325,110.12728789066023 150.5441275733756,110.85154983169923 149.53265271679265,112.11478803685168 148.32981775223743,112.97378321550786 147.25,113.39485727272404 149.13626392162405,112.33374811500835 150.63980762741994,110.75049026095076 151.65128248394467,110.53152759619115 158.41722915961873,106.89332635194296 154.00227809645003,109.28511792144855" stroke="#4dd2ff" stroke-linecap="round" stroke-linejoin="round" stroke-width="0.5"><title>2025-12-07 13.4km</title><desc>1765091716000</desc></polyline><polyline fill="none" points="18.10341278440319,159.58820904182357 18.349133261071984,159.20971297863434 20.551841820124537,157.97688568685408 22.57903575297678,156.20331368621555 24.65888407366583,155.63013930850866 25.676868905720767,155.12184940176667 25.922589382447768,154.87311069351563 25.817280606657732,154.76496320478327 26.063001083384734,154.75414844841725 26.39647887321189,154.31074226758938 27.186294691229705,152.69932007477473 28.371018418169115,151.9530807807896 29.10817984829191,151.26091101168277 30.371885157073848,149.3357845574792 30.67026002163766,149.18436828983977 31.39864572044462,149.16273737270967 33.63645720476052,150.092861898127 34.89138678222662,149.58453927574737 35.31262188515393,149.02213627875608 35.76018418202875,148.00547537660168 36.19897074752953,147.52958742174087 37.769826652191114,147.31327384467295 38.340249187429436,147.02124965281837 38.91067172260955,146.08027606867836 39.19149512454169,141.71056269841938 39.51619718305301,140.9425950868026 40.29723726969678,140.0989044541202 41.657475622952916,139.5472561042552 43.868959913321305,140.18543720759772 44.43938244850142,140.18543720759772 44.86939328274457,140.06645464914618 45.62410617544083,139.14703842008748 46.835157096385956,138.26006286117627 51.07383531960659,137.34062732142775 52.75,137.43797978500515 50.86321776814293,137.41634591374896 49.731148428982124,137.67595200990036 50.205037919804454,137.45961365084077 46.76495124591747,138.30333017383964 45.81717226433102,138.93070376135438 44.86939328274457,140.0989044541202 44.46570964244893,140.2719698740184 43.49160346691497,140.2178869677009 43.43894907901995,140.06645464914618 41.66625135426875,139.55807277256827 40.31478873238666,140.0989044541202 39.551300108316354,140.92096209702868 39.19149512454169,141.8728084995746 38.972101841762196,145.93966993653157 38.66495124588255,146.85901356226532 37.69962080172263,147.3673522899262 36.25162513542455,147.54040308630647 35.81283856986556,147.96221294406132 35.23364030336961,149.21681465533766 34.8650595882209,149.63861629323947 33.85585048754001,150.08204655446752 33.390736728091724,150.12530792097095 31.345991332549602,149.17355283194775 30.687811484211124,149.22763010780182 30.231473456078675,149.46556971762038 28.9326652220916,151.46639949311066 27.063434452866204,152.8723601459933 26.5719934994122,154.1268902541342 25.650541711773258,155.14347882067523 24.606229685770813,155.67339788530808 22.763326110492926,156.149240794839 20.490411700913683,158.08502913852135 19.156500541663263,158.89610069359333 14.759859154932201,161.1238045616119 13.417172264365945,162.24844868467335 12.293878656520974,162.65937267857225 12.25,162.52960741884453 13.171451787638944,162.21600723314623 14.663326110458001,160.82101324784162 15.321505958796479,160.65880317721167 17.296045503753703,159.58820904182357" stroke="#4dd2ff" stroke-linecap="round" stroke-linejoin="round" stroke-width="0.5"><title>2025-11-30 11.3km</title><desc>1764483136000</desc></polyline><polyline fill="none" points="61.417419201519806,161.4525534415734 61.946768060850445,160.91884777941596 61.92751901136944,160.74094522126688 64.27590304182377,159.48375758449401 66.44142110267421,157.57422356801544 68.74168250948424,156.88630743589601 70.08911596960388,156.06791791909927 70.32972908747615,156.10350021959312 71.5809173003654,153.88551117200404 73.46732414449798,152.545203747919 74.72813688212773,150.48133030590543 75.21898764261277,150.05431637090078 75.92157794674858,149.8408086786003 78.3373336501536,150.92020372524712 79.65589353610994,150.61180640060047 79.58852186310105,150.81345091925323 79.46340304182377,150.75414375262335 79.82913498103153,150.6829751034311 80.39698193914955,149.99500872704084 80.96482889732579,148.7258162133876 81.36905893537914,148.26320908877824 82.16789448668715,147.95480307884282 83.25546577951172,147.89549411521148 84.17942015209701,147.38543548876623 84.44890684413258,146.47206780216948 84.72801806085045,141.90509671870677 85.04562737647211,141.0628519300517 85.9407081748941,140.03079524567147 87.53837927756831,139.42579124984331 89.40553707221989,139.9596185064147 89.42478612170089,140.38667813652137 89.47290874522878,140.10197193127533 90.26211977185449,140.20873685897095 90.88771387835732,139.98334409214294 91.29194391635247,140.25618789911823 90.60860266163945,139.65118534890644 91.69617395434761,138.48862053643097 92.56238117872272,137.8480174759825 93.5537072243169,137.48026190145174 97.75,136.6854304388835 92.7259980989038,137.80056522433006 91.8597908745287,138.3225386792401 90.62785171100404,139.67491101218184 90.955085551308,140.00706967191218 89.72314638784155,140.493442741943 89.38628802279709,140.41040361484193 89.40553707221989,140.01893245953397 87.53837927756831,139.42579124984331 85.97920627373969,140.05452081353724 85.16112167295069,140.95608796909073 84.80501425854163,141.75088344655524 84.45853136887308,146.57882552064984 84.1986692015198,147.44474477307813 83.361335551308,147.93107949788828 82.07164923957316,148.02597378601058 81.40755703422474,148.26320908877824 80.0601235741633,150.4457458851757 78.85705798480194,150.95578796706832 78.3277091254713,150.96764937804983 76.06594581750687,149.9594241228624 75.27673479088116,150.05431637090078 74.66076520911884,150.59994494488637 73.84268060838804,152.0944766194516 73.11121673003072,152.91290060009487 72.02364543726435,153.4703737396485 71.45579847908812,154.0752876756087 70.92644961981568,155.3562690913168 70.32972908747615,156.12722174580995 70.07949144486338,156.10350021959312 68.99192015209701,156.83886475915642 66.73015684407437,157.45561769614142 64.0256653992692,159.73282439011382 58.597433460119646,162.61483532836428 57.85634505702183,162.80459427707683 57.25,163.3145695611238 57.77934885933064,162.7571545756582 58.51081273762975,162.60297538138548 60.85919676802587,161.34581255060766" stroke="#4dd2ff" stroke-linecap="round" stroke-linejoin="round" stroke-width="0.5"><title>2025-11-23 10.7km</title><desc>1763852167000</desc></polyline><polyline fill="none" points="131.6789156626328,156.76824357156147 132.36204819276463,155.27169794955262 132.7415662651183,154.8708339381119 133.06686746992636,154.63031480582868 133.0993975903839,154.83074745389604 135.23554216872435,153.49452266282606 137.40421686752234,151.4233410464294 140.33192771091126,150.52804359890433 141.45963855425362,149.87326905044756 141.65481927717337,149.68618986724323 141.4813253012253,149.4189333201939 142.75,147.64166019202094 142.66325301211327,147.25413052651857 142.39216867473442,147.0135941615663 141.17771084338892,146.87996261247463 139.62710843374953,146.07816979037307 138.56445783138042,145.18282732524676 137.40421686752234,143.68611860318197 136.61265060247388,143.35202895779366 134.79096385545563,143.36539256378455 133.59819277114002,143.76629996183328 132.90421686752234,144.15384234261 131.4186746988562,145.83763076445757 130.88734939764254,146.14498608988652 128.26325301209,145.89108392840717 127.48253012052737,145.9979901755214 126.28975903621176,146.6795149739337 123.91506024100818,148.51025603458402 122.65722891566111,149.1249503424333 121.34518072294304,149.0714988046093 120.06566265062429,148.37662636688037 118.48253012046916,147.86883209771622 117.04036144580459,148.0425514627641 115.38132530124858,147.68174938712764 113.36445783136878,147.80201688173838 109.11385542171774,149.15167610127537 103.60542168677785,151.34316546300397 102.34759036143078,152.06474353744125 102.25,151.90439327746572 103.43192771082977,151.19617673628818 110.93554216867778,148.33653743382456 111.22831325302832,148.22963353840896 111.27168674702989,148.44344122175244 113.10421686753398,147.82874297317903 115.0777108434122,147.65502325872512 117.06204819277627,148.0425514627641 118.50421686755726,147.8955581723567 120.08734939765418,148.38998934119445 121.3885542168864,149.05813591593324 122.40783132537035,149.1249503424333 123.31867469882127,148.750789013131 127.22228915663436,146.0247167205598 128.12228915665764,145.8509940579679 130.68132530129515,146.07816979037307 131.35361445788294,145.73072435602808 132.53554216877092,144.44783906836528 133.53313253010856,143.73957284900098 134.74759036145406,143.32530174082785 136.60180722892983,143.23175642843853 137.3716867470066,143.59257360832999 139.62710843374953,146.03807999053242 141.0692771085305,146.79978360240057 142.45722891570767,147.0135941615663 142.71746987960069,147.64166019202094 141.64397590368753,148.89778112099884 141.37289156630868,149.48574751994602 141.54638554219855,149.63273861158086 140.89578313258244,150.18061270804174 137.75120481930207,151.16945149144885 134.98614457831718,153.52124732323864 131.5271084337728,155.36523266806762" stroke="#4dd2ff" stroke-linecap="round" stroke-linejoin="round" stroke-width="0.5"><title>2024-11-03 10.0km</title><desc>1730623436000</desc></polyline><polyline fill="none" points="162.81457628797216,137.39969538178775 162.61542355336132,137.21196595118454 162.58697316268808,137.09845464596583 162.2953566584183,136.893260201854 162.16377360161277,136.45230638343855 161.338712272438,135.26475966132784 161.2106855144666,134.8980091768317 161.18934772146167,134.39590408892764 161.2818114911206,133.92872160415936 161.20357291678374,133.81956592239658 161.20357291678374,133.6230848403029 161.37071896191628,132.90264480147744 161.44184493857028,132.77165411567694 161.52363981172675,132.77165411567694 161.79036222418654,131.3918558796322 162.5300723813707,130.32203828901402 163.00306012610963,129.76746695591282 163.0492920109391,129.75 164.0948438677151,130.6757366908205 164.22998322336935,130.85913445955885 164.69941466928867,132.03373079018274 164.10906906306627,132.43544245242447 163.7890021681378,132.8764467034016 163.56139904283918,133.6536486363766 163.56139904283918,134.11210238581043 164.19442023504234,135.31278622691752 164.4042418661702,135.53108797013556 164.60339460079558,136.050640661957 164.79543473775266,136.15542346689472 165.15106462102267,136.5527220961667 166.11837790352,137.22506338587118 166.5522463610978,137.8973918074007 166.7691805898794,138.36888718014234 166.8082998770551,138.8185481680557 167.0181215081684,139.36424551991513 166.93277033617778,139.7178528781078 167.4413210692437,140.0321675420564 167.79695095251373,140.04089846480565 168.1241304451396,140.21551646411172 169.6817893338157,141.32432050795614 170.51396326065878,142.00530092272675 170.64910261629848,141.99657048810332 170.88381833926542,141.77830891756093 171.09719626921287,141.70409967474188 171.62708479528374,141.78703940641572 172.09295994235436,141.96601394984827 172.61929216959106,142.39816823558795 173.41945940692676,143.2624608627193 173.57238025673723,143.3497619661939 173.59727434856177,143.44579292953495 173.81065227852378,143.61166397533088 173.8924471516657,143.75570924834392 174.2054014489404,143.9783235088944 174.46856756255147,144.2664104585965 174.78507815867488,144.41918288273155 174.83486634232395,144.56322484575867 175.07669466294465,144.81638807735726 175.12648284659372,144.76837450115272 175.10514505358879,144.8600367260551 175.2153903174185,144.99534719252915 176.39963782869745,146.17820037752972 176.39608152984874,146.66267856624472 176.3356244496972,146.87218057950304 176.15780950804765,147.2780871765608 175.64925877499627,148.0636995320383 176.95797674541245,149.82689889067842 177.00065233142232,150.18476519129035 176.90463226292923,150.8655739492351 176.96153304423206,151.12741996086697 176.9153011594317,151.57255370478742 176.9544204465783,152.30133894143364 176.8548440792656,152.46280428489627 176.66636024112813,153.32684946736845 176.16136580689636,154.16905489134297 176.1649221057305,154.33051165787037 175.92309378512437,154.39160321403688 175.70260325749405,154.60105917222972 175.3149666847312,154.8279683856199 175.14070804193034,154.84542287984368 174.82419744582148,155.07233051635194 174.42944827540487,155.16832946022987 174.24096443728195,155.28178241966816 173.61861214155215,155.37341723505597 173.10294881083246,155.36469012006637 172.67974924975715,155.28178241966816 171.96137688553426,154.76251395510553 171.29279270498955,153.92468648311115 171.04385178672965,153.78068287584392 170.62420852447394,153.2919389625349 170.40371799684362,153.2483007827541 170.21167785988655,153.10429440520238 169.8596042754507,153.04756445817475 169.38661653071176,152.6591800546048 169.18746379608638,152.58062987833546 167.84318283735774,152.80755213093653 167.38442028792633,152.79882437906417 165.32887956265768,153.16538809195117 164.44336115333135,153.45776355175258 163.9561482132558,153.54940312078907 163.35513371053094,153.80250164212703 162.52651608253655,153.99450620163043 161.70856735103007,154.31305690804948 161.3885004560725,154.50069501462713 161.71923624753254,155.08542129685156 161.68011696035683,155.37778079174313 161.72990514402045,155.5828673449796 161.52363981172675,155.76177165930494 161.07554615881236,156.39447473772452 161.11466544597351,156.69991352892976 160.1331269681541,158.18779884598553 159.99087501486065,158.61975376070768 159.1160255020368,160.08138003419663 158.81729640008416,160.7401827644826 158.34430865535978,161.56912231176466 158.2482885868667,161.62583851415184 158.16293741489062,161.865790666252 157.88198980709421,162.20608363897554 157.64016148647352,163.57594769277785 157.77174454327906,164.4222701636827 158.48300430981908,165.9185533762684 158.62169996427838,165.97526256716083 158.69993853861524,166.13230292646404 158.9488794568897,166.31987799261333 159.36496642031125,166.96111543385996 160.0228817043535,167.5848930242937 160.15446476115903,167.60234118952576 160.04777579617803,167.62415138389042 160.1900277495006,167.63723749401834 160.3998493806139,167.86842463726134 160.5883332187368,167.94257868223576 160.7163599767082,167.9207686852351 161.1786788249592,168.31770851493638 161.7227925463667,168.5096338596959 162.26690626775962,168.81932936781595 163.35157741171133,169.25551560168242 163.6040746288345,169.41690313796062 163.58629313466372,169.48233030669508 163.31601442339888,169.44307402005506 162.24201217592054,169.12029844740027 161.75124293702538,169.04614688413858 161.303149284111,168.80624369726138 160.99375128567044,168.49654807400293 160.21136554249097,167.9992846111927 159.53922506312665,167.45839356765646 158.62525626312708,166.38094872859074 158.2589574833546,165.83130828872163 158.8101838024304,166.55543596161442 159.82017267089395,167.60670322947772 160.67368439072743,168.24355526047293 161.2071292156179,168.55761503234316 162.23489957826678,169.0417850226222 165.24708468951576,169.8530819652333 165.78408581324038,170.04936067379458 166.1397156965104,170.25 165.84098659455776,170.06680761713142 165.18307131051552,169.82691138805967 164.25487731519388,169.5346719541085 162.83947037981125,169.22062090193504 161.64811027087853,168.75826286363372 161.0079764809925,168.43548100967382 160.25759742730588,167.92949268564553 159.3045093401597,167.07889246908235 158.20916929970554,165.7178893514938 157.91755279543577,165.19441259558153 157.67572447481507,164.56186779047493 157.54058511917538,163.97729903158324 157.52280362501915,163.3316446360477 157.63304888881976,162.6859783905602 157.86065201410383,162.08829029017215 160.40696197826765,157.54640145779558 161.12889064131014,156.4468358617778 161.80103112067445,155.6919554498054 162.26334996892547,155.31669094893005 163.40136559537495,154.58360455669026 163.87079704127973,154.365421131537 164.67807687628374,154.06868950062562 165.26486618367198,153.94214142574128 168.01032888247573,152.9384681489064 168.91007248713868,152.72463840075216 169.48619289802446,152.80755213093653 170.72378489178664,153.30066659199656 171.1576533493644,153.6192235845192 172.48059651510266,154.94578605351126 172.86823308788007,155.2076016799292 173.35188972912147,155.36905367783766 173.84265896801662,155.4083256733611 174.43300457423902,155.29923668863194 174.85976043414848,155.08978488928187 175.93376268161228,154.35669376637088 176.2644984730432,154.06868950062562 176.5454460808105,153.6846801433312 176.80861219443614,152.92101270801868 176.96508934308076,149.7134283273299 177.11445389404253,148.22081989606522 177.01487752672983,147.5530534983518 176.58456536797166,145.7897400686852 175.89464339445112,144.0394330592062 176.34629334619967,145.19176468457226 176.73748621778213,146.83289904714184 176.8584003780852,147.11223343445454 176.91174486058298,147.19079583091298 177.06110941154475,147.17770211035895 177.19980506603315,147.25626436045786 177.4771963749663,146.68886638619733 177.4345207890001,146.6103028678117 176.92241375708545,146.35278788189316 176.8548440792656,146.26549423811957 176.32495555319474,146.07781216981675 176.10446502557897,145.91631749485896 175.07669466294465,144.86876644929362 175.13003914544242,144.74655012666335 175.06246946760803,144.79019886210517 174.7246210785088,144.53267053930176 174.12360657578392,143.9739585369498 174.10226878279354,143.89538894919315 173.60438694623008,143.53309357755643 172.96069685752445,142.72555430760985 172.10007254002267,141.98784005131165 171.82979382872873,141.85688323913564 171.1078651657008,141.7171954348596 170.85536794859217,141.79576989310226 170.61709592680563,142.00966613921992 170.5246321571467,142.00093570567697 168.42641584589728,140.4075952610001 168.10634895095427,140.2722671270385 167.86096433151397,140.0234366171353 167.48399665523903,140.04526392536354 166.89365104901663,139.70039086988254 167.00389631283178,139.4384597049975 166.86520065835794,139.13287087777644 166.7371739004011,138.33396181398348 166.99322741634387,138.0414605093465 167.3559698972822,137.94104905220593 167.50533444824396,137.82317436670928 167.4662151610828,137.465182156433 167.3879765867605,137.31237949235947 166.58069675174193,136.77101613348714 166.9718896233535,136.1685212955308 166.71227980854746,136.02881087159403 166.45978259143885,136.4959654242448 166.31753063813085,136.58764923329363 165.76274802025,136.39554954927007 165.46046261946321,136.15105752293312 165.16173351752514,135.54855205098283 165.21863429884252,135.37391085178024 165.38222404517,135.2516614956803 165.26130988483783,134.9111074743596 165.2115217011742,134.32167924956957" stroke="red" stroke-linecap="round" stroke-linejoin="round" stroke-width="0.5"><title>2024-10-27 42.8km</title><desc>1729986801000</desc></polyline><polyline fill="none" points="42.67917197447969,202.6793802066677 43.0196815286763,202.17076828994323 45.454840764345136,200.82293434468738 48.055095541407354,198.59769749869884 50.34579617832787,198.0127699752993 51.38796178344637,197.42783906986006 51.60464968153974,197.17352022995328 51.43955414008815,197.03364459544537 51.58401273883646,196.7538927463247 52.688089172006585,195.29154094330443 52.46108280256158,194.79560814035358 51.21254777070135,194.61758038727567 49.706050955399405,193.7528697012458 48.777388535032514,193.0280329900852 48.73611464968417,192.760986576679 47.611401273927186,191.47661064388376 46.83751592360204,191.13325985967822 44.732547770719975,191.24771025059454 43.79356687894324,191.70551051919028 41.99815286626108,193.4985416221316 41.42031847132603,193.84188437785633 38.87165605096379,193.62570574163692 37.88108280254528,193.89274987222598 34.8680891719996,196.0926580275409 33.53700636944268,196.7411767347876 32.42261146497913,196.70302869064471 29.636624203820247,195.53314835117635 28.233312101918273,195.68574220616574 26.272802547784522,195.31697332920157 24.260700637008995,195.5458645145336 21.918407643330283,196.43599197867297 20.649235668824986,196.70302869064471 15.634458598739002,198.8138655101793 14.024777070095297,199.70396422011254 13.973184713337105,199.9074142542231 13.529490445856936,200.18715738305764 12.600828025490046,202.51408161419386 12.25,202.83196328308986 13.219936305773444,200.25073525904008 13.787452229298651,199.60223904965096 13.973184713337105,199.94556109008408 14.09700636944035,199.67853293708322 15.469363057345618,198.8138655101793 23.961464968160726,195.58401299508841 26.39662420382956,195.36783808182372 28.222993630624842,195.73660677337466 29.636624203820247,195.5458645145336 31.370127388567198,196.13080630190234 32.30910828028573,196.63944858503964 33.392547770694364,196.7538927463247 34.197388535074424,196.42327592719812 38.15968152869027,193.76558608842606 38.83038216561545,193.65113854636002 40.81152866239427,193.9181826097265 41.554458598722704,193.81645162110362 43.78324840764981,191.70551051919028 44.68095541401999,191.31129374510783 46.610509554157034,191.18412671610713 47.43598726118216,191.37487719970522 47.838407643313985,191.65464392499416 49.7576433121576,193.80373524037714 51.264140127343126,194.5412826828906 52.62617834395496,194.8464731550921 52.75,195.32968951977819 51.57369426754303,196.81747277997056 51.43955414008815,197.10994042005768 51.64592356682988,197.24981594902783 50.418025477731135,198.06363337246876 48.01382165605901,198.71213944465853 45.134968152910005,201.1153904054081 39.38757961784722,204.2179156893617 38.61369426752208,204.3577813912998 36.90082802553661,205.99801019418373 36.08566878980491,206.36674014032906 35.68324840761488,206.34131053201418 36.281719745195005,206.25230685256975 37.272292993671726,205.64199379865022 38.56210191082209,204.3323512780844 39.82095541403396,203.92546859687718 44.89764331211336,201.22982950336882 47.34312101913383,199.169905933908 47.19866242038552,199.58952339612006 47.39471337583382,199.1063273787222 48.2098726114491,198.58498171895917 50.39738853502786,198.0127699752993 51.53242038213648,197.32611161059322 50.76885350316297,197.8983272381738 47.96222929941723,198.73757097063935 45.465159235696774,200.9119428004924 40.27496815286577,203.77288716959447 38.48987261147704,204.47221682179224 37.602484076458495,205.46398513113672 36.80796178343007,206.03615473369427 35.96184713381808,206.36674014032906 37.25165605096845,205.6674235827304 38.45891719748033,204.39592654916487 39.75904458598234,203.92546859687718 44.96987261145841,201.15353678576503 46.84783439489547,199.64038600055937 45.269108280248474,201.0263821285771 44.195987261191476,201.6112922283428" stroke="#4dd2ff" stroke-linecap="round" stroke-linejoin="round" stroke-width="0.5"><title>2024-10-13 16.0km</title><desc>1728810741000</desc></polyline><polyline fill="none" points="87.59148204734083,202.69008880898036 88.96313980140258,201.71150686418696 90.67513368983055,200.9108418653559 93.07811306341318,198.83925062127673 95.39858670742251,198.24191274736222 96.52272727276431,197.64457134457916 96.79087089380482,197.41580136214907 96.47116119175917,197.13619290291535 96.5330404889537,196.90742177024367 97.67780748661608,195.38226765765285 97.48185637890128,194.79761914794653 96.22364400303923,194.619681973978 95.07887700531865,194.09857844876387 93.9959893047926,193.14533334256703 92.5933919022209,191.51844093574618 91.24236058059614,191.14984448723408 89.76757066464052,191.34049799046625 88.7568754774984,191.7980649312958 86.56016042781994,193.90793014651717 83.84778456838103,193.7172814847654 83.07429335371125,193.86980044290976 80.38254392665112,195.801687332023 78.6292971734074,196.7549073942646 77.55672268907074,196.76761693436129 76.12318563793087,196.05588022728625 74.56588999234373,195.59833255564445 73.32830404886045,195.78897767047602 71.47192513372283,195.39497737029888 69.24427043547621,195.58562286855886 68.20263559970772,195.91607421395747 61.09682964091189,198.67402986026718 59.271390374342445,199.60180448145547 58.44633307872573,200.3389344132811 57.48720397253055,202.70279760312405 57.25,202.86801178148744 58.22975553863216,200.28809803872718 58.82792207796592,199.60180448145547 58.95168067229679,199.8941152697662 59.271390374342445,199.55096773631522 61.375286478258204,198.53422746698925 69.35771581361769,195.57291317983618 71.502864782291,195.36955794336245 73.2767379679135,195.76355834260175 74.64839572197525,195.59833255564445 76.41195569135016,196.1448475896541 77.46390374330804,196.72948830921086 78.39209320093505,196.79303600981075 79.41310160426656,196.42445879034494 81.93983957223827,194.50529362533416 83.16711229947396,193.81896081577725 84.02310924371704,193.67915170930064 86.34358288772637,193.8952202468936 87.04488158901222,193.50121256689454 88.2927807487431,192.07768815346208 89.20034377387492,191.54386133093067 90.12853323150193,191.26423663231253 92.26336898392765,191.31507754413178 94.934491978609,193.90793014651717 96.13082505733473,194.55613290736073 97.60561497329036,194.924716937654 97.73968678381061,195.42039679083973 96.80118411005242,196.538844967763 96.50210084032733,197.14890239513625 96.55366692127427,197.403091903514 95.49140565318521,198.05127225753677 92.98529411770869,198.8011227773386 90.05634071811801,201.19043988692283 84.23968678381061,204.29138429200248 83.47650878533022,204.48201301764493 82.48644003056688,205.6130693985324 81.17666157375788,206.35015551276592 82.45550038199872,205.60036097017291 83.38368983956752,204.4438873012332 84.30156608100515,204.24054990446893 90.46886936592637,200.88542382501328 92.8821619556984,198.75028562967054 95.61516424757428,197.9368877911038 96.64648586709518,197.27599722918967 96.440221543191,197.13619290291535 96.60523300227942,196.76761693436129 97.70874713524245,195.42039679083973 97.59530175710097,194.89929739246872 96.26489686785499,194.63239178249933 94.74885408714181,193.8443806325522 92.76871657755692,191.64554284779297 92.0364782276447,191.27694686265022 91.01546982431319,191.22610593167337 89.36535523302155,191.49302053415158 88.36497326206882,192.06497802379454 87.17895339953247,193.41224287822115 86.25076394196367,193.94605983574002 83.81684491981287,193.7172814847654 82.68239113828167,194.04773893660604 83.62089381209807,193.66644178092974 86.36420932010515,193.85709053856408 86.89018334605498,193.5774722376882 88.3752864782582,192.02684762512945 89.09721161192283,191.54386133093067 90.24197860964341,191.20068545658432 92.0261650114553,191.16255473197816 92.84090909094084,191.65825303019665 94.23319327732315,193.37411298770166 95.17169595108135,194.0858685731073 96.28552330023376,194.60697216384142 97.39935064938618,194.7086506001142 97.62624140566913,194.87387784095336 97.75,195.4076870813442 96.7186783804791,196.56426410072163 96.49178762413794,197.09806441675755 96.69805194810033,197.27599722918967 95.32639419403858,198.07669101031206 93.00592055002926,198.66132055978233 90.5307486631209,200.86000577836967 84.34281894582091,204.2024240970277 83.57964094734052,204.38034440869524 83.16711229947396,204.72347555429587 83.6002673797193,204.34221865396103 84.13655462191673,204.2786756975038" stroke="#4dd2ff" stroke-linecap="round" stroke-linejoin="round" stroke-width="0.5"><title>2024-10-06 18.0km</title><desc>1728199446000</desc></polyline><polyline fill="none" points="132.19180175388465,202.9413964456253 133.70934095134726,201.8405890011054 135.39908317831578,200.96523994554445 137.56238373642555,199.0155727698948 140.54364868457196,198.1534635532371 141.5768668615492,197.51682453350077 141.6844937549322,197.41071765679226 141.36161307466682,197.02607933422405 142.61008503852645,195.31508497757022 142.4163566303323,194.7182199536619 141.10330853040796,194.4794729987334 139.60729471163359,193.71017358022073 138.56331384531222,192.79496524202114 137.30407919210847,191.29612864309456 136.4323013552348,190.95126057171 135.5712862078217,191.0441097787625 134.97933829389513,190.88493965951784 133.3434095136472,191.45529814199108 131.62137921870453,193.36531339935755 131.02943130477797,193.72343741076475 130.67426255648024,193.81628417825414 128.43562317296164,193.49795206382987 127.64994685089914,193.60406287534715 125.72342545836,194.77127475918678 123.99063247407321,196.11089975744108 122.74216051021358,196.72102035721764 121.5797900611069,196.7077569034518 119.08284613338765,195.58035723776993 118.17878022853984,195.50077562972 117.2639516342897,195.71299311776966 115.54192133934703,195.23550316943874 114.84234653197927,195.22223952893546 112.58218176988885,195.60688442711398 109.42871379223652,196.74754725980893 103.61686154664494,199.06862541472947 102.32533882540883,199.82462270517863 102.25,200.063357566396 102.41144034010358,199.5195718187606 103.65991230402142,198.7503091457329 112.72209673130419,195.36813948296913 114.13200903538382,195.20897588676598 114.76700770662865,195.34161223359843 115.75717512622941,195.1293939986208 117.02717246877728,195.47424841373868 118.52318628749344,195.28855771485541 120.32055540790316,195.81910170173796 121.70894233323634,196.5088048965772 122.7529231995577,196.44248747758684 127.24096465582261,193.45816048201232 127.94053946319036,193.29899400456634 130.68502524582436,193.5510074829508 131.36307467450388,193.12656338306988 133.16044379485538,191.3093927771697 134.49501727340976,190.818618705649 135.62509965454228,190.88493965951784 136.5399282487342,190.67271246034943 137.7561121446197,191.29612864309456 138.59560191334458,192.37051810076082 138.42339888383867,192.5562139351823 139.82254849851597,193.8826032479119 141.13559659844032,194.5060004648476 141.9643236778793,194.63863769536692 142.42711931967642,195.16918495017308 142.67466117459117,195.15592130130244 141.41542652138742,196.98628908286628 141.5230534147704,197.30461067335273 140.48983523779316,198.0606206020675 137.68077331915265,198.88294104117813 134.7425591283245,201.37638964869257 128.60782620246755,204.61247977579478 127.89748870587209,204.74510430351074 126.64901674195426,206.07134041403333 125.28215519530931,206.82728753965057 125.0991894765175,206.78750098379533 125.5512224289123,206.68140342825063 126.68130480998661,205.96524213852535 127.1763885197579,205.27560074773646 127.95130215253448,204.65226715161407 129.26435025245883,204.227867702808 133.3864602710819,202.05279373930534 135.62509965454228,200.5938775464383 135.77577730535995,200.6601923564449 136.95967313309666,199.7583073701171 137.16416423069313,199.24104632616945 137.49780760030262,198.96252009843738 138.16509433963802,198.59115065115475 140.42525910172844,198.0473573166455 141.53381610417273,197.26482052706706 141.37237576395273,197.10565979182866 141.44771458941977,196.86691823888395 142.63161041715648,195.36813948296913 142.5777969704941,194.9039116562417 142.25491629022872,194.6784288320414 141.06025777303148,194.51926419539814 140.01627690671012,194.00197746819322 138.80009301088285,193.02045209134667 137.58390911505558,191.52161869564588 137.01348657981725,191.13695890408417 135.3560324208811,190.9777889249599 133.94612011691788,191.2298079477041 133.24654530955013,191.561411007875 131.48146425723098,193.41836888514808 130.80341482860968,193.80302035938803 128.39257241564337,193.53774363068806 127.0687616263167,193.80302035938803 123.38792187086074,196.4690144501801 122.72063513152534,196.74754725980893 121.51521392504219,196.72102035721764 118.79225352109643,195.5405664412683 117.1563247408485,195.72625669661647 114.99302418279694,195.3018213470641 112.3884533616365,195.6732023712757 105.08058729738696,198.51157131385844 112.60370714851888,195.5405664412683 115.11141376564046,195.20897588676598 117.22090087697143,195.71299311776966 118.6092878022464,195.46098480321234 120.1160643104231,195.92521017897525 121.78428115864517,196.72102035721764 122.87131278234301,196.64143960952788 127.32706617057556,193.63059056158818 127.89748870587209,193.49795206382987 130.8141775179538,193.71017358022073 131.56756577198394,193.23267456812027 132.81603773590177,191.86648490274092 133.54790061118547,191.3624492968229 134.49501727340976,191.0441097787625 136.51840287004597,190.88493965951784 137.29331650276436,191.17675136134494 138.90771990432404,193.03371600861283 140.1669545575278,194.01524126209551 141.04949508368736,194.45294552593987 142.53474621311761,194.7314836575315 142.75,195.1957122429012 141.77059526974335,196.2435349705338 141.36161307466682,197.11892319561593 141.44771458941977,197.35766417840932 141.0710204623756,197.67598464855837 139.90865001326893,198.21977989686275 137.69153600843856,198.80336192392133 134.86094871116802,201.21723511490563 133.52637523249723,201.93342862659483" stroke="#ffac00" stroke-linecap="round" stroke-linejoin="round" stroke-width="0.5"><title>2024-09-22 20.8km</title><desc>1726992504000</desc></polyline><polyline fill="none" points="176.76985702937236,202.77389305555698 177.64912629075116,202.08678883760876 177.99225575855235,202.04714807261917 179.76151707704412,200.96362804264209 182.44221604452468,198.67762841992953 184.77978554414585,198.04335381942656 186.08796664018882,197.38264704128233 186.28097696584882,197.184434198105 185.97001588559942,196.9201498258626 186.02362986502703,196.6955075870501 187.75,194.36977149159065 185.86278792697703,194.35655693495937 184.72617156471824,193.80154405592475 183.06413820496527,192.42721383876778 182.0133042097441,191.11894049627153 181.3699364575441,190.7621358496981 178.82863383641234,190.93393083069532 177.04864972201176,192.09684331928293 176.00853852264117,193.33903108492814 175.2686656076694,193.64296840938187 173.03832406672882,193.31260171087342 172.05182684672764,193.51082185455743 168.0093328038347,196.2726503059239 167.2051231136429,196.57657914865558 165.86477362993173,196.37836478568352 165.17851469427114,195.86300569278683 163.39853057987057,195.21549966152088 161.87589356635,195.4930027347218 160.4175933280494,195.03049720572744 159.43109610804822,194.99085378000018 156.67533756955527,195.585503596325 148.84769658464938,198.61155832759687 147.3679507545894,199.4440384565969 147.25,199.2458295000033 148.3008339952794,198.5587022238251 151.93586179509293,197.11836316733388 156.19281175540527,195.54586037985428 156.20353455125587,195.7308619286996 157.73689436062705,195.22871411018423 160.3747021445888,195.01728273215122 161.87589356635,195.42693064087507 163.60226370138116,195.29478632859536 164.33141382050235,195.45335948337015 165.96127879270352,196.35193617570621 167.2480142971035,196.4972934483303 168.0951151708141,196.18015004893823 171.97676727559883,193.41831916730735 172.84531374112703,193.27295763724396 174.9469817315694,193.5768951527789 175.59034948371118,193.45796318611974 176.05142970615998,193.22009884918225 178.04586973792175,191.19823025328515 179.24682287528412,190.80178087019158 181.1554805401247,190.7357058276466 181.7130659254035,190.84142587579845 182.2063145354041,191.23787510934199 183.66461477364646,192.99544870339741 184.61894360603765,193.74868553366105 185.66977760131704,194.25084042200615 186.58121525024762,194.38298604655574 187.0530182684888,194.9379958557547 187.3103653693688,194.8587089195862 187.3103653693688,195.10978401236935 187.0530182684888,195.21549966152088 186.07724384433823,196.7219361106836 185.99146147741703,196.94657829299103 186.18447180301882,197.06550631281425 185.04785544081824,197.85835634011892 182.42077045276528,198.5719162522655 179.06453534553293,201.3203980661201 177.71346306597115,201.8885848633072 173.31711675931,204.3330744325649 172.58796664018882,204.47842067085003 171.37629070691764,205.77331465254974 169.99305003974587,206.55288599189225 171.34412231936585,205.70724901909853 172.50218427326763,204.45199409701308 173.5208498808788,204.17451467068167 179.70790309773292,200.83149068969942 182.3135424940847,198.5719162522655 184.92990468628705,197.8451422219805 185.95929308974883,197.2108625987894 186.15230341540882,197.03907787559 185.97001588559942,196.90693558983185 186.13085782370763,196.5237220217532 187.2674741859082,195.01728273215122 187.07446386019,194.5283460417122 185.74483717238763,194.3169132550538 184.42593328043586,193.6561830557548 183.10702938842587,192.4668582313243 182.13125496427529,191.19823025328515 181.6701747419429,190.90750085188483 180.8552422557841,190.7357058276466 179.27899126289412,190.84142587579845 177.85285941226175,191.43609916542482 176.20154884830117,193.18045474070823 175.42950754566118,193.59010980737366 172.95254169974942,193.32581639873388 172.05182684672764,193.4976071899364 167.4303018268547,196.55015058853314 166.34729944402352,196.5237220217532 164.99622716446174,195.83657695329748 163.24841143767117,195.28157188824844 161.77938840352,195.4930027347218 160.32108816527762,195.0965695487248 159.55976965854643,195.10978401236935 157.80123113584705,195.32121520434157 156.36437648930587,195.77050507536478 156.31076250999467,195.53264597107773 157.24364575062646,195.1494273932476 160.0208498808788,194.871923413084 160.28891977766762,195.0965695487248 161.83300238283118,195.4665739021657 163.33419380465057,195.28157188824844 164.84610802226234,195.7572906948044 166.27223987295292,196.47086486824264 167.1729547260329,196.53693630595808 168.1058379666647,196.18015004893823 171.53713264502585,193.80154405592475 172.77025416999822,195.7308619286996 173.00615567911882,195.74407631260692 173.32783955521882,196.3255075590787 174.1427720413194,196.4972934483303 174.4859015091206,197.1580057907704 175.6225178713794,198.32084942801157 175.72974583005998,198.9154804085556 176.30877680703998,199.3779688459399 175.87986497220118,199.69510259853996 176.64118347899057,202.496409200372 173.23133439238882,204.37271433563728 172.57724384439643,204.50484723806585 170.82942811760586,206.15649450773344 169.61775218427647,206.61895109392208 169.64992057188647,206.7642941723534 170.61497220018646,206.42075566319545 172.22339158062823,205.16550925933552 171.05460683087585,206.26219904958998 169.57486100081587,206.7378681730479 169.60702938842587,206.5793120376693 170.35762509930646,206.3943295775316 171.39773629867705,205.69403588746354 172.57724384439643,204.4123542238085 173.27422557590762,204.306647822159 176.29805401113117,202.70782553739264" stroke="#4dd2ff" stroke-linecap="round" stroke-linejoin="round" stroke-width="0.5"><title>2024-08-22 19.8km</title><desc>1724317734000</desc></polyline><polyline fill="none" points="41.800160085374955,246.93204684912052 41.97305229457561,246.48818747994665 45.07070437568473,244.90803680605313 48.91755602991907,241.58788735448616 52.24573105660966,240.77115413974389 52.75,240.48707191462745 52.620330843143165,240.32727541198255 48.744663820718415,241.5168672623986 45.113927428028546,244.6417175362003 43.32737459981581,245.65372809056134 42.6213980789762,245.77800958859734 37.47785485594068,248.8139950822224 35.547225186775904,249.45314160925045 33.89034151553642,251.17527202617202 32.26227321237093,252.16948209026305 30.8070971184643,252.16948209026305 30.677427961607464,251.76114666066132 29.640074706519954,251.69013168281526 28.948505869833753,252.59556997597974 28.213713980803732,252.9506422324339 27.291622198477853,252.71984536723176 24.309231590188574,252.8973814508645 20.159818569896743,253.69629106619686 17.16302027751226,253.98034672970243 15.693436499510426,254.2999086684431 14.929829242289998,254.72599012905266 14.483191035222262,254.45968936674763 12.25,254.35316892131232 12.494930629676674,254.0336071030033 14.915421558194794,254.26440182204533 14.929829242289998,254.6904833897279 15.563767342595384,254.24664839552133 17.321504802559502,253.82056548925175 23.934631803655066,253.05716373537143 24.352454642474186,252.82636704419565 27.032283884764183,252.6310772417928 28.098452507983893,252.86187425194657 28.948505869833753,252.47129447544285 29.712113126995973,251.58360914918012 30.73505869798828,251.70788543064555 30.893543223035522,252.08071361901239 32.43516542157158,251.95643766554713 33.77508004271658,251.21077964891447 35.547225186775904,249.3643714312202 36.65661686233943,249.09806056233356 44.58084311638959,244.92579140620364 48.47091782290954,241.57013233480393 52.57710779091576,240.2740098709328 48.629402347956784,241.58788735448616 44.753735325532034,244.80150915839477 36.627801494149026,249.20458497015352 35.403148345823865,249.52415771156666 34.279348986106925,250.8201953076641 31.988527214562055,252.2760041821748 34.020010672393255,251.0154876132583 35.33110992523143,249.47089563815098 37.232924226264004,248.8317491914786 41.267075773794204,246.70124015120382 42.534951974404976,245.79576407937566 44.724919957341626,244.90803680605313 48.38447171828011,241.71217242970306 52.26013874064665,240.451561596361 48.64381003199378,241.57013233480393 44.91221985057928,244.78375454260095 42.80869797221385,245.9200454524689 42.448505869775545,245.83127305428206 41.079775880498346,246.84327508682327 36.41168623266276,249.3111092975887 35.44637139810948,249.48864966488327 36.80069370334968,248.99153607421613 36.771878335101064,248.70747037994443 38.2270544290659,247.4646762511984 38.399946638266556,246.6302226298285" stroke="#4dd2ff" stroke-linecap="round" stroke-linejoin="round" stroke-width="0.5"><title>2024-07-03 11.2km</title><desc>1719998343000</desc></polyline><polyline fill="none" points="84.11332958377898,247.66863169174758 84.47778402705444,247.12595631176373 88.60826771648135,244.89909524876566 92.02502812154125,241.90494384431804 95.97328458941774,240.78212154375797 97.3551743531716,239.95871314145916 97.75,239.621862937056 97.55258717667311,239.4908654295141 95.82142857147846,240.59498367030756 91.97947131615365,241.71780738227244 88.09195725532481,245.01137475513679 80.10433070868021,249.29664596483053 78.17575928010046,249.9703018367145 76.91535433073295,251.42987910359807 74.88048368954333,252.73974395697587 73.36192350956844,252.79588076462096 73.21006749157095,252.36549803176604 72.07114735658979,252.328073387529 71.29668166482588,253.24497446394525 70.49184476939263,253.60050601539842 69.20106861647218,253.35724767716601 66.49803149601212,253.52565733826486 57.325928008998744,255.09747165722365 57.25,255.30330325613613 57.766310461214744,255.17231954430463 59.81636670412263,255.50913457047136 60.651574803108815,254.7606556998362 61.54752530931728,254.5922474355175 61.71456692914944,254.3115665716614 66.54358830145793,253.43209643894807 69.21625421824865,253.2636866720568 70.47665916761616,253.52565733826486 71.28149606304942,253.20755004076636 72.32930258719716,252.197087058521 73.24043869512388,252.309361061838 73.483408324013,252.7023194067733 75.03233970754081,252.62747027815203 76.58127109106863,251.71056539933488 77.20388076495146,250.7562298351404 78.34280089993263,249.78317551132932 79.46653543313732,249.5211982607725 87.78824521932984,245.17979385587387 91.75168728915742,241.81137564270466 92.84505061869277,241.24996519809065 95.76068616425619,240.48270083342504 97.40073115867563,239.50957936620398 95.47215973009588,240.7259802064218 92.11614173237467,241.62423906305048 88.04640044993721,245.06751447654096 80.0587739032926,249.39020946265373 78.22131608548807,250.06386491112062 77.02165354328463,251.44859153979633 75.74606299214065,252.42163498049194 74.19713160849642,252.87072980853554 76.3079302588012,251.87897692278784 78.38835770537844,249.8018881544267 79.46653543313732,249.57733628182905 88.48678290215321,244.7493891085469 91.23537682794267,242.24178888325696 87.94010123738553,245.1236541768012 81.78993250848725,248.36100775338127" stroke="#4dd2ff" stroke-linecap="round" stroke-linejoin="round" stroke-width="0.5"><title>2024-06-26 10.0km</title><desc>1719394224000</desc></polyline></svg>