<?xml version="1.0" encoding="utf-8" ?>
<svg baseProfile="full" height="300mm" version="1.1" viewBox="0,0,200,300" width="200mm" xmlns="http://www.w3.org/2000/svg" xmlns:ev="http://www.w3.org/2001/xml-events" xmlns:xlink="http://www.w3.org/1999/xlink"><defs /><rect fill="#222222" height="300" width="200" x="0" y="0" /><text fill="#FFFFFF" style="font-size:12px; font-family:Arial; font-weight:bold;" x="10" y="20">Over 10km Runs</text><text fill="#FFFFFF" style="font-size:4px; font-family:Arial" x="10" y="280">Runner</text><text fill="#FFFFFF" style="font-size:9px; font-family:Arial" x="10" y="290">jianbo</text><text fill="#FFFFFF" style="font-size:4px; font-family:Arial" x="65" y="280">SPECIAL TRACKS</text><rect fill="yellow" height="2.6" width="2.6" x="65" y="283" /><text fill="#FFFFFF" style="font-size:3px; font-family:Arial" x="70" y="285.5">Over 20.0 km</text><rect fill="red" height="2.6" width="2.6" x="65" y="287" /><text fill="#FFFFFF" style="font-size:3px; font-family:Arial" x="70" y="289.5">Over 40.0 km</text><text fill="#FFFFFF" style="font-size:4px; font-family:Arial" x="120" y="280">STATISTICS</text><text fill="#FFFFFF" style="font-size:3px; font-family:Arial" x="120" y="285">Number: 13</text><text fill="#FFFFFF" style="font-size:3px; font-family:Arial" x="120" y="290">Weekly: 1.0</text><text fill="#FFFFFF" style="font-size:3px; font-family:Arial" x="141" y="285">Total: 212.1 km</text><text fill="#FFFFFF" style="font-size:3px; font-family:Arial" x="141" y="290">Avg: 16.3 km</text><text fill="#FFFFFF" style="font-size:3px; font-family:Arial" x="167" y="285">Min: 10.0 km</text><text fill="#FFFFFF" style="font-size:3px; font-family:Arial" x="167" y="290">Max: 42.8 km</text><polyline fill="none" points="17.938461538462434,71.33112477349641 18.19606440071948,70.87612736130541 19.95635062607471,70.05077694264764 20.634704830066767,69.57460955904389 22.154561717354227,68.12492783272319 22.875849731673952,67.7863124462383 24.404293381085154,67.41595030787721 25.41753130586585,66.78103999411542 25.649373881926294,66.79162187190377 26.216100178891793,65.97681338927214 26.765652951668017,64.77045907622232 28.276923076889943,63.70165704003011 29.667978533077985,61.638089962885715 30.457960643980186,61.22537047680089 30.62969588546548,60.92905780295405 31.11914132378297,61.01371867333364 32.15813953487668,61.51109956730215 32.34704830055125,61.64867248718656 32.17531305900775,61.90265267164068 32.70769230771111,62.14604962930753 33.231484794290736,62.16721454888466 34.29624329158105,61.75449765716621 34.73416815744713,61.15129240613169 35.13774597493466,60.1565234269292 35.60143112699734,59.690882844050066 37.189982110925484,59.47922718208429 37.979964221827686,59.013582852283434 38.23756708408473,58.23044794276939 38.51234347047284,53.98657663094491 38.85581395350164,53.20339494445943 39.58568872982869,52.420205969625385 40.91663685149979,51.880436352526885 42.29051878355676,52.282617964614474 42.73703041143017,52.5154590720922 42.66833631484769,52.684797654728754 42.805724508012645,52.50487539938331 43.621466905169655,52.57896108052228 44.0765652951668,52.388454911524605 43.758855098392814,52.092111124802614 44.6690518783289,51.18190582647367 44.815026833617594,50.8326383891108 45.871198568842374,50.29285858925141 49.864042933797464,49.41438602224662 52.68908765655942,49.55197871674318 53.27298747765599,49.34029755512165 53.97710196778644,47.57273906892806 54.49230769230053,45.21240846721048 54.183184257592075,43.021369683636294 54.77567084081238,41.4759650203996 54.76708407874685,41.28543371282285 54.65545617172029,41.60298565240373 54.732737030426506,41.09490197377454 54.457960644038394,39.051951210836705 54.67262969590956,38.617950100495364 54.595348837203346,37.919309463912214 54.998926654749084,34.87062787911418 55.350983899785206,33.87554816827469 55.55706618959084,33.684999646829965 55.59999999997672,33.86496215064108 55.42826475849142,33.90730621323746 55.14490161003778,34.404847352161596 54.56958855094854,38.46975408664002 54.732737030426506,40.50213380406058 54.646869409654755,41.57123051238159 54.732737030426506,41.26426354090654 54.75849731662311,41.518305252357095 54.23470483004348,43.14838798264827 54.51806797849713,45.222993057148415 53.99427549197571,47.72091905043635 53.204293381015304,49.36146569526318 52.671914132428356,49.62606699751632 49.76958855096018,49.477890370748355 46.042933810385875,50.282274637007504 44.77209302323172,50.99139649488643 43.76744186045835,52.113278572724084 44.06797853310127,52.388454911524605 43.71592128800694,52.589544743961596 42.728443649364635,52.52604274350597 42.65974955278216,52.75888317748468 42.65974955278216,52.40962228493299 40.9423971377546,51.89102010377974 39.688729874789715,52.39903859888 38.90733452595305,53.23514569514373 38.55527728080051,54.060661007744784 38.280500894470606,58.209282033276395 37.98855098389322,59.04533141117281 37.267262969573494,59.46864438501507 35.567084078677,59.76496219998808 35.172093023255,60.19885426129622 34.6053667262895,61.37352642260521 34.012880143127404,61.91323516268312 34.09874776384095,61.97673008107813 32.88801431126194,62.22012682458444 30.835778175329324,61.25711820140714 30.03720930230338,61.405274091303 29.693738819332793,61.680420052143745 28.276923076889943,63.76515060944803 26.88586762076011,64.68580198406562 26.18175313057145,66.1355429329924 25.70089445443591,66.75987623450055 25.408944543800317,66.75987623450055 24.833631484769285,67.24664135903731 24.1466905187699,67.5429317960079 22.360644007159863,68.01911067076435 21.94847942754859,68.32598007402703 21.768157423939556,68.73866474928218 20.033631484780926,70.13542864002375 16.659033989242744,71.9025133896721 14.469409660086967,72.74900791556865 13.602146690536756,73.72246609938884 13.078354203898925,74.0822195365181 12.400000000023283,74.31500035317003 13.567799642216414,73.680142064557 14.417889087635558,72.73842678654182 16.032200357760303,72.0718129757006 19.8790697674267,70.0190325342046 20.514490160974674,69.54286497103021 19.836135957040824,70.10368426346395 17.71520572452573,71.1935676756766" stroke="#4dd2ff" stroke-linecap="round" stroke-linejoin="round" stroke-width="0.5"><title>2025-12-28 16.0km</title><desc>1766878702000</desc></polyline><polyline fill="none" points="80.14076561451657,70.31178478766378 82.90664875757648,68.72676961356046 85.024580255209,66.86762030641694 87.86783075891435,66.00953910036333 87.86783075891435,65.818853333265 88.5447951645474,65.24679373113759 88.86393552721711,65.25871167471632 90.15016789792571,62.9466025736474 91.88126259233104,61.71901657880517 93.29321692412486,59.51408919754613 93.62202820688253,59.23995950654353 94.80188045668183,59.07309756742325 96.74573539290577,60.05042760470678 97.34533243789338,60.08618339062377 98.5638683680445,59.59751981576119 99.04741437203484,58.95391028825543 99.49227669578977,57.881218032453035 100.00483545998577,57.34486735283281 100.7494963062345,57.13032623131585 101.74560107453726,57.09456933050387 102.73203492275206,56.558214200158545 103.0028206850402,55.688120534221525 103.33163196779788,50.824984215818404 103.65077233040938,50.06211666415038 104.82095366017893,48.965483801744995 106.07817327062367,48.48868294752174 108.02202820690582,49.08468364053988 107.96400268637808,49.549561579442525 108.109066487581,49.191963367266 108.93109469441697,49.32308286838088 109.55970449966844,49.096603616155335 109.62740094022593,48.97740379234892 109.24056413699873,48.75092371419305 110.32370718603488,47.57083455040993 111.81302887841593,46.6648975462449 116.0488918737392,45.78279266891332 119.12424445938086,45.91391688637668 119.99462726665661,45.54438453599141 120.63290799193783,44.0543201178225 121.30020147748291,40.99067407257098 120.99073203490116,38.53491740336176 121.59999999997672,36.877841749970685 121.00040295504732,38.58260260474344 121.35822699801065,40.27541170818586 121.32921423774678,41.00259506625298 120.73928811278893,43.82782827516348 119.86890530557139,45.68742948772706 119.19194089993834,45.91391688637668 116.09724647417897,45.80663344921777 111.87105439894367,46.676817826213664 110.48811282741372,47.38011169019592 109.23089321696898,48.762843731783505 109.5693754197564,49.096603616155335 108.9891202149447,49.34692275820271 108.07038280728739,49.25156316299399 107.99301544658374,49.41844239161583 107.97367360640783,49.08468364053988 106.02014775015414,48.56020322856784 104.66621893888805,49.060843684776046 103.6894560107612,50.07403651687491 103.36064472806174,50.884582984712324 103.03183344524587,55.64044393817312 102.71269308257615,56.570133236011316 101.83263935527066,57.08265036058583 100.63344526529545,57.166083118609095 99.96615177975036,57.39254309167882 98.5638683680445,59.60943846948794 97.45171255874448,60.074264796829084 96.88112827402074,60.11002057375299 94.66648757556686,59.10885372199118 93.58334452653071,59.28763429238461 93.02243116189493,59.919322940928396 92.12303559435531,61.504485355864745 91.6975151108345,61.94546567637008 90.22753525857115,62.839338411758945 89.47320349229267,64.47212418488925 88.58347884489922,65.54474187127926 87.71309603756526,66.10488184003043 85.20832773670554,66.80803158468916 82.60685023508267,69.00087187672762 78.40000000002328,71.12215825002204" stroke="#4dd2ff" stroke-linecap="round" stroke-linejoin="round" stroke-width="0.5"><title>2025-12-21 12.2km</title><desc>1766291458000</desc></polyline><polyline fill="none" points="153.99352008104324,61.67247217085969 154.21221734723076,61.313142478786176 157.88633142085746,59.31884627068939 161.16679041512543,56.39023474525311 164.69510631117737,55.45594114402775 166.35720553493593,54.53960879576334 167.71312858595047,52.94050494146359 168.63165710429894,50.766413703007856 170.03131960856263,49.70630763459485 170.03131960856263,49.293043816956924 171.12480593996588,48.520416952698724 172.02875464060344,47.442325976269785 173.35551805607975,44.89081160140631 174.39068511652295,44.333784800139256 175.16341545735486,44.13612960683531 175.2946338171023,44.333784800139256 175.04677691531833,44.72909436664486 175.97988525149412,44.81893729744479 178.968747890729,46.18454289251531 179.61025987181347,46.27438490842178 181.52021599729778,45.50174172598054 182.26378670276608,44.58534555985534 183.06567667907802,42.73456675861962 183.85298683767905,42.015811248420505 186.47735403309343,41.67440111482574 187.60000000003492,41.045485575770726 186.27323658461682,41.74627700021665 183.75092811346985,42.069718037120765 183.00735740811797,42.89628625025216 182.22004724945873,44.693157178509864 181.6222747216234,45.447836231804104 180.32467094162712,46.07673239886935 178.95416807290167,46.27438490842178 175.7757678029011,44.78300013190892 174.87181910226354,44.78300013190892 173.66169422882376,45.34002518244961 171.6205197435338,48.68212989780295 169.38980762741994,50.10160234211071 168.79203509964282,50.74844586903055 167.96098548773443,52.6530236996623 166.896658791753,54.12635895211133 166.40094498818507,53.98261959597585 165.87607154913712,54.647412906357204 164.84090448875213,55.22236678960326 161.47296658798587,56.19259622346726 157.69679379014997,59.42664677699213 148.96348295651842,64.02605932156439 147.85541680728784,64.31351769232424 146.4994937563315,65.85859653238731 144.73533580830554,66.95451442424383 146.55781302734977,65.71486897263094 147.9137360783061,64.18775472619745 149.02180222742027,63.90029610261263 157.24481943977298,59.660214261864894 161.05015187314712,56.3003990874131 164.88464394200128,55.13253039770643 161.5167060411768,56.10276044142665 157.9154910563957,59.22901245333196 149.16760040499503,63.91826228352147 147.97205534926616,64.24165315381833 146.45575430308236,65.93046025809599 144.66243671957636,66.91858282333123 146.36827539652586,65.85859653238731 148.04495443811174,64.07995781011414 149.8091123860795,63.52300578189897 157.0844414444291,59.64224754580937 161.37090786377667,56.10276044142665 164.84090448875213,55.186432239599526 161.3125885927002,56.2285305205005 160.583597705001,56.78551096902811 160.2920013499679,57.48622522497317 158.68822139728582,58.7618756929005 158.4695241310401,58.618140997961746 157.05528180900728,59.75004780829477 150.07154910563258,63.46910708337964 147.9137360783061,64.24165315381833 146.83482956461376,65.58910723931331 145.5518056024448,66.50536876321712 144.40000000002328,66.95451442424383 146.412014849775,65.82266465602152 148.01579480263172,64.13385627836396 149.09470131626585,63.90029610261263 156.3117111036554,60.01954810874304 151.6024299695855,62.57079244956549" stroke="#4dd2ff" stroke-linecap="round" stroke-linejoin="round" stroke-width="0.5"><title>2025-12-07 13.4km</title><desc>1765091716000</desc></polyline><polyline fill="none" points="18.643640303402208,112.22742297795048 18.905742145201657,111.82369384387857 21.255297941504978,110.50867806597671 23.41763813653961,108.61686793196714 25.6361430119141,108.00548192908172 26.721993499493692,107.46330602855596 26.98409534129314,107.19798473975243 26.871765980497003,107.08262741843646 27.133867822296452,107.07109167831368 27.489577464817557,106.59812508542382 28.332047670672182,104.87927474642493 29.59575297945412,104.08328616617655 30.382058504910674,103.34497174579155 31.730010834231507,101.29150352798024 32.048277356429026,101.12999284249963 32.82522210187744,101.10691986422171 35.212221018446144,102.09905269133742 36.55081256775884,101.55684189413296 37.00013001088519,100.95694536400697 37.47752979421057,99.87250706837222 37.9455687974114,99.3648932498545 39.621148428996094,99.13415876765066 40.229599133250304,98.82266629633523 40.838049837504514,97.81896113992116 41.13759479956934,93.15793354497873 41.483943661965895,92.338768092588 42.317053087754175,91.43883141773404 43.76797399786301,90.85040651120653 46.126890574232675,91.53113302143902 46.73534127842868,91.53113302143902 47.19401950162137,91.40421829242405 47.999046587210614,90.42350764809817 49.290834236191586,89.47740038525808 53.81209100759588,88.49666914285626 55.600000000034925,88.60051177067362 53.58743228606181,88.57743564133125 52.37989165761974,88.85434881055698 52.88537378114415,88.6235878942316 49.215947995719034,89.52355218542652 48.2049837486702,90.19275067877606 47.19401950162137,91.43883141773404 46.76342361862771,91.62343453228823 45.72437703143805,91.56574609888048 45.66821235103998,91.40421829242405 43.777334777929354,90.86194429073657 42.335774647886865,91.43883141773404 41.521386782231275,92.3156929034958 41.13759479956934,93.330995732882 40.90357529791072,97.66898126563319 40.575947995705064,98.64961446641973 39.54626218852354,99.1918424425894 38.001733477809466,99.37642995872739 37.53369447455043,99.82636047367123 36.91588299028808,101.16460229902441 36.5227302275016,101.61452404611919 35.44624052004656,102.08751632476924 34.950119176646695,102.13366178236902 32.769057421479374,101.11845635407371 32.066998916561715,101.17613878165866 31.58023835316999,101.4299410321255 30.194842903641984,103.56415945931803 28.200996749743354,105.06385082239285 27.676793066086248,106.40201627108036 26.69391115923645,107.48637740872073 25.57997833151603,108.05162441099674 23.614214517874643,108.55919018116401 21.189772481040563,110.62403108108992 19.766933911130764,111.48917407316185 15.077183098648675,113.86539153238118 13.64498374867253,115.06501193032454 12.4468039002968,115.50333085714374 12.400000000023283,115.36491458010278 13.382881906814873,115.03040771535598 14.974214517860673,113.54241413102864 15.676273022778332,113.3693900556973 17.782448537414894,112.22742297795048" stroke="#4dd2ff" stroke-linecap="round" stroke-linejoin="round" stroke-width="0.5"><title>2025-11-30 11.3km</title><desc>1764483136000</desc></polyline><polyline fill="none" points="82.84524714830332,114.21605700434156 83.40988593164366,113.64677096470405 83.38935361220501,113.4570082360151 85.8942965780152,112.11600809011725 88.20418250956573,110.07917180587538 90.65779467683751,109.34539459827647 92.09505703428295,108.4724457803677 92.35171102662571,108.51040023422684 93.68631178711075,106.14454525012843 95.69847908749944,104.71488399777445 97.0433460076456,102.51341899295949 97.56692015216686,102.05793746228301 98.31634980993113,101.83019592383062 100.89315589354374,102.98155064025923 102.29961977188941,102.65259349397093 102.22775665402878,102.86768098052562 102.09429657796863,102.80442000279436 102.48441064642975,102.72850677698443 103.09011406847276,101.99467597550392 103.69581749051576,100.64087062760518 104.12699619773775,100.14742302802188 104.97908745252062,99.81845661742409 106.13916349812644,99.75519372288545 107.12471482891124,99.21113118800713 107.41216730041197,98.23687232231168 107.70988593157381,93.36543649994564 108.04866920161294,92.46704205871356 109.00342205329798,91.36618159538193 110.7076045628055,90.72084399982123 112.69923954375554,91.29025974016986 112.71977186313597,91.74579001228267 112.77110266161617,91.44210339334677 113.61292775667971,91.55598598289362 114.28022813698044,91.31556703161186 114.71140684414422,91.60660042572272 113.98250950576039,90.96126437216299 115.14258555136621,89.7211952388534 116.0665399240097,89.03788530771271 117.12395437265513,88.64561269487604 121.60000000003492,87.79779246813268 116.24106463883072,88.98726957260806 115.31711026618723,89.5440412578464 114.00304182514083,90.98657174632535 114.35209125478286,91.34087431669468 113.03802281373646,91.85967225806235 112.6787072243751,91.77109718915744 112.69923954375554,91.35352795683139 110.7076045628055,90.72084399982123 109.04448669205885,91.39148886776093 108.17186311789555,92.35316050035908 107.79201520915376,93.20094234298449 107.42243346013129,98.35074722202262 107.14524714834988,99.27439442461036 106.25209125480615,99.79315146440786 104.87642585556023,99.89437203840498 104.16806083649863,100.14742302802188 102.73079847916961,102.47546227751445 101.44752851710655,103.01950716486317 100.88288973388262,103.03215933658066 98.47034220537171,101.95671906437929 97.62851711030817,102.05793746228301 96.97148288978497,102.6399412745377 96.09885931562167,104.23410839407734 95.31863117875764,105.10709397343453 94.15855513309361,105.70173198894918 93.55285171105061,106.34697352063813 92.98821292782668,107.71335369739973 92.35171102662571,108.53570319552091 92.08479087456362,108.51040023422684 90.9247148289578,109.29478907642624 88.51216730038868,109.95265887588175 85.62737642589491,112.38167934944795 79.83726235746872,115.45582435025426 79.04676806082716,115.65823389554134 78.40000000002328,116.20220753186004 78.96463878330542,115.60763154736196 79.74486692016944,115.4431737401319 82.24980988592142,114.10220005397423" stroke="#4dd2ff" stroke-linecap="round" stroke-linejoin="round" stroke-width="0.5"><title>2025-11-23 10.7km</title><desc>1763852167000</desc></polyline><polyline fill="none" points="175.79084337351378,109.2194598096612 176.51951807230944,107.6231444795194 176.9243373494246,107.19555620064784 177.27132530126255,106.93900245954865 177.30602409644052,107.15279728415044 179.5845783133409,105.72749084034876 181.89783132536104,103.51823044952471 185.0207228916115,102.56324650549504 186.22361445787828,101.86482032047934 186.43180722900433,101.66526919172611 186.24674698797753,101.38019554154016 187.60000000003492,99.48443753815809 187.50746987957973,99.07107256162271 187.2183132530772,98.81450043900259 185.92289156629704,98.67196011997294 184.2689156626584,97.81671444306266 183.13542168680578,96.86168248025933 181.89783132536104,95.265193176725 181.05349397595273,94.9088308883147 179.11036144581158,94.92308540136582 177.83807228924707,95.35071995928593 177.09783132537268,95.76409849878837 175.51325301209,97.5601394820842 174.94650602416368,97.8879851625461 172.1474698795937,97.61715619030292 171.3146987952059,97.73118952055665 170.0424096386414,98.45814930553024 167.50939759041648,100.41093977022683 166.1677108433796,101.06661369859648 164.76819277112372,101.00959872491512 163.4033734939876,100.26840145800816 161.714698795171,99.726754237563 160.1763855422032,99.91205489361892 158.40674698795192,99.52719934626657 156.25542168680113,99.65548467385088 151.72144578315783,101.09512117469421 145.84578313253587,103.43270982719696 144.5040963855572,104.20239310659963 144.40000000002328,104.03135282929725 145.66072289156727,103.27592185204412 153.664578313299,100.22563992941286 153.97686746990075,100.1116091076401 154.02313253021566,100.33967063653836 155.97783132537734,99.6839925047243 158.08289156632964,99.49869147597201 160.19951807230245,99.91205489361892 161.73783132538665,99.75526205051574 163.42650602414506,100.28265529726923 164.81445783132222,100.99534497699642 165.90168674703455,101.06661369859648 166.87325301207602,100.66750828067597 171.03710843378212,97.7596978352667 171.99710843380308,97.57439366183098 174.7267469880171,97.81671444306266 175.44385542173404,97.44610597976134 176.70457831333624,96.07769500625727 177.7686746987747,95.32221103893244 179.06409638555488,94.88032185688644 181.041927710874,94.78054019033152 181.86313253012486,95.16541184888774 184.2689156626584,97.77395198989689 185.8072289157426,98.5864358425606 187.28771084343316,98.81450043900259 187.56530120491516,99.48443753815809 186.4202409639256,100.82429986239731 186.13108433736488,101.45146402127284 186.31614457833348,101.60825451901474 185.6221686747158,102.19265355524112 182.26795180729823,103.24741492421163 179.31855421687942,105.75599714478449 175.62891566264443,107.72291484594462" stroke="#4dd2ff" stroke-linecap="round" stroke-linejoin="round" stroke-width="0.5"><title>2024-11-03 10.0km</title><desc>1730623436000</desc></polyline><polyline fill="none" points="29.002214707186795,136.55967507390596 28.789785123604815,136.35943034792945 28.759438040215173,136.23835162236355 28.448380435656873,136.01947754864523 28.308025175065268,135.54912680900088 27.4279597572895,134.2824103054154 27.29139788210159,133.89120978862047 27.26863756957755,133.35563102818924 27.36726559055387,132.85730304443496 27.283811111265095,132.7408703172223 27.283811111265095,132.53129049632116 27.462100226068287,131.76282112157787 27.537967934491462,131.6230977233863 27.625215799198486,131.6230977233863 27.909719705814496,130.1513129382729 28.698743873479543,129.0101741749495 29.20326413452858,128.41863141963768 29.252578145009466,128.39999999999782 30.36783345892036,129.3874524702078 30.511982104944764,129.58307675686228 31.012708980590105,130.83597950953117 30.383007000622456,131.26447194925277 30.041602312703617,131.7348764836279 29.79882564570289,132.56389187879904 29.79882564570289,133.0529092115321 30.474048250733176,134.33363864204512 30.697857990599005,134.56649383480908 30.910287574195536,135.12068337275196 31.11513038695557,135.23245169801885 31.49446892910055,135.65623690257416 32.52626976376632,136.37340094492902 32.989062785185524,137.0905512612262 33.22045929588785,137.59347965881898 33.26218653553224,138.0731180459261 33.485996275398065,138.65519522124305 33.394955025287345,139.0323764033128 33.93740914054797,139.3676453781918 34.31674768269295,139.3769583624562 34.66573914149194,139.5632175617211 36.32724195608171,140.74594187514958 37.21489414470852,141.47232098424138 37.35904279073293,141.4630085206445 37.6094062285556,141.2301961787307 37.837009353839676,141.15103965305752 38.40222378165345,141.23950870017507 38.89915727186599,141.43041487983646 39.46057831424696,141.89137945129187 40.314090034065885,142.81329158689914 40.47720560719608,142.90641276393944 40.503759305152926,143.0088457915008 40.731362430437,143.18577490701864 40.818610295129474,143.33942319823473 41.15242821222637,143.5768784094871 41.43313873340958,143.88417115583434 41.77075003592472,144.04712840824504 41.82385743182385,144.20077316880634 42.08180764048302,144.47081394917768 42.134915036382154,144.41959946789575 42.11215472384356,144.51737250779115 42.229749671925674,144.66170367203085 43.49294701729377,145.92341373603267 43.48915363186097,146.44019047066104 43.42466607969254,146.66365928480445 43.2349968086055,147.0966263216651 42.692542693344876,147.93461283417128 44.08850852845353,149.81535881672244 44.13402915353072,150.19708287070898 44.03160774713615,150.9232788791851 44.09230191387178,151.20258129159265 44.04298790340545,151.67739061843895 44.08471514303528,152.45476153753043 43.97850035123702,152.62699123722268 43.77745092388068,153.54863943186137 43.2387901940383,154.44699188409868 43.2425835794711,154.61921243506004 42.984633370811935,154.6843767616374 42.74944347467681,154.90779645037765 42.33596446372394,155.1498329446622 42.15008857808425,155.16845107182962 41.812477275554556,155.41048588410558 41.39141149377974,155.5128847575761 41.19036206645251,155.63390124764555 40.52651961767697,155.73164505072418 39.976478731565294,155.7223361280703 39.52506586641539,155.63390124764555 38.75880201124528,155.08001488544323 38.04564555201796,154.18633224865334 37.780108572522295,154.0327284008963 37.33248909279064,153.51140156003748 37.09729919665551,153.46485416826908 36.89245638389548,153.3112473655492 36.51691122716875,153.25073542205064 36.01239096610516,152.83645872491252 35.79996138250863,152.75267187022473 34.366061693188385,152.99472227300066 33.87671497381234,152.9854126709979 31.68413820018759,153.3764139647501 30.739585230243392,153.68828112186748 30.219891427492257,153.7860299955064 29.57880929125531,154.05600175159998 28.694950488046743,154.2608066150715 27.822471841122024,154.60059403525156 27.48106715317408,154.80074134893584 27.83385199739132,155.42444938331028 27.79212475773238,155.73629951119074 27.845232153631514,155.9550585013094 27.625215799198486,156.1458897699231 27.147249236077187,156.82077305357234 27.188976475721574,157.1465744308589 26.142002099382808,158.73365210238262 25.990266682521906,159.19440401142128 25.057093868861557,160.7534720364747 24.738449493437656,161.45619494877974 24.23392923238862,162.3403971325497 24.13150782599405,162.40089441509554 24.04046657589788,162.65684337733546 23.740789127579774,163.0198225482418 23.482838918920606,164.48101087229588 23.623194179526763,165.383754841263 24.381871263831272,166.9797902680184 24.529813295259373,167.04028007164015 24.61326777454815,167.20778978822636 24.878804754043813,167.4078698587873 25.32263084835722,168.09185646278638 26.024407151329797,168.757219225914 26.1647624119214,168.77583060216057 26.050960849272087,168.7990948094848 26.20269626614754,168.81305332695047 26.42650600601337,169.05965294641283 26.627555433340603,169.13875059438215 26.76411730851396,169.11548659758046 27.257257413308253,169.53888908259614 27.83764538280957,169.74360945033914 28.418033352296334,170.07395132567035 29.575015905851615,170.53921664179143 29.844346270765527,170.7113633471563 29.825379343659733,170.78115232714117 29.53708205165458,170.73927895472661 28.39147965432494,170.39498501056005 27.86799246618466,170.31589000974782 27.39002590306336,170.05999327707832 27.060001371399267,169.72965127893622 26.225456578671583,169.19923691860458 25.508506734011462,168.62228647216762 24.53360668067762,167.47301197716297 24.142887982263346,166.8867288413021 24.73086272261571,167.65913169238775 25.808184182300465,168.7804834447743 26.718596683465876,169.4597922778339 27.28760449666879,169.79478936783198 28.383892883502995,170.31123735746223 31.596890335495118,171.17662076291526 32.169691534145386,171.38598471871592 32.549030076290364,171.59999999999854 32.230385700881016,171.40459479160563 31.52860939790844,171.1487054805948 30.538535802901606,170.83698341771378 29.02876840515819,170.50199562872876 27.757984288953594,170.00881372120784 27.075174913086812,169.66451307698662 26.274770589152467,169.1247921980248 25.25814329618879,168.2174853003562 24.089780586364213,166.76574864159556 23.778722981820465,166.20737343528526 23.520772773161298,165.53265897650272 23.376624127136893,164.90911896702164 23.3576572000311,164.22042094511562 23.47525214809866,163.53171028326324 23.718028815070284,162.8941763095172 26.434092776849866,158.04949488831335 27.20415001740912,156.87662491922674 27.92109986206924,156.07141914645763 28.414239966863533,155.67113701219205 29.628123301750747,154.88917819380367 30.128850177381537,154.65644920697014 30.989948668066063,154.3399354673311 31.615857262600912,154.2049508541204 34.54435080799158,153.13436602550064 35.50407731962332,152.90628096080036 36.118605757903424,152.99472227300066 37.438703884588904,153.52071103146227 37.901496906008106,153.86050515681927 39.312636282789754,155.27550512374364 39.726115293757175,155.55477512525977 40.24201571107551,155.72699058969374 40.76550289923034,155.76888071825306 41.39520487921254,155.65251913453903 41.850411129780696,155.4291038818992 42.99601352706668,154.64714001746324 43.34879837126937,154.3399354673311 43.64847581955837,153.93032548622068 43.92918634074158,153.11574688855035 44.09609529930458,149.69432354914898 44.25541748700198,148.10220788913284 44.14920269520371,147.38992373157453 43.69020305918821,145.50905607326422 42.954286287436844,143.64206192982238 43.43604623596184,144.87121566354472 43.853318632318405,146.62175898361602 43.98229373664071,146.91971566341817 44.039194517972646,147.0035155529731 44.198516705670045,146.98954891771427 44.34645873712725,147.07334865115263 44.64234279998345,146.46812414527813 44.59682217494992,146.38432305899914 44.05057467424194,146.10964040735416 43.97850035123702,146.01652718732657 43.4132859234378,145.81633298113957 43.17809602730267,145.64407199451307 42.08180764048302,144.5266842125784 42.138708421814954,144.3963201351071 42.066634098795475,144.44287878624164 41.70626248377084,144.16818190858612 41.065180347519345,143.57222243941214 41.0424200349953,143.48841487913887 40.51134607598942,143.10196648272904 39.82474331470439,142.24059126144857 38.90674404271704,141.45369605473024 38.618446750653675,141.31400878841305 37.84838951010897,141.16500846384952 37.57905914518051,141.24882121930932 37.32490232193959,141.4769772151667 37.22627430097782,141.46766475272307 34.988176902304986,139.76810161173125 34.646772214371595,139.62375160217198 34.38502862029418,139.35833239161002 33.982929765610606,139.38161485371893 33.353227785628405,139.01375026120877 33.47082273371052,138.734357018664 33.32288070226787,138.4083956029608 33.18631882710906,137.55622593491717 33.45944257744122,137.24422454330124 33.8463678904518,137.13711898901965 34.00569007813465,137.01138599115802 33.96396283850481,136.6295276335295 33.88050835923059,136.46653812518343 33.01940986854606,135.88908387571792 33.43668226493173,135.24642271523044 33.15976512913767,135.0973982630312 32.890434764223755,135.5956964525285 32.738699347362854,135.69349251551102 32.14693122160679,135.4885861858893 31.824493460779195,135.2277946911272 31.505849085369846,134.58512218771648 31.566543252120027,134.39883824189747 31.741038981534075,134.2684389287242 31.612063877182663,133.9051813059814 31.55895648126898,133.27645786620633" stroke="red" stroke-linecap="round" stroke-linejoin="round" stroke-width="0.5"><title>2024-10-27 42.8km</title><desc>1729986801000</desc></polyline><polyline fill="none" points="110.85778343945276,154.19133888711076 111.22099363058805,153.64881950926792 113.8184968152782,152.2111299676617 116.59210191085003,149.8375439986121 119.0355159235769,149.21362130698253 120.14715923566837,148.58969500784588 120.37829299364239,148.31842157860956 120.20219108276069,148.16922090180014 120.35628025478218,147.87081892941205 121.53396178345429,146.31097700618557 121.29182165605016,145.78198201637133 119.96005095541477,145.59208574642253 118.35312101908494,144.6697276813211 117.36254777072463,143.8965685227522 117.31852229300421,143.6117190151199 116.11882802553009,142.24171802013734 115.29335031850496,141.87547718364658 113.0480509554036,141.99755760063272 112.04647133755498,142.48587788712757 110.1313630573568,144.39844439693843 109.51500636944547,144.76467666970711 106.79643312102417,144.53408612441126 105.73982165602501,144.81893319703522 102.52596178342355,147.1655018960373 101.10614012740552,147.85725518377149 99.91745222930331,147.81656393668527 96.94573248404777,146.56869157458277 95.448866242019,146.7314583532425 93.35765605093911,146.3381048844749 91.21141401276691,146.58225548216433 88.71296815283131,147.53172477724002 87.35918471339392,147.81656393668527 82.01008917199215,150.06812321085454 80.29309554141946,151.01756183477846 80.23806369426893,151.234575204493 79.76478980894899,151.5329678752605 78.77421656053048,154.01502038846957 78.40000000002328,154.3540941686224 79.43459872610401,151.6007842763065 80.03994904458523,150.90905498628854 80.23806369426893,151.27526516275248 80.370140127372,150.99043513288052 81.83398726116866,150.06812321085454 90.89222929941025,146.62294719475176 93.48973248410039,146.3923606206008 95.4378598726471,146.78571389159333 96.94573248404777,146.58225548216433 98.79480254778173,147.2061933886871 99.79638216563035,147.74874515736883 100.95205095538404,147.87081892941205 101.8105477707577,147.518160989006 106.03699363057967,144.68329182764865 106.75240764330374,144.56121444944438 108.86563057324383,144.84606145037105 109.65808917197865,144.73754839583853 112.03546496818308,142.48587788712757 112.99301910831127,142.06537999477587 115.05121019110084,141.92973516384518 115.9317197452765,142.1332023463474 116.36096815287601,142.43162018666044 118.40815286629368,144.72398425639403 120.0150828025071,145.5107015284084 121.46792356687365,145.83623803209048 121.60000000003492,146.35166882108751 120.34527388535207,147.93863763195986 120.20219108276069,148.25060311472043 120.4223184713046,148.39980367895623 119.11256050952943,149.26787559729564 116.54807643312961,149.95961540763528 113.47729936306132,152.5230830990913 107.34675159235485,155.83244340197416 106.52127388532972,155.9816334840434 104.69421656051418,157.73121087378968 103.82471337582683,158.12452281634614 103.3954649681109,158.09739790080494 104.03383439488243,158.00246064273233 105.09044585988158,157.35146005189017 106.46624203817919,155.95450802995038 107.80901910830289,155.52049983666802 113.22415286622709,152.64515147025668 115.83266242040554,150.44789966283133 115.67857324838405,150.8954916225266 115.88769426749786,150.38008253730368 116.75719745218521,149.82398050021584 119.09054777072743,149.21362130698253 120.30124840763165,148.48118571796658 119.48677707003662,149.09154905405012 116.49304458603729,149.986742368681 113.8295031847083,152.3060723205126 108.29329936305294,155.35774631422828 106.38919745222665,156.10369794323924 105.44264968152856,157.16158413987432 104.59515923570143,157.771898382598 103.69263694272377,158.12452281634614 105.06843312102137,157.3785851549037 106.35617834399454,156.02232165243913 107.74298089172225,155.52049983666802 113.30119745217962,152.56377257147687 115.30435668787686,150.94974506725703 113.62038216559449,152.42814093714696 112.47571974527091,153.05204504355788" stroke="#4dd2ff" stroke-linecap="round" stroke-linejoin="round" stroke-width="0.5"><title>2024-10-13 16.0km</title><desc>1728810741000</desc></polyline><polyline fill="none" points="176.76424751721788,154.20276139624912 178.227349121531,153.15894065513567 180.053475935827,152.30489798971394 182.61665393435396,150.0952006626976 185.09182582126232,149.45804026385304 186.29090909095248,148.82087610088638 186.57692895340733,148.5768547862899 186.23590527119813,148.2786057631165 186.30190985486843,148.03458322159713 187.5229946524487,146.4077521681611 187.31398013752187,145.7841270911449 185.97188693663338,145.59432743891375 184.75080213905312,145.0384836786834 183.59572192514315,144.02168889873428 182.0996180290822,142.28633699813508 180.65851795265917,141.89316745305405 179.08540870895376,142.0965311898326 178.00733384268824,142.58460259338608 175.66417112300405,144.8351254896188 172.77097020630026,144.6317669170894 171.94591291068355,144.7944538057709 169.07471352175344,146.85513315416028 167.20458365167724,147.87190122054744 166.06050420174142,147.88545806332695 164.53139801381622,147.12627224244352 162.87028265855042,146.63822139269178 161.55019098549383,146.8415761818469 159.57005347596714,146.42130919499323 157.1938884644769,146.6246643931372 156.08281130634714,146.97714582822664 148.50328495033318,149.91896518428257 146.55614973267075,150.90859144688147 145.67608861729968,151.69486337417038 144.6530175706721,154.21631744333718 144.40000000002328,154.39254590025666 145.44507257454097,151.6406379079781 146.08311688317917,150.90859144688147 146.21512605046155,151.2203896210849 146.55614973267075,150.85436558540096 148.8003055768204,149.76984263146005 157.31489686790155,146.61110739182914 159.6030557678314,146.39419513959 161.4951871657977,146.81446223211242 162.9582887701108,146.63822139269178 164.83941940410296,147.22117076229915 165.96149732620688,147.84478752982977 166.95156608102843,147.91257174380007 168.0406417112681,147.51942270970176 170.73582887707744,145.47231320036371 172.04491978610167,144.7402248701692 172.957983193337,144.5910951565893 175.43315508024534,144.82156826335995 176.18120702827582,144.4012934046914 177.51229946536478,142.88286736369628 178.4803666921798,142.3134520863241 179.47043544694316,142.01518574113288 181.74759358289884,142.0694160470739 184.59679144388065,144.8351254896188 185.87288006115705,145.5265417678529 187.44598930486245,145.91969806683483 187.58899923611898,146.44842324356432 186.58792971738148,147.6414346322781 186.26890756306238,148.2921625548115 186.32391138275852,148.56329803041444 185.19083269673865,149.25469040803728 182.51764705887763,150.05453096249403 179.39343009935692,152.60313587939163 173.1889992360957,155.91080991147464 172.37494270439493,156.11414721882466 171.3188693659613,157.32060735843697 169.92177234537667,158.10683254695323 171.28586707415525,157.30705170151487 172.2759358289186,156.07347978798498 173.255003819766,155.8565865647688 179.83346065698424,152.27778541335283 182.40763941942714,150.00030467165197 185.32284186413744,149.1326803105112 186.42291825823486,148.4277303777999 186.2029029793921,148.2786057631165 186.37891520245466,147.88545806332695 187.55599694425473,146.44842324356432 187.4349885409465,145.8925838852956 186.01588999241358,145.60788456799492 184.3987776929862,144.76733934139338 182.2866310160607,142.42191237097722 181.5055767762242,142.02874332016654 180.4165011459263,141.97451299378736 178.65637891524239,142.2592219030994 177.5893048128928,142.86930989204848 176.32421695953235,144.30639240344317 175.334148204769,144.875797158129 172.73796791449422,144.6317669170894 171.5278838808299,144.98425486571068 172.5289533995674,144.577537899655 175.45515660813544,144.7808965744698 176.0161955691874,144.48263705353747 177.60030557680875,142.8286374668096 178.37035905272933,142.3134520863241 179.5914438503096,141.9473978203605 181.49457601225004,141.90672504744725 182.36363636370515,142.43546989887545 183.84873949579196,144.26572052021947 184.84980901452946,145.024926477985 186.03789152024547,145.5807703081009 187.22597402601968,145.68922730679333 187.46799083275255,145.86546969701885 187.60000000003492,146.43486622010096 186.4999236058793,147.6685483741021 186.25790679908823,148.2379353778815 186.4779220779892,148.4277303777999 185.01482047367608,149.28180374433578 182.53964858676773,149.90540859710018 179.89946524065454,152.25067283026146 173.29900687554618,155.81591903683147 172.4849503438454,156.00570070261165 172.04491978610167,156.37170725791657 172.5069518716773,155.96503323089564 173.07899159670342,155.8972540773393" stroke="#4dd2ff" stroke-linecap="round" stroke-linejoin="round" stroke-width="0.5"><title>2024-10-06 18.0km</title><desc>1728199446000</desc></polyline><polyline fill="none" points="44.33792187087238,202.47082287533703 45.95663034816971,201.29662826785352 47.759022056881804,200.36292260858318 50.06654265220277,198.28327762122353 53.246558596903924,197.36369445679156 54.34865798574174,196.6846128357356 54.463460005354136,196.57143216724944 54.11905394640053,196.16115128983802 55.45075737446314,194.3360906427406 55.24411373905605,193.69943461724324 53.843529099132866,193.44477119865041 52.24778102582786,192.62418515223544 51.134201435081195,191.64796292482788 49.79101780499332,190.04920388597384 48.86112144566141,189.681344609824 47.94270528835477,189.78038376401673 47.31129418016644,189.6106023034954 45.56630348128965,190.21898468479048 43.72947116661817,192.25633429265872 43.098060058488045,192.63833323815197 42.719213393633254,192.7373697901421 40.331331384542864,192.39781553475768 39.49327664100565,192.51100040037272 37.43832048896002,193.7560264098065 35.59000797243789,195.1849597412729 34.25830454425886,195.83575504770124 33.01844273193274,195.82160736368678 30.3550358756911,194.61904772029084 29.39069891051622,194.53416067170474 28.414881743316073,194.76052599229297 26.57804942864459,194.25120338073611 25.83183630084386,194.23705549753504 23.420993887935765,194.64734338892595 20.057294711761642,195.86405041046964 13.857985649781767,198.33986710905447 12.480361413792707,199.1462642188635 12.400000000023283,199.40091473749635 12.572203029529192,198.82087660668185 13.90390645765001,198.00032975545037 23.570236513449345,194.392682115169 25.07414297107607,194.22290761255863 25.751474887074437,194.36438638251275 26.80765346804401,194.1380202651926 28.162317300098948,194.50586497465702 29.75806537340395,194.3077948958453 31.67525910184486,194.87370848185674 33.156205155479256,195.6093918896804 34.26978474622592,195.5386533094279 39.057028966315556,192.35537118081265 39.803242094116285,192.18559360487416 42.730693595600314,192.45440798181517 43.45394631952513,192.00166760860884 45.37114004784962,190.06335229564866 46.794685091706924,189.53985995269613 48.000106298248284,189.6106023034954 48.975923465390224,189.3842266243737 50.27318628766807,190.04920388597384 51.16864204098238,191.19521930748306 50.98495880950941,191.39329486419592 52.477385065169074,192.80811013111088 53.87796970503405,193.4730671625075 54.76194525649771,193.61454687506193 55.25559394102311,194.1804639468537 55.5196385862655,194.16631605472503 54.17645495617762,196.11870835506124 54.29125697579002,196.45825138491637 53.18915758706862,197.26466197554691 50.192824873840436,198.14180377726007 47.05872973694932,200.80148229193583 40.51501461601583,204.25331176085456 39.75732128630625,204.39477792374964 38.425617858127225,205.80942977497762 36.96763220842695,206.6157733756263 36.77246877498692,206.57333438271598 37.254637257545255,206.46016365680407 38.46005846402841,205.69625828109565 38.98814775451319,204.96064079758798 39.814722296083346,204.2957516283932 41.21530693600653,203.8430588830015 45.6122242892161,201.52297998859285 48.000106298248284,199.96680271620426 48.160829125728924,200.03753851354122 49.42365134204738,199.0755278614597 49.64177517947974,198.52378274792136 49.9976614403422,198.2266881050018 50.709433962299954,197.83056069456507 53.12027637526626,197.2505144710958 54.30273717781529,196.4158085622039 54.13053414830938,196.2460371112902 54.210895562078804,195.99137945481198 55.47371777839726,194.392682115169 55.416316768561956,193.8975057666612 55.071910709608346,193.65699075418524 53.79760829126462,193.4872151417585 52.684028700517956,192.93544263274816 51.38676587829832,191.88848223077366 50.08950305613689,190.28972660869476 49.481052351824474,189.87942283102893 47.71310124901356,189.70964151996304 46.20919479144504,189.97846181088244 45.462981663586106,190.33217174173478 43.58022854110459,192.31292681082414 42.85697581723798,192.72322171668202 40.28541057673283,192.44025987273926 38.87334573484259,192.72322171668202 34.947116662340704,195.56694874686218 34.23534414038295,195.86405041046964 32.949561520072166,195.83575504770124 30.045070422522258,194.57660420401953 28.300079723645467,194.77467380972666 25.99255912838271,194.32194277020608 23.214350252470467,194.7180825293617 15.419293117243797,197.74567606812343 23.44395429181168,194.57660420401953 26.118841350020375,194.22290761255863 28.36896093550604,194.76052599229297 29.849906989140436,194.49171712343377 31.457135264470708,194.9868908575736 33.23656656930689,195.83575504770124 34.3960669679218,195.75086891683168 39.14887058199383,192.53929659903224 39.75732128630625,192.39781553475768 42.86845601920504,192.62418515223544 43.67207015684107,192.1148528726626 45.0037735850201,190.6575838962599 45.784427318605594,190.11994591660914 46.794685091706924,189.78038376401673 48.952963061397895,189.6106023034954 49.77953760296805,189.92186811877036 51.50156789802713,191.90263040919672 52.84475152811501,192.94959067957097 53.78612808935577,193.41647522767744 55.37039596069371,193.7135825680307 55.600000000034925,194.20875972576323 54.55530162114883,195.32643730191194 54.11905394640053,196.26018474198645 54.210895562078804,196.51484179030376 53.809088493231684,196.85438362513378 52.56922668084735,197.43443188998936 50.20430507574929,198.056919385519 47.18501195864519,200.6317174559008 45.76146691472968,201.39565720170503" stroke="#ffac00" stroke-linecap="round" stroke-linejoin="round" stroke-width="0.5"><title>2024-09-22 20.8km</title><desc>1726992504000</desc></polyline><polyline fill="none" points="109.88784749800107,202.29215259259945 110.82573471014621,201.5592414267885 111.191739475762,201.51695794412808 113.07895154890139,200.3612032454912 115.93836378084961,197.92280364792532 118.43177124706563,197.24624407405645 119.82716441625962,196.54149017736927 120.03304209694033,196.33006314464728 119.70135027798824,196.04815981425782 119.75853852269938,195.808541426195 121.60000000003492,193.32775625770591 119.58697378879879,193.31366073062236 118.37458300241269,192.72164699299174 116.60174741863739,191.2556947613557 115.48085782374255,189.8602031960254 114.79459888808196,189.47961157301324 112.08387609216152,189.6628595527436 110.18522637017304,190.90329954057233 109.07577442418551,192.22829982392432 108.28657664818456,192.5524996366803 105.90754567121621,192.20010849159735 104.85528196988162,192.41154331153666 100.54328832408646,195.3574936596633 99.68546465452528,195.68168442523165 98.25575853866758,195.47025577140448 97.52374900720315,194.92053940564801 95.62509928521467,194.22986630562082 94.00095313746715,194.52586958371103 92.44543288327986,194.03253035277885 91.39316918194527,193.99024403200747 88.4536934075295,194.62453716941673 80.10420969029656,197.85232888277824 78.52581413823646,198.7403076870396 78.40000000002328,198.52888480001275 79.52088959497632,197.79594903875113 83.39825258147903,196.25958737849578 87.93899920582771,194.5822510718499 87.95043685467681,194.77958605728054 89.58602065133164,194.24396171753324 92.39968228759244,194.01843491429463 94.00095313746715,194.4553926836088 95.84241461480269,194.31443875050172 96.62017474189634,194.48358344892767 98.35869737889152,195.44206525408663 99.7312152502709,195.59711301155767 100.63478951557772,195.25882671887666 104.77521842735587,192.31287377846456 105.7016679905355,192.1578214797264 107.94344718032517,192.4820214963038 108.62970611598575,192.3551607318659 109.12152501993114,192.10143877246446 111.24892772047315,189.94477893684234 112.52994440030307,189.5218995948744 114.56584590952843,189.45141954949213 115.16060365375597,189.56418760085216 115.68673550448148,189.987066783302 117.24225575861055,191.86181195030076 118.26020651316503,192.66526456923748 119.38109610811807,193.20089645014377 120.35329626692692,193.34185178299958 120.8565528197214,193.9338622461364 121.13105639402056,193.84928951423353 121.13105639402056,194.11710294653312 120.8565528197214,194.22986630562082 119.81572676735232,195.8367318514065 119.72422557591926,196.0763501791953 119.93010325654177,196.20320673367678 118.71771247027209,197.04891342946212 115.9154884829768,197.8100440024209 112.33550436858786,200.74175793720497 110.89436060370645,201.34782385419385 106.20492454327177,203.95527939473686 105.42716441623634,204.11031538224051 104.13471008744091,205.49153562939318 102.65925337572116,206.3230783913532 104.10039714066079,205.42106562037225 105.33566322480328,204.08212703681784 106.4222398729762,203.78614898206433 113.02176330424845,200.22025673567987 115.80111199367093,197.8100440024209 118.59189833205892,197.03481837012077 119.68991262908094,196.35825343871693 119.89579030976165,196.1750164006371 119.70135027798824,196.03406462915154 119.87291501194704,195.6253034898764 121.08530579827493,194.01843491429463 120.87942811759422,193.49690244449448 119.46115965058561,193.27137413872697 118.05432883248432,192.5665952594718 116.64749801432481,191.29798211341404 115.60667196189752,189.94477893684234 115.11485305806855,189.63466757535207 114.24559173954185,189.45141954949213 112.56425734714139,189.56418760085216 111.04305003973423,190.1985057764614 109.28165210486623,192.05915172342793 108.45814138208516,192.4961171278701 105.81604447978316,192.21420415865578 104.85528196988162,192.39744766926742 99.92565528204432,195.65349396110832 98.77045274031116,195.6253034898764 97.32930897548795,194.89234875018155 95.46497220022138,194.30034334747324 93.89801429712679,194.52586958371103 92.34249404299771,194.1030075186427 91.53042096912395,194.11710294653312 89.65464654495008,194.34262955129816 88.12200158863561,194.8218720803925 88.06481334398268,194.56815570248727 89.05988880072255,194.15938921946508 92.02223987295292,193.86338497396355 92.3081810962176,194.1030075186427 93.95520254172152,194.49767882897868 95.55647339165444,194.30034334747324 97.16918189043645,194.8077767411305 98.69038919784361,195.56892252613034 99.65115170780336,195.63939872636547 100.64622716448503,195.25882671887666 104.3062748213415,192.72164699299174 105.62160444800975,194.77958605728054 105.8732327244361,194.7936814001223 106.21636219223728,195.41387472968927 107.08562351076398,195.59711301155767 107.45162827643799,196.30187284349813 108.66401906282408,197.54223938987707 108.77839555207174,198.17651243579166 109.3960285941721,198.66983343566972 108.93852263706503,199.00810943844408 109.7505957109388,201.996169813734 106.11342335189693,203.99756195802183 105.41572676738724,204.1385037206055 103.55138999212068,205.9002608082592 102.25893566326704,206.39354783351882 102.29324861004716,206.54858045051515 103.32263701356715,206.18213937407563 105.03828435268952,204.84320987662795 103.79158061958151,206.01301231956313 102.21318506757962,206.52039271791728 102.24749801435973,206.35126617352216 103.04813343926799,206.15395154936414 104.15758538525552,205.40697161330172 105.41572676738724,204.03984450540156 106.15917394764256,203.92709101030778 109.38459094526479,202.22168057322415" stroke="#4dd2ff" stroke-linecap="round" stroke-linejoin="round" stroke-width="0.5"><title>2024-08-22 19.8km</title><desc>1724317734000</desc></polyline><polyline fill="none" points="175.92017075780313,197.394183305747 176.10458911425667,196.9207333119557 179.40875133412192,195.2352392597968 183.5120597652858,191.69374651147518 187.0621131270891,190.82256441573554 187.60000000003492,190.5195433756162 187.46168623270933,190.34909377280565 183.32764140883228,191.6179917465779 179.45485592324985,194.9511653719528 177.5491995731718,196.03064329660265 176.79615795094287,196.1632102278527 171.30971184634836,199.40159475438122 169.25037353252992,200.08335104987782 167.48303094995208,201.92029016127344 165.74642475985456,202.98078089629416 164.1942369263852,202.98078089629416 164.0559231590596,202.54522310472385 162.9494130202802,202.46947379501944 162.21173959446605,203.43527464105864 161.4279615795822,203.81401838126476 160.4443970117136,203.5678350583912 157.26318036287557,203.7572068809386 152.83713980793254,204.609377137298 149.64055496267974,204.91236984502757 148.0729989327956,205.25323591301276 147.25848452514037,205.70772280433448 146.78207043756265,205.42366865788063 144.40000000002328,205.31004684940854 144.6612593383179,204.96918090988765 147.2431163287838,205.21536194352666 147.25848452514037,205.66984894906636 147.93468516547,205.19642495524022 149.8096051227185,204.74193652188114 156.86360725719715,203.9276413177431 157.3092849520035,203.68145818047924 160.1677694771206,203.47314905792882 161.30501600855496,203.71933253541647 162.21173959446605,203.30271410715068 163.02625400212128,202.3558497591439 164.1173959445441,202.4884111260326 164.28644610458286,202.88609452695528 165.9308431163663,202.75353350992373 167.36008537892485,201.95816495885083 169.25037353252992,199.98866285997792 170.43372465315042,199.70459793317423 178.88623265747447,195.25417749996996 183.0356456778245,191.67480782380153 187.4155816436396,190.29227719568007 183.20469583786326,191.69374651147518 179.070651013928,195.12160976897576 170.40298826043727,199.81822396817734 169.09669156890595,200.1591015590093 167.89797225187067,201.54154166152875 165.4544290288468,203.0944044610078 167.62134471721947,201.7498534541519 169.01985058694845,200.10228868071863 171.04845250799553,199.4205324709328 175.35154749202775,197.1479894946242 176.703948772687,196.1821483513486 179.03991462121485,195.2352392597968 182.94343649951043,191.8263172583538 187.07748132338747,190.48166570279864 183.22006403416162,191.67480782380153 179.23970117396675,195.1026715121261 176.99594450375298,196.31471514930308 176.61173959448934,196.22002459123905 175.15176093921764,197.29949342596228 170.1724653148558,199.93184991744056 169.1427961580339,200.12122630923113 170.587406616949,199.590971812504 170.55667022411944,199.28796840528958 172.108858057647,197.96232133462036 172.29327641415875,197.0722374718316" stroke="#4dd2ff" stroke-linecap="round" stroke-linejoin="round" stroke-width="0.5"><title>2024-07-03 11.2km</title><desc>1719998343000</desc></polyline><polyline fill="none" points="41.05421822273638,246.1798738045327 41.442969628900755,245.6010200658784 45.84881889761891,243.22570159868337 49.49336332967505,240.0319401006127 53.70483689539833,238.83426298001723 55.17885264346842,237.9559606842231 55.600000000034925,237.5966537995264 55.389426321780775,237.45692312481697 53.54285714298021,238.6346492483426 49.44476940395543,239.83232787442103 45.29808773903642,243.34546640547342 36.777952755976,247.916422362483 34.72080989880487,248.63498862582492 33.37637795280898,250.1918710438331 31.20584926888114,251.58906022078008 29.58605174353579,251.64893948225654 29.424071991001256,251.18986456721905 28.209223847079556,251.14994494669372 27.38312710914761,252.12797276153287 26.52463442075532,252.50720641641237 25.147806524240877,252.24773085564084 22.2645669291378,252.4273678274767 12.480989876261447,254.10396976770426 12.400000000023283,254.32352347321284 12.950731158663984,254.18380751392397 15.137457817792892,254.54307687516848 16.02834645670373,253.74469941316056 16.984026996651664,253.56506393122254 17.16220472450368,253.26567100976536 22.313160854915623,252.3275695348857 25.16400449950015,252.14793245019973 26.508436445496045,252.4273678274767 27.36692913394654,252.08805337682134 28.484589426370803,251.01022619575087 29.456467941519804,251.129985132633 29.715635545609985,251.5491407005611 31.367829021415673,251.4693016300298 33.02002249722136,250.4912697592954 33.684139482618775,249.473311824142 34.89898762665689,248.4353872120846 36.09763779537752,248.15594481148582 44.97412823396735,243.52511344625964 49.20179977512453,239.9321340188908 50.36805399332661,239.33329621129087 53.478065241884906,238.5148808889935 55.22744656930445,237.47688465728424 53.17030371213332,238.7743788868538 49.590551181230694,239.7325216672616 45.249493813258596,243.40534877497703 36.72935883019818,248.0162234268355 34.769403824582696,248.73478923852963 33.48976377956569,250.21183097577887 32.129133858310524,251.2497439791914 30.476940382446628,251.728778462435 32.72845894272905,250.6709087176423 34.94758155243471,248.45534736471018 36.09763779537752,248.21582536728238 45.71923509566113,243.0660150491167 48.651068616542034,240.3912414754741 45.13610798656009,243.46523112191062 38.57592800905695,246.918408270285" stroke="#4dd2ff" stroke-linecap="round" stroke-linejoin="round" stroke-width="0.5"><title>2024-06-26 10.0km</title><desc>1719394224000</desc></polyline></svg>