<?xml version="1.0" encoding="utf-8" ?>
<svg baseProfile="full" height="300mm" version="1.1" viewBox="0,0,200,300" width="200mm" xmlns="http://www.w3.org/2000/svg" xmlns:ev="http://www.w3.org/2001/xml-events" xmlns:xlink="http://www.w3.org/1999/xlink"><defs /><rect fill="#222222" height="300" width="200" x="0" y="0" /><text fill="#FFFFFF" style="font-size:12px; font-family:Arial; font-weight:bold;" x="10" y="20">Over 10km Runs</text><text fill="#FFFFFF" style="font-size:4px; font-family:Arial" x="10" y="280">ATHLETE</text><text fill="#FFFFFF" style="font-size:9px; font-family:Arial" x="10" y="290">wjianbo</text><text fill="#FFFFFF" style="font-size:4px; font-family:Arial" x="120" y="280">STATISTICS</text><text fill="#FFFFFF" style="font-size:3px; font-family:Arial" x="120" y="285">Number: 6</text><text fill="#FFFFFF" style="font-size:3px; font-family:Arial" x="120" y="290">Weekly: 1.0</text><text fill="#FFFFFF" style="font-size:3px; font-family:Arial" x="141" y="285">Total: 127.9 km</text><text fill="#FFFFFF" style="font-size:3px; font-family:Arial" x="141" y="290">Avg: 21.3 km</text><text fill="#FFFFFF" style="font-size:3px; font-family:Arial" x="167" y="285">Min: 11.0 km</text><text fill="#FFFFFF" style="font-size:3px; font-family:Arial" x="167" y="290">Max: 42.8 km</text><polyline fill="none" points="41.67035784528707,47.599458456512366 41.316308539302554,47.26571724655514 41.265730067010736,47.063919370608346 40.747300726070534,46.699129247746896 40.51337529174634,45.915211348336015 39.04659959545825,43.80401717569475 38.81899647015962,43.152016314372304 38.78106261594803,42.2593850469857 38.945442650903715,41.42883840739523 38.80635185207939,41.234783862040786 38.80635185207939,40.885484160542546 39.10350037677563,39.60470186929888 39.22994655749062,39.37182953898446 39.37535966531141,39.37182953898446 39.84953284301446,36.91885489712877 41.164573122456204,35.016956958250375 42.0054402241949,34.03105236606643 42.08763024167274,34.0 43.946389098186046,35.64575411701662 44.186636841564905,35.97179459477775 45.02118163430714,38.059965849221044 43.97167833434651,38.77411991542613 43.40267052114359,39.55812747271557 42.99804274283815,40.939819798004464 42.99804274283815,41.75484868588683 44.12341375119286,43.889397736747924 44.49642998431227,44.27748972468544 44.85047929029679,45.20113895459508 45.19188397823018,45.387419496699295 45.82411488183425,46.093728170963004 47.54378293958143,47.28900157488533 48.31510464195162,48.48425210204732 48.70076549312216,49.322466098034056 48.77031089254888,50.1218634098841 49.14332712563919,51.09199203540629 48.99159170879284,51.72062733885832 49.89568190087448,52.27940896365908 50.52791280447855,52.29493060409732 51.1095652358199,52.605362602873356 53.87873659344041,54.576569791926886 55.35815690783784,55.78720164040715 55.5984046512167,55.77168086774327 56.01567704757326,55.383660297891765 56.39501558971824,55.25173275510315 57.337039636069676,55.39918116696208 58.165262119757244,55.71735813306441 59.100963857083116,56.485632418822206 60.52348339010496,58.02215264483675 60.795342678640736,58.17735460657423 60.83959884190699,58.34807631917647 61.21893738405197,58.642958178366825 61.364350491872756,58.89903866373061 61.920713687024545,59.29479734914639 62.38856455567293,59.80695192639541 62.95125005985028,60.07854734708235 63.03976238635369,60.33462194801541 63.46967940079048,60.78468991530099 63.55819172729389,60.69933244649292 63.5202578730532,60.86228751299495 63.716249453194905,61.102839453393244 65.82157836214174,63.20568956006173 65.81525605308707,64.06698411777325 65.70777679947787,64.43943214134197 65.39166134764673,65.1610438694479 64.48757115556509,66.55768805695698 66.81418088072678,69.69226469454588 66.89004858920816,70.32847145119013 66.71934624522692,71.53879813198 66.82050318975234,72.00430215265806 66.73831317233271,72.795651030734 66.80785857170122,74.0912692292186 66.63083391872351,74.37831872871175 66.29575153978658,75.91439905310835 65.3979836567014,77.41165314016689 65.40430596575607,77.69868739177036 64.97438895134837,77.80729460273142 64.58240579109406,78.17966075063305 63.893274106201716,78.58305490777275 63.58348096345435,78.61408511971968 63.02079545924789,79.01747647351294 62.31901915627532,79.18814126263169 61.98393677739659,79.38983541274501 60.87753269611858,79.55274175121303 59.960797885927605,79.53722688012203 59.208443110692315,79.38983541274501 57.93133668540395,78.46669147574721 56.742742586677196,76.97722041442466 56.30018095418927,76.72121400150354 55.55414848795044,75.85233593339944 55.16216532772523,75.77475694711757 54.82076063979184,75.51874560925353 54.194852045271546,75.41789237008925 53.35398494350375,74.72743120818632 52.999935637490125,74.58778645037819 50.61010282195639,74.9912037883405 49.79452495631995,74.97568778500136 46.14023033360718,75.62735660791805 44.56597538370988,76.14713520311489 43.69981904581073,76.31004999251309 42.6313488187443,76.76000291934179 41.15825081340154,77.10134435845976 39.70411973519367,77.66765672542533 39.13511192193255,78.00123558156338 39.723086662299465,79.04074897218379 39.65354126287275,79.56049918532517 39.742053589376155,79.92509750218596 39.37535966531141,80.24314961654454 38.57874872678076,81.36795508929208 38.648294126207475,81.91095738476724 36.90333683229983,84.5560868373068 36.65044447086984,85.32400668571063 35.09515644807834,87.92245339413057 34.56408248905791,89.09365824796987 33.723215387319215,90.56732855425071 33.55251304330886,90.66815735849377 33.40077762649162,91.09473896223062 32.901315212628106,91.69970424706844 32.47139819819131,94.13501812049799 32.7053236325155,95.63959140211227 33.96978543969453,98.29965044670098 34.21635549206985,98.40046678607177 34.35544629089418,98.67964964704879 34.7980079233821,99.01311643132067 35.537718080566265,100.15309410464397 36.707345252187224,101.26203204319609 36.941270686511416,101.29305100360216 36.75160141545348,101.33182468247833 37.00449377691257,101.35508887825563 37.37751001000288,101.76608824402501 37.7125923888816,101.89791765731206 37.94019551418023,101.85914432931168 38.76209568884224,102.5648151376663 39.72940897132503,102.90601575057372 40.69672225380782,103.45658554278634 42.62502650971874,104.23202773632511 43.07391045126133,104.51893891193322 43.0422989060753,104.63525387857226 42.561803419404896,104.565464924548 40.652466090541566,103.99164168426796 39.77998744361685,103.85981668291788 38.9833765050862,103.43332212846872 38.43333561898908,102.88275213156157 37.04242763109505,101.99872819767916 35.847511223342735,101.03714412028057 34.22267780112452,99.12168662861222 33.57147997041466,98.14454806884169 34.55143787100678,99.43188615397958 36.34697363714804,101.30080574129533 37.86432780575706,102.43298712973046 38.81267416110495,102.99131561305694 40.63982147249044,103.8520622624419 45.994817225815495,105.2943679382006 46.94948589021806,105.64330786452774 47.581716793822125,106.0 47.05064283477259,105.67432465268212 45.88101566315163,105.24784246766649 44.230893004802056,104.72830569619691 41.71461400858243,104.16999271455279 39.59664048158447,103.34802286868944 38.45862485512043,102.77418846164801 37.124617648572894,101.8746536633771 35.430238826957066,100.36247550059488 33.482967643940356,97.94291440265806 32.964538303000154,97.01228905881726 32.53462128856336,95.88776496084756 32.2943735452136,94.84853161170759 32.26276200002758,93.70070157519513 32.45875358014018,92.5528504721151 32.86338135841652,91.49029384920141 37.390154628054006,83.41582481386286 38.67358336233883,81.46104153204942 39.86849977009115,80.11903191076999 40.69039994475315,79.45189502032008 42.71353883622214,78.14863032301218 43.548083628935274,77.7607486782872 44.98324778009555,77.23322577888757 46.026428770972416,77.00825142354006 50.907251346623525,75.22394337583682 52.506795532710385,74.84380160133878 53.531009596481454,74.9912037883405 55.73117314095725,75.86785171910742 56.50249484332744,76.43417526136909 58.85439380464959,78.79250853958365 59.54352548957104,79.25795854210446 60.40335951844463,79.5449843161623 61.27583816536935,79.6148011970945 62.325341465329984,79.42086522423779 63.08401854961994,79.04850646983687 64.99335587842506,77.74523336244602 65.58133061876288,77.23322577888757 66.08079303256818,76.5505424770381 66.54864390121656,75.19291148092452 66.82682549880701,69.4905392485889 67.09236247831723,66.83701314856444 66.91533782531042,65.64987288596603 66.15033843196579,62.51509345544764 64.92381047902745,59.403436549706385 65.72674372658366,61.45202610591514 66.42219772050157,64.36959830603155 66.63715622771997,64.86619277237332 66.73199086327804,65.00585925496125 66.99752784275915,64.98258152953349 67.24409789519268,65.1222477519259 67.73723799994332,64.11354024213506 67.66137029154925,63.97387176500342 66.75095779038384,63.51606734559755 66.63083391872351,63.360878645551566 65.68880987237208,63.027221635238675 65.29682671214687,62.740119990863604 63.46967940079048,60.87780702096643 63.564514036348555,60.66053355851909 63.444390164659126,60.73813131041243 62.843770806270186,60.28030318098172 61.77530057920376,59.287037399022665 61.73736672496307,59.147358131900546 60.85224345998722,58.50327747121628 59.70790552449762,57.06765210242156 58.177906737837475,55.75616009122314 57.69741125107976,55.52334798069205 56.413982516824035,55.27501410642435 55.965098575281445,55.41470203218341 55.54150386987021,55.794962025283894 55.37712383494363,55.77944125454087 51.64696150380769,52.94683601956058 51.07795369057567,52.70625267029391 50.64171436714241,52.26388731935731 49.97154960932676,52.30269142286852 48.922046309366124,51.689583768682496 49.11803788950783,51.22392836444487 48.87146783710341,50.68065933827165 48.643864711833885,49.260376558195276 49.09907096240204,48.74037423884147 49.74394648405723,48.561864981704275 50.009483463538345,48.35230998526822 49.93993806416984,47.71587938922312 49.800847265374614,47.444230208639055 48.365683114214335,46.48180645953835 49.06113710819045,45.41070452539134 48.59960854853853,45.1623304383902 48.15072460702504,45.9928274208869 47.89783224556595,46.15582085918868 46.91155203600647,45.81431030981912 46.37415576793137,45.379657818550186 45.84308180894004,44.30853697952989 45.94423875352368,43.998063736500626 46.235064969194354,43.78073154787853 46.02010646194685,43.17530217664171 45.93159413544345,42.127429777014186" stroke="red" stroke-linecap="round" stroke-linejoin="round" stroke-width="0.5"><title>2024-10-27 42.8km</title><desc>1729986801000</desc></polyline><polyline fill="none" points="168.09630573249888,76.98556481185369 168.7016560509801,76.08136584878957 173.03082802554127,73.68521661277919 177.65350318478886,69.72923999768682 181.72585987264756,68.68936884497816 183.57859872607514,67.64949167973828 183.96382165607065,67.19736929768987 183.67031847126782,66.94870150300267 183.9271337579703,66.45136488234857 185.88993630581535,63.85162834364746 185.48636942671146,62.9699700272904 183.26675159239676,62.653476244042395 180.58853503176942,61.11621280221152 178.93757961783558,59.82761420457973 178.8642038217513,59.35286502521194 176.8647133759223,57.06953003356466 175.48891719745006,56.45912863941339 171.74675159237813,56.662596001056954 170.0774522292195,57.47646314522717 166.88560509553645,60.66407399489253 165.8583439490758,61.2744611161761 161.32738853502087,60.89014354068786 159.56636942666955,61.36488866173022 154.20993630576413,65.27583649339795 151.8435668789316,66.428758639624 149.86242038221098,66.36093989448273 144.90955414017662,64.2811526243022 142.41477707005106,64.55243058873748 138.9294267515652,63.89684147412481 135.35235668800306,64.3037591369357 131.18828025483526,65.88620796207397 128.9319745223038,66.36093989448273 120.01681528671179,70.11353868475999 117.1551592356991,71.69593639130471 117.06343949039001,72.05762534083624 116.27464968152344,72.55494645876752 114.6236942675896,76.69170064745413 114.0,77.25682361437066 115.72433121025097,72.66797379383934 116.73324840760324,71.51509164381423 117.06343949039001,72.12544193792564 117.28356687899213,71.65072522147966 119.72331210190896,70.11353868475999 134.82038216572255,64.37157865792688 139.1495541401673,63.98726770101348 142.3964331210591,64.64285648598161 144.90955414017662,64.3037591369357 147.99133757967502,65.34365564781183 149.66063694271725,66.24790859562927 151.58675159234554,66.45136488234857 153.0175796179101,65.8636016483506 160.06165605096612,61.13881971275259 161.25401273882017,60.935357415743056 164.7760509554064,61.41010241728509 166.09681528666988,61.229247326395125 170.05910828034393,57.47646314522717 171.65503184718546,56.775633324636146 175.085350318579,56.54955860640621 176.5528662421275,56.88867057724565 177.26828025479335,57.386033644434065 180.68025477719493,61.20664042732096 183.35847133758944,62.517835880687926 185.7798726115143,63.0603967201605 186.0,63.91944803514343 183.90878980897833,66.56439605327614 183.67031847126782,67.08433852453891 184.03719745215494,67.33300613160827 181.8542675159406,68.77979266215698 177.58012738858815,69.93269234606123 172.4621656051604,74.20513849849522 162.2445859872969,79.72073900329997 160.86878980894107,79.96938914008206 157.82369426754303,82.88535145630885 156.3745222929865,83.5408713605866 155.65910828020424,83.49566316801065 156.72305732476525,83.33743440455873 158.48407643323299,82.25243341982423 160.77707006363198,79.92418004992942 163.01503184717149,79.20083306111337 172.04025477706455,74.40858578376356 176.3877707007341,70.74649943805707 176.13095541403163,71.49248603754677 176.47949044592679,70.63347089551098 177.9286624203669,69.70663416702882 181.81757961784024,68.68936884497816 183.83541401277762,67.46864286327036 182.47796178341378,68.48591509008838 177.48840764339548,69.97790394780168 173.04917197453324,73.84345386753557 163.82216560514644,78.92957719038532 160.64866242045537,80.17282990540843 159.07108280260582,81.93597356646205 157.65859872614965,82.95316397100396 156.1543949045008,83.5408713605866 158.44738853513263,82.29764192484436 160.59363057336304,80.0372027540725 162.90496815287042,79.20083306111337 172.16866242035758,74.27295428579964 175.50726114655845,71.5829084454308 172.70063694263808,74.04690156191646 170.79286624211818,75.08674173927284" stroke="#4dd2ff" stroke-linecap="round" stroke-linejoin="round" stroke-width="0.5"><title>2024-10-13 16.0km</title><desc>1728810741000</desc></polyline><polyline fill="none" points="67.94041252858005,157.00460232706973 70.37891520245466,155.26490109188308 73.42245989304502,153.84149664953293 77.69442322384566,150.15866777116025 81.81970970204566,149.09673377308354 83.81818181823473,148.03479350147245 84.2948815888958,147.62809131048562 83.72650878527202,147.13100960518932 83.83651642478071,146.7243053693237 85.87165775394533,144.0129202802782 85.5233002291061,142.97354515190818 83.28647822758649,142.65721239818959 81.25133689830545,141.73080613113416 79.32620320853312,140.03614816456684 76.83269671502057,137.14389499688696 74.43086325435434,136.48861242174462 71.80901451490354,136.82755198306404 70.01222307106946,137.64100432231498 66.10695187165402,141.39187581602891 61.28495034377556,141.05294486180355 59.909854851081036,141.32408967628726 55.12452253617812,144.75855525693623 52.00763941940386,146.45316870091483 50.10084033606108,146.47576343886612 47.55233002291061,145.21045373739616 44.78380443085916,144.39703565447417 42.583651642431505,144.73596030306362 39.283422459848225,144.03551532498386 35.323147440794855,144.37444065521413 33.47135217720643,144.9619097137038 20.838808250497095,149.8649419738067 17.593582887668163,151.51431907813821 16.126814362127334,152.82477229027427 14.421695951023139,157.02719573889044 14.0,157.32090983375383 15.74178762419615,152.7343965133041 16.8051948051434,151.51431907813821 17.025210084044375,152.03398270180332 17.593582887668163,151.42394264233008 21.333842627936974,149.61640438575705 35.524828113033436,144.3518456530437 39.33842627960257,143.9903252326476 42.4919786095852,144.69077038684918 44.93048128345981,144.39703565447417 48.06569900678005,145.36861793715798 49.93582887691446,146.40797921638296 51.585943468264304,146.5209529063286 53.40106951864436,145.86570451616717 57.89304812834598,142.4538553339371 60.07486631011125,141.23370811693894 61.59663865540642,140.98515859431063 65.72192513360642,141.3692804389284 66.96867838036269,140.66882234114746 69.18716577545274,138.13811227281985 70.80061115359422,137.18908681054018 72.45072574482765,136.69197623521904 76.2459893047344,136.78236007846135 80.99465240642894,141.39187581602891 83.12146676855627,142.54423627976212 85.74331550800707,143.19949677804834 85.98166539345402,144.08070540594053 84.3132161955582,146.06905772046593 83.78151260502636,147.1536042580119 83.87318563787267,147.60549671735498 81.98472116119228,148.75781734673365 77.52941176469903,150.09088493748277 72.3223834988894,154.33855979898362 61.98166539333761,159.85134985245531 60.62490450718906,160.19024536470533 58.864782276563346,162.2010122640495 56.53628724219743,163.51138757825538 58.809778456809,162.17841950252478 60.45989304804243,160.12246631330345 62.0916730328463,159.760977607948 73.0557677615434,153.79630902224744 77.34606569900643,150.0005077860842 82.20473644009326,148.55446718419262 84.03819709701929,147.37955062967376 83.67150496551767,147.13100960518932 83.96485867071897,146.47576343886612 85.92666157369968,144.08070540594053 85.7249809014611,143.1543064754951 83.35981665388681,142.67980761332728 80.66462948813569,141.27889890232473 77.14438502665143,137.36985395163356 75.84262796025723,136.71457220027514 74.02750190976076,136.62418832298135 71.0939648586791,137.09870317182504 69.315508021391,138.11551648673776 67.20702826580964,140.51065400573134 65.55691367457621,141.4596619302174 61.229946524021216,141.05294486180355 59.21313980128616,141.64042477618204 60.881588999181986,140.96256316608924 65.75859434681479,141.3014942907903 66.69365928182378,140.804395089217 69.33384262793697,138.04772911134933 70.6172650877852,137.18908681054018 72.65240641706623,136.57899636727234 75.82429335359484,136.5112084124121 77.2727272727061,137.3924498314591 79.74789915955625,140.4428675336967 81.41634835745208,141.70821079664165 83.39648586697876,142.6346171801706 85.37662337662186,142.8153788446507 85.77998472121544,143.10911616169324 86.0,144.05811036683735 84.16653934307396,146.11424729017017 83.76317799836397,147.06322562979767 84.1298701298656,147.37955062967376 81.69136745599099,148.80300624055963 77.56608097779099,149.84234766183363 73.16577540105209,153.75112138375698 62.165011459146626,159.69319839471427 60.80825057299808,160.00950117102184 60.07486631011125,160.61951209652761 60.84491978609003,159.9417220514879 61.79831932776142,159.82875679557037" stroke="#4dd2ff" stroke-linecap="round" stroke-linejoin="round" stroke-width="0.5"><title>2024-10-06 17.8km</title><desc>1728199446000</desc></polyline><polyline fill="none" points="167.2298697847873,157.45137145889748 169.92771724693011,155.49438044642739 172.93170342815574,153.93820434765075 176.77757108700462,150.47212936871802 182.07759766152594,148.93949076131685 183.91442997613922,147.80768805956177 184.10576667555142,147.61905361208483 183.5317565773148,146.93525214973488 185.7512622907525,143.89348440457252 185.40685623174068,142.8323910287436 183.07254849851597,142.40795199776767 180.41296837630216,141.04030858706392 178.5570023917826,139.41327154138708 176.3183630083222,136.7486731432873 174.76853574276902,136.13557434971153 173.23784214723855,136.30063960670668 172.1854903002968,136.01767050582566 169.2771724688355,137.03164114132232 166.21578527765814,140.42722382109787 165.1634334308328,141.063888730263 164.5320223227609,141.22894965024898 160.5522189742187,140.6630258912628 159.15546106826514,140.8516673339618 155.7305341482861,142.92671068300842 152.65001328731887,145.30826623545727 150.43050757376477,146.3929250795045 148.36407121981028,146.36934560614463 143.9250597928185,144.36507953381806 142.31783151743002,144.22360111952003 140.69146957213525,144.60087665381434 137.63008238107432,143.75200563456747 136.38639383472037,143.72842582923477 132.368323146482,144.41223898154567 126.76215785287786,146.4400840174494 116.42997608298901,150.56644518175744 114.1339356895769,151.9104403647798 114.0,152.33485789582483 114.28700504917651,151.36812767780793 116.50651076273061,150.00054959242698 132.6170608557295,143.98780352529138 135.12357161846012,143.70484602093347 136.25245814514346,143.94064397085458 138.01275578001514,143.5633671086689 140.27052883338183,144.17644162442593 142.93010895559564,143.8463248264161 146.1254318363499,144.78951413644245 148.59367525903508,146.0156531494722 150.44964124367107,145.89775551571802 158.42838161042891,140.5922853013617 159.67207015678287,140.30932267478784 164.5511559926672,140.7573466363683 165.75657719909213,140.0027793476911 168.95190007972997,136.77225382608594 171.32447515288368,135.89976658784144 173.33351049700286,136.01767050582566 174.95987244229764,135.6403777072992 177.12197714601643,136.7486731432873 178.6144034016179,138.6586988458148 178.30826468241867,138.98882477366715 180.79564177524298,141.34685021852783 183.12994950835127,142.45511193752463 184.60324209404644,142.6909114584414 185.42598990164697,143.63410657808708 185.8660643104231,143.61052675788233 183.6274249269627,146.86451392510207 183.8187616263749,147.43041897486546 181.98192931176163,148.77443662591395 176.98804145632312,150.2363396287692 171.7645495615434,154.66913715323608 160.8583576933015,160.42218626808608 159.59553547715768,160.6579632062494 157.37602976348717,163.01571629162936 154.94605368061457,164.35962229271536 154.62078129162546,164.28889063786482 155.4243954292033,164.1002727613377 157.43343077332247,162.82709713515942 158.3135795907583,161.60106799598725 159.69120382680558,160.49291938066017 162.02551155991387,159.73843147167645 169.3537071485771,155.87163331432384 173.33351049700286,153.27800452700467 173.60138187627308,153.39589752258325 175.70608557004016,151.7925464357686 176.0696252990747,150.87297124654287 176.6627690672176,150.3778135083412 177.84905660385266,149.71760115760844 181.86712729209103,148.75085745182878 183.8378952962812,147.35968093702104 183.5508902471047,147.07672851881944 183.684825936798,146.65229909136542 185.78952963056508,143.98780352529138 185.6938612809172,143.16250961110927 185.11985118268058,142.76165125698026 182.99601381877437,142.47869190294296 181.1400478341384,141.55907105458027 178.9779431304196,139.81413705128944 176.8158384268172,137.14954434781976 175.80175391968805,136.4657047183864 172.85516874829773,136.18273586660507 170.34865798568353,136.6307696848089 169.10496943932958,137.2202862362319 165.96704756852705,140.52154468471417 164.7616263619857,141.2053695278155 160.4756842944771,140.733766454563 158.1222428913461,141.2053695278155 151.57852777047083,145.9449145781109 150.39224023395218,146.4400840174494 148.24926920013968,146.3929250795045 143.40845070418436,144.29434034004225 140.50013287272304,144.62445634955657 136.65426521387417,143.86990461702226 132.02391708747018,144.53013754893618 119.03215519536752,149.57612678021542 132.4065904862946,144.29434034004225 136.8647355834255,143.70484602093347 140.61493489251006,144.60087665381434 143.08317831519525,144.1528618723969 145.76189210743178,144.97815142929903 148.7276109487284,146.3929250795045 150.66011161310598,146.25144819472916 158.58145097002853,140.89882766504888 159.59553547715768,140.6630258912628 164.7807600320084,141.04030858706392 166.12011692801025,140.19142145443766 168.33962264168076,137.76263982709497 169.64071219763719,136.86657652769645 171.32447515288368,136.30063960670668 174.92160510236863,136.01767050582566 176.29922933829948,136.53644686461485 179.1692798299482,139.83771734866605 181.40791921352502,141.58265113261587 182.97688014886808,142.3607920461218 185.6173266011756,142.85597094672266 186.0,143.68126620960538 184.25883603515103,145.5440621698508 183.5317565773148,147.1003079033253 183.684825936798,147.5247363171802 183.01514748868067,148.09063937522296 180.94871113472618,149.05738648331317 177.0071751262294,150.09486564253166 171.9750199309783,154.38619575984194 169.6024448578246,155.65942866950354" stroke="#ffb200" stroke-linecap="round" stroke-linejoin="round" stroke-width="0.5"><title>2024-09-22 20.6km</title><desc>1726992504000</desc></polyline><polyline fill="none" points="66.47974582994357,237.1535876543203 68.0428911835188,235.93206904463295 68.65289912628941,235.8615965735371 71.7982525813859,233.93533874247805 76.56393963471055,229.87133941320644 80.71961874503177,228.74374012342014 83.04527402704116,227.56915029560332 83.38840349484235,227.21677190774062 82.83558379660826,226.7469330237509 82.9308975378517,226.34756904364622 86.0,222.21292709615955 82.64495631458703,222.18943455103727 80.62430500402115,221.20274498830258 77.6695790309459,218.7594912689092 75.80142970615998,216.43367199336353 74.65766481333412,215.7993526216742 70.13979348691646,216.1047659212345 66.97537728352472,218.1721659009345 65.12629070691764,220.38049970653083 63.8109610802494,220.92083272778837 59.84590945194941,220.3335141526477 58.09213661646936,220.68590551921807 50.9054805401247,225.59582276608853 49.475774424150586,226.13614070870972 47.09293089772109,225.78375961899292 45.87291501194704,224.86756567606062 42.70849880867172,223.71644384269894 40.00158856238704,224.20978263950383 37.40905480540823,223.38755058795505 35.65528196992818,223.31707338665728 30.75615567911882,224.37422861567757 16.840349483769387,229.75388147127524 14.209690230316482,231.2338461450563 14.0,230.88147466667579 15.868149324902333,229.6599150645634 22.330420969054103,227.099312297476 29.898332009557635,224.30375178639952 29.917394757736474,224.6326434287912 32.64336775219999,223.73993619588146 37.33280381257646,223.36405819049105 40.00158856238704,224.0923211393383 43.07069102465175,223.85739791749802 44.366957903141156,224.13930574820552 47.26449563144706,225.73677542347286 49.55202541698236,225.99518835257913 51.05798252590466,225.43137786477746 57.95869737886824,220.5214562974288 59.50277998414822,220.26303579953674 63.23907863383647,220.80336916049419 64.38284352666233,220.59193455310015 65.20254169974942,220.16906462075713 68.74821286741644,216.5746315613942 70.88324066717178,215.8698326581216 74.27640984905884,215.75236591580324 75.26767275622115,215.94031266808452 76.14455917407759,216.64511130549363 78.73709293093998,219.76968658382248 80.43367752188351,221.10877428205276 82.30182684678584,222.00149408355355 83.92216044478118,222.23641963831324 84.76092136616353,223.22310374355584 85.21842732327059,223.0821491903771 85.21842732327059,223.52850491087884 84.76092136616353,223.71644384269894 83.02621127886232,226.39455308565812 82.87370929319877,226.79391696531093 83.21683876088355,227.00534455610614 81.19618745031767,228.4148557157605 76.52581413823646,229.68340667069424 70.55917394754943,234.56959656199615 68.15726767282467,235.57970642363944 60.34154090541415,239.92546565788507 59.04527402704116,240.18385897039843 56.89118347899057,242.4858927156456 54.43208895949647,243.87179731891956 56.83399523445405,242.36844270060828 58.892772041261196,240.13687839468184 60.70373312162701,239.64358163675934 71.70293884037528,233.7004278927925 76.33518665609881,229.68340667069424 80.98649722000118,228.3913639501843 82.81652104842942,227.26375573118275 83.15965051623061,226.9583606677188 82.83558379660826,226.72344104858348 83.12152501987293,226.04217248311033 85.14217633043882,223.36405819049105 84.79904686252121,222.49483740748838 82.43526608427055,222.11895689787343 80.09054805408232,220.9443254324433 77.74583002377767,218.82997018902097 76.01111993647646,216.5746315613942 75.19142176338937,216.05777929224132 73.74265289923642,215.75236591580324 70.94042891182471,215.94031266808452 68.40508339949884,216.99750962741382 65.46942017471883,220.09858620569867 64.09690230339766,220.8268618797738 59.69340746616945,220.35700693108083 58.09213661646936,220.66241278209782 49.87609213660471,226.08915660183993 47.95075456716586,226.04217248311033 45.54884829232469,224.82058125030017 42.4416203337023,223.8339055791148 39.83002382842824,224.20978263950383 37.237490071565844,223.50501253105176 35.884034948423505,223.52850491087884 32.75774424150586,223.90438258548966 30.203335981001146,224.70312013397051 30.108022239874117,224.28025950412848 31.766481334459968,223.5989820324321 36.703733121510595,223.10564162326045 37.18030182691291,223.50501253105176 39.92533756955527,224.1627980482881 42.59412231936585,223.8339055791148 45.281969817355275,224.67962790187448 47.81731532968115,225.94820421020268 49.41858617961407,226.06566454393032 51.0770452740835,225.43137786477746 57.17712470225524,221.20274498830258 59.369340746547095,224.6326434287912 59.788721207296476,224.65613566685352 60.360603653709404,225.68979121613665 61.80937251786236,225.99518835257913 62.419380460632965,227.16978807248233 64.44003177131526,229.2370656497951 64.6306592534529,230.29418739298126 65.66004765685648,231.11638905943255 64.89753772842232,231.68018239739467 66.25099285156466,236.66028302288032 60.1890389197506,239.9959365966788 59.02621127886232,240.23083953432797 55.918983320123516,243.16710134707682 53.764892772072926,243.98924638918834 53.822081016609445,244.2476340841822 55.53772835584823,243.63689895678544 58.39714058779646,241.4053497943678 56.31930103257764,243.3550205326028 53.68864177924115,244.20065452985 53.74583002389409,243.91877695584844 55.08022239874117,243.58991924893053 56.92930897534825,242.34495268881437 59.02621127886232,240.06640750898805 60.26528991269879,239.87848501716508 65.64098490867764,237.03613428868994" stroke="#4dd2ff" stroke-linecap="round" stroke-linejoin="round" stroke-width="0.5"><title>2024-08-22 19.7km</title><desc>1724317734000</desc></polyline><polyline fill="none" points="166.5336179296719,228.99030550956377 166.84098185715266,228.20122218655888 172.3479188901838,225.3920654329704 179.18676627555396,219.4895775190962 185.10352187848184,218.03760735955439 186.0,217.53257229266455 185.76947705447674,217.2484896213282 178.8794023480732,219.36331957762013 172.42475987202488,224.91860895324498 169.24866595526692,226.71773882766138 167.99359658488538,226.9386837130878 158.84951974393334,232.33599125727778 155.4172892209608,233.47225174980122 152.47171824984252,236.53381693543633 149.5773745997576,238.3013014938042 146.99039487726986,238.3013014938042 146.7598719317466,237.57537184117245 144.91568836721126,237.4491229916748 143.68623265752103,239.05879106841167 142.37993596598972,239.69003063542186 140.74066168616991,239.27972509729443 135.43863393820357,239.5953448015207 128.06189967982937,241.01562856213422 122.73425827117171,241.52061640835018 120.12166488799267,242.08872652167338 118.76414087519515,242.8462046738714 117.97011739597656,242.37278109643376 114.0,242.18341141566634 114.43543223058805,241.61530151646002 118.73852721462026,242.0256032391917 118.76414087519515,242.78308158175787 119.8911419424694,241.99404159205733 123.01600853796117,241.23656086978735 134.77267876209226,239.8794021962094 135.51547492004465,239.4690969674557 140.2796157952398,239.12191509653348 142.17502668092493,239.53222089234623 143.68623265752103,238.83785684523173 145.04375667020213,237.2597495985392 146.862326574279,237.48068521003006 147.14407684106845,238.14349087822484 149.88473852723837,237.92255584985833 152.26680896489415,236.59694159807987 155.4172892209608,233.3144380999438 157.38954108860344,232.84099655528553 171.4770544291241,225.4236291665875 178.39274279633537,219.45801303966437 185.69263607275207,217.1537953260995 178.67449306312483,219.4895775190962 171.78441835648846,225.20268294826383 157.33831376745366,233.03037328025675 155.16115261486266,233.59850259832456 153.16328708652873,235.902569435857 149.0907150481362,238.49067410166026 152.7022411953658,236.2497557569004 155.03308431163896,233.50381446784013 158.4140875133453,232.3675541181874 165.58591248677112,228.57998249103548 167.8399146212032,226.9702472522331 171.73319103533868,225.3920654329704 178.23906083253678,219.71052876391332 185.12913553894032,217.46944283798803 178.7001067235833,219.45801303966437 172.06616862327792,225.1711191868526 168.32657417282462,227.19119191548089 167.68623265740462,227.0333743187075 165.25293489871547,228.83248904324137 156.9541088581318,233.21974986238638 155.23799359670375,233.53537718200823 157.64567769493442,232.6516196874727 157.5944503735518,232.14661400881596 160.18143009615596,229.9372022243333 160.48879402363673,228.4537291196757" stroke="#4dd2ff" stroke-linecap="round" stroke-linejoin="round" stroke-width="0.5"><title>2024-07-03 11.0km</title><desc>1719998343000</desc></polyline></svg>