<?xml version="1.0" encoding="utf-8" ?>
<svg baseProfile="full" height="300mm" version="1.1" viewBox="0,0,200,300" width="200mm" xmlns="http://www.w3.org/2000/svg" xmlns:ev="http://www.w3.org/2001/xml-events" xmlns:xlink="http://www.w3.org/1999/xlink"><defs /><rect fill="#222222" height="300" width="200" x="0" y="0" /><text fill="#FFFFFF" style="font-size:12px; font-family:Arial; font-weight:bold;" x="10" y="20">Over 10km Runs</text><text fill="#FFFFFF" style="font-size:4px; font-family:Arial" x="10" y="280">Runner</text><text fill="#FFFFFF" style="font-size:9px; font-family:Arial" x="10" y="290">jianbo</text><text fill="#FFFFFF" style="font-size:4px; font-family:Arial" x="65" y="280">SPECIAL TRACKS</text><rect fill="yellow" height="2.6" width="2.6" x="65" y="283" /><text fill="#FFFFFF" style="font-size:3px; font-family:Arial" x="70" y="285.5">Over 20.0 km</text><rect fill="red" height="2.6" width="2.6" x="65" y="287" /><text fill="#FFFFFF" style="font-size:3px; font-family:Arial" x="70" y="289.5">Over 40.0 km</text><text fill="#FFFFFF" style="font-size:4px; font-family:Arial" x="120" y="280">STATISTICS</text><text fill="#FFFFFF" style="font-size:3px; font-family:Arial" x="120" y="285">Number: 14</text><text fill="#FFFFFF" style="font-size:3px; font-family:Arial" x="120" y="290">Weekly: 1.0</text><text fill="#FFFFFF" style="font-size:3px; font-family:Arial" x="141" y="285">Total: 233.2 km</text><text fill="#FFFFFF" style="font-size:3px; font-family:Arial" x="141" y="290">Avg: 16.7 km</text><text fill="#FFFFFF" style="font-size:3px; font-family:Arial" x="167" y="285">Min: 10.0 km</text><text fill="#FFFFFF" style="font-size:3px; font-family:Arial" x="167" y="290">Max: 42.8 km</text><polyline fill="none" points="19.65118761663325,73.35006584104849 19.64473581247148,73.12745316404471 21.154457978729624,72.364203752717 23.031932980346028,70.82177579109702 24.683594837464625,70.32882696545857 22.99322215555003,70.89333255938254 21.32865669025341,72.28469807607325 17.88339328521397,74.15305505959986 17.11562859386322,74.39156474531774 16.322056685952703,75.2183913606932 15.651069056504639,75.59999999999854 16.463996376784053,75.06733730503038 17.10917678970145,74.36771381722065 17.805971635651076,74.15305505959986 20.857674988772487,72.51526426297642 20.941548442468047,72.6027201830002 21.25768684479408,72.44370932939637 22.57385488715954,71.39422767096403 22.72224638215266,71.06824876331666 22.922252310148906,70.91718479749397 24.61907679613796,70.38448267040803 25.541684786614496,69.89153043689294 26.406226539926138,68.32518897208502 27.580454891431145,67.52212576859165 28.45790025300812,66.13860683007806 28.754683242965257,65.88416327076266 29.50309252194711,65.81260083527013 30.83861597671057,66.47256244819437 31.167657987272833,66.47256244819437 31.987037111684913,66.11475278985745 32.30317551404005,65.73308692307182 32.69028376179631,64.89023330793134 32.94835592692834,64.63578472619702 33.3741749994515,64.47675384274771 34.13548788672779,64.44494761808164 34.76776469137985,64.09507809086062 34.961318815272534,63.40328491942637 35.148421135003446,60.34181049721519 35.374234279530356,59.785162859880074 36.05812551724375,59.10922699820367 37.00008892006008,58.711614292544255 38.21302809639019,59.093322537977656 38.335612374852644,59.236462535962346 38.96788917950471,59.26827138040244 39.32919021075941,59.11717922682146 39.090473457967164,58.90246870330884 39.82597912871279,58.115190546086524 40.74858711916022,57.53466603011475 43.67770619384828,56.882563642306195 45.806801556493156,56.97004118246696 46.271331453783205,56.8587061103608 46.74876495933859,55.68172335708368 47.17458403186174,53.669668313690636 46.9358672790695,52.09497187339002 47.381041764019756,50.93380694930238 47.36813815575442,50.77474160012207 47.29071650619153,50.989479726951686 47.16168042362551,48.97727533892612 47.29071650619153,48.834112111799186 47.271361093822634,48.18987357729202 47.52943325898377,46.09008759265271 48.05848119757138,44.745869792677695 48.01977037280449,44.54701857841428 47.993963156302925,44.87313424151944 48.00041496040649,44.59474292689265 47.54878867138177,43.9106904885557 47.49072243421688,43.56866149308189 47.95525233150693,41.07895279785589 48.69720980638522,39.09825186673697 50.0456368693558,36.226522995129926 51.123088158958126,33.48990645146114 51.6585879016784,32.80573379544512 52.348930943524465,32.39999999999418 51.49084099428728,32.988710929173976 51.071473725955,33.617193570084055 50.03918506525224,36.226522995129926 49.54239614729886,37.11748885264387 49.20045052844216,38.151629898864485 48.70366161048878,39.05847811985586 48.99399279631325,39.360757968323014 48.839149497187464,39.51189735031949 48.17461367190117,41.174406696489314 47.91654150674003,42.76528378218063 47.66492114571156,42.78914663361502 47.52943325898377,43.73569914073596 48.03267398106982,44.51520232606708 48.026222176937154,44.82541010322893 48.01977037280449,44.48338605772733 48.084288414072944,44.666329382052936 48.026222176937154,45.11175439237559 47.8842824861058,45.183340261966805 47.66492114571156,45.61285377693275 47.213294856628636,48.68299502028822 47.35523454748909,50.63158244366059 46.96812629973283,52.150643628498074 47.213294856628636,53.62990373478533 46.781023979972815,55.665818034693075 46.22616882488364,56.84280108404346 45.71647629869403,57.001851167071436 43.671254389715614,56.914373670915666 40.82600876872311,57.52671360245586 39.993726036074804,57.94023851330712 39.10982887036516,58.90246870330884 39.3485456231283,59.11717922682146 38.96143737537204,59.220558107736 36.94202268292429,58.73547112540109 35.99360747591709,59.14103590665036 35.406493300164584,59.785162859880074 35.21939098040457,60.2861459539854 34.980674227670534,63.554366832635424 34.91615618637297,63.80881976533419 34.52259613445494,64.2779646760755 34.17419871149468,64.452899175747 33.33546417471371,64.51651160109759 32.89028968979255,64.69144544092705 32.032199740584474,66.1068014411212 31.245079636835726,66.45665983969957 30.857971389079466,66.4646111444381 29.445026284753112,65.80464944853156 28.799845871835714,65.87621189304627 28.509514686040347,66.14655817479797 27.625617520330707,67.47441872276977 27.30302731390111,67.79246501516172 26.651395096851047,68.12641190097202 26.348160302761244,68.45240596975782 25.94169664263609,69.35881967203022 25.483618549449602,69.95513739256421 25.328775250323815,69.89153043689294 24.851341744768433,70.28907286050526 24.851341744768433,70.4162859084172 24.61262499197619,70.53554790843191 23.025481176184257,70.98079072182736 21.502855401689885,72.30059921940847 19.335049214278115,73.46137188577268" stroke="#ffa900" stroke-linecap="round" stroke-linejoin="round" stroke-width="0.5"><title>2026-01-18 21.1km</title><desc>1768694323000</desc></polyline><polyline fill="none" points="83.93846153846243,71.33112477349641 84.19606440071948,70.87612736130541 85.95635062607471,70.05077694264764 86.63470483006677,69.57460955904389 88.15456171735423,68.12492783272319 88.87584973167395,67.7863124462383 90.40429338108515,67.41595030787721 91.41753130586585,66.78103999411542 91.6493738819263,66.79162187190377 92.21610017889179,65.97681338927214 92.76565295166802,64.77045907622232 94.27692307688994,63.70165704003011 95.66797853307799,61.638089962885715 96.45796064398019,61.22537047680089 96.62969588546548,60.92905780295405 97.11914132378297,61.01371867333364 98.15813953487668,61.51109956730215 98.34704830055125,61.64867248718656 98.17531305900775,61.90265267164068 98.70769230771111,62.14604962930753 99.23148479429074,62.16721454888466 100.29624329158105,61.75449765716621 100.73416815744713,61.15129240613169 101.13774597493466,60.1565234269292 101.60143112699734,59.690882844050066 103.18998211092548,59.47922718208429 103.97996422182769,59.013582852283434 104.23756708408473,58.23044794276939 104.51234347047284,53.98657663094491 104.85581395350164,53.20339494445943 105.58568872982869,52.420205969625385 106.91663685149979,51.880436352526885 108.29051878355676,52.282617964614474 108.73703041143017,52.5154590720922 108.66833631484769,52.684797654728754 108.80572450801264,52.50487539938331 109.62146690516965,52.57896108052228 110.0765652951668,52.388454911524605 109.75885509839281,52.092111124802614 110.6690518783289,51.18190582647367 110.8150268336176,50.8326383891108 111.87119856884237,50.29285858925141 115.86404293379746,49.41438602224662 118.68908765655942,49.55197871674318 119.27298747765599,49.34029755512165 119.97710196778644,47.57273906892806 120.49230769230053,45.21240846721048 120.18318425759207,43.021369683636294 120.77567084081238,41.4759650203996 120.76708407874685,41.28543371282285 120.65545617172029,41.60298565240373 120.7327370304265,41.09490197377454 120.4579606440384,39.051951210836705 120.67262969590956,38.617950100495364 120.59534883720335,37.919309463912214 120.99892665474908,34.87062787911418 121.3509838997852,33.87554816827469 121.55706618959084,33.684999646829965 121.59999999997672,33.86496215064108 121.42826475849142,33.90730621323746 121.14490161003778,34.404847352161596 120.56958855094854,38.46975408664002 120.7327370304265,40.50213380406058 120.64686940965476,41.57123051238159 120.7327370304265,41.26426354090654 120.7584973166231,41.518305252357095 120.23470483004348,43.14838798264827 120.51806797849713,45.222993057148415 119.99427549197571,47.72091905043635 119.2042933810153,49.36146569526318 118.67191413242836,49.62606699751632 115.76958855096018,49.477890370748355 112.04293381038588,50.282274637007504 110.77209302323172,50.99139649488643 109.76744186045835,52.113278572724084 110.06797853310127,52.388454911524605 109.71592128800694,52.589544743961596 108.72844364936464,52.52604274350597 108.65974955278216,52.75888317748468 108.65974955278216,52.40962228493299 106.9423971377546,51.89102010377974 105.68872987478971,52.39903859888 104.90733452595305,53.23514569514373 104.55527728080051,54.060661007744784 104.2805008944706,58.209282033276395 103.98855098389322,59.04533141117281 103.2672629695735,59.46864438501507 101.567084078677,59.76496219998808 101.172093023255,60.19885426129622 100.6053667262895,61.37352642260521 100.0128801431274,61.91323516268312 100.09874776384095,61.97673008107813 98.88801431126194,62.22012682458444 96.83577817532932,61.25711820140714 96.03720930230338,61.405274091303 95.6937388193328,61.680420052143745 94.27692307688994,63.76515060944803 92.88586762076011,64.68580198406562 92.18175313057145,66.1355429329924 91.70089445443591,66.75987623450055 91.40894454380032,66.75987623450055 90.83363148476928,67.24664135903731 90.1466905187699,67.5429317960079 88.36064400715986,68.01911067076435 87.94847942754859,68.32598007402703 87.76815742393956,68.73866474928218 86.03363148478093,70.13542864002375 82.65903398924274,71.9025133896721 80.46940966008697,72.74900791556865 79.60214669053676,73.72246609938884 79.07835420389893,74.0822195365181 78.40000000002328,74.31500035317003 79.56779964221641,73.680142064557 80.41788908763556,72.73842678654182 82.0322003577603,72.0718129757006 85.8790697674267,70.0190325342046 86.51449016097467,69.54286497103021 85.83613595704082,70.10368426346395 83.71520572452573,71.1935676756766" stroke="#4dd2ff" stroke-linecap="round" stroke-linejoin="round" stroke-width="0.5"><title>2025-12-28 16.0km</title><desc>1766878702000</desc></polyline><polyline fill="none" points="146.14076561451657,70.31178478766378 148.90664875757648,68.72676961356046 151.024580255209,66.86762030641694 153.86783075891435,66.00953910036333 153.86783075891435,65.818853333265 154.5447951645474,65.24679373113759 154.8639355272171,65.25871167471632 156.1501678979257,62.9466025736474 157.88126259233104,61.71901657880517 159.29321692412486,59.51408919754613 159.62202820688253,59.23995950654353 160.80188045668183,59.07309756742325 162.74573539290577,60.05042760470678 163.34533243789338,60.08618339062377 164.5638683680445,59.59751981576119 165.04741437203484,58.95391028825543 165.49227669578977,57.881218032453035 166.00483545998577,57.34486735283281 166.7494963062345,57.13032623131585 167.74560107453726,57.09456933050387 168.73203492275206,56.558214200158545 169.0028206850402,55.688120534221525 169.33163196779788,50.824984215818404 169.65077233040938,50.06211666415038 170.82095366017893,48.965483801744995 172.07817327062367,48.48868294752174 174.02202820690582,49.08468364053988 173.96400268637808,49.549561579442525 174.109066487581,49.191963367266 174.93109469441697,49.32308286838088 175.55970449966844,49.096603616155335 175.62740094022593,48.97740379234892 175.24056413699873,48.75092371419305 176.32370718603488,47.57083455040993 177.81302887841593,46.6648975462449 182.0488918737392,45.78279266891332 185.12424445938086,45.91391688637668 185.9946272666566,45.54438453599141 186.63290799193783,44.0543201178225 187.30020147748291,40.99067407257098 186.99073203490116,38.53491740336176 187.59999999997672,36.877841749970685 187.00040295504732,38.58260260474344 187.35822699801065,40.27541170818586 187.32921423774678,41.00259506625298 186.73928811278893,43.82782827516348 185.8689053055714,45.68742948772706 185.19194089993834,45.91391688637668 182.09724647417897,45.80663344921777 177.87105439894367,46.676817826213664 176.48811282741372,47.38011169019592 175.23089321696898,48.762843731783505 175.5693754197564,49.096603616155335 174.9891202149447,49.34692275820271 174.0703828072874,49.25156316299399 173.99301544658374,49.41844239161583 173.97367360640783,49.08468364053988 172.02014775015414,48.56020322856784 170.66621893888805,49.060843684776046 169.6894560107612,50.07403651687491 169.36064472806174,50.884582984712324 169.03183344524587,55.64044393817312 168.71269308257615,56.570133236011316 167.83263935527066,57.08265036058583 166.63344526529545,57.166083118609095 165.96615177975036,57.39254309167882 164.5638683680445,59.60943846948794 163.45171255874448,60.074264796829084 162.88112827402074,60.11002057375299 160.66648757556686,59.10885372199118 159.5833445265307,59.28763429238461 159.02243116189493,59.919322940928396 158.12303559435531,61.504485355864745 157.6975151108345,61.94546567637008 156.22753525857115,62.839338411758945 155.47320349229267,64.47212418488925 154.58347884489922,65.54474187127926 153.71309603756526,66.10488184003043 151.20832773670554,66.80803158468916 148.60685023508267,69.00087187672762 144.40000000002328,71.12215825002204" stroke="#4dd2ff" stroke-linecap="round" stroke-linejoin="round" stroke-width="0.5"><title>2025-12-21 12.2km</title><desc>1766291458000</desc></polyline><polyline fill="none" points="21.993520081043243,109.67247217085969 22.212217347230762,109.31314247878618 25.88633142085746,107.31884627068939 29.166790415125433,104.39023474525311 32.69510631117737,103.45594114402775 34.35720553493593,102.53960879576334 35.71312858595047,100.94050494146359 36.63165710429894,98.76641370300786 38.031319608562626,97.70630763459485 38.031319608562626,97.29304381695692 39.12480593996588,96.52041695269872 40.02875464060344,95.44232597626979 41.355518056079745,92.89081160140631 42.390685116522945,92.33378480013926 43.16341545735486,92.13612960683531 43.294633817102294,92.33378480013926 43.04677691531833,92.72909436664486 43.979885251494125,92.81893729744479 46.96874789072899,94.18454289251531 47.61025987181347,94.27438490842178 49.52021599729778,93.50174172598054 50.26378670276608,92.58534555985534 51.065676679078024,90.73456675861962 51.852986837679055,90.0158112484205 54.477354033093434,89.67440111482574 55.600000000034925,89.04548557577073 54.273236584616825,89.74627700021665 51.750928113469854,90.06971803712077 51.00735740811797,90.89628625025216 50.22004724945873,92.69315717850986 49.6222747216234,93.4478362318041 48.32467094162712,94.07673239886935 46.954168072901666,94.27438490842178 43.7757678029011,92.78300013190892 42.871819102263544,92.78300013190892 41.66169422882376,93.34002518244961 39.620519743533805,96.68212989780295 37.38980762741994,98.10160234211071 36.79203509964282,98.74844586903055 35.96098548773443,100.6530236996623 34.896658791753,102.12635895211133 34.400944988185074,101.98261959597585 33.87607154913712,102.6474129063572 32.84090448875213,103.22236678960326 29.472966587985866,104.19259622346726 25.696793790149968,107.42664677699213 16.96348295651842,112.02605932156439 15.855416807287838,112.31351769232424 14.499493756331503,113.85859653238731 12.735335808305535,114.95451442424383 14.557813027349766,113.71486897263094 15.913736078306101,112.18775472619745 17.021802227420267,111.90029610261263 25.244819439772982,107.6602142618649 29.050151873147115,104.3003990874131 32.884643942001276,103.13253039770643 29.516706041176803,104.10276044142665 25.915491056395695,107.22901245333196 17.167600404995028,111.91826228352147 15.972055349266157,112.24165315381833 14.455754303082358,113.93046025809599 12.662436719576363,114.91858282333123 14.36827539652586,113.85859653238731 16.044954438111745,112.07995781011414 17.809112386079505,111.52300578189897 25.084441444429103,107.64224754580937 29.370907863776665,104.10276044142665 32.84090448875213,103.18643223959953 29.312588592700195,104.2285305205005 28.58359770500101,104.78551096902811 28.292001349967904,105.48622522497317 26.688221397285815,106.7618756929005 26.46952413104009,106.61814099796175 25.055281809007283,107.75004780829477 18.071549105632585,111.46910708337964 15.913736078306101,112.24165315381833 14.834829564613756,113.58910723931331 13.551805602444801,114.50536876321712 12.400000000023283,114.95451442424383 14.412014849775005,113.82266465602152 16.015794802631717,112.13385627836396 17.094701316265855,111.90029610261263 24.311711103655398,108.01954810874304 19.6024299695855,110.57079244956549" stroke="#4dd2ff" stroke-linecap="round" stroke-linejoin="round" stroke-width="0.5"><title>2025-12-07 13.4km</title><desc>1765091716000</desc></polyline><polyline fill="none" points="84.64364030340221,112.22742297795048 84.90574214520166,111.82369384387857 87.25529794150498,110.50867806597671 89.41763813653961,108.61686793196714 91.6361430119141,108.00548192908172 92.72199349949369,107.46330602855596 92.98409534129314,107.19798473975243 92.871765980497,107.08262741843646 93.13386782229645,107.07109167831368 93.48957746481756,106.59812508542382 94.33204767067218,104.87927474642493 95.59575297945412,104.08328616617655 96.38205850491067,103.34497174579155 97.7300108342315,101.29150352798024 98.04827735642903,101.12999284249963 98.82522210187744,101.10691986422171 101.21222101844614,102.09905269133742 102.55081256775884,101.55684189413296 103.00013001088519,100.95694536400697 103.47752979421057,99.87250706837222 103.9455687974114,99.3648932498545 105.6211484289961,99.13415876765066 106.2295991332503,98.82266629633523 106.83804983750451,97.81896113992116 107.13759479956934,93.15793354497873 107.4839436619659,92.338768092588 108.31705308775418,91.43883141773404 109.76797399786301,90.85040651120653 112.12689057423268,91.53113302143902 112.73534127842868,91.53113302143902 113.19401950162137,91.40421829242405 113.99904658721061,90.42350764809817 115.29083423619159,89.47740038525808 119.81209100759588,88.49666914285626 121.60000000003492,88.60051177067362 119.58743228606181,88.57743564133125 118.37989165761974,88.85434881055698 118.88537378114415,88.6235878942316 115.21594799571903,89.52355218542652 114.2049837486702,90.19275067877606 113.19401950162137,91.43883141773404 112.76342361862771,91.62343453228823 111.72437703143805,91.56574609888048 111.66821235103998,91.40421829242405 109.77733477792935,90.86194429073657 108.33577464788686,91.43883141773404 107.52138678223127,92.3156929034958 107.13759479956934,93.330995732882 106.90357529791072,97.66898126563319 106.57594799570506,98.64961446641973 105.54626218852354,99.1918424425894 104.00173347780947,99.37642995872739 103.53369447455043,99.82636047367123 102.91588299028808,101.16460229902441 102.5227302275016,101.61452404611919 101.44624052004656,102.08751632476924 100.9501191766467,102.13366178236902 98.76905742147937,101.11845635407371 98.06699891656172,101.17613878165866 97.58023835316999,101.4299410321255 96.19484290364198,103.56415945931803 94.20099674974335,105.06385082239285 93.67679306608625,106.40201627108036 92.69391115923645,107.48637740872073 91.57997833151603,108.05162441099674 89.61421451787464,108.55919018116401 87.18977248104056,110.62403108108992 85.76693391113076,111.48917407316185 81.07718309864867,113.86539153238118 79.64498374867253,115.06501193032454 78.4468039002968,115.50333085714374 78.40000000002328,115.36491458010278 79.38288190681487,115.03040771535598 80.97421451786067,113.54241413102864 81.67627302277833,113.3693900556973 83.7824485374149,112.22742297795048" stroke="#4dd2ff" stroke-linecap="round" stroke-linejoin="round" stroke-width="0.5"><title>2025-11-30 11.3km</title><desc>1764483136000</desc></polyline><polyline fill="none" points="148.84524714830332,114.21605700434156 149.40988593164366,113.64677096470405 149.389353612205,113.4570082360151 151.8942965780152,112.11600809011725 154.20418250956573,110.07917180587538 156.6577946768375,109.34539459827647 158.09505703428295,108.4724457803677 158.3517110266257,108.51040023422684 159.68631178711075,106.14454525012843 161.69847908749944,104.71488399777445 163.0433460076456,102.51341899295949 163.56692015216686,102.05793746228301 164.31634980993113,101.83019592383062 166.89315589354374,102.98155064025923 168.2996197718894,102.65259349397093 168.22775665402878,102.86768098052562 168.09429657796863,102.80442000279436 168.48441064642975,102.72850677698443 169.09011406847276,101.99467597550392 169.69581749051576,100.64087062760518 170.12699619773775,100.14742302802188 170.97908745252062,99.81845661742409 172.13916349812644,99.75519372288545 173.12471482891124,99.21113118800713 173.41216730041197,98.23687232231168 173.7098859315738,93.36543649994564 174.04866920161294,92.46704205871356 175.00342205329798,91.36618159538193 176.7076045628055,90.72084399982123 178.69923954375554,91.29025974016986 178.71977186313597,91.74579001228267 178.77110266161617,91.44210339334677 179.6129277566797,91.55598598289362 180.28022813698044,91.31556703161186 180.71140684414422,91.60660042572272 179.9825095057604,90.96126437216299 181.1425855513662,89.7211952388534 182.0665399240097,89.03788530771271 183.12395437265513,88.64561269487604 187.60000000003492,87.79779246813268 182.24106463883072,88.98726957260806 181.31711026618723,89.5440412578464 180.00304182514083,90.98657174632535 180.35209125478286,91.34087431669468 179.03802281373646,91.85967225806235 178.6787072243751,91.77109718915744 178.69923954375554,91.35352795683139 176.7076045628055,90.72084399982123 175.04448669205885,91.39148886776093 174.17186311789555,92.35316050035908 173.79201520915376,93.20094234298449 173.4224334601313,98.35074722202262 173.14524714834988,99.27439442461036 172.25209125480615,99.79315146440786 170.87642585556023,99.89437203840498 170.16806083649863,100.14742302802188 168.7307984791696,102.47546227751445 167.44752851710655,103.01950716486317 166.88288973388262,103.03215933658066 164.4703422053717,101.95671906437929 163.62851711030817,102.05793746228301 162.97148288978497,102.6399412745377 162.09885931562167,104.23410839407734 161.31863117875764,105.10709397343453 160.1585551330936,105.70173198894918 159.5528517110506,106.34697352063813 158.98821292782668,107.71335369739973 158.3517110266257,108.53570319552091 158.08479087456362,108.51040023422684 156.9247148289578,109.29478907642624 154.51216730038868,109.95265887588175 151.6273764258949,112.38167934944795 145.83726235746872,115.45582435025426 145.04676806082716,115.65823389554134 144.40000000002328,116.20220753186004 144.96463878330542,115.60763154736196 145.74486692016944,115.4431737401319 148.24980988592142,114.10220005397423" stroke="#4dd2ff" stroke-linecap="round" stroke-linejoin="round" stroke-width="0.5"><title>2025-11-23 10.7km</title><desc>1763852167000</desc></polyline><polyline fill="none" points="43.79084337351378,157.2194598096612 44.51951807230944,155.6231444795194 44.924337349424604,155.19555620064784 45.27132530126255,154.93900245954865 45.306024096440524,155.15279728415044 47.5845783133409,153.72749084034876 49.89783132536104,151.5182304495247 53.02072289161151,150.56324650549504 54.223614457878284,149.86482032047934 54.431807229004335,149.6652691917261 54.24674698797753,149.38019554154016 55.600000000034925,147.4844375381581 55.50746987957973,147.0710725616227 55.21831325307721,146.8145004390026 53.92289156629704,146.67196011997294 52.2689156626584,145.81671444306266 51.135421686805785,144.86168248025933 49.89783132536104,143.265193176725 49.05349397595273,142.9088308883147 47.11036144581158,142.92308540136582 45.838072289247066,143.35071995928593 45.09783132537268,143.76409849878837 43.51325301208999,145.5601394820842 42.94650602416368,145.8879851625461 40.1474698795937,145.61715619030292 39.31469879520591,145.73118952055665 38.0424096386414,146.45814930553024 35.509397590416484,148.41093977022683 34.16771084337961,149.06661369859648 32.76819277112372,149.00959872491512 31.4033734939876,148.26840145800816 29.71469879517099,147.726754237563 28.176385542203207,147.91205489361892 26.40674698795192,147.52719934626657 24.255421686801128,147.65548467385088 19.721445783157833,149.0951211746942 13.845783132535871,151.43270982719696 12.504096385557204,152.20239310659963 12.400000000023283,152.03135282929725 13.660722891567275,151.27592185204412 21.66457831329899,148.22563992941286 21.976867469900753,148.1116091076401 22.023132530215662,148.33967063653836 23.977831325377338,147.6839925047243 26.082891566329636,147.498691475972 28.199518072302453,147.91205489361892 29.73783132538665,147.75526205051574 31.426506024145056,148.28265529726923 32.814457831322215,148.99534497699642 33.901686747034546,149.06661369859648 34.87325301207602,148.66750828067597 39.03710843378212,145.7596978352667 39.99710843380308,145.57439366183098 42.72674698801711,145.81671444306266 43.44385542173404,145.44610597976134 44.70457831333624,144.07769500625727 45.7686746987747,143.32221103893244 47.064096385554876,142.88032185688644 49.041927710874006,142.78054019033152 49.86313253012486,143.16541184888774 52.2689156626584,145.7739519898969 53.8072289157426,146.5864358425606 55.28771084343316,146.8145004390026 55.56530120491516,147.4844375381581 54.42024096392561,148.8242998623973 54.13108433736488,149.45146402127284 54.31614457833348,149.60825451901474 53.622168674715795,150.19265355524112 50.26795180729823,151.24741492421163 47.31855421687942,153.7559971447845 43.62891566264443,155.72291484594462" stroke="#4dd2ff" stroke-linecap="round" stroke-linejoin="round" stroke-width="0.5"><title>2024-11-03 10.0km</title><desc>1730623436000</desc></polyline><polyline fill="none" points="95.0022147071868,136.55967507390596 94.78978512360482,136.35943034792945 94.75943804021517,136.23835162236355 94.44838043565687,136.01947754864523 94.30802517506527,135.54912680900088 93.4279597572895,134.2824103054154 93.29139788210159,133.89120978862047 93.26863756957755,133.35563102818924 93.36726559055387,132.85730304443496 93.2838111112651,132.7408703172223 93.2838111112651,132.53129049632116 93.46210022606829,131.76282112157787 93.53796793449146,131.6230977233863 93.62521579919849,131.6230977233863 93.9097197058145,130.1513129382729 94.69874387347954,129.0101741749495 95.20326413452858,128.41863141963768 95.25257814500947,128.39999999999782 96.36783345892036,129.3874524702078 96.51198210494476,129.58307675686228 97.0127089805901,130.83597950953117 96.38300700062246,131.26447194925277 96.04160231270362,131.7348764836279 95.79882564570289,132.56389187879904 95.79882564570289,133.0529092115321 96.47404825073318,134.33363864204512 96.697857990599,134.56649383480908 96.91028757419554,135.12068337275196 97.11513038695557,135.23245169801885 97.49446892910055,135.65623690257416 98.52626976376632,136.37340094492902 98.98906278518552,137.0905512612262 99.22045929588785,137.59347965881898 99.26218653553224,138.0731180459261 99.48599627539807,138.65519522124305 99.39495502528735,139.0323764033128 99.93740914054797,139.3676453781918 100.31674768269295,139.3769583624562 100.66573914149194,139.5632175617211 102.3272419560817,140.74594187514958 103.21489414470852,141.47232098424138 103.35904279073293,141.4630085206445 103.6094062285556,141.2301961787307 103.83700935383968,141.15103965305752 104.40222378165345,141.23950870017507 104.89915727186599,141.43041487983646 105.46057831424696,141.89137945129187 106.31409003406588,142.81329158689914 106.47720560719608,142.90641276393944 106.50375930515293,143.0088457915008 106.731362430437,143.18577490701864 106.81861029512947,143.33942319823473 107.15242821222637,143.5768784094871 107.43313873340958,143.88417115583434 107.77075003592472,144.04712840824504 107.82385743182385,144.20077316880634 108.08180764048302,144.47081394917768 108.13491503638215,144.41959946789575 108.11215472384356,144.51737250779115 108.22974967192567,144.66170367203085 109.49294701729377,145.92341373603267 109.48915363186097,146.44019047066104 109.42466607969254,146.66365928480445 109.2349968086055,147.0966263216651 108.69254269334488,147.93461283417128 110.08850852845353,149.81535881672244 110.13402915353072,150.19708287070898 110.03160774713615,150.9232788791851 110.09230191387178,151.20258129159265 110.04298790340545,151.67739061843895 110.08471514303528,152.45476153753043 109.97850035123702,152.62699123722268 109.77745092388068,153.54863943186137 109.2387901940383,154.44699188409868 109.2425835794711,154.61921243506004 108.98463337081193,154.6843767616374 108.74944347467681,154.90779645037765 108.33596446372394,155.1498329446622 108.15008857808425,155.16845107182962 107.81247727555456,155.41048588410558 107.39141149377974,155.5128847575761 107.19036206645251,155.63390124764555 106.52651961767697,155.73164505072418 105.9764787315653,155.7223361280703 105.52506586641539,155.63390124764555 104.75880201124528,155.08001488544323 104.04564555201796,154.18633224865334 103.7801085725223,154.0327284008963 103.33248909279064,153.51140156003748 103.09729919665551,153.46485416826908 102.89245638389548,153.3112473655492 102.51691122716875,153.25073542205064 102.01239096610516,152.83645872491252 101.79996138250863,152.75267187022473 100.36606169318839,152.99472227300066 99.87671497381234,152.9854126709979 97.68413820018759,153.3764139647501 96.73958523024339,153.68828112186748 96.21989142749226,153.7860299955064 95.57880929125531,154.05600175159998 94.69495048804674,154.2608066150715 93.82247184112202,154.60059403525156 93.48106715317408,154.80074134893584 93.83385199739132,155.42444938331028 93.79212475773238,155.73629951119074 93.84523215363151,155.9550585013094 93.62521579919849,156.1458897699231 93.14724923607719,156.82077305357234 93.18897647572157,157.1465744308589 92.14200209938281,158.73365210238262 91.9902666825219,159.19440401142128 91.05709386886156,160.7534720364747 90.73844949343766,161.45619494877974 90.23392923238862,162.3403971325497 90.13150782599405,162.40089441509554 90.04046657589788,162.65684337733546 89.74078912757977,163.0198225482418 89.4828389189206,164.48101087229588 89.62319417952676,165.383754841263 90.38187126383127,166.9797902680184 90.52981329525937,167.04028007164015 90.61326777454815,167.20778978822636 90.87880475404381,167.4078698587873 91.32263084835722,168.09185646278638 92.0244071513298,168.757219225914 92.1647624119214,168.77583060216057 92.05096084927209,168.7990948094848 92.20269626614754,168.81305332695047 92.42650600601337,169.05965294641283 92.6275554333406,169.13875059438215 92.76411730851396,169.11548659758046 93.25725741330825,169.53888908259614 93.83764538280957,169.74360945033914 94.41803335229633,170.07395132567035 95.57501590585161,170.53921664179143 95.84434627076553,170.7113633471563 95.82537934365973,170.78115232714117 95.53708205165458,170.73927895472661 94.39147965432494,170.39498501056005 93.86799246618466,170.31589000974782 93.39002590306336,170.05999327707832 93.06000137139927,169.72965127893622 92.22545657867158,169.19923691860458 91.50850673401146,168.62228647216762 90.53360668067762,167.47301197716297 90.14288798226335,166.8867288413021 90.73086272261571,167.65913169238775 91.80818418230047,168.7804834447743 92.71859668346588,169.4597922778339 93.28760449666879,169.79478936783198 94.383892883503,170.31123735746223 97.59689033549512,171.17662076291526 98.16969153414539,171.38598471871592 98.54903007629036,171.59999999999854 98.23038570088102,171.40459479160563 97.52860939790844,171.1487054805948 96.5385358029016,170.83698341771378 95.02876840515819,170.50199562872876 93.7579842889536,170.00881372120784 93.07517491308681,169.66451307698662 92.27477058915247,169.1247921980248 91.25814329618879,168.2174853003562 90.08978058636421,166.76574864159556 89.77872298182047,166.20737343528526 89.5207727731613,165.53265897650272 89.37662412713689,164.90911896702164 89.3576572000311,164.22042094511562 89.47525214809866,163.53171028326324 89.71802881507028,162.8941763095172 92.43409277684987,158.04949488831335 93.20415001740912,156.87662491922674 93.92109986206924,156.07141914645763 94.41423996686353,155.67113701219205 95.62812330175075,154.88917819380367 96.12885017738154,154.65644920697014 96.98994866806606,154.3399354673311 97.61585726260091,154.2049508541204 100.54435080799158,153.13436602550064 101.50407731962332,152.90628096080036 102.11860575790342,152.99472227300066 103.4387038845889,153.52071103146227 103.9014969060081,153.86050515681927 105.31263628278975,155.27550512374364 105.72611529375718,155.55477512525977 106.24201571107551,155.72699058969374 106.76550289923034,155.76888071825306 107.39520487921254,155.65251913453903 107.8504111297807,155.4291038818992 108.99601352706668,154.64714001746324 109.34879837126937,154.3399354673311 109.64847581955837,153.93032548622068 109.92918634074158,153.11574688855035 110.09609529930458,149.69432354914898 110.25541748700198,148.10220788913284 110.14920269520371,147.38992373157453 109.6902030591882,145.50905607326422 108.95428628743684,143.64206192982238 109.43604623596184,144.87121566354472 109.8533186323184,146.62175898361602 109.98229373664071,146.91971566341817 110.03919451797265,147.0035155529731 110.19851670567004,146.98954891771427 110.34645873712725,147.07334865115263 110.64234279998345,146.46812414527813 110.59682217494992,146.38432305899914 110.05057467424194,146.10964040735416 109.97850035123702,146.01652718732657 109.4132859234378,145.81633298113957 109.17809602730267,145.64407199451307 108.08180764048302,144.5266842125784 108.13870842181495,144.3963201351071 108.06663409879548,144.44287878624164 107.70626248377084,144.16818190858612 107.06518034751934,143.57222243941214 107.0424200349953,143.48841487913887 106.51134607598942,143.10196648272904 105.82474331470439,142.24059126144857 104.90674404271704,141.45369605473024 104.61844675065367,141.31400878841305 103.84838951010897,141.16500846384952 103.57905914518051,141.24882121930932 103.32490232193959,141.4769772151667 103.22627430097782,141.46766475272307 100.98817690230499,139.76810161173125 100.6467722143716,139.62375160217198 100.38502862029418,139.35833239161002 99.9829297656106,139.38161485371893 99.3532277856284,139.01375026120877 99.47082273371052,138.734357018664 99.32288070226787,138.4083956029608 99.18631882710906,137.55622593491717 99.45944257744122,137.24422454330124 99.8463678904518,137.13711898901965 100.00569007813465,137.01138599115802 99.96396283850481,136.6295276335295 99.88050835923059,136.46653812518343 99.01940986854606,135.88908387571792 99.43668226493173,135.24642271523044 99.15976512913767,135.0973982630312 98.89043476422376,135.5956964525285 98.73869934736285,135.69349251551102 98.14693122160679,135.4885861858893 97.8244934607792,135.2277946911272 97.50584908536985,134.58512218771648 97.56654325212003,134.39883824189747 97.74103898153407,134.2684389287242 97.61206387718266,133.9051813059814 97.55895648126898,133.27645786620633" stroke="red" stroke-linecap="round" stroke-linejoin="round" stroke-width="0.5"><title>2024-10-27 42.8km</title><desc>1729986801000</desc></polyline><polyline fill="none" points="176.85778343945276,154.19133888711076 177.22099363058805,153.64881950926792 179.8184968152782,152.2111299676617 182.59210191085003,149.8375439986121 185.0355159235769,149.21362130698253 186.14715923566837,148.58969500784588 186.3782929936424,148.31842157860956 186.2021910827607,148.16922090180014 186.35628025478218,147.87081892941205 187.5339617834543,146.31097700618557 187.29182165605016,145.78198201637133 185.96005095541477,145.59208574642253 184.35312101908494,144.6697276813211 183.36254777072463,143.8965685227522 183.3185222930042,143.6117190151199 182.1188280255301,142.24171802013734 181.29335031850496,141.87547718364658 179.0480509554036,141.99755760063272 178.04647133755498,142.48587788712757 176.1313630573568,144.39844439693843 175.51500636944547,144.76467666970711 172.79643312102417,144.53408612441126 171.73982165602501,144.81893319703522 168.52596178342355,147.1655018960373 167.10614012740552,147.85725518377149 165.9174522293033,147.81656393668527 162.94573248404777,146.56869157458277 161.448866242019,146.7314583532425 159.3576560509391,146.3381048844749 157.2114140127669,146.58225548216433 154.7129681528313,147.53172477724002 153.35918471339392,147.81656393668527 148.01008917199215,150.06812321085454 146.29309554141946,151.01756183477846 146.23806369426893,151.234575204493 145.764789808949,151.5329678752605 144.77421656053048,154.01502038846957 144.40000000002328,154.3540941686224 145.434598726104,151.6007842763065 146.03994904458523,150.90905498628854 146.23806369426893,151.27526516275248 146.370140127372,150.99043513288052 147.83398726116866,150.06812321085454 156.89222929941025,146.62294719475176 159.4897324841004,146.3923606206008 161.4378598726471,146.78571389159333 162.94573248404777,146.58225548216433 164.79480254778173,147.2061933886871 165.79638216563035,147.74874515736883 166.95205095538404,147.87081892941205 167.8105477707577,147.518160989006 172.03699363057967,144.68329182764865 172.75240764330374,144.56121444944438 174.86563057324383,144.84606145037105 175.65808917197865,144.73754839583853 178.03546496818308,142.48587788712757 178.99301910831127,142.06537999477587 181.05121019110084,141.92973516384518 181.9317197452765,142.1332023463474 182.360968152876,142.43162018666044 184.40815286629368,144.72398425639403 186.0150828025071,145.5107015284084 187.46792356687365,145.83623803209048 187.60000000003492,146.35166882108751 186.34527388535207,147.93863763195986 186.2021910827607,148.25060311472043 186.4223184713046,148.39980367895623 185.11256050952943,149.26787559729564 182.5480764331296,149.95961540763528 179.47729936306132,152.5230830990913 173.34675159235485,155.83244340197416 172.52127388532972,155.9816334840434 170.69421656051418,157.73121087378968 169.82471337582683,158.12452281634614 169.3954649681109,158.09739790080494 170.03383439488243,158.00246064273233 171.09044585988158,157.35146005189017 172.4662420381792,155.95450802995038 173.8090191083029,155.52049983666802 179.2241528662271,152.64515147025668 181.83266242040554,150.44789966283133 181.67857324838405,150.8954916225266 181.88769426749786,150.38008253730368 182.7571974521852,149.82398050021584 185.09054777072743,149.21362130698253 186.30124840763165,148.48118571796658 185.48677707003662,149.09154905405012 182.49304458603729,149.986742368681 179.8295031847083,152.3060723205126 174.29329936305294,155.35774631422828 172.38919745222665,156.10369794323924 171.44264968152856,157.16158413987432 170.59515923570143,157.771898382598 169.69263694272377,158.12452281634614 171.06843312102137,157.3785851549037 172.35617834399454,156.02232165243913 173.74298089172225,155.52049983666802 179.30119745217962,152.56377257147687 181.30435668787686,150.94974506725703 179.6203821655945,152.42814093714696 178.4757197452709,153.05204504355788" stroke="#4dd2ff" stroke-linecap="round" stroke-linejoin="round" stroke-width="0.5"><title>2024-10-13 16.0km</title><desc>1728810741000</desc></polyline><polyline fill="none" points="44.76424751721788,202.20276139624912 46.227349121531006,201.15894065513567 48.05347593582701,200.30489798971394 50.61665393435396,198.0952006626976 53.09182582126232,197.45804026385304 54.29090909095248,196.82087610088638 54.57692895340733,196.5768547862899 54.235905271198135,196.2786057631165 54.30190985486843,196.03458322159713 55.52299465244869,194.4077521681611 55.31398013752187,193.7841270911449 53.97188693663338,193.59432743891375 52.75080213905312,193.0384836786834 51.59572192514315,192.02168889873428 50.099618029082194,190.28633699813508 48.65851795265917,189.89316745305405 47.085408708953764,190.0965311898326 46.00733384268824,190.58460259338608 43.66417112300405,192.8351254896188 40.77097020630026,192.6317669170894 39.945912910683546,192.7944538057709 37.07471352175344,194.85513315416028 35.20458365167724,195.87190122054744 34.06050420174142,195.88545806332695 32.531398013816215,195.12627224244352 30.870282658550423,194.63822139269178 29.550190985493828,194.8415761818469 27.570053475967143,194.42130919499323 25.193888464476913,194.6246643931372 24.08281130634714,194.97714582822664 16.50328495033318,197.91896518428257 14.556149732670747,198.90859144688147 13.676088617299683,199.69486337417038 12.653017570672091,202.21631744333718 12.400000000023283,202.39254590025666 13.445072574540973,199.6406379079781 14.083116883179173,198.90859144688147 14.21512605046155,199.2203896210849 14.556149732670747,198.85436558540096 16.800305576820392,197.76984263146005 25.314896867901552,194.61110739182914 27.603055767831393,194.39419513959 29.495187165797688,194.81446223211242 30.958288770110812,194.63822139269178 32.839419404102955,195.22117076229915 33.96149732620688,195.84478752982977 34.95156608102843,195.91257174380007 36.04064171126811,195.51942270970176 38.73582887707744,193.47231320036371 40.04491978610167,192.7402248701692 40.957983193336986,192.5910951565893 43.43315508024534,192.82156826335995 44.18120702827582,192.4012934046914 45.51229946536478,190.88286736369628 46.480366692179814,190.3134520863241 47.470435446943156,190.01518574113288 49.747593582898844,190.0694160470739 52.59679144388065,192.8351254896188 53.87288006115705,193.5265417678529 55.44598930486245,193.91969806683483 55.58899923611898,194.44842324356432 54.587929717381485,195.6414346322781 54.268907563062385,196.2921625548115 54.323911382758524,196.56329803041444 53.19083269673865,197.25469040803728 50.51764705887763,198.05453096249403 47.39343009935692,200.60313587939163 41.1889992360957,203.91080991147464 40.374942704394925,204.11414721882466 39.31886936596129,205.32060735843697 37.92177234537667,206.10683254695323 39.28586707415525,205.30705170151487 40.27593582891859,204.07347978798498 41.25500381976599,203.8565865647688 47.83346065698424,200.27778541335283 50.40763941942714,198.00030467165197 53.322841864137445,197.1326803105112 54.42291825823486,196.4277303777999 54.20290297939209,196.2786057631165 54.378915202454664,195.88545806332695 55.55599694425473,194.44842324356432 55.434988540946506,193.8925838852956 54.01588999241358,193.60788456799492 52.39877769298619,192.76733934139338 50.28663101606071,190.42191237097722 49.50557677622419,190.02874332016654 48.416501145926304,189.97451299378736 46.656378915242385,190.2592219030994 45.589304812892806,190.86930989204848 44.32421695953235,192.30639240344317 43.33414820476901,192.875797158129 40.73796791449422,192.6317669170894 39.527883880829904,192.98425486571068 40.5289533995674,192.577537899655 43.45515660813544,192.7808965744698 44.0161955691874,192.48263705353747 45.60030557680875,190.8286374668096 46.37035905272933,190.3134520863241 47.59144385030959,189.9473978203605 49.494576012250036,189.90672504744725 50.363636363705155,190.43546989887545 51.84873949579196,192.26572052021947 52.849809014529455,193.024926477985 54.037891520245466,193.5807703081009 55.225974026019685,193.68922730679333 55.46799083275255,193.86546969701885 55.600000000034925,194.43486622010096 54.4999236058793,195.6685483741021 54.25790679908823,196.2379353778815 54.477922077989206,196.4277303777999 53.01482047367608,197.28180374433578 50.539648586767726,197.90540859710018 47.899465240654536,200.25067283026146 41.29900687554618,203.81591903683147 40.48495034384541,204.00570070261165 40.04491978610167,204.37170725791657 40.5069518716773,203.96503323089564 41.07899159670342,203.8972540773393" stroke="#4dd2ff" stroke-linecap="round" stroke-linejoin="round" stroke-width="0.5"><title>2024-10-06 18.0km</title><desc>1728199446000</desc></polyline><polyline fill="none" points="110.33792187087238,202.47082287533703 111.95663034816971,201.29662826785352 113.7590220568818,200.36292260858318 116.06654265220277,198.28327762122353 119.24655859690392,197.36369445679156 120.34865798574174,196.6846128357356 120.46346000535414,196.57143216724944 120.11905394640053,196.16115128983802 121.45075737446314,194.3360906427406 121.24411373905605,193.69943461724324 119.84352909913287,193.44477119865041 118.24778102582786,192.62418515223544 117.1342014350812,191.64796292482788 115.79101780499332,190.04920388597384 114.86112144566141,189.681344609824 113.94270528835477,189.78038376401673 113.31129418016644,189.6106023034954 111.56630348128965,190.21898468479048 109.72947116661817,192.25633429265872 109.09806005848804,192.63833323815197 108.71921339363325,192.7373697901421 106.33133138454286,192.39781553475768 105.49327664100565,192.51100040037272 103.43832048896002,193.7560264098065 101.59000797243789,195.1849597412729 100.25830454425886,195.83575504770124 99.01844273193274,195.82160736368678 96.3550358756911,194.61904772029084 95.39069891051622,194.53416067170474 94.41488174331607,194.76052599229297 92.57804942864459,194.25120338073611 91.83183630084386,194.23705549753504 89.42099388793577,194.64734338892595 86.05729471176164,195.86405041046964 79.85798564978177,198.33986710905447 78.4803614137927,199.1462642188635 78.40000000002328,199.40091473749635 78.57220302952919,198.82087660668185 79.90390645765001,198.00032975545037 89.57023651344934,194.392682115169 91.07414297107607,194.22290761255863 91.75147488707444,194.36438638251275 92.80765346804401,194.1380202651926 94.16231730009895,194.50586497465702 95.75806537340395,194.3077948958453 97.67525910184486,194.87370848185674 99.15620515547926,195.6093918896804 100.26978474622592,195.5386533094279 105.05702896631556,192.35537118081265 105.80324209411629,192.18559360487416 108.73069359560031,192.45440798181517 109.45394631952513,192.00166760860884 111.37114004784962,190.06335229564866 112.79468509170692,189.53985995269613 114.00010629824828,189.6106023034954 114.97592346539022,189.3842266243737 116.27318628766807,190.04920388597384 117.16864204098238,191.19521930748306 116.98495880950941,191.39329486419592 118.47738506516907,192.80811013111088 119.87796970503405,193.4730671625075 120.76194525649771,193.61454687506193 121.25559394102311,194.1804639468537 121.5196385862655,194.16631605472503 120.17645495617762,196.11870835506124 120.29125697579002,196.45825138491637 119.18915758706862,197.26466197554691 116.19282487384044,198.14180377726007 113.05872973694932,200.80148229193583 106.51501461601583,204.25331176085456 105.75732128630625,204.39477792374964 104.42561785812723,205.80942977497762 102.96763220842695,206.6157733756263 102.77246877498692,206.57333438271598 103.25463725754526,206.46016365680407 104.4600584640284,205.69625828109565 104.9881477545132,204.96064079758798 105.81472229608335,204.2957516283932 107.21530693600653,203.8430588830015 111.6122242892161,201.52297998859285 114.00010629824828,199.96680271620426 114.16082912572892,200.03753851354122 115.42365134204738,199.0755278614597 115.64177517947974,198.52378274792136 115.9976614403422,198.2266881050018 116.70943396229995,197.83056069456507 119.12027637526626,197.2505144710958 120.30273717781529,196.4158085622039 120.13053414830938,196.2460371112902 120.2108955620788,195.99137945481198 121.47371777839726,194.392682115169 121.41631676856196,193.8975057666612 121.07191070960835,193.65699075418524 119.79760829126462,193.4872151417585 118.68402870051796,192.93544263274816 117.38676587829832,191.88848223077366 116.08950305613689,190.28972660869476 115.48105235182447,189.87942283102893 113.71310124901356,189.70964151996304 112.20919479144504,189.97846181088244 111.4629816635861,190.33217174173478 109.58022854110459,192.31292681082414 108.85697581723798,192.72322171668202 106.28541057673283,192.44025987273926 104.87334573484259,192.72322171668202 100.9471166623407,195.56694874686218 100.23534414038295,195.86405041046964 98.94956152007217,195.83575504770124 96.04507042252226,194.57660420401953 94.30007972364547,194.77467380972666 91.99255912838271,194.32194277020608 89.21435025247047,194.7180825293617 81.4192931172438,197.74567606812343 89.44395429181168,194.57660420401953 92.11884135002038,194.22290761255863 94.36896093550604,194.76052599229297 95.84990698914044,194.49171712343377 97.45713526447071,194.9868908575736 99.23656656930689,195.83575504770124 100.3960669679218,195.75086891683168 105.14887058199383,192.53929659903224 105.75732128630625,192.39781553475768 108.86845601920504,192.62418515223544 109.67207015684107,192.1148528726626 111.0037735850201,190.6575838962599 111.7844273186056,190.11994591660914 112.79468509170692,189.78038376401673 114.9529630613979,189.6106023034954 115.77953760296805,189.92186811877036 117.50156789802713,191.90263040919672 118.84475152811501,192.94959067957097 119.78612808935577,193.41647522767744 121.37039596069371,193.7135825680307 121.60000000003492,194.20875972576323 120.55530162114883,195.32643730191194 120.11905394640053,196.26018474198645 120.2108955620788,196.51484179030376 119.80908849323168,196.85438362513378 118.56922668084735,197.43443188998936 116.20430507574929,198.056919385519 113.18501195864519,200.6317174559008 111.76146691472968,201.39565720170503" stroke="#ffac00" stroke-linecap="round" stroke-linejoin="round" stroke-width="0.5"><title>2024-09-22 20.8km</title><desc>1726992504000</desc></polyline><polyline fill="none" points="175.88784749800107,202.29215259259945 176.8257347101462,201.5592414267885 177.191739475762,201.51695794412808 179.0789515489014,200.3612032454912 181.9383637808496,197.92280364792532 184.43177124706563,197.24624407405645 185.82716441625962,196.54149017736927 186.03304209694033,196.33006314464728 185.70135027798824,196.04815981425782 185.75853852269938,195.808541426195 187.60000000003492,193.32775625770591 185.5869737887988,193.31366073062236 184.3745830024127,192.72164699299174 182.6017474186374,191.2556947613557 181.48085782374255,189.8602031960254 180.79459888808196,189.47961157301324 178.08387609216152,189.6628595527436 176.18522637017304,190.90329954057233 175.0757744241855,192.22829982392432 174.28657664818456,192.5524996366803 171.9075456712162,192.20010849159735 170.85528196988162,192.41154331153666 166.54328832408646,195.3574936596633 165.68546465452528,195.68168442523165 164.25575853866758,195.47025577140448 163.52374900720315,194.92053940564801 161.62509928521467,194.22986630562082 160.00095313746715,194.52586958371103 158.44543288327986,194.03253035277885 157.39316918194527,193.99024403200747 154.4536934075295,194.62453716941673 146.10420969029656,197.85232888277824 144.52581413823646,198.7403076870396 144.40000000002328,198.52888480001275 145.52088959497632,197.79594903875113 149.39825258147903,196.25958737849578 153.9389992058277,194.5822510718499 153.9504368546768,194.77958605728054 155.58602065133164,194.24396171753324 158.39968228759244,194.01843491429463 160.00095313746715,194.4553926836088 161.8424146148027,194.31443875050172 162.62017474189634,194.48358344892767 164.35869737889152,195.44206525408663 165.7312152502709,195.59711301155767 166.63478951557772,195.25882671887666 170.77521842735587,192.31287377846456 171.7016679905355,192.1578214797264 173.94344718032517,192.4820214963038 174.62970611598575,192.3551607318659 175.12152501993114,192.10143877246446 177.24892772047315,189.94477893684234 178.52994440030307,189.5218995948744 180.56584590952843,189.45141954949213 181.16060365375597,189.56418760085216 181.68673550448148,189.987066783302 183.24225575861055,191.86181195030076 184.26020651316503,192.66526456923748 185.38109610811807,193.20089645014377 186.35329626692692,193.34185178299958 186.8565528197214,193.9338622461364 187.13105639402056,193.84928951423353 187.13105639402056,194.11710294653312 186.8565528197214,194.22986630562082 185.81572676735232,195.8367318514065 185.72422557591926,196.0763501791953 185.93010325654177,196.20320673367678 184.7177124702721,197.04891342946212 181.9154884829768,197.8100440024209 178.33550436858786,200.74175793720497 176.89436060370645,201.34782385419385 172.20492454327177,203.95527939473686 171.42716441623634,204.11031538224051 170.1347100874409,205.49153562939318 168.65925337572116,206.3230783913532 170.1003971406608,205.42106562037225 171.33566322480328,204.08212703681784 172.4222398729762,203.78614898206433 179.02176330424845,200.22025673567987 181.80111199367093,197.8100440024209 184.59189833205892,197.03481837012077 185.68991262908094,196.35825343871693 185.89579030976165,196.1750164006371 185.70135027798824,196.03406462915154 185.87291501194704,195.6253034898764 187.08530579827493,194.01843491429463 186.87942811759422,193.49690244449448 185.4611596505856,193.27137413872697 184.05432883248432,192.5665952594718 182.6474980143248,191.29798211341404 181.60667196189752,189.94477893684234 181.11485305806855,189.63466757535207 180.24559173954185,189.45141954949213 178.5642573471414,189.56418760085216 177.04305003973423,190.1985057764614 175.28165210486623,192.05915172342793 174.45814138208516,192.4961171278701 171.81604447978316,192.21420415865578 170.85528196988162,192.39744766926742 165.92565528204432,195.65349396110832 164.77045274031116,195.6253034898764 163.32930897548795,194.89234875018155 161.46497220022138,194.30034334747324 159.8980142971268,194.52586958371103 158.3424940429977,194.1030075186427 157.53042096912395,194.11710294653312 155.65464654495008,194.34262955129816 154.1220015886356,194.8218720803925 154.06481334398268,194.56815570248727 155.05988880072255,194.15938921946508 158.02223987295292,193.86338497396355 158.3081810962176,194.1030075186427 159.95520254172152,194.49767882897868 161.55647339165444,194.30034334747324 163.16918189043645,194.8077767411305 164.69038919784361,195.56892252613034 165.65115170780336,195.63939872636547 166.64622716448503,195.25882671887666 170.3062748213415,192.72164699299174 171.62160444800975,194.77958605728054 171.8732327244361,194.7936814001223 172.21636219223728,195.41387472968927 173.08562351076398,195.59711301155767 173.451628276438,196.30187284349813 174.66401906282408,197.54223938987707 174.77839555207174,198.17651243579166 175.3960285941721,198.66983343566972 174.93852263706503,199.00810943844408 175.7505957109388,201.996169813734 172.11342335189693,203.99756195802183 171.41572676738724,204.1385037206055 169.55138999212068,205.9002608082592 168.25893566326704,206.39354783351882 168.29324861004716,206.54858045051515 169.32263701356715,206.18213937407563 171.03828435268952,204.84320987662795 169.7915806195815,206.01301231956313 168.21318506757962,206.52039271791728 168.24749801435973,206.35126617352216 169.04813343926799,206.15395154936414 170.15758538525552,205.40697161330172 171.41572676738724,204.03984450540156 172.15917394764256,203.92709101030778 175.3845909452648,202.22168057322415" stroke="#4dd2ff" stroke-linecap="round" stroke-linejoin="round" stroke-width="0.5"><title>2024-08-22 19.8km</title><desc>1724317734000</desc></polyline><polyline fill="none" points="43.920170757803135,245.394183305747 44.10458911425667,244.9207333119557 47.408751334121916,243.2352392597968 51.51205976528581,239.69374651147518 55.062113127089106,238.82256441573554 55.600000000034925,238.5195433756162 55.461686232709326,238.34909377280565 51.32764140883228,239.6179917465779 47.45485592324985,242.9511653719528 45.54919957317179,244.03064329660265 44.79615795094287,244.1632102278527 39.309711846348364,247.40159475438122 37.25037353252992,248.08335104987782 35.48303094995208,249.92029016127344 33.74642475985456,250.98078089629416 32.1942369263852,250.98078089629416 32.0559231590596,250.54522310472385 30.94941302028019,250.46947379501944 30.211739594466053,251.43527464105864 29.42796157958219,251.81401838126476 28.44439701171359,251.5678350583912 25.263180362875573,251.7572068809386 20.837139807932544,252.609377137298 17.640554962679744,252.91236984502757 16.0729989327956,253.25323591301276 15.258484525140375,253.70772280433448 14.782070437562652,253.42366865788063 12.400000000023283,253.31004684940854 12.661259338317905,252.96918090988765 15.243116328783799,253.21536194352666 15.258484525140375,253.66984894906636 15.93468516547,253.19642495524022 17.809605122718494,252.74193652188114 24.863607257197145,251.9276413177431 25.30928495200351,251.68145818047924 28.1677694771206,251.47314905792882 29.305016008554958,251.71933253541647 30.211739594466053,251.30271410715068 31.026254002121277,250.3558497591439 32.117395944544114,250.4884111260326 32.286446104582865,250.88609452695528 33.930843116366304,250.75353350992373 35.36008537892485,249.95816495885083 37.25037353252992,247.98866285997792 38.43372465315042,247.70459793317423 46.886232657474466,243.25417749996996 51.035645677824505,239.67480782380153 55.4155816436396,238.29227719568007 51.204695837863255,239.69374651147518 47.070651013928,243.12160976897576 38.40298826043727,247.81822396817734 37.09669156890595,248.1591015590093 35.89797225187067,249.54154166152875 33.45442902884679,251.0944044610078 35.62134471721947,249.7498534541519 37.01985058694845,248.10228868071863 39.048452507995535,247.4205324709328 43.35154749202775,245.1479894946242 44.703948772687,244.1821483513486 47.03991462121485,243.2352392597968 50.943436499510426,239.8263172583538 55.077481323387474,238.48166570279864 51.220064034161624,239.67480782380153 47.23970117396675,243.1026715121261 44.99594450375298,244.31471514930308 44.611739594489336,244.22002459123905 43.15176093921764,245.29949342596228 38.1724653148558,247.93184991744056 37.14279615803389,248.12122630923113 38.58740661694901,247.590971812504 38.55667022411944,247.28796840528958 40.10885805764701,245.96232133462036 40.293276414158754,245.0722374718316" stroke="#4dd2ff" stroke-linecap="round" stroke-linejoin="round" stroke-width="0.5"><title>2024-07-03 11.2km</title><desc>1719998343000</desc></polyline><polyline fill="none" points="107.05421822273638,246.1798738045327 107.44296962890076,245.6010200658784 111.84881889761891,243.22570159868337 115.49336332967505,240.0319401006127 119.70483689539833,238.83426298001723 121.17885264346842,237.9559606842231 121.60000000003492,237.5966537995264 121.38942632178077,237.45692312481697 119.54285714298021,238.6346492483426 115.44476940395543,239.83232787442103 111.29808773903642,243.34546640547342 102.777952755976,247.916422362483 100.72080989880487,248.63498862582492 99.37637795280898,250.1918710438331 97.20584926888114,251.58906022078008 95.58605174353579,251.64893948225654 95.42407199100126,251.18986456721905 94.20922384707956,251.14994494669372 93.38312710914761,252.12797276153287 92.52463442075532,252.50720641641237 91.14780652424088,252.24773085564084 88.2645669291378,252.4273678274767 78.48098987626145,254.10396976770426 78.40000000002328,254.32352347321284 78.95073115866398,254.18380751392397 81.13745781779289,254.54307687516848 82.02834645670373,253.74469941316056 82.98402699665166,253.56506393122254 83.16220472450368,253.26567100976536 88.31316085491562,252.3275695348857 91.16400449950015,252.14793245019973 92.50843644549605,252.4273678274767 93.36692913394654,252.08805337682134 94.4845894263708,251.01022619575087 95.4564679415198,251.129985132633 95.71563554560998,251.5491407005611 97.36782902141567,251.4693016300298 99.02002249722136,250.4912697592954 99.68413948261878,249.473311824142 100.89898762665689,248.4353872120846 102.09763779537752,248.15594481148582 110.97412823396735,243.52511344625964 115.20179977512453,239.9321340188908 116.36805399332661,239.33329621129087 119.4780652418849,238.5148808889935 121.22744656930445,237.47688465728424 119.17030371213332,238.7743788868538 115.5905511812307,239.7325216672616 111.2494938132586,243.40534877497703 102.72935883019818,248.0162234268355 100.7694038245827,248.73478923852963 99.48976377956569,250.21183097577887 98.12913385831052,251.2497439791914 96.47694038244663,251.728778462435 98.72845894272905,250.6709087176423 100.94758155243471,248.45534736471018 102.09763779537752,248.21582536728238 111.71923509566113,243.0660150491167 114.65106861654203,240.3912414754741 111.13610798656009,243.46523112191062 104.57592800905695,246.918408270285" stroke="#4dd2ff" stroke-linecap="round" stroke-linejoin="round" stroke-width="0.5"><title>2024-06-26 10.0km</title><desc>1719394224000</desc></polyline></svg>