<?xml version="1.0" encoding="utf-8" ?>
<svg baseProfile="full" height="300mm" version="1.1" viewBox="0,0,200,300" width="200mm" xmlns="http://www.w3.org/2000/svg" xmlns:ev="http://www.w3.org/2001/xml-events" xmlns:xlink="http://www.w3.org/1999/xlink"><defs /><rect fill="#222222" height="300" width="200" x="0" y="0" /><text fill="#FFFFFF" style="font-size:12px; font-family:Arial; font-weight:bold;" x="10" y="20">Over 10km Runs</text><text fill="#FFFFFF" style="font-size:4px; font-family:Arial" x="10" y="280">Runner</text><text fill="#FFFFFF" style="font-size:9px; font-family:Arial" x="10" y="290">jianbo</text><text fill="#FFFFFF" style="font-size:4px; font-family:Arial" x="65" y="280">SPECIAL TRACKS</text><rect fill="yellow" height="2.6" width="2.6" x="65" y="283" /><text fill="#FFFFFF" style="font-size:3px; font-family:Arial" x="70" y="285.5">Over 20.0 km</text><rect fill="red" height="2.6" width="2.6" x="65" y="287" /><text fill="#FFFFFF" style="font-size:3px; font-family:Arial" x="70" y="289.5">Over 40.0 km</text><text fill="#FFFFFF" style="font-size:4px; font-family:Arial" x="120" y="280">STATISTICS</text><text fill="#FFFFFF" style="font-size:3px; font-family:Arial" x="120" y="285">Number: 9</text><text fill="#FFFFFF" style="font-size:3px; font-family:Arial" x="120" y="290">Weekly: 1.0</text><text fill="#FFFFFF" style="font-size:3px; font-family:Arial" x="141" y="285">Total: 159.2 km</text><text fill="#FFFFFF" style="font-size:3px; font-family:Arial" x="141" y="290">Avg: 17.7 km</text><text fill="#FFFFFF" style="font-size:3px; font-family:Arial" x="167" y="285">Min: 10.0 km</text><text fill="#FFFFFF" style="font-size:3px; font-family:Arial" x="167" y="290">Max: 42.8 km</text><polyline fill="none" points="18.556558935379144,75.27007125543605 19.26235741446726,74.55846370589279 19.23669201519806,74.32126029502251 22.367870722489897,72.64501011265384 25.25522813689895,70.09896475734422 28.322243346017785,69.1817432478565 30.118821292824578,68.09055722547055 30.439638783282135,68.13800029279082 32.10788973385934,65.18068156267691 34.62309885933064,63.39360499722534 36.304182509484235,60.64177374121209 36.958650190150365,60.072421827862854 37.89543726237025,59.787744904795545 41.11644486692967,61.22693830032949 42.87452471483266,60.815741867467295 42.78469581750687,61.08460122566612 42.61787072243169,61.0055250035075 43.10551330802264,60.910633471241454 43.86264258553274,59.993344969378086 44.61977186310105,58.301088284511934 45.15874524717219,57.6842787850328 46.22385931562167,57.27307077178557 47.67395437264349,57.19399215361045 48.90589353610994,56.513913985021645 49.26520912552951,55.29609040290234 49.63735741446726,49.20679562493751 50.06083650194341,48.083802573397406 51.25427756656427,46.70772699423833 53.38450570346322,45.901054999791086 55.87404942966532,46.6128246752196 55.89971482893452,47.182237515356974 55.96387832699111,46.80262924169074 57.01615969586419,46.944982478627935 57.850285171181895,46.644458789523924 58.38925855513662,47.00825053216249 57.478136882185936,46.20158046520373 58.928231939149555,44.65149404857948 60.08317490492482,43.79735663464817 61.40494296577526,43.30701586860232 67.0,42.24724058517313 60.3013307985384,43.73408696576371 59.14638783270493,44.43005157231528 57.50380228139693,46.23321468291397 57.940114068449475,46.6760928958829 56.29752851714147,47.324590322590666 55.84838403039612,47.2138714864559 55.87404942966532,46.691909946050146 53.38450570346322,45.901054999791086 51.30560836504446,46.739361084706616 50.21482889732579,47.94145062545431 49.74001901136944,49.001177928745165 49.27804182516411,55.438434027528274 48.931558935379144,56.59299303077569 47.815114068449475,57.24143933052255 46.09553231939208,57.36796504801896 45.21007604559418,57.6842787850328 43.4134980989038,60.5943278469058 41.809410646383185,61.27438395608624 41.10361216729507,61.2901991707331 38.08792775665643,59.9458988304832 37.03564638784155,60.072421827862854 36.21435361215845,60.79992659317213 35.12357414449798,62.79263549260213 34.14828897337429,63.88386746679316 32.698193916352466,64.62716498618829 31.941064638784155,65.43371690080676 31.23526615969604,67.14169212176057 30.439638783282135,68.16962899440841 30.10598859313177,68.13800029279082 28.65589353616815,69.1184863455419 25.6402091254713,69.94082359485037 22.034220532339532,72.97709918681358 14.796577946806792,76.81978043781419 13.808460076048505,77.07279236943577 13.0,77.75275941482687 13.705798479088116,77.00953943420609 14.681083650211804,76.80396717517579 17.812262357387226,75.12775006747688" stroke="#4dd2ff" stroke-linecap="round" stroke-linejoin="round" stroke-width="0.5"><title>2025-11-23 10.7km</title><desc>1763852167000</desc></polyline><polyline fill="none" points="112.23855421680491,69.02432476208196 113.14939759031404,67.02893059940834 113.6554216867662,66.49444525082072 114.08915662649088,66.17375307445764 114.13253012049245,66.44099660520442 116.98072289157426,64.6593635504396 119.87228915659944,61.89778806192044 123.77590361447074,60.704058131886995 125.27951807231875,59.83102540060645 125.53975903621176,59.58158648967219 125.30843373492826,59.22524442693975 127.0,56.855546922713984 126.88433734938735,56.338840702039306 126.52289156633196,56.0181255487696 124.90361445781309,55.83995014998072 122.8361445782939,54.77089305383561 121.41927710844902,53.57710310033872 119.87228915659944,51.58149147091899 118.81686746992636,51.1360386104061 116.38795180723537,51.15385675171274 114.79759036150062,51.688399949125596 113.87228915665764,52.20512312349456 111.89156626508338,54.4501743526198 111.18313253013184,54.85998145319172 107.68433734943392,54.52144523788593 106.64337349397829,54.66398690070491 105.05301204824354,55.57268663193099 101.8867469879333,58.01367471279809 100.20963855419541,58.833267123263795 98.46024096390465,58.761998406160274 96.75421686744085,57.83550182252657 94.64337349392008,57.158442796964664 92.72048192773946,57.390068617038196 90.5084337349399,56.9089991828514 87.8192771084141,57.06935584232269 82.15180722891819,58.86890146837686 74.80722891562618,61.790887284005294 73.1301204818883,62.752991383269546 73.0,62.539191036630655 74.57590361440089,61.59490231506061 84.58072289155098,57.78204991178063 84.97108433733229,57.639511384564685 85.02891566266771,57.924588295674766 87.47228915663436,57.10499063091993 90.10361445782473,56.87336434498138 92.74939759034896,57.390068617038196 94.672289156646,57.19407756315195 96.78313253010856,57.85331912159745 98.51807228912367,58.744181221263716 99.87710843374953,58.833267123263795 101.09156626509503,58.33438535085588 106.29638554214034,54.6996222940943 107.49638554221019,54.4679920773051 110.90843373496318,54.77089305383561 111.80481927713845,54.30763247470895 113.38072289159754,52.59711875783978 114.71084337343927,51.65276379867282 116.33012048189994,51.100402321113506 118.8024096385343,50.97567523793259 119.82891566265607,51.45676481112605 122.8361445782939,54.71743998739112 124.75903614464914,55.73304480321531 126.60963855421869,56.0181255487696 126.95662650605664,56.855546922713984 125.5253012048197,58.53037482801301 125.1638554216479,59.31433002659469 125.39518072287319,59.510318148779334 124.52771084336564,60.2408169440605 120.33493975905003,61.55926865526999 116.64819277107017,64.6949964309897 112.03614457830554,67.15364355743804" stroke="#4dd2ff" stroke-linecap="round" stroke-linejoin="round" stroke-width="0.5"><title>2024-11-03 10.0km</title><desc>1730623436000</desc></polyline><polyline fill="none" points="153.75276838400168,43.199593842382455 153.48723140452057,42.94928793491272 153.44929755027988,42.79793952795444 153.06047554459656,42.524346935806534 152.88503146884614,41.93640851125019 151.7849496966228,40.353012881769246 151.61424735264154,39.86401223577559 151.5857969619683,39.194538785235636 151.7090819881996,38.571628805544606 151.6047638890741,38.42608789652877 151.6047638890741,38.16411312040509 151.82762528260355,37.20352640197234 151.92245991813252,37.028872154234705 152.0315197489981,37.028872154234705 152.38714963226812,35.18914117284294 153.3734298418567,33.76271771868778 154.00408016817528,33.023289274548006 154.06572268126183,33.0 155.45979182366864,34.23431558776065 155.63997763118823,34.47884594607967 156.26588622573763,36.044974386913964 155.47875875077443,36.58058993656596 155.05200289087952,37.16859560453668 154.74853205715772,38.20486484849971 154.74853205715772,38.81613651441512 155.5925603134092,40.417048302559124 155.87232248825603,40.70811729351408 156.13785946776625,41.40085421594267 156.39391298370901,41.54056462252265 156.86808616138296,42.070296128218615 158.15783720472245,42.966751181164 158.73632848149282,43.86318907653549 159.025574119878,44.49184957352554 159.0777331694262,45.09139755740762 159.35749534424394,45.81899402655472 159.24369378160918,46.29047050414374 159.9217614256777,46.70955672274067 160.39593460338074,46.72119795307299 160.8321739268722,46.95402195215138 162.90905244511669,48.43242734393789 164.01861768090748,49.3404012302999 164.19880348842707,49.328760650805634 164.51175778571633,49.03774522341337 164.79626169230323,48.93879956632372 165.50277972707408,49.04938587521974 166.1239465898252,49.28801859979649 166.8257228928269,49.864224314114836 167.89261254260782,51.016614483625744 168.09650700900238,51.13301595492521 168.1296991314448,51.261057239378715 168.4142030380608,51.4822186337733 168.5232628689264,51.67427899779432 168.94053526528296,51.971098011857976 169.2914234167838,52.35521394479656 169.71343754490954,52.558910510306305 169.77982178979437,52.75096646101156 170.10225955062197,53.08851743647392 170.1686437954777,53.02449933486787 170.14019340483355,53.14671563474258 170.28718708991073,53.327129590041295 171.8661837716354,54.90426717004084 171.86144203983713,55.550238088329934 171.78083259961568,55.82957410600284 171.5437460107787,56.37078290208228 170.8656783666811,57.418266042714095 172.61063566058874,59.769198520905775 172.66753644193523,60.246353588390775 172.53950968393474,61.15409859898136 172.6153773923579,61.50322661449172 172.55373487927136,62.096738273048686 172.60589392881957,63.06845192191031 172.4731254390499,63.28373904652835 172.2218136548763,64.43579928982581 171.54848774254788,65.55873985512153 171.55322947434615,65.77401554382595 171.23079171351856,65.85547095204674 170.9368043433642,66.13474556297297 170.4199555796513,66.43729118082774 170.1876107226126,66.46056383978794 169.76559659445775,66.76310735513471 169.2392643672356,66.89110594697195 168.987952583062,67.04237655955876 168.15814952211804,67.16455631340796 167.47059841448208,67.15292016008607 166.90633233301924,67.04237655955876 165.9485025140748,66.35001860680495 165.05705694001517,65.23291531081486 164.72513571564923,65.04091050112402 164.16561136598466,64.38925195004776 163.8716239958303,64.33106771033636 163.61557047988754,64.13905920693651 163.14613903398276,64.06341927756512 162.5154887076351,63.54557340613974 162.24995172812487,63.44083983778182 160.4575771164964,63.74340284124992 159.84589371728362,63.731765838751016 157.10517275024904,64.2205174559349 155.92448153780424,64.61035140233435 155.27486428437987,64.732537494383 154.47351161408005,65.0700021895027 153.36868811008753,65.32600826883936 152.27808980140253,65.75074254406354 151.85133394147852,66.00092668616708 152.29231499673915,66.78056172913784 152.24015594719094,67.17037438899206 152.30654019204667,67.44382312663947 152.0315197489981,67.68236221240295 151.43406154512195,68.5259663169636 151.48622059467016,68.93321803857543 150.17750262425398,70.91706512797828 149.98783335316693,71.4930050142757 148.82136733608786,73.44184004559429 148.42306186680798,74.32024368597558 147.7924115404894,75.42549641568621 147.66438478251803,75.50111801887033 147.55058321988326,75.82105422166933 147.17598640947836,76.27477818529951 146.85354864867986,78.10126359036803 147.02899272440118,79.22969355157693 147.97733907977818,81.2247378350221 148.16226661906694,81.3003500895502 148.26658471819246,81.50973723528296 148.5985059425584,81.75983732348686 149.1532885604538,82.61482057848116 150.0305089391768,83.44652403239161 150.2059530148981,83.4697882526998 150.0637010615901,83.49886851185511 150.25337033270625,83.5163166586899 150.533132507524,83.82456618301512 150.78444429166848,83.92343824297859 150.95514663564973,83.89435824697648 151.57157176663168,84.42361135324609 152.29705672850832,84.67951181292665 153.02254169038497,85.09243915708794 154.46876988231088,85.67402080224201 154.8054328384751,85.88920418394628 154.78172417957103,85.97644040892555 154.42135256456095,85.92409869340918 152.98934956791345,85.49373126319915 152.33499058274901,85.39486251218841 151.73753237884375,85.07499159634972 151.32500171425636,84.66206409866936 150.2818207233504,83.99904614825573 149.3856334175216,83.27785809020861 148.16700835086522,81.84126497145553 147.67860997785465,81.10841105162763 148.41357840326964,82.07391461548468 149.7602302278974,83.47560430596786 150.89824585433234,84.32474034729603 151.60950562084327,84.74348670979089 152.9798661043751,85.38904669682961 156.99611291938345,86.47077595364681 157.71211441769265,86.73248089839399 158.1862875953666,87.0 157.78798212611582,86.75574348950977 156.91076174739283,86.43588185074623 155.67316975363065,86.04622927214587 153.7859605064441,85.6274945359146 152.19748036121018,85.01101715151162 151.34396864136215,84.58064134623419 150.34346323643695,83.90599024753101 149.07267912023235,82.77185662544434 147.61222573296982,80.95718580199173 147.2234037272865,80.25921679410749 146.9009659664589,79.41582372063203 146.7207801589102,78.63639870877523 146.69707150003524,77.77552618139453 146.8440651851124,76.91463785408268 147.14753601883422,76.11772038689742 150.54261597106233,70.06186861039532 151.50518752177595,68.59578114903707 152.40137482760474,67.58927393307386 153.0177999585867,67.08892126524006 154.5351541271957,66.11147274225368 155.1610627217451,65.82056150871358 156.2374358350935,65.42491933416386 157.01982157825842,65.2561885676514 160.68043850999675,63.91795753187762 161.88009664954734,63.63285120100409 162.64825719740475,63.74340284124992 164.29837985575432,64.40088878932511 164.87687113252468,64.82563144602682 166.64079535350902,66.5943814046841 167.15764411722193,66.94346890657471 167.80251963884803,67.15873823711445 168.45687862404156,67.21110089781723 169.24400609903387,67.0656489181747 169.81301391223678,66.78637985237583 171.24501690882607,65.80892502182905 171.6859979640867,65.42491933416386 172.06059477446252,64.91290685777494 172.41148292593425,63.89468361069157 172.6201191241271,59.61790443643622 172.81927185875247,57.62775986141787 172.68650336901192,56.73740466446907 172.11275382398162,54.38632009158391 171.19285785930697,52.05257741227615 171.7950577949523,53.5890195794309 172.31664829040528,55.77719872952366 172.47786717081908,56.149644579276355 172.54899314747308,56.2543944412173 172.74814588209847,56.23693614714648 172.93307342141634,56.341685813942604 173.30292849999387,55.585155181597656 173.2460277187056,55.48040382374893 172.5632183428097,55.13705050919452 172.4731254390499,55.02065898415822 171.76660740430816,54.77041622642355 171.4726200341538,54.555089993144065 170.10225955062197,53.15835526572482 170.17338552727597,52.99540016888568 170.08329262351617,53.05359848280568 169.6328281047172,52.71022738573447 168.83147543441737,51.96527804926518 168.80302504374413,51.86051859892177 168.13918259501224,51.37745810341221 167.28092914339504,50.300739076810714 166.13343005339266,49.317120068415534 165.77305843832437,49.1425109855154 164.81048688763985,48.956260579812806 164.47382393147564,49.06102652413756 164.15612790244631,49.346221518957464 164.0328428762441,49.334580940903834 161.23522112789215,47.210127014666796 160.80846526796813,47.02968950271679 160.48128577537136,46.697915489512525 159.97866220702417,46.72701856715139 159.19153473206097,46.26718782651005 159.33852841713815,45.91794627333002 159.15360087784939,45.51049450370192 158.98289853389724,44.44528241864464 159.32430322180153,44.05528067912746 159.80795986307203,43.92139873627457 160.00711259769741,43.76423248894571 159.9549535481492,43.28690954191188 159.8506354490528,43.08317265647929 158.7742623357044,42.361354844648304 159.2958528311574,41.558028394039866 158.94970641142572,41.37174782879083 158.6130434552906,41.994620565659716 158.42337418420357,42.11686564438787 157.6836640270194,41.86073273236252 157.28061682597036,41.53474336391082 156.88231135671958,40.73140273464378 156.95817906517186,40.49854780237365 157.17629872693215,40.33554866090708 157.01507984648924,39.881476632475824 156.9486956016044,39.09557233276064" stroke="red" stroke-linecap="round" stroke-linejoin="round" stroke-width="0.5"><title>2024-10-27 42.8km</title><desc>1729986801000</desc></polyline><polyline fill="none" points="53.572229299345054,155.23917360889027 54.02624203823507,154.56102438658127 57.27312101912685,152.76391245958803 60.740127388504334,149.7969299982651 63.79439490445657,149.01702663373726 65.18394904455636,148.2371187598037 65.47286624205299,147.89802697327104 65.25273885345086,147.71152612725564 65.44535031844862,147.33852366176143 66.91745222930331,145.38872125773923 66.6147770700627,144.72747752047144 64.95006369426847,144.49010718302452 62.94140127382707,143.33715960165136 61.703184713376686,142.37071065344207 61.648152866226155,142.01464876890532 60.14853503188351,140.3021475251735 59.11668789811665,139.8443464795564 56.310063694254495,139.99694700079272 55.05808917194372,140.60734735892038 52.66420382168144,142.99805549616576 51.89375796174863,143.45584583713207 48.495541401265655,143.1676076555159 47.174777070002165,143.5236664963013 43.157452229293995,146.45687737004482 41.3826751591987,147.32156897970708 39.89681528660003,147.27070492085477 36.18216560507426,145.71086446823028 34.311082802538294,145.91432294154947 31.69707006367389,145.42263110559725 29.014267515973188,145.72781935270177 25.89121019106824,146.9146559715591 24.198980891727842,147.27070492085477 17.51261146500474,150.08515401356271 15.366369426716119,151.27195229347853 15.297579617821611,151.54321900561627 14.705987261142582,151.916209844072 13.467770700633992,155.01877548558696 13.0,155.44261771078163 14.29324840765912,152.00098034538678 15.049936305731535,151.1363187328534 15.297579617821611,151.5940814534406 15.462675159214996,151.2380439161061 17.292484076460823,150.08515401356271 28.615286624233704,145.77868399344152 31.862165605125483,145.4904507757601 34.29732484079432,145.98214236448985 36.18216560507426,145.72781935270177 38.493503184756264,146.50774173585523 39.74547770700883,147.18593144671468 41.19006369425915,147.33852366176143 42.263184713432565,146.8977012362593 47.54624203819549,143.35411478456808 48.440509554115124,143.20151806180365 51.08203821652569,143.55757681296382 52.0726114649442,143.42193549479998 55.04433121019974,140.60734735892038 56.24127388535999,140.0817249934771 58.814012738876045,139.91216895480466 59.91464968159562,140.1665029329306 60.45121019106591,140.53952523332555 63.01019108283799,143.404980320498 65.01885350316297,144.38837691051594 66.83490445860662,144.7952975401131 67.0,145.4395860263612 65.43159235670464,147.4232970399462 65.25273885345086,147.81325389340054 65.52789808914531,147.99975459869893 63.890700636897236,149.084844496625 60.68509554141201,149.94951925954956 56.8466242038412,153.15385387386777 49.18343949044356,157.2905542524677 48.1515923566767,157.47704185506154 45.867770700657275,159.66401359223528 44.780891719739884,160.1556535204436 44.24433121015318,160.12174737600435 45.04229299357394,160.00307580341178 46.363057324895635,159.1893250648718 48.082802547723986,157.4431350374507 49.761273885320406,156.9006247958314 56.53019108279841,153.30643933782994 59.790828025492374,150.55987457853917 59.59821656049462,151.11936452816008 59.85961783438688,150.4751031716296 60.946496815246064,149.7799756252789 63.86318471340928,149.01702663373726 65.3765605094959,148.10148214745277 64.35847133753123,148.86443631755537 60.6163057325175,149.98342796084762 57.286878980870824,152.88259040065168 50.36662420380162,156.69718289277807 47.98649681528332,157.62962242905633 46.80331210192526,158.95198017485382 45.743949044612236,159.71487297824933 44.6157961783465,160.1556535204436 46.335541401291266,159.22323144364054 47.94522292993497,157.52790206554346 49.678726114623714,156.9006247958314 56.62649681523908,153.20471571435337 59.13044585986063,151.18718133406946 57.02547770697856,153.03517617144098 55.59464968153043,153.81505630444735" stroke="#4dd2ff" stroke-linecap="round" stroke-linejoin="round" stroke-width="0.5"><title>2024-10-13 16.0km</title><desc>1728810741000</desc></polyline><polyline fill="none" points="113.45530939649325,155.2534517453023 115.2841864018701,153.94867581891594 117.56684491981287,152.88112248714606 120.77081741794245,150.11900082837383 123.86478227656335,149.3225503298163 125.36363636370515,148.5260951261007 125.72116119175917,148.22106848286057 125.29488158901222,147.848257203892 125.37738731858553,147.5432290269964 126.90374331554631,145.5096902101941 126.64247517188778,144.73015886392386 124.96485867077718,144.4929092986422 123.4385026737582,143.79810459834698 121.99465240642894,142.52711112341785 120.12452253635274,140.35792124766158 118.32314744085306,139.8664593163121 116.35676088620676,140.12066398728348 115.0091673033312,140.7307532417326 112.08021390374051,143.54390686201805 108.46371275786078,143.28970864634903 107.43239113833988,143.49306725720817 103.8433919022209,146.06891644270218 101.505729564582,147.33987652568612 100.07563025213312,147.35682257915323 98.16424751724117,146.40784030304349 96.08785332314437,145.79777674085926 94.43773873185273,146.05197022730135 91.96256684494438,145.52663649372698 88.99236058059614,145.78083049140696 87.60351413296303,146.22143228528148 78.12910618796013,149.8987064803514 75.69518716580933,151.1357393086073 74.59511077165371,152.11857921769843 73.31627196335467,155.27039680416055 73.0,155.49068237531174 74.30634071817622,152.05079738497443 75.10389610391576,151.1357393086073 75.26890756312059,151.52548702634522 75.69518716580933,151.06795698174392 78.50038197101094,149.71230328931415 89.14362108486239,145.76388423978642 92.00381970976014,145.49274392447842 94.36898395727621,146.01807779012597 96.19786096259486,145.79777674085926 98.54927425517235,146.52646345287212 99.95187165780226,147.3059844122763 101.18945760128554,147.3907146797428 102.55080213904148,146.89927838712174 105.9197860963177,144.34039150044555 107.55614973267075,143.42528108770784 108.69747899164213,143.23886894572934 111.79144385032123,143.5269603291963 112.72650878533022,143.00161675586423 114.39037433167687,141.10358420461125 115.60045836522477,140.39181510789786 116.83804430870805,140.018982176407 119.684491978609,140.08677005884238 123.24598930485081,143.54390686201805 124.84110007644631,144.4081772098143 126.80748663103441,144.89962258352898 126.98624904511962,145.56052905444812 125.73491214675596,147.0517932903458 125.33613445382798,147.8652031935053 125.4048892284045,148.2041225380235 123.98854087095242,149.06836301003932 120.64705882361159,150.06816370310844 116.74178762419615,153.25391984923044 108.98624904511962,157.38851238934149 107.9686783804791,157.64268402352172 106.64858670748072,159.15075919803348 104.90221543167718,160.1335406836879 106.60733384266496,159.13381462688267 107.84491978609003,157.5918497349776 109.06875477469293,157.32073320595373 117.29182582127396,152.84723176668922 120.50954927428393,150.00038083955587 124.15355233015725,148.91585038813355 125.52864782279357,148.03466297224804 125.25362872425467,147.848257203892 125.47364400309743,147.35682257915323 126.94499618030386,145.56052905444812 126.79373567615403,144.86572985662497 125.01986249047332,144.5098557099991 122.99847211618908,143.45917417673627 120.35828877007589,140.52739046371426 119.38197097025113,140.03592915019544 118.02062643243698,139.96814124223602 115.82047364406753,140.32402737886878 114.48663101613056,141.08663736504968 112.90527119941544,142.88299050429487 111.66768525599036,143.5947464476485 108.42245989310322,143.28970864634903 106.90985485108104,143.73031858213653 108.1611917494447,143.2219223745633 111.8189457601984,143.47612071808544 112.52024446148425,143.10329631691275 114.50038197101094,141.03579683350108 115.46294881595531,140.39181510789786 116.98930481285788,139.93424727545062 119.36822001531255,139.88340630930907 120.454545454646,140.54433737359068 122.3109243697836,142.8321506502689 123.56226126814727,143.78115809748124 125.04736440029228,144.47596288511704 126.5324675324955,144.61153413348075 126.83498854091158,144.8318371212663 127.0,145.54358277512074 125.62490450730547,147.085685467624 125.32238349883119,147.79741922234825 125.5974025974283,148.03466297224804 123.76852559210965,149.10225468041608 120.67456073343055,149.88176074637158 117.37433155084727,152.81334103782137 109.12375859444728,157.26989879603207 108.10618792980677,157.50712587825547 107.55614973267075,157.9646340723848 108.13368983962573,157.45629153861955 108.84873949585017,157.37156759666686" stroke="#4dd2ff" stroke-linecap="round" stroke-linejoin="round" stroke-width="0.5"><title>2024-10-06 18.0km</title><desc>1728199446000</desc></polyline><polyline fill="none" points="172.92240233859047,155.5885285941622 174.94578793516848,154.12078533480235 177.1987775710877,152.95365326071624 180.08317831525346,150.35409702651668 184.05819824611535,149.20461807097308 185.4358224821044,148.35576604465314 185.57932500663446,148.21429020905634 185.1488174329279,147.70143911227933 186.81344671809347,145.4201133034221 186.5551421737764,144.6242932715395 184.80441137391608,144.3059639983112 182.80972628225572,143.28023144027975 181.41775179380784,142.05995365601848 179.73877225618344,140.06150485745457 178.57640180707676,139.60168076226546 177.42838161042891,139.72547970501182 176.6391177251935,139.51325287934742 174.45787935162662,140.27373085597355 172.1618389582727,142.8204178658052 171.3725750730955,143.29791654768633 170.89901674201246,143.42171223767218 167.91416423069313,142.99726941842528 166.86659580125706,143.13875050045317 164.29790061118547,144.69503301224904 161.98750996548915,146.4811996765784 160.32288068032358,147.29469380961382 158.7730534148286,147.27700920459756 155.44379484455567,145.77380965034536 154.23837363807252,145.66770083962183 153.01860217913054,145.95065749034984 150.72256178577663,145.31400422591832 149.78979537606938,145.29631937190425 146.7762423598906,145.80917923615198 142.5716183896875,147.33006301306887 134.82248206221266,150.42483388629626 133.10045176721178,151.43283027356665 133.0,151.75114342186134 133.21525378688239,151.02609575833776 134.87988307204796,150.00041219430568 146.96279564179713,145.49085264395399 148.8426787138451,145.27863451567828 149.6893436088576,145.45548297812638 151.00956683501136,145.17252533147985 152.70289662509458,145.63233121830854 154.69758171675494,145.38474361979752 157.09407387726242,146.09213560231728 158.94525644433452,147.01173986209324 160.3372309327824,146.9233166367776 166.3212862078217,142.94421397600672 167.25405261758715,142.7319920060836 170.9133669944713,143.06800997725804 171.8174328993773,142.50208451075014 174.21392505982658,140.0791903695499 175.99335636460455,139.42482494085561 177.50013287278125,139.51325287934742 178.71990433166502,139.2302832804562 180.34148285951233,140.06150485745457 181.46080255118432,141.4940241343429 181.2311985118431,141.74161858024308 183.09673133143224,143.51013766387769 184.84746213129256,144.3413339531253 185.95243157056393,144.51818359381286 186.56949242629344,145.2255799335544 186.89954823284643,145.20789506839355 185.22056869522203,147.648385443812 185.36407121975208,148.07281423112727 183.98644698382122,149.08082746941363 180.24103109230055,150.177254721566 176.32341217115754,153.50185286490887 168.14376826997614,157.81663970105 167.19665160781005,157.99347240467614 165.53202232258627,159.7617872187111 163.70954026049003,160.76971671952924 163.46558596869,160.71666797838407 164.06829657190247,160.575204570996 165.57507307996275,159.6203228513623 166.23518469306873,158.70080099697225 167.26840287010418,157.86968953548057 169.0191336699645,157.30382360373915 174.51528036146192,154.4037249857356 177.50013287278125,152.45850339524623 177.7010364071466,152.54692314191198 179.27956417750102,151.3444098268228 179.5522189742769,150.6547284348926 179.9970768004423,150.283360131245 180.8867924528895,149.78820086819178 183.90034546901006,149.06314308886067 185.3784214722691,148.01976070275123 185.16316768532852,147.80754638910003 185.2636194525985,147.48922431850224 186.84214722295292,145.49085264395399 186.7703959606588,144.8718822083174 186.33988838701043,144.571238442717 184.74701036408078,144.35901892719266 183.3550358756329,143.6693032909243 181.7334573478438,142.36060278845252 180.1118788201129,140.36215826086118 179.35131543979514,139.8492785387789 177.1413765612524,139.63705189993198 175.26149348926265,139.97307726359577 174.32872707943898,140.4152146771521 171.97528567636618,142.89115851352108 171.07121977151837,143.40402714583615 167.85676322085783,143.0503248409077 166.09168216848047,143.40402714583615 161.18389582785312,146.95868593356863 160.29418017546413,147.33006301306887 158.68695190007566,147.29469380961382 155.05633802816737,145.72075525500986 152.87509965454228,145.9683422621456 149.99069891043473,145.40242846275214 146.51793781557353,145.89760316169122 136.77411639655475,149.68209508513974 146.80494286475005,145.72075525500986 150.14855168754002,145.27863451567828 152.96120116935344,145.95065749034984 154.81238373636734,145.61464640428312 156.82141908060294,146.233613571967 159.0457082116045,147.29469380961382 160.4950837098295,147.18858614603232 166.4360882274923,143.1741207487794 167.19665160781005,142.99726941842528 171.0855700239772,143.28023144027975 172.0900876960368,142.64356609081733 173.75471698126057,140.82197987030668 174.7305341482861,140.14993239575415 175.99335636460455,139.72547970501182 178.69120382674737,139.51325287934742 179.7244220037246,139.90233514845022 181.87695987249026,142.37828801147407 183.55593941011466,143.68698834945098 184.73266011162195,144.2705940345768 186.7129949508817,144.64197821002745 187.0,145.26094965719676 185.69412702642148,146.65804662737355 185.1488174329279,147.82523092748306 185.2636194525985,148.14355223787425 184.7613606165396,148.5679795314063 183.21153335104464,149.29303986247396 180.25538134464296,150.07114923188055 176.48126494826283,153.28964681985963 174.70183364336845,154.24457150211674" stroke="#ffac00" stroke-linecap="round" stroke-linejoin="round" stroke-width="0.5"><title>2024-09-22 20.8km</title><desc>1726992504000</desc></polyline><polyline fill="none" points="52.359809372457676,245.3651907407475 53.53216838766821,244.4490517834929 53.98967434465885,244.39619743016374 56.34868943609763,242.95150405686582 59.92295472603291,239.90350455991575 63.03971405880293,239.0578050925833 64.78395552025177,238.17686272170977 65.04130262113176,237.91257893081638 64.6266878474853,237.5601997678168 64.69817315333057,237.2606767827383 67.0,234.15969532213057 64.48371723591117,234.14207591328886 62.96822875295766,233.40205874123785 60.75218427326763,231.56961845170008 59.351072279619984,229.82525399503356 58.4932486100588,229.34951446625928 55.10484511515824,229.5785744409368 52.73153296264354,231.12912442571542 51.34471803018823,232.78537477990903 50.35822081018705,233.1906245458522 47.38443208899116,232.7501356145076 46.06910246232292,233.01442913942446 40.679110405093525,236.69686707457004 39.60683081811294,237.10210553155048 37.81969817326171,236.83781971425924 36.904686258989386,236.15067425706366 34.531374106474686,235.28733288202784 32.50119142176118,235.65733697963879 30.556791104085278,235.04066294098448 29.241461477417033,234.9878050400148 25.56711675936822,235.78067146177636 15.13026211282704,239.81541110346734 13.157267672708258,240.92538460881042 13.0,240.66110600001412 14.401111993705854,239.74493629843346 19.247815726790577,237.82448422312154 24.923749007226434,235.72781383981055 24.938046068302356,235.9744825716043 26.982525814149994,235.304952146922 30.499602859432343,235.0230436428683 32.50119142176118,235.56924085451465 34.803018268430606,235.39304843812715 35.77521842735587,235.60447931116505 37.948371723585296,236.80258156760829 39.664019062765874,236.99639126444526 40.79348689439939,236.573533398594 45.96902303415118,232.89109222308616 47.127084988111164,232.69727684966347 49.92930897540646,233.10252687038155 50.78713264496764,232.94395091483602 51.40190627484117,232.62679846558603 54.06115965056233,229.93097367105656 55.66243050037883,229.40237449359847 58.207307386852335,229.31427443686698 58.95075456716586,229.4552345010743 59.60841938049998,229.9838334791275 61.55281969817588,232.32726493787777 62.82525814138353,233.33158071155776 64.22637013508938,234.00112056267972 65.4416203336441,234.17731472874584 66.07069102465175,234.9173278076778 66.41382049245294,234.81161189278646 66.41382049245294,235.14637868315913 66.07069102465175,235.28733288202784 64.76965845911764,237.2959148142545 64.65528196986998,237.59543772399775 64.91262907063356,237.75400841709052 63.39714058779646,238.81114178683492 59.89436060364824,239.76255500303523 55.419380460632965,243.42719742150803 53.6179507545894,244.18477981774777 47.75615567906061,247.44409924342472 46.783955520251766,247.63789422780974 45.16838760924293,249.36441953673784 43.32406671962235,250.40384798920422 45.12549642584054,249.2763320254744 46.669579031004105,247.6026587960223 48.027799841191154,247.23268622758042 56.277204130310565,242.77532091960893 59.75138999207411,239.76255500303523 63.23987291502999,238.7935229626455 64.61239078629296,237.9478167983907 64.86973788717296,237.71877050079638 64.6266878474853,237.54258078645216 64.8411437649047,237.0316293623473 66.35663224785822,235.0230436428683 66.09928514692001,234.37112805563083 64.32644956320291,234.08921767341963 62.56791104050353,233.20824407433975 60.80937251786236,231.62247764176573 59.50833995232824,229.93097367105656 58.893566322512925,229.54333446918463 57.80698967439821,229.31427443686698 55.70532168383943,229.4552345010743 53.803812549682334,230.24813222057128 51.60206513106823,232.5739396542922 50.57267672754824,233.12014640984125 47.27005559968529,232.76775519832154 46.06910246232292,232.99680958659155 39.907069102453534,237.06686745138722 38.46306592534529,237.0316293623473 36.66163621930173,236.11543593773968 34.331215250247624,235.3754291843361 32.37251787137939,235.65733697963879 30.428117553703487,235.12875939829974 29.413026211375836,235.14637868315913 27.068308181129396,235.4282869391318 25.152501985721756,236.02734010049608 25.08101667993469,235.71019462810364 26.324861000815872,235.199236524335 30.027799841191154,234.82923121744534 30.385226370184682,235.12875939829974 32.44400317710824,235.62209853623062 34.445591739495285,235.3754291843361 36.461477363016456,236.0097209264204 38.36298649723176,236.96115315766656 39.56393963471055,237.04924840795866 40.80778395553352,236.573533398594 45.38284352666233,233.40205874123785 47.027005559939425,235.9744825716043 47.34154090547236,235.9921017501474 47.77045274025295,236.76734341210977 48.85702938842587,236.99639126444526 49.31453534553293,237.8773410543654 50.83002382842824,239.4277992373536 50.972994440060575,240.2206405447505 51.74503574264236,240.8372917945817 51.17315329628764,241.26013679806783 52.188244638673496,244.99521226716752 47.64177918981295,247.49695244753093 46.769658459175844,247.67312965076417 44.43923749012174,249.8753260103258 42.823669579054695,250.4919347919058 42.866560762457084,250.68572556314757 44.15329626691528,250.22767421760364 46.29785544081824,248.5540123457904 44.739475774462335,250.016265399463 42.76648133440176,250.65049089740205 42.809372517920565,250.43908271689725 43.81016679905588,250.1924394367088 45.19698173151119,249.25871451661806 46.769658459175844,247.54980563174468 47.69896743452409,247.40886376288836 51.73073868150823,245.27710071652837" stroke="#4dd2ff" stroke-linecap="round" stroke-linejoin="round" stroke-width="0.5"><title>2024-08-22 19.8km</title><desc>1724317734000</desc></polyline><polyline fill="none" points="112.4002134471666,239.24272913216555 112.63073639280628,238.65091663991916 116.76093916757964,236.54404907474236 121.89007470663637,232.11718313932943 126.32764140889049,231.02820551967307 127.0,230.64942921949842 126.82710779085755,230.43636721599614 121.65955176099669,232.02248968320782 116.81856990396045,236.18895671493374 114.43649946642108,237.5383041207533 113.49519743863493,237.70401278481586 106.6371398079209,241.7519934429729 104.0629669156624,242.60418881234364 101.8537886873819,244.90036270157725 99.6830309497891,246.22597612036043 97.7427961579524,246.22597612036043 97.56990394880995,245.68152888088662 96.18676627532113,245.58684224376339 95.26467449311167,246.79409330131602 94.28495197440498,247.26752297657367 93.05549626459833,246.95979382298538 89.07897545362357,247.19650860116235 83.54642475990113,248.26172142161522 79.55069370334968,248.6404623062699 77.59124866593629,249.0665448912623 76.57310565642547,249.63465350540355 75.97758804692421,249.27958582233987 73.0,249.13755856174976 73.32657417282462,248.7114761373523 76.5538954109652,249.01920242940832 76.57310565642547,249.5873111863184 77.41835645679384,248.995531194043 79.76200640341267,248.42742065234052 88.57950907154009,247.40955164715706 89.13660619000439,247.10182272559905 92.70971184642985,246.8414363224001 94.13127001060639,247.14916566926695 95.26467449311167,246.6283926339238 96.28281750262249,245.44481219891168 97.64674493065104,245.6105139075371 97.85805763071403,246.10761815868318 99.91355389542878,245.94191688740102 101.7001067235833,244.94770619855262 104.0629669156624,242.48582857495057 105.54215581645258,242.13074741646415 116.10779082181398,236.5677218749479 121.29455709725153,232.09350977974827 126.76947705447674,230.3653464945819 121.50586979731452,232.11718313932943 116.33831376733724,236.40201221119787 105.50373532553203,242.2727799602144 103.87086446105968,242.6988769487507 102.37246531480923,244.42692707690003 99.31803628604393,246.36800557625247 102.02668089652434,244.68731681768259 103.77481323364191,242.62786085088737 106.31056563497987,241.77566558864783 111.68943436502013,238.9349868682766 113.3799359658733,237.7276854391821 116.29989327653311,236.54404907474236 121.17929562437348,232.28289657294226 126.34685165423434,230.60208212849102 121.52508004265837,232.09350977974827 116.54962646740023,236.378339390154 113.74493062961847,237.89339393662522 113.26467449311167,237.7750307390379 111.43970117392018,239.12436678244558 105.21558164351154,242.41481239678978 103.9284951974405,242.65153288652073 105.73425827117171,241.98871476562636 105.69583778013475,241.60996050661197 107.63607257208787,239.95290166826453 107.86659551761113,238.84029683977133" stroke="#4dd2ff" stroke-linecap="round" stroke-linejoin="round" stroke-width="0.5"><title>2024-07-03 11.2km</title><desc>1719998343000</desc></polyline><polyline fill="none" points="168.81777277833316,240.22484225567314 169.30371203599498,239.5012750823662 174.81102362193633,236.53212699836877 179.3667041619774,232.5399251257768 184.63104611914605,231.04282872502517 186.47356580419,229.94495085529343 187.0,229.49581724942254 186.7367829021532,229.32115390602848 184.42857142863795,230.79331156043918 179.30596175487153,232.29040984302992 174.12260967376642,236.6818330068636 163.47244094486814,242.39552795312193 160.9010123735061,243.2937357822957 159.22047244093847,245.23983880481683 156.50731158605777,246.98632527598238 154.48256467934698,247.06117435282795 154.28008998872247,246.48733070904564 152.76152980874758,246.4374311833817 151.7289088864345,247.659965951927 150.65579302585684,248.13400802054093 148.93475815525744,247.80966356956924 145.3307086613495,248.03420978435315 133.10123734525405,250.12996220964123 133.0,250.4044043415197 133.6884139481699,250.22975939241587 136.4218222721247,250.67884609397152 137.53543307073414,249.68087426647253 138.73003374575637,249.45632991404273 138.9527559055714,249.08208876222488 145.39145106857177,247.90946191860712 148.95500562433153,247.6849155627715 150.63554555678274,248.03420978435315 151.70866141736042,247.61006672104122 153.10573678289074,246.2627827446995 154.32058492675424,246.41248141579854 154.64454443193972,246.93642587572685 156.70978627668228,246.83662703755544 158.77502812142484,245.61408719912288 159.6051743532298,244.34163978019205 161.1237345332047,243.0442340151203 162.6220472441055,242.6949310143682 173.71766029240098,236.90639180784638 179.00224971887656,232.41516752362077 180.46006749151275,231.66662026412087 184.34758155234158,230.6436011112528 186.5343082115287,229.3461058216053 183.96287964005023,230.96797360856726 179.48818897653837,232.16565208409156 174.06186726654414,236.75668596872129 163.41169853764586,242.52027928356256 160.96175478061195,243.41848654818023 159.3622047243407,245.26478871973814 157.6614173228154,246.5621799740038 155.59617547795642,247.16097307806194 158.410573678324,245.8386358970747 161.18447694042698,243.06918420590227 162.6220472441055,242.76978170911025 174.64904386946,236.3325188114104 178.31383577059023,232.98905184435716 173.9201349831419,236.83153890240646 165.71991001127753,241.1480103378708" stroke="#4dd2ff" stroke-linecap="round" stroke-linejoin="round" stroke-width="0.5"><title>2024-06-26 10.0km</title><desc>1719394224000</desc></polyline></svg>