<?xml version="1.0" encoding="utf-8" ?>
<svg baseProfile="full" height="300mm" version="1.1" viewBox="0,0,200,300" width="200mm" xmlns="http://www.w3.org/2000/svg" xmlns:ev="http://www.w3.org/2001/xml-events" xmlns:xlink="http://www.w3.org/1999/xlink"><defs /><rect fill="#222222" height="300" width="200" x="0" y="0" /><text fill="#FFFFFF" style="font-size:12px; font-family:Arial; font-weight:bold;" x="10" y="20">Over 10km Runs</text><text fill="#FFFFFF" style="font-size:4px; font-family:Arial" x="10" y="280">Runner</text><text fill="#FFFFFF" style="font-size:9px; font-family:Arial" x="10" y="290">jianbo</text><text fill="#FFFFFF" style="font-size:4px; font-family:Arial" x="65" y="280">SPECIAL TRACKS</text><rect fill="yellow" height="2.6" width="2.6" x="65" y="283" /><text fill="#FFFFFF" style="font-size:3px; font-family:Arial" x="70" y="285.5">Over 20.0 km</text><rect fill="red" height="2.6" width="2.6" x="65" y="287" /><text fill="#FFFFFF" style="font-size:3px; font-family:Arial" x="70" y="289.5">Over 40.0 km</text><text fill="#FFFFFF" style="font-size:4px; font-family:Arial" x="120" y="280">STATISTICS</text><text fill="#FFFFFF" style="font-size:3px; font-family:Arial" x="120" y="285">Number: 16</text><text fill="#FFFFFF" style="font-size:3px; font-family:Arial" x="120" y="290">Weekly: 1.0</text><text fill="#FFFFFF" style="font-size:3px; font-family:Arial" x="141" y="285">Total: 271.2 km</text><text fill="#FFFFFF" style="font-size:3px; font-family:Arial" x="141" y="290">Avg: 16.9 km</text><text fill="#FFFFFF" style="font-size:3px; font-family:Arial" x="167" y="285">Min: 10.0 km</text><text fill="#FFFFFF" style="font-size:3px; font-family:Arial" x="167" y="290">Max: 42.8 km</text><polyline fill="none" points="19.45596471967292,70.80054405629198 19.36434190100408,70.52957218408847 20.10954082594253,70.1758015057676 20.24392095996882,70.19838267533851 20.573763107095147,69.87471843139429 20.91582162998384,69.83708294066673 22.455084983143024,68.31658933615472 22.83990082141827,68.12087943432198 24.09207934283768,67.83484073502404 24.72122269749525,67.37567049236532 24.916684710566187,67.36061567069919 25.698532762995455,65.93791794496428 26.779682022926863,65.23032024659187 27.702018397219945,63.784988327144674 27.946345913602272,63.57420784070928 28.6365711473627,63.40859408086908 30.102536245569354,64.07857419675202 30.41405382900848,64.01835157162714 31.079846311098663,63.739821142509754 31.34860657909303,63.41612198897565 31.64179959872854,62.685910495416465 31.947208994213725,62.33209347612865 32.31370026877266,62.18906047062774 32.94895181132597,62.181532408241765 33.44982321988209,61.97074627714392 33.797989930724725,61.541643645919976 33.87128818567726,61.225460791894875 34.06064201082336,58.221640395939176 34.32329409092199,57.64946704218164 34.885247378610075,57.09987432965136 35.67931180680171,56.746024296768155 36.99257220729487,57.09987432965136 37.02311314686085,57.2655055412979 37.120844153367216,57.16010391418604 37.72555475641275,57.22033343811563 38.012639588152524,57.11493173146664 37.786636635515606,56.90412776144876 38.50740280881291,56.06090445807786 39.3625491161074,55.586586130310025 40.59029488588567,55.315545398501854 41.03008441536804,55.3306032490982 42.166207366477465,55.00685862584942 44.163584812835325,55.07461927327313 44.51785971157369,54.93909790172256 45.049272059695795,53.75703737414369 45.415763334254734,52.01025551657949 45.409655146359,51.400375706849445 45.214193133229855,50.67754714440889 45.269166824407876,50.150479147683654 45.611225347354775,49.35233877381688 45.60511715942994,49.19421536105801 45.537927092431346,49.39751681499911 45.56846803196822,48.4487707882181 45.42187152215047,47.60542836030072 45.4951697770739,46.76960404995407 45.86776923952857,44.33736419576235 46.118204943835735,43.88554404736351 46.19150319870096,43.32829449928977 46.215935950371204,43.591859121490415 46.20371957455063,43.36594665924349 45.79447098460514,42.74844824403408 45.74560548135196,42.24390212551589 46.014365749346325,41.19714362413288 46.16707044708892,40.01481163891731 46.887836620386224,38.24503538978752 47.10162319720257,38.36553245478717 48.05450051106163,36.18148548652607 48.2377461483411,35.47353590992134 49.03791876445757,33.85425804177794 49.12343339520157,33.583118858816306 48.91575500628096,33.45508048410193 49.105108831456164,32.965519465367834 49.68538668283145,32.25 49.111217019381,33.03330507618375 48.140015141805634,35.481067332493694 47.68190104860696,36.279392747281236 47.35816708940547,37.24339414364658 46.86951205666992,38.13960025881897 46.900052996206796,38.305283952635364 46.173178635013755,40.075058419650304 45.763930045068264,42.43216610012314 46.270909641549224,43.53161588162766 46.215935950371204,43.88554404736351 45.89831017906545,44.254530757269094 45.666199038532795,45.64762333505496 45.47073702540365,47.28917188597552 45.60511715942994,48.9532645954896 45.53181890450651,49.40504648523347 45.60511715942994,49.20927475172357 45.61733353525051,49.33727941917459 45.22640950905043,50.48177957314692 45.45241246171645,51.92743269717539 45.122570314619225,53.5763381665347 44.542292463214835,54.961684818299545 44.07807018212043,55.12732194601995 42.09290911158314,55.02944551684777 39.40530643146485,55.60917280258218 38.53794374834979,56.068433290132816 37.786636635515606,56.8815415777608 38.00653140025679,57.11493173146664 37.65836468941416,57.2655055412979 37.041437710577156,57.21280475093954 36.9803558314743,57.37843565012736 37.010896771011176,57.12246043094274 35.74039368587546,56.746024296768155 34.811949123686645,57.15257521942476 34.292753151385114,57.724753322228935 34.03010107128648,58.387268504066014 33.85907180982758,61.32332709180628 33.79188174282899,61.55669993065749 33.41317409242038,62.00838671213933 32.94895181132597,62.21164465211041 32.11823825567262,62.27186909439479 31.812828860187437,62.43748599838 31.385255706554744,63.35589869758405 31.079846311098663,63.717237537428446 30.334647386160214,64.07104637192606 29.937615172064397,64.06351854614331 28.630462959466968,63.46128941778443 28.09294242344913,63.498928915749275 27.5737464511476,63.95812888591536 26.663626452645985,65.29054165282287 25.863453836529516,65.77231072244103 25.5519362531777,66.20891059389032 25.289284173079068,66.8487494822366 24.873927395237843,67.33050601601644 24.73343907331582,67.30039634621426 23.939374645095086,67.83484073502404 22.510058674321044,68.23378907114966 20.75090055644978,69.69406786020772 17.592967407341348,71.38011866756278 16.988256804295816,71.56076415315692 16.322464322205633,72.26076026369265 15.748294658726081,72.6220453779315 15.31461331716855,72.75 15.626130900520366,72.74247326507975 16.017054926720448,72.56935810116556 17.122636938322103,71.68872104250477 19.431531968031777,70.46935604598548" stroke="#4dd2ff" stroke-linecap="round" stroke-linejoin="round" stroke-width="0.5"><title>2026-02-01 19.0km</title><desc>1769905033000</desc></polyline><polyline fill="none" points="62.34082733813557,68.53137988266826 64.90647482013446,67.18494207385811 66.37140287767397,65.73874268399231 68.68615107910591,65.03059405962267 66.67086330932216,65.62902993053285 64.67985611507902,67.35449475889618 60.187949640268926,69.77806118874287 59.28147482010536,70.057315116479 58.40737410070142,70.99480325865443 57.50899280572776,71.54332841915311 57.25,71.60316729819897 58.415467625891324,70.93496392088127 59.23291366902413,70.00744841574488 59.8237410071888,69.89774156381463 63.214928057510406,68.03270187645103 64.63129496402689,67.48415245009528 66.0881294963765,66.34714701831399 66.50089928053785,65.67889938272128 68.61330935251317,65.05054199470032 69.51169064748683,64.46207580187183 69.76258992805379,64.45210176098044 70.20773381294566,63.85365701390401 70.79046762589132,62.56698552360467 72.44964028775576,61.37006307947013 73.46133093521348,59.704315961906104 73.8012589927821,59.39510157060431 74.58633093524259,59.24548127124581 76.3749999999709,60.08335131360218 76.82823741008178,60.10330049248296 77.92086330935126,59.65444275447953 78.3012589928112,59.21555717749288 78.59262589924037,58.437526778827305 78.99730215827003,57.878936146255 79.62050359710702,57.62956405836303 80.559352517972,57.58966445156693 81.07733812948572,57.33031651821511 81.57913669064874,56.542292595993786 81.8462230215664,52.502300189837115 82.1699640287552,51.69427701843961 82.89838129494456,50.916172851961164 84.19334532372886,50.40740830856521 85.76348920859164,50.87626986843679 85.81205035970197,51.1356389024877 85.88489208629471,51.02590595311631 86.71043165464653,51.0658088613709 87.09892086329637,50.89622136273101 86.80755395680899,50.636851545845275 87.71402877697255,49.66919512939057 88.47482014386333,49.08061483426718 89.02517985610757,48.87111909901432 92.48920863308012,48.12291552775423 95.31384892083588,48.21270032893517 95.72661870502634,48.02315451831237 96.38219424456474,46.68634488603129 96.92446043161908,44.23214317840757 96.9487410071597,43.55373256075109 96.66546762589132,42.24677810040885 97.15107913667453,40.14163822595583 96.93255395680899,38.066374552538036 97.04586330935126,38.016487738066644 97.07014388486277,36.9189698799164 97.47482014389243,34.21502016107115 97.75,33.39683270180103 97.46672661867342,34.26490936719347 96.9568345323496,37.86682710643072 97.19154676259495,40.620537515227625 96.71402877697255,41.747934840903326 96.65737410070142,42.25675493360177 96.98111510789022,43.57368589704856 96.97302158272942,44.14235387105873 96.48741007191711,46.40700868415297 95.74280575537705,48.07303503870207 95.2005395682936,48.272556806616194 92.52967625897145,48.14286771456682 88.99280575540615,48.89107109767065 87.92446043164819,49.43974909309327 86.8399280575104,50.58697263765498 87.13129496399779,50.87626986843679 86.79136690645828,51.07578458527132 85.8525179855933,51.01593022293673 85.77967625897145,51.26532310147741 85.77967625897145,50.90619710797182 84.1043165467272,50.41738411530241 82.90647482010536,50.93612433618546 82.21043165461742,51.69427701843961 81.89478417264763,52.492324645325425 81.61151079135016,56.61211781654856 81.41726618705434,57.15076745231636 80.57553956835181,57.60961425745336 79.5800359712157,57.66946364509931 79.07014388486277,57.85898640808591 78.71402877697255,58.24800539792341 78.3174460431328,59.195607775393 77.90467625897145,59.714290599600645 76.8606115107541,60.13322425138904 76.52068345321459,60.14319883520511 74.59442446037428,59.24548127124581 74.03597122302745,59.25545596663869 73.54226618702523,59.664417398453224 72.6843525179429,61.10075304120983 72.15017985610757,61.70919293844781 70.83093525178265,62.57695980143035 70.24010791367618,63.88357935845124 69.52787769780844,64.7014524068727 69.01798561148462,65.03059405962267 68.87230215824093,64.93085430903011 66.71942446043249,65.61905603631749 64.33992805753951,67.53402073644975 59.89658273381065,69.92766162937187 59.24910071940394,70.087235121915 57.937949640268926,71.32391880991054 57.28237410070142,71.59319415483333 58.3830935251608,70.96488359542127 59.22482014389243,70.03736843994557 59.92086330932216,69.86782148693601 64.3237410071597,67.55396804221527 65.68345323737594,66.43691119734285 64.67176258988911,67.35449475889618 62.64838129491545,68.43164453214558" stroke="#4dd2ff" stroke-linecap="round" stroke-linejoin="round" stroke-width="0.5"><title>2026-01-25 19.0km</title><desc>1769297747000</desc></polyline><polyline fill="none" points="109.04798839057912,70.6406867259866 109.04193982417928,70.43198734129328 110.45730435504811,69.71644101817947 112.21743716904894,68.27041480415573 113.76587016010308,67.80827528012378 112.18114577082451,68.33749927442841 110.6206156470871,69.64190444632186 107.39068120488082,71.3934891183817 106.67090180673404,71.61709194874129 105.9269281430752,72.39224190065215 105.29787724046037,72.75 106.05999660323141,72.25062872346825 106.6648532403342,71.594731703648 107.31809840843198,71.3934891183817 110.17907030196511,69.85806024654448 110.25770166478469,69.94005017156451 110.5540814169799,69.79097749631546 111.78798895669752,68.80708844152832 111.92710598325357,68.50148321561574 112.11461154074641,68.35986074765606 113.7053844963666,67.86045250350799 114.57032948744018,67.39830978459213 115.38083738114801,65.92986466133516 116.48167646070942,65.17699290806195 117.30428148718784,63.87994390320455 117.58251554027083,63.64140306633999 118.2841492393054,63.57431328306848 119.53620247816434,64.19302729518677 119.84467936307192,64.19302729518677 120.6128472921846,63.85758074049954 120.9092270443798,63.499768990386656 121.27214102665312,62.70959372618745 121.51408368148259,62.47104818081061 121.91328906198032,62.321956727577344 122.62701989381458,62.2921383919529 123.21977939817589,61.96413571019002 123.40123638929799,61.31557961196813 123.57664481404936,58.445447341146064 123.78834463705425,57.92359018114075 124.42949267241056,57.289900310821395 125.31258336256724,56.91713839926888 126.44971384035307,57.27498987935542 126.56463660139707,57.409183627471066 127.15739610578748,57.43900441912774 127.49611582257785,57.29735552515194 127.27231886683148,57.096064409357496 127.96185543315369,56.357991136959754 128.82680042419815,55.8137494032344 131.5728495567164,55.20240341466706 133.56887645920506,55.284413608565956 134.0043732379272,55.18003697846507 134.45196714939084,54.07661564726732 134.85117252985947,52.190314044088154 134.6273755741131,50.714036131306784 135.04472665378125,49.625444014971436 135.03262952101068,49.4763202501199 134.96004672456183,49.67763724402175 134.839075397118,47.791195630248694 134.96004672456183,47.656980104817194 134.94190102544962,47.05300647871263 135.1838436802791,45.084457118118735 135.67982612270862,43.824252930640796 135.6435347245133,43.63782991726475 135.61934045903035,43.943563351429475 135.625389025372,43.68257149396595 135.2019893793913,43.041272333030065 135.14755228205468,42.720620149768365 135.58304906077683,40.38651824799308 136.27863419346977,38.529611125068186 137.54278456501197,35.837365307936125 138.55289514901233,33.271787298250274 139.0549261578126,32.63037543323662 139.70212275953963,32.25 138.89766343214433,32.80191649610424 138.50450661807554,33.39111897195835 137.53673599867034,35.837365307936125 137.0709963880945,36.67264579936091 136.75042237041635,37.642153030192276 136.2846827598405,38.49232323736942 136.55686824655277,38.77571059530965 136.41170265362598,38.91740376592497 135.78870031741099,40.47600627796055 135.5467576625524,41.9674535457998 135.31086357409367,41.9898249690159 135.1838436802791,42.877217944442236 135.65563185722567,43.608002180688345 135.64958329085493,43.898821971783036 135.6435347245133,43.578174429123465 135.70402038819157,43.74968379567872 135.64958329085493,44.16726974285848 135.51651483069872,44.234381495600246 135.31086357409367,44.63705041588037 134.8874639280839,47.515307831527025 135.0205323882692,49.34210854093544 134.6576184059959,50.766228401716944 134.8874639280839,52.15303475136898 134.48220998121542,54.0617044075334 133.96203327333205,55.16512601629802 133.48419653001474,55.314235469133564 131.56680099034566,55.23222531648571 128.8993832206761,55.80629400230828 128.11911815879284,56.19397360623407 127.2904645659437,57.096064409357496 127.51426152169006,57.29735552515194 127.15134753941675,57.3942732260075 125.25814626523061,56.9395041800708 124.36900700867409,57.31972116248653 123.81858746890794,57.92359018114075 123.64317904412746,58.393261831868585 123.4193820884102,61.45721890559798 123.35889642470283,61.69576853000399 122.98993387605879,62.13559188381987 122.6633112920099,62.299592977266 121.876997663785,62.359229626032175 121.45964658417506,62.52323010087275 120.65518725677975,63.850126351051586 119.91726215952076,64.17811859972062 119.55434817724745,64.1855729479139 118.22971214196878,63.56685885800471 117.62485550483689,63.63394864973452 117.35267001815373,63.887398288876284 116.52401642530458,65.13226755259893 116.22158810676774,65.43043595171548 115.61068290326511,65.74351115716854 115.32640028384048,66.04913059665341 114.94534060245496,66.89889344253606 114.51589239010355,67.45794130553259 114.37072679717676,67.39830978459213 113.92313288571313,67.77100580673141 113.92313288571313,67.89026803914385 113.69933592996676,68.00207616416083 112.2113886026782,68.41949130171633 110.783926939097,69.65681176820362 108.75160863838391,70.74503614291461" stroke="#ffa900" stroke-linecap="round" stroke-linejoin="round" stroke-width="0.5"><title>2026-01-18 21.1km</title><desc>1768694323000</desc></polyline><polyline fill="none" points="152.44230769234127,68.7479294751538 152.68381037565996,68.32136940123019 154.33407871198142,67.54760338373308 154.97003577821306,67.10119646161183 156.39490161003778,65.74211984317662 157.0711091234407,65.42466791834886 158.5040250447637,65.07745341363625 159.4539355992747,64.48222499448457 159.67128801430226,64.4921455049116 160.2025939177256,63.72826255244581 160.7177996422106,62.59730538396252 162.13461538459524,61.5953034750346 163.43872987478971,59.66070934020536 164.17933810374234,59.27378482200584 164.34033989266027,58.99599169026624 164.79919499109383,59.07536125625484 165.77325581398327,59.54165584434668 165.95035778175225,59.67063045674149 165.78935599283432,59.908736879660864 166.28846153846825,60.13692152747535 166.779516994633,60.15676363957755 167.7777280858718,59.769841553592414 168.18828264757758,59.204336630748 168.56663685152307,58.271740712749306 169.0013416815782,57.835202666297846 170.49060822898173,57.636775483202655 171.23121645796346,57.200233924013446 171.47271914134035,56.46604494634812 171.7303220035683,52.487415591516765 172.05232558140415,51.75318276043254 172.73658318424714,51.01894309652562 173.98434704830288,50.51290908049123 175.2723613595881,50.88995434183016 175.69096601073397,51.108242880087346 175.62656529515516,51.2669978013073 175.75536672628368,51.09832068692049 176.52012522361474,51.167776012989634 176.9467799642298,50.98917647955386 176.64892665477237,50.71135417950427 177.50223613594426,49.858036712321336 177.63908765651286,49.53059848979319 178.62924865828245,49.024554927425925 182.37254025042057,48.20098689585575 185.0210196780099,48.32998004694673 185.5684257602843,48.131528957921546 186.22853309480706,46.47444287712278 186.71153846153175,44.261632938010735 186.4217352415144,42.20753407841403 186.97719141325797,40.7587172066269 186.9691413238179,40.58009410577506 186.8644901610096,40.87779904912895 186.9369409660285,40.40147060041636 186.67933810377144,38.486204260159866 186.88059033991885,38.07932821921713 186.80813953489996,37.424352622416336 187.18649373884546,34.56621363667364 187.51654740606318,33.63332640776207 187.70974955277052,33.45468716890173 187.75,33.6234020162301 187.58899821108207,33.66309957490739 187.32334525941405,34.12954439265013 186.78398926655063,37.940394456229114 186.9369409660285,39.845750441309065 186.85644007156952,40.848028605360014 186.9369409660285,40.560247069603065 186.96109123434871,40.798411174080684 186.47003577818396,42.32661373373412 186.73568872988108,44.27155599107937 186.24463327374542,46.61336160978681 185.5040250447346,48.15137408931332 185.00491949912976,48.399437810177915 182.28398926655063,48.26052222257567 178.79025044722948,49.0146324722009 177.59883720931248,49.679434213954664 176.65697674418334,50.73119866193156 176.9387298747606,50.98917647955386 176.60867620751378,51.17769819746172 175.6829159212939,51.11816507203912 175.61851520571508,51.33645297889598 175.61851520571508,51.00902089212468 174.0084973166522,50.522831347290776 172.83318425761536,50.99909868645045 172.1006261180737,51.782949089196336 171.77057245079777,52.55686969476665 171.51296958854073,56.44620190619753 171.23926654740353,57.229998197974055 170.56305903400062,57.62685411095299 168.9691413237597,57.90465206249064 168.59883720931248,58.311425869964296 168.06753130591824,59.4126810211892 167.51207513417467,59.91865796501952 167.59257602860453,59.978184451014386 166.45751341682626,60.20636889804882 164.5335420393676,59.30354831382283 163.7848837209167,59.44244446059747 163.46288014310994,59.70039379888476 162.13461538459524,61.65482869635889 160.83050089445896,62.51793936006288 160.1703935599362,63.877071499679005 159.71958855103003,64.462383969847 159.44588550980552,64.462383969847 158.9065295170003,64.91872627409612 158.2625223613577,65.19649855876196 156.588103756716,65.64291625384794 156.20169946333044,65.9306063194017 156.03264758497244,66.31749820245022 154.4065295170003,67.62696435001999 151.2428443649551,69.28360630282259 149.1900715563679,70.07719492085016 148.3770125223673,70.98981196818204 147.88595706617343,71.3270808154848 147.25,71.54531283109827 148.3448121645779,70.95013318552083 149.14177101964015,70.06727511238569 150.6551878354221,69.44232466472022 154.26162790696253,67.51784300081636 154.85733452593558,67.07143591034401 154.22137745973305,67.59720399700018 152.2330053667538,68.61896969594818" stroke="#4dd2ff" stroke-linecap="round" stroke-linejoin="round" stroke-width="0.5"><title>2025-12-28 16.0km</title><desc>1766878702000</desc></polyline><polyline fill="none" points="13.881967763591092,132.7922982384407 16.474983210209757,131.30634651271976 18.460543989262078,129.5633940372718 21.126091336482204,128.75894290659198 21.126091336482204,128.58017499994457 21.760745466744993,128.04386912294285 22.059939556755126,128.05504219504655 23.265782404283527,125.88743991280353 24.88868368032854,124.73657804264076 26.21239086636342,122.6694586227095 26.520651443919633,122.41246203739138 27.62676292809192,122.25602896946657 29.44912693084916,123.17227587942034 30.011249160510488,123.20579692871252 31.153626595041715,122.74767482728203 31.60695097380085,122.14429089524492 32.02400940225925,121.13864190543245 32.50453324371483,120.63581314329349 33.20265278709121,120.43468084186316 34.13650100736413,120.40115874735056 35.061282740090974,119.89832581265364 35.31514439219609,119.08261300084268 35.6234049697523,114.5234227023393 35.92259905976243,113.80823437264917 37.01964405644685,112.78014106414048 38.1982874412206,112.33314026330481 40.02065144391963,112.89189091300796 39.96625251841033,113.32771398073237 40.10224983206717,112.99246565681824 40.872901275986806,113.11539018911571 41.462222968402784,112.90306589015381 41.52568838139996,112.79131605533621 41.16302887845086,112.57899098205962 42.17847548687132,111.47265739101567 43.57471457350766,110.62334144960914 47.545836131612305,109.79636812711396 50.428979180636816,109.91929708098905 51.244963062461466,109.57286050249968 51.84335124242352,108.17592511046678 52.46893888514023,105.30375694303802 52.17881128273439,103.00148506565893 52.75,101.44797664060752 52.18787777033867,103.04618994195334 52.52333781059133,104.63319847643288 52.496138347894885,105.31493287462217 51.94308260572143,107.9635890079735 51.12709872395499,109.70696514475276 50.4924445936922,109.91929708098905 47.59116856951732,109.8187188586453 43.62911349895876,110.63451671208168 42.33260577567853,111.29385470956186 41.15396239084657,112.59016599855386 41.47128945600707,112.90306589015381 40.92730020149611,113.1377400858255 40.06598388176644,113.04834046531323 39.99345198116498,113.20478974215075 39.975319006014615,112.89189091300796 38.143888515769504,112.4001905267869 36.87458025518572,112.86954095448164 35.958865010063164,113.81940923458023 35.65060443250695,114.57929654817417 35.34234385489253,119.03791619204276 35.04314976494061,119.90949990876834 34.21809939556988,120.38998471305968 33.09385493618902,120.4682029237083 32.46826729347231,120.68050914845662 31.153626595041715,122.7588485651504 30.110980523808394,123.19462324703636 29.57605775684351,123.22814428790298 27.499832102039363,122.28955036437401 26.484385493618902,122.45715714911785 25.958529214258306,123.04936525712401 25.115345869679004,124.53545502112684 24.716420416370966,124.94887407160422 23.33831430488499,125.7868797610281 22.63112827402074,127.31761642333731 21.797011417045724,128.3231955043375 20.981027535221074,128.84832672504126 18.632807253161445,129.50752961065155 16.19392209534999,131.56331738443987 12.25,133.55202335939975" stroke="#4dd2ff" stroke-linecap="round" stroke-linejoin="round" stroke-width="0.5"><title>2025-12-21 12.2km</title><desc>1766291458000</desc></polyline><polyline fill="none" points="66.24392507591983,124.69294266017096 66.44895376299974,124.35607107385295 69.89343570702476,122.48641837877221 72.96886601415463,119.74084507365478 76.27666216669604,118.86494482250419 77.8348801889224,118.00588324601995 79.10605804930674,116.50672338261211 79.96717853524024,114.46851284656441 81.27936213294743,113.4746634074254 81.27936213294743,113.08722857838438 82.30450556863798,112.36289089314232 83.15195747552207,111.35218060274201 84.39579817751655,108.96013587630296 85.36626729671843,108.43792325010872 86.09070199122652,108.25262150639901 86.21371920348611,108.43792325010872 85.98135335807456,108.80852596872137 86.85614242323209,108.89275371635449 89.65820114751114,110.17300896171946 90.25961862975964,110.2572358516336 92.05020249739755,109.53288286809402 92.74730003380682,108.6737614623562 93.49907188658835,106.9386563362059 94.23717516026227,106.2648230453924 96.6975194059778,105.94475104512821 97.75,105.35514272727596 96.50615929800551,106.01213468769856 94.14149510633433,106.31536065979162 93.44439757004147,107.09026835960685 92.70629429630935,108.7748348548339 92.1458825514419,109.48234646730998 90.92937900772085,110.07193662392092 89.64453256834531,110.2572358516336 86.66478231520159,108.85906262365461 85.8173304083175,108.85906262365461 84.68283833947498,109.38127360853832 82.76923725951929,112.51449677918572 80.67794465064071,113.84525219572242 80.11753290583147,114.45166800220613 79.33842389471829,116.23720971841249 78.34061761724297,117.618461517588 77.87588592636166,117.48370587121462 77.38381707726512,118.10694959970715 76.41334795812145,118.64596886523941 73.25590617617127,119.55555895950238 69.7157441782183,122.58748135343194 61.528265271685086,126.89943061395024 60.4894532567705,127.16892283654306 59.21827539650258,128.617434249114 57.56437732023187,129.64485727272404 59.272949713107664,128.4826896618324 60.54412757337559,127.05102005580557 61.58293958817376,126.78152759619115 69.29201822471805,122.8064508704847 72.85951738100266,119.65662414443796 76.45435369556071,118.56174724783341 73.29691191355232,119.47133791382657 69.9207728652982,122.40219917499053 61.71962537965737,126.79837089078501 60.59880188992247,127.10154983169923 59.17726965906331,128.68480649196135 57.496034424519166,129.61117139685666 59.095258184184786,128.617434249114 60.66714478563517,126.94996044697473 62.32104286190588,126.42781792051392 69.14166385412682,122.78960707419901 73.16022612224333,119.47133791382657 76.41334795812145,118.61228022462456 73.10555180558003,119.58924736296467 72.42212284839479,120.1114165334584 72.14875126554398,120.76833614840871 70.6452075598645,121.96425846208876 70.4401788727846,121.82950718558277 69.11432669585338,122.8906698202627 62.567077286483254,126.37728789066023 60.54412757337559,127.10154983169923 59.532652716792654,128.36478803685168 58.32981775223743,129.22378321550786 57.25,129.64485727272404 59.13626392162405,128.58374811500835 60.63980762741994,127.00049026095076 61.65128248394467,126.78152759619115 68.41722915961873,123.14332635194296 64.00227809645003,125.53511792144855" stroke="#4dd2ff" stroke-linecap="round" stroke-linejoin="round" stroke-width="0.5"><title>2025-12-07 13.4km</title><desc>1765091716000</desc></polyline><polyline fill="none" points="108.10341278440319,127.08820904182357 108.34913326107198,126.70971297863434 110.55184182012454,125.47688568685408 112.57903575297678,123.70331368621555 114.65888407366583,123.13013930850866 115.67686890572077,122.62184940176667 115.92258938244777,122.37311069351563 115.81728060665773,122.26496320478327 116.06300108338473,122.25414844841725 116.39647887321189,121.81074226758938 117.1862946912297,120.19932007477473 118.37101841816911,119.4530807807896 119.10817984829191,118.76091101168277 120.37188515707385,116.8357845574792 120.67026002163766,116.68436828983977 121.39864572044462,116.66273737270967 123.63645720476052,117.59286189812701 124.89138678222662,117.08453927574737 125.31262188515393,116.52213627875608 125.76018418202875,115.50547537660168 126.19897074752953,115.02958742174087 127.76982665219111,114.81327384467295 128.34024918742944,114.52124965281837 128.91067172260955,113.58027606867836 129.1914951245417,109.21056269841938 129.516197183053,108.44259508680261 130.29723726969678,107.5989044541202 131.65747562295292,107.04725610425521 133.8689599133213,107.68543720759772 134.43938244850142,107.68543720759772 134.86939328274457,107.56645464914618 135.62410617544083,106.64703842008748 136.83515709638596,105.76006286117627 141.0738353196066,104.84062732142775 142.75,104.93797978500515 140.86321776814293,104.91634591374896 139.73114842898212,105.17595200990036 140.20503791980445,104.95961365084077 136.76495124591747,105.80333017383964 135.81717226433102,106.43070376135438 134.86939328274457,107.5989044541202 134.46570964244893,107.7719698740184 133.49160346691497,107.7178869677009 133.43894907901995,107.56645464914618 131.66625135426875,107.05807277256827 130.31478873238666,107.5989044541202 129.55130010831635,108.42096209702868 129.1914951245417,109.3728084995746 128.9721018417622,113.43966993653157 128.66495124588255,114.35901356226532 127.69962080172263,114.8673522899262 126.25162513542455,115.04040308630647 125.81283856986556,115.46221294406132 125.23364030336961,116.71681465533766 124.8650595882209,117.13861629323947 123.85585048754001,117.58204655446752 123.39073672809172,117.62530792097095 121.3459913325496,116.67355283194775 120.68781148421112,116.72763010780182 120.23147345607867,116.96556971762038 118.9326652220916,118.96639949311066 117.0634344528662,120.3723601459933 116.5719934994122,121.6268902541342 115.65054171177326,122.64347882067523 114.60622968577081,123.17339788530808 112.76332611049293,123.64924079483899 110.49041170091368,125.58502913852135 109.15650054166326,126.39610069359333 104.7598591549322,128.6238045616119 103.41717226436595,129.74844868467335 102.29387865652097,130.15937267857225 102.25,130.02960741884453 103.17145178763894,129.71600723314623 104.663326110458,128.32101324784162 105.32150595879648,128.15880317721167 107.2960455037537,127.08820904182357" stroke="#4dd2ff" stroke-linecap="round" stroke-linejoin="round" stroke-width="0.5"><title>2025-11-30 11.3km</title><desc>1764483136000</desc></polyline><polyline fill="none" points="151.4174192015198,128.9525534415734 151.94676806085045,128.41884777941596 151.92751901136944,128.24094522126688 154.27590304182377,126.98375758449401 156.4414211026742,125.07422356801544 158.74168250948424,124.38630743589601 160.08911596960388,123.56791791909927 160.32972908747615,123.60350021959312 161.5809173003654,121.38551117200404 163.46732414449798,120.045203747919 164.72813688212773,117.98133030590543 165.21898764261277,117.55431637090078 165.92157794674858,117.3408086786003 168.3373336501536,118.42020372524712 169.65589353610994,118.11180640060047 169.58852186310105,118.31345091925323 169.46340304182377,118.25414375262335 169.82913498103153,118.18297510343109 170.39698193914955,117.49500872704084 170.9648288973258,116.22581621338759 171.36905893537914,115.76320908877824 172.16789448668715,115.45480307884282 173.25546577951172,115.39549411521148 174.179420152097,114.88543548876623 174.44890684413258,113.97206780216948 174.72801806085045,109.40509671870677 175.0456273764721,108.56285193005169 175.9407081748941,107.53079524567147 177.5383792775683,106.92579124984331 179.4055370722199,107.4596185064147 179.4247861217009,107.88667813652137 179.47290874522878,107.60197193127533 180.2621197718545,107.70873685897095 180.88771387835732,107.48334409214294 181.29194391635247,107.75618789911823 180.60860266163945,107.15118534890644 181.6961739543476,105.98862053643097 182.56238117872272,105.34801747598249 183.5537072243169,104.98026190145174 187.75,104.18543043888349 182.7259980989038,105.30056522433006 181.8597908745287,105.8225386792401 180.62785171100404,107.17491101218184 180.955085551308,107.50706967191218 179.72314638784155,107.993442741943 179.3862880227971,107.91040361484193 179.4055370722199,107.51893245953397 177.5383792775683,106.92579124984331 175.9792062737397,107.55452081353724 175.16112167295069,108.45608796909073 174.80501425854163,109.25088344655524 174.45853136887308,114.07882552064984 174.1986692015198,114.94474477307813 173.361335551308,115.43107949788828 172.07164923957316,115.52597378601058 171.40755703422474,115.76320908877824 170.0601235741633,117.94574588517571 168.85705798480194,118.45578796706832 168.3277091254713,118.46764937804983 166.06594581750687,117.4594241228624 165.27673479088116,117.55431637090078 164.66076520911884,118.09994494488637 163.84268060838804,119.5944766194516 163.11121673003072,120.41290060009487 162.02364543726435,120.9703737396485 161.45579847908812,121.5752876756087 160.92644961981568,122.85626909131679 160.32972908747615,123.62722174580995 160.07949144486338,123.60350021959312 158.991920152097,124.33886475915642 156.73015684407437,124.95561769614142 154.0256653992692,127.23282439011382 148.59743346011965,130.11483532836428 147.85634505702183,130.30459427707683 147.25,130.8145695611238 147.77934885933064,130.2571545756582 148.51081273762975,130.10297538138548 150.85919676802587,128.84581255060766" stroke="#4dd2ff" stroke-linecap="round" stroke-linejoin="round" stroke-width="0.5"><title>2025-11-23 10.7km</title><desc>1763852167000</desc></polyline><polyline fill="none" points="41.67891566263279,189.26824357156147 42.36204819276463,187.77169794955262 42.74156626511831,187.3708339381119 43.066867469926365,187.13031480582868 43.09939759038389,187.33074745389604 45.23554216872435,185.99452266282606 47.40421686752234,183.9233410464294 50.33192771091126,183.02804359890433 51.459638554253615,182.37326905044756 51.654819277173374,182.18618986724323 51.4813253012253,181.9189333201939 52.75,180.14166019202094 52.66325301211327,179.75413052651857 52.39216867473442,179.5135941615663 51.17771084338892,179.37996261247463 49.62710843374953,178.57816979037307 48.56445783138042,177.68282732524676 47.40421686752234,176.18611860318197 46.61265060247388,175.85202895779366 44.79096385545563,175.86539256378455 43.59819277114002,176.26629996183328 42.90421686752234,176.65384234261 41.418674698856194,178.33763076445757 40.88734939764254,178.64498608988652 38.26325301208999,178.39108392840717 37.48253012052737,178.4979901755214 36.28975903621176,179.1795149739337 33.91506024100818,181.01025603458402 32.65722891566111,181.6249503424333 31.34518072294304,181.5714988046093 30.06566265062429,180.87662636688037 28.482530120469164,180.36883209771622 27.040361445804592,180.5425514627641 25.38132530124858,180.18174938712764 23.36445783136878,180.30201688173838 19.113855421717744,181.65167610127537 13.605421686777845,183.84316546300397 12.347590361430775,184.56474353744125 12.25,184.40439327746572 13.431927710829768,183.69617673628818 20.935542168677785,180.83653743382456 21.22831325302832,180.72963353840896 21.27168674702989,180.94344122175244 23.104216867533978,180.32874297317903 25.077710843412206,180.15502325872512 27.062048192776274,180.5425514627641 28.50421686755726,180.3955581723567 30.08734939765418,180.88998934119445 31.388554216886405,181.55813591593324 32.40783132537035,181.6249503424333 33.31867469882127,181.250789013131 37.22228915663436,178.5247167205598 38.122289156657644,178.3509940579679 40.681325301295146,178.57816979037307 41.35361445788294,178.23072435602808 42.53554216877092,176.94783906836528 43.53313253010856,176.23957284900098 44.74759036145406,175.82530174082785 46.60180722892983,175.73175642843853 47.371686747006606,176.09257360832999 49.62710843374953,178.53807999053242 51.069277108530514,179.29978360240057 52.457228915707674,179.5135941615663 52.717469879600685,180.14166019202094 51.64397590368753,181.39778112099884 51.37289156630868,181.98574751994602 51.54638554219855,182.13273861158086 50.89578313258244,182.68061270804174 47.751204819302075,183.66945149144885 44.98614457831718,186.02124732323864 41.52710843377281,187.86523266806762" stroke="#4dd2ff" stroke-linecap="round" stroke-linejoin="round" stroke-width="0.5"><title>2024-11-03 10.0km</title><desc>1730623436000</desc></polyline><polyline fill="none" points="72.81457628797216,169.89969538178775 72.61542355336132,169.71196595118454 72.58697316268808,169.59845464596583 72.29535665841831,169.393260201854 72.16377360161277,168.95230638343855 71.33871227243799,167.76475966132784 71.2106855144666,167.3980091768317 71.18934772146167,166.89590408892764 71.2818114911206,166.42872160415936 71.20357291678374,166.31956592239658 71.20357291678374,166.1230848403029 71.37071896191628,165.40264480147744 71.44184493857028,165.27165411567694 71.52363981172675,165.27165411567694 71.79036222418654,163.8918558796322 72.5300723813707,162.82203828901402 73.00306012610963,162.26746695591282 73.0492920109391,162.25 74.0948438677151,163.1757366908205 74.22998322336935,163.35913445955885 74.69941466928867,164.53373079018274 74.10906906306627,164.93544245242447 73.78900216813781,165.3764467034016 73.56139904283918,166.1536486363766 73.56139904283918,166.61210238581043 74.19442023504234,167.81278622691752 74.4042418661702,168.03108797013556 74.60339460079558,168.550640661957 74.79543473775266,168.65542346689472 75.15106462102267,169.0527220961667 76.11837790352001,169.72506338587118 76.55224636109779,170.3973918074007 76.7691805898794,170.86888718014234 76.8082998770551,171.3185481680557 77.0181215081684,171.86424551991513 76.93277033617778,172.2178528781078 77.44132106924371,172.5321675420564 77.79695095251373,172.54089846480565 78.1241304451396,172.71551646411172 79.68178933381569,173.82432050795614 80.51396326065878,174.50530092272675 80.64910261629848,174.49657048810332 80.88381833926542,174.27830891756093 81.09719626921287,174.20409967474188 81.62708479528374,174.28703940641572 82.09295994235436,174.46601394984827 82.61929216959106,174.89816823558795 83.41945940692676,175.7624608627193 83.57238025673723,175.8497619661939 83.59727434856177,175.94579292953495 83.81065227852378,176.11166397533088 83.89244715166569,176.25570924834392 84.20540144894039,176.4783235088944 84.46856756255147,176.7664104585965 84.78507815867488,176.91918288273155 84.83486634232395,177.06322484575867 85.07669466294465,177.31638807735726 85.12648284659372,177.26837450115272 85.10514505358879,177.3600367260551 85.2153903174185,177.49534719252915 86.39963782869745,178.67820037752972 86.39608152984874,179.16267856624472 86.3356244496972,179.37218057950304 86.15780950804765,179.7780871765608 85.64925877499627,180.5636995320383 86.95797674541245,182.32689889067842 87.00065233142232,182.68476519129035 86.90463226292923,183.3655739492351 86.96153304423206,183.62741996086697 86.91530115943169,184.07255370478742 86.9544204465783,184.80133894143364 86.8548440792656,184.96280428489627 86.66636024112813,185.82684946736845 86.16136580689636,186.66905489134297 86.16492210573051,186.83051165787037 85.92309378512437,186.89160321403688 85.70260325749405,187.10105917222972 85.31496668473119,187.3279683856199 85.14070804193034,187.34542287984368 84.82419744582148,187.57233051635194 84.42944827540487,187.66832946022987 84.24096443728195,187.78178241966816 83.61861214155215,187.87341723505597 83.10294881083246,187.86469012006637 82.67974924975715,187.78178241966816 81.96137688553426,187.26251395510553 81.29279270498955,186.42468648311115 81.04385178672965,186.28068287584392 80.62420852447394,185.7919389625349 80.40371799684362,185.7483007827541 80.21167785988655,185.60429440520238 79.85960427545069,185.54756445817475 79.38661653071176,185.1591800546048 79.18746379608638,185.08062987833546 77.84318283735774,185.30755213093653 77.38442028792633,185.29882437906417 75.32887956265768,185.66538809195117 74.44336115333135,185.95776355175258 73.9561482132558,186.04940312078907 73.35513371053094,186.30250164212703 72.52651608253655,186.49450620163043 71.70856735103007,186.81305690804948 71.3885004560725,187.00069501462713 71.71923624753254,187.58542129685156 71.68011696035683,187.87778079174313 71.72990514402045,188.0828673449796 71.52363981172675,188.26177165930494 71.07554615881236,188.89447473772452 71.11466544597351,189.19991352892976 70.1331269681541,190.68779884598553 69.99087501486065,191.11975376070768 69.11602550203679,192.58138003419663 68.81729640008416,193.2401827644826 68.34430865535978,194.06912231176466 68.24828858686669,194.12583851415184 68.16293741489062,194.365790666252 67.88198980709421,194.70608363897554 67.64016148647352,196.07594769277785 67.77174454327906,196.9222701636827 68.48300430981908,198.4185533762684 68.62169996427838,198.47526256716083 68.69993853861524,198.63230292646404 68.9488794568897,198.81987799261333 69.36496642031125,199.46111543385996 70.0228817043535,200.0848930242937 70.15446476115903,200.10234118952576 70.04777579617803,200.12415138389042 70.19002774950059,200.13723749401834 70.39984938061389,200.36842463726134 70.5883332187368,200.44257868223576 70.71635997670819,200.4207686852351 71.1786788249592,200.81770851493638 71.72279254636669,201.0096338596959 72.26690626775962,201.31932936781595 73.35157741171133,201.75551560168242 73.6040746288345,201.91690313796062 73.58629313466372,201.98233030669508 73.31601442339888,201.94307402005506 72.24201217592054,201.62029844740027 71.75124293702538,201.54614688413858 71.30314928411099,201.30624369726138 70.99375128567044,200.99654807400293 70.21136554249097,200.4992846111927 69.53922506312665,199.95839356765646 68.62525626312708,198.88094872859074 68.2589574833546,198.33130828872163 68.8101838024304,199.05543596161442 69.82017267089395,200.10670322947772 70.67368439072743,200.74355526047293 71.2071292156179,201.05761503234316 72.23489957826678,201.5417850226222 75.24708468951576,202.3530819652333 75.78408581324038,202.54936067379458 76.1397156965104,202.75 75.84098659455776,202.56680761713142 75.18307131051552,202.32691138805967 74.25487731519388,202.0346719541085 72.83947037981125,201.72062090193504 71.64811027087853,201.25826286363372 71.00797648099251,200.93548100967382 70.25759742730588,200.42949268564553 69.30450934015971,199.57889246908235 68.20916929970554,198.2178893514938 67.91755279543577,197.69441259558153 67.67572447481507,197.06186779047493 67.54058511917538,196.47729903158324 67.52280362501915,195.8316446360477 67.63304888881976,195.1859783905602 67.86065201410383,194.58829029017215 70.40696197826765,190.04640145779558 71.12889064131014,188.9468358617778 71.80103112067445,188.1919554498054 72.26334996892547,187.81669094893005 73.40136559537495,187.08360455669026 73.87079704127973,186.865421131537 74.67807687628374,186.56868950062562 75.26486618367198,186.44214142574128 78.01032888247573,185.4384681489064 78.91007248713868,185.22463840075216 79.48619289802446,185.30755213093653 80.72378489178664,185.80066659199656 81.15765334936441,186.1192235845192 82.48059651510266,187.44578605351126 82.86823308788007,187.7076016799292 83.35188972912147,187.86905367783766 83.84265896801662,187.9083256733611 84.43300457423902,187.79923668863194 84.85976043414848,187.58978488928187 85.93376268161228,186.85669376637088 86.2644984730432,186.56868950062562 86.5454460808105,186.1846801433312 86.80861219443614,185.42101270801868 86.96508934308076,182.2134283273299 87.11445389404253,180.72081989606522 87.01487752672983,180.0530534983518 86.58456536797166,178.2897400686852 85.89464339445112,176.5394330592062 86.34629334619967,177.69176468457226 86.73748621778213,179.33289904714184 86.85840037808521,179.61223343445454 86.91174486058298,179.69079583091298 87.06110941154475,179.67770211035895 87.19980506603315,179.75626436045786 87.4771963749663,179.18886638619733 87.43452078900009,179.1103028678117 86.92241375708545,178.85278788189316 86.8548440792656,178.76549423811957 86.32495555319474,178.57781216981675 86.10446502557897,178.41631749485896 85.07669466294465,177.36876644929362 85.13003914544242,177.24655012666335 85.06246946760803,177.29019886210517 84.72462107850879,177.03267053930176 84.12360657578392,176.4739585369498 84.10226878279354,176.39538894919315 83.60438694623008,176.03309357755643 82.96069685752445,175.22555430760985 82.10007254002267,174.48784005131165 81.82979382872873,174.35688323913564 81.10786516570079,174.2171954348596 80.85536794859217,174.29576989310226 80.61709592680563,174.50966613921992 80.5246321571467,174.50093570567697 78.42641584589728,172.9075952610001 78.10634895095427,172.7722671270385 77.86096433151397,172.5234366171353 77.48399665523903,172.54526392536354 76.89365104901663,172.20039086988254 77.00389631283178,171.9384597049975 76.86520065835794,171.63287087777644 76.7371739004011,170.83396181398348 76.99322741634387,170.5414605093465 77.3559698972822,170.44104905220593 77.50533444824396,170.32317436670928 77.4662151610828,169.965182156433 77.38797658676049,169.81237949235947 76.58069675174193,169.27101613348714 76.97188962335349,168.6685212955308 76.71227980854746,168.52881087159403 76.45978259143885,168.9959654242448 76.31753063813085,169.08764923329363 75.76274802025,168.89554954927007 75.46046261946321,168.65105752293312 75.16173351752514,168.04855205098283 75.21863429884252,167.87391085178024 75.38222404517,167.7516614956803 75.26130988483783,167.4111074743596 75.2115217011742,166.82167924956957" stroke="red" stroke-linecap="round" stroke-linejoin="round" stroke-width="0.5"><title>2024-10-27 42.8km</title><desc>1729986801000</desc></polyline><polyline fill="none" points="132.6791719744797,186.4293802066677 133.0196815286763,185.92076828994323 135.45484076434514,184.57293434468738 138.05509554140735,182.34769749869884 140.34579617832787,181.7627699752993 141.38796178344637,181.17783906986006 141.60464968153974,180.92352022995328 141.43955414008815,180.78364459544537 141.58401273883646,180.5038927463247 142.68808917200658,179.04154094330443 142.46108280256158,178.54560814035358 141.21254777070135,178.36758038727567 139.7060509553994,177.5028697012458 138.77738853503251,176.7780329900852 138.73611464968417,176.510986576679 137.61140127392719,175.22661064388376 136.83751592360204,174.88325985967822 134.73254777071998,174.99771025059454 133.79356687894324,175.45551051919028 131.99815286626108,177.2485416221316 131.42031847132603,177.59188437785633 128.8716560509638,177.37570574163692 127.88108280254528,177.64274987222598 124.8680891719996,179.8426580275409 123.53700636944268,180.4911767347876 122.42261146497913,180.45302869064471 119.63662420382025,179.28314835117635 118.23331210191827,179.43574220616574 116.27280254778452,179.06697332920157 114.260700637009,179.2958645145336 111.91840764333028,180.18599197867297 110.64923566882499,180.45302869064471 105.634458598739,182.5638655101793 104.0247770700953,183.45396422011254 103.9731847133371,183.6574142542231 103.52949044585694,183.93715738305764 102.60082802549005,186.26408161419386 102.25,186.58196328308986 103.21993630577344,184.00073525904008 103.78745222929865,183.35223904965096 103.9731847133371,183.69556109008408 104.09700636944035,183.42853293708322 105.46936305734562,182.5638655101793 113.96146496816073,179.33401299508841 116.39662420382956,179.11783808182372 118.22299363062484,179.48660677337466 119.63662420382025,179.2958645145336 121.3701273885672,179.88080630190234 122.30910828028573,180.38944858503964 123.39254777069436,180.5038927463247 124.19738853507442,180.17327592719812 128.15968152869027,177.51558608842606 128.83038216561545,177.40113854636002 130.81152866239427,177.6681826097265 131.5544585987227,177.56645162110362 133.7832484076498,175.45551051919028 134.68095541402,175.06129374510783 136.61050955415703,174.93412671610713 137.43598726118216,175.12487719970522 137.83840764331399,175.40464392499416 139.7576433121576,177.55373524037714 141.26414012734313,178.2912826828906 142.62617834395496,178.5964731550921 142.75,179.07968951977819 141.57369426754303,180.56747277997056 141.43955414008815,180.85994042005768 141.64592356682988,180.99981594902783 140.41802547773113,181.81363337246876 138.013821656059,182.46213944465853 135.13496815291,184.8653904054081 129.38757961784722,187.9679156893617 128.61369426752208,188.1077813912998 126.90082802553661,189.74801019418373 126.08566878980491,190.11674014032906 125.68324840761488,190.09131053201418 126.281719745195,190.00230685256975 127.27229299367173,189.39199379865022 128.5621019108221,188.0823512780844 129.82095541403396,187.67546859687718 134.89764331211336,184.97982950336882 137.34312101913383,182.919905933908 137.19866242038552,183.33952339612006 137.39471337583382,182.8563273787222 138.2098726114491,182.33498171895917 140.39738853502786,181.7627699752993 141.53242038213648,181.07611161059322 140.76885350316297,181.6483272381738 137.96222929941723,182.48757097063935 135.46515923569677,184.6619428004924 130.27496815286577,187.52288716959447 128.48987261147704,188.22221682179224 127.6024840764585,189.21398513113672 126.80796178343007,189.78615473369427 125.96184713381808,190.11674014032906 127.25165605096845,189.4174235827304 128.45891719748033,188.14592654916487 129.75904458598234,187.67546859687718 134.9698726114584,184.90353678576503 136.84783439489547,183.39038600055937 135.26910828024847,184.7763821285771 134.19598726119148,185.3612922283428" stroke="#4dd2ff" stroke-linecap="round" stroke-linejoin="round" stroke-width="0.5"><title>2024-10-13 16.0km</title><desc>1728810741000</desc></polyline><polyline fill="none" points="177.59148204734083,186.44008880898036 178.96313980140258,185.46150686418696 180.67513368983055,184.6608418653559 183.07811306341318,182.58925062127673 185.3985867074225,181.99191274736222 186.5227272727643,181.39457134457916 186.79087089380482,181.16580136214907 186.47116119175917,180.88619290291535 186.5330404889537,180.65742177024367 187.67780748661608,179.13226765765285 187.48185637890128,178.54761914794653 186.22364400303923,178.369681973978 185.07887700531865,177.84857844876387 183.9959893047926,176.89533334256703 182.5933919022209,175.26844093574618 181.24236058059614,174.89984448723408 179.76757066464052,175.09049799046625 178.7568754774984,175.5480649312958 176.56016042781994,177.65793014651717 173.84778456838103,177.4672814847654 173.07429335371125,177.61980044290976 170.38254392665112,179.551687332023 168.6292971734074,180.5049073942646 167.55672268907074,180.51761693436129 166.12318563793087,179.80588022728625 164.56588999234373,179.34833255564445 163.32830404886045,179.53897767047602 161.47192513372283,179.14497737029888 159.2442704354762,179.33562286855886 158.20263559970772,179.66607421395747 151.0968296409119,182.42402986026718 149.27139037434245,183.35180448145547 148.44633307872573,184.0889344132811 147.48720397253055,186.45279760312405 147.25,186.61801178148744 148.22975553863216,184.03809803872718 148.82792207796592,183.35180448145547 148.9516806722968,183.6441152697662 149.27139037434245,183.30096773631522 151.3752864782582,182.28422746698925 159.3577158136177,179.32291317983618 161.502864782291,179.11955794336245 163.2767379679135,179.51355834260175 164.64839572197525,179.34833255564445 166.41195569135016,179.8948475896541 167.46390374330804,180.47948830921086 168.39209320093505,180.54303600981075 169.41310160426656,180.17445879034494 171.93983957223827,178.25529362533416 173.16711229947396,177.56896081577725 174.02310924371704,177.42915170930064 176.34358288772637,177.6452202468936 177.04488158901222,177.25121256689454 178.2927807487431,175.82768815346208 179.20034377387492,175.29386133093067 180.12853323150193,175.01423663231253 182.26336898392765,175.06507754413178 184.934491978609,177.65793014651717 186.13082505733473,178.30613290736073 187.60561497329036,178.674716937654 187.7396867838106,179.17039679083973 186.80118411005242,180.288844967763 186.50210084032733,180.89890239513625 186.55366692127427,181.153091903514 185.4914056531852,181.80127225753677 182.9852941177087,182.5511227773386 180.056340718118,184.94043988692283 174.2396867838106,188.04138429200248 173.47650878533022,188.23201301764493 172.48644003056688,189.3630693985324 171.17666157375788,190.10015551276592 172.45550038199872,189.35036097017291 173.38368983956752,188.1938873012332 174.30156608100515,187.99054990446893 180.46886936592637,184.63542382501328 182.8821619556984,182.50028562967054 185.61516424757428,181.6868877911038 186.64648586709518,181.02599722918967 186.440221543191,180.88619290291535 186.60523300227942,180.51761693436129 187.70874713524245,179.17039679083973 187.59530175710097,178.64929739246872 186.264896867855,178.38239178249933 184.7488540871418,177.5943806325522 182.76871657755692,175.39554284779297 182.0364782276447,175.02694686265022 181.0154698243132,174.97610593167337 179.36535523302155,175.24302053415158 178.36497326206882,175.81497802379454 177.17895339953247,177.16224287822115 176.25076394196367,177.69605983574002 173.81684491981287,177.4672814847654 172.68239113828167,177.79773893660604 173.62089381209807,177.41644178092974 176.36420932010515,177.60709053856408 176.89018334605498,177.3274722376882 178.3752864782582,175.77684762512945 179.09721161192283,175.29386133093067 180.2419786096434,174.95068545658432 182.0261650114553,174.91255473197816 182.84090909094084,175.40825303019665 184.23319327732315,177.12411298770166 185.17169595108135,177.8358685731073 186.28552330023376,178.35697216384142 187.39935064938618,178.4586506001142 187.62624140566913,178.62387784095336 187.75,179.1576870813442 186.7186783804791,180.31426410072163 186.49178762413794,180.84806441675755 186.69805194810033,181.02599722918967 185.32639419403858,181.82669101031206 183.00592055002926,182.41132055978233 180.5307486631209,184.61000577836967 174.3428189458209,187.9524240970277 173.57964094734052,188.13034440869524 173.16711229947396,188.47347555429587 173.6002673797193,188.09221865396103 174.13655462191673,188.0286756975038" stroke="#4dd2ff" stroke-linecap="round" stroke-linejoin="round" stroke-width="0.5"><title>2024-10-06 18.0km</title><desc>1728199446000</desc></polyline><polyline fill="none" points="42.19180175388465,251.6913964456253 43.70934095134726,250.5905890011054 45.39908317831578,249.71523994554445 47.562383736425545,247.7655727698948 50.54364868457196,246.9034635532371 51.576866861549206,246.26682453350077 51.68449375493219,246.16071765679226 51.36161307466682,245.77607933422405 52.61008503852645,244.06508497757022 52.4163566303323,243.4682199536619 51.10330853040796,243.2294729987334 49.607294711633585,242.46017358022073 48.56331384531222,241.54496524202114 47.304079192108475,240.04612864309456 46.43230135523481,239.70126057171 45.571286207821686,239.7941097787625 44.979338293895125,239.63493965951784 43.3434095136472,240.20529814199108 41.62137921870453,242.11531339935755 41.02943130477797,242.47343741076475 40.674262556480244,242.56628417825414 38.43562317296164,242.24795206382987 37.64994685089914,242.35406287534715 35.72342545836,243.52127475918678 33.99063247407321,244.86089975744108 32.74216051021358,245.47102035721764 31.579790061106905,245.4577569034518 29.082846133387648,244.33035723776993 28.178780228539836,244.25077562972 27.263951634289697,244.46299311776966 25.541921339347027,243.98550316943874 24.842346531979274,243.97223952893546 22.582181769888848,244.35688442711398 19.428713792236522,245.49754725980893 13.616861546644941,247.81862541472947 12.325338825408835,248.57462270517863 12.25,248.813357566396 12.411440340103582,248.2695718187606 13.659912304021418,247.5003091457329 22.72209673130419,244.11813948296913 24.132009035383817,243.95897588676598 24.767007706628647,244.09161223359843 25.757175126229413,243.8793939986208 27.02717246877728,244.22424841373868 28.523186287493445,244.03855771485541 30.320555407903157,244.56910170173796 31.708942333236337,245.2588048965772 32.7529231995577,245.19248747758684 37.24096465582261,242.20816048201232 37.94053946319036,242.04899400456634 40.68502524582436,242.3010074829508 41.36307467450388,241.87656338306988 43.16044379485538,240.0593927771697 44.49501727340976,239.568618705649 45.62509965454228,239.63493965951784 46.53992824873421,239.42271246034943 47.75611214461969,240.04612864309456 48.59560191334458,241.12051810076082 48.42339888383867,241.3062139351823 49.82254849851597,242.6326032479119 51.135596598440316,243.2560004648476 51.96432367787929,243.38863769536692 52.42711931967642,243.91918495017308 52.674661174591165,243.90592130130244 51.41542652138742,245.73628908286628 51.5230534147704,246.05461067335273 50.48983523779316,246.8106206020675 47.68077331915265,247.63294104117813 44.7425591283245,250.12638964869257 38.60782620246755,253.36247977579478 37.89748870587209,253.49510430351074 36.649016741954256,254.82134041403333 35.282155195309315,255.57728753965057 35.099189476517495,255.53750098379533 35.5512224289123,255.43140342825063 36.681304809986614,254.71524213852535 37.17638851975789,254.02560074773646 37.95130215253448,253.40226715161407 39.264350252458826,252.977867702808 43.38646027108189,250.80279373930534 45.62509965454228,249.3438775464383 45.77577730535995,249.4101923564449 46.95967313309666,248.5083073701171 47.16416423069313,247.99104632616945 47.49780760030262,247.71252009843738 48.16509433963802,247.34115065115475 50.42525910172844,246.7973573166455 51.53381610417273,246.01482052706706 51.37237576395273,245.85565979182866 51.447714589419775,245.61691823888395 52.63161041715648,244.11813948296913 52.57779697049409,243.6539116562417 52.25491629022872,243.4284288320414 51.06025777303148,243.26926419539814 50.01627690671012,242.75197746819322 48.80009301088285,241.77045209134667 47.583909115055576,240.27161869564588 47.013486579817254,239.88695890408417 45.35603242088109,239.7277889249599 43.94612011691788,239.9798079477041 43.24654530955013,240.311411007875 41.48146425723098,242.16836888514808 40.803414828609675,242.55302035938803 38.39257241564337,242.28774363068806 37.0687616263167,242.55302035938803 33.38792187086074,245.2190144501801 32.72063513152534,245.49754725980893 31.51521392504219,245.47102035721764 28.792253521096427,244.2905664412683 27.156324740848504,244.47625669661647 24.993024182796944,244.0518213470641 22.388453361636493,244.4232023712757 15.080587297386955,247.26157131385844 22.60370714851888,244.2905664412683 25.111413765640464,243.95897588676598 27.220900876971427,244.46299311776966 28.6092878022464,244.21098480321234 30.1160643104231,244.67521017897525 31.78428115864517,245.47102035721764 32.87131278234301,245.39143960952788 37.32706617057556,242.38059056158818 37.89748870587209,242.24795206382987 40.814177517953794,242.46017358022073 41.567565771983936,241.98267456812027 42.81603773590177,240.61648490274092 43.54790061118547,240.1124492968229 44.49501727340976,239.7941097787625 46.518402870045975,239.63493965951784 47.293316502764355,239.92675136134494 48.90771990432404,241.78371600861283 50.16695455752779,242.76524126209551 51.04949508368736,243.20294552593987 52.534746213117614,243.4814836575315 52.75,243.9457122429012 51.77059526974335,244.9935349705338 51.36161307466682,245.86892319561593 51.447714589419775,246.10766417840932 51.0710204623756,246.42598464855837 49.908650013268925,246.96977989686275 47.69153600843856,247.55336192392133 44.86094871116802,249.96723511490563 43.52637523249723,250.68342862659483" stroke="#ffac00" stroke-linecap="round" stroke-linejoin="round" stroke-width="0.5"><title>2024-09-22 20.8km</title><desc>1726992504000</desc></polyline><polyline fill="none" points="86.76985702937236,251.52389305555698 87.64912629075116,250.83678883760876 87.99225575855235,250.79714807261917 89.76151707704412,249.71362804264209 92.44221604452468,247.42762841992953 94.77978554414585,246.79335381942656 96.08796664018882,246.13264704128233 96.28097696584882,245.934434198105 95.97001588559942,245.6701498258626 96.02362986502703,245.4455075870501 97.75,243.11977149159065 95.86278792697703,243.10655693495937 94.72617156471824,242.55154405592475 93.06413820496527,241.17721383876778 92.01330420974409,239.86894049627153 91.3699364575441,239.5121358496981 88.82863383641234,239.68393083069532 87.04864972201176,240.84684331928293 86.00853852264117,242.08903108492814 85.26866560766939,242.39296840938187 83.03832406672882,242.06260171087342 82.05182684672764,242.26082185455743 78.0093328038347,245.0226503059239 77.20512311364291,245.32657914865558 75.86477362993173,245.12836478568352 75.17851469427114,244.61300569278683 73.39853057987057,243.96549966152088 71.87589356634999,244.2430027347218 70.4175933280494,243.78049720572744 69.43109610804822,243.74085378000018 66.67533756955527,244.335503596325 58.847696584649384,247.36155832759687 57.3679507545894,248.1940384565969 57.25,247.9958295000033 58.30083399527939,247.3087022238251 61.93586179509293,245.86836316733388 66.19281175540527,244.29586037985428 66.20353455125587,244.4808619286996 67.73689436062705,243.97871411018423 70.37470214458881,243.76728273215122 71.87589356634999,244.17693064087507 73.60226370138116,244.04478632859536 74.33141382050235,244.20335948337015 75.96127879270352,245.10193617570621 77.24801429710351,245.2472934483303 78.0951151708141,244.93015004893823 81.97676727559883,242.16831916730735 82.84531374112703,242.02295763724396 84.9469817315694,242.3268951527789 85.59034948371118,242.20796318611974 86.05142970615998,241.97009884918225 88.04586973792175,239.94823025328515 89.24682287528412,239.55178087019158 91.1554805401247,239.4857058276466 91.7130659254035,239.59142587579845 92.20631453540409,239.98787510934199 93.66461477364646,241.74544870339741 94.61894360603765,242.49868553366105 95.66977760131704,243.00084042200615 96.58121525024762,243.13298604655574 97.05301826848881,243.6879958557547 97.31036536936881,243.6087089195862 97.31036536936881,243.85978401236935 97.05301826848881,243.96549966152088 96.07724384433823,245.4719361106836 95.99146147741703,245.69657829299103 96.18447180301882,245.81550631281425 95.04785544081824,246.60835634011892 92.42077045276528,247.3219162522655 89.06453534553293,250.0703980661201 87.71346306597115,250.6385848633072 83.31711675931001,253.0830744325649 82.58796664018882,253.22842067085003 81.37629070691764,254.52331465254974 79.99305003974587,255.30288599189225 81.34412231936585,254.45724901909853 82.50218427326763,253.20199409701308 83.52084988087881,252.92451467068167 89.70790309773292,249.58149068969942 92.31354249408469,247.3219162522655 94.92990468628705,246.5951422219805 95.95929308974883,245.9608625987894 96.15230341540882,245.78907787559 95.97001588559942,245.65693558983185 96.13085782370763,245.2737220217532 97.26747418590821,243.76728273215122 97.07446386019001,243.2783460417122 95.74483717238763,243.0669132550538 94.42593328043586,242.4061830557548 93.10702938842587,241.2168582313243 92.13125496427529,239.94823025328515 91.6701747419429,239.65750085188483 90.8552422557841,239.4857058276466 89.27899126289412,239.59142587579845 87.85285941226175,240.18609916542482 86.20154884830117,241.93045474070823 85.42950754566118,242.34010980737366 82.95254169974942,242.07581639873388 82.05182684672764,242.2476071899364 77.4303018268547,245.30015058853314 76.34729944402352,245.2737220217532 74.99622716446174,244.58657695329748 73.24841143767117,244.03157188824844 71.77938840351999,244.2430027347218 70.32108816527762,243.8465695487248 69.55976965854643,243.85978401236935 67.80123113584705,244.07121520434157 66.36437648930587,244.52050507536478 66.31076250999467,244.28264597107773 67.24364575062646,243.8994273932476 70.02084988087881,243.621923413084 70.28891977766762,243.8465695487248 71.83300238283118,244.2165739021657 73.33419380465057,244.03157188824844 74.84610802226234,244.5072906948044 76.27223987295292,245.22086486824264 77.17295472603291,245.28693630595808 78.1058379666647,244.93015004893823 81.53713264502585,242.55154405592475 82.77025416999822,244.4808619286996 83.00615567911882,244.49407631260692 83.32783955521882,245.0755075590787 84.1427720413194,245.2472934483303 84.4859015091206,245.9080057907704 85.62251787137939,247.07084942801157 85.72974583005998,247.6654804085556 86.30877680703998,248.1279688459399 85.87986497220118,248.44510259853996 86.64118347899057,251.246409200372 83.23133439238882,253.12271433563728 82.57724384439643,253.25484723806585 80.82942811760586,254.90649450773344 79.61775218427647,255.36895109392208 79.64992057188647,255.5142941723534 80.61497220018646,255.17075566319545 82.22339158062823,253.91550925933552 81.05460683087585,255.01219904958998 79.57486100081587,255.4878681730479 79.60702938842587,255.3293120376693 80.35762509930646,255.1443295775316 81.39773629867705,254.44403588746354 82.57724384439643,253.1623542238085 83.27422557590762,253.056647822159 86.29805401113117,251.45782553739264" stroke="#4dd2ff" stroke-linecap="round" stroke-linejoin="round" stroke-width="0.5"><title>2024-08-22 19.8km</title><desc>1724317734000</desc></polyline><polyline fill="none" points="131.80016008537496,246.93204684912052 131.9730522945756,246.48818747994665 135.07070437568473,244.90803680605313 138.91755602991907,241.58788735448616 142.24573105660966,240.77115413974389 142.75,240.48707191462745 142.62033084314317,240.32727541198255 138.74466382071842,241.5168672623986 135.11392742802855,244.6417175362003 133.3273745998158,245.65372809056134 132.6213980789762,245.77800958859734 127.47785485594068,248.8139950822224 125.5472251867759,249.45314160925045 123.89034151553642,251.17527202617202 122.26227321237093,252.16948209026305 120.8070971184643,252.16948209026305 120.67742796160746,251.76114666066132 119.64007470651995,251.69013168281526 118.94850586983375,252.59556997597974 118.21371398080373,252.9506422324339 117.29162219847785,252.71984536723176 114.30923159018857,252.8973814508645 110.15981856989674,253.69629106619686 107.16302027751226,253.98034672970243 105.69343649951043,254.2999086684431 104.92982924229,254.72599012905266 104.48319103522226,254.45968936674763 102.25,254.35316892131232 102.49493062967667,254.0336071030033 104.9154215581948,254.26440182204533 104.92982924229,254.6904833897279 105.56376734259538,254.24664839552133 107.3215048025595,253.82056548925175 113.93463180365507,253.05716373537143 114.35245464247419,252.82636704419565 117.03228388476418,252.6310772417928 118.0984525079839,252.86187425194657 118.94850586983375,252.47129447544285 119.71211312699597,251.58360914918012 120.73505869798828,251.70788543064555 120.89354322303552,252.08071361901239 122.43516542157158,251.95643766554713 123.77508004271658,251.21077964891447 125.5472251867759,249.3643714312202 126.65661686233943,249.09806056233356 134.5808431163896,244.92579140620364 138.47091782290954,241.57013233480393 142.57710779091576,240.2740098709328 138.62940234795678,241.58788735448616 134.75373532553203,244.80150915839477 126.62780149414903,249.20458497015352 125.40314834582387,249.52415771156666 124.27934898610692,250.8201953076641 121.98852721456205,252.2760041821748 124.02001067239325,251.0154876132583 125.33110992523143,249.47089563815098 127.232924226264,248.8317491914786 131.2670757737942,246.70124015120382 132.53495197440498,245.79576407937566 134.72491995734163,244.90803680605313 138.3844717182801,241.71217242970306 142.26013874064665,240.451561596361 138.64381003199378,241.57013233480393 134.91221985057928,244.78375454260095 132.80869797221385,245.9200454524689 132.44850586977554,245.83127305428206 131.07977588049835,246.84327508682327 126.41168623266276,249.3111092975887 125.44637139810948,249.48864966488327 126.80069370334968,248.99153607421613 126.77187833510106,248.70747037994443 128.2270544290659,247.4646762511984 128.39994663826656,246.6302226298285" stroke="#4dd2ff" stroke-linecap="round" stroke-linejoin="round" stroke-width="0.5"><title>2024-07-03 11.2km</title><desc>1719998343000</desc></polyline><polyline fill="none" points="174.11332958377898,247.66863169174758 174.47778402705444,247.12595631176373 178.60826771648135,244.89909524876566 182.02502812154125,241.90494384431804 185.97328458941774,240.78212154375797 187.3551743531716,239.95871314145916 187.75,239.621862937056 187.55258717667311,239.4908654295141 185.82142857147846,240.59498367030756 181.97947131615365,241.71780738227244 178.09195725532481,245.01137475513679 170.1043307086802,249.29664596483053 168.17575928010046,249.9703018367145 166.91535433073295,251.42987910359807 164.88048368954333,252.73974395697587 163.36192350956844,252.79588076462096 163.21006749157095,252.36549803176604 162.0711473565898,252.328073387529 161.29668166482588,253.24497446394525 160.49184476939263,253.60050601539842 159.20106861647218,253.35724767716601 156.49803149601212,253.52565733826486 147.32592800899874,255.09747165722365 147.25,255.30330325613613 147.76631046121474,255.17231954430463 149.81636670412263,255.50913457047136 150.65157480310882,254.7606556998362 151.54752530931728,254.5922474355175 151.71456692914944,254.3115665716614 156.54358830145793,253.43209643894807 159.21625421824865,253.2636866720568 160.47665916761616,253.52565733826486 161.28149606304942,253.20755004076636 162.32930258719716,252.197087058521 163.24043869512388,252.309361061838 163.483408324013,252.7023194067733 165.0323397075408,252.62747027815203 166.58127109106863,251.71056539933488 167.20388076495146,250.7562298351404 168.34280089993263,249.78317551132932 169.46653543313732,249.5211982607725 177.78824521932984,245.17979385587387 181.75168728915742,241.81137564270466 182.84505061869277,241.24996519809065 185.76068616425619,240.48270083342504 187.40073115867563,239.50957936620398 185.47215973009588,240.7259802064218 182.11614173237467,241.62423906305048 178.0464004499372,245.06751447654096 170.0587739032926,249.39020946265373 168.22131608548807,250.06386491112062 167.02165354328463,251.44859153979633 165.74606299214065,252.42163498049194 164.19713160849642,252.87072980853554 166.3079302588012,251.87897692278784 168.38835770537844,249.8018881544267 169.46653543313732,249.57733628182905 178.4867829021532,244.7493891085469 181.23537682794267,242.24178888325696 177.94010123738553,245.1236541768012 171.78993250848725,248.36100775338127" stroke="#4dd2ff" stroke-linecap="round" stroke-linejoin="round" stroke-width="0.5"><title>2024-06-26 10.0km</title><desc>1719394224000</desc></polyline></svg>