<?xml version="1.0" encoding="utf-8" ?>
<svg baseProfile="full" height="300mm" version="1.1" viewBox="0,0,200,300" width="200mm" xmlns="http://www.w3.org/2000/svg" xmlns:ev="http://www.w3.org/2001/xml-events" xmlns:xlink="http://www.w3.org/1999/xlink"><defs /><rect fill="#222222" height="300" width="200" x="0" y="0" /><text fill="#FFFFFF" style="font-size:12px; font-family:Arial; font-weight:bold;" x="10" y="20">Over 10km Runs</text><text fill="#FFFFFF" style="font-size:4px; font-family:Arial" x="10" y="280">Runner</text><text fill="#FFFFFF" style="font-size:9px; font-family:Arial" x="10" y="290">jianbo</text><text fill="#FFFFFF" style="font-size:4px; font-family:Arial" x="65" y="280">SPECIAL TRACKS</text><rect fill="yellow" height="2.6" width="2.6" x="65" y="283" /><text fill="#FFFFFF" style="font-size:3px; font-family:Arial" x="70" y="285.5">Over 20.0 km</text><rect fill="red" height="2.6" width="2.6" x="65" y="287" /><text fill="#FFFFFF" style="font-size:3px; font-family:Arial" x="70" y="289.5">Over 40.0 km</text><text fill="#FFFFFF" style="font-size:4px; font-family:Arial" x="120" y="280">STATISTICS</text><text fill="#FFFFFF" style="font-size:3px; font-family:Arial" x="120" y="285">Number: 10</text><text fill="#FFFFFF" style="font-size:3px; font-family:Arial" x="120" y="290">Weekly: 1.0</text><text fill="#FFFFFF" style="font-size:3px; font-family:Arial" x="141" y="285">Total: 170.5 km</text><text fill="#FFFFFF" style="font-size:3px; font-family:Arial" x="141" y="290">Avg: 17.1 km</text><text fill="#FFFFFF" style="font-size:3px; font-family:Arial" x="167" y="285">Min: 10.0 km</text><text fill="#FFFFFF" style="font-size:3px; font-family:Arial" x="167" y="290">Max: 42.8 km</text><polyline fill="none" points="20.804550379281864,72.78427872242901 21.13217768148752,72.27961730484094 24.06912242685212,70.63584758246725 26.77204767067451,68.27108491495164 29.545178764907178,67.50685241134488 30.902491874352563,66.82913253569131 31.230119176616427,66.49748092468508 31.089707475621253,66.35328427304194 31.417334777885117,66.3388645978921 31.861971831007395,65.74765635677613 32.915059588325676,63.5990934330257 34.49469122424489,62.60410770771705 35.47757313109469,61.681214682233986 37.162513542803936,59.11437940996984 37.56034669553628,58.912491053117265 38.5315276273177,58.88364983026986 41.515276273014024,60.1238158641645 43.188515709654894,59.44605236766074 43.75016251357738,58.696181705003255 44.346912242705,57.34063383546163 44.931960996764246,56.70611656231631 47.02643553627422,56.41769845956151 47.78699891659198,56.028332870417216 48.547562296909746,54.77370142489963 48.921993499447126,48.94741693121614 49.354929577501025,47.92346011572954 50.39631635969272,46.79853927216027 52.20996749732876,46.06300813900452 55.15861321776174,46.913916276796954 55.919176598021295,46.913916276796954 56.49252437701216,46.755272865520965 57.498808233998716,45.529384560111794 59.11354279523948,44.34675048157078 64.76511375949485,43.12083642856305 67.0,43.25063971333293 64.48429035756271,43.22179455166042 62.974864572053775,43.567936013190774 63.606717226444744,43.27948486778041 59.01993499463424,44.40444023178134 57.756229685852304,45.240938348462805 56.49252437701216,46.79853927216027 55.95427952328464,47.029293165360286 54.655471289297566,46.95718262359878 54.585265438770875,46.755272865520965 52.22166847239714,46.07743036341708 50.419718309887685,46.79853927216027 49.40173347777454,47.89461612937157 48.921993499447126,49.163744666097045 48.6294691223884,54.586226582032396 48.219934994587675,55.81201808301557 46.93282773566898,56.48980305323494 45.00216684723273,56.720537448403775 44.417118093173485,57.28295059208176 43.64485373784555,58.95575287377869 43.15341278439155,59.518155057645345 41.80780065007275,60.109395405954274 41.18764897080837,60.16707722796127 38.46132177679101,58.89807044259214 37.58374864567304,58.97017347707151 36.97529794147704,59.287426290153235 35.24355362949427,61.95519932414027 32.751245937193744,63.82981352798379 32.09599133260781,65.50252033884317 30.867388949089218,66.85797176089545 29.474972914438695,67.5645305137441 27.017768147343304,68.19898772644956 23.987215601315256,70.78003885135695 22.20866738894256,71.86146759145049 16.34647887328174,74.83173941547284 14.556229685840663,76.33126491290022 13.058504875400104,76.87916357142967 13.0,76.7061432251212 14.228602383518592,76.28800964419497 16.217768147354946,74.42801766378398 17.095341278472915,74.2117375696107 19.728060671768617,72.78427872242901" stroke="#4dd2ff" stroke-linecap="round" stroke-linejoin="round" stroke-width="0.5"><title>2025-11-30 11.3km</title><desc>1764483136000</desc></polyline><polyline fill="none" points="78.55655893537914,75.27007125543605 79.26235741446726,74.55846370589279 79.23669201519806,74.32126029502251 82.3678707224899,72.64501011265384 85.25522813689895,70.09896475734422 88.32224334601779,69.1817432478565 90.11882129282458,68.09055722547055 90.43963878328213,68.13800029279082 92.10788973385934,65.18068156267691 94.62309885933064,63.39360499722534 96.30418250948424,60.64177374121209 96.95865019015037,60.072421827862854 97.89543726237025,59.787744904795545 101.11644486692967,61.22693830032949 102.87452471483266,60.815741867467295 102.78469581750687,61.08460122566612 102.61787072243169,61.0055250035075 103.10551330802264,60.910633471241454 103.86264258553274,59.993344969378086 104.61977186310105,58.301088284511934 105.15874524717219,57.6842787850328 106.22385931562167,57.27307077178557 107.6739543726435,57.19399215361045 108.90589353610994,56.513913985021645 109.26520912552951,55.29609040290234 109.63735741446726,49.20679562493751 110.06083650194341,48.083802573397406 111.25427756656427,46.70772699423833 113.38450570346322,45.901054999791086 115.87404942966532,46.6128246752196 115.89971482893452,47.182237515356974 115.96387832699111,46.80262924169074 117.01615969586419,46.944982478627935 117.8502851711819,46.644458789523924 118.38925855513662,47.00825053216249 117.47813688218594,46.20158046520373 118.92823193914955,44.65149404857948 120.08317490492482,43.79735663464817 121.40494296577526,43.30701586860232 127.0,42.24724058517313 120.3013307985384,43.73408696576371 119.14638783270493,44.43005157231528 117.50380228139693,46.23321468291397 117.94011406844947,46.6760928958829 116.29752851714147,47.324590322590666 115.84838403039612,47.2138714864559 115.87404942966532,46.691909946050146 113.38450570346322,45.901054999791086 111.30560836504446,46.739361084706616 110.21482889732579,47.94145062545431 109.74001901136944,49.001177928745165 109.27804182516411,55.438434027528274 108.93155893537914,56.59299303077569 107.81511406844947,57.24143933052255 106.09553231939208,57.36796504801896 105.21007604559418,57.6842787850328 103.4134980989038,60.5943278469058 101.80941064638318,61.27438395608624 101.10361216729507,61.2901991707331 98.08792775665643,59.9458988304832 97.03564638784155,60.072421827862854 96.21435361215845,60.79992659317213 95.12357414449798,62.79263549260213 94.14828897337429,63.88386746679316 92.69819391635247,64.62716498618829 91.94106463878416,65.43371690080676 91.23526615969604,67.14169212176057 90.43963878328213,68.16962899440841 90.10598859313177,68.13800029279082 88.65589353616815,69.1184863455419 85.6402091254713,69.94082359485037 82.03422053233953,72.97709918681358 74.79657794680679,76.81978043781419 73.8084600760485,77.07279236943577 73.0,77.75275941482687 73.70579847908812,77.00953943420609 74.6810836502118,76.80396717517579 77.81226235738723,75.12775006747688" stroke="#4dd2ff" stroke-linecap="round" stroke-linejoin="round" stroke-width="0.5"><title>2025-11-23 10.7km</title><desc>1763852167000</desc></polyline><polyline fill="none" points="172.2385542168049,69.02432476208196 173.14939759031404,67.02893059940834 173.6554216867662,66.49444525082072 174.08915662649088,66.17375307445764 174.13253012049245,66.44099660520442 176.98072289157426,64.6593635504396 179.87228915659944,61.89778806192044 183.77590361447074,60.704058131886995 185.27951807231875,59.83102540060645 185.53975903621176,59.58158648967219 185.30843373492826,59.22524442693975 187.0,56.855546922713984 186.88433734938735,56.338840702039306 186.52289156633196,56.0181255487696 184.9036144578131,55.83995014998072 182.8361445782939,54.77089305383561 181.41927710844902,53.57710310033872 179.87228915659944,51.58149147091899 178.81686746992636,51.1360386104061 176.38795180723537,51.15385675171274 174.79759036150062,51.688399949125596 173.87228915665764,52.20512312349456 171.89156626508338,54.4501743526198 171.18313253013184,54.85998145319172 167.68433734943392,54.52144523788593 166.6433734939783,54.66398690070491 165.05301204824354,55.57268663193099 161.8867469879333,58.01367471279809 160.2096385541954,58.833267123263795 158.46024096390465,58.761998406160274 156.75421686744085,57.83550182252657 154.64337349392008,57.158442796964664 152.72048192773946,57.390068617038196 150.5084337349399,56.9089991828514 147.8192771084141,57.06935584232269 142.1518072289182,58.86890146837686 134.80722891562618,61.790887284005294 133.1301204818883,62.752991383269546 133.0,62.539191036630655 134.5759036144009,61.59490231506061 144.58072289155098,57.78204991178063 144.9710843373323,57.639511384564685 145.0289156626677,57.924588295674766 147.47228915663436,57.10499063091993 150.10361445782473,56.87336434498138 152.74939759034896,57.390068617038196 154.672289156646,57.19407756315195 156.78313253010856,57.85331912159745 158.51807228912367,58.744181221263716 159.87710843374953,58.833267123263795 161.09156626509503,58.33438535085588 166.29638554214034,54.6996222940943 167.4963855422102,54.4679920773051 170.90843373496318,54.77089305383561 171.80481927713845,54.30763247470895 173.38072289159754,52.59711875783978 174.71084337343927,51.65276379867282 176.33012048189994,51.100402321113506 178.8024096385343,50.97567523793259 179.82891566265607,51.45676481112605 182.8361445782939,54.71743998739112 184.75903614464914,55.73304480321531 186.6096385542187,56.0181255487696 186.95662650605664,56.855546922713984 185.5253012048197,58.53037482801301 185.1638554216479,59.31433002659469 185.3951807228732,59.510318148779334 184.52771084336564,60.2408169440605 180.33493975905003,61.55926865526999 176.64819277107017,64.6949964309897 172.03614457830554,67.15364355743804" stroke="#4dd2ff" stroke-linecap="round" stroke-linejoin="round" stroke-width="0.5"><title>2024-11-03 10.0km</title><desc>1730623436000</desc></polyline><polyline fill="none" points="33.75276838400168,103.19959384238246 33.48723140452057,102.94928793491272 33.44929755027988,102.79793952795444 33.06047554459656,102.52434693580653 32.88503146884614,101.93640851125019 31.78494969662279,100.35301288176925 31.61424735264154,99.86401223577559 31.5857969619683,99.19453878523564 31.709081988199614,98.5716288055446 31.604763889074093,98.42608789652877 31.604763889074093,98.16411312040509 31.82762528260355,97.20352640197234 31.922459918132517,97.0288721542347 32.03151974899811,97.0288721542347 32.38714963226812,95.18914117284294 33.373429841856705,93.76271771868778 34.00408016817528,93.023289274548 34.06572268126183,93.0 35.45979182366864,94.23431558776065 35.63997763118823,94.47884594607967 36.26588622573763,96.04497438691396 35.47875875077443,96.58058993656596 35.05200289087952,97.16859560453668 34.74853205715772,98.20486484849971 34.74853205715772,98.81613651441512 35.592560313409194,100.41704830255912 35.87232248825603,100.70811729351408 36.13785946776625,101.40085421594267 36.393912983709015,101.54056462252265 36.86808616138296,102.07029612821862 38.157837204722455,102.966751181164 38.73632848149282,103.86318907653549 39.025574119878,104.49184957352554 39.07773316942621,105.09139755740762 39.357495344243944,105.81899402655472 39.24369378160918,106.29047050414374 39.92176142567769,106.70955672274067 40.39593460338074,106.72119795307299 40.8321739268722,106.95402195215138 42.909052445116686,108.43242734393789 44.01861768090748,109.3404012302999 44.198803488427075,109.32876065080563 44.51175778571633,109.03774522341337 44.79626169230323,108.93879956632372 45.502779727074085,109.04938587521974 46.12394658982521,109.28801859979649 46.82572289282689,109.86422431411484 47.89261254260782,111.01661448362574 48.09650700900238,111.13301595492521 48.129699131444795,111.26105723937872 48.414203038060805,111.4822186337733 48.523262868926395,111.67427899779432 48.94053526528296,111.97109801185798 49.2914234167838,112.35521394479656 49.71343754490954,112.5589105103063 49.77982178979437,112.75096646101156 50.102259550621966,113.08851743647392 50.16864379547769,113.02449933486787 50.14019340483355,113.14671563474258 50.28718708991073,113.3271295900413 51.866183771635406,114.90426717004084 51.86144203983713,115.55023808832993 51.78083259961568,115.82957410600284 51.543746010778705,116.37078290208228 50.865678366681095,117.4182660427141 52.61063566058874,119.76919852090577 52.667536441935226,120.24635358839078 52.53950968393474,121.15409859898136 52.615377392357914,121.50322661449172 52.55373487927136,122.09673827304869 52.60589392881957,123.06845192191031 52.47312543904991,123.28373904652835 52.221813654876314,124.43579928982581 51.54848774254788,125.55873985512153 51.55322947434615,125.77401554382595 51.230791713518556,125.85547095204674 50.9368043433642,126.13474556297297 50.41995557965129,126.43729118082774 50.18761072261259,126.46056383978794 49.76559659445775,126.76310735513471 49.23926436723559,126.89110594697195 48.987952583062,127.04237655955876 48.15814952211804,127.16455631340796 47.47059841448208,127.15292016008607 46.906332333019236,127.04237655955876 45.94850251407479,126.35001860680495 45.05705694001517,125.23291531081486 44.72513571564923,125.04091050112402 44.16561136598466,124.38925195004776 43.871623995830305,124.33106771033636 43.61557047988754,124.13905920693651 43.14613903398276,124.06341927756512 42.515488707635086,123.54557340613974 42.24995172812487,123.44083983778182 40.457577116496395,123.74340284124992 39.845893717283616,123.73176583875102 37.10517275024904,124.2205174559349 35.92448153780424,124.61035140233435 35.27486428437987,124.732537494383 34.47351161408005,125.0700021895027 33.36868811008753,125.32600826883936 32.27808980140253,125.75074254406354 31.851333941478515,126.00092668616708 32.29231499673915,126.78056172913784 32.24015594719094,127.17037438899206 32.30654019204667,127.44382312663947 32.03151974899811,127.68236221240295 31.43406154512195,128.5259663169636 31.486220594670158,128.93321803857543 30.177502624253975,130.91706512797828 29.987833353166934,131.4930050142757 28.82136733608786,133.4418400455943 28.423061866807984,134.32024368597558 27.79241154048941,135.4254964156862 27.664384782518027,135.50111801887033 27.550583219883265,135.82105422166933 27.175986409478355,136.2747781852995 26.853548648679862,138.10126359036803 27.028992724401178,139.22969355157693 27.977339079778176,141.2247378350221 28.16226661906694,141.3003500895502 28.266584718192462,141.50973723528296 28.598505942558404,141.75983732348686 29.153288560453802,142.61482057848116 30.030508939176798,143.4465240323916 30.205953014898114,143.4697882526998 30.06370106159011,143.4988685118551 30.253370332706254,143.5163166586899 30.533132507523987,143.82456618301512 30.78444429166848,143.9234382429786 30.955146635649726,143.89435824697648 31.571571766631678,144.4236113532461 32.29705672850832,144.67951181292665 33.02254169038497,145.09243915708794 34.46876988231088,145.674020802242 34.8054328384751,145.88920418394628 34.78172417957103,145.97644040892555 34.42135256456095,145.92409869340918 32.98934956791345,145.49373126319915 32.334990582749015,145.3948625121884 31.737532378843753,145.07499159634972 31.32500171425636,144.66206409866936 30.281820723350393,143.99904614825573 29.385633417521603,143.2778580902086 28.167008350865217,141.84126497145553 27.67860997785465,141.10841105162763 28.41357840326964,142.07391461548468 29.76023022789741,143.47560430596786 30.898245854332345,144.32474034729603 31.609505620843265,144.7434867097909 32.979866104375105,145.3890466968296 36.99611291938345,146.4707759536468 37.712114417692646,146.732480898394 38.18628759536659,147.0 37.78798212611582,146.75574348950977 36.910761747392826,146.43588185074623 35.673169753630646,146.04622927214587 33.7859605064441,145.6274945359146 32.19748036121018,145.01101715151162 31.343968641362153,144.5806413462342 30.343463236436946,143.905990247531 29.07267912023235,142.77185662544434 27.61222573296982,140.95718580199173 27.223403727286495,140.2592167941075 26.900965966458898,139.41582372063203 26.720780158910202,138.63639870877523 26.697071500035236,137.77552618139453 26.844065185112413,136.91463785408268 27.147536018834217,136.11772038689742 30.542615971062332,130.06186861039532 31.50518752177595,128.59578114903707 32.40137482760474,127.58927393307386 33.01779995858669,127.08892126524006 34.53515412719571,126.11147274225368 35.16106272174511,125.82056150871358 36.23743583509349,125.42491933416386 37.019821578258416,125.2561885676514 40.68043850999675,123.91795753187762 41.88009664954734,123.63285120100409 42.648257197404746,123.74340284124992 44.29837985575432,124.40088878932511 44.876871132524684,124.82563144602682 46.64079535350902,126.5943814046841 47.157644117221935,126.94346890657471 47.802519638848025,127.15873823711445 48.456878624041565,127.21110089781723 49.24400609903387,127.0656489181747 49.813013912236784,126.78637985237583 51.245016908826074,125.80892502182905 51.68599796408671,125.42491933416386 52.060594774462515,124.91290685777494 52.41148292593425,123.89468361069157 52.620119124127086,119.61790443643622 52.81927185875247,117.62775986141787 52.686503369011916,116.73740466446907 52.11275382398162,114.38632009158391 51.19285785930697,112.05257741227615 51.7950577949523,113.5890195794309 52.31664829040528,115.77719872952366 52.47786717081908,116.14964457927636 52.548993147473084,116.2543944412173 52.74814588209847,116.23693614714648 52.93307342141634,116.3416858139426 53.30292849999387,115.58515518159766 53.24602771870559,115.48040382374893 52.563218342809705,115.13705050919452 52.47312543904991,115.02065898415822 51.76660740430816,114.77041622642355 51.472620034153806,114.55508999314407 50.102259550621966,113.15835526572482 50.17338552727597,112.99540016888568 50.08329262351617,113.05359848280568 49.63282810471719,112.71022738573447 48.83147543441737,111.96527804926518 48.80302504374413,111.86051859892177 48.139182595012244,111.37745810341221 47.28092914339504,110.30073907681071 46.13343005339266,109.31712006841553 45.77305843832437,109.1425109855154 44.810486887639854,108.9562605798128 44.473823931475636,109.06102652413756 44.156127902446315,109.34622151895746 44.0328428762441,109.33458094090383 41.235221127892146,107.2101270146668 40.80846526796813,107.02968950271679 40.48128577537136,106.69791548951252 39.97866220702417,106.72701856715139 39.19153473206097,106.26718782651005 39.33852841713815,105.91794627333002 39.153600877849385,105.51049450370192 38.98289853389724,104.44528241864464 39.32430322180153,104.05528067912746 39.80795986307203,103.92139873627457 40.007112597697414,103.76423248894571 39.954953548149206,103.28690954191188 39.85063544905279,103.08317265647929 38.77426233570441,102.3613548446483 39.29585283115739,101.55802839403987 38.94970641142572,101.37174782879083 38.61304345529061,101.99462056565972 38.42337418420357,102.11686564438787 37.683664027019404,101.86073273236252 37.280616825970355,101.53474336391082 36.88231135671958,100.73140273464378 36.95817906517186,100.49854780237365 37.176298726932146,100.33554866090708 37.01507984648924,99.88147663247582 36.94869560160441,99.09557233276064" stroke="red" stroke-linecap="round" stroke-linejoin="round" stroke-width="0.5"><title>2024-10-27 42.8km</title><desc>1729986801000</desc></polyline><polyline fill="none" points="113.57222929934505,125.23917360889027 114.02624203823507,124.56102438658127 117.27312101912685,122.76391245958803 120.74012738850433,119.79692999826511 123.79439490445657,119.01702663373726 125.18394904455636,118.2371187598037 125.47286624205299,117.89802697327104 125.25273885345086,117.71152612725564 125.44535031844862,117.33852366176143 126.91745222930331,115.38872125773923 126.6147770700627,114.72747752047144 124.95006369426847,114.49010718302452 122.94140127382707,113.33715960165136 121.70318471337669,112.37071065344207 121.64815286622616,112.01464876890532 120.14853503188351,110.3021475251735 119.11668789811665,109.8443464795564 116.3100636942545,109.99694700079272 115.05808917194372,110.60734735892038 112.66420382168144,112.99805549616576 111.89375796174863,113.45584583713207 108.49554140126565,113.1676076555159 107.17477707000216,113.5236664963013 103.157452229294,116.45687737004482 101.3826751591987,117.32156897970708 99.89681528660003,117.27070492085477 96.18216560507426,115.71086446823028 94.3110828025383,115.91432294154947 91.69707006367389,115.42263110559725 89.01426751597319,115.72781935270177 85.89121019106824,116.91465597155911 84.19898089172784,117.27070492085477 77.51261146500474,120.08515401356271 75.36636942671612,121.27195229347853 75.29757961782161,121.54321900561627 74.70598726114258,121.916209844072 73.46777070063399,125.01877548558696 73.0,125.44261771078163 74.29324840765912,122.00098034538678 75.04993630573153,121.1363187328534 75.29757961782161,121.5940814534406 75.462675159215,121.23804391610611 77.29248407646082,120.08515401356271 88.6152866242337,115.77868399344152 91.86216560512548,115.49045077576011 94.29732484079432,115.98214236448985 96.18216560507426,115.72781935270177 98.49350318475626,116.50774173585523 99.74547770700883,117.18593144671468 101.19006369425915,117.33852366176143 102.26318471343257,116.89770123625931 107.54624203819549,113.35411478456808 108.44050955411512,113.20151806180365 111.08203821652569,113.55757681296382 112.0726114649442,113.42193549479998 115.04433121019974,110.60734735892038 116.24127388535999,110.08172499347711 118.81401273887604,109.91216895480466 119.91464968159562,110.1665029329306 120.45121019106591,110.53952523332555 123.01019108283799,113.404980320498 125.01885350316297,114.38837691051594 126.83490445860662,114.7952975401131 127.0,115.43958602636121 125.43159235670464,117.42329703994619 125.25273885345086,117.81325389340054 125.52789808914531,117.99975459869893 123.89070063689724,119.08484449662501 120.68509554141201,119.94951925954956 116.8466242038412,123.15385387386777 109.18343949044356,127.2905542524677 108.1515923566767,127.47704185506154 105.86777070065727,129.66401359223528 104.78089171973988,130.1556535204436 104.24433121015318,130.12174737600435 105.04229299357394,130.00307580341178 106.36305732489564,129.1893250648718 108.08280254772399,127.4431350374507 109.7612738853204,126.90062479583139 116.53019108279841,123.30643933782994 119.79082802549237,120.55987457853917 119.59821656049462,121.11936452816008 119.85961783438688,120.4751031716296 120.94649681524606,119.7799756252789 123.86318471340928,119.01702663373726 125.3765605094959,118.10148214745277 124.35847133753123,118.86443631755537 120.6163057325175,119.98342796084762 117.28687898087082,122.88259040065168 110.36662420380162,126.69718289277807 107.98649681528332,127.62962242905633 106.80331210192526,128.95198017485382 105.74394904461224,129.71487297824933 104.6157961783465,130.1556535204436 106.33554140129127,129.22323144364054 107.94522292993497,127.52790206554346 109.67872611462371,126.90062479583139 116.62649681523908,123.20471571435337 119.13044585986063,121.18718133406946 117.02547770697856,123.03517617144098 115.59464968153043,123.81505630444735" stroke="#4dd2ff" stroke-linecap="round" stroke-linejoin="round" stroke-width="0.5"><title>2024-10-13 16.0km</title><desc>1728810741000</desc></polyline><polyline fill="none" points="173.45530939649325,125.2534517453023 175.2841864018701,123.94867581891594 177.56684491981287,122.88112248714606 180.77081741794245,120.11900082837383 183.86478227656335,119.3225503298163 185.36363636370515,118.5260951261007 185.72116119175917,118.22106848286057 185.29488158901222,117.84825720389199 185.37738731858553,117.54322902699641 186.9037433155463,115.5096902101941 186.64247517188778,114.73015886392386 184.96485867077718,114.49290929864219 183.4385026737582,113.79810459834698 181.99465240642894,112.52711112341785 180.12452253635274,110.35792124766158 178.32314744085306,109.8664593163121 176.35676088620676,110.12066398728348 175.0091673033312,110.7307532417326 172.0802139037405,113.54390686201805 168.46371275786078,113.28970864634903 167.43239113833988,113.49306725720817 163.8433919022209,116.06891644270218 161.505729564582,117.33987652568612 160.07563025213312,117.35682257915323 158.16424751724117,116.40784030304349 156.08785332314437,115.79777674085926 154.43773873185273,116.05197022730135 151.96256684494438,115.52663649372698 148.99236058059614,115.78083049140696 147.60351413296303,116.22143228528148 138.12910618796013,119.8987064803514 135.69518716580933,121.1357393086073 134.5951107716537,122.11857921769843 133.31627196335467,125.27039680416055 133.0,125.49068237531174 134.30634071817622,122.05079738497443 135.10389610391576,121.1357393086073 135.2689075631206,121.52548702634522 135.69518716580933,121.06795698174392 138.50038197101094,119.71230328931415 149.1436210848624,115.76388423978642 152.00381970976014,115.49274392447842 154.3689839572762,116.01807779012597 156.19786096259486,115.79777674085926 158.54927425517235,116.52646345287212 159.95187165780226,117.3059844122763 161.18945760128554,117.39071467974281 162.55080213904148,116.89927838712174 165.9197860963177,114.34039150044555 167.55614973267075,113.42528108770784 168.69747899164213,113.23886894572934 171.79144385032123,113.5269603291963 172.72650878533022,113.00161675586423 174.39037433167687,111.10358420461125 175.60045836522477,110.39181510789786 176.83804430870805,110.01898217640701 179.684491978609,110.08677005884238 183.2459893048508,113.54390686201805 184.8411000764463,114.40817720981431 186.8074866310344,114.89962258352898 186.98624904511962,115.56052905444812 185.73491214675596,117.05179329034581 185.33613445382798,117.8652031935053 185.4048892284045,118.20412253802351 183.98854087095242,119.06836301003932 180.6470588236116,120.06816370310844 176.74178762419615,123.25391984923044 168.98624904511962,127.38851238934149 167.9686783804791,127.64268402352172 166.64858670748072,129.15075919803348 164.90221543167718,130.1335406836879 166.60733384266496,129.13381462688267 167.84491978609003,127.59184973497759 169.06875477469293,127.32073320595373 177.29182582127396,122.84723176668922 180.50954927428393,120.00038083955587 184.15355233015725,118.91585038813355 185.52864782279357,118.03466297224804 185.25362872425467,117.84825720389199 185.47364400309743,117.35682257915323 186.94499618030386,115.56052905444812 186.79373567615403,114.86572985662497 185.01986249047332,114.5098557099991 182.99847211618908,113.45917417673627 180.3582887700759,110.52739046371426 179.38197097025113,110.03592915019544 178.02062643243698,109.96814124223602 175.82047364406753,110.32402737886878 174.48663101613056,111.08663736504968 172.90527119941544,112.88299050429487 171.66768525599036,113.5947464476485 168.42245989310322,113.28970864634903 166.90985485108104,113.73031858213653 168.1611917494447,113.22192237456329 171.8189457601984,113.47612071808544 172.52024446148425,113.10329631691275 174.50038197101094,111.03579683350108 175.46294881595531,110.39181510789786 176.98930481285788,109.93424727545062 179.36822001531255,109.88340630930907 180.454545454646,110.54433737359068 182.3109243697836,112.83215065026889 183.56226126814727,113.78115809748124 185.04736440029228,114.47596288511704 186.5324675324955,114.61153413348075 186.83498854091158,114.83183712126629 187.0,115.54358277512074 185.62490450730547,117.08568546762399 185.3223834988312,117.79741922234825 185.5974025974283,118.03466297224804 183.76852559210965,119.10225468041608 180.67456073343055,119.88176074637158 177.37433155084727,122.81334103782137 169.12375859444728,127.26989879603207 168.10618792980677,127.50712587825547 167.55614973267075,127.9646340723848 168.13368983962573,127.45629153861955 168.84873949585017,127.37156759666686" stroke="#4dd2ff" stroke-linecap="round" stroke-linejoin="round" stroke-width="0.5"><title>2024-10-06 18.0km</title><desc>1728199446000</desc></polyline><polyline fill="none" points="52.92240233859047,185.5885285941622 54.94578793516848,184.12078533480235 57.1987775710877,182.95365326071624 60.08317831525346,180.35409702651668 64.05819824611535,179.20461807097308 65.43582248210441,178.35576604465314 65.57932500663446,178.21429020905634 65.1488174329279,177.70143911227933 66.81344671809347,175.4201133034221 66.5551421737764,174.6242932715395 64.80441137391608,174.3059639983112 62.809726282255724,173.28023144027975 61.41775179380784,172.05995365601848 59.73877225618344,170.06150485745457 58.57640180707676,169.60168076226546 57.428381610428914,169.72547970501182 56.6391177251935,169.51325287934742 54.457879351626616,170.27373085597355 52.16183895827271,172.8204178658052 51.372575073095504,173.29791654768633 50.89901674201246,173.42171223767218 47.91416423069313,172.99726941842528 46.86659580125706,173.13875050045317 44.29790061118547,174.69503301224904 41.98750996548915,176.4811996765784 40.32288068032358,177.29469380961382 38.77305341482861,177.27700920459756 35.44379484455567,175.77380965034536 34.23837363807252,175.66770083962183 33.01860217913054,175.95065749034984 30.722561785776634,175.31400422591832 29.789795376069378,175.29631937190425 26.776242359890603,175.80917923615198 22.5716183896875,177.33006301306887 14.822482062212657,180.42483388629626 13.10045176721178,181.43283027356665 13.0,181.75114342186134 13.215253786882386,181.02609575833776 14.87988307204796,180.00041219430568 26.96279564179713,175.49085264395399 28.84267871384509,175.27863451567828 29.689343608857598,175.45548297812638 31.009566835011356,175.17252533147985 32.70289662509458,175.63233121830854 34.69758171675494,175.38474361979752 37.09407387726242,176.09213560231728 38.94525644433452,177.01173986209324 40.337230932782404,176.9233166367776 46.321286207821686,172.94421397600672 47.25405261758715,172.7319920060836 50.91336699447129,173.06800997725804 51.81743289937731,172.50208451075014 54.21392505982658,170.0791903695499 55.99335636460455,169.42482494085561 57.50013287278125,169.51325287934742 58.71990433166502,169.2302832804562 60.341482859512325,170.06150485745457 61.460802551184315,171.4940241343429 61.231198511843104,171.74161858024308 63.09673133143224,173.51013766387769 64.84746213129256,174.3413339531253 65.95243157056393,174.51818359381286 66.56949242629344,175.2255799335544 66.89954823284643,175.20789506839355 65.22056869522203,177.648385443812 65.36407121975208,178.07281423112727 63.986446983821224,179.08082746941363 60.241031092300545,180.177254721566 56.32341217115754,183.50185286490887 48.143768269976135,187.81663970105 47.196651607810054,187.99347240467614 45.53202232258627,189.7617872187111 43.70954026049003,190.76971671952924 43.46558596868999,190.71666797838407 44.068296571902465,190.575204570996 45.57507307996275,189.6203228513623 46.23518469306873,188.70080099697225 47.26840287010418,187.86968953548057 49.0191336699645,187.30382360373915 54.51528036146192,184.4037249857356 57.50013287278125,182.45850339524623 57.7010364071466,182.54692314191198 59.279564177501015,181.3444098268228 59.55221897427691,180.6547284348926 59.9970768004423,180.283360131245 60.886792452889495,179.78820086819178 63.90034546901006,179.06314308886067 65.37842147226911,178.01976070275123 65.16316768532852,177.80754638910003 65.2636194525985,177.48922431850224 66.84214722295292,175.49085264395399 66.77039596065879,174.8718822083174 66.33988838701043,174.571238442717 64.74701036408078,174.35901892719266 63.35503587563289,173.6693032909243 61.733457347843796,172.36060278845252 60.111878820112906,170.36215826086118 59.351315439795144,169.8492785387789 57.1413765612524,169.63705189993198 55.26149348926265,169.97307726359577 54.32872707943898,170.4152146771521 51.975285676366184,172.89115851352108 51.07121977151837,173.40402714583615 47.85676322085783,173.0503248409077 46.091682168480475,173.40402714583615 41.18389582785312,176.95868593356863 40.294180175464135,177.33006301306887 38.686951900075655,177.29469380961382 35.056338028167374,175.72075525500986 32.87509965454228,175.9683422621456 29.99069891043473,175.40242846275214 26.517937815573532,175.89760316169122 16.774116396554746,179.68209508513974 26.804942864750046,175.72075525500986 30.14855168754002,175.27863451567828 32.961201169353444,175.95065749034984 34.81238373636734,175.61464640428312 36.821419080602936,176.233613571967 39.045708211604506,177.29469380961382 40.49508370982949,177.18858614603232 46.43608822749229,173.1741207487794 47.196651607810054,172.99726941842528 51.0855700239772,173.28023144027975 52.09008769603679,172.64356609081733 53.75471698126057,170.82197987030668 54.7305341482861,170.14993239575415 55.99335636460455,169.72547970501182 58.69120382674737,169.51325287934742 59.72442200372461,169.90233514845022 61.87695987249026,172.37828801147407 63.55593941011466,173.68698834945098 64.73266011162195,174.2705940345768 66.7129949508817,174.64197821002745 67.0,175.26094965719676 65.69412702642148,176.65804662737355 65.1488174329279,177.82523092748306 65.2636194525985,178.14355223787425 64.7613606165396,178.5679795314063 63.211533351044636,179.29303986247396 60.255381344642956,180.07114923188055 56.48126494826283,183.28964681985963 54.701833643368445,184.24457150211674" stroke="#ffac00" stroke-linecap="round" stroke-linejoin="round" stroke-width="0.5"><title>2024-09-22 20.8km</title><desc>1726992504000</desc></polyline><polyline fill="none" points="112.35980937245768,185.3651907407475 113.53216838766821,184.4490517834929 113.98967434465885,184.39619743016374 116.34868943609763,182.95150405686582 119.92295472603291,179.90350455991575 123.03971405880293,179.0578050925833 124.78395552025177,178.17686272170977 125.04130262113176,177.91257893081638 124.6266878474853,177.5601997678168 124.69817315333057,177.2606767827383 127.0,174.15969532213057 124.48371723591117,174.14207591328886 122.96822875295766,173.40205874123785 120.75218427326763,171.56961845170008 119.35107227961998,169.82525399503356 118.4932486100588,169.34951446625928 115.10484511515824,169.5785744409368 112.73153296264354,171.12912442571542 111.34471803018823,172.78537477990903 110.35822081018705,173.1906245458522 107.38443208899116,172.7501356145076 106.06910246232292,173.01442913942446 100.67911040509352,176.69686707457004 99.60683081811294,177.10210553155048 97.81969817326171,176.83781971425924 96.90468625898939,176.15067425706366 94.53137410647469,175.28733288202784 92.50119142176118,175.65733697963879 90.55679110408528,175.04066294098448 89.24146147741703,174.9878050400148 85.56711675936822,175.78067146177636 75.13026211282704,179.81541110346734 73.15726767270826,180.92538460881042 73.0,180.66110600001412 74.40111199370585,179.74493629843346 79.24781572679058,177.82448422312154 84.92374900722643,175.72781383981055 84.93804606830236,175.9744825716043 86.98252581415,175.304952146922 90.49960285943234,175.0230436428683 92.50119142176118,175.56924085451465 94.8030182684306,175.39304843812715 95.77521842735587,175.60447931116505 97.9483717235853,176.80258156760829 99.66401906276587,176.99639126444526 100.7934868943994,176.573533398594 105.96902303415118,172.89109222308616 107.12708498811116,172.69727684966347 109.92930897540646,173.10252687038155 110.78713264496764,172.94395091483602 111.40190627484117,172.62679846558603 114.06115965056233,169.93097367105656 115.66243050037883,169.40237449359847 118.20730738685234,169.31427443686698 118.95075456716586,169.4552345010743 119.60841938049998,169.9838334791275 121.55281969817588,172.32726493787777 122.82525814138353,173.33158071155776 124.22637013508938,174.00112056267972 125.4416203336441,174.17731472874584 126.07069102465175,174.9173278076778 126.41382049245294,174.81161189278646 126.41382049245294,175.14637868315913 126.07069102465175,175.28733288202784 124.76965845911764,177.2959148142545 124.65528196986998,177.59543772399775 124.91262907063356,177.75400841709052 123.39714058779646,178.81114178683492 119.89436060364824,179.76255500303523 115.41938046063296,183.42719742150803 113.6179507545894,184.18477981774777 107.75615567906061,187.44409924342472 106.78395552025177,187.63789422780974 105.16838760924293,189.36441953673784 103.32406671962235,190.40384798920422 105.12549642584054,189.2763320254744 106.6695790310041,187.6026587960223 108.02779984119115,187.23268622758042 116.27720413031057,182.77532091960893 119.75138999207411,179.76255500303523 123.23987291502999,178.7935229626455 124.61239078629296,177.9478167983907 124.86973788717296,177.71877050079638 124.6266878474853,177.54258078645216 124.8411437649047,177.0316293623473 126.35663224785822,175.0230436428683 126.09928514692001,174.37112805563083 124.32644956320291,174.08921767341963 122.56791104050353,173.20824407433975 120.80937251786236,171.62247764176573 119.50833995232824,169.93097367105656 118.89356632251292,169.54333446918463 117.80698967439821,169.31427443686698 115.70532168383943,169.4552345010743 113.80381254968233,170.24813222057128 111.60206513106823,172.5739396542922 110.57267672754824,173.12014640984125 107.27005559968529,172.76775519832154 106.06910246232292,172.99680958659155 99.90706910245353,177.06686745138722 98.46306592534529,177.0316293623473 96.66163621930173,176.11543593773968 94.33121525024762,175.3754291843361 92.37251787137939,175.65733697963879 90.42811755370349,175.12875939829974 89.41302621137584,175.14637868315913 87.0683081811294,175.4282869391318 85.15250198572176,176.02734010049608 85.08101667993469,175.71019462810364 86.32486100081587,175.199236524335 90.02779984119115,174.82923121744534 90.38522637018468,175.12875939829974 92.44400317710824,175.62209853623062 94.44559173949528,175.3754291843361 96.46147736301646,176.0097209264204 98.36298649723176,176.96115315766656 99.56393963471055,177.04924840795866 100.80778395553352,176.573533398594 105.38284352666233,173.40205874123785 107.02700555993943,175.9744825716043 107.34154090547236,175.9921017501474 107.77045274025295,176.76734341210977 108.85702938842587,176.99639126444526 109.31453534553293,177.8773410543654 110.83002382842824,179.4277992373536 110.97299444006057,180.2206405447505 111.74503574264236,180.8372917945817 111.17315329628764,181.26013679806783 112.1882446386735,184.99521226716752 107.64177918981295,187.49695244753093 106.76965845917584,187.67312965076417 104.43923749012174,189.8753260103258 102.8236695790547,190.4919347919058 102.86656076245708,190.68572556314757 104.15329626691528,190.22767421760364 106.29785544081824,188.5540123457904 104.73947577446233,190.016265399463 102.76648133440176,190.65049089740205 102.80937251792056,190.43908271689725 103.81016679905588,190.1924394367088 105.19698173151119,189.25871451661806 106.76965845917584,187.54980563174468 107.69896743452409,187.40886376288836 111.73073868150823,185.27710071652837" stroke="#4dd2ff" stroke-linecap="round" stroke-linejoin="round" stroke-width="0.5"><title>2024-08-22 19.8km</title><desc>1724317734000</desc></polyline><polyline fill="none" points="172.4002134471666,179.24272913216555 172.63073639280628,178.65091663991916 176.76093916757964,176.54404907474236 181.89007470663637,172.11718313932943 186.32764140889049,171.02820551967307 187.0,170.64942921949842 186.82710779085755,170.43636721599614 181.6595517609967,172.02248968320782 176.81856990396045,176.18895671493374 174.43649946642108,177.5383041207533 173.49519743863493,177.70401278481586 166.6371398079209,181.7519934429729 164.0629669156624,182.60418881234364 161.8537886873819,184.90036270157725 159.6830309497891,186.22597612036043 157.7427961579524,186.22597612036043 157.56990394880995,185.68152888088662 156.18676627532113,185.58684224376339 155.26467449311167,186.79409330131602 154.28495197440498,187.26752297657367 153.05549626459833,186.95979382298538 149.07897545362357,187.19650860116235 143.54642475990113,188.26172142161522 139.55069370334968,188.6404623062699 137.5912486659363,189.0665448912623 136.57310565642547,189.63465350540355 135.9775880469242,189.27958582233987 133.0,189.13755856174976 133.32657417282462,188.7114761373523 136.5538954109652,189.01920242940832 136.57310565642547,189.5873111863184 137.41835645679384,188.995531194043 139.76200640341267,188.42742065234052 148.5795090715401,187.40955164715706 149.1366061900044,187.10182272559905 152.70971184642985,186.8414363224001 154.13127001060639,187.14916566926695 155.26467449311167,186.6283926339238 156.2828175026225,185.44481219891168 157.64674493065104,185.6105139075371 157.85805763071403,186.10761815868318 159.91355389542878,185.94191688740102 161.7001067235833,184.94770619855262 164.0629669156624,182.48582857495057 165.54215581645258,182.13074741646415 176.10779082181398,176.5677218749479 181.29455709725153,172.09350977974827 186.76947705447674,170.3653464945819 181.50586979731452,172.11718313932943 176.33831376733724,176.40201221119787 165.50373532553203,182.2727799602144 163.87086446105968,182.6988769487507 162.37246531480923,184.42692707690003 159.31803628604393,186.36800557625247 162.02668089652434,184.68731681768259 163.7748132336419,182.62786085088737 166.31056563497987,181.77566558864783 171.68943436502013,178.9349868682766 173.3799359658733,177.7276854391821 176.2998932765331,176.54404907474236 181.17929562437348,172.28289657294226 186.34685165423434,170.60208212849102 181.52508004265837,172.09350977974827 176.54962646740023,176.378339390154 173.74493062961847,177.89339393662522 173.26467449311167,177.7750307390379 171.43970117392018,179.12436678244558 165.21558164351154,182.41481239678978 163.9284951974405,182.65153288652073 165.7342582711717,181.98871476562636 165.69583778013475,181.60996050661197 167.63607257208787,179.95290166826453 167.86659551761113,178.84029683977133" stroke="#4dd2ff" stroke-linecap="round" stroke-linejoin="round" stroke-width="0.5"><title>2024-07-03 11.2km</title><desc>1719998343000</desc></polyline><polyline fill="none" points="48.817772778333165,240.22484225567314 49.30371203599498,239.5012750823662 54.81102362193633,236.53212699836877 59.366704161977395,232.5399251257768 64.63104611914605,231.04282872502517 66.47356580419,229.94495085529343 67.0,229.49581724942254 66.73678290215321,229.32115390602848 64.42857142863795,230.79331156043918 59.30596175487153,232.29040984302992 54.12260967376642,236.6818330068636 43.47244094486814,242.39552795312193 40.90101237350609,243.2937357822957 39.220472440938465,245.23983880481683 36.50731158605777,246.98632527598238 34.48256467934698,247.06117435282795 34.280089988722466,246.48733070904564 32.76152980874758,246.4374311833817 31.72890888643451,247.659965951927 30.655793025856838,248.13400802054093 28.93475815525744,247.80966356956924 25.33070866134949,248.03420978435315 13.101237345254049,250.12996220964123 13.0,250.4044043415197 13.68841394816991,250.22975939241587 16.4218222721247,250.67884609397152 17.535433070734143,249.68087426647253 18.730033745756373,249.45632991404273 18.952755905571394,249.08208876222488 25.39145106857177,247.90946191860712 28.955005624331534,247.6849155627715 30.635545556782745,248.03420978435315 31.708661417360418,247.61006672104122 33.105736782890745,246.2627827446995 34.320584926754236,246.41248141579854 34.64454443193972,246.93642587572685 36.70978627668228,246.83662703755544 38.77502812142484,245.61408719912288 39.60517435322981,244.34163978019205 41.1237345332047,243.0442340151203 42.62204724410549,242.6949310143682 53.71766029240098,236.90639180784638 59.002249718876556,232.41516752362077 60.460067491512746,231.66662026412087 64.34758155234158,230.6436011112528 66.5343082115287,229.3461058216053 63.96287964005023,230.96797360856726 59.48818897653837,232.16565208409156 54.06186726654414,236.75668596872129 43.41169853764586,242.52027928356256 40.961754780611955,243.41848654818023 39.3622047243407,245.26478871973814 37.661417322815396,246.5621799740038 35.59617547795642,247.16097307806194 38.410573678324,245.8386358970747 41.184476940426975,243.06918420590227 42.62204724410549,242.76978170911025 54.64904386946,236.3325188114104 58.31383577059023,232.98905184435716 53.92013498314191,236.83153890240646 45.719910011277534,241.1480103378708" stroke="#4dd2ff" stroke-linecap="round" stroke-linejoin="round" stroke-width="0.5"><title>2024-06-26 10.0km</title><desc>1719394224000</desc></polyline></svg>