<?xml version="1.0" encoding="utf-8" ?>
<svg baseProfile="full" height="300mm" version="1.1" viewBox="0,0,200,300" width="200mm" xmlns="http://www.w3.org/2000/svg" xmlns:ev="http://www.w3.org/2001/xml-events" xmlns:xlink="http://www.w3.org/1999/xlink"><defs /><rect fill="#222222" height="300" width="200" x="0" y="0" /><text fill="#FFFFFF" style="font-size:12px; font-family:Arial; font-weight:bold;" x="10" y="20">Over 10km Runs</text><text fill="#FFFFFF" style="font-size:4px; font-family:Arial" x="10" y="280">ATHLETE</text><text fill="#FFFFFF" style="font-size:9px; font-family:Arial" x="10" y="290">wjianbo</text><text fill="#FFFFFF" style="font-size:4px; font-family:Arial" x="120" y="280">STATISTICS</text><text fill="#FFFFFF" style="font-size:3px; font-family:Arial" x="120" y="285">Number: 5</text><text fill="#FFFFFF" style="font-size:3px; font-family:Arial" x="120" y="290">Weekly: 1.0</text><text fill="#FFFFFF" style="font-size:3px; font-family:Arial" x="141" y="285">Total: 85.1 km</text><text fill="#FFFFFF" style="font-size:3px; font-family:Arial" x="141" y="290">Avg: 17.0 km</text><text fill="#FFFFFF" style="font-size:3px; font-family:Arial" x="167" y="285">Min: 11.0 km</text><text fill="#FFFFFF" style="font-size:3px; font-family:Arial" x="167" y="290">Max: 20.6 km</text><polyline fill="none" points="68.09630573249888,76.98556481185369 68.70165605098009,76.08136584878957 73.03082802554127,73.68521661277919 77.65350318478886,69.72923999768682 81.72585987264756,68.68936884497816 83.57859872607514,67.64949167973828 83.96382165607065,67.19736929768987 83.67031847126782,66.94870150300267 83.9271337579703,66.45136488234857 85.88993630581535,63.85162834364746 85.48636942671146,62.9699700272904 83.26675159239676,62.653476244042395 80.58853503176942,61.11621280221152 78.93757961783558,59.82761420457973 78.86420382175129,59.35286502521194 76.86471337592229,57.06953003356466 75.48891719745006,56.45912863941339 71.74675159237813,56.662596001056954 70.07745222921949,57.47646314522717 66.88560509553645,60.66407399489253 65.85834394907579,61.2744611161761 61.32738853502087,60.89014354068786 59.56636942666955,61.36488866173022 54.20993630576413,65.27583649339795 51.8435668789316,66.428758639624 49.862420382210985,66.36093989448273 44.909554140176624,64.2811526243022 42.41477707005106,64.55243058873748 38.92942675156519,63.89684147412481 35.352356688003056,64.3037591369357 31.188280254835263,65.88620796207397 28.93197452230379,66.36093989448273 20.01681528671179,70.11353868475999 17.155159235699102,71.69593639130471 17.06343949039001,72.05762534083624 16.274649681523442,72.55494645876752 14.623694267589599,76.69170064745413 14.0,77.25682361437066 15.724331210250966,72.66797379383934 16.73324840760324,71.51509164381423 17.06343949039001,72.12544193792564 17.283566878992133,71.65072522147966 19.72331210190896,70.11353868475999 34.82038216572255,64.37157865792688 39.14955414016731,63.98726770101348 42.39643312105909,64.64285648598161 44.909554140176624,64.3037591369357 47.99133757967502,65.34365564781183 49.66063694271725,66.24790859562927 51.586751592345536,66.45136488234857 53.01757961791009,65.8636016483506 60.06165605096612,61.13881971275259 61.254012738820165,60.935357415743056 64.77605095540639,61.41010241728509 66.09681528666988,61.229247326395125 70.05910828034393,57.47646314522717 71.65503184718546,56.775633324636146 75.085350318579,56.54955860640621 76.5528662421275,56.88867057724565 77.26828025479335,57.386033644434065 80.68025477719493,61.20664042732096 83.35847133758944,62.517835880687926 85.77987261151429,63.0603967201605 86.0,63.91944803514343 83.90878980897833,66.56439605327614 83.67031847126782,67.08433852453891 84.03719745215494,67.33300613160827 81.85426751594059,68.77979266215698 77.58012738858815,69.93269234606123 72.46216560516041,74.20513849849522 62.24458598729689,79.72073900329997 60.868789808941074,79.96938914008206 57.82369426754303,82.88535145630885 56.37452229298651,83.5408713605866 55.65910828020424,83.49566316801065 56.72305732476525,83.33743440455873 58.484076433232985,82.25243341982423 60.77707006363198,79.92418004992942 63.015031847171485,79.20083306111337 72.04025477706455,74.40858578376356 76.38777070073411,70.74649943805707 76.13095541403163,71.49248603754677 76.47949044592679,70.63347089551098 77.92866242036689,69.70663416702882 81.81757961784024,68.68936884497816 83.83541401277762,67.46864286327036 82.47796178341378,68.48591509008838 77.48840764339548,69.97790394780168 73.04917197453324,73.84345386753557 63.82216560514644,78.92957719038532 60.648662420455366,80.17282990540843 59.071082802605815,81.93597356646205 57.65859872614965,82.95316397100396 56.154394904500805,83.5408713605866 58.44738853513263,82.29764192484436 60.59363057336304,80.0372027540725 62.904968152870424,79.20083306111337 72.16866242035758,74.27295428579964 75.50726114655845,71.5829084454308 72.70063694263808,74.04690156191646 70.79286624211818,75.08674173927284" stroke="#4dd2ff" stroke-linecap="round" stroke-linejoin="round" stroke-width="0.5"><title>2024-10-13 16.0km</title><desc>1728810741000</desc></polyline><polyline fill="none" points="167.94041252858005,77.00460232706973 170.37891520245466,75.26490109188308 173.42245989304502,73.84149664953293 177.69442322384566,70.15866777116025 181.81970970204566,69.09673377308354 183.81818181823473,68.03479350147245 184.2948815888958,67.62809131048562 183.72650878527202,67.13100960518932 183.8365164247807,66.7243053693237 185.87165775394533,64.0129202802782 185.5233002291061,62.97354515190818 183.28647822758649,62.657212398189586 181.25133689830545,61.73080613113416 179.32620320853312,60.03614816456684 176.83269671502057,57.14389499688696 174.43086325435434,56.48861242174462 171.80901451490354,56.82755198306404 170.01222307106946,57.641004322314984 166.10695187165402,61.391875816028914 161.28495034377556,61.05294486180355 159.90985485108104,61.32408967628726 155.12452253617812,64.75855525693623 152.00763941940386,66.45316870091483 150.10084033606108,66.47576343886612 147.5523300229106,65.21045373739616 144.78380443085916,64.39703565447417 142.5836516424315,64.73596030306362 139.28342245984823,64.03551532498386 135.32314744079486,64.37444065521413 133.47135217720643,64.96190971370379 120.8388082504971,69.86494197380671 117.59358288766816,71.51431907813821 116.12681436212733,72.82477229027427 114.42169595102314,77.02719573889044 114.0,77.32090983375383 115.74178762419615,72.73439651330409 116.8051948051434,71.51431907813821 117.02521008404437,72.03398270180332 117.59358288766816,71.42394264233008 121.33384262793697,69.61640438575705 135.52482811303344,64.35184565304371 139.33842627960257,63.99032523264759 142.4919786095852,64.69077038684918 144.9304812834598,64.39703565447417 148.06569900678005,65.36861793715798 149.93582887691446,66.40797921638296 151.5859434682643,66.5209529063286 153.40106951864436,65.86570451616717 157.89304812834598,62.4538553339371 160.07486631011125,61.23370811693894 161.59663865540642,60.98515859431063 165.72192513360642,61.3692804389284 166.9686783803627,60.66882234114746 169.18716577545274,58.13811227281985 170.80061115359422,57.189086810540175 172.45072574482765,56.691976235219045 176.2459893047344,56.78236007846135 180.99465240642894,61.391875816028914 183.12146676855627,62.54423627976212 185.74331550800707,63.19949677804834 185.98166539345402,64.08070540594053 184.3132161955582,66.06905772046593 183.78151260502636,67.15360425801191 183.87318563787267,67.60549671735498 181.98472116119228,68.75781734673365 177.52941176469903,70.09088493748277 172.3223834988894,74.33855979898362 161.9816653933376,79.85134985245531 160.62490450718906,80.19024536470533 158.86478227656335,82.2010122640495 156.53628724219743,83.51138757825538 158.809778456809,82.17841950252478 160.45989304804243,80.12246631330345 162.0916730328463,79.760977607948 173.0557677615434,73.79630902224744 177.34606569900643,70.0005077860842 182.20473644009326,68.55446718419262 184.0381970970193,67.37955062967376 183.67150496551767,67.13100960518932 183.96485867071897,66.47576343886612 185.92666157369968,64.08070540594053 185.7249809014611,63.154306475495105 183.3598166538868,62.679807613327284 180.6646294881357,61.27889890232473 177.14438502665143,57.36985395163356 175.84262796025723,56.71457220027514 174.02750190976076,56.624188322981354 171.0939648586791,57.098703171825036 169.315508021391,58.11551648673776 167.20702826580964,60.51065400573134 165.5569136745762,61.45966193021741 161.22994652402122,61.05294486180355 159.21313980128616,61.640424776182044 160.881588999182,60.96256316608924 165.7585943468148,61.30149429079029 166.69365928182378,60.804395089216996 169.33384262793697,58.04772911134933 170.6172650877852,57.189086810540175 172.65240641706623,56.57899636727234 175.82429335359484,56.51120841241209 177.2727272727061,57.39244983145909 179.74789915955625,60.4428675336967 181.41634835745208,61.70821079664165 183.39648586697876,62.63461718017061 185.37662337662186,62.815378844650695 185.77998472121544,63.10911616169324 186.0,64.05811036683735 184.16653934307396,66.11424729017017 183.76317799836397,67.06322562979767 184.1298701298656,67.37955062967376 181.69136745599099,68.80300624055963 177.566080977791,69.84234766183363 173.1657754010521,73.75112138375698 162.16501145914663,79.69319839471427 160.80825057299808,80.00950117102184 160.07486631011125,80.61951209652761 160.84491978609003,79.94172205148789 161.79831932776142,79.82875679557037" stroke="#4dd2ff" stroke-linecap="round" stroke-linejoin="round" stroke-width="0.5"><title>2024-10-06 17.8km</title><desc>1728199446000</desc></polyline><polyline fill="none" points="67.2298697847873,157.45137145889748 69.92771724693011,155.49438044642739 72.93170342815574,153.93820434765075 76.77757108700462,150.47212936871802 82.07759766152594,148.93949076131685 83.91442997613922,147.80768805956177 84.10576667555142,147.61905361208483 83.53175657731481,146.93525214973488 85.75126229075249,143.89348440457252 85.40685623174068,142.8323910287436 83.07254849851597,142.40795199776767 80.41296837630216,141.04030858706392 78.55700239178259,139.41327154138708 76.3183630083222,136.7486731432873 74.76853574276902,136.13557434971153 73.23784214723855,136.30063960670668 72.1854903002968,136.01767050582566 69.27717246883549,137.03164114132232 66.21578527765814,140.42722382109787 65.16343343083281,141.063888730263 64.5320223227609,141.22894965024898 60.552218974218704,140.6630258912628 59.15546106826514,140.8516673339618 55.7305341482861,142.92671068300842 52.65001328731887,145.30826623545727 50.43050757376477,146.3929250795045 48.364071219810285,146.36934560614463 43.9250597928185,144.36507953381806 42.31783151743002,144.22360111952003 40.69146957213525,144.60087665381434 37.63008238107432,143.75200563456747 36.386393834720366,143.72842582923477 32.368323146482,144.41223898154567 26.762157852877863,146.4400840174494 16.429976082989015,150.56644518175744 14.133935689576901,151.9104403647798 14.0,152.33485789582483 14.287005049176514,151.36812767780793 16.506510762730613,150.00054959242698 32.617060855729505,143.98780352529138 35.12357161846012,143.70484602093347 36.252458145143464,143.94064397085458 38.01275578001514,143.5633671086689 40.27052883338183,144.17644162442593 42.93010895559564,143.8463248264161 46.12543183634989,144.78951413644245 48.59367525903508,146.0156531494722 50.44964124367107,145.89775551571802 58.428381610428914,140.5922853013617 59.672070156782866,140.30932267478784 64.55115599266719,140.7573466363683 65.75657719909213,140.0027793476911 68.95190007972997,136.77225382608594 71.32447515288368,135.89976658784144 73.33351049700286,136.01767050582566 74.95987244229764,135.6403777072992 77.12197714601643,136.7486731432873 78.61440340161789,138.6586988458148 78.30826468241867,138.98882477366715 80.79564177524298,141.34685021852783 83.12994950835127,142.45511193752463 84.60324209404644,142.6909114584414 85.42598990164697,143.63410657808708 85.8660643104231,143.61052675788233 83.6274249269627,146.86451392510207 83.81876162637491,147.43041897486546 81.98192931176163,148.77443662591395 76.98804145632312,150.2363396287692 71.76454956154339,154.66913715323608 60.858357693301514,160.42218626808608 59.59553547715768,160.6579632062494 57.37602976348717,163.01571629162936 54.94605368061457,164.35962229271536 54.62078129162546,164.28889063786482 55.42439542920329,164.1002727613377 57.43343077332247,162.82709713515942 58.31357959075831,161.60106799598725 59.69120382680558,160.49291938066017 62.025511559913866,159.73843147167645 69.35370714857709,155.87163331432384 73.33351049700286,153.27800452700467 73.60138187627308,153.39589752258325 75.70608557004016,151.7925464357686 76.06962529907469,150.87297124654287 76.6627690672176,150.3778135083412 77.84905660385266,149.71760115760844 81.86712729209103,148.75085745182878 83.8378952962812,147.35968093702104 83.55089024710469,147.07672851881944 83.684825936798,146.65229909136542 85.78952963056508,143.98780352529138 85.69386128091719,143.16250961110927 85.11985118268058,142.76165125698026 82.99601381877437,142.47869190294296 81.14004783413839,141.55907105458027 78.97794313041959,139.81413705128944 76.81583842681721,137.14954434781976 75.80175391968805,136.4657047183864 72.85516874829773,136.18273586660507 70.34865798568353,136.6307696848089 69.10496943932958,137.2202862362319 65.96704756852705,140.52154468471417 64.76162636198569,141.2053695278155 60.475684294477105,140.733766454563 58.122242891346104,141.2053695278155 51.57852777047083,145.9449145781109 50.39224023395218,146.4400840174494 48.24926920013968,146.3929250795045 43.40845070418436,144.29434034004225 40.50013287272304,144.62445634955657 36.65426521387417,143.86990461702226 32.02391708747018,144.53013754893618 19.032155195367523,149.57612678021542 32.40659048629459,144.29434034004225 36.8647355834255,143.70484602093347 40.614934892510064,144.60087665381434 43.083178315195255,144.1528618723969 45.76189210743178,144.97815142929903 48.7276109487284,146.3929250795045 50.66011161310598,146.25144819472916 58.58145097002853,140.89882766504888 59.59553547715768,140.6630258912628 64.7807600320084,141.04030858706392 66.12011692801025,140.19142145443766 68.33962264168076,137.76263982709497 69.64071219763719,136.86657652769645 71.32447515288368,136.30063960670668 74.92160510236863,136.01767050582566 76.29922933829948,136.53644686461485 79.16927982994821,139.83771734866605 81.40791921352502,141.58265113261587 82.97688014886808,142.3607920461218 85.61732660117559,142.85597094672266 86.0,143.68126620960538 84.25883603515103,145.5440621698508 83.53175657731481,147.1003079033253 83.684825936798,147.5247363171802 83.01514748868067,148.09063937522296 80.94871113472618,149.05738648331317 77.00717512622941,150.09486564253166 71.9750199309783,154.38619575984194 69.6024448578246,155.65942866950354" stroke="#ff0000" stroke-linecap="round" stroke-linejoin="round" stroke-width="0.5"><title>2024-09-22 20.6km</title><desc>1726992504000</desc></polyline><polyline fill="none" points="166.47974582994357,157.1535876543203 168.0428911835188,155.93206904463295 168.6528991262894,155.8615965735371 171.7982525813859,153.93533874247805 176.56393963471055,149.87133941320644 180.71961874503177,148.74374012342014 183.04527402704116,147.56915029560332 183.38840349484235,147.21677190774062 182.83558379660826,146.7469330237509 182.9308975378517,146.34756904364622 186.0,142.21292709615955 182.64495631458703,142.18943455103727 180.62430500402115,141.20274498830258 177.6695790309459,138.7594912689092 175.80142970615998,136.43367199336353 174.65766481333412,135.7993526216742 170.13979348691646,136.1047659212345 166.97537728352472,138.1721659009345 165.12629070691764,140.38049970653083 163.8109610802494,140.92083272778837 159.8459094519494,140.3335141526477 158.09213661646936,140.68590551921807 150.9054805401247,145.59582276608853 149.4757744241506,146.13614070870972 147.0929308977211,145.78375961899292 145.87291501194704,144.86756567606062 142.70849880867172,143.71644384269894 140.00158856238704,144.20978263950383 137.40905480540823,143.38755058795505 135.65528196992818,143.31707338665728 130.75615567911882,144.37422861567757 116.84034948376939,149.75388147127524 114.20969023031648,151.2338461450563 114.0,150.88147466667579 115.86814932490233,149.6599150645634 122.3304209690541,147.099312297476 129.89833200955763,144.30375178639952 129.91739475773647,144.6326434287912 132.6433677522,143.73993619588146 137.33280381257646,143.36405819049105 140.00158856238704,144.0923211393383 143.07069102465175,143.85739791749802 144.36695790314116,144.13930574820552 147.26449563144706,145.73677542347286 149.55202541698236,145.99518835257913 151.05798252590466,145.43137786477746 157.95869737886824,140.5214562974288 159.50277998414822,140.26303579953674 163.23907863383647,140.80336916049419 164.38284352666233,140.59193455310015 165.20254169974942,140.16906462075713 168.74821286741644,136.5746315613942 170.88324066717178,135.8698326581216 174.27640984905884,135.75236591580324 175.26767275622115,135.94031266808452 176.14455917407759,136.64511130549363 178.73709293093998,139.76968658382248 180.4336775218835,141.10877428205276 182.30182684678584,142.00149408355355 183.92216044478118,142.23641963831324 184.76092136616353,143.22310374355584 185.2184273232706,143.0821491903771 185.2184273232706,143.52850491087884 184.76092136616353,143.71644384269894 183.02621127886232,146.39455308565812 182.87370929319877,146.79391696531093 183.21683876088355,147.00534455610614 181.19618745031767,148.4148557157605 176.52581413823646,149.68340667069424 170.55917394754943,154.56959656199615 168.15726767282467,155.57970642363944 160.34154090541415,159.92546565788507 159.04527402704116,160.18385897039843 156.89118347899057,162.4858927156456 154.43208895949647,163.87179731891956 156.83399523445405,162.36844270060828 158.8927720412612,160.13687839468184 160.703733121627,159.64358163675934 171.70293884037528,153.7004278927925 176.3351866560988,149.68340667069424 180.98649722000118,148.3913639501843 182.81652104842942,147.26375573118275 183.1596505162306,146.9583606677188 182.83558379660826,146.72344104858348 183.12152501987293,146.04217248311033 185.14217633043882,143.36405819049105 184.7990468625212,142.49483740748838 182.43526608427055,142.11895689787343 180.09054805408232,140.9443254324433 177.74583002377767,138.82997018902097 176.01111993647646,136.5746315613942 175.19142176338937,136.05777929224132 173.74265289923642,135.75236591580324 170.9404289118247,135.94031266808452 168.40508339949884,136.99750962741382 165.46942017471883,140.09858620569867 164.09690230339766,140.8268618797738 159.69340746616945,140.35700693108083 158.09213661646936,140.66241278209782 149.8760921366047,146.08915660183993 147.95075456716586,146.04217248311033 145.5488482923247,144.82058125030017 142.4416203337023,143.8339055791148 139.83002382842824,144.20978263950383 137.23749007156584,143.50501253105176 135.8840349484235,143.52850491087884 132.75774424150586,143.90438258548966 130.20333598100115,144.70312013397051 130.10802223987412,144.28025950412848 131.76648133445997,143.5989820324321 136.7037331215106,143.10564162326045 137.1803018269129,143.50501253105176 139.92533756955527,144.1627980482881 142.59412231936585,143.8339055791148 145.28196981735528,144.67962790187448 147.81731532968115,145.94820421020268 149.41858617961407,146.06566454393032 151.0770452740835,145.43137786477746 157.17712470225524,141.20274498830258 159.3693407465471,144.6326434287912 159.78872120729648,144.65613566685352 160.3606036537094,145.68979121613665 161.80937251786236,145.99518835257913 162.41938046063296,147.16978807248233 164.44003177131526,149.2370656497951 164.6306592534529,150.29418739298126 165.66004765685648,151.11638905943255 164.89753772842232,151.68018239739467 166.25099285156466,156.66028302288032 160.1890389197506,159.9959365966788 159.02621127886232,160.23083953432797 155.91898332012352,163.16710134707682 153.76489277207293,163.98924638918834 153.82208101660945,164.2476340841822 155.53772835584823,163.63689895678544 158.39714058779646,161.4053497943678 156.31930103257764,163.3550205326028 153.68864177924115,164.20065452985 153.7458300238941,163.91877695584844 155.08022239874117,163.58991924893053 156.92930897534825,162.34495268881437 159.02621127886232,160.06640750898805 160.2652899126988,159.87848501716508 165.64098490867764,157.03613428868994" stroke="#4dd2ff" stroke-linecap="round" stroke-linejoin="round" stroke-width="0.5"><title>2024-08-22 19.7km</title><desc>1724317734000</desc></polyline><polyline fill="none" points="66.53361792967189,228.99030550956377 66.84098185715266,228.20122218655888 72.34791889018379,225.3920654329704 79.18676627555396,219.4895775190962 85.10352187848184,218.03760735955439 86.0,217.53257229266455 85.76947705447674,217.2484896213282 78.8794023480732,219.36331957762013 72.42475987202488,224.91860895324498 69.24866595526692,226.71773882766138 67.99359658488538,226.9386837130878 58.84951974393334,232.33599125727778 55.41728922096081,233.47225174980122 52.471718249842525,236.53381693543633 49.577374599757604,238.3013014938042 46.990394877269864,238.3013014938042 46.7598719317466,237.57537184117245 44.91568836721126,237.4491229916748 43.68623265752103,239.05879106841167 42.379935965989716,239.69003063542186 40.740661686169915,239.27972509729443 35.438633938203566,239.5953448015207 28.061899679829367,241.01562856213422 22.73425827117171,241.52061640835018 20.121664887992665,242.08872652167338 18.764140875195153,242.8462046738714 17.97011739597656,242.37278109643376 14.0,242.18341141566634 14.435432230588049,241.61530151646002 18.738527214620262,242.0256032391917 18.764140875195153,242.78308158175787 19.891141942469403,241.99404159205733 23.01600853796117,241.23656086978735 34.772678762092255,239.8794021962094 35.51547492004465,239.4690969674557 40.279615795239806,239.12191509653348 42.17502668092493,239.53222089234623 43.68623265752103,238.83785684523173 45.04375667020213,237.2597495985392 46.862326574278995,237.48068521003006 47.144076841068454,238.14349087822484 49.88473852723837,237.92255584985833 52.26680896489415,236.59694159807987 55.41728922096081,233.3144380999438 57.38954108860344,232.84099655528553 71.47705442912411,225.4236291665875 78.39274279633537,219.45801303966437 85.69263607275207,217.1537953260995 78.67449306312483,219.4895775190962 71.78441835648846,225.20268294826383 57.338313767453656,233.03037328025675 55.16115261486266,233.59850259832456 53.163287086528726,235.902569435857 49.09071504813619,238.49067410166026 52.70224119536579,236.2497557569004 55.03308431163896,233.50381446784013 58.414087513345294,232.3675541181874 65.58591248677112,228.57998249103548 67.8399146212032,226.9702472522331 71.73319103533868,225.3920654329704 78.23906083253678,219.71052876391332 85.12913553894032,217.46944283798803 78.7001067235833,219.45801303966437 72.06616862327792,225.1711191868526 68.32657417282462,227.19119191548089 67.68623265740462,227.0333743187075 65.25293489871547,228.83248904324137 56.954108858131804,233.21974986238638 55.237993596703745,233.53537718200823 57.64567769493442,232.6516196874727 57.59445037355181,232.14661400881596 60.181430096155964,229.9372022243333 60.48879402363673,228.4537291196757" stroke="#4dd2ff" stroke-linecap="round" stroke-linejoin="round" stroke-width="0.5"><title>2024-07-03 11.0km</title><desc>1719998343000</desc></polyline></svg>