<?xml version="1.0" encoding="utf-8" ?>
<svg baseProfile="full" height="200mm" version="1.1" viewBox="0,0,200,200" width="200mm" xmlns="http://www.w3.org/2000/svg" xmlns:ev="http://www.w3.org/2001/xml-events" xmlns:xlink="http://www.w3.org/1999/xlink"><defs /><rect fill="#1a1a1a" height="200" width="200" x="0" y="0" /><text alignment-baseline="middle" fill="#e1ed5e" style="dominant-baseline: central; font-size:9.0px; font-family:Arial;" text-anchor="middle" x="100.0" y="100.0">2024</text><line stroke="#e1ed5e" stroke-width="0.3" x1="100.0" x2="100.0" y1="15.0" y2="10.0" /><path d="M 100.0 14.0 a86.0,86.0 0 0,1 42.35913384403234,11.155469271406648" fill="none" id="id25" stroke="none" /><text fill="#e1ed5e" style="font-size:6.75px; font-family:Arial;" text-anchor="middle"><textPath startOffset="22.145653131862478" xlink:href="#id25">January</textPath></text><line stroke="#e1ed5e" stroke-width="0.3" x1="143.13028292997686" x2="145.6673583964461" y1="26.7553504044142" y2="22.446841604673864" /><path d="M 143.63769802327073 25.89364864446614 a86.0,86.0 0 0,1 29.32050498858742,28.57503671076993" fill="none" id="id26" stroke="none" /><text fill="#e1ed5e" style="font-size:6.75px; font-family:Arial;" text-anchor="middle"><textPath startOffset="20.669276256404974" xlink:href="#id26">February</textPath></text><line stroke="#e1ed5e" stroke-width="0.3" x1="172.87174338648825" x2="177.1583165268699" y1="56.24261187166439" y2="53.66864786411523" /><path d="M 173.72905801456457 55.72781907015455 a86.0,86.0 0 0,1 12.242430191666344,42.057860355516425" fill="none" id="id27" stroke="none" /><text fill="#e1ed5e" style="font-size:6.75px; font-family:Arial;" text-anchor="middle"><textPath startOffset="22.145653131862474" xlink:href="#id27">March</textPath></text><path d="M 120.05942366710727 93.78553927170692 l 9.10177538981623 -2.8197532818705437 a30.528553080992104,30.528553080992104 0 0,0 0.150787327167862,0.5019219712214826 l -9.14883903698772 2.6630937070583376" fill="#ff3605" stroke="none" /><path d="M 120.35273937422433 94.82641323984039 l 9.41750047338683 -2.3938917934858024 a30.716997122833774,30.716997122833774 0 0,0 0.12551911910011107,0.5121608394328644 l -9.457207119003233 2.231875129444843" fill="#ff3905" stroke="none" /><path d="M 120.592083275326 95.88100663000786 l 9.570272274677446 -1.914322486042486 a30.759853584558925,30.759853584558925 0 0,0 0.09912539718690899,0.5186659644877677 l -9.601723964146512 1.7497539565214035" fill="#ff3a05" stroke="none" /><path d="M 120.7213421655516 96.59031103205396 l 9.705769127618584 -1.5970806164713232 a30.836291011054037,30.836291011054037 0 0,0 0.08146435301350018,0.5230595849304149 l -9.73175497277035 1.430232849609467" fill="#ff3b05" stroke="none" /><path d="M 120.93736805541906 98.37931529534042 l 10.114038374821506 -0.7828905358603891 a31.144293461769617,31.144293461769617 0 0,0 0.03668506916937675,0.5333928544567914 l -10.125987405155948 0.6091542572492635" fill="#ff3f05" stroke="none" /><line stroke="#e1ed5e" stroke-width="0.3" x1="184.99686870605535" x2="189.99668451229388" y1="99.2704041080226" y2="99.22748670261217" /><path d="M 185.99683186730306 99.26182062694052 a86.0,86.0 0 0,1 -10.086455211305974,41.156179273409016" fill="none" id="id28" stroke="none" /><text fill="#e1ed5e" style="font-size:6.75px; font-family:Arial;" text-anchor="middle"><textPath startOffset="21.40746469413373" xlink:href="#id28">April</textPath></text><path d="M 120.98066250479742 100.90099992219065 l 12.275658805730238 0.5271696080270478 a33.28697305728021,33.28697305728021 0 0,0 -0.02941682436881002,0.5706785339871275 l -12.264800391904854 -0.7378199353909061" fill="#ff6008" stroke="none" /><path d="M 120.7213421655516 103.40968896794604 l 12.37405170243863 2.036145498757354 a33.540456292604915,33.540456292604915 0 0,0 -0.09836167248446721,0.5673239882931319 l -12.337275212461929 -2.248262519971074" fill="#ff6409" stroke="none" /><path d="M 119.58574465831526 107.57618678355244 l 11.865957546366715 4.590007288735422 a33.72277938985116,33.72277938985116 0 0,0 -0.21348337980532778,0.5381175747747861 l -11.785415491595263 -4.793025880723772" fill="#ff6609" stroke="none" /><line stroke="#e1ed5e" stroke-width="0.3" x1="174.33088141563837" x2="178.70328620479359" y1="141.23008692659167" y2="143.65538615756765" /><path d="M 175.20536237346943 141.71514677278685 a86.0,86.0 0 0,1 -30.301960400862466,31.631185727798858" fill="none" id="id29" stroke="none" /><text fill="#e1ed5e" style="font-size:6.75px; font-family:Arial;" text-anchor="middle"><textPath startOffset="22.145653131862474" xlink:href="#id29">May</textPath></text><line stroke="#e1ed5e" stroke-width="0.3" x1="143.1302829299769" x2="145.66735839644613" y1="173.24464959558577" y2="177.55315839532614" /><path d="M 143.63769802327073 174.10635135553383 a86.0,86.0 0 0,1 -40.68552437913181,11.842963189579606" fill="none" id="id30" stroke="none" /><text fill="#e1ed5e" style="font-size:6.75px; font-family:Arial;" text-anchor="middle"><textPath startOffset="21.407464694133747" xlink:href="#id30">June</textPath></text><path d="M 106.72888874123015 119.89276391827305 l 1.948981272877478 5.7618168219852475 a27.08252094876288,27.08252094876288 0 0,0 -0.4416736967681047,0.1451869168820113 l -1.849784838461639 -5.794424660269278" fill="#ff0000" stroke="none" /><path d="M 104.29559338865022 120.5559693870025 l 4.9321425706414574 23.602087656228417 a45.11191763567186,45.11191763567186 0 0,0 -0.7593914966022822,0.15189956731969795 l -4.526254588508216 -23.683276620210975" fill="#f8ff18" stroke="none" /><path d="M 102.875027216393 120.80226474461374 l 1.9087381712011358 13.810678569954941 a34.941955528863694,34.941955528863694 0 0,0 -0.5948820975273815,0.07701939747942352 l -1.671378251782979 -13.84140956363476" fill="#ff780b" stroke="none" /><path d="M 102.15924093988457 120.88869738790638 l 3.107096055163918 30.05833580338955 a51.218497599406646,51.218497599406646 0 0,0 -0.8753495786281235,0.08289651519360927 l -2.5906469131507794 -30.107244074088342" fill="#abff21" stroke="none" /><path d="M 101.80034050326958 120.92268563240118 l 1.2600076780956233 14.643199158897643 a35.69730931007443,35.69730931007443 0 0,0 -0.6109866556733041,0.047294231298787216 l -1.0084520276470834 -14.662671157191483" fill="#ff830c" stroke="none" /><line stroke="#e1ed5e" stroke-width="0.3" x1="101.45913802915013" x2="101.54496967792366" y1="184.9874750549273" y2="189.98673829345242" /><path d="M 101.47630435890484 185.9873277026323 a86.0,86.0 0 0,1 -42.54439059252881,-10.42667462771756" fill="none" id="id31" stroke="none" /><text fill="#e1ed5e" style="font-size:6.75px; font-family:Arial;" text-anchor="middle"><textPath startOffset="22.145653131862474" xlink:href="#id31">July</textPath></text><path d="M 99.63950707515114 120.99690560180557 l -0.5791205484762315 33.730868625285034 a54.735839678684535,54.735839678684535 0 0,0 -0.9393365649217237,-0.02419397785619232 l 1.158070427468699 -33.7159569300788" fill="#81ff25" stroke="none" /><path d="M 96.76829788921471 120.74984581791261 l -2.322120590149701 14.909679965675464 a36.08942678547007,36.08942678547007 0 0,0 -0.6113248099767173,-0.10059326484529386 l 2.577722903179482 -14.867620702334502" fill="#ff890c" stroke="none" /><path d="M 94.30408787586889 120.21278271476187 l -3.885605978215104 13.788644845854675 a35.32566440005683,35.32566440005683 0 0,0 -0.5822678589546278,-0.16948968767899314 l 4.1217338495513385 -13.719911463873165" fill="#ff7e0b" stroke="none" /><path d="M 90.28995756902619 118.62028667847754 l -8.699594512939067 16.682619563093905 a39.81469479360436,39.81469479360436 0 0,0 -0.6033086275890216,-0.32122786269756615 l 8.98469195631465 -16.530821232673766" fill="#ffbe11" stroke="none" /><line stroke="#e1ed5e" stroke-width="0.3" x1="58.13341422392154" x2="55.67067388415222" y1="173.97424548756322" y2="178.32567169271397" /><path d="M 57.64086615596768 174.84453072859336 a86.0,86.0 0 0,1 -31.369924170532247,-30.572349798747897" fill="none" id="id32" stroke="none" /><text fill="#e1ed5e" style="font-size:6.75px; font-family:Arial;" text-anchor="middle"><textPath startOffset="22.145653131862474" xlink:href="#id32">August</textPath></text><path d="M 88.1277618465304 117.32195027204791 l -10.123718181247312 14.770807377423154 a38.90716114838574,38.90716114838574 0 0,0 -0.5476737059026754,-0.38231878120355556 l 10.375786978323752 -14.59484378041447" fill="#ffb210" stroke="none" /><path d="M 84.3458050057657 113.99807769240083 l -7.64370681871289 6.835049770728281 a31.2539826067129,31.2539826067129 0 0,0 -0.35419533655372654,-0.4030092742570014 l 7.75991321922521 -6.702828218659979" fill="#ff4106" stroke="none" /><path d="M 83.8745106332314 113.45245675266167 l -46.28199758448595 38.610088461262876 a81.27240024585804,81.27240024585804 0 0,0 -0.88452693258581,-1.0789790356872322 l 46.93797133631039 -37.80990714387715" fill="#49edff" stroke="none" /><path d="M 82.576782715395 111.72311816256416 l -12.23516391401645 8.232364319366729 a35.74689995523238,35.74689995523238 0 0,0 -0.3381921621643068,-0.5120660377873533 l 12.374680515101483 -8.021118403240315" fill="#ff840c" stroke="none" /><line stroke="#e1ed5e" stroke-width="0.3" x1="26.387840678322732" x2="22.057713659400548" y1="142.50000000000003" y2="145.00000000000006" /><path d="M 25.521815274538298 143.00000000000003 a86.0,86.0 0 0,1 -11.493303480769221,-40.785679425670985" fill="none" id="id33" stroke="none" /><text fill="#e1ed5e" style="font-size:6.75px; font-family:Arial;" text-anchor="middle"><textPath startOffset="21.40746469413373" xlink:href="#id33">September</textPath></text><path d="M 81.63589988554817 110.18625677009913 l -13.337611432815374 7.398148229847125 a36.252031863445524,36.252031863445524 0 0,0 -0.29718837481835214,-0.5467931366415062 l 13.462645157249057 -7.168100259731032" fill="#ff8c0c" stroke="none" /><path d="M 81.1358732173502 109.22738970284198 l -19.464585245613282 9.5211040264347 a42.66844481419784,42.66844481419784 0 0,0 -0.3161950020800959,-0.6607259433286741 l 19.62515950565329 -9.185565581040922" fill="#ffe515" stroke="none" /><path d="M 80.5471966667186 107.91128576633889 l -27.858557186280276 11.329832680798493 a51.074313243632645,51.074313243632645 0 0,0 -0.323327946562083,-0.814997638783668 l 28.04894380780848 -10.849934024801259" fill="#acff20" stroke="none" /><path d="M 79.48165901384964 104.47187691870673 l -14.8164443635275 3.2291750883409116 a36.16425386653321,36.16425386653321 0 0,0 -0.12699213649747154,-0.6077033448113145 l 14.869694210849339 -2.974355292244188" fill="#ff8a0c" stroke="none" /><path d="M 79.2786578344484 103.40968896794605 l -62.16402649665483 10.22906690383814 a84.0,84.0 0 0,0 -0.2219140314469299,-1.4248472722742 l 62.33046202024003 -9.16043144963249" fill="#4dd2ff" stroke="none" /><path d="M 79.0935383218832 101.97986365728391 l -18.047520808104267 1.7091189844641108 a39.12826784395057,39.12826784395057 0 0,0 -0.05758633376995202,-0.6692404886759394 l 18.074200764571962 -1.3990574484125093" fill="#ffb510" stroke="none" /><path d="M 79.00696218219943 100.54070618675478 l -15.188631865388027 0.39120527906600805 a36.19366906025828,36.19366906025828 0 0,0 -0.010666047460697782,-0.6212437921507422 l 15.193109344447391 -0.13041457094621348" fill="#ff8b0c" stroke="none" /><line stroke="#e1ed5e" stroke-width="0.3" x1="15.003131293944662" x2="10.003315487706104" y1="100.72959589197737" y2="100.7725132973878" /><path d="M 14.003168132696942 100.73817937305945 a86.0,86.0 0 0,1 10.791469493833604,-42.45332614584628" fill="none" id="id34" stroke="none" /><text fill="#e1ed5e" style="font-size:6.75px; font-family:Arial;" text-anchor="middle"><textPath startOffset="22.145653131862435" xlink:href="#id34">October</textPath></text><path d="M 79.01933749520258 99.09900007780938 l -18.280084249835138 -0.785025472049483 a39.29693267115658,39.29693267115658 0 0,0 0.034728029028992274,-0.6737144854948857 l 18.263914631349575 1.0987117509210806" fill="#ffb711" stroke="none" /><line stroke="#e1ed5e" stroke-width="0.3" x1="26.387840678322718" x2="22.05771365940052" y1="57.49999999999999" y2="54.99999999999999" /><path d="M 25.521815274538284 56.99999999999999 a86.0,86.0 0 0,1 29.574782752854787,-30.34633250058573" fill="none" id="id35" stroke="none" /><text fill="#e1ed5e" style="font-size:6.75px; font-family:Arial;" text-anchor="middle"><textPath startOffset="21.40746469413373" xlink:href="#id35">November</textPath></text><line stroke="#e1ed5e" stroke-width="0.3" x1="56.869717070023135" x2="54.33264160355391" y1="26.7553504044142" y2="22.446841604673864" /><path d="M 56.362301976729285 25.89364864446614 a86.0,86.0 0 0,1 42.16139366436587,-11.88097634709845" fill="none" id="id36" stroke="none" /><text fill="#e1ed5e" style="font-size:6.75px; font-family:Arial;" text-anchor="middle"><textPath startOffset="22.145653131862474" xlink:href="#id36">December</textPath></text></svg>