<?xml version="1.0" encoding="utf-8" ?>
<svg baseProfile="full" height="200mm" version="1.1" viewBox="0,0,200,200" width="200mm" xmlns="http://www.w3.org/2000/svg" xmlns:ev="http://www.w3.org/2001/xml-events" xmlns:xlink="http://www.w3.org/1999/xlink"><defs /><rect fill="#1a1a1a" height="200" width="200" x="0" y="0" /><rect fill="#1a1a1a" height="200" width="180" x="10" y="0" /><text alignment-baseline="middle" fill="#e1ed5e" style="dominant-baseline: central; font-size:9.0px; font-family:Arial;" text-anchor="middle" x="100.0" y="100.0">2025</text><line stroke="#e1ed5e" stroke-width="0.3" x1="100.0" x2="100.0" y1="15.0" y2="10.0" /><path d="M 100.0 14.0 a86.0,86.0 0 0,1 42.46469731375804,11.215312516191453" fill="none" id="id37" stroke="none" /><text fill="#e1ed5e" style="font-size:6.75px; font-family:Arial;" text-anchor="middle"><textPath startOffset="22.20632615414155" xlink:href="#id37">January</textPath></text><line stroke="#e1ed5e" stroke-width="0.3" x1="143.23703022742887" x2="145.7803849466894" y1="26.81831364943548" y2="22.513508569990506" /><path d="M 143.74570117128098 25.957352633546492 a86.0,86.0 0 0,1 28.547481713284135,27.462654790039103" fill="none" id="id38" stroke="none" /><text fill="#e1ed5e" style="font-size:6.75px; font-family:Arial;" text-anchor="middle"><textPath startOffset="19.985693538727396" xlink:href="#id38">February</textPath></text><path d="M 111.60114157652 82.49532879139004 l 11.869525058782552 -17.909628305619794 a42.485818838632255,42.485818838632255 0 0,0 0.6061215180165872,0.409255954632955 l -12.176051271205681 17.70266043868817" fill="red" stroke="none" /><path d="M 113.6212207817346 84.01681056812373 l 13.813236228345584 -16.208501047201153 a42.29603252479672,42.29603252479672 0 0,0 0.5500623226266735,0.47700862577771574 l -14.090192349619022 15.968327428003768" fill="red" stroke="none" /><path d="M 117.45458315368197 88.32363383020206 l 17.10896274913765 -11.445160969210729 a41.58417634889782,41.58417634889782 0 0,0 0.39287811921384425,0.5983803293811316 l -17.303437503709418 11.148962575851924" fill="red" stroke="none" /><line stroke="#e1ed5e" stroke-width="0.3" x1="172.23445277983987" x2="176.4835382374775" y1="55.19839476539836" y2="52.563006222186495" /><path d="M 173.08426987136738 54.67131705675599 a86.0,86.0 0 0,1 12.851231095245387,41.99856678651699" fill="none" id="id39" stroke="none" /><text fill="#e1ed5e" style="font-size:6.75px; font-family:Arial;" text-anchor="middle"><textPath startOffset="22.20632615414155" xlink:href="#id39">March</textPath></text><path d="M 117.84615892207809 88.93136811851018 l 5.426492243257068 -3.3656455324997343 a27.385482590733808,27.385482590733808 0 0,0 0.2450142635765016,0.402739027156906 l -5.483622305119794 3.271738732135747" fill="red" stroke="none" /><line stroke="#e1ed5e" stroke-width="0.3" x1="184.98032266829074" x2="189.97916517819016" y1="98.17113171792111" y2="98.06355123074" /><path d="M 185.9800911702706 98.14961562048488 a86.0,86.0 0 0,1 -9.607161424134198,41.387399972396054" fill="none" id="id40" stroke="none" /><text fill="#e1ed5e" style="font-size:6.75px; font-family:Arial;" text-anchor="middle"><textPath startOffset="21.466115282336823" xlink:href="#id40">April</textPath></text><line stroke="#e1ed5e" stroke-width="0.3" x1="174.80103733775053" x2="179.2010983576182" y1="140.37084112569926" y2="142.7455964860345" /><path d="M 175.68104954172406 140.8457921977663 a86.0,86.0 0 0,1 -30.038265399797805,32.042727171017184" fill="none" id="id41" stroke="none" /><text fill="#e1ed5e" style="font-size:6.75px; font-family:Arial;" text-anchor="middle"><textPath startOffset="22.206326154141568" xlink:href="#id41">May</textPath></text><line stroke="#e1ed5e" stroke-width="0.3" x1="143.8653032363475" x2="146.44561519142675" y1="172.8068346515853" y2="177.08958963109032" /><path d="M 144.38136562736335 173.6633856474863 a86.0,86.0 0 0,1 -40.68145358897372,12.25698825130547" fill="none" id="id42" stroke="none" /><text fill="#e1ed5e" style="font-size:6.75px; font-family:Arial;" text-anchor="middle"><textPath startOffset="21.466115282336833" xlink:href="#id42">June</textPath></text><path d="M 101.62511606390274 120.93702456842531 l 0.9141220726823327 11.777002713472282 a32.81242617233642,32.81242617233642 0 0,0 -0.5634944184255513,0.038861874254437115 l -0.711264893477851 -11.790992932243004" fill="red" stroke="none" /><line stroke="#e1ed5e" stroke-width="0.3" x1="102.19456741930631" x2="102.32365962044197" y1="184.97166512339345" y2="189.96999836594603" /><path d="M 102.22038585953345 185.97133177190398 a86.0,86.0 0 0,1 -42.740103519485714,-10.115201625700543" fill="none" id="id43" stroke="none" /><text fill="#e1ed5e" style="font-size:6.75px; font-family:Arial;" text-anchor="middle"><textPath startOffset="22.20632615414155" xlink:href="#id43">July</textPath></text><path d="M 99.81925306533755 120.99922214144158 l -0.10592743461447138 12.306674713440936 a33.30713058043387,33.30713058043387 0 0,0 -0.5732637907513057,-0.009869256038225993 l 0.31775091525844507 -12.30302798012355" fill="red" stroke="none" /><path d="M 99.09653310690486 120.98055641714683 l -0.35974245776949343 8.354038192831862 a29.361780238873507,29.361780238873507 0 0,0 -0.5047596666121131,-0.026090309193482927 l 0.5034901927950954 -8.346608076876178" fill="red" stroke="none" /><path d="M 98.37488393609728 120.93702456842531 l -0.9871665204367936 12.71806374363014 a33.75631777301392,33.75631777301392 0 0,0 -0.578929983717769,-0.04995251500549767 l 1.2059408218961045 -12.69918697634598" fill="red" stroke="none" /><path d="M 95.86986931433489 120.58985236759428 l -2.685995634627832 13.390436716431353 a34.657172767670204,34.657172767670204 0 0,0 -0.5839049356151738,-0.12236295645951104 l 2.916092031672393 -13.342217779245301" fill="red" stroke="none" /><path d="M 92.7421414339146 119.70592522655815 l -4.451225910741441 12.085593038898153 a33.879245754714034,33.879245754714034 0 0,0 -0.5455038994214084,-0.2062628978479813 l 4.658600030923132 -12.007181890943539" fill="red" stroke="none" /><path d="M 90.7491055286396 118.85261126421891 l -5.005425351228101 10.200671799998696 a32.36256960893994,32.36256960893994 0 0,0 -0.49799228126064743,-0.24970366797426388 l 5.180271540171509 -10.11300029111513" fill="red" stroke="none" /><line stroke="#e1ed5e" stroke-width="0.3" x1="58.666819895761336" x2="56.23545636021788" y1="174.27360380694188" y2="178.64263932499728" /><path d="M 58.180547188652646 175.14741091055294 a86.0,86.0 0 0,1 -31.652253787137756,-30.449443065178592" fill="none" id="id44" stroke="none" /><text fill="#e1ed5e" style="font-size:6.75px; font-family:Arial;" text-anchor="middle"><textPath startOffset="22.20632615414155" xlink:href="#id44">August</textPath></text><path d="M 88.54995079064634 117.60387380957326 l -6.62584443981801 10.186902018301716 a33.15215154905282,33.15215154905282 0 0,0 -0.4756943834731801,-0.3152642985441124 l 6.800213522031152 -10.071339698666284" fill="red" stroke="none" /><path d="M 83.06392112726016 112.41649034213515 l -11.180409610870683 8.196787993113126 a34.86322085486966,34.86322085486966 0 0,0 -0.3506579403533629,-0.48703320974065717 l 11.319847343599655 -8.003121177921331" fill="red" stroke="none" /><line stroke="#e1ed5e" stroke-width="0.3" x1="26.63291911575756" x2="22.317208475507996" y1="142.92168965132927" y2="145.44649492493687" /><path d="M 25.769776987707644 143.4266507060508 a86.0,86.0 0 0,1 -11.730757126820373,-40.83630448921669" fill="none" id="id45" stroke="none" /><text fill="#e1ed5e" style="font-size:6.75px; font-family:Arial;" text-anchor="middle"><textPath startOffset="21.46611528233685" xlink:href="#id45">September</textPath></text><path d="M 79.50377843672027 104.57218783832718 l -19.437367754880043 4.335984375636038 a40.91512053049668,40.91512053049668 0 0,0 -0.1474229488402572,-0.6887109373548844 l 19.509124742444744 -4.00075961886499" fill="red" stroke="none" /><path d="M 79.1416061653843 102.43462659150553 l -19.682118139027942 2.2973297262662253 a40.81573865163343,40.81573865163343 0 0,0 -0.07544633509480808,-0.6985393617326914 l 19.7187467756238 -1.9581940426487519" fill="red" stroke="none" /><path d="M 79.10278846688536 102.07522291339032 l -16.724456292388147 1.660842397894116 a37.80671995800026,37.80671995800026 0 0,0 -0.05873616676520532,-0.6481487058482125 l 16.750567055430427 -1.3727123034973374" fill="red" stroke="none" /><path d="M 79.0095281055655 100.63252640178507 l -21.397553314478316 0.6447933840210559 a42.40726620458622,42.40726620458622 0 0,0 -0.015706717059022546,-0.729829423373169 l 21.405482094222346 -0.27637414485775796" fill="red" stroke="none" /><line stroke="#e1ed5e" stroke-width="0.3" x1="15.007084014347285" x2="10.007500721073583" y1="101.09737516637583" y2="101.16192664675087" /><path d="M 14.007167355692545 101.11028546245083 a86.0,86.0 0 0,1 10.666146001902534,-42.60595125391555" fill="none" id="id46" stroke="none" /><text fill="#e1ed5e" style="font-size:6.75px; font-family:Arial;" text-anchor="middle"><textPath startOffset="22.20632615414155" xlink:href="#id46">October</textPath></text><path d="M 79.03285615573316 98.82574320788736 l -31.516879796168656 -1.7650906790992593 a52.56626771082681,52.56626771082681 0 0,0 0.05837210933906094,-0.9029906953681122 l 31.48182709582518 2.307340438720383" fill="red" stroke="none" /><path d="M 79.05617556472873 98.46500227214037 l -20.0065156106314 -1.466301252649405 a41.06017712389298,41.06017712389298 0 0,0 0.05772966304980085,-0.704448113082009 l 19.9783114637621 1.8104632829391925" fill="red" stroke="none" /><path d="M 79.12142395522702 97.74499172005258 l -21.93908363768475 -2.3695493002658017 a43.066675208279946,43.066675208279946 0 0,0 0.08594805501371912,-0.7363504477648739 l 21.895045229667442 2.7468434863555373" fill="red" stroke="none" /><path d="M 80.2630227832202 92.82701384747504 l -24.25257201173939 -8.814083397503362 a46.804559971500176,46.804559971500176 0 0,0 0.2817086484570483,-0.7548391211366541 l 24.097258774780713 9.230245655669357" fill="red" stroke="none" /><path d="M 80.95270993114464 91.15688171328213 l -24.07511228166081 -11.177393996894953 a47.54326972956419,47.54326972956419 0 0,0 0.3510092575971625,-0.7393150150208138 l 23.879144830221897 11.590151427556298" fill="red" stroke="none" /><path d="M 81.26839172434947 90.50648371742162 l -21.148263320494717 -10.718320564196144 a44.70931119180505,44.70931119180505 0 0,0 0.35382217952318756,-0.6834718315009852 l 20.960631707811416 11.080765117957464" fill="red" stroke="none" /><line stroke="#e1ed5e" stroke-width="0.3" x1="26.266209847984243" x2="21.928928074336255" y1="57.711370442889674" y2="55.22380399835377" /><path d="M 25.398753493254645 57.213857153982495 a86.0,86.0 0 0,1 29.58750427330803,-30.492523968695096" fill="none" id="id47" stroke="none" /><text fill="#e1ed5e" style="font-size:6.75px; font-family:Arial;" text-anchor="middle"><textPath startOffset="21.46611528233685" xlink:href="#id47">November</textPath></text><path d="M 82.54541684631803 88.32363383020206 l -8.718247977466977 -5.832133305488363 a31.48911944300348,31.48911944300348 0 0,0 0.3052578245823948,-0.44792819073752305 l 8.616565687215843 5.981339519496302" fill="red" stroke="none" /><path d="M 83.84228863543731 86.58626213691792 l -14.481440075741691 -12.022138325973737 a39.82136861644615,39.82136861644615 0 0,0 0.44237631688732415,-0.5236340265215047 l 14.272353145367243 12.269631302124358" fill="red" stroke="none" /><path d="M 84.07557802195018 86.31012108654704 l -15.551922217815523 -13.369648978581429 a41.50877369516441,41.50877369516441 0 0,0 0.47044885106452905,-0.537804362073653 l 15.31948150317315 13.635368896858026" fill="red" stroke="none" /><path d="M 84.80347519578584 85.50635884689758 l -16.90288442059175 -16.121076654083797 a44.358009637439764,44.358009637439764 0 0,0 0.5317379150830985,-0.5480026625754549 l 16.62288224180553 16.409643512209374" fill="red" stroke="none" /><path d="M 85.05521093208273 85.24692304244772 l -22.793733889989124 -22.501335328370835 a53.02911794301286,53.02911794301286 0 0,0 0.6468648364621458,-0.6440869932814094 l 22.403033253359666 22.890358172302353" fill="red" stroke="none" /><path d="M 85.57189188830299 84.74124197986013 l -14.14468773435523 -14.959020665640212 a41.58748382822608,41.58748382822608 0 0,0 0.5243827547868182,-0.4873566212772 l 13.885097095773554 15.20028187299206" fill="red" stroke="none" /><path d="M 85.83668400450813 84.49514656593479 l -13.830471297804676 -15.140481965152969 a41.50648995943775,41.50648995943775 0 0,0 0.5316566544069948,-0.47732659370058067 l 13.56780365580171 15.376307567622828" fill="red" stroke="none" /><path d="M 86.10567301691215 84.25364557470407 l -10.528560198883952 -11.93195184491383 a36.91295241904738,36.91295241904738 0 0,0 0.48005505789992486,-0.4162990156697192 l 10.321611342337253 12.11141585400323" fill="red" stroke="none" /><path d="M 86.93701828274178 83.55741782278169 l -26.160073932335035 -32.92809977880048 a63.054835907275574,63.054835907275574 0 0,0 0.8556464511113342,-0.6678456271315081 l 25.589394926064273 33.37352379515521" fill="red" stroke="none" /><path d="M 87.80319425747018 82.90503203632743 l -15.106259338289457 -21.172840241155157 a47.0093874413285,47.0093874413285 0 0,0 0.6627626556487772,-0.46430759465304255 l 14.739565543057019 21.429732678572144" fill="red" stroke="none" /><path d="M 88.39885842347998 82.49532879139004 l -11.990379195817612 -18.091982078224408 a42.704584971343934,42.704584971343934 0 0,0 0.6162332093578088,-0.40081522100821154 l 11.677178960675516 18.295696223392156" fill="red" stroke="none" /><path d="M 89.00827224532344 82.1063720568725 l -23.288392142364202 -37.91158530212171 a65.49311754301536,65.49311754301536 0 0,0 0.9656739806182814,-0.5818077683226047 l 22.632356095528273 38.30683967990293" fill="red" stroke="none" /><line stroke="#e1ed5e" stroke-width="0.3" x1="56.762969772571076" x2="54.21961505331055" y1="26.818313649435495" y2="22.513508569990535" /><path d="M 56.25429882871897 25.957352633546506 a86.0,86.0 0 0,1 42.265352541879196,-11.944610805530505" fill="none" id="id48" stroke="none" /><text fill="#e1ed5e" style="font-size:6.75px; font-family:Arial;" text-anchor="middle"><textPath startOffset="22.20632615414155" xlink:href="#id48">December</textPath></text><path d="M 90.91171255644093 81.06846463323043 l -12.22956052313303 -25.475025850753077 a49.258434009787436,49.258434009787436 0 0,0 0.7675444231077545,-0.3603723982961778 l 11.789237888725665 25.68176323168926" fill="red" stroke="none" /><path d="M 91.23893434514133 80.91482961587045 l -21.96706304288277 -47.85321301408464 a73.6543621602365,73.6543621602365 0 0,0 1.1567869377795323,-0.5190165794517941 l 21.140093986636465 48.22424992405296" fill="red" stroke="none" /><path d="M 93.59665428221793 80.00007090966166 l -11.520091230105782 -35.98134754406921 a58.78054887156956,58.78054887156956 0 0,0 0.9662812033598895,-0.3002282734997945 l 10.899024654035165 36.17431595245153" fill="red" stroke="none" /><path d="M 94.63758080256005 79.69619591428918 l -3.1482465797398755 -11.920250807520613 a33.32898356885269,33.32898356885269 0 0,0 0.5559450806348954,-0.14172277968741595 l 2.9425926104199807 11.972676583376893" fill="red" stroke="none" /><path d="M 95.33964822691252 79.52364482259891 l -5.243107643768732 -23.036830603031767 a44.62595483778226,44.62595483778226 0 0,0 0.7504752686932945,-0.1640248260981038 l 4.845789650921916 23.123668927225737" fill="red" stroke="none" /><path d="M 96.04723909329186 79.375362276772 l -9.050177396963528 -47.22183672342761 a69.08126011712427,69.08126011712427 0 0,0 1.1697920541909288,-0.21377202078075744 l 8.235990221669708 47.3706242255591" fill="red" stroke="none" /><path d="M 96.75951476605007 79.25152402106235 l -1.8226825655032175 -11.670439053806351 a32.81191430053562,32.81191430053562 0 0,0 0.5587884935899216,-0.08235089851789569 l 1.6215250914846473 11.700084436485216" fill="red" stroke="none" /><path d="M 97.83486435360386 79.11191278185805 l -3.247557323851495 -31.33072089013779 a52.498582508859315,52.498582508859315 0 0,0 0.8996628908723089,-0.08543383195072066 l 2.7077693058889496 31.38198026660369" fill="red" stroke="none" /><path d="M 98.55514903715128 79.0497635885617 l -4.334552888546145 -62.8507092343149 a84.0,84.0 0 0,0 1.4433518046415081,-0.08706692247877434 l 3.2520390350650135 62.91600942617398" fill="red" stroke="none" /><path d="M 99.63851952072746 79.00311137660856 l -0.27118796430976916 -15.75217420889653 a36.75450840932244,36.75450840932244 0 0,0 0.632668443582301,-0.005445577034468861 l 3.858741659123357e-15 15.75450840932244" fill="red" stroke="none" /></svg>