<?xml version="1.0" encoding="utf-8" ?>
<svg baseProfile="full" height="200mm" version="1.1" viewBox="0,0,200,200" width="200mm" xmlns="http://www.w3.org/2000/svg" xmlns:ev="http://www.w3.org/2001/xml-events" xmlns:xlink="http://www.w3.org/1999/xlink"><defs /><rect fill="#1a1a1a" height="200" width="200" x="0" y="0" /><rect fill="#1a1a1a" height="200" width="180" x="10" y="0" /><text alignment-baseline="middle" fill="#e1ed5e" style="dominant-baseline: central; font-size:9.0px; font-family:Arial;" text-anchor="middle" x="100.0" y="100.0">2025</text><line stroke="#e1ed5e" stroke-width="0.3" x1="100.0" x2="100.0" y1="15.0" y2="10.0" /><path d="M 100.0 14.0 a86.0,86.0 0 0,1 42.46469731375804,11.215312516191453" fill="none" id="id37" stroke="none" /><text fill="#e1ed5e" style="font-size:6.75px; font-family:Arial;" text-anchor="middle"><textPath startOffset="22.20632615414155" xlink:href="#id37">January</textPath></text><line stroke="#e1ed5e" stroke-width="0.3" x1="143.23703022742887" x2="145.7803849466894" y1="26.81831364943548" y2="22.513508569990506" /><path d="M 143.74570117128098 25.957352633546492 a86.0,86.0 0 0,1 28.547481713284135,27.462654790039103" fill="none" id="id38" stroke="none" /><text fill="#e1ed5e" style="font-size:6.75px; font-family:Arial;" text-anchor="middle"><textPath startOffset="19.985693538727396" xlink:href="#id38">February</textPath></text><path d="M 111.60114157652 82.49532879139004 l 14.201673859948665 -21.428549069123875 a46.70739690501936,46.70739690501936 0 0,0 0.6663484213921055,0.4499214286392086 l -14.568426975747313 21.180915728185994" fill="red" stroke="none" /><path d="M 113.6212207817346 84.01681056812373 l 16.527289415025045 -19.393180813133345 a46.48032098422,46.48032098422 0 0,0 0.6044792334133057,0.5241984345787398 l -16.858662447085113 19.105817385134934" fill="red" stroke="none" /><path d="M 117.45458315368197 88.32363383020206 l 20.47056709025436 -13.693929837493966 a45.628597836474825,45.628597836474825 0 0,0 0.4310889206979387,0.6565780015338133 l -20.703252646310222 13.33953377198248" fill="red" stroke="none" /><line stroke="#e1ed5e" stroke-width="0.3" x1="172.23445277983987" x2="176.4835382374775" y1="55.19839476539836" y2="52.563006222186495" /><path d="M 173.08426987136738 54.67131705675599 a86.0,86.0 0 0,1 12.851231095245387,41.99856678651699" fill="none" id="id39" stroke="none" /><text fill="#e1ed5e" style="font-size:6.75px; font-family:Arial;" text-anchor="middle"><textPath startOffset="22.20632615414155" xlink:href="#id39">March</textPath></text><path d="M 117.84615892207809 88.93136811851018 l 6.492700648140559 -4.026934518781585 a28.640115399973975,28.640115399973975 0 0,0 0.2562392961387874,0.4211900292657201 l -6.5610557425655704 3.914576716308783" fill="red" stroke="none" /><line stroke="#e1ed5e" stroke-width="0.3" x1="184.98032266829074" x2="189.97916517819016" y1="98.17113171792111" y2="98.06355123074" /><path d="M 185.9800911702706 98.14961562048488 a86.0,86.0 0 0,1 -9.607161424134198,41.387399972396054" fill="none" id="id40" stroke="none" /><text fill="#e1ed5e" style="font-size:6.75px; font-family:Arial;" text-anchor="middle"><textPath startOffset="21.466115282336823" xlink:href="#id40">April</textPath></text><line stroke="#e1ed5e" stroke-width="0.3" x1="174.80103733775053" x2="179.2010983576182" y1="140.37084112569926" y2="142.7455964860345" /><path d="M 175.68104954172406 140.8457921977663 a86.0,86.0 0 0,1 -30.038265399797805,32.042727171017184" fill="none" id="id41" stroke="none" /><text fill="#e1ed5e" style="font-size:6.75px; font-family:Arial;" text-anchor="middle"><textPath startOffset="22.206326154141568" xlink:href="#id41">May</textPath></text><line stroke="#e1ed5e" stroke-width="0.3" x1="143.8653032363475" x2="146.44561519142675" y1="172.8068346515853" y2="177.08958963109032" /><path d="M 144.38136562736335 173.6633856474863 a86.0,86.0 0 0,1 -40.68145358897372,12.25698825130547" fill="none" id="id42" stroke="none" /><text fill="#e1ed5e" style="font-size:6.75px; font-family:Arial;" text-anchor="middle"><textPath startOffset="21.466115282336833" xlink:href="#id42">June</textPath></text><path d="M 101.62511606390274 120.93702456842531 l 1.0937306657277777 14.09097253311826 a35.1333560663505,35.1333560663505 0 0,0 -0.603352216016165,0.04161070133661678 l -0.8510156889326824 -14.107711578971161" fill="red" stroke="none" /><line stroke="#e1ed5e" stroke-width="0.3" x1="102.19456741930631" x2="102.32365962044197" y1="184.97166512339345" y2="189.96999836594603" /><path d="M 102.22038585953345 185.97133177190398 a86.0,86.0 0 0,1 -42.740103519485714,-10.115201625700543" fill="none" id="id43" stroke="none" /><text fill="#e1ed5e" style="font-size:6.75px; font-family:Arial;" text-anchor="middle"><textPath startOffset="22.20632615414155" xlink:href="#id43">July</textPath></text><path d="M 99.81925306533755 120.99922214144158 l -0.1267402757705673 14.724715581727914 a35.725261018409256,35.725261018409256 0 0,0 -0.6148833057694868,-0.010585773733095395 l 0.380183271432722 -14.720352330715658" fill="red" stroke="none" /><path d="M 99.09653310690486 120.98055641714683 l -0.4304253989538079 9.99545687300836 a31.00472009224819,31.00472009224819 0 0,0 -0.5330035185143632,-0.027550193724056798 l 0.60241698588166 -9.9865668725221" fill="red" stroke="none" /><path d="M 98.37488393609728 120.93702456842531 l -1.1811270374571878 15.21693517833129 a36.26270543842568,36.26270543842568 0 0,0 -0.6219152103673193,-0.05366146123322174 l 1.442886565566049 -15.194349464819405" fill="red" stroke="none" /><path d="M 95.86986931433489 120.58985236759428 l -3.2137456050952453 16.02141738167788 a37.34056228323246,37.34056228323246 0 0,0 -0.6291147509921636,-0.1318371128385608 l 3.489051817516796 -15.96372428811278" fill="red" stroke="none" /><path d="M 92.7421414339146 119.70592522655815 l -5.325811972108242 14.46019532310604 a36.4097865638895,36.4097865638895 0 0,0 -0.5862491949053891,-0.22166928216367934 l 5.573931387773913 -14.366377790835728" fill="red" stroke="none" /><path d="M 90.7491055286396 118.85261126421891 l -5.98890166341261 12.204920865706134 a34.595110756156984,34.595110756156984 0 0,0 -0.5323464216254395,-0.2669295471334258 l 6.198101992720811 -12.100023477663406" fill="red" stroke="none" /><line stroke="#e1ed5e" stroke-width="0.3" x1="58.666819895761336" x2="56.23545636021788" y1="174.27360380694188" y2="178.64263932499728" /><path d="M 58.180547188652646 175.14741091055294 a86.0,86.0 0 0,1 -31.652253787137756,-30.449443065178592" fill="none" id="id44" stroke="none" /><text fill="#e1ed5e" style="font-size:6.75px; font-family:Arial;" text-anchor="middle"><textPath startOffset="22.20632615414155" xlink:href="#id44">August</textPath></text><path d="M 88.54995079064634 117.60387380957326 l -7.927704041656173 12.188445568858556 a35.53983138681874,35.53983138681874 0 0,0 -0.5099547809221009,-0.33797022181088454 l 8.136333521318235 -12.050177325956353" fill="red" stroke="none" /><path d="M 83.06392112726016 112.41649034213515 l -13.377159585398523 9.80730982923386 a37.587095124216496,37.587095124216496 0 0,0 -0.3780549541016572,-0.5250852656264998 l 13.543994331875787 -9.575590958156223" fill="red" stroke="none" /><line stroke="#e1ed5e" stroke-width="0.3" x1="26.63291911575756" x2="22.317208475507996" y1="142.92168965132927" y2="145.44649492493687" /><path d="M 25.769776987707644 143.4266507060508 a86.0,86.0 0 0,1 -11.730757126820373,-40.83630448921669" fill="none" id="id45" stroke="none" /><text fill="#e1ed5e" style="font-size:6.75px; font-family:Arial;" text-anchor="middle"><textPath startOffset="21.46611528233685" xlink:href="#id45">September</textPath></text><path d="M 79.50377843672027 104.57218783832718 l -23.256461921063803 5.187927542143139 a44.82808454887673,44.82808454887673 0 0,0 -0.1615219099777525,-0.7545765900034151 l 23.342317869765996 -4.7868371327235595" fill="red" stroke="none" /><path d="M 79.1416061653843 102.43462659150553 l -23.54930136624393 2.748713816232887 a44.70917591317184,44.70917591317184 0 0,0 -0.08264320527304465,-0.7651734413663936 l 23.593126873018026 -2.342944052981711" fill="red" stroke="none" /><path d="M 79.10278846688536 102.07522291339032 l -20.0105120106486 1.987168142857993 a41.10893901120349,41.10893901120349 0 0,0 -0.063866463421981,-0.7047611019550076 l 20.041753070347657 -1.6424256523544192" fill="red" stroke="none" /><path d="M 79.0095281055655 100.63252640178507 l -25.60178878835894 0.7714837199946829 a46.61341008717813,46.61341008717813 0 0,0 -0.01726458008076727,-0.8022171964884436 l 25.611275431124717 -0.33067670771611046" fill="red" stroke="none" /><line stroke="#e1ed5e" stroke-width="0.3" x1="15.007084014347285" x2="10.007500721073583" y1="101.09737516637583" y2="101.16192664675087" /><path d="M 14.007167355692545 101.11028546245083 a86.0,86.0 0 0,1 10.666146001902534,-42.60595125391555" fill="none" id="id46" stroke="none" /><text fill="#e1ed5e" style="font-size:6.75px; font-family:Arial;" text-anchor="middle"><textPath startOffset="22.20632615414155" xlink:href="#id46">October</textPath></text><path d="M 79.03285615573316 98.82574320788736 l -37.70938143958911 -2.111899341688918 a58.76847319373466,58.76847319373466 0 0,0 0.06525933630718471,-1.009533048206173 l 37.667441512277506 2.7606914541481027" fill="red" stroke="none" /><path d="M 79.05617556472873 98.46500227214037 l -23.93743712314142 -1.7544031515526313 a45.00164216137152,45.00164216137152 0 0,0 0.0632712720849894,-0.7720697796922776 l 23.903691367236938 2.1661868484526874" fill="red" stroke="none" /><path d="M 79.12142395522702 97.74499172005258 l -26.24972010805061 -2.835123241308199 a47.4023811339887,47.4023811339887 0 0,0 0.0946008123864192,-0.8104819887842896 l 26.1970289426606 3.28654896841735" fill="red" stroke="none" /><path d="M 80.2630227832202 92.82701384747504 l -29.01776745656658 -10.545892709760206 a51.87469321643776,51.87469321643776 0 0,0 0.3122249140687371,-0.8366075412432592 l 28.831937953996217 11.043823388032807" fill="red" stroke="none" /><path d="M 80.95270993114464 91.15688171328213 l -28.805440072162458 -13.37355145735981 a52.758546193640434,52.758546193640434 0 0,0 0.38951334724501896,-0.820414447586315 l 28.57096853107569 13.867408320586657" fill="red" stroke="none" /><path d="M 81.26839172434947 90.50648371742162 l -25.30351778142559 -12.824278328345134 a49.3677656285754,49.3677656285754 0 0,0 0.390688426353885,-0.7546856860872065 l 25.07901992191159 13.257936736692676" fill="red" stroke="none" /><line stroke="#e1ed5e" stroke-width="0.3" x1="26.266209847984243" x2="21.928928074336255" y1="57.711370442889674" y2="55.22380399835377" /><path d="M 25.398753493254645 57.213857153982495 a86.0,86.0 0 0,1 29.58750427330803,-30.492523968695096" fill="none" id="id47" stroke="none" /><text fill="#e1ed5e" style="font-size:6.75px; font-family:Arial;" text-anchor="middle"><textPath startOffset="21.46611528233685" xlink:href="#id47">November</textPath></text><path d="M 82.54541684631803 88.32363383020206 l -10.43122734843803 -6.978042904168694 a33.55004329742414,33.55004329742414 0 0,0 0.3252365710052388,-0.4772445358652227 l 10.309566311764051 7.156565463304332" fill="red" stroke="none" /><path d="M 83.84228863543731 86.58626213691792 l -17.326783334595213 -14.38427289711458 a43.51942999950646,43.51942999950646 0 0,0 0.4834581488559478,-0.5722619576955179 l 17.07661457225214 14.680393804439214" fill="red" stroke="none" /><path d="M 84.07557802195018 86.31012108654704 l -18.607596019124905 -15.996545226156181 a45.53837991358462,45.53837991358462 0 0,0 0.5161192828055446,-0.5900135604860351 l 18.329484872741517 16.31447434284516" fill="red" stroke="none" /><path d="M 84.80347519578584 85.50635884689758 l -20.223998066041663 -19.28857909467301 a48.94743961916214,48.94743961916214 0 0,0 0.5867533215417589,-0.6047008749218609 l 19.888980480796786 19.633844165144993" fill="red" stroke="none" /><path d="M 85.05521093208273 85.24692304244772 l -27.27229380728795 -26.922444172306264 a59.32226519560116,59.32226519560116 0 0,0 0.7236305045758865,-0.7205230052202206 l 26.80482750254475 27.387903028176595" fill="red" stroke="none" /><path d="M 85.57189188830299 84.74124197986013 l -16.923865197579616 -17.898199945284468 a45.63255517617341,45.63255517617341 0 0,0 0.5753876596641404,-0.5347601216453277 l 16.61326965412062 18.18686465300444" fill="red" stroke="none" /><path d="M 85.83668400450813 84.49514656593479 l -16.547910866532106 -18.115315135750812 a45.535647464745125,45.535647464745125 0 0,0 0.5832661352723715,-0.5236620951937441 l 16.233633743663766 18.397476239713832" fill="red" stroke="none" /><path d="M 86.10567301691215 84.25364557470407 l -12.597233454488583 -14.276366389967393 a40.03956218003652,40.03956218003652 0 0,0 0.5207167967064803,-0.45156047487533607 l 12.349622859135328 14.49109185826241" fill="red" stroke="none" /><path d="M 86.93701828274178 83.55741782278169 l -31.30005929464486 -39.39788083941558 a71.31785693454236,71.31785693454236 0 0,0 0.9677746410543893,-0.7553634579299399 l 30.617252098431045 39.93082268656874" fill="red" stroke="none" /><path d="M 87.80319425747018 82.90503203632743 l -18.074368376471107 -25.332923626223327 a52.119765610628285,52.119765610628285 0 0,0 0.73481140997645,-0.5147823513921392 l 17.635625826911 25.64029082037941" fill="red" stroke="none" /><path d="M 88.39885842347998 82.49532879139004 l -14.346273667463915 -21.646732087638647 a46.96914665936817,46.96914665936817 0 0,0 0.6777714385029691,-0.4408413970414309 l 13.971535203176659 21.89047240883961" fill="red" stroke="none" /><path d="M 89.00827224532344 82.1063720568725 l -27.864143534852662 -45.36053189221539 a74.23521718257155,74.23521718257155 0 0,0 1.0945732982045486,-0.6594681649040233 l 27.079208170430466 45.833446666578034" fill="red" stroke="none" /><line stroke="#e1ed5e" stroke-width="0.3" x1="56.762969772571076" x2="54.21961505331055" y1="26.818313649435495" y2="22.513508569990535" /><path d="M 56.25429882871897 25.957352633546506 a86.0,86.0 0 0,1 42.265352541879196,-11.944610805530505" fill="none" id="id48" stroke="none" /><text fill="#e1ed5e" style="font-size:6.75px; font-family:Arial;" text-anchor="middle"><textPath startOffset="22.20632615414155" xlink:href="#id48">December</textPath></text><path d="M 90.91171255644093 81.06846463323043 l -14.63244983602172 -30.480411550962664 a54.81070949447453,54.81070949447453 0 0,0 0.8540599238437852,-0.4009925859379569 l 14.105611700878327 30.72776911954063" fill="red" stroke="none" /><path d="M 91.23893434514133 80.91482961587045 l -26.28319696457602 -57.25551115238866 a84.0,84.0 0 0,0 1.3192715261329024,-0.5919186779338843 l 25.293743319976343 57.69945016083907" fill="red" stroke="none" /></svg>