<?xml version="1.0" encoding="utf-8" ?>
<svg baseProfile="full" height="200mm" version="1.1" viewBox="0,0,200,200" width="200mm" xmlns="http://www.w3.org/2000/svg" xmlns:ev="http://www.w3.org/2001/xml-events" xmlns:xlink="http://www.w3.org/1999/xlink"><defs /><rect fill="#1a1a1a" height="200" width="200" x="0" y="0" /><rect fill="#1a1a1a" height="200" width="180" x="10" y="0" /><text alignment-baseline="middle" fill="#e1ed5e" style="dominant-baseline: central; font-size:9.0px; font-family:Arial;" text-anchor="middle" x="100.0" y="100.0">2026</text><line stroke="#e1ed5e" stroke-width="0.3" x1="100.0" x2="100.0" y1="15.0" y2="10.0" /><path d="M 100.0 14.0 a86.0,86.0 0 0,1 42.46469731375804,11.215312516191453" fill="none" id="id49" stroke="none" /><text fill="#e1ed5e" style="font-size:6.75px; font-family:Arial;" text-anchor="middle"><textPath startOffset="22.20632615414155" xlink:href="#id49">January</textPath></text><path d="M 100.36148047927253 79.00311137660856 l 0.36009464152101794 -20.91639110668704 a41.919490554952546,41.919490554952546 0 0,0 0.7213613025123886,0.01863063422075066 l -0.7200825792282743 20.90709368032393" fill="#ff970d" stroke="none" /><path d="M 101.08401301168833 79.027996857942 l 1.07968597148155 -20.888289478260692 a41.91617458152017,41.91617458152017 0 0,0 0.7202355503084226,0.04344657527257594 l -1.4390835706295846 20.866609633607812" fill="#ff970d" stroke="none" /><path d="M 101.80526077348638 79.07773832637324 l 1.2844539508275978 -14.886315629092984 a35.94162691813628,35.94162691813628 0 0,0 0.6159280199682929,0.05848978710313908 l -1.540507097886135 14.862000297474667" fill="#ff3404" stroke="none" /><path d="M 102.88285421437855 79.19881850522331 l 1.9679503827376275 -14.199709745941794 a35.3354311263356,35.3354311263356 0 0,0 0.601764107652591,0.08868438690038437 l -2.2120834708188744 14.163730874880441" fill="#ff2904" stroke="none" /><path d="M 103.59715602781102 79.31037775812273 l 4.093775317500016 -23.546008070641868 a44.89923623074395,44.89923623074395 0 0,0 0.7603041648764738,0.13894072638925603 l -4.498474603479392 23.472051862901875" fill="#ffc612" stroke="none" /><path d="M 104.307194497241 79.44645832069477 l 2.458251662157765 -11.730554083115011 a32.98536191908228,32.98536191908228 0 0,0 0.554715264673955,0.12123927145598302 l -2.659809650985248 11.686501313563157" fill="#ff0000" stroke="none" /><path d="M 104.66035177308747 79.52364482259891 l 2.6905908938741776 -11.821745967375634 a33.12406520418629,33.12406520418629 0 0,0 0.5548695966829341,0.1313197064171867 l -2.8936841775196354 11.773680348817578" fill="#ff0200" stroke="none" /><path d="M 106.0581310904928 79.89281104454417 l 18.174393271478365 -60.321566866367476 a84.0,84.0 0 0,0 1.380858509157127,0.4290394604699177 l -19.21003715334621 59.99978727101504" fill="#4dd2ff" stroke="none" /><path d="M 107.4271985657038 80.35727306442388 l 5.291131858695208 -13.99346703350574 a35.960387560618585,35.960387560618585 0 0,0 0.5771074286221438,0.2239087164035477 l -5.531222452317019 13.900315613211644" fill="#ff3404" stroke="none" /><path d="M 108.43124777332544 80.76684994638697 l 22.788072543331563 -51.98357709817928 a77.75903926391365,77.75903926391365 0 0,0 1.221253409527736,0.5479408061726672 l -23.679508071326076 51.58361596149008" fill="#44ffe4" stroke="none" /><path d="M 109.41281617654863 81.2277094730956 l 10.33784070437923 -20.61709752783277 a44.06373042032204,44.06373042032204 0 0,0 0.6750972924026157,0.3458110540897154 l -10.691198484370602 20.436093948430553" fill="#ffb911" stroke="none" /><line stroke="#e1ed5e" stroke-width="0.3" x1="143.23703022742887" x2="145.7803849466894" y1="26.81831364943548" y2="22.513508569990506" /><path d="M 143.74570117128098 25.957352633546492 a86.0,86.0 0 0,1 28.547481713284135,27.462654790039103" fill="none" id="id50" stroke="none" /><text fill="#e1ed5e" style="font-size:6.75px; font-family:Arial;" text-anchor="middle"><textPath startOffset="19.985693538727396" xlink:href="#id50">February</textPath></text><path d="M 110.68208982089419 81.91981866633111 l 28.875214707533463 -48.87331287363445 a77.7659998207582,77.7659998207582 0 0,0 1.1466335001437686,0.6908338540668196 l -29.71221027389487 48.369032410109014" fill="#44ffe4" stroke="none" /><path d="M 111.2981086023043 82.29822771554956 l 14.50064917012406 -22.71948328890103 a47.95262041564183,47.95262041564183 0 0,0 0.6919631040947329,0.4500720511091803 l -14.889579300003074 22.46651231363232" fill="#fff417" stroke="none" /><path d="M 111.90073688211348 82.69761687909136 l 13.845083198496214 -20.129252181121586 a45.43098692530595,45.43098692530595 0 0,0 0.6405095488840661,0.4487178712619962 l -14.189523886963931 19.887949467095655" fill="#ffce13" stroke="none" /><path d="M 112.48926042617603 83.11751280151076 l 7.779606390159171 -10.51616355247713 a34.08097746532169,34.08097746532169 0 0,0 0.46861968222788164,0.35295462914916775 l -7.959472226145436 10.380692333822115" fill="#ff1302" stroke="none" /><path d="M 112.77801427241765 83.33499621200491 l 32.7153309347141 -42.66712357094351 a74.76594007348913,74.76594007348913 0 0,0 1.0145647097069215,0.7918838486850168 l -33.44492819958045 42.09766133303527" fill="#3fffbf" stroke="none" /><line stroke="#e1ed5e" stroke-width="0.3" x1="172.23445277983987" x2="176.4835382374775" y1="55.19839476539836" y2="52.563006222186495" /><path d="M 173.08426987136738 54.67131705675599 a86.0,86.0 0 0,1 12.851231095245387,41.99856678651699" fill="none" id="id51" stroke="none" /><text fill="#e1ed5e" style="font-size:6.75px; font-family:Arial;" text-anchor="middle"><textPath startOffset="22.20632615414155" xlink:href="#id51">March</textPath></text><line stroke="#e1ed5e" stroke-width="0.3" x1="184.98032266829074" x2="189.97916517819016" y1="98.17113171792111" y2="98.06355123074" /><path d="M 185.9800911702706 98.14961562048488 a86.0,86.0 0 0,1 -9.607161424134198,41.387399972396054" fill="none" id="id52" stroke="none" /><text fill="#e1ed5e" style="font-size:6.75px; font-family:Arial;" text-anchor="middle"><textPath startOffset="21.466115282336823" xlink:href="#id52">April</textPath></text><line stroke="#e1ed5e" stroke-width="0.3" x1="174.80103733775053" x2="179.2010983576182" y1="140.37084112569926" y2="142.7455964860345" /><path d="M 175.68104954172406 140.8457921977663 a86.0,86.0 0 0,1 -30.038265399797805,32.042727171017184" fill="none" id="id53" stroke="none" /><text fill="#e1ed5e" style="font-size:6.75px; font-family:Arial;" text-anchor="middle"><textPath startOffset="22.206326154141568" xlink:href="#id53">May</textPath></text><line stroke="#e1ed5e" stroke-width="0.3" x1="143.8653032363475" x2="146.44561519142675" y1="172.8068346515853" y2="177.08958963109032" /><path d="M 144.38136562736335 173.6633856474863 a86.0,86.0 0 0,1 -40.68145358897372,12.25698825130547" fill="none" id="id54" stroke="none" /><text fill="#e1ed5e" style="font-size:6.75px; font-family:Arial;" text-anchor="middle"><textPath startOffset="21.466115282336833" xlink:href="#id54">June</textPath></text><line stroke="#e1ed5e" stroke-width="0.3" x1="102.19456741930631" x2="102.32365962044197" y1="184.97166512339345" y2="189.96999836594603" /><path d="M 102.22038585953345 185.97133177190398 a86.0,86.0 0 0,1 -42.740103519485714,-10.115201625700543" fill="none" id="id55" stroke="none" /><text fill="#e1ed5e" style="font-size:6.75px; font-family:Arial;" text-anchor="middle"><textPath startOffset="22.20632615414155" xlink:href="#id55">July</textPath></text><line stroke="#e1ed5e" stroke-width="0.3" x1="58.666819895761336" x2="56.23545636021788" y1="174.27360380694188" y2="178.64263932499728" /><path d="M 58.180547188652646 175.14741091055294 a86.0,86.0 0 0,1 -31.652253787137756,-30.449443065178592" fill="none" id="id56" stroke="none" /><text fill="#e1ed5e" style="font-size:6.75px; font-family:Arial;" text-anchor="middle"><textPath startOffset="22.20632615414155" xlink:href="#id56">August</textPath></text><line stroke="#e1ed5e" stroke-width="0.3" x1="26.63291911575756" x2="22.317208475507996" y1="142.92168965132927" y2="145.44649492493687" /><path d="M 25.769776987707644 143.4266507060508 a86.0,86.0 0 0,1 -11.730757126820373,-40.83630448921669" fill="none" id="id57" stroke="none" /><text fill="#e1ed5e" style="font-size:6.75px; font-family:Arial;" text-anchor="middle"><textPath startOffset="21.46611528233685" xlink:href="#id57">September</textPath></text><line stroke="#e1ed5e" stroke-width="0.3" x1="15.007084014347285" x2="10.007500721073583" y1="101.09737516637583" y2="101.16192664675087" /><path d="M 14.007167355692545 101.11028546245083 a86.0,86.0 0 0,1 10.666146001902534,-42.60595125391555" fill="none" id="id58" stroke="none" /><text fill="#e1ed5e" style="font-size:6.75px; font-family:Arial;" text-anchor="middle"><textPath startOffset="22.20632615414155" xlink:href="#id58">October</textPath></text><line stroke="#e1ed5e" stroke-width="0.3" x1="26.266209847984243" x2="21.928928074336255" y1="57.711370442889674" y2="55.22380399835377" /><path d="M 25.398753493254645 57.213857153982495 a86.0,86.0 0 0,1 29.58750427330803,-30.492523968695096" fill="none" id="id59" stroke="none" /><text fill="#e1ed5e" style="font-size:6.75px; font-family:Arial;" text-anchor="middle"><textPath startOffset="21.46611528233685" xlink:href="#id59">November</textPath></text><line stroke="#e1ed5e" stroke-width="0.3" x1="56.762969772571076" x2="54.21961505331055" y1="26.818313649435495" y2="22.513508569990535" /><path d="M 56.25429882871897 25.957352633546506 a86.0,86.0 0 0,1 42.265352541879196,-11.944610805530505" fill="none" id="id60" stroke="none" /><text fill="#e1ed5e" style="font-size:6.75px; font-family:Arial;" text-anchor="middle"><textPath startOffset="22.20632615414155" xlink:href="#id60">December</textPath></text></svg>