<?xml version="1.0" encoding="utf-8" ?>
<svg baseProfile="full" height="200mm" version="1.1" viewBox="0,0,200,200" width="200mm" xmlns="http://www.w3.org/2000/svg" xmlns:ev="http://www.w3.org/2001/xml-events" xmlns:xlink="http://www.w3.org/1999/xlink"><defs /><rect fill="#1a1a1a" height="200" width="200" x="0" y="0" /><text alignment-baseline="middle" fill="#e1ed5e" style="dominant-baseline: central; font-size:9.0px; font-family:Arial;" text-anchor="middle" x="100.0" y="100.0">2022</text><line stroke="#e1ed5e" stroke-width="0.3" x1="100.0" x2="100.0" y1="15.0" y2="10.0" /><path d="M 100.0 14.0 a86.0,86.0 0 0,1 42.46469731375804,11.215312516191453" fill="none" id="id1" stroke="none" /><text fill="#e1ed5e" style="font-size:6.75px; font-family:Arial;" text-anchor="middle"><textPath startOffset="22.20632615414155" xlink:href="#id1">January</textPath></text><line stroke="#e1ed5e" stroke-width="0.3" x1="143.23703022742887" x2="145.7803849466894" y1="26.81831364943548" y2="22.513508569990506" /><path d="M 143.74570117128098 25.957352633546492 a86.0,86.0 0 0,1 28.547481713284135,27.462654790039103" fill="none" id="id2" stroke="none" /><text fill="#e1ed5e" style="font-size:6.75px; font-family:Arial;" text-anchor="middle"><textPath startOffset="19.985693538727396" xlink:href="#id2">February</textPath></text><line stroke="#e1ed5e" stroke-width="0.3" x1="172.23445277983987" x2="176.4835382374775" y1="55.19839476539836" y2="52.563006222186495" /><path d="M 173.08426987136738 54.67131705675599 a86.0,86.0 0 0,1 12.851231095245387,41.99856678651699" fill="none" id="id3" stroke="none" /><text fill="#e1ed5e" style="font-size:6.75px; font-family:Arial;" text-anchor="middle"><textPath startOffset="22.20632615414155" xlink:href="#id3">March</textPath></text><line stroke="#e1ed5e" stroke-width="0.3" x1="184.98032266829074" x2="189.97916517819016" y1="98.17113171792111" y2="98.06355123074" /><path d="M 185.9800911702706 98.14961562048488 a86.0,86.0 0 0,1 -9.607161424134198,41.387399972396054" fill="none" id="id4" stroke="none" /><text fill="#e1ed5e" style="font-size:6.75px; font-family:Arial;" text-anchor="middle"><textPath startOffset="21.466115282336823" xlink:href="#id4">April</textPath></text><line stroke="#e1ed5e" stroke-width="0.3" x1="174.80103733775053" x2="179.2010983576182" y1="140.37084112569926" y2="142.7455964860345" /><path d="M 175.68104954172406 140.8457921977663 a86.0,86.0 0 0,1 -30.038265399797805,32.042727171017184" fill="none" id="id5" stroke="none" /><text fill="#e1ed5e" style="font-size:6.75px; font-family:Arial;" text-anchor="middle"><textPath startOffset="22.206326154141568" xlink:href="#id5">May</textPath></text><line stroke="#e1ed5e" stroke-width="0.3" x1="143.8653032363475" x2="146.44561519142675" y1="172.8068346515853" y2="177.08958963109032" /><path d="M 144.38136562736335 173.6633856474863 a86.0,86.0 0 0,1 -40.68145358897372,12.25698825130547" fill="none" id="id6" stroke="none" /><text fill="#e1ed5e" style="font-size:6.75px; font-family:Arial;" text-anchor="middle"><textPath startOffset="21.466115282336833" xlink:href="#id6">June</textPath></text><line stroke="#e1ed5e" stroke-width="0.3" x1="102.19456741930631" x2="102.32365962044197" y1="184.97166512339345" y2="189.96999836594603" /><path d="M 102.22038585953345 185.97133177190398 a86.0,86.0 0 0,1 -42.740103519485714,-10.115201625700543" fill="none" id="id7" stroke="none" /><text fill="#e1ed5e" style="font-size:6.75px; font-family:Arial;" text-anchor="middle"><textPath startOffset="22.20632615414155" xlink:href="#id7">July</textPath></text><line stroke="#e1ed5e" stroke-width="0.3" x1="58.666819895761336" x2="56.23545636021788" y1="174.27360380694188" y2="178.64263932499728" /><path d="M 58.180547188652646 175.14741091055294 a86.0,86.0 0 0,1 -31.652253787137756,-30.449443065178592" fill="none" id="id8" stroke="none" /><text fill="#e1ed5e" style="font-size:6.75px; font-family:Arial;" text-anchor="middle"><textPath startOffset="22.20632615414155" xlink:href="#id8">August</textPath></text><line stroke="#e1ed5e" stroke-width="0.3" x1="26.63291911575756" x2="22.317208475507996" y1="142.92168965132927" y2="145.44649492493687" /><path d="M 25.769776987707644 143.4266507060508 a86.0,86.0 0 0,1 -11.730757126820373,-40.83630448921669" fill="none" id="id9" stroke="none" /><text fill="#e1ed5e" style="font-size:6.75px; font-family:Arial;" text-anchor="middle"><textPath startOffset="21.46611528233685" xlink:href="#id9">September</textPath></text><path d="M 79.4281124754447 104.21870165774334 l -21.60037970087679 4.429615782373106 a43.04989567325657,43.04989567325657 0 0,0 -0.14261829177995364,-0.7272075972021149 l 21.67342792563241 -4.057144458103036" fill="#ff6309" stroke="none" /><path d="M 79.29508885075956 103.50808413554451 l -44.032138986650935 7.460473851819825 a65.6596902568013,65.6596902568013 0 0,0 -0.1792142026048048,-1.115967010693453 l 44.154034943617035 -6.701427611433159" fill="#37ff2e" stroke="none" /><line stroke="#e1ed5e" stroke-width="0.3" x1="15.007084014347285" x2="10.007500721073583" y1="101.09737516637583" y2="101.16192664675087" /><path d="M 14.007167355692545 101.11028546245083 a86.0,86.0 0 0,1 10.666146001902534,-42.60595125391555" fill="none" id="id10" stroke="none" /><text fill="#e1ed5e" style="font-size:6.75px; font-family:Arial;" text-anchor="middle"><textPath startOffset="22.20632615414155" xlink:href="#id10">October</textPath></text><path d="M 79.01574976396665 99.18683210126434 l -61.992280596142635 -2.4022841885307864 a83.03880900560026,83.03880900560026 0 0,0 0.06764259041302216,-1.4278281738655 l 61.941744397496116 3.469023469019296" fill="#4bdeff" stroke="none" /><path d="M 80.02781315780177 93.51064311812611 l -45.09752850018743 -14.653075261135726 a68.41834762445572,68.41834762445572 0 0,0 0.37357299496589147,-1.1169357056797173 l 44.83861821144977 15.427184069737764" fill="#33ff53" stroke="none" /><path d="M 80.2630227832202 92.82701384747504 l -32.14711224395886 -11.68318676344931 a55.204293276945904,55.204293276945904 0 0,0 0.3322652078674482,-0.8903055652165837 l 31.941242447589786 12.234815465695235" fill="#cdff1d" stroke="none" /><path d="M 81.10775173730289 90.83032412892265 l -29.265184482352034 -14.20435790801638 a53.53021374607191,53.53021374607191 0 0,0 0.40948061156047794,-0.8254879260603083 l 29.01634385783814 14.70600542257565" fill="#e7ff1a" stroke="none" /><line stroke="#e1ed5e" stroke-width="0.3" x1="26.266209847984243" x2="21.928928074336255" y1="57.711370442889674" y2="55.22380399835377" /><path d="M 25.398753493254645 57.213857153982495 a86.0,86.0 0 0,1 29.58750427330803,-30.492523968695096" fill="none" id="id11" stroke="none" /><text fill="#e1ed5e" style="font-size:6.75px; font-family:Arial;" text-anchor="middle"><textPath startOffset="21.46611528233685" xlink:href="#id11">November</textPath></text><path d="M 82.34701348167596 88.62581576622439 l -19.66121207999774 -12.66812548829046 a44.38898595154829,44.38898595154829 0 0,0 0.4193773412303424,-0.6387404625193812 l 19.440238103409474 13.00468401478751" fill="#ff7b0b" stroke="none" /><path d="M 83.84228863543731 86.58626213691792 l -27.793016371807933 -23.073084276862886 a57.122278127089395,57.122278127089395 0 0,0 0.634572439070788,-0.7511336134091544 l 27.39173331925002 23.548076839901157" fill="#afff20" stroke="none" /><path d="M 85.57189188830299 84.74124197986013 l -20.8051816024688 -22.00297011773623 a51.28178124737215,51.28178124737215 0 0,0 0.646619589488616,-0.6009624372810205 l 20.423354129185327 22.3578371410919" fill="#fff316" stroke="none" /><path d="M 86.65592168130627 83.78471172551755 l -40.03223495608118 -48.64586482344734 a84.0,84.0 0 0,0 1.124386405741998,-0.9091756109434628 l 39.18894515177469 49.32774653165494" fill="#4dd2ff" stroke="none" /><path d="M 87.51073957382395 83.11751280151077 l -15.619566468320402 -21.11391082811375 a47.26343631583305,47.26343631583305 0 0,0 0.6582101578942924,-0.47821767207532834 l 15.253810994072328 21.379647735005744" fill="#ffae10" stroke="none" /><path d="M 89.00827224532344 82.1063720568725 l -15.253906252273012 -24.832103673727808 a50.14300994777135,50.14300994777135 0 0,0 0.7393418092312277,-0.44544516750985375 l 14.824202376824136 25.09099545069628" fill="#ffe015" stroke="none" /><line stroke="#e1ed5e" stroke-width="0.3" x1="56.762969772571076" x2="54.21961505331055" y1="26.818313649435495" y2="22.513508569990535" /><path d="M 56.25429882871897 25.957352633546506 a86.0,86.0 0 0,1 42.265352541879196,-11.944610805530505" fill="none" id="id12" stroke="none" /><text fill="#e1ed5e" style="font-size:6.75px; font-family:Arial;" text-anchor="middle"><textPath startOffset="22.20632615414155" xlink:href="#id12">December</textPath></text><path d="M 89.63071344664047 81.73862282372117 l -8.321179269677085 -14.654450179677374 a37.85214925482058,37.85214925482058 0 0,0 0.5693610536403496,-0.3168488099167234 l 8.06769412696469 14.795514387154281" fill="#ff0000" stroke="none" /><path d="M 94.28887869178378 79.79150937346287 l -8.82336655101934 -31.221000328649406 a53.44383853392156,53.44383853392156 0 0,0 0.8874275859411906,-0.24256748200899825 l 8.284641075854427 31.3682543514847" fill="#e8ff1a" stroke="none" /></svg>