<?xml version="1.0" encoding="utf-8" ?>
<svg baseProfile="full" height="200mm" version="1.1" viewBox="0,0,200,200" width="200mm" xmlns="http://www.w3.org/2000/svg" xmlns:ev="http://www.w3.org/2001/xml-events" xmlns:xlink="http://www.w3.org/1999/xlink"><defs /><rect fill="#1a1a1a" height="200" width="200" x="0" y="0" /><rect fill="#1a1a1a" height="200" width="180" x="10" y="0" /><text alignment-baseline="middle" fill="#e1ed5e" style="dominant-baseline: central; font-size:9.0px; font-family:Arial;" text-anchor="middle" x="100.0" y="100.0">2025</text><line stroke="#e1ed5e" stroke-width="0.3" x1="100.0" x2="100.0" y1="15.0" y2="10.0" /><path d="M 100.0 14.0 a86.0,86.0 0 0,1 42.46469731375804,11.215312516191453" fill="none" id="id37" stroke="none" /><text fill="#e1ed5e" style="font-size:6.75px; font-family:Arial;" text-anchor="middle"><textPath startOffset="22.20632615414155" xlink:href="#id37">January</textPath></text><line stroke="#e1ed5e" stroke-width="0.3" x1="143.23703022742887" x2="145.7803849466894" y1="26.81831364943548" y2="22.513508569990506" /><path d="M 143.74570117128098 25.957352633546492 a86.0,86.0 0 0,1 28.547481713284135,27.462654790039103" fill="none" id="id38" stroke="none" /><text fill="#e1ed5e" style="font-size:6.75px; font-family:Arial;" text-anchor="middle"><textPath startOffset="19.985693538727396" xlink:href="#id38">February</textPath></text><path d="M 111.60114157652 82.49532879139004 l 16.806646061165686 -25.359126210097898 a51.42283080130727,51.42283080130727 0 0,0 0.7336208908761116,0.49534410033264253 l -17.24067164644834 25.066070197466587" fill="red" stroke="none" /><path d="M 113.6212207817346 84.01681056812373 l 19.558842590529675 -22.950416207325826 a51.15410299728051,51.15410299728051 0 0,0 0.6652620358675931,0.5769086819034164 l -19.95099842504403 22.61034253200274" fill="red" stroke="none" /><path d="M 117.45458315368197 88.32363383020206 l 24.22542435138663 -16.20576801261856 a50.14615072155442,50.14615072155442 0 0,0 0.4737697631907152,0.7215838528146036 l -24.50079074993527 15.786366095826283" fill="red" stroke="none" /><line stroke="#e1ed5e" stroke-width="0.3" x1="172.23445277983987" x2="176.4835382374775" y1="55.19839476539836" y2="52.563006222186495" /><path d="M 173.08426987136738 54.67131705675599 a86.0,86.0 0 0,1 12.851231095245387,41.99856678651699" fill="none" id="id39" stroke="none" /><text fill="#e1ed5e" style="font-size:6.75px; font-family:Arial;" text-anchor="middle"><textPath startOffset="22.20632615414155" xlink:href="#id39">March</textPath></text><path d="M 117.84615892207809 88.93136811851018 l 7.683638059182543 -4.765583538678538 a30.041519799715218,30.041519799715218 0 0,0 0.26877747456371864,0.4417994979042668 l -7.764531332032485 4.632616267567189" fill="red" stroke="none" /><line stroke="#e1ed5e" stroke-width="0.3" x1="184.98032266829074" x2="189.97916517819016" y1="98.17113171792111" y2="98.06355123074" /><path d="M 185.9800911702706 98.14961562048488 a86.0,86.0 0 0,1 -9.607161424134198,41.387399972396054" fill="none" id="id40" stroke="none" /><text fill="#e1ed5e" style="font-size:6.75px; font-family:Arial;" text-anchor="middle"><textPath startOffset="21.466115282336823" xlink:href="#id40">April</textPath></text><line stroke="#e1ed5e" stroke-width="0.3" x1="174.80103733775053" x2="179.2010983576182" y1="140.37084112569926" y2="142.7455964860345" /><path d="M 175.68104954172406 140.8457921977663 a86.0,86.0 0 0,1 -30.038265399797805,32.042727171017184" fill="none" id="id41" stroke="none" /><text fill="#e1ed5e" style="font-size:6.75px; font-family:Arial;" text-anchor="middle"><textPath startOffset="22.206326154141568" xlink:href="#id41">May</textPath></text><line stroke="#e1ed5e" stroke-width="0.3" x1="143.8653032363475" x2="146.44561519142675" y1="172.8068346515853" y2="177.08958963109032" /><path d="M 144.38136562736335 173.6633856474863 a86.0,86.0 0 0,1 -40.68145358897372,12.25698825130547" fill="none" id="id42" stroke="none" /><text fill="#e1ed5e" style="font-size:6.75px; font-family:Arial;" text-anchor="middle"><textPath startOffset="21.466115282336833" xlink:href="#id42">June</textPath></text><path d="M 101.62511606390274 120.93702456842531 l 1.2943505368737087 16.675639108260846 a37.725796931126,37.725796931126 0 0,0 -0.6478727263169515,0.04468109638664535 l -1.007115049777827 -16.69544854916378" fill="red" stroke="none" /><line stroke="#e1ed5e" stroke-width="0.3" x1="102.19456741930631" x2="102.32365962044197" y1="184.97166512339345" y2="189.96999836594603" /><path d="M 102.22038585953345 185.97133177190398 a86.0,86.0 0 0,1 -42.740103519485714,-10.115201625700543" fill="none" id="id43" stroke="none" /><text fill="#e1ed5e" style="font-size:6.75px; font-family:Arial;" text-anchor="middle"><textPath startOffset="22.20632615414155" xlink:href="#id43">July</textPath></text><path d="M 99.81925306533755 120.99922214144158 l -0.1499878801313465 17.425627822038084 a38.42627330660156,38.42627330660156 0 0,0 -0.6613716257241506,-0.01138611232035947 l 0.4499191957481651 -17.420464232438565" fill="red" stroke="none" /><path d="M 99.09653310690486 120.98055641714683 l -0.5093770922562808 11.828894786695562 a32.83985713160547,32.83985713160547 0 0,0 -0.5645514407669501,-0.029180860951306682 l 0.7129166014367198 -11.818374118982053" fill="red" stroke="none" /><path d="M 98.37488393609728 120.93702456842531 l -1.3977777737734853 18.008133843938282 a39.062299611235844,39.062299611235844 0 0,0 -0.6699290079556646,-0.05780429372066807 l 1.7075510994706915 -17.98140529793895" fill="red" stroke="none" /><path d="M 95.86986931433489 120.58985236759428 l -3.803233720764925 18.960179904669445 a40.33786463785995,40.33786463785995 0 0,0 -0.6796133779324023,-0.142419591102841 l 4.129038560126714 -18.89190433284006" fill="red" stroke="none" /><path d="M 92.7421414339146 119.70592522655815 l -6.302710348529689 17.112587372967955 a39.236359404632424,39.236359404632424 0 0,0 -0.6317610258885027,-0.23887796234891973 l 6.596341595178474 -17.0015611605124" fill="red" stroke="none" /><path d="M 90.7491055286396 118.85261126421891 l -7.087428675288982 14.4436344065713 a37.08882283133228,37.08882283133228 0 0,0 -0.5707194365043543,-0.28617057340443525 l 7.3350020194760965 -14.319495992257563" fill="red" stroke="none" /><line stroke="#e1ed5e" stroke-width="0.3" x1="58.666819895761336" x2="56.23545636021788" y1="174.27360380694188" y2="178.64263932499728" /><path d="M 58.180547188652646 175.14741091055294 a86.0,86.0 0 0,1 -31.652253787137756,-30.449443065178592" fill="none" id="id44" stroke="none" /><text fill="#e1ed5e" style="font-size:6.75px; font-family:Arial;" text-anchor="middle"><textPath startOffset="22.20632615414155" xlink:href="#id44">August</textPath></text><path d="M 88.54995079064634 117.60387380957326 l -9.38185999902054 14.424137093395375 a38.20683085086519,38.20683085086519 0 0,0 -0.5482230864918226,-0.36333236803557356 l 9.628757784252324 -14.260506704268483" fill="red" stroke="none" /><path d="M 83.06392112726016 112.41649034213515 l -15.830893504009502 11.606236471671838 a40.629618288995225,40.629618288995225 0 0,0 -0.4086569719381613,-0.5675887918732869 l 16.02833026832327 -11.332014074347414" fill="red" stroke="none" /><line stroke="#e1ed5e" stroke-width="0.3" x1="26.63291911575756" x2="22.317208475507996" y1="142.92168965132927" y2="145.44649492493687" /><path d="M 25.769776987707644 143.4266507060508 a86.0,86.0 0 0,1 -11.730757126820373,-40.83630448921669" fill="none" id="id45" stroke="none" /><text fill="#e1ed5e" style="font-size:6.75px; font-family:Arial;" text-anchor="middle"><textPath startOffset="21.46611528233685" xlink:href="#id45">September</textPath></text><path d="M 79.50377843672027 104.57218783832718 l -27.52232786056316 6.13953417404335 a49.19880158337544,49.19880158337544 0 0,0 -0.1772702197815052,-0.8281474505242561 l 27.623932119069107 -5.664872904102929" fill="red" stroke="none" /><path d="M 79.1416061653843 102.43462659150553 l -27.86888200315409 3.252902488004969 a49.05808187852824,49.05808187852824 0 0,0 -0.09068199196654379,-0.8396026223057413 l 27.920746296621687 -2.772703543814446" fill="red" stroke="none" /><path d="M 79.10278846688536 102.07522291339032 l -23.680982691352376 2.351668681480264 a44.79746387360607,44.79746387360607 0 0,0 -0.06959692117331098,-0.7679962257295918 l 23.717954208802762 -1.943691067202106" fill="red" stroke="none" /><path d="M 79.0095281055655 100.63252640178507 l -30.297851291469094 0.9129947604605079 a51.31160425171528,51.31160425171528 0 0,0 -0.019004687685787922,-0.8830731592722109 l 30.30907804183989 -0.39133178539816804" fill="red" stroke="none" /><line stroke="#e1ed5e" stroke-width="0.3" x1="15.007084014347285" x2="10.007500721073583" y1="101.09737516637583" y2="101.16192664675087" /><path d="M 14.007167355692545 101.11028546245083 a86.0,86.0 0 0,1 10.666146001902534,-42.60595125391555" fill="none" id="id46" stroke="none" /><text fill="#e1ed5e" style="font-size:6.75px; font-family:Arial;" text-anchor="middle"><textPath startOffset="22.20632615414155" xlink:href="#id46">October</textPath></text><path d="M 79.03285615573316 98.82574320788736 l -44.62630484903669 -2.499278965465748 a65.69623563373514,65.69623563373514 0 0,0 0.07295225658159595,-1.1285391198842023 l 44.57667200145068 3.267077149602962" fill="red" stroke="none" /><path d="M 79.05617556472873 98.46500227214037 l -28.328212385909577 -2.0762082771027157 a49.40419436968968,49.40419436968968 0 0,0 0.06946115905938018,-0.8476020791886202 l 28.2882767430307 2.5635242734991146" fill="red" stroke="none" /><path d="M 79.12142395522702 97.74499172005258 l -31.06463079009654 -3.3551617454637124 a52.24529398906717,52.24529398906717 0 0,0 0.10426580134788206,-0.8932857118968109 l 31.00227463574507 3.889391195685385" fill="red" stroke="none" /><path d="M 80.2630227832202 92.82701384747504 l -34.340413104620424 -12.480295486282062 a57.53794941729624,57.53794941729624 0 0,0 0.3463110853986522,-0.9279415338292535 l 34.12049743072015 13.069560157140657" fill="red" stroke="none" /><path d="M 80.95270993114464 91.15688171328213 l -34.08913911861255 -15.826623547419311 a58.58392500471243,58.58392500471243 0 0,0 0.43252178783666617,-0.9110011919921482 l 33.81165913693413 16.41106715505199" fill="red" stroke="none" /><path d="M 81.26839172434947 90.50648371742162 l -29.944869291370242 -15.17659882770701 a54.57118331030955,54.57118331030955 0 0,0 0.43186742321255567,-0.834230401006709 l 29.679192434997574 15.689801950974054" fill="red" stroke="none" /><line stroke="#e1ed5e" stroke-width="0.3" x1="26.266209847984243" x2="21.928928074336255" y1="57.711370442889674" y2="55.22380399835377" /><path d="M 25.398753493254645 57.213857153982495 a86.0,86.0 0 0,1 29.58750427330803,-30.492523968695096" fill="none" id="id47" stroke="none" /><text fill="#e1ed5e" style="font-size:6.75px; font-family:Arial;" text-anchor="middle"><textPath startOffset="21.46611528233685" xlink:href="#id47">November</textPath></text><path d="M 82.54541684631803 88.32363383020206 l -12.34459738743666 -8.258005249700606 a35.85206165358839,35.85206165358839 0 0,0 0.34755250514316766,-0.5099904155709929 l 12.200620416624753 8.469273688542014" fill="red" stroke="none" /><path d="M 83.84228863543731 86.58626213691792 l -20.504985380934418 -17.022738714681125 a47.650104292866054,47.650104292866054 0 0,0 0.5293458856074891,-0.626578564272105 l 20.208928881839803 17.373176228582345" fill="red" stroke="none" /><path d="M 84.07557802195018 86.31012108654704 l -22.02073385339088 -18.93074552117678 a50.0393843844774,50.0393843844774 0 0,0 0.5671324107172107,-0.6483303841998889 l 21.691609579095825 19.306991461579614" fill="red" stroke="none" /><path d="M 84.80347519578584 85.50635884689758 l -23.933627880037104 -22.82662769641583 a54.07375810957787,54.07375810957787 0 0,0 0.6482046339073361,-0.6680318540374457 l 23.53715898242665 23.2352237460034" fill="red" stroke="none" /><path d="M 85.05521093208273 85.24692304244772 l -32.274772242718306 -31.86075069513529 a66.3516081101531,66.3516081101531 0 0,0 0.809376504721399,-0.8059007847911193 l 31.721559937829596 32.41158733057652" fill="red" stroke="none" /><path d="M 85.57189188830299 84.74124197986013 l -20.02816112858041 -21.181215297494397 a50.15083394469514,50.15083394469514 0 0,0 0.6323593071270757,-0.5877090589676842 l 19.66059393765848 21.52282894253673" fill="red" stroke="none" /><path d="M 85.83668400450813 84.49514656593479 l -19.583246575592604 -21.438155303063834 a50.036150730404046,50.036150730404046 0 0,0 0.6409130842605,-0.5754180951791596 l 19.21132250373613 21.77207240701227" fill="red" stroke="none" /><path d="M 86.10567301691215 84.25364557470407 l -14.907907765474514 -16.895039227197895 a43.53193432514064,43.53193432514064 0 0,0 0.5661352962427282,-0.49094695011184364 l 14.614878670585012 17.149151170729418" fill="red" stroke="none" /><path d="M 86.93701828274178 83.55741782278169 l -37.04133917214862 -46.62452083873107 a80.54751675013341,80.54751675013341 0 0,0 1.0930200017399467,-0.8531194485540096 l 36.23328661524924 47.255218676508306" fill="red" stroke="none" /><path d="M 87.80319425747018 82.90503203632743 l -21.389697797466095 -29.979668965726862 a57.82797473608198,57.82797473608198 0 0,0 0.8152886942998416,-0.5711618320251047 l 20.870477963582594 30.34341564051591" fill="red" stroke="none" /><path d="M 88.39885842347998 82.49532879139004 l -16.977769395597072 -25.61732991234429 a51.73259256047172,51.73259256047172 0 0,0 0.7465086374994955,-0.485549983318353 l 16.53429373231329 25.905778819822174" fill="red" stroke="none" /><path d="M 89.00827224532344 82.1063720568725 l -32.97518326402967 -53.68088382938249 a84.0,84.0 0 0,0 1.2385517351294033,-0.746213562165523 l 32.046269462682616 54.240544001006626" fill="red" stroke="none" /><line stroke="#e1ed5e" stroke-width="0.3" x1="56.762969772571076" x2="54.21961505331055" y1="26.818313649435495" y2="22.513508569990535" /><path d="M 56.25429882871897 25.957352633546506 a86.0,86.0 0 0,1 42.265352541879196,-11.944610805530505" fill="none" id="id48" stroke="none" /><text fill="#e1ed5e" style="font-size:6.75px; font-family:Arial;" text-anchor="middle"><textPath startOffset="22.20632615414155" xlink:href="#id48">December</textPath></text></svg>