<?xml version="1.0" encoding="utf-8" ?>
<svg baseProfile="full" height="200mm" version="1.1" viewBox="0,0,200,200" width="200mm" xmlns="http://www.w3.org/2000/svg" xmlns:ev="http://www.w3.org/2001/xml-events" xmlns:xlink="http://www.w3.org/1999/xlink"><defs /><rect fill="#1a1a1a" height="200" width="200" x="0" y="0" /><rect fill="#1a1a1a" height="200" width="180" x="10" y="0" /><text alignment-baseline="middle" fill="#e1ed5e" style="dominant-baseline: central; font-size:9.0px; font-family:Arial;" text-anchor="middle" x="100.0" y="100.0">2025</text><line stroke="#e1ed5e" stroke-width="0.3" x1="100.0" x2="100.0" y1="15.0" y2="10.0" /><path d="M 100.0 14.0 a86.0,86.0 0 0,1 42.46469731375804,11.215312516191453" fill="none" id="id37" stroke="none" /><text fill="#e1ed5e" style="font-size:6.75px; font-family:Arial;" text-anchor="middle"><textPath startOffset="22.20632615414155" xlink:href="#id37">January</textPath></text><line stroke="#e1ed5e" stroke-width="0.3" x1="143.23703022742887" x2="145.7803849466894" y1="26.81831364943548" y2="22.513508569990506" /><path d="M 143.74570117128098 25.957352633546492 a86.0,86.0 0 0,1 28.547481713284135,27.462654790039103" fill="none" id="id38" stroke="none" /><text fill="#e1ed5e" style="font-size:6.75px; font-family:Arial;" text-anchor="middle"><textPath startOffset="19.985693538727396" xlink:href="#id38">February</textPath></text><path d="M 111.60114157652 82.49532879139004 l 23.346883296435855 -35.227525942536516 a63.26175036234868,63.26175036234868 0 0,0 0.9025201634373768,0.6093856431161155 l -23.949808154279772 34.82042838712173" fill="red" stroke="none" /><path d="M 113.6212207817346 84.01681056812373 l 27.1700857929999 -31.881476342573873 a62.88844823792202,62.88844823792202 0 0,0 0.8178678670123085,0.7092469548692821 l -27.714847458658973 31.40906439428492" fill="red" stroke="none" /><path d="M 117.45458315368197 88.32363383020206 l 33.65264866530012 -22.512176025052597 a61.48825547702789,61.48825547702789 0 0,0 0.5809274653625636,0.884792384889699 l -34.03517276602061 21.929565576185222" fill="red" stroke="none" /><line stroke="#e1ed5e" stroke-width="0.3" x1="172.23445277983987" x2="176.4835382374775" y1="55.19839476539836" y2="52.563006222186495" /><path d="M 173.08426987136738 54.67131705675599 a86.0,86.0 0 0,1 12.851231095245387,41.99856678651699" fill="none" id="id39" stroke="none" /><text fill="#e1ed5e" style="font-size:6.75px; font-family:Arial;" text-anchor="middle"><textPath startOffset="22.20632615414155" xlink:href="#id39">March</textPath></text><path d="M 117.84615892207809 88.93136811851018 l 10.673694228278737 -6.620090785039517 a33.55999006691311,33.55999006691311 0 0,0 0.30025675920210587,0.49354316492919065 l -10.786066785767067 6.435379846903245" fill="red" stroke="none" /><line stroke="#e1ed5e" stroke-width="0.3" x1="184.98032266829074" x2="189.97916517819016" y1="98.17113171792111" y2="98.06355123074" /><path d="M 185.9800911702706 98.14961562048488 a86.0,86.0 0 0,1 -9.607161424134198,41.387399972396054" fill="none" id="id40" stroke="none" /><text fill="#e1ed5e" style="font-size:6.75px; font-family:Arial;" text-anchor="middle"><textPath startOffset="21.466115282336823" xlink:href="#id40">April</textPath></text><line stroke="#e1ed5e" stroke-width="0.3" x1="174.80103733775053" x2="179.2010983576182" y1="140.37084112569926" y2="142.7455964860345" /><path d="M 175.68104954172406 140.8457921977663 a86.0,86.0 0 0,1 -30.038265399797805,32.042727171017184" fill="none" id="id41" stroke="none" /><text fill="#e1ed5e" style="font-size:6.75px; font-family:Arial;" text-anchor="middle"><textPath startOffset="22.206326154141568" xlink:href="#id41">May</textPath></text><line stroke="#e1ed5e" stroke-width="0.3" x1="143.8653032363475" x2="146.44561519142675" y1="172.8068346515853" y2="177.08958963109032" /><path d="M 144.38136562736335 173.6633856474863 a86.0,86.0 0 0,1 -40.68145358897372,12.25698825130547" fill="none" id="id42" stroke="none" /><text fill="#e1ed5e" style="font-size:6.75px; font-family:Arial;" text-anchor="middle"><textPath startOffset="21.466115282336833" xlink:href="#id42">June</textPath></text><path d="M 101.62511606390274 120.93702456842531 l 1.7980417282003278 23.164895526278773 a44.23457205975096,44.23457205975096 0 0,0 -0.7596492355120976,0.05238985889236591 l -1.3990297319092997 -23.192413729687427" fill="red" stroke="none" /><line stroke="#e1ed5e" stroke-width="0.3" x1="102.19456741930631" x2="102.32365962044197" y1="184.97166512339345" y2="189.96999836594603" /><path d="M 102.22038585953345 185.97133177190398 a86.0,86.0 0 0,1 -42.740103519485714,-10.115201625700543" fill="none" id="id43" stroke="none" /><text fill="#e1ed5e" style="font-size:6.75px; font-family:Arial;" text-anchor="middle"><textPath startOffset="22.20632615414155" xlink:href="#id43">July</textPath></text><path d="M 99.81925306533755 120.99922214144158 l -0.20835504719752992 24.206739265385075 a45.207635937613325,45.207635937613325 0 0,0 -0.7780886644052538,-0.013395501989394152 l 0.6250034014954516 -24.19956628611652" fill="red" stroke="none" /><path d="M 99.09653310690486 120.98055641714683 l -0.7075990940431806 16.43206057328283 a37.447288869656504,37.447288869656504 0 0,0 -0.6437580041672739,-0.03327493554949698 l 0.9903451666239433 -16.41744583097113" fill="red" stroke="none" /><path d="M 98.37488393609728 120.93702456842531 l -1.9417172492283716 25.015925111465293 a46.09116926447213,46.09116926447213 0 0,0 -0.7904760244064782,-0.06820559753543613 l 2.3720375913763916 -24.978795261651193" fill="red" stroke="none" /><path d="M 95.86986931433489 120.58985236759428 l -5.28324649097832 26.338455983587448 a47.86311517832227,47.86311517832227 0 0,0 -0.8063989920323399,-0.1689887492509193 l 5.735836944440047 -26.243611253609988" fill="red" stroke="none" /><path d="M 92.7421414339146 119.70592522655815 l -8.755384174976506 23.771880412232246 a46.332963711040605,46.332963711040605 0 0,0 -0.7460264186255229,-0.2820833565810668 l 9.163280814362311 -23.617648805544547" fill="red" stroke="none" /><path d="M 90.7491055286396 118.85261126421891 l -9.845472413209622 20.06431536901285 a43.349722107142114,43.349722107142114 0 0,0 -0.6670615858076774,-0.3344785270953331 l 10.18938790670006 -19.891869001008214" fill="red" stroke="none" /><line stroke="#e1ed5e" stroke-width="0.3" x1="58.666819895761336" x2="56.23545636021788" y1="174.27360380694188" y2="178.64263932499728" /><path d="M 58.180547188652646 175.14741091055294 a86.0,86.0 0 0,1 -31.652253787137756,-30.449443065178592" fill="none" id="id44" stroke="none" /><text fill="#e1ed5e" style="font-size:6.75px; font-family:Arial;" text-anchor="middle"><textPath startOffset="22.20632615414155" xlink:href="#id44">August</textPath></text><path d="M 88.54995079064634 117.60387380957326 l -13.032772255896496 20.037230756553225 a44.90279835218939,44.90279835218939 0 0,0 -0.6443023448043912,-0.42700846140331944 l 13.37574929944085 -19.809924274058588" fill="red" stroke="none" /><path d="M 83.06392112726016 112.41649034213515 l -21.991420642244382 16.12275569014784 a48.26840356361785,48.26840356361785 0 0,0 -0.4854886772573967,-0.6743013106708573 l 22.265689111877386 -15.741820774025845" fill="red" stroke="none" /><line stroke="#e1ed5e" stroke-width="0.3" x1="26.63291911575756" x2="22.317208475507996" y1="142.92168965132927" y2="145.44649492493687" /><path d="M 25.769776987707644 143.4266507060508 a86.0,86.0 0 0,1 -11.730757126820373,-40.83630448921669" fill="none" id="id45" stroke="none" /><text fill="#e1ed5e" style="font-size:6.75px; font-family:Arial;" text-anchor="middle"><textPath startOffset="21.46611528233685" xlink:href="#id45">September</textPath></text><path d="M 79.50377843672027 104.57218783832718 l -38.232528623991634 8.528708662882856 a60.1722493155636,60.1722493155636 0 0,0 -0.2168090993607015,-1.0128599327474728 l 38.373671762076775 -7.8693349107192185" fill="red" stroke="none" /><path d="M 79.1416061653843 102.43462659150553 l -38.7139428867494 4.518756120986009 a59.97676911596756,59.97676911596756 0 0,0 -0.11086476859450724,-1.026470067702188 l 38.78598995684496 -3.85168973139904" fill="red" stroke="none" /><path d="M 79.10278846688536 102.07522291339032 l -32.89633977105213 3.2668108829439366 a54.05814912661366,54.05814912661366 0 0,0 -0.08398423522713513,-0.9267590374379995 l 32.94769860255634 -2.700070456957371" fill="red" stroke="none" /><path d="M 79.0095281055655 100.63252640178507 l -42.08813558995338 1.2682829188615916 a63.10724045815134,63.10724045815134 0 0,0 -0.02337353144788869,-1.0860761618551005 l 42.10373118408628 -0.5436169412163622" fill="red" stroke="none" /><line stroke="#e1ed5e" stroke-width="0.3" x1="15.007084014347285" x2="10.007500721073583" y1="101.09737516637583" y2="101.16192664675087" /><path d="M 14.007167355692545 101.11028546245083 a86.0,86.0 0 0,1 10.666146001902534,-42.60595125391555" fill="none" id="id46" stroke="none" /><text fill="#e1ed5e" style="font-size:6.75px; font-family:Arial;" text-anchor="middle"><textPath startOffset="22.20632615414155" xlink:href="#id46">October</textPath></text><path d="M 79.03285615573316 98.82574320788736 l -61.992447955994216 -3.471863102227944 a83.08959201812542,83.08959201812542 0 0,0 0.09226667521652918,-1.4273246274025735 l 61.92350068977328 4.538446793883529" fill="red" stroke="none" /><path d="M 79.05617556472873 98.46500227214037 l -39.35201979999378 -2.8841561944126073 a60.45756986045734,60.45756986045734 0 0,0 0.08500195034041995,-1.037239096198155 l 39.29654336583387 3.5611092078185407" fill="red" stroke="none" /><path d="M 79.12142395522702 97.74499172005258 l -43.15330417882012 -4.6608091481742235 a64.40427171910017,64.40427171910017 0 0,0 0.12853144251468712,-1.1011789066366635 l 43.066682383301846 5.402931793135749" fill="red" stroke="none" /><path d="M 80.2630227832202 92.82701384747504 l -47.70384371677319 -17.336951177696964 a71.75654225311422,71.75654225311422 0 0,0 0.4318903659896533,-1.1572514584717255 l 47.39834876228191 18.155525773198033" fill="red" stroke="none" /><path d="M 80.95270993114464 91.15688171328213 l -47.35478749190799 -21.985489049597692 a73.20955494115752,73.20955494115752 0 0,0 0.5405019821961231,-1.1384350196960067 l 46.96932731587012 22.79736648493423" fill="red" stroke="none" /><path d="M 81.26839172434947 90.50648371742162 l -41.59779209535856 -21.082509881970182 a67.63527130972913,67.63527130972913 0 0,0 0.5352544798730172,-1.0339412870355227 l 41.228728182325426 21.79542389126604" fill="red" stroke="none" /><line stroke="#e1ed5e" stroke-width="0.3" x1="26.266209847984243" x2="21.928928074336255" y1="57.711370442889674" y2="55.22380399835377" /><path d="M 25.398753493254645 57.213857153982495 a86.0,86.0 0 0,1 29.58750427330803,-30.492523968695096" fill="none" id="id47" stroke="none" /><text fill="#e1ed5e" style="font-size:6.75px; font-family:Arial;" text-anchor="middle"><textPath startOffset="21.46611528233685" xlink:href="#id47">November</textPath></text><path d="M 82.54541684631803 88.32363383020206 l -17.148446721438297 -11.471574050197043 a41.631680400470586,41.631680400470586 0 0,0 0.40358055155400135,-0.5922046601810886 l 16.948441704215558 11.765056733648548" fill="red" stroke="none" /><path d="M 83.84228863543731 86.58626213691792 l -28.484416161411996 -23.647067517873083 a58.02088283997772,58.02088283997772 0 0,0 0.6445550553654212,-0.7629498824227359 l 28.07315049255945 24.133876349924936" fill="red" stroke="none" /><path d="M 84.07557802195018 86.31012108654704 l -30.590011921827358 -26.297567330741145 a61.33994145871315,61.33994145871315 0 0,0 0.6952097692777376,-0.7947449454446665 l 30.132810288971775 26.820227832388756" fill="red" stroke="none" /><path d="M 84.80347519578584 85.50635884689758 l -33.2473007964799 -31.709516041444342 a66.94427513667213,66.94427513667213 0 0,0 0.8024888758281516,-0.8270353273045901 l 32.69654765694863 32.27711556429906" fill="red" stroke="none" /><path d="M 85.05521093208273 85.24692304244772 l -44.83436720375183 -44.259230872656865 a84.0,84.0 0 0,0 1.0246567993307472,-1.0202565973995625 l 44.06587460425377 45.02442332070654" fill="red" stroke="none" /><path d="M 85.57189188830299 84.74124197986013 l -27.822037711118924 -29.423798170530688 a61.49476115720463,61.49476115720463 0 0,0 0.7753965686831474,-0.7206466048201411 l 27.31143325864092 29.898349361425478" fill="red" stroke="none" /><line stroke="#e1ed5e" stroke-width="0.3" x1="56.762969772571076" x2="54.21961505331055" y1="26.818313649435495" y2="22.513508569990535" /><path d="M 56.25429882871897 25.957352633546506 a86.0,86.0 0 0,1 42.265352541879196,-11.944610805530505" fill="none" id="id48" stroke="none" /><text fill="#e1ed5e" style="font-size:6.75px; font-family:Arial;" text-anchor="middle"><textPath startOffset="22.20632615414155" xlink:href="#id48">December</textPath></text></svg>