<?xml version="1.0" encoding="utf-8" ?>
<svg baseProfile="full" height="200mm" version="1.1" viewBox="0,0,200,200" width="200mm" xmlns="http://www.w3.org/2000/svg" xmlns:ev="http://www.w3.org/2001/xml-events" xmlns:xlink="http://www.w3.org/1999/xlink"><defs /><rect fill="#1a1a1a" height="200" width="200" x="0" y="0" /><rect fill="#1a1a1a" height="200" width="180" x="10" y="0" /><text alignment-baseline="middle" fill="#e1ed5e" style="dominant-baseline: central; font-size:9.0px; font-family:Arial;" text-anchor="middle" x="100.0" y="100.0">2025</text><line stroke="#e1ed5e" stroke-width="0.3" x1="100.0" x2="100.0" y1="15.0" y2="10.0" /><path d="M 100.0 14.0 a86.0,86.0 0 0,1 42.46469731375804,11.215312516191453" fill="none" id="id37" stroke="none" /><text fill="#e1ed5e" style="font-size:6.75px; font-family:Arial;" text-anchor="middle"><textPath startOffset="22.20632615414155" xlink:href="#id37">January</textPath></text><line stroke="#e1ed5e" stroke-width="0.3" x1="143.23703022742887" x2="145.7803849466894" y1="26.81831364943548" y2="22.513508569990506" /><path d="M 143.74570117128098 25.957352633546492 a86.0,86.0 0 0,1 28.547481713284135,27.462654790039103" fill="none" id="id38" stroke="none" /><text fill="#e1ed5e" style="font-size:6.75px; font-family:Arial;" text-anchor="middle"><textPath startOffset="19.985693538727396" xlink:href="#id38">February</textPath></text><path d="M 111.60114157652 82.49532879139004 l 17.78107232072051 -26.829413524327833 a53.18670475420058,53.18670475420058 0 0,0 0.7587850983020836,0.5123350855172604 l -18.240262113429136 26.519366526511902" fill="red" stroke="none" /><path d="M 113.6212207817346 84.01681056812373 l 20.692837425510426 -24.28104982326216 a52.90239648111634,52.90239648111634 0 0,0 0.6879986926400226,0.5966256866057309 l -21.107729916797215 23.921259143236757" fill="red" stroke="none" /><path d="M 117.45458315368197 88.32363383020206 l 25.62998118866037 -17.14535618805098 a51.83600451657482,51.83600451657482 0 0,0 0.4897351288423926,0.7459002000228864 l -25.92131295286069 16.70163792405042" fill="red" stroke="none" /><line stroke="#e1ed5e" stroke-width="0.3" x1="172.23445277983987" x2="176.4835382374775" y1="55.19839476539836" y2="52.563006222186495" /><path d="M 173.08426987136738 54.67131705675599 a86.0,86.0 0 0,1 12.851231095245387,41.99856678651699" fill="none" id="id39" stroke="none" /><text fill="#e1ed5e" style="font-size:6.75px; font-family:Arial;" text-anchor="middle"><textPath startOffset="22.20632615414155" xlink:href="#id39">March</textPath></text><path d="M 117.84615892207809 88.93136811851018 l 8.1291248425975 -5.041885528099293 a30.56573470178809,30.56573470178809 0 0,0 0.2734675554400247,0.449508757691181 l -8.214708196323748 4.901208997201031" fill="red" stroke="none" /><line stroke="#e1ed5e" stroke-width="0.3" x1="184.98032266829074" x2="189.97916517819016" y1="98.17113171792111" y2="98.06355123074" /><path d="M 185.9800911702706 98.14961562048488 a86.0,86.0 0 0,1 -9.607161424134198,41.387399972396054" fill="none" id="id40" stroke="none" /><text fill="#e1ed5e" style="font-size:6.75px; font-family:Arial;" text-anchor="middle"><textPath startOffset="21.466115282336823" xlink:href="#id40">April</textPath></text><line stroke="#e1ed5e" stroke-width="0.3" x1="174.80103733775053" x2="179.2010983576182" y1="140.37084112569926" y2="142.7455964860345" /><path d="M 175.68104954172406 140.8457921977663 a86.0,86.0 0 0,1 -30.038265399797805,32.042727171017184" fill="none" id="id41" stroke="none" /><text fill="#e1ed5e" style="font-size:6.75px; font-family:Arial;" text-anchor="middle"><textPath startOffset="22.206326154141568" xlink:href="#id41">May</textPath></text><line stroke="#e1ed5e" stroke-width="0.3" x1="143.8653032363475" x2="146.44561519142675" y1="172.8068346515853" y2="177.08958963109032" /><path d="M 144.38136562736335 173.6633856474863 a86.0,86.0 0 0,1 -40.68145358897372,12.25698825130547" fill="none" id="id42" stroke="none" /><text fill="#e1ed5e" style="font-size:6.75px; font-family:Arial;" text-anchor="middle"><textPath startOffset="21.466115282336833" xlink:href="#id42">June</textPath></text><path d="M 101.62511606390274 120.93702456842531 l 1.3693952035852273 17.642469764586444 a38.69553566914404,38.69553566914404 0 0,0 -0.664526245423835,0.045829620567654744 l -1.065506197382462 -17.663427729670385" fill="red" stroke="none" /><line stroke="#e1ed5e" stroke-width="0.3" x1="102.19456741930631" x2="102.32365962044197" y1="184.97166512339345" y2="189.96999836594603" /><path d="M 102.22038585953345 185.97133177190398 a86.0,86.0 0 0,1 -42.740103519485714,-10.115201625700543" fill="none" id="id43" stroke="none" /><text fill="#e1ed5e" style="font-size:6.75px; font-family:Arial;" text-anchor="middle"><textPath startOffset="22.20632615414155" xlink:href="#id43">July</textPath></text><path d="M 99.81925306533755 120.99922214144158 l -0.15868397145635227 18.43594179409571 a39.43662470296779,39.43662470296779 0 0,0 -0.6787612315346262,-0.011685490154641452 l 0.4760048928836464 -18.43047882666191" fill="red" stroke="none" /><path d="M 99.09653310690486 120.98055641714683 l -0.5389100765830643 12.514717862859513 a33.526315789473685,33.526315789473685 0 0,0 -0.5763523820065353,-0.029790834818239083 l 0.7542505270030885 -12.503587221279073" fill="red" stroke="none" /><path d="M 98.37488393609728 120.93702456842531 l -1.4788190096530311 19.052220715241997 a40.109526939346445,40.109526939346445 0 0,0 -0.6878892399954444,-0.05935397811377542 l 1.8065525673900171 -19.02394248484956" fill="red" stroke="none" /><path d="M 95.86986931433489 120.58985236759428 l -4.023739989252423 20.059465099214215 a41.45904747459427,41.45904747459427 0 0,0 -0.6985030951198035,-0.14637811500074102 l 4.368434545801613 -19.987231003486933" fill="red" stroke="none" /><path d="M 92.7421414339146 119.70592522655815 l -6.668132839586141 18.104751689659096 a40.293678480543335,40.293678480543335 0 0,0 -0.6487853623515359,-0.24531510968467438 l 6.97878842269796 -17.987288329867788" fill="red" stroke="none" /><path d="M 90.7491055286396 118.85261126421891 l -7.498348057347089 15.281056495306395 a38.02163068574414,38.02163068574414 0 0,0 -0.5850733990298792,-0.2933679481981074 l 7.760275364059728 -15.149720706198984" fill="red" stroke="none" /><line stroke="#e1ed5e" stroke-width="0.3" x1="58.666819895761336" x2="56.23545636021788" y1="174.27360380694188" y2="178.64263932499728" /><path d="M 58.180547188652646 175.14741091055294 a86.0,86.0 0 0,1 -31.652253787137756,-30.449443065178592" fill="none" id="id44" stroke="none" /><text fill="#e1ed5e" style="font-size:6.75px; font-family:Arial;" text-anchor="middle"><textPath startOffset="22.20632615414155" xlink:href="#id44">August</textPath></text><path d="M 88.54995079064634 117.60387380957326 l -9.92580735849022 15.260428754686439 a39.20445927498862,39.20445927498862 0 0,0 -0.5625378810368021,-0.3728194332980973 l 10.187019938266983 -15.087311300297022" fill="red" stroke="none" /><path d="M 83.06392112726016 112.41649034213515 l -16.748746970214572 12.279150124487561 a41.767716601783036,41.767716601783036 0 0,0 -0.4201040844107333,-0.5834878299049394 l 16.957630847000914 -11.989028689131484" fill="red" stroke="none" /><line stroke="#e1ed5e" stroke-width="0.3" x1="26.63291911575756" x2="22.317208475507996" y1="142.92168965132927" y2="145.44649492493687" /><path d="M 25.769776987707644 143.4266507060508 a86.0,86.0 0 0,1 -11.730757126820373,-40.83630448921669" fill="none" id="id45" stroke="none" /><text fill="#e1ed5e" style="font-size:6.75px; font-family:Arial;" text-anchor="middle"><textPath startOffset="21.46611528233685" xlink:href="#id45">September</textPath></text><path d="M 79.50377843672027 104.57218783832718 l -29.118034635954732 6.495495934578405 a50.8337293762745,50.8337293762745 0 0,0 -0.1831610951655926,-0.8556676591453156 l 29.225529769844766 -5.993314456016925" fill="red" stroke="none" /><path d="M 79.1416061653843 102.43462659150553 l -29.484681511841117 3.441501307337958 a50.68485093617811,50.68485093617811 0 0,0 -0.09368901248117571,-0.8674438976754266 l 29.539552825823346 -2.9334610877777494" fill="red" stroke="none" /><path d="M 79.10278846688536 102.07522291339032 l -25.053973548810614 2.488015202295143 a46.177208150058135,46.177208150058135 0 0,0 -0.07174047898538922,-0.791650207566084 l 25.09308862407308 -2.056383606180493" fill="red" stroke="none" /><path d="M 79.0095281055655 100.63252640178507 l -32.05447910400523 0.9659289429375428 a53.069029442000776,53.069029442000776 0 0,0 -0.019655599255589323,-0.9133184622129799 l 32.06635676594583 -0.4140206649344341" fill="red" stroke="none" /><line stroke="#e1ed5e" stroke-width="0.3" x1="15.007084014347285" x2="10.007500721073583" y1="101.09737516637583" y2="101.16192664675087" /><path d="M 14.007167355692545 101.11028546245083 a86.0,86.0 0 0,1 10.666146001902534,-42.60595125391555" fill="none" id="id46" stroke="none" /><text fill="#e1ed5e" style="font-size:6.75px; font-family:Arial;" text-anchor="middle"><textPath startOffset="22.20632615414155" xlink:href="#id46">October</textPath></text><path d="M 79.03285615573316 98.82574320788736 l -47.21367672285029 -2.6441837278460376 a68.28766199841583,68.28766199841583 0 0,0 0.07582990092825954,-1.173055004251551 l 47.161166230917615 3.4564977963506003" fill="red" stroke="none" /><path d="M 79.05617556472873 98.46500227214037 l -29.970643239431222 -2.1965839819370476 a51.05103055429159,51.05103055429159 0 0,0 0.07177657279343264,-0.8758559914719874 l 29.928392182818293 2.7121538906168134" fill="red" stroke="none" /><path d="M 79.12142395522702 97.74499172005258 l -32.86571542501304 -3.549689416120619 a54.05685322817129,54.05685322817129 0 0,0 0.1078811255490221,-0.9242596018108958 l 32.79974394646043 4.114892756256377" fill="red" stroke="none" /><path d="M 80.2630227832202 92.82701384747504 l -36.33142309979266 -13.203885880497419 a59.65636955019634,59.65636955019634 0 0,0 0.35906149418076383,-0.9621062902608959 l 36.098757017110266 13.827315307787655" fill="red" stroke="none" /><path d="M 80.95270993114464 91.15688171328213 l -36.065580593128246 -16.744229447404837 a60.7629893658257,60.7629893658257 0 0,0 0.4486096961358125,-0.9448864297982892 l 35.77201270315068 17.36255829284366" fill="red" stroke="none" /><path d="M 81.26839172434947 90.50648371742162 l -31.68103169225942 -16.056517187064724 a56.51759441832246,56.51759441832246 0 0,0 0.44727100251465646,-0.8639852133575484 l 31.39995125658465 16.59947512268261" fill="red" stroke="none" /><line stroke="#e1ed5e" stroke-width="0.3" x1="26.266209847984243" x2="21.928928074336255" y1="57.711370442889674" y2="55.22380399835377" /><path d="M 25.398753493254645 57.213857153982495 a86.0,86.0 0 0,1 29.58750427330803,-30.492523968695096" fill="none" id="id47" stroke="none" /><text fill="#e1ed5e" style="font-size:6.75px; font-family:Arial;" text-anchor="middle"><textPath startOffset="21.46611528233685" xlink:href="#id47">November</textPath></text><path d="M 82.54541684631803 88.32363383020206 l -13.060320192223083 -8.736793054094443 a36.71316379324873,36.71316379324873 0 0,0 0.3559000922000793,-0.5222394695388696 l 12.907995634354263 8.96031054690373" fill="red" stroke="none" /><path d="M 83.84228863543731 86.58626213691792 l -21.69383627564913 -18.009693729545962 a49.19524074354956,49.19524074354956 0 0,0 0.5465108348769481,-0.6468964501034423 l 21.380614827285058 18.38044912927852" fill="red" stroke="none" /><path d="M 84.07557802195018 86.31012108654704 l -23.29746576309611 -20.028324150586265 a51.72304801388678,51.72304801388678 0 0,0 0.5862145841837578,-0.670144607159374 l 22.949259315334512 20.42638431394858" fill="red" stroke="none" /><path d="M 84.80347519578584 85.50635884689758 l -25.321266758600128 -24.150084224477343 a55.99132918752212,55.99132918752212 0 0,0 0.6711913561553314,-0.6917216919039354 l 24.901811138741678 24.5823701119314" fill="red" stroke="none" /><path d="M 85.05521093208273 85.24692304244772 l -34.146019217278244 -33.70799326890532 a68.9810320710518,68.9810320710518 0 0,0 0.8414509944816138,-0.8378375364990643 l 33.56073242262932 34.290766656054494" fill="red" stroke="none" /><path d="M 85.57189188830299 84.74124197986013 l -21.189366407923956 -22.409273074164886 a51.84095926656218,51.84095926656218 0 0,0 0.6536703481094125,-0.607515348999617 l 20.800488176019687 22.77069300923915" fill="red" stroke="none" /><path d="M 85.83668400450813 84.49514656593479 l -20.71865632011548 -22.681110108424388 a51.719626876990745,51.719626876990745 0 0,0 0.6624767312165045,-0.5947781503274436 l 20.325168601303005 23.034387267521108" fill="red" stroke="none" /><path d="M 86.10567301691215 84.25364557470407 l -15.772247786013518 -17.8745904011368 a44.838304936211806,44.838304936211806 0 0,0 0.5831247207736395,-0.5056800116484805 l 15.462229266593104 18.14343540620496" fill="red" stroke="none" /><path d="M 86.93701828274178 83.55741782278169 l -39.18894515177469 -49.32774653165494 a84.0,84.0 0 0,0 1.1398697793622974,-0.889686443107113 l 38.334042817252964 49.99501136398527" fill="red" stroke="none" /><path d="M 87.80319425747018 82.90503203632743 l -22.62984310319447 -31.717849003947936 a59.963210138699296,59.963210138699296 0 0,0 0.84539234727001,-0.5922513647284318 l 22.0805196163408 32.10268521144031" fill="red" stroke="none" /><line stroke="#e1ed5e" stroke-width="0.3" x1="56.762969772571076" x2="54.21961505331055" y1="26.818313649435495" y2="22.513508569990535" /><path d="M 56.25429882871897 25.957352633546506 a86.0,86.0 0 0,1 42.265352541879196,-11.944610805530505" fill="none" id="id48" stroke="none" /><text fill="#e1ed5e" style="font-size:6.75px; font-family:Arial;" text-anchor="middle"><textPath startOffset="22.20632615414155" xlink:href="#id48">December</textPath></text></svg>