<?xml version="1.0" encoding="utf-8" ?>
<svg baseProfile="full" height="200mm" version="1.1" viewBox="0,0,200,200" width="200mm" xmlns="http://www.w3.org/2000/svg" xmlns:ev="http://www.w3.org/2001/xml-events" xmlns:xlink="http://www.w3.org/1999/xlink"><defs /><rect fill="#1a1a1a" height="200" width="200" x="0" y="0" /><rect fill="#1a1a1a" height="200" width="180" x="10" y="0" /><text alignment-baseline="middle" fill="#e1ed5e" style="dominant-baseline: central; font-size:9.0px; font-family:Arial;" text-anchor="middle" x="100.0" y="100.0">2023</text><line stroke="#e1ed5e" stroke-width="0.3" x1="100.0" x2="100.0" y1="15.0" y2="10.0" /><path d="M 100.0 14.0 a86.0,86.0 0 0,1 42.46469731375804,11.215312516191453" fill="none" id="id13" stroke="none" /><text fill="#e1ed5e" style="font-size:6.75px; font-family:Arial;" text-anchor="middle"><textPath startOffset="22.20632615414155" xlink:href="#id13">January</textPath></text><path d="M 101.08401301168833 79.027996857942 l 1.209438627859734 -23.39856665013289 a44.42980288169899,44.42980288169899 0 0,0 0.7634266210615319,0.04605197861010149 l -1.6120272977608778 23.374281402142486" fill="red" stroke="none" /><path d="M 101.80526077348638 79.07773832637324 l 1.6905718135121683 -19.59306177802255 a40.66586135652466,40.66586135652466 0 0,0 0.6968867470211934,0.06617779374668983 l -2.027583687623606 19.56105843976068" fill="red" stroke="none" /><path d="M 102.16513564639614 79.11191278185805 l 2.5148396631577725 -24.261847201637806 a45.39183568670082,45.39183568670082 0 0,0 0.7764885127370681,0.08724753179584924 l -2.932094879404566 24.214963716371358" fill="red" stroke="none" /><path d="M 102.52436894288641 79.15227682838746 l 3.3255804088956196 -27.464598605907398 a48.66520669793813,48.66520669793813 0 0,0 0.8307504683491495,0.10785525348980603 l -3.7978456057526153 27.403285029253453" fill="red" stroke="none" /><path d="M 103.59715602781102 79.31037775812273 l 5.6939109011441325 -32.749445593347446 a54.240740184625736,54.240740184625736 0 0,0 0.9184891354591834,0.16784801867035987 l -6.256795157706216 32.646582093326344" fill="red" stroke="none" /><path d="M 103.95276090670814 79.375362276772 l 5.000094525290437 -26.089394375207462 a47.56421359888047,47.56421359888047 0 0,0 0.80277880984399,0.16102987710376435 l -5.448439744601552 25.99946054202649" fill="red" stroke="none" /><path d="M 104.307194497241 79.44645832069477 l 3.0010848931520835 -14.320905051779281 a35.63197977165028,35.63197977165028 0 0,0 0.5992234718653624,0.1309670416424946 l -3.247151089170974 14.267124512040915" fill="red" stroke="none" /><path d="M 106.0581310904928 79.89281104454417 l 13.814368343745105 -45.85046286368088 a68.88634165970967,68.88634165970967 0 0,0 1.1324082267323237,0.3518447483265268 l -14.601561943188146 45.60587798047183" fill="red" stroke="none" /><path d="M 107.4271985657038 80.35727306442388 l 15.22260326934813 -40.25924938228429 a64.04108282932629,64.04108282932629 0 0,0 1.0277582402444625,0.39875423003258265 l -15.913344674592262 39.99125244836115" fill="red" stroke="none" /><path d="M 109.41281617654863 81.2277094730956 l 9.255864297497437 -18.459276205044695 a41.649840239280714,41.649840239280714 0 0,0 0.6381142519329717,0.3268669043320787 l -9.572239037019164 18.297216775400113" fill="red" stroke="none" /><path d="M 109.73455568895987 81.39251694778311 l 14.608279426596562 -27.923545823537065 a52.51390548892185,52.51390548892185 0 0,0 0.7973485186327067,0.4259159647256997 l -15.086772991757579 27.66795113230961" fill="red" stroke="none" /><line stroke="#e1ed5e" stroke-width="0.3" x1="143.23703022742887" x2="145.7803849466894" y1="26.81831364943548" y2="22.513508569990506" /><path d="M 143.74570117128098 25.957352633546492 a86.0,86.0 0 0,1 28.547481713284135,27.462654790039103" fill="none" id="id14" stroke="none" /><text fill="#e1ed5e" style="font-size:6.75px; font-family:Arial;" text-anchor="middle"><textPath startOffset="19.985693538727396" xlink:href="#id14">February</textPath></text><path d="M 111.2981086023043 82.29822771554956 l 16.567707031024256 -25.958130467861206 a51.79469846665745,51.79469846665745 0 0,0 0.7474048345217901,0.48613289479100136 l -17.012078891330326 25.669098648910676" fill="red" stroke="none" /><path d="M 115.19652480421416 85.50635884689758 l 15.094415409414704 -14.396254616005896 a41.85889554892222,41.85889554892222 0 0,0 0.49280413551993857,0.525689091997993 l -15.339986866905107 14.134296107129849" fill="red" stroke="none" /><path d="M 115.4437574822437 85.77008943001954 l 13.802767233070337 -12.717898708955417 a39.76862623799542,39.76862623799542 0 0,0 0.45952905050540815,0.5074234549804739 l -14.019639924191782 12.478422466705394" fill="red" stroke="none" /><path d="M 117.2510076193507 88.02491185347247 l 24.918686217240463 -17.29774112512662 a51.33402002414429,51.33402002414429 0 0,0 0.4976357407517673,0.7302190445280438 l -25.212746423660963 16.86624405732817" fill="red" stroke="none" /><path d="M 117.65298651832404 88.62581576622439 l 13.760585637193575 -8.866229860857885 a37.369598315905804,37.369598315905804 0 0,0 0.34375119685745764,0.5437318414000123 l -13.911164430296989 8.628050371743667" fill="red" stroke="none" /><line stroke="#e1ed5e" stroke-width="0.3" x1="172.23445277983987" x2="176.4835382374775" y1="55.19839476539836" y2="52.563006222186495" /><path d="M 173.08426987136738 54.67131705675599 a86.0,86.0 0 0,1 12.851231095245387,41.99856678651699" fill="none" id="id15" stroke="none" /><text fill="#e1ed5e" style="font-size:6.75px; font-family:Arial;" text-anchor="middle"><textPath startOffset="22.20632615414155" xlink:href="#id15">March</textPath></text><path d="M 119.85752413597 93.16781622104841 l 20.28270430849195 -6.97847135528515 a42.44964234019424,42.44964234019424 0 0,0 0.23178051757843443,0.6929942459783976 l -20.399822119842156 6.628304006384438" fill="red" stroke="none" /><path d="M 120.53481517161879 95.60439243477599 l 12.102663756484738 -2.5906520181828894 a33.37683109207863,33.37683109207863 0 0,0 0.11542137971585587,0.5628356385631895 l -12.14546443211559 2.381940723456288" fill="red" stroke="none" /><path d="M 120.6074358757038 95.95851677861258 l 28.478626333858436 -5.585163102807435 a50.021133760563124,50.021133760563124 0 0,0 0.15843426196628352,0.8463621626335999 l -28.57054631973458 5.094122862711273" fill="red" stroke="none" /><path d="M 120.73433829027371 96.67025291283417 l 19.77572741228673 -3.175802855427316 a41.02910678142211,41.02910678142211 0 0,0 0.10598034477818116,0.698278056259062 l -19.82746365050421 2.834925686776172" fill="red" stroke="none" /><path d="M 120.91429891909075 98.10471618934814 l 17.75549854495575 -1.6090287832498071 a38.82825572525961,38.82825572525961 0 0,0 0.054591632984616584,0.6661561979480386 l -17.780564661759858 1.303158668094" fill="red" stroke="none" /><line stroke="#e1ed5e" stroke-width="0.3" x1="184.98032266829074" x2="189.97916517819016" y1="98.17113171792111" y2="98.06355123074" /><path d="M 185.9800911702706 98.14961562048488 a86.0,86.0 0 0,1 -9.607161424134198,41.387399972396054" fill="none" id="id16" stroke="none" /><text fill="#e1ed5e" style="font-size:6.75px; font-family:Arial;" text-anchor="middle"><textPath startOffset="21.466115282336823" xlink:href="#id16">April</textPath></text><path d="M 120.9904718944345 100.63252640178507 l 11.2672234945633 0.33952625605401293 a32.27233797199983,32.27233797199983 0 0,0 -0.021511614262529722,0.5551191794066764 l -11.259709747449566 -0.5334226824746955" fill="red" stroke="none" /><path d="M 120.95626037817324 101.35467743843564 l 26.431289347238195 1.70860023216552 a47.48645637511336,47.48645637511336 0 0,0 -0.05975026639363315,0.8152449131334557 l -26.397962522180222 -2.163318281795746" fill="red" stroke="none" /><path d="M 120.76222939487914 103.15116336523771 l 19.154393940851058 2.9071359978629236 a40.37375149400297,40.37375149400297 0 0,0 -0.1101977431185505,0.6862014515911742 l -19.10151444337122 -3.2364166791473026" fill="red" stroke="none" /><path d="M 120.23288151984713 105.62410040840565 l 17.44203343544308 4.848333010375962 a39.10333845848924,39.10333845848924 0 0,0 -0.18584767145200903,0.6469601252483937 l -17.355993127104973 -5.147850611128938" fill="red" stroke="none" /><path d="M 119.9155931802556 106.66101706037122 l 31.067345723434276 10.390858962182856 a53.75896702082295,53.75896702082295 0 0,0 -0.3010736876509165,0.8750610657828265 l -30.88388120484013 -10.924092731054982" fill="red" stroke="none" /><path d="M 119.41010516605496 108.01547362559984 l 35.99625622418 14.864785116663583 a59.94473390230572,59.94473390230572 0 0,0 -0.40205509299180453,0.9503394746781306 l -35.73505014999589 -15.482199117007877" fill="red" stroke="none" /><line stroke="#e1ed5e" stroke-width="0.3" x1="174.80103733775053" x2="179.2010983576182" y1="140.37084112569926" y2="142.7455964860345" /><path d="M 175.68104954172406 140.8457921977663 a86.0,86.0 0 0,1 -30.038265399797805,32.042727171017184" fill="none" id="id17" stroke="none" /><text fill="#e1ed5e" style="font-size:6.75px; font-family:Arial;" text-anchor="middle"><textPath startOffset="22.206326154141568" xlink:href="#id17">May</textPath></text><path d="M 118.48025628344425 109.97397251340804 l 11.269278018357161 6.0821380113511845 a33.805820155076006,33.805820155076006 0 0,0 -0.2807872634707087,0.5097104433732738 l -11.162914345434944 -6.275218973122263" fill="red" stroke="none" /><path d="M 116.93607887273984 112.41649034213515 l 14.19358738313705 10.405864426306959 a38.59943002660677,38.59943002660677 0 0,0 -0.39746151691642273,0.5324646541423523 l -14.012364599525535 -10.648641959958626" fill="red" stroke="none" /><path d="M 115.32070863581623 114.36230785411682 l 14.809900259702419 13.883453557843778 a41.29983813716599,41.29983813716599 0 0,0 -0.49066852592057647,0.514463987760809 l -14.56872518240288 -14.136324662187095" fill="red" stroke="none" /><path d="M 114.81725581225074 114.88116024355365 l 10.760329099699465 10.806736661292616 a36.25025375527781,36.25025375527781 0 0,0 -0.4459645135269317,0.4364701395739353 l -10.572714633796739 -10.990356903789124" fill="red" stroke="none" /><path d="M 114.0293411484842 115.62618273729858 l 28.952120765263505 32.2474965090734 a64.33735487900829,64.33735487900829 0 0,0 -0.8304348587484693,0.7327622098401194 l -28.392743553608447 -32.74108186068581" fill="red" stroke="none" /><path d="M 111.45004920935366 117.60387380957326 l 11.399830298518587 17.52666476417695 a41.90789584321828,41.90789584321828 0 0,0 -0.6080999286357337,0.3881181457076492 l -11.096448567835923 -17.720297338708406" fill="red" stroke="none" /><line stroke="#e1ed5e" stroke-width="0.3" x1="143.8653032363475" x2="146.44561519142675" y1="172.8068346515853" y2="177.08958963109032" /><path d="M 144.38136562736335 173.6633856474863 a86.0,86.0 0 0,1 -40.68145358897372,12.25698825130547" fill="none" id="id18" stroke="none" /><text fill="#e1ed5e" style="font-size:6.75px; font-family:Arial;" text-anchor="middle"><textPath startOffset="21.466115282336833" xlink:href="#id18">June</textPath></text><path d="M 105.53697534728816 120.25689768951611 l 16.61092604186447 60.77069306854833 a84.0,84.0 0 0,0 -1.3980382287540103,0.3692346027856641 l -15.562397370298964 -61.04761902063758" fill="red" stroke="none" /><path d="M 104.48393922423573 120.51570834832081 l 4.478209711926608 20.489493674652472 a41.97316650550454,41.97316650550454 0 0,0 -0.7071649857378067,0.14819329839772497 l -4.124853264759423 -20.563542953776736" fill="red" stroke="none" /><path d="M 103.41894727170886 120.7198165907248 l 5.3490367355888155 32.41672108123911 a53.85507570616039,53.85507570616039 0 0,0 -0.9159572192804145,0.14305368003997093 l -4.790243652699884 -32.50399306862619" fill="red" stroke="none" /><path d="M 103.06178313531738 120.77559828337769 l 6.994795917946242 47.462888010975206 a68.97554489816756,68.97554489816756 0 0,0 -1.1761033588258516,0.1629972088550507 l -6.176763967933559 -47.576259785322854" fill="red" stroke="none" /><path d="M 101.98527174616119 120.90594882070398 l 2.0112622691594964 21.179642608305887 a42.274925074625074,42.274925074625074 0 0,0 -0.7250264039369905,0.06255832888368834 l -1.646391547480964 -21.211125189468238" fill="red" stroke="none" /><line stroke="#e1ed5e" stroke-width="0.3" x1="102.19456741930631" x2="102.32365962044197" y1="184.97166512339345" y2="189.96999836594603" /><path d="M 102.22038585953345 185.97133177190398 a86.0,86.0 0 0,1 -42.740103519485714,-10.115201625700543" fill="none" id="id19" stroke="none" /><text fill="#e1ed5e" style="font-size:6.75px; font-family:Arial;" text-anchor="middle"><textPath startOffset="22.20632615414155" xlink:href="#id19">July</textPath></text><path d="M 99.45781275523022 120.99299961872073 l -0.5509021836812158 21.330434169256183 a42.33754707235479,42.33754707235479 0 0,0 -0.7283663865361231,-0.02508641106505017 l 0.9179889218919819 -21.317790959765038" fill="red" stroke="none" /><line stroke="#e1ed5e" stroke-width="0.3" x1="58.666819895761336" x2="56.23545636021788" y1="174.27360380694188" y2="178.64263932499728" /><path d="M 58.180547188652646 175.14741091055294 a86.0,86.0 0 0,1 -31.652253787137756,-30.449443065178592" fill="none" id="id20" stroke="none" /><text fill="#e1ed5e" style="font-size:6.75px; font-family:Arial;" text-anchor="middle"><textPath startOffset="22.20632615414155" xlink:href="#id20">August</textPath></text><path d="M 88.8546689885994 117.79835938074946 l -10.923895717580734 17.444741804478614 a41.58277226890252,41.58277226890252 0 0,0 -0.6033822586511018,-0.3851071055146277 l 11.22255977827876 -17.25412027014018" fill="red" stroke="none" /><path d="M 88.24862548938628 117.40417183066458 l -10.661313287247967 15.789755336639399 a40.052033345545624,40.052033345545624 0 0,0 -0.5680582089916758,-0.3907156159757678 l 10.931528380862533 -15.603898931298529" fill="red" stroke="none" /><path d="M 87.65650970185807 116.9893568818739 l -12.481011691682154 17.17863884162066 a42.233965369161375,42.233965369161375 0 0,0 -0.5844678616714364,-0.43237535141137723 l 12.774864523772154 -16.961253541469514" fill="red" stroke="none" /><path d="M 86.79598089348748 116.32954008644616 l -12.670759894883826 15.670053183063649 a41.15189130265047,41.15189130265047 0 0,0 -0.5469867680691316,-0.45013287145131164 l 12.938616791497648 -15.449625192755157" fill="red" stroke="none" /><path d="M 84.9287848128048 114.62390073753433 l -21.955565863525585 21.30392352816964 a51.59254860389552,51.59254860389552 0 0,0 -0.6129525178254593,-0.6426782643881208 l 22.319024932730002 -20.92283814719902" fill="red" stroke="none" /><path d="M 83.95833913139862 113.55231037782056 l -24.313306344771323 20.540359043514858 a52.82833980984871,52.82833980984871 0 0,0 -0.5808702371941715,-0.6996956201656365 l 24.66327258185903 -20.11880216623546" fill="red" stroke="none" /><path d="M 82.44556493220864 111.52570212397912 l -16.952941653045634 11.130780048667548 a41.28044612880558,41.28044612880558 0 0,0 -0.3848814566498093,-0.5973445678166801 l 17.14202797307249 -10.83731388092942" fill="red" stroke="none" /><line stroke="#e1ed5e" stroke-width="0.3" x1="26.63291911575756" x2="22.317208475507996" y1="142.92168965132927" y2="145.44649492493687" /><path d="M 25.769776987707644 143.4266507060508 a86.0,86.0 0 0,1 -11.730757126820373,-40.83630448921669" fill="none" id="id21" stroke="none" /><text fill="#e1ed5e" style="font-size:6.75px; font-family:Arial;" text-anchor="middle"><textPath startOffset="21.46611528233685" xlink:href="#id21">September</textPath></text><path d="M 81.18737489456691 109.33194174019688 l -29.622181487485843 14.693987166040042 a54.06640129970751,54.06640129970751 0 0,0 -0.4063907319866932,-0.837285276851322 l 29.870725476087255 -14.181912933223435" fill="red" stroke="none" /><path d="M 79.10278846688536 102.07522291339032 l -18.708482185652485 1.8578684933584506 a39.80050480783669,39.80050480783669 0 0,0 -0.061833692272946474,-0.6823296417134991 l 18.73769047420251 -1.5355574630963855" fill="red" stroke="none" /><path d="M 79.0235259727143 100.99374915477108 l -18.993366419762555 0.8998005003769813 a40.01466825626581,40.01466825626581 0 0,0 -0.026672381440689466,-0.688295648921427 l 19.006040934054447 -0.5727276044415576" fill="red" stroke="none" /><line stroke="#e1ed5e" stroke-width="0.3" x1="15.007084014347285" x2="10.007500721073583" y1="101.09737516637583" y2="101.16192664675087" /><path d="M 14.007167355692545 101.11028546245083 a86.0,86.0 0 0,1 10.666146001902534,-42.60595125391555" fill="none" id="id22" stroke="none" /><text fill="#e1ed5e" style="font-size:6.75px; font-family:Arial;" text-anchor="middle"><textPath startOffset="22.20632615414155" xlink:href="#id22">October</textPath></text><path d="M 79.00019446554 99.90962569577889 l -39.561884767749056 -0.17025766280046634 a60.56225112463138,60.56225112463138 0 0,0 0.01345921880637038,-1.042431329132888 l 39.55309254182497 0.8512252499938263" fill="red" stroke="none" /><path d="M 79.00486145842228 99.54816195383935 l -49.25385053780599 -1.0599960342637722 a70.26525534687896,70.26525534687896 0 0,0 0.036431884255663696,-1.208996874077757 l 49.228306959094674 1.9076630557665237" fill="red" stroke="none" /><path d="M 79.21141760316559 97.0276538004421 l -20.096967702201624 -2.8734593072288135 a41.30135165976973,41.30135165976973 0 0,0 0.10668356764444768,-0.7029114163146687 l 20.044528241117874 3.218969835935574" fill="red" stroke="none" /><path d="M 79.3925641242962 95.95851677861259 l -19.887223325714192 -3.9002367822781467 a41.26606766407006,41.26606766407006 0 0,0 0.1427033756468687,-0.6958723397264497 l 19.81714065415233 4.241984778167999" fill="red" stroke="none" /><path d="M 79.71946130924805 94.55025226153421 l -18.770482124142397 -5.043968213359361 a40.43637349173268,40.43637349173268 0 0,0 0.1864179002056878,-0.6706443722809713 l 18.680877453370346 5.366323889059275" fill="red" stroke="none" /><path d="M 80.02781315780177 93.51064311812611 l -39.08166599384521 -12.698403042996084 a62.09289545282554,62.09289545282554 0 0,0 0.33903521096035166,-1.0136721275552776 l 38.85729348911309 13.369248273473683" fill="red" stroke="none" /><path d="M 80.52162464483688 92.15188598940014 l -37.042915720152436 -14.925116728471792 a60.93665877873141,60.93665877873141 0 0,0 0.4003779707181242,-0.9695470137896969 l 36.78051606254811 15.560538312714801" fill="red" stroke="none" /><path d="M 81.6062741919709 89.86733742301443 l -17.604061293072313 -9.69765532709042 a41.09844503570592,41.09844503570592 0 0,0 0.34667978537325433,-0.6167046546090393 l 17.434523866406625 9.999243491634243" fill="red" stroke="none" /><line stroke="#e1ed5e" stroke-width="0.3" x1="26.266209847984243" x2="21.928928074336255" y1="57.711370442889674" y2="55.22380399835377" /><path d="M 25.398753493254645 57.213857153982495 a86.0,86.0 0 0,1 29.58750427330803,-30.492523968695096" fill="none" id="id23" stroke="none" /><text fill="#e1ed5e" style="font-size:6.75px; font-family:Arial;" text-anchor="middle"><textPath startOffset="21.46611528233685" xlink:href="#id23">November</textPath></text><path d="M 81.96595687620814 89.24020034530311 l -17.78597876746381 -10.611794975034133 a41.711137904732155,41.711137904732155 0 0,0 0.3731839927525771,-0.6134163619612016 l 17.600678976425016 10.916379110202408" fill="red" stroke="none" /><path d="M 82.95767976084542 87.72973835380427 l -16.291327719111358 -11.72955623836663 a41.074607054697026,41.074607054697026 0 0,0 0.4180561525666679,-0.5702281222799862 l 16.087008954031056 12.008246804318118" fill="red" stroke="none" /><path d="M 83.39014120810768 87.1503855733568 l -16.41273399851351 -12.697115984568196 a41.75077327791758,41.75077327791758 0 0,0 0.4446376226501211,-0.5646446271081161 l 16.191742295269417 12.97775300562936" fill="red" stroke="none" /><path d="M 85.05521093208273 85.24692304244772 l -14.360412890122364 -14.176197171294449 a41.178850924029575,41.178850924029575 0 0,0 0.5023117808087396,-0.5001546943877886 l 14.11426530914631 14.421287716332348" fill="red" stroke="none" /><line stroke="#e1ed5e" stroke-width="0.3" x1="56.762969772571076" x2="54.21961505331055" y1="26.818313649435495" y2="22.513508569990535" /><path d="M 56.25429882871897 25.957352633546506 a86.0,86.0 0 0,1 42.265352541879196,-11.944610805530505" fill="none" id="id24" stroke="none" /><text fill="#e1ed5e" style="font-size:6.75px; font-family:Arial;" text-anchor="middle"><textPath startOffset="22.20632615414155" xlink:href="#id24">December</textPath></text><path d="M 97.11714578562143 79.19881850522333 l -3.0372999443364463 -21.915581815099365 a43.12505180211292,43.12505180211292 0 0,0 0.7361759953996737,-0.09557677259541923 l 2.6596092204289152 21.964616910858922" fill="red" stroke="none" /></svg>