<?xml version="1.0" encoding="utf-8" ?>
<svg baseProfile="full" height="200mm" version="1.1" viewBox="0,0,200,200" width="200mm" xmlns="http://www.w3.org/2000/svg" xmlns:ev="http://www.w3.org/2001/xml-events" xmlns:xlink="http://www.w3.org/1999/xlink"><defs /><rect fill="#1a1a1a" height="200" width="200" x="0" y="0" /><text alignment-baseline="middle" fill="#e1ed5e" style="dominant-baseline: central; font-size:9.0px; font-family:Arial;" text-anchor="middle" x="100.0" y="100.0">2024</text><line stroke="#e1ed5e" stroke-width="0.3" x1="100.0" x2="100.0" y1="15.0" y2="10.0" /><path d="M 100.0 14.0 a86.0,86.0 0 0,1 42.35913384403234,11.155469271406648" fill="none" id="id25" stroke="none" /><text fill="#e1ed5e" style="font-size:6.75px; font-family:Arial;" text-anchor="middle"><textPath startOffset="22.145653131862478" xlink:href="#id25">January</textPath></text><line stroke="#e1ed5e" stroke-width="0.3" x1="143.13028292997686" x2="145.6673583964461" y1="26.7553504044142" y2="22.446841604673864" /><path d="M 143.63769802327073 25.89364864446614 a86.0,86.0 0 0,1 29.32050498858742,28.57503671076993" fill="none" id="id26" stroke="none" /><text fill="#e1ed5e" style="font-size:6.75px; font-family:Arial;" text-anchor="middle"><textPath startOffset="20.669276256404974" xlink:href="#id26">February</textPath></text><line stroke="#e1ed5e" stroke-width="0.3" x1="172.87174338648825" x2="177.1583165268699" y1="56.24261187166439" y2="53.66864786411523" /><path d="M 173.72905801456457 55.72781907015455 a86.0,86.0 0 0,1 12.242430191666344,42.057860355516425" fill="none" id="id27" stroke="none" /><text fill="#e1ed5e" style="font-size:6.75px; font-family:Arial;" text-anchor="middle"><textPath startOffset="22.145653131862474" xlink:href="#id27">March</textPath></text><path d="M 120.05942366710727 93.78553927170692 l 16.997112122296574 -5.2657487837804196 a38.79409820001582,38.79409820001582 0 0,0 0.19161269654506177,0.6378163481463934 l -17.085001138845264 4.973194832043302" fill="#ff6d0a" stroke="none" /><path d="M 120.35273937422433 94.82641323984039 l 17.586712987560208 -4.470473669131637 a39.14600806054098,39.14600806054098 0 0,0 0.15996265612801064,0.6527022243925233 l -17.660863170204507 4.167915620131019" fill="#ff730a" stroke="none" /><path d="M 120.592083275326 95.88100663000786 l 17.872006715920854 -3.5749018779241277 a39.2260403678557,39.2260403678557 0 0,0 0.1264081709896467,0.6614209656265412 l -17.93074117919266 3.267578347264272" fill="#ff740a" stroke="none" /><path d="M 120.7213421655516 96.59031103205396 l 18.125040338815527 -2.982468490365338 a39.368783453993686,39.368783453993686 0 0,0 0.1040057791599678,0.667791710918785 l -18.17356761011376 2.6708885975151118" fill="#ff760a" stroke="none" /><path d="M 120.93736805541906 98.37931529534042 l 18.88746281944036 -1.4620090748880314 a39.94396268711478,39.94396268711478 0 0,0 0.047050257726172495,0.6841004212264163 l -18.909777038331598 1.137565229507281" fill="#ff800b" stroke="none" /><line stroke="#e1ed5e" stroke-width="0.3" x1="184.99686870605535" x2="189.99668451229388" y1="99.2704041080226" y2="99.22748670261217" /><path d="M 185.99683186730306 99.26182062694052 a86.0,86.0 0 0,1 -10.086455211305974,41.156179273409016" fill="none" id="id28" stroke="none" /><text fill="#e1ed5e" style="font-size:6.75px; font-family:Arial;" text-anchor="middle"><textPath startOffset="21.40746469413373" xlink:href="#id28">April</textPath></text><path d="M 120.98066250479742 100.90099992219065 l 22.92418128989523 0.9844629812693919 a43.945310091028894,43.945310091028894 0 0,0 -0.03883595743464448,0.7534071991226949 l -22.90390374300401 -1.3778419737688175" fill="#ffbf11" stroke="none" /><path d="M 120.7213421655516 103.40968896794604 l 23.107925122912825 3.8024002853784973 a44.418677405361564,44.418677405361564 0 0,0 -0.13026344546489332,0.751324937277966 l -23.039246859955696 -4.198518255577051" fill="#ffc612" stroke="none" /><path d="M 119.58574465831526 107.57618678355244 l 22.15908459789825 8.57160995382129 a44.75915670677854,44.75915670677854 0 0,0 -0.2833495999999056,0.7142260896581032 l -22.008676322932217 -8.950737060692958" fill="#ffcb12" stroke="none" /><line stroke="#e1ed5e" stroke-width="0.3" x1="174.33088141563837" x2="178.70328620479359" y1="141.23008692659167" y2="143.65538615756765" /><path d="M 175.20536237346943 141.71514677278685 a86.0,86.0 0 0,1 -30.301960400862466,31.631185727798858" fill="none" id="id29" stroke="none" /><text fill="#e1ed5e" style="font-size:6.75px; font-family:Arial;" text-anchor="middle"><textPath startOffset="22.145653131862474" xlink:href="#id29">May</textPath></text><line stroke="#e1ed5e" stroke-width="0.3" x1="143.1302829299769" x2="145.66735839644613" y1="173.24464959558577" y2="177.55315839532614" /><path d="M 143.63769802327073 174.10635135553383 a86.0,86.0 0 0,1 -40.68552437913181,11.842963189579606" fill="none" id="id30" stroke="none" /><text fill="#e1ed5e" style="font-size:6.75px; font-family:Arial;" text-anchor="middle"><textPath startOffset="21.407464694133747" xlink:href="#id30">June</textPath></text><path d="M 106.72888874123015 119.89276391827305 l 3.639625435760577 10.759905881768317 a32.35880486218281,32.35880486218281 0 0,0 -0.5277216620091216,0.17347259218649527 l -3.454381036103721 -10.820799395356833" fill="#ff0000" stroke="none" /><path d="M 104.29559338865022 120.5559693870025 l 9.210530548813894 44.07572292566605 a66.02780501435439,66.02780501435439 0 0,0 -1.111479101202422,0.22232694902818756 l -8.452554962080514 -44.227339271357096" fill="#32ff4b" stroke="none" /><path d="M 102.875027216393 120.80226474461374 l 3.5644734481486746 25.790754230341662 a47.035907411351026,47.035907411351026 0 0,0 -0.800780003192859,0.10367700358749829 l -3.1212156230650403 -25.848142830129557" fill="#ffed16" stroke="none" /><path d="M 102.15924093988457 120.88869738790638 l 5.8023470985074255 56.13244471309339 a77.4315388884624,77.4315388884624 0 0,0 -1.3233434816590155,0.12532200358813983 l -4.837904053463395 -56.223778472186716" fill="#43ffe1" stroke="none" /><path d="M 101.80034050326958 120.92268563240118 l 2.353001569727627 27.345444956967604 a48.44649296871434,48.44649296871434 0 0,0 -0.8291986508266411,0.06418521979276502 l -1.8832339241257503 -27.381807943755422" fill="#fcff18" stroke="none" /><line stroke="#e1ed5e" stroke-width="0.3" x1="101.45913802915013" x2="101.54496967792366" y1="184.9874750549273" y2="189.98673829345242" /><path d="M 101.47630435890484 185.9873277026323 a86.0,86.0 0 0,1 -42.54439059252881,-10.42667462771756" fill="none" id="id31" stroke="none" /><text fill="#e1ed5e" style="font-size:6.75px; font-family:Arial;" text-anchor="middle"><textPath startOffset="22.145653131862474" xlink:href="#id31">July</textPath></text><path d="M 99.63950707515114 120.99690560180557 l -1.0814787745465488 62.990716805416696 a84.0,84.0 0 0,0 -1.4415467437170244,-0.03712913059981027 l 2.1626388323343173 -62.962869957466836" fill="#4dd2ff" stroke="none" /><line stroke="#e1ed5e" stroke-width="0.3" x1="58.13341422392154" x2="55.67067388415222" y1="173.97424548756322" y2="178.32567169271397" /><path d="M 57.64086615596768 174.84453072859336 a86.0,86.0 0 0,1 -31.369924170532247,-30.572349798747897" fill="none" id="id32" stroke="none" /><text fill="#e1ed5e" style="font-size:6.75px; font-family:Arial;" text-anchor="middle"><textPath startOffset="22.145653131862474" xlink:href="#id32">August</textPath></text><line stroke="#e1ed5e" stroke-width="0.3" x1="26.387840678322732" x2="22.057713659400548" y1="142.50000000000003" y2="145.00000000000006" /><path d="M 25.521815274538298 143.00000000000003 a86.0,86.0 0 0,1 -11.493303480769221,-40.785679425670985" fill="none" id="id33" stroke="none" /><text fill="#e1ed5e" style="font-size:6.75px; font-family:Arial;" text-anchor="middle"><textPath startOffset="21.40746469413373" xlink:href="#id33">September</textPath></text><line stroke="#e1ed5e" stroke-width="0.3" x1="15.003131293944662" x2="10.003315487706104" y1="100.72959589197737" y2="100.7725132973878" /><path d="M 14.003168132696942 100.73817937305945 a86.0,86.0 0 0,1 10.791469493833604,-42.45332614584628" fill="none" id="id34" stroke="none" /><text fill="#e1ed5e" style="font-size:6.75px; font-family:Arial;" text-anchor="middle"><textPath startOffset="22.145653131862435" xlink:href="#id34">October</textPath></text><line stroke="#e1ed5e" stroke-width="0.3" x1="26.387840678322718" x2="22.05771365940052" y1="57.49999999999999" y2="54.99999999999999" /><path d="M 25.521815274538284 56.99999999999999 a86.0,86.0 0 0,1 29.574782752854787,-30.34633250058573" fill="none" id="id35" stroke="none" /><text fill="#e1ed5e" style="font-size:6.75px; font-family:Arial;" text-anchor="middle"><textPath startOffset="21.40746469413373" xlink:href="#id35">November</textPath></text><line stroke="#e1ed5e" stroke-width="0.3" x1="56.869717070023135" x2="54.33264160355391" y1="26.7553504044142" y2="22.446841604673864" /><path d="M 56.362301976729285 25.89364864446614 a86.0,86.0 0 0,1 42.16139366436587,-11.88097634709845" fill="none" id="id36" stroke="none" /><text fill="#e1ed5e" style="font-size:6.75px; font-family:Arial;" text-anchor="middle"><textPath startOffset="22.145653131862474" xlink:href="#id36">December</textPath></text></svg>