<?xml version="1.0" encoding="utf-8" ?>
<svg baseProfile="full" height="200mm" version="1.1" viewBox="0,0,200,200" width="200mm" xmlns="http://www.w3.org/2000/svg" xmlns:ev="http://www.w3.org/2001/xml-events" xmlns:xlink="http://www.w3.org/1999/xlink"><defs /><rect fill="#1a1a1a" height="200" width="200" x="0" y="0" /><rect fill="#1a1a1a" height="200" width="180" x="10" y="0" /><text alignment-baseline="middle" fill="#e1ed5e" style="dominant-baseline: central; font-size:9.0px; font-family:Arial;" text-anchor="middle" x="100.0" y="100.0">2025</text><line stroke="#e1ed5e" stroke-width="0.3" x1="100.0" x2="100.0" y1="15.0" y2="10.0" /><path d="M 100.0 14.0 a86.0,86.0 0 0,1 42.46469731375804,11.215312516191453" fill="none" id="id37" stroke="none" /><text fill="#e1ed5e" style="font-size:6.75px; font-family:Arial;" text-anchor="middle"><textPath startOffset="22.20632615414155" xlink:href="#id37">January</textPath></text><line stroke="#e1ed5e" stroke-width="0.3" x1="143.23703022742887" x2="145.7803849466894" y1="26.81831364943548" y2="22.513508569990506" /><path d="M 143.74570117128098 25.957352633546492 a86.0,86.0 0 0,1 28.547481713284135,27.462654790039103" fill="none" id="id38" stroke="none" /><text fill="#e1ed5e" style="font-size:6.75px; font-family:Arial;" text-anchor="middle"><textPath startOffset="19.985693538727396" xlink:href="#id38">February</textPath></text><path d="M 111.60114157652 82.49532879139004 l 23.68921424457229 -35.74406051390906 a63.88142644021115,63.88142644021115 0 0,0 0.9113607369571941,0.6153548378201661 l -24.300979675936027 35.330993763790225" fill="red" stroke="none" /><path d="M 113.6212207817346 84.01681056812373 l 27.568475638546687 -32.34894841950025 a63.50265065711349,63.50265065711349 0 0,0 0.8258556046107538,0.7161738422021805 l -28.121225041804205 31.8696095838784" fill="red" stroke="none" /><path d="M 117.45458315368197 88.32363383020206 l 34.14609110807163 -22.842267817837936 a62.08192713374779,62.08192713374779 0 0,0 0.586536344133319,0.8933350920606133 l -34.53422408756287 22.251114661799647" fill="red" stroke="none" /><line stroke="#e1ed5e" stroke-width="0.3" x1="172.23445277983987" x2="176.4835382374775" y1="55.19839476539836" y2="52.563006222186495" /><path d="M 173.08426987136738 54.67131705675599 a86.0,86.0 0 0,1 12.851231095245387,41.99856678651699" fill="none" id="id39" stroke="none" /><text fill="#e1ed5e" style="font-size:6.75px; font-family:Arial;" text-anchor="middle"><textPath startOffset="22.20632615414155" xlink:href="#id39">March</textPath></text><path d="M 117.84615892207809 88.93136811851018 l 10.830200594412966 -6.717159928120292 a33.744154833301735,33.744154833301735 0 0,0 0.30190445682671213,0.4962515465911238 l -10.944220849525903 6.529740608322086" fill="red" stroke="none" /><line stroke="#e1ed5e" stroke-width="0.3" x1="184.98032266829074" x2="189.97916517819016" y1="98.17113171792111" y2="98.06355123074" /><path d="M 185.9800911702706 98.14961562048488 a86.0,86.0 0 0,1 -9.607161424134198,41.387399972396054" fill="none" id="id40" stroke="none" /><text fill="#e1ed5e" style="font-size:6.75px; font-family:Arial;" text-anchor="middle"><textPath startOffset="21.466115282336823" xlink:href="#id40">April</textPath></text><line stroke="#e1ed5e" stroke-width="0.3" x1="174.80103733775053" x2="179.2010983576182" y1="140.37084112569926" y2="142.7455964860345" /><path d="M 175.68104954172406 140.8457921977663 a86.0,86.0 0 0,1 -30.038265399797805,32.042727171017184" fill="none" id="id41" stroke="none" /><text fill="#e1ed5e" style="font-size:6.75px; font-family:Arial;" text-anchor="middle"><textPath startOffset="22.206326154141568" xlink:href="#id41">May</textPath></text><line stroke="#e1ed5e" stroke-width="0.3" x1="143.8653032363475" x2="146.44561519142675" y1="172.8068346515853" y2="177.08958963109032" /><path d="M 144.38136562736335 173.6633856474863 a86.0,86.0 0 0,1 -40.68145358897372,12.25698825130547" fill="none" id="id42" stroke="none" /><text fill="#e1ed5e" style="font-size:6.75px; font-family:Arial;" text-anchor="middle"><textPath startOffset="21.466115282336833" xlink:href="#id42">June</textPath></text><path d="M 101.62511606390274 120.93702456842531 l 1.8244060750721718 23.504558022051953 a44.57525620939817,44.57525620939817 0 0,0 -0.7654998731871047,0.05279335312087961 l -1.4195434411061367 -23.532479719689118" fill="red" stroke="none" /><line stroke="#e1ed5e" stroke-width="0.3" x1="102.19456741930631" x2="102.32365962044197" y1="184.97166512339345" y2="189.96999836594603" /><path d="M 102.22038585953345 185.97133177190398 a86.0,86.0 0 0,1 -42.740103519485714,-10.115201625700543" fill="none" id="id43" stroke="none" /><text fill="#e1ed5e" style="font-size:6.75px; font-family:Arial;" text-anchor="middle"><textPath startOffset="22.20632615414155" xlink:href="#id43">July</textPath></text><path d="M 99.81925306533755 120.99922214144158 l -0.21141011797295253 24.561678119483684 a45.562587939447766,45.562587939447766 0 0,0 -0.7841979006726947,-0.013500678032071417 l 0.6341677085383152 -24.554399964172454" fill="red" stroke="none" /><path d="M 99.09653310690486 120.98055641714683 l -0.717974486153924 16.673000779496395 a37.68845236550877,37.68845236550877 0 0,0 -0.6479038565227874,-0.033489228760663944 l 1.0048664110902004 -16.65817174397353" fill="red" stroke="none" /><path d="M 98.37488393609728 120.93702456842531 l -1.9701882831775877 25.382728905067378 a46.45907634890381,46.45907634890381 0 0,0 -0.796785730454155,-0.06875002552308809 l 2.4068183313732843 -25.345054627265625" fill="red" stroke="none" /><path d="M 95.86986931433489 120.58985236759428 l -5.360713738213466 26.724651798027818 a48.25700397161988,48.25700397161988 0 0,0 -0.8130352405235766,-0.17037943964529348 l 5.819940440166429 -26.62841637765598" fill="red" stroke="none" /><path d="M 92.7421414339146 119.70592522655815 l -8.88376272246237 24.12044301295196 a46.70441618185628,46.70441618185628 0 0,0 -0.7520073301471872,-0.28434482555230484 l 9.29764027336984 -23.963949937293023" fill="red" stroke="none" /><path d="M 90.7491055286396 118.85261126421891 l -9.98983471901597 20.358514642499223 a43.677431868756926,43.677431868756926 0 0,0 -0.672104353849584,-0.33700707567769245 l 10.338792980548314 -20.18353972591223" fill="red" stroke="none" /><line stroke="#e1ed5e" stroke-width="0.3" x1="58.666819895761336" x2="56.23545636021788" y1="174.27360380694188" y2="178.64263932499728" /><path d="M 58.180547188652646 175.14741091055294 a86.0,86.0 0 0,1 -31.652253787137756,-30.449443065178592" fill="none" id="id44" stroke="none" /><text fill="#e1ed5e" style="font-size:6.75px; font-family:Arial;" text-anchor="middle"><textPath startOffset="22.20632615414155" xlink:href="#id44">August</textPath></text><path d="M 88.54995079064634 117.60387380957326 l -13.223869338387523 20.33103289347343 a45.25328057798046,45.25328057798046 0 0,0 -0.6493313525316666,-0.4303414135015478 l 13.571875389659152 -20.100393458880564" fill="red" stroke="none" /><path d="M 83.06392112726016 112.41649034213515 l -22.31387669703076 16.359160617173924 a48.66823502409915,48.66823502409915 0 0,0 -0.4895102241191883,-0.6798868875274574 l 22.592166713525557 -15.97264012419533" fill="red" stroke="none" /><line stroke="#e1ed5e" stroke-width="0.3" x1="26.63291911575756" x2="22.317208475507996" y1="142.92168965132927" y2="145.44649492493687" /><path d="M 25.769776987707644 143.4266507060508 a86.0,86.0 0 0,1 -11.730757126820373,-40.83630448921669" fill="none" id="id45" stroke="none" /><text fill="#e1ed5e" style="font-size:6.75px; font-family:Arial;" text-anchor="middle"><textPath startOffset="21.46611528233685" xlink:href="#id45">September</textPath></text><path d="M 79.50377843672027 104.57218783832718 l -38.793124983142604 8.653763510070524 a60.74662462204748,60.74662462204748 0 0,0 -0.21887865458441802,-1.022528205762266 l 38.93633767645146 -7.984721484892094" fill="red" stroke="none" /><path d="M 79.1416061653843 102.43462659150553 l -39.2815981324731 4.585013790057009 a60.548278133139085,60.548278133139085 0 0,0 -0.11192118120012601,-1.03625113640921 l 39.35470161517428 -3.908166331763017" fill="red" stroke="none" /><path d="M 79.10278846688536 102.07522291339032 l -33.37869259909586 3.3147115150215107 a54.54287453473171,54.54287453473171 0 0,0 -0.08473730009068803,-0.9350690454554228 l 33.430804495463626 -2.7396610810175215" fill="red" stroke="none" /><path d="M 79.0095281055655 100.63252640178507 l -42.7052659871402 1.286879512188694 a63.72465098641866,63.72465098641866 0 0,0 -0.023602206704387722,-1.0967018024624435 l 42.7210902565296 -0.5515878939361214" fill="red" stroke="none" /><line stroke="#e1ed5e" stroke-width="0.3" x1="15.007084014347285" x2="10.007500721073583" y1="101.09737516637583" y2="101.16192664675087" /><path d="M 14.007167355692545 101.11028546245083 a86.0,86.0 0 0,1 10.666146001902534,-42.60595125391555" fill="none" id="id46" stroke="none" /><text fill="#e1ed5e" style="font-size:6.75px; font-family:Arial;" text-anchor="middle"><textPath startOffset="22.20632615414155" xlink:href="#id46">October</textPath></text><path d="M 79.03285615573316 98.82574320788736 l -62.90143153280056 -3.522770376337934 a84.0,84.0 0 0,0 0.09327763598234728,-1.442963742987953 l 62.831473305813795 4.604993183578899" fill="red" stroke="none" /><path d="M 79.05617556472873 98.46500227214037 l -39.92903104719834 -2.9264460329349755 a61.036128768298894,61.036128768298894 0 0,0 0.0858153908354128,-1.0471651306062875 l 39.872741172543435 3.6133250807490414" fill="red" stroke="none" /><path d="M 79.12142395522702 97.74499172005258 l -43.78605294220692 -4.729149714001315 a65.04070037221463,65.04070037221463 0 0,0 0.1298015615713742,-1.1120605110657218 l 43.698161027631954 5.482153963391898" fill="red" stroke="none" /><path d="M 80.2630227832202 92.82701384747504 l -48.403316183481785 -17.591159624242042 a72.50077586292922,72.50077586292922 0 0,0 0.436369780911724,-1.169254063437891 l 48.09334181406843 18.421736824709274" fill="red" stroke="none" /><path d="M 80.95270993114464 91.15688171328213 l -48.049141812999714 -22.307858130559385 a73.97509380207761,73.97509380207761 0 0,0 0.5461539120857126,-1.1503394254653097 l 47.658029707072245 23.13163997166523" fill="red" stroke="none" /><line stroke="#e1ed5e" stroke-width="0.3" x1="26.266209847984243" x2="21.928928074336255" y1="57.711370442889674" y2="55.22380399835377" /><path d="M 25.398753493254645 57.213857153982495 a86.0,86.0 0 0,1 29.58750427330803,-30.492523968695096" fill="none" id="id47" stroke="none" /><text fill="#e1ed5e" style="font-size:6.75px; font-family:Arial;" text-anchor="middle"><textPath startOffset="21.46611528233685" xlink:href="#id47">November</textPath></text><line stroke="#e1ed5e" stroke-width="0.3" x1="56.762969772571076" x2="54.21961505331055" y1="26.818313649435495" y2="22.513508569990535" /><path d="M 56.25429882871897 25.957352633546506 a86.0,86.0 0 0,1 42.265352541879196,-11.944610805530505" fill="none" id="id48" stroke="none" /><text fill="#e1ed5e" style="font-size:6.75px; font-family:Arial;" text-anchor="middle"><textPath startOffset="22.20632615414155" xlink:href="#id48">December</textPath></text></svg>