<?xml version="1.0" encoding="utf-8" ?>
<svg baseProfile="full" height="200mm" version="1.1" viewBox="0,0,200,200" width="200mm" xmlns="http://www.w3.org/2000/svg" xmlns:ev="http://www.w3.org/2001/xml-events" xmlns:xlink="http://www.w3.org/1999/xlink"><defs /><rect fill="#1a1a1a" height="200" width="200" x="0" y="0" /><text alignment-baseline="middle" fill="#e1ed5e" style="dominant-baseline: central; font-size:9.0px; font-family:Arial;" text-anchor="middle" x="100.0" y="100.0">2023</text><line stroke="#e1ed5e" stroke-width="0.3" x1="100.0" x2="100.0" y1="15.0" y2="10.0" /><path d="M 100.0 14.0 a86.0,86.0 0 0,1 42.46469731375804,11.215312516191453" fill="none" id="id13" stroke="none" /><text fill="#e1ed5e" style="font-size:6.75px; font-family:Arial;" text-anchor="middle"><textPath startOffset="22.20632615414155" xlink:href="#id13">January</textPath></text><path d="M 101.08401301168833 79.027996857942 l 1.211982772172948 -23.44778727936452 a44.47908921867227,44.47908921867227 0 0,0 0.7642734963402766,0.04610306443963144 l -1.6154183173528365 23.423450945544584" fill="#ffcb13" stroke="none" /><path d="M 101.80526077348638 79.07773832637324 l 1.7048367622742282 -19.758386918381248 a40.83180077558417,40.83180077558417 0 0,0 0.6997304340376106,0.06644783609382443 l -2.044692323402083 19.726113537772246" fill="#ff930d" stroke="none" /><path d="M 102.16513564639614 79.11191278185805 l 2.4620314476059213 -23.75238137943052 a44.87964028294644,44.87964028294644 0 0,0 0.7677267201971703,0.08626304231445465 l -2.8705248713128166 23.706482383645465" fill="#ffd113" stroke="none" /><path d="M 102.52436894288641 79.15227682838746 l 3.2775120266018956 -27.0676216385783 a48.26533011452002,48.26533011452002 0 0,0 0.8239242842743876,0.10696901888410722 l -3.742951039384129 27.007194296530056" fill="#fbff18" stroke="none" /><path d="M 103.59715602781102 79.31037775812273 l 5.486793240376137 -31.558175009647254 a53.03159861764882,53.03159861764882 0 0,0 0.8980140573404085,0.16410632901755945 l -6.029202418819446 31.459053199278955" fill="#b8ff1f" stroke="none" /><path d="M 103.95276090670814 79.375362276772 l 5.003340533764694 -26.10633133405931 a47.581458805349634,47.581458805349634 0 0,0 0.8030698708177207,0.16108826119693526 l -5.451976814049541 26.016339116785165" fill="#fff917" stroke="none" /><path d="M 104.307194497241 79.44645832069477 l 3.734634811113318 -17.821338761546706 a39.20844892971904,39.20844892971904 0 0,0 0.6593690006754809,0.14411252466532007 l -4.040846535942327 17.754412738785515" fill="#ff790b" stroke="none" /><path d="M 106.0581310904928 79.89281104454417 l 13.885485366618552 -46.086503219279976 a69.13286281582762,69.13286281582762 0 0,0 1.1364607366860466,0.35310388289575617 l -14.676731476015316 45.8406592015017" fill="#37ff78" stroke="none" /><path d="M 107.4271985657038 80.35727306442388 l 15.115096393057476 -39.97492573104581 a63.73711298361235,63.73711298361235 0 0,0 1.022880004275984,0.3968615502647559 l -15.800959562333128 39.708821476890506" fill="#32ff2f" stroke="none" /><path d="M 109.41281617654863 81.2277094730956 l 9.48910924407186 -18.92444431402532 a42.17020989127352,42.17020989127352 0 0,0 0.6460867985094372,0.33095075234393334 l -9.813456530170054 18.758301036368884" fill="#ffa80f" stroke="none" /><path d="M 109.73455568895987 81.39251694778311 l 14.827887169967596 -28.3433233145166 a52.98765722019213,52.98765722019213 0 0,0 0.8045417608341981,0.4297583455919832 l -15.313573977330105 28.083886242422864" fill="#b9ff1f" stroke="none" /><line stroke="#e1ed5e" stroke-width="0.3" x1="143.23703022742887" x2="145.7803849466894" y1="26.81831364943548" y2="22.513508569990506" /><path d="M 143.74570117128098 25.957352633546492 a86.0,86.0 0 0,1 28.547481713284135,27.462654790039103" fill="none" id="id14" stroke="none" /><text fill="#e1ed5e" style="font-size:6.75px; font-family:Arial;" text-anchor="middle"><textPath startOffset="19.985693538727396" xlink:href="#id14">February</textPath></text><path d="M 111.2981086023043 82.29822771554956 l 16.986755747411824 -26.614692129170702 a52.57359193935289,52.57359193935289 0 0,0 0.7586443776469382,0.4934434062878295 l -17.442367150843044 26.318349798723343" fill="#beff1e" stroke="none" /><path d="M 115.19652480421416 85.50635884689758 l 15.018617326654132 -14.323962415928662 a41.75415056554743,41.75415056554743 0 0,0 0.4915709744366095,0.5243736417339676 l -15.262955623061204 14.063319357316638" fill="#ffa20e" stroke="none" /><path d="M 115.4437574822437 85.77008943001954 l 15.051941204886303 -13.868890229362664 a41.4672189178077,41.4672189178077 0 0,0 0.47915639887490813,0.5290964632719047 l -15.288441244377246 13.60774097882121" fill="#ff9d0e" stroke="none" /><path d="M 117.2510076193507 88.02491185347247 l 25.009620182327918 -17.36086452472526 a51.44471577647208,51.44471577647208 0 0,0 0.4987088334626403,0.7317936756685641 l -25.30475348145929 16.92779282578629" fill="#ceff1d" stroke="none" /><path d="M 117.65298651832404 88.62581576622439 l 15.73007198981574 -10.13521064194999 a39.712500088483154,39.712500088483154 0 0,0 0.3653028143416661,0.5778213246278963 l -15.902202400403361 9.862941669607888" fill="#ff810b" stroke="none" /><line stroke="#e1ed5e" stroke-width="0.3" x1="172.23445277983987" x2="176.4835382374775" y1="55.19839476539836" y2="52.563006222186495" /><path d="M 173.08426987136738 54.67131705675599 a86.0,86.0 0 0,1 12.851231095245387,41.99856678651699" fill="none" id="id15" stroke="none" /><text fill="#e1ed5e" style="font-size:6.75px; font-family:Arial;" text-anchor="middle"><textPath startOffset="22.20632615414155" xlink:href="#id15">March</textPath></text><path d="M 119.85752413597 93.16781622104841 l 20.72176023540757 -7.129533026487741 a42.91395875759325,42.91395875759325 0 0,0 0.2343157450529662,0.7005742534374039 l -20.841413274232305 6.771785670128024" fill="#ffb410" stroke="none" /><path d="M 120.53481517161879 95.60439243477599 l 12.884498770658013 -2.75800876692085 a34.17637738263063,34.17637738263063 0 0,0 0.11818631374292438,0.5763184388255089 l -12.930064380315933 2.5358146719319294" fill="#ff2603" stroke="none" /><path d="M 120.6074358757038 95.95851677861258 l 28.27759846770384 -5.54573797718795 a49.81627638700586,49.81627638700586 0 0,0 0.15778540768514596,0.8428959571184409 l -28.368869599298847 5.058163942606947" fill="#e5ff1a" stroke="none" /><path d="M 120.73433829027371 96.67025291283417 l 19.42643105279534 -3.1197090211659324 a40.675335011779474,40.675335011779474 0 0,0 0.10506653365576867,0.6922571827123525 l -19.477253479890408 2.784852726061498" fill="#ff910d" stroke="none" /><path d="M 120.91429891909075 98.10471618934814 l 17.30401847282504 -1.5681150105791777 a38.37492561118677,38.37492561118677 0 0,0 0.05395426128851335,0.6583786488522738 l -17.328447217933046 1.2700224445191353" fill="#ff6c09" stroke="none" /><line stroke="#e1ed5e" stroke-width="0.3" x1="184.98032266829074" x2="189.97916517819016" y1="98.17113171792111" y2="98.06355123074" /><path d="M 185.9800911702706 98.14961562048488 a86.0,86.0 0 0,1 -9.607161424134198,41.387399972396054" fill="none" id="id16" stroke="none" /><text fill="#e1ed5e" style="font-size:6.75px; font-family:Arial;" text-anchor="middle"><textPath startOffset="21.466115282336823" xlink:href="#id16">April</textPath></text><path d="M 120.9904718944345 100.63252640178507 l 10.966324291014757 0.33045896631046895 a31.971302182699887,31.971302182699887 0 0,0 -0.021310954310831923,0.5499410376658079 l -10.959011203852722 -0.5191772509902831" fill="#ff0000" stroke="none" /><path d="M 120.95626037817324 101.35467743843564 l 26.299650485981278 1.7000906893297267 a47.35454275901445,47.35454275901445 0 0,0 -0.05958428488428245,0.8129802273112885 l -26.26648964243266 -2.1525440531377855" fill="#fff617" stroke="none" /><path d="M 120.76222939487914 103.15116336523771 l 19.57627593731916 2.971166650180613 a40.800464914673256,40.800464914673256 0 0,0 -0.11136243191204166,0.6934539698200259 l -19.52223175104583 -3.3076998496938437" fill="#ff930d" stroke="none" /><path d="M 120.23288151984713 105.62410040840565 l 17.5271892070215 4.872003618501774 a39.191722863913284,39.191722863913284 0 0,0 -0.18626773880656922,0.6484224348172775 l -17.440728831328833 -5.172983528823633" fill="#ff790b" stroke="none" /><path d="M 119.9155931802556 106.66101706037122 l 31.085457428867173 10.396916646620824 a53.77806491113675,53.77806491113675 0 0,0 -0.3011806441752281,0.8753719315077152 l -30.901885953748714 -10.93046128121784" fill="#aeff20" stroke="none" /><path d="M 119.41010516605496 108.01547362559984 l 35.68340936150764 14.735593865243299 a59.60626154165056,59.60626154165056 0 0,0 -0.3997849263302901,0.9449734712867014 l -35.424473453985044 -15.347641862196165" fill="#63ff29" stroke="none" /><line stroke="#e1ed5e" stroke-width="0.3" x1="174.80103733775053" x2="179.2010983576182" y1="140.37084112569926" y2="142.7455964860345" /><path d="M 175.68104954172406 140.8457921977663 a86.0,86.0 0 0,1 -30.038265399797805,32.042727171017184" fill="none" id="id17" stroke="none" /><text fill="#e1ed5e" style="font-size:6.75px; font-family:Arial;" text-anchor="middle"><textPath startOffset="22.206326154141568" xlink:href="#id17">May</textPath></text><path d="M 118.48025628344425 109.97397251340804 l 11.163472612205904 6.025033813414925 a33.68558840638717,33.68558840638717 0 0,0 -0.27978863236098345,0.5078976378371085 l -11.058107570393412 -6.216301969649839" fill="#ff1e03" stroke="none" /><path d="M 116.93607887273984 112.41649034213515 l 15.836194946537091 11.610123162944223 a40.63619184677775,40.63619184677775 0 0,0 -0.4184342214896404,0.560561019228576 l -15.63399945835236 -11.880997061682114" fill="#ff900d" stroke="none" /><path d="M 115.32070863581623 114.36230785411682 l 14.919898300300494 13.986570571552003 a41.450611766994015,41.450611766994015 0 0,0 -0.4924598131999529,0.516342145311763 l -14.676931935721576 -14.241319833446273" fill="#ff9d0e" stroke="none" /><path d="M 114.81725581225074 114.88116024355365 l 9.279268239701006 9.31928822499916 a34.15119584239136,34.15119584239136 0 0,0 -0.42014109868120886,0.4111964930390353 l -9.117477188644003 -9.477634820960768" fill="#ff2603" stroke="none" /><path d="M 114.0293411484842 115.62618273729858 l 28.673408034362776 31.93706025849175 a63.92016013786054,63.92016013786054 0 0,0 -0.8250499147048859,0.728010622818365 l -28.119415766751302 -32.42589402308241" fill="#30ff2f" stroke="none" /><line stroke="#e1ed5e" stroke-width="0.3" x1="143.8653032363475" x2="146.44561519142675" y1="172.8068346515853" y2="177.08958963109032" /><path d="M 144.38136562736335 173.6633856474863 a86.0,86.0 0 0,1 -40.68145358897372,12.25698825130547" fill="none" id="id18" stroke="none" /><text fill="#e1ed5e" style="font-size:6.75px; font-family:Arial;" text-anchor="middle"><textPath startOffset="21.466115282336833" xlink:href="#id18">June</textPath></text><path d="M 105.53697534728816 120.25689768951611 l 16.61092604186447 60.77069306854833 a84.0,84.0 0 0,0 -1.3980382287540103,0.3692346027856641 l -15.562397370298964 -61.04761902063758" fill="#4dd2ff" stroke="none" /><path d="M 104.48393922423573 120.51570834832081 l 4.515437242172325 20.659823626700298 a42.14751724847058,42.14751724847058 0 0,0 -0.710102451526736,0.14880887291424003 l -4.159143329216212 -20.734488480341078" fill="#ffa80f" stroke="none" /><path d="M 103.41894727170886 120.7198165907248 l 5.362277107916222 32.496961595179435 a53.93640127124773,53.93640127124773 0 0,0 -0.9173403895290322,0.14326970278647214 l -4.802100854778673 -32.58444960531301" fill="#acff21" stroke="none" /><path d="M 103.06178313531738 120.77559828337769 l 7.0156288425792495 47.60424892849113 a69.11843268543333,69.11843268543333 0 0,0 -1.178539741268159,0.16333486926118712 l -6.19516051012426 -47.717958363244925" fill="#37ff77" stroke="none" /><path d="M 101.98527174616119 120.90594882070398 l 2.1005226098707794 22.11960063583386 a43.219111762700145,43.219111762700145 0 0,0 -0.7412194611190396,0.06395553399418669 l -1.7194588310101981 -22.15248042210671" fill="#ffb811" stroke="none" /><line stroke="#e1ed5e" stroke-width="0.3" x1="102.19456741930631" x2="102.32365962044197" y1="184.97166512339345" y2="189.96999836594603" /><path d="M 102.22038585953345 185.97133177190398 a86.0,86.0 0 0,1 -42.740103519485714,-10.115201625700543" fill="none" id="id19" stroke="none" /><text fill="#e1ed5e" style="font-size:6.75px; font-family:Arial;" text-anchor="middle"><textPath startOffset="22.20632615414155" xlink:href="#id19">July</textPath></text><path d="M 99.45781275523022 120.99299961872073 l -0.5403366408936974 20.921345910818577 a41.92832239826254,41.92832239826254 0 0,0 -0.7213261700436417,-0.024843931774157505 l 0.9003831626119821 -20.908945180618325" fill="#ffa40f" stroke="none" /><line stroke="#e1ed5e" stroke-width="0.3" x1="58.666819895761336" x2="56.23545636021788" y1="174.27360380694188" y2="178.64263932499728" /><path d="M 58.180547188652646 175.14741091055294 a86.0,86.0 0 0,1 -31.652253787137756,-30.449443065178592" fill="none" id="id20" stroke="none" /><text fill="#e1ed5e" style="font-size:6.75px; font-family:Arial;" text-anchor="middle"><textPath startOffset="22.20632615414155" xlink:href="#id20">August</textPath></text><path d="M 88.8546689885994 117.79835938074946 l -11.097444522821116 17.721887813207143 a41.909772418680035,41.909772418680035 0 0,0 -0.6081271584782728,-0.3881355250814935 l 11.400853483346312 -17.528237859301846" fill="#ffa40f" stroke="none" /><path d="M 88.24862548938628 117.40417183066458 l -10.477330451485674 15.517270710725398 a39.72325141901281,39.72325141901281 0 0,0 -0.5633950931212843,-0.3875082823595519 l 10.742882429229848 -15.334621639000746" fill="#ff810b" stroke="none" /><path d="M 87.65650970185807 116.9893568818739 l -12.705427857072427 17.487521194325303 a42.61576495415438,42.61576495415438 0 0,0 -0.5897515139422422,-0.4362840710470335 l 13.004564341433234 -17.266227174538503" fill="#ffaf10" stroke="none" /><path d="M 86.79598089348748 116.32954008644616 l -13.029878762401474 16.114179012905577 a41.72304287074771,41.72304287074771 0 0,0 -0.5545784568207737,-0.4563803144543741 l 13.305327347766935 -15.887503579594023" fill="#ffa10e" stroke="none" /><path d="M 84.9287848128048 114.62390073753433 l -21.774518988643702 21.1282501339391 a51.34028066628756,51.34028066628756 0 0,0 -0.6099554131716342,-0.6395358121408516 l 22.134980953194294 -20.750307205215748" fill="#cfff1d" stroke="none" /><path d="M 83.95833913139862 113.55231037782056 l -24.295352310211285 20.525191122257528 a52.804836337929615,52.804836337929615 0 0,0 -0.5806118064473854,-0.6993843236831109 l 24.64506011655221 -20.103945541460657" fill="#bbff1f" stroke="none" /><path d="M 82.44556493220864 111.52570212397912 l -16.520541134776217 10.846879168201646 a40.763174519175806,40.763174519175806 0 0,0 -0.3800586344841599,-0.5898594407147586 l 16.704804632637423 -10.560898127565439" fill="#ff920d" stroke="none" /><line stroke="#e1ed5e" stroke-width="0.3" x1="26.63291911575756" x2="22.317208475507996" y1="142.92168965132927" y2="145.44649492493687" /><path d="M 25.769776987707644 143.4266507060508 a86.0,86.0 0 0,1 -11.730757126820373,-40.83630448921669" fill="none" id="id21" stroke="none" /><text fill="#e1ed5e" style="font-size:6.75px; font-family:Arial;" text-anchor="middle"><textPath startOffset="21.46611528233685" xlink:href="#id21">September</textPath></text><path d="M 81.18737489456691 109.33194174019688 l -30.934946197711465 15.34517984785636 a55.53180332415844,55.53180332415844 0 0,0 -0.41740544328715873,-0.8599788445800017 l 31.194504897613342 -14.810412047311074" fill="#97ff23" stroke="none" /><path d="M 79.10278846688536 102.07522291339032 l -13.709637824693207 1.3614521967680655 a34.77707230758202,34.77707230758202 0 0,0 -0.05402933449220031,-0.596209203929609 l 13.731041755462483 -1.1252616042898902" fill="#ff3004" stroke="none" /><path d="M 79.0235259727143 100.99374915477108 l -18.90049717119689 0.8954008697647865 a39.92169485104326,39.92169485104326 0 0,0 -0.02661040861332391,-0.6866964056171904 l 18.913109712661413 -0.5699272171335994" fill="#ff850c" stroke="none" /><line stroke="#e1ed5e" stroke-width="0.3" x1="15.007084014347285" x2="10.007500721073583" y1="101.09737516637583" y2="101.16192664675087" /><path d="M 14.007167355692545 101.11028546245083 a86.0,86.0 0 0,1 10.666146001902534,-42.60595125391555" fill="none" id="id22" stroke="none" /><text fill="#e1ed5e" style="font-size:6.75px; font-family:Arial;" text-anchor="middle"><textPath startOffset="22.20632615414155" xlink:href="#id22">October</textPath></text><path d="M 79.00019446554 99.90962569577889 l -32.151956103679424 -0.1383684557197376 a53.15225384203208,53.15225384203208 0 0,0 0.011812437636101902,-0.9148863126790748 l 32.14481065892561 0.6917910264592844" fill="#b6ff1f" stroke="none" /><path d="M 79.00486145842228 99.54816195383935 l -20.954038052051725 -0.4509535192571039 a41.958889993588926,41.958889993588926 0 0,0 0.021755295931055865,-0.7219523588378268 l 20.943171061665023 0.8115760255199251" fill="#ffa50f" stroke="none" /><path d="M 79.21141760316559 97.0276538004421 l -20.710105016019295 -2.96112552370015 a41.92072451282833,41.92072451282833 0 0,0 0.10828344036073882,-0.7134525785738776 l 20.656065682219253 3.3171772146661196" fill="#ffa40f" stroke="none" /><path d="M 79.3925641242962 95.95851677861259 l -20.671564913529096 -4.054060061705531 a42.06535067256567,42.06535067256567 0 0,0 0.14546739921068455,-0.7093507002466045 l 20.598718218403416 4.4092864181155385" fill="#ffa60f" stroke="none" /><path d="M 79.71946130924805 94.55025226153421 l -19.413193977570163 -5.216676518750693 a41.10188583969303,41.10188583969303 0 0,0 0.18948601447397379,-0.6816820117204813 l 19.320521192529828 5.550069833890117" fill="#ff970e" stroke="none" /><path d="M 80.02781315780177 93.51064311812611 l -39.98032322799515 -12.990394478533583 a63.037799587072634,63.037799587072634 0 0,0 0.344194509301257,-1.0290977729066968 l 39.75079142492212 13.676665354362601" fill="#3aff2e" stroke="none" /><path d="M 80.52162464483688 92.15188598940014 l -39.841406996210075 -16.05266860031452 a63.95376445236413,63.95376445236413 0 0,0 0.42020154935307275,-1.017551381846377 l 39.5591837599708 16.736094552614208" fill="#2fff2f" stroke="none" /><path d="M 81.6062741919709 89.86733742301443 l -18.037198080420794 -9.936259999231718 a41.592954556465855,41.592954556465855 0 0,0 0.3508511464642431,-0.62412504053693 l 17.86348929266412 10.245268549703432" fill="#ff9f0e" stroke="none" /><line stroke="#e1ed5e" stroke-width="0.3" x1="26.266209847984243" x2="21.928928074336255" y1="57.711370442889674" y2="55.22380399835377" /><path d="M 25.398753493254645 57.213857153982495 a86.0,86.0 0 0,1 29.58750427330803,-30.492523968695096" fill="none" id="id23" stroke="none" /><text fill="#e1ed5e" style="font-size:6.75px; font-family:Arial;" text-anchor="middle"><textPath startOffset="21.46611528233685" xlink:href="#id23">November</textPath></text><path d="M 81.96595687620814 89.24020034530311 l -17.998943443003533 -10.738857843111225 a41.95912767361732,41.95912767361732 0 0,0 0.37540272416972825,-0.6170633730348525 l 17.811424920547587 11.047088989353151" fill="#ffa50f" stroke="none" /><path d="M 82.95767976084542 87.72973835380427 l -16.45660443367041 -11.848553446681253 a41.278265415591214,41.278265415591214 0 0,0 0.4201289814236812,-0.5730554585114604 l 16.250212839733095 12.130071348864213" fill="#ff9a0e" stroke="none" /><path d="M 83.39014120810768 87.1503855733568 l -16.557963855108124 -12.809467792242108 a41.93438874549613,41.93438874549613 0 0,0 0.44659309170077693,-0.5671278742214578 l 16.33501668281338 13.092588060416613" fill="#ffa40f" stroke="none" /><path d="M 85.05521093208273 85.24692304244772 l -14.726937867065717 -14.53802035709763 a41.69388157992113,41.69388157992113 0 0,0 0.5085942768018712,-0.5064102113465552 l 14.474507790096531 14.789366419094295" fill="#ffa10e" stroke="none" /><line stroke="#e1ed5e" stroke-width="0.3" x1="56.762969772571076" x2="54.21961505331055" y1="26.818313649435495" y2="22.513508569990535" /><path d="M 56.25429882871897 25.957352633546506 a86.0,86.0 0 0,1 42.265352541879196,-11.944610805530505" fill="none" id="id24" stroke="none" /><text fill="#e1ed5e" style="font-size:6.75px; font-family:Arial;" text-anchor="middle"><textPath startOffset="22.20632615414155" xlink:href="#id24">December</textPath></text><path d="M 97.11714578562143 79.19881850522333 l -3.048376570378185 -21.99550500632242 a43.205738902319496,43.205738902319496 0 0,0 0.7375533828769817,-0.0957555970212591 l 2.6693084589933456 22.04471892650782" fill="#ffb811" stroke="none" /></svg>