<?xml version="1.0" encoding="utf-8" ?>
<svg baseProfile="full" height="200mm" version="1.1" viewBox="0,0,200,200" width="200mm" xmlns="http://www.w3.org/2000/svg" xmlns:ev="http://www.w3.org/2001/xml-events" xmlns:xlink="http://www.w3.org/1999/xlink"><defs /><rect fill="#1a1a1a" height="200" width="200" x="0" y="0" /><text alignment-baseline="middle" fill="#e1ed5e" style="dominant-baseline: central; font-size:9.0px; font-family:Arial;" text-anchor="middle" x="100.0" y="100.0">2024</text><line stroke="#e1ed5e" stroke-width="0.3" x1="100.0" x2="100.0" y1="15.0" y2="10.0" /><path d="M 100.0 14.0 a86.0,86.0 0 0,1 42.35913384403234,11.155469271406648" fill="none" id="id25" stroke="none" /><text fill="#e1ed5e" style="font-size:6.75px; font-family:Arial;" text-anchor="middle"><textPath startOffset="22.145653131862478" xlink:href="#id25">January</textPath></text><line stroke="#e1ed5e" stroke-width="0.3" x1="143.13028292997686" x2="145.6673583964461" y1="26.7553504044142" y2="22.446841604673864" /><path d="M 143.63769802327073 25.89364864446614 a86.0,86.0 0 0,1 29.32050498858742,28.57503671076993" fill="none" id="id26" stroke="none" /><text fill="#e1ed5e" style="font-size:6.75px; font-family:Arial;" text-anchor="middle"><textPath startOffset="20.669276256404974" xlink:href="#id26">February</textPath></text><line stroke="#e1ed5e" stroke-width="0.3" x1="172.87174338648825" x2="177.1583165268699" y1="56.24261187166439" y2="53.66864786411523" /><path d="M 173.72905801456457 55.72781907015455 a86.0,86.0 0 0,1 12.242430191666344,42.057860355516425" fill="none" id="id27" stroke="none" /><text fill="#e1ed5e" style="font-size:6.75px; font-family:Arial;" text-anchor="middle"><textPath startOffset="22.145653131862474" xlink:href="#id27">March</textPath></text><path d="M 120.05942366710727 93.78553927170692 l 18.975524764993008 -5.878666077738173 a40.8652776210254,40.8652776210254 0 0,0 0.20184271328219847,0.6718687467316956 l -19.073643798278834 5.552059727415754" fill="#ff7c0b" stroke="none" /><path d="M 120.35273937422433 94.82641323984039 l 19.63375339464329 -4.990823335722914 a41.25814872909327,41.25814872909327 0 0,0 0.1685935139905824,0.6879190697592829 l -19.716534435150162 4.653048441355536" fill="#ff830c" stroke="none" /><path d="M 120.592083275326 95.88100663000786 l 19.952254453461578 -3.9910096861680087 a41.34749655586073,41.34749655586073 0 0,0 0.13324468556123062,0.6971924987011499 l -20.017825431304964 3.6479146224335444" fill="#ff840c" stroke="none" /><path d="M 120.7213421655516 96.59031103205396 l 20.23474042772984 -3.3296188371611493 a41.506854507173514,41.506854507173514 0 0,0 0.10965420733771945,0.7040586717289252 l -20.288916127205823 2.9817719835007828" fill="#ff870c" stroke="none" /><path d="M 120.93736805541906 98.37931529534042 l 21.08590658809809 -1.6321825265122702 a42.14898287014887,42.14898287014887 0 0,0 0.04964756557756985,0.7218647073550175 l -21.110818114840725 1.2699743950029188" fill="#ff910d" stroke="none" /><line stroke="#e1ed5e" stroke-width="0.3" x1="184.99686870605535" x2="189.99668451229388" y1="99.2704041080226" y2="99.22748670261217" /><path d="M 185.99683186730306 99.26182062694052 a86.0,86.0 0 0,1 -10.086455211305974,41.156179273409016" fill="none" id="id28" stroke="none" /><text fill="#e1ed5e" style="font-size:6.75px; font-family:Arial;" text-anchor="middle"><textPath startOffset="21.40746469413373" xlink:href="#id28">April</textPath></text><path d="M 120.98066250479742 100.90099992219065 l 25.592486926821618 1.099051506331544 a46.616075056751086,46.616075056751086 0 0,0 -0.041196202801257575,0.799195328690372 l -25.56984913456379 -1.5382186283986465" fill="#ffd814" stroke="none" /><path d="M 120.7213421655516 103.40968896794604 l 25.797617988425102 4.244988222850367 a47.144540900326646,47.144540900326646 0 0,0 -0.13825738836149715,0.79743187559792 l -25.72094578257137 -4.687213131368875" fill="#ffe115" stroke="none" /><path d="M 119.58574465831526 107.57618678355244 l 24.738335284934273 9.569319528182287 a47.52465096664375,47.52465096664375 0 0,0 -0.3008566700608607,0.7583553426763202 l -24.57041993990729 -9.992575888072173" fill="#ffe615" stroke="none" /><line stroke="#e1ed5e" stroke-width="0.3" x1="174.33088141563837" x2="178.70328620479359" y1="141.23008692659167" y2="143.65538615756765" /><path d="M 175.20536237346943 141.71514677278685 a86.0,86.0 0 0,1 -30.301960400862466,31.631185727798858" fill="none" id="id29" stroke="none" /><text fill="#e1ed5e" style="font-size:6.75px; font-family:Arial;" text-anchor="middle"><textPath startOffset="22.145653131862474" xlink:href="#id29">May</textPath></text><line stroke="#e1ed5e" stroke-width="0.3" x1="143.1302829299769" x2="145.66735839644613" y1="173.24464959558577" y2="177.55315839532614" /><path d="M 143.63769802327073 174.10635135553383 a86.0,86.0 0 0,1 -40.68552437913181,11.842963189579606" fill="none" id="id30" stroke="none" /><text fill="#e1ed5e" style="font-size:6.75px; font-family:Arial;" text-anchor="middle"><textPath startOffset="21.407464694133747" xlink:href="#id30">June</textPath></text><path d="M 106.72888874123015 119.89276391827305 l 4.063266871139619 12.012326509316537 a33.680935526708176,33.680935526708176 0 0,0 -0.5492835520309611,0.1805604137102287 l -3.856460581460923 -12.080307844428784" fill="#ff0000" stroke="none" /><path d="M 104.29559338865022 120.5559693870025 l 10.282608555513132 49.20600428432904 a71.26890585973918,71.26890585973918 0 0,0 -1.1997051758943358,0.23997463488189924 l -9.436406894087837 -49.375268315873804" fill="#3aff8e" stroke="none" /><path d="M 102.875027216393 120.80226474461374 l 3.979367418585122 28.79272032121959 a50.066408593909024,50.066408593909024 0 0,0 -0.852373878600036,0.1103568637043281 l -3.4845157180943103 -28.856788781124312" fill="#f1ff19" stroke="none" /><path d="M 102.15924093988457 120.88869738790638 l 6.477722819653695 62.666092163719114 a84.0,84.0 0 0,0 -1.4356017464599389,0.1359529779792652 l -5.401021509808741 -62.76805689720356" fill="#4dd2ff" stroke="none" /><path d="M 101.80034050326958 120.92268563240118 l 2.626883863398388 30.528372364503834 a51.64118206038377,51.64118206038377 0 0,0 -0.8838781894742285,0.06841776190165966 l -2.102436679148924 -30.568967893400547" fill="#daff1b" stroke="none" /><line stroke="#e1ed5e" stroke-width="0.3" x1="101.45913802915013" x2="101.54496967792366" y1="184.9874750549273" y2="189.98673829345242" /><path d="M 101.47630435890484 185.9873277026323 a86.0,86.0 0 0,1 -42.54439059252881,-10.42667462771756" fill="none" id="id31" stroke="none" /><text fill="#e1ed5e" style="font-size:6.75px; font-family:Arial;" text-anchor="middle"><textPath startOffset="22.145653131862474" xlink:href="#id31">July</textPath></text><line stroke="#e1ed5e" stroke-width="0.3" x1="58.13341422392154" x2="55.67067388415222" y1="173.97424548756322" y2="178.32567169271397" /><path d="M 57.64086615596768 174.84453072859336 a86.0,86.0 0 0,1 -31.369924170532247,-30.572349798747897" fill="none" id="id32" stroke="none" /><text fill="#e1ed5e" style="font-size:6.75px; font-family:Arial;" text-anchor="middle"><textPath startOffset="22.145653131862474" xlink:href="#id32">August</textPath></text><line stroke="#e1ed5e" stroke-width="0.3" x1="26.387840678322732" x2="22.057713659400548" y1="142.50000000000003" y2="145.00000000000006" /><path d="M 25.521815274538298 143.00000000000003 a86.0,86.0 0 0,1 -11.493303480769221,-40.785679425670985" fill="none" id="id33" stroke="none" /><text fill="#e1ed5e" style="font-size:6.75px; font-family:Arial;" text-anchor="middle"><textPath startOffset="21.40746469413373" xlink:href="#id33">September</textPath></text><line stroke="#e1ed5e" stroke-width="0.3" x1="15.003131293944662" x2="10.003315487706104" y1="100.72959589197737" y2="100.7725132973878" /><path d="M 14.003168132696942 100.73817937305945 a86.0,86.0 0 0,1 10.791469493833604,-42.45332614584628" fill="none" id="id34" stroke="none" /><text fill="#e1ed5e" style="font-size:6.75px; font-family:Arial;" text-anchor="middle"><textPath startOffset="22.145653131862435" xlink:href="#id34">October</textPath></text><line stroke="#e1ed5e" stroke-width="0.3" x1="26.387840678322718" x2="22.05771365940052" y1="57.49999999999999" y2="54.99999999999999" /><path d="M 25.521815274538284 56.99999999999999 a86.0,86.0 0 0,1 29.574782752854787,-30.34633250058573" fill="none" id="id35" stroke="none" /><text fill="#e1ed5e" style="font-size:6.75px; font-family:Arial;" text-anchor="middle"><textPath startOffset="21.40746469413373" xlink:href="#id35">November</textPath></text><line stroke="#e1ed5e" stroke-width="0.3" x1="56.869717070023135" x2="54.33264160355391" y1="26.7553504044142" y2="22.446841604673864" /><path d="M 56.362301976729285 25.89364864446614 a86.0,86.0 0 0,1 42.16139366436587,-11.88097634709845" fill="none" id="id36" stroke="none" /><text fill="#e1ed5e" style="font-size:6.75px; font-family:Arial;" text-anchor="middle"><textPath startOffset="22.145653131862474" xlink:href="#id36">December</textPath></text></svg>