<?xml version="1.0" encoding="utf-8" ?>
<svg baseProfile="full" height="200mm" version="1.1" viewBox="0,0,200,200" width="200mm" xmlns="http://www.w3.org/2000/svg" xmlns:ev="http://www.w3.org/2001/xml-events" xmlns:xlink="http://www.w3.org/1999/xlink"><defs /><rect fill="#1a1a1a" height="200" width="200" x="0" y="0" /><rect fill="#1a1a1a" height="200" width="180" x="10" y="0" /><text alignment-baseline="middle" fill="#e1ed5e" style="dominant-baseline: central; font-size:9.0px; font-family:Arial;" text-anchor="middle" x="100.0" y="100.0">2024</text><line stroke="#e1ed5e" stroke-width="0.3" x1="100.0" x2="100.0" y1="15.0" y2="10.0" /><path d="M 100.0 14.0 a86.0,86.0 0 0,1 42.35913384403234,11.155469271406648" fill="none" id="id25" stroke="none" /><text fill="#e1ed5e" style="font-size:6.75px; font-family:Arial;" text-anchor="middle"><textPath startOffset="22.145653131862478" xlink:href="#id25">January</textPath></text><line stroke="#e1ed5e" stroke-width="0.3" x1="143.13028292997686" x2="145.6673583964461" y1="26.7553504044142" y2="22.446841604673864" /><path d="M 143.63769802327073 25.89364864446614 a86.0,86.0 0 0,1 29.32050498858742,28.57503671076993" fill="none" id="id26" stroke="none" /><text fill="#e1ed5e" style="font-size:6.75px; font-family:Arial;" text-anchor="middle"><textPath startOffset="20.669276256404974" xlink:href="#id26">February</textPath></text><line stroke="#e1ed5e" stroke-width="0.3" x1="172.87174338648825" x2="177.1583165268699" y1="56.24261187166439" y2="53.66864786411523" /><path d="M 173.72905801456457 55.72781907015455 a86.0,86.0 0 0,1 12.242430191666344,42.057860355516425" fill="none" id="id27" stroke="none" /><text fill="#e1ed5e" style="font-size:6.75px; font-family:Arial;" text-anchor="middle"><textPath startOffset="22.145653131862474" xlink:href="#id27">March</textPath></text><path d="M 118.70294669586156 90.45014215332178 l 3.9964725884350276 -2.0406273796495236 a25.487310246984027,25.487310246984027 0 0,0 0.1956212798861081,0.3913736012725506 l -4.030913781532872 1.9717219222132227" fill="#ff1702" stroke="none" /><path d="M 119.0197475246899 91.09779779509293 l 4.0916885086296615 -1.9151168235031444 a25.517697123459783,25.517697123459783 0 0,0 0.1822881423639302,0.3983324888370846 l -4.123961115848643 1.8445953524513756" fill="#ff1802" stroke="none" /><path d="M 119.31412917781788 91.75594674310238 l 4.179758278095502 -1.7840902651284363 a25.54459649885817,25.54459649885817 0 0,0 0.16868454029216498,0.4047814892504835 l -4.20976866292415 1.712076266436675" fill="#ff1802" stroke="none" /><path d="M 119.94978838288452 93.4421083053983 l 4.388629217985051 -1.4426295932041948 a25.61965870559077,25.61965870559077 0 0,0 0.13375326494652912,0.4189801974170432 l -4.412747198708837 1.3670803620957648" fill="#ff1902" stroke="none" /><path d="M 120.05942366710727 93.78553927170692 l 4.425088463673467 -1.3709037175287482 a25.63257864629087,25.63257864629087 0 0,0 0.12660501833284427,0.4214269299794112 l -4.447969802009939 1.2947391839586135" fill="#ff1902" stroke="none" /><path d="M 120.35273937422433 94.82641323984039 l 4.5324074016629 -1.1521202376614366 a25.676547647215592,25.676547647215592 0 0,0 0.10492228876808922,0.4281187429926316 l -4.551517216947281 1.0741456700607102" fill="#ff1a02" stroke="none" /><path d="M 120.592083275326 95.88100663000786 l 4.630655000842744 -0.9262606892254922 a25.72238547783156,25.72238547783156 0 0,0 0.08289186650630784,0.4337252723297369 l -4.645873159631209 0.8466328518624407" fill="#ff1b02" stroke="none" /><path d="M 120.7213421655516 96.59031103205396 l 4.69819997890731 -0.7730870186544284 a25.761380743042572,25.761380743042572 0 0,0 0.06805728400390623,0.4369765843064549 l -4.710778755049481 0.6923222524165322" fill="#ff1b02" stroke="none" /><path d="M 120.93736805541906 98.37931529534042 l 4.895888416035651 -0.37897272716354174 a25.9105339536761,25.9105339536761 0 0,0 0.03052018924342885,0.4437568533386671 l -4.901672566444145 0.2948724496705405" fill="#ff1d03" stroke="none" /><line stroke="#e1ed5e" stroke-width="0.3" x1="184.99686870605535" x2="189.99668451229388" y1="99.2704041080226" y2="99.22748670261217" /><path d="M 185.99683186730306 99.26182062694052 a86.0,86.0 0 0,1 -10.086455211305974,41.156179273409016" fill="none" id="id28" stroke="none" /><text fill="#e1ed5e" style="font-size:6.75px; font-family:Arial;" text-anchor="middle"><textPath startOffset="21.40746469413373" xlink:href="#id28">April</textPath></text><path d="M 120.98066250479742 100.90099992219065 l 5.941404866190153 0.2551494892459369 a26.94688095104068,26.94688095104068 0 0,0 -0.023813870454965445,0.4619827248997102 l -5.936149406278615 -0.35710400752237775" fill="#ff2d04" stroke="none" /><path d="M 120.7213421655516 103.40968896794604 l 5.969884690831695 0.9823422540687966 a27.050166900669403,27.050166900669403 0 0,0 -0.07932806978301178,0.4575432258942227 l -5.952141803556449 -1.0846785128836074" fill="#ff2e04" stroke="none" /><path d="M 119.58574465831526 107.57618678355244 l 5.805649043496828 2.245749769570828 a27.224865688814745,27.224865688814745 0 0,0 -0.17234808183525369,0.4344297523247219 l -5.766242286695451 -2.345080539109114" fill="#ff3104" stroke="none" /><line stroke="#e1ed5e" stroke-width="0.3" x1="174.33088141563837" x2="178.70328620479359" y1="141.23008692659167" y2="143.65538615756765" /><path d="M 175.20536237346943 141.71514677278685 a86.0,86.0 0 0,1 -30.301960400862466,31.631185727798858" fill="none" id="id29" stroke="none" /><text fill="#e1ed5e" style="font-size:6.75px; font-family:Arial;" text-anchor="middle"><textPath startOffset="22.145653131862474" xlink:href="#id29">May</textPath></text><line stroke="#e1ed5e" stroke-width="0.3" x1="143.1302829299769" x2="145.66735839644613" y1="173.24464959558577" y2="177.55315839532614" /><path d="M 143.63769802327073 174.10635135553383 a86.0,86.0 0 0,1 -40.68552437913181,11.842963189579606" fill="none" id="id30" stroke="none" /><text fill="#e1ed5e" style="font-size:6.75px; font-family:Arial;" text-anchor="middle"><textPath startOffset="21.407464694133747" xlink:href="#id30">June</textPath></text><path d="M 106.72888874123015 119.89276391827305 l 0.9441261992125861 2.791141347740415 a23.94649695453869,23.94649695453869 0 0,0 -0.3905300342817753,0.12837497918053897 l -0.8960734272830766 -2.8069372483229733" fill="#ff0000" stroke="none" /><path d="M 104.29559338865022 120.5559693870025 l 2.38790576102002 11.426993498096996 a32.67382860629124,32.67382860629124 0 0,0 -0.5500149163563358,0.11001838733738616 l -2.1913943591327256 -11.466301282097243" fill="#ff7e0b" stroke="none" /><path d="M 102.875027216393 120.80226474461374 l 0.982282336153897 7.10730566101115 a28.174863925327163,28.174863925327163 0 0,0 -0.4796732723101898,0.06210330849402268 l -0.8601312419529319 -7.123120565705568" fill="#ff3f05" stroke="none" /><path d="M 102.15924093988457 120.88869738790638 l 1.5147739749271623 14.654064115244662 a35.73214632322181,35.73214632322181 0 0,0 -0.6106801388854681,0.05783204407420068 l -1.262994272656679 -14.677907914824047" fill="#ffa80f" stroke="none" /><path d="M 101.80034050326958 120.92268563240118 l 0.6095362309928785 7.083734948728769 a28.109911057160588,28.109911057160588 0 0,0 -0.48112255181209257,0.037241928341935224 l -0.48784468440555007 -7.093154644065758" fill="#ff3e05" stroke="none" /><line stroke="#e1ed5e" stroke-width="0.3" x1="101.45913802915013" x2="101.54496967792366" y1="184.9874750549273" y2="189.98673829345242" /><path d="M 101.47630435890484 185.9873277026323 a86.0,86.0 0 0,1 -42.54439059252881,-10.42667462771756" fill="none" id="id31" stroke="none" /><text fill="#e1ed5e" style="font-size:6.75px; font-family:Arial;" text-anchor="middle"><textPath startOffset="22.145653131862474" xlink:href="#id31">July</textPath></text><path d="M 99.63950707515114 120.99690560180557 l -0.2816578294360351 16.40515652049906 a37.40757421421446,37.40757421421446 0 0,0 -0.6419615095101641,-0.01653465129073409 l 0.5632326530169431 -16.397904151858278" fill="#ffbf11" stroke="none" /><path d="M 96.76829788921471 120.74984581791261 l -1.1195993628229888 7.188631055714804 a28.27529512723855,28.27529512723855 0 0,0 -0.4789599325987068,-0.07881267464348582 l 1.2428367984747593 -7.168352382575651" fill="#ff4006" stroke="none" /><path d="M 94.30408787586889 120.21278271476187 l -1.9367547920655435 6.872859505318714 a28.14053337674705,28.14053337674705 0 0,0 -0.4638363749810574,-0.13501600873322758 l 2.0544511794282077 -6.838599802282971" fill="#ff3e05" stroke="none" /><path d="M 90.28995756902619 118.62028667847754 l -4.218881731292869 8.090262000161669 a30.12421516043416,30.12421516043416 0 0,0 -0.4564696276048648,-0.24304436594556814 l 4.357140174684295 -8.016647166493527" fill="#ff5b08" stroke="none" /><line stroke="#e1ed5e" stroke-width="0.3" x1="58.13341422392154" x2="55.67067388415222" y1="173.97424548756322" y2="178.32567169271397" /><path d="M 57.64086615596768 174.84453072859336 a86.0,86.0 0 0,1 -31.369924170532247,-30.572349798747897" fill="none" id="id32" stroke="none" /><text fill="#e1ed5e" style="font-size:6.75px; font-family:Arial;" text-anchor="middle"><textPath startOffset="22.145653131862474" xlink:href="#id32">August</textPath></text><path d="M 88.1277618465304 117.32195027204791 l -4.836574737085847 7.05670708419544 a29.55509030107521,29.55509030107521 0 0,0 -0.4160299892285937,-0.2904212429987819 l 4.956999817488206 -6.972641025391529" fill="#ff5207" stroke="none" /><path d="M 84.3458050057657 113.99807769240083 l -3.6964441813297797 3.3053831803510207 a25.958755645787985,25.958755645787985 0 0,0 -0.2941855541476172,-0.33472915772266576 l 3.7526407994359894 -3.241441744817055" fill="#ff1e03" stroke="none" /><path d="M 83.8745106332314 113.45245675266167 l -22.344464745838906 18.64054719940611 a50.09888493862479,50.09888493862479 0 0,0 -0.545250452634314,-0.6651168957303912 l 22.661162017711852 -18.254228021977223" fill="#a3ff22" stroke="none" /><path d="M 82.576782715395 111.72311816256416 l -6.501827625920413 4.374719794066841 a28.836576787972035,28.836576787972035 0 0,0 -0.2728153844264711,-0.4130772636972741 l 6.575967449267611 -4.262462652030506" fill="#ff4806" stroke="none" /><line stroke="#e1ed5e" stroke-width="0.3" x1="26.387840678322732" x2="22.057713659400548" y1="142.50000000000003" y2="145.00000000000006" /><path d="M 25.521815274538298 143.00000000000003 a86.0,86.0 0 0,1 -11.493303480769221,-40.785679425670985" fill="none" id="id33" stroke="none" /><text fill="#e1ed5e" style="font-size:6.75px; font-family:Arial;" text-anchor="middle"><textPath startOffset="21.40746469413373" xlink:href="#id33">September</textPath></text><path d="M 81.63589988554817 110.18625677009913 l -6.443961400022619 3.574356762822366 a28.368898478939403,28.368898478939403 0 0,0 -0.23256370473523905,-0.42789102251686656 l 6.504370454373188 -3.4632109068309123" fill="#ff4106" stroke="none" /><path d="M 81.1358732173502 109.22738970284198 l -9.405306867790141 4.60060689497364 a31.470213993963036,31.470213993963036 0 0,0 -0.23321038351909,-0.4873200070558366 l 9.482896509269143 -4.438474385852699" fill="#ff6e0a" stroke="none" /><path d="M 80.5471966667186 107.91128576633889 l -13.628883584141173 5.542748305373321 a35.71286941853259,35.71286941853259 0 0,0 -0.2260817229172141,-0.5698736292635734 l 13.722023982024512 -5.307973658896183" fill="#ffa80f" stroke="none" /><path d="M 79.48165901384964 104.47187691870673 l -7.205391019071763 1.5703814363058393 a28.374534398401977,28.374534398401977 0 0,0 -0.09963824384909094,-0.4768050662682057 l 7.23128697374522 -1.4464599187522245" fill="#ff4106" stroke="none" /><path d="M 79.2786578344484 103.40968896794605 l -30.13119726064387 4.9580770429736605 a51.53639756624699,51.53639756624699 0 0,0 -0.13615059226401924,-0.8741844701798303 l 30.211869345046157 -4.4401043908623805" fill="#92ff23" stroke="none" /><path d="M 79.0935383218832 101.97986365728391 l -8.813903272677175 0.8346858037032099 a29.85333786156459,29.85333786156459 0 0,0 -0.04393612017530167,-0.5106043154979649 l 8.826933015550216 -0.6832604408295829" fill="#ff5708" stroke="none" /><path d="M 79.00696218219943 100.54070618675478 l -7.418603519413284 0.19107691106173244 a28.421063843155647,28.421063843155647 0 0,0 -0.008375509411049928,-0.4878314339859957 l 7.4207904604229995 -0.06369856110668437" fill="#ff4206" stroke="none" /><line stroke="#e1ed5e" stroke-width="0.3" x1="15.003131293944662" x2="10.003315487706104" y1="100.72959589197737" y2="100.7725132973878" /><path d="M 14.003168132696942 100.73817937305945 a86.0,86.0 0 0,1 10.791469493833604,-42.45332614584628" fill="none" id="id34" stroke="none" /><text fill="#e1ed5e" style="font-size:6.75px; font-family:Arial;" text-anchor="middle"><textPath startOffset="22.145653131862435" xlink:href="#id34">October</textPath></text><path d="M 79.01933749520258 99.09900007780938 l -8.829469357343356 -0.3791754050727324 a29.837607318730413,29.837607318730413 0 0,0 0.02636850315498288,-0.5115419168044002 l 8.821659264731803 0.5306891152538445" fill="#ff5708" stroke="none" /><path d="M 79.06263194458094 98.37931529534042 l -26.410142033385554 -2.044312022795861 a47.48914520837066,47.48914520837066 0 0,0 0.06989130664626513,-0.812242925569847 l 26.371157104041547 2.497375995741389" fill="#c1ff1e" stroke="none" /><path d="M 79.22317932658666 96.9465228501225 l -10.175660057547264 -1.4954716103605408 a31.284964411419086,31.284964411419086 0 0,0 0.08264967352633021,-0.530670192914356 l 10.148488891882666 1.669929985206347" fill="#ff6b09" stroke="none" /><path d="M 79.407916724674 95.88100663000787 l -23.086755665832754 -4.617997715468539 a44.544090342885056,44.544090342885056 0 0,0 0.1564182471966933,-0.748517936879077 l 23.004079707811695 5.013632103633025" fill="#e5ff1a" stroke="none" /><path d="M 79.73907114497095 94.47779374421319 l -7.099009866469587 -1.9348667070009533 a28.3579650894859,28.3579650894859 0 0,0 0.13204212324506148,-0.4685709133469804 l 7.064749251149944 2.0564455442509466" fill="#ff4106" stroke="none" /><path d="M 80.5471966667186 92.08871423366112 l -5.468499539212957 -2.2239911557522722 a26.903441697115053,26.903441697115053 0 0,0 0.17765771697188185,-0.4263138467115353 l 5.429515977704597 2.3175375119050714" fill="#ff2c04" stroke="none" /><path d="M 80.9802524753101 91.09779779509293 l -57.05924257406971 -26.706606614721213 a84.0,84.0 0 0,0 0.6224829681603801,-1.3007499917396512 l 56.59238034794942 27.68216910852595" fill="#4dd2ff" stroke="none" /><line stroke="#e1ed5e" stroke-width="0.3" x1="26.387840678322718" x2="22.05771365940052" y1="57.49999999999999" y2="54.99999999999999" /><path d="M 25.521815274538284 56.99999999999999 a86.0,86.0 0 0,1 29.574782752854787,-30.34633250058573" fill="none" id="id35" stroke="none" /><text fill="#e1ed5e" style="font-size:6.75px; font-family:Arial;" text-anchor="middle"><textPath startOffset="21.40746469413373" xlink:href="#id35">November</textPath></text><path d="M 82.18462484594161 88.88188828441811 l -12.521440828673127 -7.814305158851656 a35.759737312757906,35.759737312757906 0 0,0 0.3294703105773426,-0.5179820517916099 l 12.385452826469894 8.028100885321939" fill="#ffa90f" stroke="none" /><path d="M 82.98947788004972 87.6856937992154 l -8.35070858881917 -6.045269030022086 a31.30920033662759,31.30920033662759 0 0,0 0.3189035581166792,-0.4326539237869765 l 8.245703011118673 6.187729263077926" fill="#ff6b09" stroke="none" /><line stroke="#e1ed5e" stroke-width="0.3" x1="56.869717070023135" x2="54.33264160355391" y1="26.7553504044142" y2="22.446841604673864" /><path d="M 56.362301976729285 25.89364864446614 a86.0,86.0 0 0,1 42.16139366436587,-11.88097634709845" fill="none" id="id36" stroke="none" /><text fill="#e1ed5e" style="font-size:6.75px; font-family:Arial;" text-anchor="middle"><textPath startOffset="22.145653131862474" xlink:href="#id36">December</textPath></text></svg>