<?xml version="1.0" encoding="utf-8" ?>
<svg baseProfile="full" height="200mm" version="1.1" viewBox="0,0,200,200" width="200mm" xmlns="http://www.w3.org/2000/svg" xmlns:ev="http://www.w3.org/2001/xml-events" xmlns:xlink="http://www.w3.org/1999/xlink"><defs /><rect fill="#1a1a1a" height="200" width="200" x="0" y="0" /><text alignment-baseline="middle" fill="#e1ed5e" style="dominant-baseline: central; font-size:9.0px; font-family:Arial;" text-anchor="middle" x="100.0" y="100.0">2024</text><line stroke="#e1ed5e" stroke-width="0.3" x1="100.0" x2="100.0" y1="15.0" y2="10.0" /><path d="M 100.0 14.0 a86.0,86.0 0 0,1 42.35913384403234,11.155469271406648" fill="none" id="id25" stroke="none" /><text fill="#e1ed5e" style="font-size:6.75px; font-family:Arial;" text-anchor="middle"><textPath startOffset="22.145653131862478" xlink:href="#id25">January</textPath></text><line stroke="#e1ed5e" stroke-width="0.3" x1="143.13028292997686" x2="145.6673583964461" y1="26.7553504044142" y2="22.446841604673864" /><path d="M 143.63769802327073 25.89364864446614 a86.0,86.0 0 0,1 29.32050498858742,28.57503671076993" fill="none" id="id26" stroke="none" /><text fill="#e1ed5e" style="font-size:6.75px; font-family:Arial;" text-anchor="middle"><textPath startOffset="20.669276256404974" xlink:href="#id26">February</textPath></text><line stroke="#e1ed5e" stroke-width="0.3" x1="172.87174338648825" x2="177.1583165268699" y1="56.24261187166439" y2="53.66864786411523" /><path d="M 173.72905801456457 55.72781907015455 a86.0,86.0 0 0,1 12.242430191666344,42.057860355516425" fill="none" id="id27" stroke="none" /><text fill="#e1ed5e" style="font-size:6.75px; font-family:Arial;" text-anchor="middle"><textPath startOffset="22.145653131862474" xlink:href="#id27">March</textPath></text><path d="M 120.05942366710727 93.78553927170692 l 9.513672049220041 -2.9473599198507476 a30.95976336853709,30.95976336853709 0 0,0 0.15291717087626483,0.509011528232631 l -9.562865540099933 2.783610788027393" fill="#ff3905" stroke="none" /><path d="M 120.35273937422433 94.82641323984039 l 9.843685126247193 -2.5022262656607857 a31.156735358827802,31.156735358827802 0 0,0 0.12731602508658776,0.5194928290533606 l -9.88518867785007 2.3328776119993297" fill="#ff3c05" stroke="none" /><path d="M 120.592083275326 95.88100663000786 l 10.003370545146206 -2.0009542697607188 a31.201531270018847,31.201531270018847 0 0,0 0.10054872892935224,0.5261134376069763 l -10.036245566357715 1.828938267120428" fill="#ff3c05" stroke="none" /><path d="M 120.7213421655516 96.59031103205396 l 10.144999245852846 -1.6693557652801083 a31.28142783709679,31.28142783709679 0 0,0 0.08264033048507925,0.5306102038872701 l -10.172161068476191 1.494957379461397" fill="#ff3e05" stroke="none" /><path d="M 120.93736805541906 98.37931529534042 l 10.571744530076892 -0.8183198870131932 a31.603368797070672,31.603368797070672 0 0,0 0.0372258170418609,0.5412552098448665 l -10.584234308283818 0.6367212530139925" fill="#ff4306" stroke="none" /><line stroke="#e1ed5e" stroke-width="0.3" x1="184.99686870605535" x2="189.99668451229388" y1="99.2704041080226" y2="99.22748670261217" /><path d="M 185.99683186730306 99.26182062694052 a86.0,86.0 0 0,1 -10.086455211305974,41.156179273409016" fill="none" id="id28" stroke="none" /><text fill="#e1ed5e" style="font-size:6.75px; font-family:Arial;" text-anchor="middle"><textPath startOffset="21.40746469413373" xlink:href="#id28">April</textPath></text><path d="M 120.98066250479742 100.90099992219065 l 12.831188099467656 0.5510264261955679 a33.84301437226815,33.84301437226815 0 0,0 -0.0299082168927459,0.5802114176749158 l -12.819838293118337 -0.7712096372472144" fill="#ff6509" stroke="none" /><path d="M 120.7213421655516 103.40968896794604 l 12.934033721466173 2.1282903268901863 a34.10796887483177,34.10796887483177 0 0,0 -0.10002597562503361,0.5769232465365703 l -12.895592928348904 -2.3500066063473444" fill="#ff6809" stroke="none" /><path d="M 119.58574465831526 107.57618678355244 l 12.402945998031253 4.797725957665068 a34.29854291999438,34.29854291999438 0 0,0 -0.21712827345310975,0.5473050877879537 l -12.31875904961202 -5.009932062666586" fill="#ff6b09" stroke="none" /><line stroke="#e1ed5e" stroke-width="0.3" x1="174.33088141563837" x2="178.70328620479359" y1="141.23008692659167" y2="143.65538615756765" /><path d="M 175.20536237346943 141.71514677278685 a86.0,86.0 0 0,1 -30.301960400862466,31.631185727798858" fill="none" id="id29" stroke="none" /><text fill="#e1ed5e" style="font-size:6.75px; font-family:Arial;" text-anchor="middle"><textPath startOffset="22.145653131862474" xlink:href="#id29">May</textPath></text><line stroke="#e1ed5e" stroke-width="0.3" x1="143.1302829299769" x2="145.66735839644613" y1="173.24464959558577" y2="177.55315839532614" /><path d="M 143.63769802327073 174.10635135553383 a86.0,86.0 0 0,1 -40.68552437913181,11.842963189579606" fill="none" id="id30" stroke="none" /><text fill="#e1ed5e" style="font-size:6.75px; font-family:Arial;" text-anchor="middle"><textPath startOffset="21.407464694133747" xlink:href="#id30">June</textPath></text><path d="M 106.72888874123015 119.89276391827305 l 2.0371815240545197 6.022565192432597 a27.35778263697728,27.35778263697728 0 0,0 -0.44616278578763474,0.1466625696073685 l -1.9334960006191508 -6.056648683441985" fill="#ff0000" stroke="none" /><path d="M 104.29559338865022 120.5559693870025 l 5.155344414407407 24.67018927862548 a46.2030913793203,46.2030913793203 0 0,0 -0.7777597705678091,0.1555737365463182 l -4.73108815830864 -24.755052411834658" fill="#ecff1a" stroke="none" /><path d="M 102.875027216393 120.80226474461374 l 1.9951172393194223 14.435674477174208 a35.57289231448474,35.57289231448474 0 0,0 -0.6056237115199753,0.07841011446536884 l -1.7470157059086715 -14.467796187839971" fill="#ff7e0b" stroke="none" /><path d="M 102.15924093988457 120.88869738790638 l 3.2477062582019665 31.418611966489202 a52.58602181092742,52.58602181092742 0 0,0 -0.8987212470374744,0.08510983649140684 l -2.7078854477794767 -31.469733558485792" fill="#9cff22" stroke="none" /><path d="M 101.80034050326958 120.92268563240118 l 1.3170287460964247 15.305870402497328 a36.362429283680626,36.362429283680626 0 0,0 -0.62237069094513,0.048175427626497465 l -1.0540890603760589 -15.32622359711888" fill="#ff8a0c" stroke="none" /><line stroke="#e1ed5e" stroke-width="0.3" x1="101.45913802915013" x2="101.54496967792366" y1="184.9874750549273" y2="189.98673829345242" /><path d="M 101.47630435890484 185.9873277026323 a86.0,86.0 0 0,1 -42.54439059252881,-10.42667462771756" fill="none" id="id31" stroke="none" /><text fill="#e1ed5e" style="font-size:6.75px; font-family:Arial;" text-anchor="middle"><textPath startOffset="22.145653131862474" xlink:href="#id31">July</textPath></text><path d="M 99.63950707515114 120.99690560180557 l -0.6053283825627939 35.257343572259536 a56.26253958839447,56.26253958839447 0 0,0 -0.9655366754392883,-0.024868799764934446 l 1.210478372072826 -35.241757055144554" fill="#71ff27" stroke="none" /><path d="M 96.76829788921471 120.74984581791261 l -2.4272070895249365 15.584410675632652 a36.77229185509237,36.77229185509237 0 0,0 -0.6228919751026167,-0.10249663746493803 l 2.694376567680617 -15.540448039672045" fill="#ff900d" stroke="none" /><path d="M 94.30408787586889 120.21278271476187 l -4.061447289787896 14.412643627022982 a35.97396575417787,35.97396575417787 0 0,0 -0.592953717177887,-0.17260018527041754 l 4.30826101934739 -14.340799747450047" fill="#ff840c" stroke="none" /><path d="M 90.28995756902619 118.62028667847754 l -9.09329066172083 17.43758383916595 a40.666145153702104,40.666145153702104 0 0,0 -0.616210581274053,-0.3280974263294141 l 9.391290058781445 -17.278915945113962" fill="#ffc712" stroke="none" /><line stroke="#e1ed5e" stroke-width="0.3" x1="58.13341422392154" x2="55.67067388415222" y1="173.97424548756322" y2="178.32567169271397" /><path d="M 57.64086615596768 174.84453072859336 a86.0,86.0 0 0,1 -31.369924170532247,-30.572349798747897" fill="none" id="id32" stroke="none" /><text fill="#e1ed5e" style="font-size:6.75px; font-family:Arial;" text-anchor="middle"><textPath startOffset="22.145653131862474" xlink:href="#id32">August</textPath></text><path d="M 88.1277618465304 117.32195027204791 l -10.581862391690802 15.439253472265817 a39.717541490739436,39.717541490739436 0 0,0 -0.5590809633891534,-0.39028193286137935 l 10.845338446253722 -15.255326723599307" fill="#ffba11" stroke="none" /><path d="M 84.3458050057657 113.99807769240083 l -7.989619255490073 7.144366804696372 a31.718021873822856,31.718021873822856 0 0,0 -0.35945420376615195,-0.4089928997878023 l 8.111084523214817 -7.00616162709727" fill="#ff4406" stroke="none" /><path d="M 83.8745106332314 113.45245675266167 l -48.3764681003058 40.35737025798504 a84.0,84.0 0 0,0 -0.9142127230454804,-1.1151908732060192 l 49.06212764258991 -39.520977103080526" fill="#4dd2ff" stroke="none" /><path d="M 82.576782715395 111.72311816256416 l -12.788860630052767 8.604916180615279 a36.41426413067871,36.41426413067871 0 0,0 -0.34450592178340234,-0.5216258745706827 l 12.934690990756897 -8.384110427705535" fill="#ff8b0c" stroke="none" /><line stroke="#e1ed5e" stroke-width="0.3" x1="26.387840678322732" x2="22.057713659400548" y1="142.50000000000003" y2="145.00000000000006" /><path d="M 25.521815274538298 143.00000000000003 a86.0,86.0 0 0,1 -11.493303480769221,-40.785679425670985" fill="none" id="id33" stroke="none" /><text fill="#e1ed5e" style="font-size:6.75px; font-family:Arial;" text-anchor="middle"><textPath startOffset="21.40746469413373" xlink:href="#id33">September</textPath></text><line stroke="#e1ed5e" stroke-width="0.3" x1="15.003131293944662" x2="10.003315487706104" y1="100.72959589197737" y2="100.7725132973878" /><path d="M 14.003168132696942 100.73817937305945 a86.0,86.0 0 0,1 10.791469493833604,-42.45332614584628" fill="none" id="id34" stroke="none" /><text fill="#e1ed5e" style="font-size:6.75px; font-family:Arial;" text-anchor="middle"><textPath startOffset="22.145653131862435" xlink:href="#id34">October</textPath></text><line stroke="#e1ed5e" stroke-width="0.3" x1="26.387840678322718" x2="22.05771365940052" y1="57.49999999999999" y2="54.99999999999999" /><path d="M 25.521815274538284 56.99999999999999 a86.0,86.0 0 0,1 29.574782752854787,-30.34633250058573" fill="none" id="id35" stroke="none" /><text fill="#e1ed5e" style="font-size:6.75px; font-family:Arial;" text-anchor="middle"><textPath startOffset="21.40746469413373" xlink:href="#id35">November</textPath></text><line stroke="#e1ed5e" stroke-width="0.3" x1="56.869717070023135" x2="54.33264160355391" y1="26.7553504044142" y2="22.446841604673864" /><path d="M 56.362301976729285 25.89364864446614 a86.0,86.0 0 0,1 42.16139366436587,-11.88097634709845" fill="none" id="id36" stroke="none" /><text fill="#e1ed5e" style="font-size:6.75px; font-family:Arial;" text-anchor="middle"><textPath startOffset="22.145653131862474" xlink:href="#id36">December</textPath></text></svg>