<?xml version="1.0" encoding="utf-8" ?>
<svg baseProfile="full" height="200mm" version="1.1" viewBox="0,0,200,200" width="200mm" xmlns="http://www.w3.org/2000/svg" xmlns:ev="http://www.w3.org/2001/xml-events" xmlns:xlink="http://www.w3.org/1999/xlink"><defs /><rect fill="#1a1a1a" height="200" width="200" x="0" y="0" /><rect fill="#1a1a1a" height="200" width="180" x="10" y="0" /><text alignment-baseline="middle" fill="#e1ed5e" style="dominant-baseline: central; font-size:9.0px; font-family:Arial;" text-anchor="middle" x="100.0" y="100.0">2026</text><line stroke="#e1ed5e" stroke-width="0.3" x1="100.0" x2="100.0" y1="15.0" y2="10.0" /><path d="M 100.0 14.0 a86.0,86.0 0 0,1 42.46469731375804,11.215312516191453" fill="none" id="id49" stroke="none" /><text fill="#e1ed5e" style="font-size:6.75px; font-family:Arial;" text-anchor="middle"><textPath startOffset="22.20632615414155" xlink:href="#id49">January</textPath></text><path d="M 100.36148047927253 79.00311137660856 l 0.17810703717340537 -10.345492597825155 a31.347025621324505,31.347025621324505 0 0,0 0.5394276250195584,0.013931824087742833 l -0.3561612973878316 10.340893981595054" fill="#ff5908" stroke="none" /><path d="M 101.08401301168833 79.027996857942 l 0.5340253569061918 -10.331593202495021 a31.345385501935638,31.345385501935638 0 0,0 0.5386002229929042,0.03248983630434071 l -0.7117876287387079 10.320870096810376" fill="#ff5908" stroke="none" /><path d="M 101.80526077348638 79.07773832637324 l 0.6353060034475009 -7.362946474090079 a28.390304087000207,28.390304087000207 0 0,0 0.48652176548469145,0.046201103962940124 l -0.7619528960224365 7.35091982561196" fill="#ff2d04" stroke="none" /><path d="M 102.88285421437855 79.19881850522331 l 0.9733713628538112 -7.0233431435952225 a28.090472531694196,28.090472531694196 0 0,0 0.47838211103574446,0.07050108785452738 l -1.0941224543182115 7.005547571579726" fill="#ff2803" stroke="none" /><path d="M 103.59715602781102 79.31037775812273 l 2.024829332571413 -11.64613201965222 a32.820842814503976,32.820842814503976 0 0,0 0.5557738968739244,0.10156412723636252 l -2.2249983505482382 11.609552411065119" fill="#ff6e0a" stroke="none" /><path d="M 104.307194497241 79.44645832069477 l 1.2158801317457635 -5.802069765106629 a26.928100712195988,26.928100712195988 0 0,0 0.4528502233923133,0.0989755188998336 l -1.3155730792916047 5.780280748110925" fill="#ff1702" stroke="none" /><path d="M 104.66035177308747 79.52364482259891 l 1.3307978433933554 -5.8471743416460455 a26.996704985371906,26.996704985371906 0 0,0 0.45222863542450426,0.10702790708377152 l -1.4312501657803833 5.823400522421406" fill="#ff1802" stroke="none" /><path d="M 106.0581310904928 79.89281104454417 l 8.98926827773512 -29.835755141607915 a52.16053961405479,52.16053961405479 0 0,0 0.8574562496225591,0.266415830640879 l -9.501509900068395 29.676599176084515" fill="#95ff23" stroke="none" /><path d="M 107.4271985657038 80.35727306442388 l 2.6170559346993545 -6.921333076754369 a28.399583321020124,28.399583321020124 0 0,0 0.45576846124659276,0.17683108217579602 l -2.7358075609456143 6.875259290688025" fill="#ff2d04" stroke="none" /><path d="M 108.43124777332544 80.76684994638697 l 11.271248209752972 -25.711687515048993 a49.073687165696384,49.073687165696384 0 0,0 0.7707323590482827,0.3458051431959473 l -11.712162687268036 25.513862041336516" fill="#b9ff1f" stroke="none" /><path d="M 109.41281617654863 81.2277094730956 l 5.113217377660271 -10.19745848004546 a32.407591831909926,32.407591831909926 0 0,0 0.49651441878196795,0.25433397002477665 l -5.287992284030994 10.107931984708184" fill="#ff6809" stroke="none" /><line stroke="#e1ed5e" stroke-width="0.3" x1="143.23703022742887" x2="145.7803849466894" y1="26.81831364943548" y2="22.513508569990506" /><path d="M 143.74570117128098 25.957352633546492 a86.0,86.0 0 0,1 28.547481713284135,27.462654790039103" fill="none" id="id50" stroke="none" /><text fill="#e1ed5e" style="font-size:6.75px; font-family:Arial;" text-anchor="middle"><textPath startOffset="19.985693538727396" xlink:href="#id50">February</textPath></text><path d="M 110.68208982089419 81.91981866633111 l 14.282020186641807 -24.173314315380633 a49.07712993882798,49.07712993882798 0 0,0 0.723625767153677,0.4359764280061188 l -14.696008020013123 23.923891277915903" fill="#b9ff1f" stroke="none" /><path d="M 111.2981086023043 82.29822771554956 l 7.172191315796214 -11.23732315928026 a34.33108247879665,34.33108247879665 0 0,0 0.49540238245690177,0.3222234900637523 l -7.364560724037395 11.11220074505698" fill="#ff840c" stroke="none" /><path d="M 111.90073688211348 82.69761687909136 l 6.847940689946442 -9.95616444430378 a33.08385295073732,33.08385295073732 0 0,0 0.4664332686336602,0.3267663124643816 l -7.0183050981637525 9.836813289075463" fill="#ff720a" stroke="none" /><path d="M 112.48926042617603 83.11751280151076 l 3.8478846524175987 -5.2014179518229025 a27.47000502378912,27.47000502378912 0 0,0 0.3777176003283643,0.28448906566024595 l -3.9368484065043456 5.134412296656809" fill="#ff1f03" stroke="none" /><path d="M 112.77801427241765 83.33499621200491 l 16.181386755207477 -21.103660226192957 a47.59326516741039,47.59326516741039 0 0,0 0.645834817446506,0.5040843190791257 l -16.54225412781341 20.82199751789061" fill="#cbff1d" stroke="none" /><path d="M 113.6212207817346 84.01681056812373 l 7.452281929187204 -8.744534405731809 a32.489272732645766,32.489272732645766 0 0,0 0.4225248505115309,0.36640938673458356 l -7.601700578345499 8.614960025577554" fill="#ff6909" stroke="none" /><path d="M 114.68862486808459 84.99185889309783 l 16.565508501873417 -16.92585189808336 a44.68333875114513,44.68333875114513 0 0,0 0.5450605579542649,0.5427198946987343 l -16.854404859995004 16.638196152734505" fill="#efff19" stroke="none" /><path d="M 115.19652480421416 85.50635884689758 l 8.313181396293393 -7.9286724794546855 a32.48794290611425,32.48794290611425 0 0,0 0.38248005373092037,0.4080030536696178 l -8.448428771994777 7.784400008907014" fill="#ff6909" stroke="none" /><path d="M 116.38621287248628 86.86637796730983 l 10.236854820540962 -8.204884378272311 a34.119196784774964,34.119196784774964 0 0,0 0.3633628159203077,0.4614338761471013 l -10.376571717055233 8.027458108172171" fill="#ff810b" stroke="none" /><path d="M 117.45458315368197 88.32363383020206 l 3.6976518714625706 -2.4735702273432976 a25.44872779928485,25.44872779928485 0 0,0 0.2404339629161155,0.3661974207472897 l -3.7396824697366107 2.409554742618334" fill="#ff0000" stroke="none" /><line stroke="#e1ed5e" stroke-width="0.3" x1="172.23445277983987" x2="176.4835382374775" y1="55.19839476539836" y2="52.563006222186495" /><path d="M 173.08426987136738 54.67131705675599 a86.0,86.0 0 0,1 12.851231095245387,41.99856678651699" fill="none" id="id51" stroke="none" /><text fill="#e1ed5e" style="font-size:6.75px; font-family:Arial;" text-anchor="middle"><textPath startOffset="22.20632615414155" xlink:href="#id51">March</textPath></text><path d="M 117.84615892207809 88.93136811851018 l 53.538476766234254 -33.20589564446945 a84.0,84.0 0 0,0 0.7515368068551043,1.2353289071716742 l -54.10212937137558 32.279398964090696" fill="#4dd2ff" stroke="none" /><line stroke="#e1ed5e" stroke-width="0.3" x1="184.98032266829074" x2="189.97916517819016" y1="98.17113171792111" y2="98.06355123074" /><path d="M 185.9800911702706 98.14961562048488 a86.0,86.0 0 0,1 -9.607161424134198,41.387399972396054" fill="none" id="id52" stroke="none" /><text fill="#e1ed5e" style="font-size:6.75px; font-family:Arial;" text-anchor="middle"><textPath startOffset="21.466115282336823" xlink:href="#id52">April</textPath></text><line stroke="#e1ed5e" stroke-width="0.3" x1="174.80103733775053" x2="179.2010983576182" y1="140.37084112569926" y2="142.7455964860345" /><path d="M 175.68104954172406 140.8457921977663 a86.0,86.0 0 0,1 -30.038265399797805,32.042727171017184" fill="none" id="id53" stroke="none" /><text fill="#e1ed5e" style="font-size:6.75px; font-family:Arial;" text-anchor="middle"><textPath startOffset="22.206326154141568" xlink:href="#id53">May</textPath></text><line stroke="#e1ed5e" stroke-width="0.3" x1="143.8653032363475" x2="146.44561519142675" y1="172.8068346515853" y2="177.08958963109032" /><path d="M 144.38136562736335 173.6633856474863 a86.0,86.0 0 0,1 -40.68145358897372,12.25698825130547" fill="none" id="id54" stroke="none" /><text fill="#e1ed5e" style="font-size:6.75px; font-family:Arial;" text-anchor="middle"><textPath startOffset="21.466115282336833" xlink:href="#id54">June</textPath></text><line stroke="#e1ed5e" stroke-width="0.3" x1="102.19456741930631" x2="102.32365962044197" y1="184.97166512339345" y2="189.96999836594603" /><path d="M 102.22038585953345 185.97133177190398 a86.0,86.0 0 0,1 -42.740103519485714,-10.115201625700543" fill="none" id="id55" stroke="none" /><text fill="#e1ed5e" style="font-size:6.75px; font-family:Arial;" text-anchor="middle"><textPath startOffset="22.20632615414155" xlink:href="#id55">July</textPath></text><line stroke="#e1ed5e" stroke-width="0.3" x1="58.666819895761336" x2="56.23545636021788" y1="174.27360380694188" y2="178.64263932499728" /><path d="M 58.180547188652646 175.14741091055294 a86.0,86.0 0 0,1 -31.652253787137756,-30.449443065178592" fill="none" id="id56" stroke="none" /><text fill="#e1ed5e" style="font-size:6.75px; font-family:Arial;" text-anchor="middle"><textPath startOffset="22.20632615414155" xlink:href="#id56">August</textPath></text><line stroke="#e1ed5e" stroke-width="0.3" x1="26.63291911575756" x2="22.317208475507996" y1="142.92168965132927" y2="145.44649492493687" /><path d="M 25.769776987707644 143.4266507060508 a86.0,86.0 0 0,1 -11.730757126820373,-40.83630448921669" fill="none" id="id57" stroke="none" /><text fill="#e1ed5e" style="font-size:6.75px; font-family:Arial;" text-anchor="middle"><textPath startOffset="21.46611528233685" xlink:href="#id57">September</textPath></text><line stroke="#e1ed5e" stroke-width="0.3" x1="15.007084014347285" x2="10.007500721073583" y1="101.09737516637583" y2="101.16192664675087" /><path d="M 14.007167355692545 101.11028546245083 a86.0,86.0 0 0,1 10.666146001902534,-42.60595125391555" fill="none" id="id58" stroke="none" /><text fill="#e1ed5e" style="font-size:6.75px; font-family:Arial;" text-anchor="middle"><textPath startOffset="22.20632615414155" xlink:href="#id58">October</textPath></text><line stroke="#e1ed5e" stroke-width="0.3" x1="26.266209847984243" x2="21.928928074336255" y1="57.711370442889674" y2="55.22380399835377" /><path d="M 25.398753493254645 57.213857153982495 a86.0,86.0 0 0,1 29.58750427330803,-30.492523968695096" fill="none" id="id59" stroke="none" /><text fill="#e1ed5e" style="font-size:6.75px; font-family:Arial;" text-anchor="middle"><textPath startOffset="21.46611528233685" xlink:href="#id59">November</textPath></text><line stroke="#e1ed5e" stroke-width="0.3" x1="56.762969772571076" x2="54.21961505331055" y1="26.818313649435495" y2="22.513508569990535" /><path d="M 56.25429882871897 25.957352633546506 a86.0,86.0 0 0,1 42.265352541879196,-11.944610805530505" fill="none" id="id60" stroke="none" /><text fill="#e1ed5e" style="font-size:6.75px; font-family:Arial;" text-anchor="middle"><textPath startOffset="22.20632615414155" xlink:href="#id60">December</textPath></text></svg>