<?xml version="1.0" encoding="utf-8" ?>
<svg baseProfile="full" height="200mm" version="1.1" viewBox="0,0,200,200" width="200mm" xmlns="http://www.w3.org/2000/svg" xmlns:ev="http://www.w3.org/2001/xml-events" xmlns:xlink="http://www.w3.org/1999/xlink"><defs /><rect fill="#1a1a1a" height="200" width="200" x="0" y="0" /><rect fill="#1a1a1a" height="200" width="180" x="10" y="0" /><text alignment-baseline="middle" fill="#e1ed5e" style="dominant-baseline: central; font-size:9.0px; font-family:Arial;" text-anchor="middle" x="100.0" y="100.0">2022</text><line stroke="#e1ed5e" stroke-width="0.3" x1="100.0" x2="100.0" y1="15.0" y2="10.0" /><path d="M 100.0 14.0 a86.0,86.0 0 0,1 42.46469731375804,11.215312516191453" fill="none" id="id1" stroke="none" /><text fill="#e1ed5e" style="font-size:6.75px; font-family:Arial;" text-anchor="middle"><textPath startOffset="22.20632615414155" xlink:href="#id1">January</textPath></text><line stroke="#e1ed5e" stroke-width="0.3" x1="143.23703022742887" x2="145.7803849466894" y1="26.81831364943548" y2="22.513508569990506" /><path d="M 143.74570117128098 25.957352633546492 a86.0,86.0 0 0,1 28.547481713284135,27.462654790039103" fill="none" id="id2" stroke="none" /><text fill="#e1ed5e" style="font-size:6.75px; font-family:Arial;" text-anchor="middle"><textPath startOffset="19.985693538727396" xlink:href="#id2">February</textPath></text><line stroke="#e1ed5e" stroke-width="0.3" x1="172.23445277983987" x2="176.4835382374775" y1="55.19839476539836" y2="52.563006222186495" /><path d="M 173.08426987136738 54.67131705675599 a86.0,86.0 0 0,1 12.851231095245387,41.99856678651699" fill="none" id="id3" stroke="none" /><text fill="#e1ed5e" style="font-size:6.75px; font-family:Arial;" text-anchor="middle"><textPath startOffset="22.20632615414155" xlink:href="#id3">March</textPath></text><line stroke="#e1ed5e" stroke-width="0.3" x1="184.98032266829074" x2="189.97916517819016" y1="98.17113171792111" y2="98.06355123074" /><path d="M 185.9800911702706 98.14961562048488 a86.0,86.0 0 0,1 -9.607161424134198,41.387399972396054" fill="none" id="id4" stroke="none" /><text fill="#e1ed5e" style="font-size:6.75px; font-family:Arial;" text-anchor="middle"><textPath startOffset="21.466115282336823" xlink:href="#id4">April</textPath></text><line stroke="#e1ed5e" stroke-width="0.3" x1="174.80103733775053" x2="179.2010983576182" y1="140.37084112569926" y2="142.7455964860345" /><path d="M 175.68104954172406 140.8457921977663 a86.0,86.0 0 0,1 -30.038265399797805,32.042727171017184" fill="none" id="id5" stroke="none" /><text fill="#e1ed5e" style="font-size:6.75px; font-family:Arial;" text-anchor="middle"><textPath startOffset="22.206326154141568" xlink:href="#id5">May</textPath></text><line stroke="#e1ed5e" stroke-width="0.3" x1="143.8653032363475" x2="146.44561519142675" y1="172.8068346515853" y2="177.08958963109032" /><path d="M 144.38136562736335 173.6633856474863 a86.0,86.0 0 0,1 -40.68145358897372,12.25698825130547" fill="none" id="id6" stroke="none" /><text fill="#e1ed5e" style="font-size:6.75px; font-family:Arial;" text-anchor="middle"><textPath startOffset="21.466115282336833" xlink:href="#id6">June</textPath></text><line stroke="#e1ed5e" stroke-width="0.3" x1="102.19456741930631" x2="102.32365962044197" y1="184.97166512339345" y2="189.96999836594603" /><path d="M 102.22038585953345 185.97133177190398 a86.0,86.0 0 0,1 -42.740103519485714,-10.115201625700543" fill="none" id="id7" stroke="none" /><text fill="#e1ed5e" style="font-size:6.75px; font-family:Arial;" text-anchor="middle"><textPath startOffset="22.20632615414155" xlink:href="#id7">July</textPath></text><line stroke="#e1ed5e" stroke-width="0.3" x1="58.666819895761336" x2="56.23545636021788" y1="174.27360380694188" y2="178.64263932499728" /><path d="M 58.180547188652646 175.14741091055294 a86.0,86.0 0 0,1 -31.652253787137756,-30.449443065178592" fill="none" id="id8" stroke="none" /><text fill="#e1ed5e" style="font-size:6.75px; font-family:Arial;" text-anchor="middle"><textPath startOffset="22.20632615414155" xlink:href="#id8">August</textPath></text><line stroke="#e1ed5e" stroke-width="0.3" x1="26.63291911575756" x2="22.317208475507996" y1="142.92168965132927" y2="145.44649492493687" /><path d="M 25.769776987707644 143.4266507060508 a86.0,86.0 0 0,1 -11.730757126820373,-40.83630448921669" fill="none" id="id9" stroke="none" /><text fill="#e1ed5e" style="font-size:6.75px; font-family:Arial;" text-anchor="middle"><textPath startOffset="21.46611528233685" xlink:href="#id9">September</textPath></text><path d="M 79.4281124754447 104.21870165774334 l -21.318133079510407 4.371735129077216 a42.76177534197345,42.76177534197345 0 0,0 -0.14166378936288507,-0.7223406099413853 l 21.390226801848957 -4.004130792067876" fill="red" stroke="none" /><path d="M 79.29508885075956 103.50808413554451 l -47.11873691475243 7.983443747528584 a68.79027874486198,68.79027874486198 0 0,0 -0.18775895688825134,-1.1691752037730803 l 47.24917762600197 -7.171189314062291" fill="red" stroke="none" /><line stroke="#e1ed5e" stroke-width="0.3" x1="15.007084014347285" x2="10.007500721073583" y1="101.09737516637583" y2="101.16192664675087" /><path d="M 14.007167355692545 101.11028546245083 a86.0,86.0 0 0,1 10.666146001902534,-42.60595125391555" fill="none" id="id10" stroke="none" /><text fill="#e1ed5e" style="font-size:6.75px; font-family:Arial;" text-anchor="middle"><textPath startOffset="22.20632615414155" xlink:href="#id10">October</textPath></text><path d="M 79.01574976396665 99.18683210126434 l -61.57944124879496 -2.386286108979598 a82.62565980099279,82.62565980099279 0 0,0 0.06730604316768724,-1.4207241934325814 l 61.52924159739377 3.4459214090351886" fill="red" stroke="none" /><path d="M 80.02781315780177 93.51064311812611 l -45.07816911177042 -14.646785014532016 a68.39799195885088,68.39799195885088 0 0,0 0.3734618504084949,-1.116603397599848 l 44.819369967590156 15.420561515054187" fill="red" stroke="none" /><path d="M 80.2630227832202 92.82701384747504 l -32.13718315831198 -11.679578247663429 a55.19372880213832,55.19372880213832 0 0,0 0.3322016220988496,-0.8901351869695948 l 31.9313769477115 12.231036571662363" fill="red" stroke="none" /><path d="M 81.10775173730289 90.83032412892265 l -29.74358970996223 -14.436560068988205 a54.06199321668426,54.06199321668426 0 0,0 0.41354847095432595,-0.833688482374161 l 29.49068122605449 14.946408139861328" fill="red" stroke="none" /><line stroke="#e1ed5e" stroke-width="0.3" x1="26.266209847984243" x2="21.928928074336255" y1="57.711370442889674" y2="55.22380399835377" /><path d="M 25.398753493254645 57.213857153982495 a86.0,86.0 0 0,1 29.58750427330803,-30.492523968695096" fill="none" id="id11" stroke="none" /><text fill="#e1ed5e" style="font-size:6.75px; font-family:Arial;" text-anchor="middle"><textPath startOffset="21.46611528233685" xlink:href="#id11">November</textPath></text><path d="M 82.34701348167596 88.62581576622439 l -19.522263101873808 -12.578597788564643 a44.22369219020238,44.22369219020238 0 0,0 0.41781568225865795,-0.6363619487662421 l 19.30285078425723 12.912777801308552" fill="red" stroke="none" /><path d="M 83.84228863543731 86.58626213691792 l -27.153563634806403 -22.542226211853688 a56.29118842793289,56.29118842793289 0 0,0 0.6253398483063407,-0.7402051380530831 l 26.76151317301294 23.006290299535888" fill="red" stroke="none" /><path d="M 85.57189188830299 84.74124197986013 l -20.576552137313833 -21.761178078331884 a50.94901282540823,50.94901282540823 0 0,0 0.6424236630763268,-0.5970627809693777 l 20.19892059044265 22.11214544537591" fill="red" stroke="none" /><path d="M 86.65592168130627 83.78471172551755 l -40.03223495608118 -48.64586482344734 a84.0,84.0 0 0,0 1.124386405741998,-0.9091756109434628 l 39.18894515177469 49.32774653165494" fill="red" stroke="none" /><path d="M 87.51073957382395 83.11751280151077 l -15.697252590479197 -21.218923848748446 a47.394061229532134,47.394061229532134 0 0,0 0.6600292944567772,-0.47953935215222304 l 15.329677979668638 21.485982435717336" fill="red" stroke="none" /><path d="M 89.00827224532344 82.1063720568725 l -16.4951217345848 -26.852700301795423 a52.514386469306615,52.514386469306615 0 0,0 0.7743069581049496,-0.4665112784785504 l 16.030452710262203 27.13265818973259" fill="red" stroke="none" /><line stroke="#e1ed5e" stroke-width="0.3" x1="56.762969772571076" x2="54.21961505331055" y1="26.818313649435495" y2="22.513508569990535" /><path d="M 56.25429882871897 25.957352633546506 a86.0,86.0 0 0,1 42.265352541879196,-11.944610805530505" fill="none" id="id12" stroke="none" /><text fill="#e1ed5e" style="font-size:6.75px; font-family:Arial;" text-anchor="middle"><textPath startOffset="22.20632615414155" xlink:href="#id12">December</textPath></text><path d="M 89.63071344664047 81.73862282372117 l -8.354479124409991 -14.713094639357763 a37.9195885087936,37.9195885087936 0 0,0 0.5703754553442082,-0.3174133233666513 l 8.099979579993738 14.854723360284598" fill="red" stroke="none" /><path d="M 94.28887869178378 79.79150937346287 l -8.536942551934754 -30.207504661451967 a52.39064711035242,52.39064711035242 0 0,0 0.8699394872530939,-0.23778732402078623 l 8.015705175457938 30.34997852629905" fill="red" stroke="none" /></svg>