<?xml version="1.0" encoding="utf-8" ?>
<svg baseProfile="full" height="200mm" version="1.1" viewBox="0,0,200,200" width="200mm" xmlns="http://www.w3.org/2000/svg" xmlns:ev="http://www.w3.org/2001/xml-events" xmlns:xlink="http://www.w3.org/1999/xlink"><defs /><rect fill="#1a1a1a" height="200" width="200" x="0" y="0" /><text alignment-baseline="middle" fill="#e1ed5e" style="dominant-baseline: central; font-size:9.0px; font-family:Arial;" text-anchor="middle" x="100.0" y="100.0">2024</text><line stroke="#e1ed5e" stroke-width="0.3" x1="100.0" x2="100.0" y1="15.0" y2="10.0" /><path d="M 100.0 14.0 a86.0,86.0 0 0,1 42.35913384403234,11.155469271406648" fill="none" id="id25" stroke="none" /><text fill="#e1ed5e" style="font-size:6.75px; font-family:Arial;" text-anchor="middle"><textPath startOffset="22.145653131862478" xlink:href="#id25">January</textPath></text><line stroke="#e1ed5e" stroke-width="0.3" x1="143.13028292997686" x2="145.6673583964461" y1="26.7553504044142" y2="22.446841604673864" /><path d="M 143.63769802327073 25.89364864446614 a86.0,86.0 0 0,1 29.32050498858742,28.57503671076993" fill="none" id="id26" stroke="none" /><text fill="#e1ed5e" style="font-size:6.75px; font-family:Arial;" text-anchor="middle"><textPath startOffset="20.669276256404974" xlink:href="#id26">February</textPath></text><line stroke="#e1ed5e" stroke-width="0.3" x1="172.87174338648825" x2="177.1583165268699" y1="56.24261187166439" y2="53.66864786411523" /><path d="M 173.72905801456457 55.72781907015455 a86.0,86.0 0 0,1 12.242430191666344,42.057860355516425" fill="none" id="id27" stroke="none" /><text fill="#e1ed5e" style="font-size:6.75px; font-family:Arial;" text-anchor="middle"><textPath startOffset="22.145653131862474" xlink:href="#id27">March</textPath></text><path d="M 120.05942366710727 93.78553927170692 l 4.379754726175258 -1.35685920976897 a25.58511923253795,25.58511923253795 0 0,0 0.12637060571165742,0.4206466466020534 l -4.402401651890543 1.281474959576193" fill="#ff1902" stroke="none" /><path d="M 120.35273937422433 94.82641323984039 l 4.531680956796987 -1.151935578217262 a25.67579809984982,25.67579809984982 0 0,0 0.10491922588649635,0.42810624539052183 l -4.550787709199775 1.0739735082186452" fill="#ff1a02" stroke="none" /><path d="M 120.592083275326 95.88100663000786 l 4.605194418739539 -0.9211678597396625 a25.69642053698422,25.69642053698422 0 0,0 0.08280819299117384,0.43328745714149386 l -4.62032890401287 0.8419778375648542" fill="#ff1a02" stroke="none" /><path d="M 120.7213421655516 96.59031103205396 l 4.670395212720323 -0.7685117549593142 a25.733202062083507,25.733202062083507 0 0,0 0.06798284061471001,0.436498604345731 l -4.6828995454732985 0.688224968682142" fill="#ff1b02" stroke="none" /><path d="M 120.93736805541906 98.37931529534042 l 4.866853495682316 -0.37672524069852364 a25.88141217839823,25.88141217839823 0 0,0 0.030485886511799534,0.44325809914919156 l -4.872603343359182 0.29312371739499793" fill="#ff1d03" stroke="none" /><line stroke="#e1ed5e" stroke-width="0.3" x1="184.99686870605535" x2="189.99668451229388" y1="99.2704041080226" y2="99.22748670261217" /><path d="M 185.99683186730306 99.26182062694052 a86.0,86.0 0 0,1 -10.086455211305974,41.156179273409016" fill="none" id="id28" stroke="none" /><text fill="#e1ed5e" style="font-size:6.75px; font-family:Arial;" text-anchor="middle"><textPath startOffset="21.40746469413373" xlink:href="#id28">April</textPath></text><path d="M 120.98066250479742 100.90099992219065 l 5.907020594187337 0.2536728806597192 a26.912464987679463,26.912464987679463 0 0,0 -0.023783455903665207,0.46139269072979827 l -5.901795548827099 -0.35503736476624814" fill="#ff2c04" stroke="none" /><path d="M 120.7213421655516 103.40968896794604 l 5.954367044294512 0.9797888312362601 a27.034440574899705,27.034440574899705 0 0,0 -0.07928195032383543,0.45727722110946284 l -5.936670276478442 -1.081859085266311" fill="#ff2e04" stroke="none" /><path d="M 119.58574465831526 107.57618678355244 l 5.709873230056042 2.208701627433122 a27.12217405684748,27.12217405684748 0 0,0 -0.17169798842460515,0.4327910922574405 l -5.671116566665312 -2.3063937369041265" fill="#ff3004" stroke="none" /><line stroke="#e1ed5e" stroke-width="0.3" x1="174.33088141563837" x2="178.70328620479359" y1="141.23008692659167" y2="143.65538615756765" /><path d="M 175.20536237346943 141.71514677278685 a86.0,86.0 0 0,1 -30.301960400862466,31.631185727798858" fill="none" id="id29" stroke="none" /><text fill="#e1ed5e" style="font-size:6.75px; font-family:Arial;" text-anchor="middle"><textPath startOffset="22.145653131862474" xlink:href="#id29">May</textPath></text><line stroke="#e1ed5e" stroke-width="0.3" x1="143.1302829299769" x2="145.66735839644613" y1="173.24464959558577" y2="177.55315839532614" /><path d="M 143.63769802327073 174.10635135553383 a86.0,86.0 0 0,1 -40.68552437913181,11.842963189579606" fill="none" id="id30" stroke="none" /><text fill="#e1ed5e" style="font-size:6.75px; font-family:Arial;" text-anchor="middle"><textPath startOffset="21.407464694133747" xlink:href="#id30">June</textPath></text><path d="M 106.72888874123015 119.89276391827305 l 0.9378455933622581 2.7725738525344448 a23.9268959880301,23.9268959880301 0 0,0 -0.3902103730746648,0.1282699001924834 l -0.8901124826398592 -2.788264674128947" fill="#ff0000" stroke="none" /><path d="M 104.29559338865022 120.5559693870025 l 2.373336388646397 11.35727377711704 a32.60260286582556,32.60260286582556 0 0,0 -0.548815937805132,0.1097785580477927 l -2.178023965310306 -11.396341731827695" fill="#ff7e0b" stroke="none" /><path d="M 102.875027216393 120.80226474461374 l 0.9184806994581394 6.645668800630419 a27.70883899068607,27.70883899068607 0 0,0 -0.47173926042037584,0.0610760918104345 l -0.8042636171469881 -6.660456488641248" fill="#ff3805" stroke="none" /><path d="M 102.15924093988457 120.88869738790638 l 1.4951279337777013 14.464006488575455 a35.54107600007356,35.54107600007356 0 0,0 -0.6074146521044169,0.057522799080921325 l -1.246613718288269 -14.48754104316156" fill="#ffa60f" stroke="none" /><path d="M 101.80034050326958 120.92268563240118 l 0.6063129825562352 7.046275916044375 a28.07231360431954,28.07231360431954 0 0,0 -0.48047904275168546,0.03719211667082398 l -0.48526494502931394 -7.055645799710253" fill="#ff3d05" stroke="none" /><line stroke="#e1ed5e" stroke-width="0.3" x1="101.45913802915013" x2="101.54496967792366" y1="184.9874750549273" y2="189.98673829345242" /><path d="M 101.47630435890484 185.9873277026323 a86.0,86.0 0 0,1 -42.54439059252881,-10.42667462771756" fill="none" id="id31" stroke="none" /><text fill="#e1ed5e" style="font-size:6.75px; font-family:Arial;" text-anchor="middle"><textPath startOffset="22.145653131862474" xlink:href="#id31">July</textPath></text><path d="M 99.63950707515114 120.99690560180557 l -0.27867156138042143 16.231221377412133 a37.23361343760787,37.23361343760787 0 0,0 -0.6389761215214532,-0.016457758286045156 l 0.5572609969726185 -16.22404590177604" fill="#ffbd11" stroke="none" /><path d="M 96.76829788921471 120.74984581791261 l -1.1173994296581267 7.17450590667082 a28.260999689454255,28.260999689454255 0 0,0 -0.478717779797584,-0.07877282849221101 l 1.2403947125087742 -7.15426707968294" fill="#ff4006" stroke="none" /><path d="M 94.30408787586889 120.21278271476187 l -1.869745233021624 6.635066220020556 a27.89347887357791,27.89347887357791 0 0,0 -0.4597642110444843,-0.13383066115964423 l 1.9833694564477151 -6.6019918645583955" fill="#ff3b05" stroke="none" /><path d="M 90.28995756902619 118.62028667847754 l -4.186226153908915 8.027640624728663 a30.05359063639753,30.05359063639753 0 0,0 -0.4553994602987597,-0.24247456213248042 l 4.323414429994236 -7.95459559487361" fill="#ff5a08" stroke="none" /><line stroke="#e1ed5e" stroke-width="0.3" x1="58.13341422392154" x2="55.67067388415222" y1="173.97424548756322" y2="178.32567169271397" /><path d="M 57.64086615596768 174.84453072859336 a86.0,86.0 0 0,1 -31.369924170532247,-30.572349798747897" fill="none" id="id32" stroke="none" /><text fill="#e1ed5e" style="font-size:6.75px; font-family:Arial;" text-anchor="middle"><textPath startOffset="22.145653131862474" xlink:href="#id32">August</textPath></text><path d="M 88.1277618465304 117.32195027204791 l -4.871511397698809 7.107680716124503 a29.616887399767826,29.616887399767826 0 0,0 -0.4168998714059631,-0.29102848831704015 l 4.992806360278537 -7.023007412002333" fill="#ff5407" stroke="none" /><path d="M 84.3458050057657 113.99807769240083 l -3.678135268226143 3.289011237355388 a25.93419435884107,25.93419435884107 0 0,0 -0.2939072058357932,-0.33441244843950485 l 3.7340535380205284 -3.2253865111045834" fill="#ff1e03" stroke="none" /><path d="M 83.8745106332314 113.45245675266167 l -22.27079761650511 18.57909146005361 a50.00294926307266,50.00294926307266 0 0,0 -0.5442063381678411,-0.6638432458519318 l 22.586450773911583 -18.194045932503187" fill="#a4ff21" stroke="none" /><path d="M 82.576782715395 111.72311816256416 l -5.887534539459171 3.9613959904663147 a28.096176516026592,28.096176516026592 0 0,0 -0.26581064921447073,-0.402471201798016 l 5.9546696275943685 -3.8597449103292374" fill="#ff3e05" stroke="none" /><line stroke="#e1ed5e" stroke-width="0.3" x1="26.387840678322732" x2="22.057713659400548" y1="142.50000000000003" y2="145.00000000000006" /><path d="M 25.521815274538298 143.00000000000003 a86.0,86.0 0 0,1 -11.493303480769221,-40.785679425670985" fill="none" id="id33" stroke="none" /><text fill="#e1ed5e" style="font-size:6.75px; font-family:Arial;" text-anchor="middle"><textPath startOffset="21.40746469413373" xlink:href="#id33">September</textPath></text><path d="M 81.63589988554817 110.18625677009913 l -6.4180299125071825 3.559973003824288 a28.339244902971604,28.339244902971604 0 0,0 -0.23232060944936325,-0.4274437545712477 l 6.4781958715718755 -3.449274415778453" fill="#ff4106" stroke="none" /><path d="M 81.1358732173502 109.22738970284198 l -9.366316523026962 4.581534763518878 a31.42680900366262,31.42680900366262 0 0,0 -0.23288873033819504,-0.4866478756180423 l 9.443584511325069 -4.420074385835731" fill="#ff6d0a" stroke="none" /><path d="M 80.5471966667186 107.91128576633889 l -13.40547775300553 5.451891098743536 a35.47169479842928,35.47169479842928 0 0,0 -0.22455495750954385,-0.5660251830792629 l 13.497091385481196 -5.220964898450708" fill="#ffa50f" stroke="none" /><path d="M 79.48165901384964 104.47187691870673 l -7.129641135605142 1.553872101769594 a28.297006319797923,28.297006319797923 0 0,0 -0.09936600108758373,-0.4755022861014046 l 7.155264847517092 -1.4312533643827803" fill="#ff4106" stroke="none" /><path d="M 79.2786578344484 103.40968896794605 l -29.91319574326532 4.922204976248326 a51.31546439365741,51.31546439365741 0 0,0 -0.13556692356152264,-0.8704368984141261 l 29.993284158965107 -4.40797989590275" fill="#95ff23" stroke="none" /><path d="M 79.0935383218832 101.97986365728391 l -8.684428165902796 0.8224243764769154 a29.723283465745524,29.723283465745524 0 0,0 -0.043744714926396845,-0.5083798963706085 l 8.697266503526935 -0.6732234327306447" fill="#ff5507" stroke="none" /><path d="M 79.00696218219943 100.54070618675478 l -7.3087369603736665 0.1882471382243869 a28.311160847702762,28.311160847702762 0 0,0 -0.008343121687008419,-0.4859450114309847 l 7.310891513659341 -0.06275521082434987" fill="#ff4106" stroke="none" /><line stroke="#e1ed5e" stroke-width="0.3" x1="15.003131293944662" x2="10.003315487706104" y1="100.72959589197737" y2="100.7725132973878" /><path d="M 14.003168132696942 100.73817937305945 a86.0,86.0 0 0,1 10.791469493833604,-42.45332614584628" fill="none" id="id34" stroke="none" /><text fill="#e1ed5e" style="font-size:6.75px; font-family:Arial;" text-anchor="middle"><textPath startOffset="22.145653131862435" xlink:href="#id34">October</textPath></text><path d="M 79.01933749520258 99.09900007780938 l -8.796337193475154 -0.3777525673973048 a29.804444617549116,29.804444617549116 0 0,0 0.02633919615387566,-0.5109733688123484 l 8.788556407864709 0.5286977295863653" fill="#ff5608" stroke="none" /><path d="M 79.06263194458094 98.37931529534042 l -26.187155247843922 -2.027051435327944 a47.26549138120482,47.26549138120482 0 0,0 0.06956214809543268,-0.8084176042654733 l 26.148499477050745 2.4762900869690982" fill="#c4ff1e" stroke="none" /><path d="M 79.22317932658666 96.9465228501225 l -10.122079309272284 -1.4875970855185208 a31.23080811236538,31.23080811236538 0 0,0 0.08250660159000577,-0.529751568450271 l 10.09505121554401 1.6611368359002419" fill="#ff6b09" stroke="none" /><path d="M 79.407916724674 95.88100663000787 l -23.112094641034886 -4.623066220168355 a44.56993126787211,44.56993126787211 0 0,0 0.15650898857588194,-0.7489521672272436 l 23.029327941634637 5.0191348386810075" fill="#e4ff1a" stroke="none" /><path d="M 79.73907114497095 94.47779374421319 l -6.754910119184547 -1.8410807907348063 a28.00131339080565,28.00131339080565 0 0,0 0.13038145939262735,-0.4626778031865719 l 6.722310167717337 1.9567665178243914" fill="#ff3c05" stroke="none" /><path d="M 80.5471966667186 92.08871423366112 l -5.119693552080622 -2.082134797368561 a26.526893103872094,26.526893103872094 0 0,0 0.17517116658336068,-0.42034703097596954 l 5.083196540960783 2.169714337785794" fill="#ff2703" stroke="none" /><path d="M 80.9802524753101 91.09779779509293 l -57.05924257406971 -26.706606614721213 a84.0,84.0 0 0,0 0.6224829681603801,-1.3007499917396512 l 56.59238034794942 27.68216910852595" fill="#4dd2ff" stroke="none" /><line stroke="#e1ed5e" stroke-width="0.3" x1="26.387840678322718" x2="22.05771365940052" y1="57.49999999999999" y2="54.99999999999999" /><path d="M 25.521815274538284 56.99999999999999 a86.0,86.0 0 0,1 29.574782752854787,-30.34633250058573" fill="none" id="id35" stroke="none" /><text fill="#e1ed5e" style="font-size:6.75px; font-family:Arial;" text-anchor="middle"><textPath startOffset="21.40746469413373" xlink:href="#id35">November</textPath></text><line stroke="#e1ed5e" stroke-width="0.3" x1="56.869717070023135" x2="54.33264160355391" y1="26.7553504044142" y2="22.446841604673864" /><path d="M 56.362301976729285 25.89364864446614 a86.0,86.0 0 0,1 42.16139366436587,-11.88097634709845" fill="none" id="id36" stroke="none" /><text fill="#e1ed5e" style="font-size:6.75px; font-family:Arial;" text-anchor="middle"><textPath startOffset="22.145653131862474" xlink:href="#id36">December</textPath></text></svg>